<?xml version="1.0" standalone="no"?>
 <!DOCTYPE svg PUBLIC "-//W3C//DTD SVG 1.1//EN" 
 "http://www.w3.org/Graphics/SVG/1.1/DTD/svg11.dtd"> 
<svg xmlns="http://www.w3.org/2000/svg" version="1.1" 
    width="29.7002cm" height="21.0007cm" viewBox="0 0 116930 82680 ">
<title>SVG Picture created as bluetooth_board-F_SilkS.svg date 2019/09/20 18:54:44 </title>
  <desc>Picture generated by PCBNEW </desc>
<g style="fill:#000000; fill-opacity:1;stroke:#000000; stroke-opacity:1;
stroke-linecap:round; stroke-linejoin:round; "
 transform="translate(0 0) scale(1 1)">
</g>
<g style="fill:#000000; fill-opacity:0.0; 
stroke:#000000; stroke-width:-0.000393701; stroke-opacity:1; 
stroke-linecap:round; stroke-linejoin:round;">
</g>
<g style="fill:#000000; fill-opacity:0.0; 
stroke:#000000; stroke-width:47.2441; stroke-opacity:1; 
stroke-linecap:round; stroke-linejoin:round;">
<path d="M58550 39547
L58112 39547
" />
<path d="M58112 39547
L58112 39023
" />
<path d="M62522 39547
L62522 33500
" />
<path d="M62522 33500
L59124 33500
" />
<path d="M59124 39547
L59124 33500
" />
<path d="M62522 39547
L59124 39547
" />
<path d="M62522 34523
L59124 34523
" />
<path d="M62522 35523
L59124 35523
" />
<path d="M62522 36523
L59124 36523
" />
<path d="M62522 37523
L59124 37523
" />
<path d="M62522 38523
L59124 38523
" />
<path d="M59124 33881
L58963 33881
" />
<path d="M59124 34165
L58963 34165
" />
<path d="M59124 34881
L58963 34881
" />
<path d="M59124 35165
L58963 35165
" />
<path d="M59124 35881
L58963 35881
" />
<path d="M59124 36165
L58963 36165
" />
<path d="M59124 36881
L58963 36881
" />
<path d="M59124 37165
L58963 37165
" />
<path d="M59124 37881
L58963 37881
" />
<path d="M59124 38165
L58963 38165
" />
<path d="M59124 38881
L58987 38881
" />
<path d="M59124 39165
L58987 39165
" />
<path d="M62522 38570
L59124 38570
" />
<path d="M62522 38616
L59124 38616
" />
<path d="M62522 38663
L59124 38663
" />
<path d="M62522 38709
L59124 38709
" />
<path d="M62522 38756
L59124 38756
" />
<path d="M62522 38802
L59124 38802
" />
<path d="M62522 38849
L59124 38849
" />
<path d="M62522 38895
L59124 38895
" />
<path d="M62522 38942
L59124 38942
" />
<path d="M62522 38988
L59124 38988
" />
<path d="M62522 39035
L59124 39035
" />
<path d="M62522 39081
L59124 39081
" />
<path d="M62522 39128
L59124 39128
" />
<path d="M62522 39174
L59124 39174
" />
<path d="M62522 39221
L59124 39221
" />
<path d="M62522 39267
L59124 39267
" />
<path d="M62522 39314
L59124 39314
" />
<path d="M62522 39360
L59124 39360
" />
<path d="M62522 39407
L59124 39407
" />
<path d="M62522 39453
L59124 39453
" />
<path d="M62522 39500
L59124 39500
" />
<path d="M51027 33547
L54425 33547
" />
<path d="M51027 33593
L54425 33593
" />
<path d="M51027 33640
L54425 33640
" />
<path d="M51027 33686
L54425 33686
" />
<path d="M51027 33733
L54425 33733
" />
<path d="M51027 33779
L54425 33779
" />
<path d="M51027 33826
L54425 33826
" />
<path d="M51027 33872
L54425 33872
" />
<path d="M51027 33919
L54425 33919
" />
<path d="M51027 33965
L54425 33965
" />
<path d="M51027 34012
L54425 34012
" />
<path d="M51027 34058
L54425 34058
" />
<path d="M51027 34105
L54425 34105
" />
<path d="M51027 34151
L54425 34151
" />
<path d="M51027 34198
L54425 34198
" />
<path d="M51027 34244
L54425 34244
" />
<path d="M51027 34291
L54425 34291
" />
<path d="M51027 34337
L54425 34337
" />
<path d="M51027 34384
L54425 34384
" />
<path d="M51027 34430
L54425 34430
" />
<path d="M51027 34477
L54425 34477
" />
<path d="M54425 33881
L54562 33881
" />
<path d="M54425 34165
L54562 34165
" />
<path d="M54425 34881
L54586 34881
" />
<path d="M54425 35165
L54586 35165
" />
<path d="M54425 35881
L54586 35881
" />
<path d="M54425 36165
L54586 36165
" />
<path d="M54425 36881
L54586 36881
" />
<path d="M54425 37165
L54586 37165
" />
<path d="M54425 37881
L54586 37881
" />
<path d="M54425 38165
L54586 38165
" />
<path d="M54425 38881
L54586 38881
" />
<path d="M54425 39165
L54586 39165
" />
<path d="M51027 34523
L54425 34523
" />
<path d="M51027 35523
L54425 35523
" />
<path d="M51027 36523
L54425 36523
" />
<path d="M51027 37523
L54425 37523
" />
<path d="M51027 38523
L54425 38523
" />
<path d="M51027 33500
L54425 33500
" />
<path d="M54425 33500
L54425 39547
" />
<path d="M51027 39547
L54425 39547
" />
<path d="M51027 33500
L51027 39547
" />
<path d="M55437 33500
L55437 34023
" />
<path d="M55000 33500
L55437 33500
" />
</g>
<g style="fill:#000000; fill-opacity:0.0; 
stroke:#000000; stroke-width:59.0551; stroke-opacity:1; 
stroke-linecap:round; stroke-linejoin:round;">
<path d="M60143 39898
L60143 40179
L60124 40236
L60086 40273
L60030 40292
L59993 40292
" />
<path d="M60311 39936
L60330 39917
L60368 39898
L60461 39898
L60499 39917
L60518 39936
L60536 39973
L60536 40011
L60518 40067
L60293 40292
L60536 40292
" />
<path d="M53144 32717
L53144 32998
L53125 33054
L53088 33092
L53031 33111
L52994 33111
" />
<path d="M53538 33111
L53313 33111
" />
<path d="M53425 33111
L53425 32717
L53388 32773
L53350 32811
L53313 32829
" />
<g >
</g>
</g> 
</svg>
