  0
SECTION
  2
HEADER
  9
$ANGBASE
  50
0.0
  9
$ANGDIR
  70
1
  9
$MEASUREMENT
  70
1
  0
ENDSEC
  0
SECTION
  2
TABLES
  0
TABLE
  2
LTYPE
  70
4
  0
LTYPE
  5
40F
  2
CONTINUOUS
  70
0
  3
Solid line
  72
65
  73
0
  40
0.0
  0
LTYPE
  5
410
  2
DASHDOT
 70
0
  3
Dash Dot ____ _ ____ _
 72
65
 73
4
 40
2.0
 49
1.25
 49
-0.25
 49
0.25
 49
-0.25
  0
LTYPE
  5
411
  2
DASHED
 70
0
  3
Dashed __ __ __ __ __
 72
65
 73
2
 40
0.75
 49
0.5
 49
-0.25
  0
LTYPE
  5
43B
  2
DOTTED
 70
0
  3
Dotted .  .  .  .
 72
65
 73
2
 40
0.2
 49
0.0
 49
-0.2
  0
ENDTAB
  0
TABLE
  2
STYLE
  70
4
  0
STYLE
  2
KICAD
  70
0
  40
0
  41
1
  42
1
  50
0
  71
0
  3
isocp.shx
  0
STYLE
  2
KICADB
  70
0
  40
0
  41
1
  42
1
  50
0
  71
0
  3
isocp.shx
  0
STYLE
  2
KICADI
  70
0
  40
0
  41
1
  42
1
  50
15
  71
0
  3
isocp.shx
  0
STYLE
  2
KICADBI
  70
0
  40
0
  41
1
  42
1
  50
15
  71
0
  3
isocp.shx
  0
ENDTAB
  0
TABLE
  2
LAYER
  70
1
  0
LAYER
  2
BLACK
  70
0
  62
7
  6
CONTINUOUS
  0
ENDTAB
  0
ENDSEC
  0
SECTION
  2
ENTITIES
0
LINE
8
BLACK
6
CONTINUOUS
10
11.0502
20
14.884
11
11.0502
21
14.884
0
LINE
8
BLACK
6
CONTINUOUS
10
11.0502
20
14.884
11
11.0539
21
14.8836
0
LINE
8
BLACK
6
CONTINUOUS
10
11.0539
20
14.8836
11
11.0586
21
14.8822
0
LINE
8
BLACK
6
CONTINUOUS
10
11.0586
20
14.8822
11
11.063
21
14.8799
0
LINE
8
BLACK
6
CONTINUOUS
10
11.063
20
14.8799
11
11.0668
21
14.8768
0
LINE
8
BLACK
6
CONTINUOUS
10
11.0668
20
14.8768
11
11.0699
21
14.873
0
LINE
8
BLACK
6
CONTINUOUS
10
11.0699
20
14.873
11
11.0722
21
14.8686
0
LINE
8
BLACK
6
CONTINUOUS
10
11.0722
20
14.8686
11
11.0736
21
14.8639
0
LINE
8
BLACK
6
CONTINUOUS
10
11.0736
20
14.8639
11
11.0741
21
14.859
0
LINE
8
BLACK
6
CONTINUOUS
10
11.0741
20
14.859
11
11.074
21
14.8578
0
LINE
8
BLACK
6
CONTINUOUS
10
11.074
20
14.8578
11
11.074
21
0.001218
0
LINE
8
BLACK
6
CONTINUOUS
10
11.074
20
0.001218
11
11.0741
21
0
0
LINE
8
BLACK
6
CONTINUOUS
10
11.0741
20
0
11
11.074
21
-0.001217
0
LINE
8
BLACK
6
CONTINUOUS
10
11.074
20
-0.001217
11
11.074
21
-0.001218
0
LINE
8
BLACK
6
CONTINUOUS
10
11.074
20
-0.001218
11
11.0736
21
-0.004901
0
LINE
8
BLACK
6
CONTINUOUS
10
11.0736
20
-0.004901
11
11.0722
21
-0.009613
0
LINE
8
BLACK
6
CONTINUOUS
10
11.0722
20
-0.009613
11
11.0699
21
-0.013956
0
LINE
8
BLACK
6
CONTINUOUS
10
11.0699
20
-0.013956
11
11.0668
21
-0.017763
0
LINE
8
BLACK
6
CONTINUOUS
10
11.0668
20
-0.017763
11
11.063
21
-0.020887
0
LINE
8
BLACK
6
CONTINUOUS
10
11.063
20
-0.020887
11
11.0586
21
-0.023208
0
LINE
8
BLACK
6
CONTINUOUS
10
11.0586
20
-0.023208
11
11.0539
21
-0.024637
0
LINE
8
BLACK
6
CONTINUOUS
10
11.0539
20
-0.024637
11
11.049
21
-0.02512
0
LINE
8
BLACK
6
CONTINUOUS
10
11.049
20
-0.02512
11
11.0478
21
-0.025
0
LINE
8
BLACK
6
CONTINUOUS
10
11.0478
20
-0.025
11
0.001217
21
-0.025
0
LINE
8
BLACK
6
CONTINUOUS
10
0.001217
20
-0.025
11
0
21
-0.02512
0
LINE
8
BLACK
6
CONTINUOUS
10
0
20
-0.02512
11
-0.004901
21
-0.024637
0
LINE
8
BLACK
6
CONTINUOUS
10
-0.004901
20
-0.024637
11
-0.009613
21
-0.023208
0
LINE
8
BLACK
6
CONTINUOUS
10
-0.009613
20
-0.023208
11
-0.013956
21
-0.020887
0
LINE
8
BLACK
6
CONTINUOUS
10
-0.013956
20
-0.020887
11
-0.017763
21
-0.017763
0
LINE
8
BLACK
6
CONTINUOUS
10
-0.017763
20
-0.017763
11
-0.020887
21
-0.013956
0
LINE
8
BLACK
6
CONTINUOUS
10
-0.020887
20
-0.013956
11
-0.023208
21
-0.009613
0
LINE
8
BLACK
6
CONTINUOUS
10
-0.023208
20
-0.009613
11
-0.024637
21
-0.004901
0
LINE
8
BLACK
6
CONTINUOUS
10
-0.024637
20
-0.004901
11
-0.02512
21
0
0
LINE
8
BLACK
6
CONTINUOUS
10
-0.02512
20
0
11
-0.025
21
0.001218
0
LINE
8
BLACK
6
CONTINUOUS
10
-0.025
20
0.001218
11
-0.024999
21
14.8578
0
LINE
8
BLACK
6
CONTINUOUS
10
-0.024999
20
14.8578
11
-0.02512
21
14.859
0
LINE
8
BLACK
6
CONTINUOUS
10
-0.02512
20
14.859
11
-0.024637
21
14.8639
0
LINE
8
BLACK
6
CONTINUOUS
10
-0.024637
20
14.8639
11
-0.023208
21
14.8686
0
LINE
8
BLACK
6
CONTINUOUS
10
-0.023208
20
14.8686
11
-0.020887
21
14.873
0
LINE
8
BLACK
6
CONTINUOUS
10
-0.020887
20
14.873
11
-0.017763
21
14.8768
0
LINE
8
BLACK
6
CONTINUOUS
10
-0.017763
20
14.8768
11
-0.013956
21
14.8799
0
LINE
8
BLACK
6
CONTINUOUS
10
-0.013956
20
14.8799
11
-0.009613
21
14.8822
0
LINE
8
BLACK
6
CONTINUOUS
10
-0.009613
20
14.8822
11
-0.004901
21
14.8836
0
LINE
8
BLACK
6
CONTINUOUS
10
-0.004901
20
14.8836
11
-0.001218
21
14.884
0
LINE
8
BLACK
6
CONTINUOUS
10
-0.001218
20
14.884
11
-0.001217
21
14.884
0
LINE
8
BLACK
6
CONTINUOUS
10
-0.001217
20
14.884
11
0
21
14.8841
0
LINE
8
BLACK
6
CONTINUOUS
10
0
20
14.8841
11
0.001218
21
14.884
0
LINE
8
BLACK
6
CONTINUOUS
10
0.001218
20
14.884
11
11.0478
21
14.884
0
LINE
8
BLACK
6
CONTINUOUS
10
11.0478
20
14.884
11
11.049
21
14.8841
0
LINE
8
BLACK
6
CONTINUOUS
10
11.049
20
14.8841
11
11.0502
21
14.884
0
LINE
8
BLACK
6
CONTINUOUS
10
0.025
20
14.834
11
0.025
21
0.025
0
LINE
8
BLACK
6
CONTINUOUS
10
0.025
20
0.025
11
11.024
21
0.025
0
LINE
8
BLACK
6
CONTINUOUS
10
11.024
20
0.025
11
11.024
21
14.834
0
LINE
8
BLACK
6
CONTINUOUS
10
11.024
20
14.834
11
0.025
21
14.834
  0
ENDSEC
  0
EOF
