  0
SECTION
  2
HEADER
  9
$ANGBASE
  50
0.0
  9
$ANGDIR
  70
1
  9
$MEASUREMENT
  70
1
  0
ENDSEC
  0
SECTION
  2
TABLES
  0
TABLE
  2
LTYPE
  70
4
  0
LTYPE
  5
40F
  2
CONTINUOUS
  70
0
  3
Solid line
  72
65
  73
0
  40
0.0
  0
LTYPE
  5
410
  2
DASHDOT
 70
0
  3
Dash Dot ____ _ ____ _
 72
65
 73
4
 40
2.0
 49
1.25
 49
-0.25
 49
0.25
 49
-0.25
  0
LTYPE
  5
411
  2
DASHED
 70
0
  3
Dashed __ __ __ __ __
 72
65
 73
2
 40
0.75
 49
0.5
 49
-0.25
  0
LTYPE
  5
43B
  2
DOTTED
 70
0
  3
Dotted .  .  .  .
 72
65
 73
2
 40
0.2
 49
0.0
 49
-0.2
  0
ENDTAB
  0
TABLE
  2
STYLE
  70
4
  0
STYLE
  2
KICAD
  70
0
  40
0
  41
1
  42
1
  50
0
  71
0
  3
isocp.shx
  0
STYLE
  2
KICADB
  70
0
  40
0
  41
1
  42
1
  50
0
  71
0
  3
isocp.shx
  0
STYLE
  2
KICADI
  70
0
  40
0
  41
1
  42
1
  50
15
  71
0
  3
isocp.shx
  0
STYLE
  2
KICADBI
  70
0
  40
0
  41
1
  42
1
  50
15
  71
0
  3
isocp.shx
  0
ENDTAB
  0
TABLE
  2
LAYER
  70
1
  0
LAYER
  2
BLACK
  70
0
  62
7
  6
CONTINUOUS
  0
ENDTAB
  0
ENDSEC
  0
SECTION
  2
ENTITIES
0
LINE
8
BLACK
6
CONTINUOUS
10
4.016
20
1.333
11
7.033
21
1.333
0
LINE
8
BLACK
6
CONTINUOUS
10
7.033
20
1.333
11
7.033
21
2.083
0
LINE
8
BLACK
6
CONTINUOUS
10
7.033
20
2.083
11
11.033
21
2.083
0
LINE
8
BLACK
6
CONTINUOUS
10
11.033
20
2.083
11
11.033
21
0.083
0
LINE
8
BLACK
6
CONTINUOUS
10
11.033
20
0.083
11
7.033
21
0.083
0
LINE
8
BLACK
6
CONTINUOUS
10
7.033
20
0.083
11
7.033
21
0.833
0
LINE
8
BLACK
6
CONTINUOUS
10
7.033
20
0.833
11
4.016
21
0.833
0
LINE
8
BLACK
6
CONTINUOUS
10
4.016
20
0.833
11
4.016
21
0.083
0
LINE
8
BLACK
6
CONTINUOUS
10
4.016
20
0.083
11
0.016
21
0.083
0
LINE
8
BLACK
6
CONTINUOUS
10
0.016
20
0.083
11
0.016
21
2.083
0
LINE
8
BLACK
6
CONTINUOUS
10
0.016
20
2.083
11
4.016
21
2.083
0
LINE
8
BLACK
6
CONTINUOUS
10
4.016
20
2.083
11
4.016
21
1.333
0
LINE
8
BLACK
6
CONTINUOUS
10
11.033
20
5.163
11
7.033
21
5.163
0
LINE
8
BLACK
6
CONTINUOUS
10
7.033
20
5.163
11
7.033
21
5.913
0
LINE
8
BLACK
6
CONTINUOUS
10
7.033
20
5.913
11
6.96955
21
5.913
0
LINE
8
BLACK
6
CONTINUOUS
10
6.96955
20
5.913
11
4.51146
21
3.45491
0
LINE
8
BLACK
6
CONTINUOUS
10
4.51146
20
3.45491
11
4.50363
21
3.44537
0
LINE
8
BLACK
6
CONTINUOUS
10
4.50363
20
3.44537
11
4.46556
21
3.41413
0
LINE
8
BLACK
6
CONTINUOUS
10
4.46556
20
3.41413
11
4.42213
21
3.39091
0
LINE
8
BLACK
6
CONTINUOUS
10
4.42213
20
3.39091
11
4.37501
21
3.37662
0
LINE
8
BLACK
6
CONTINUOUS
10
4.37501
20
3.37662
11
4.326
21
3.37179
0
LINE
8
BLACK
6
CONTINUOUS
10
4.326
20
3.37179
11
4.31372
21
3.373
0
LINE
8
BLACK
6
CONTINUOUS
10
4.31372
20
3.373
11
4.016
21
3.373
0
LINE
8
BLACK
6
CONTINUOUS
10
4.016
20
3.373
11
4.016
21
2.623
0
LINE
8
BLACK
6
CONTINUOUS
10
4.016
20
2.623
11
0.016
21
2.623
0
LINE
8
BLACK
6
CONTINUOUS
10
0.016
20
2.623
11
0.016
21
4.623
0
LINE
8
BLACK
6
CONTINUOUS
10
0.016
20
4.623
11
4.016
21
4.623
0
LINE
8
BLACK
6
CONTINUOUS
10
4.016
20
4.623
11
4.016
21
3.873
0
LINE
8
BLACK
6
CONTINUOUS
10
4.016
20
3.873
11
4.22245
21
3.873
0
LINE
8
BLACK
6
CONTINUOUS
10
4.22245
20
3.873
11
6.68054
21
6.3311
0
LINE
8
BLACK
6
CONTINUOUS
10
6.68054
20
6.3311
11
6.68837
21
6.34063
0
LINE
8
BLACK
6
CONTINUOUS
10
6.68837
20
6.34063
11
6.72643
21
6.37187
0
LINE
8
BLACK
6
CONTINUOUS
10
6.72643
20
6.37187
11
6.76986
21
6.39509
0
LINE
8
BLACK
6
CONTINUOUS
10
6.76986
20
6.39509
11
6.81699
21
6.40938
0
LINE
8
BLACK
6
CONTINUOUS
10
6.81699
20
6.40938
11
6.85372
21
6.413
0
LINE
8
BLACK
6
CONTINUOUS
10
6.85372
20
6.413
11
6.85372
21
6.413
0
LINE
8
BLACK
6
CONTINUOUS
10
6.85372
20
6.413
11
6.866
21
6.41421
0
LINE
8
BLACK
6
CONTINUOUS
10
6.866
20
6.41421
11
6.87827
21
6.413
0
LINE
8
BLACK
6
CONTINUOUS
10
6.87827
20
6.413
11
7.033
21
6.413
0
LINE
8
BLACK
6
CONTINUOUS
10
7.033
20
6.413
11
7.033
21
7.163
0
LINE
8
BLACK
6
CONTINUOUS
10
7.033
20
7.163
11
11.033
21
7.163
0
LINE
8
BLACK
6
CONTINUOUS
10
11.033
20
7.163
11
11.033
21
5.163
0
LINE
8
BLACK
6
CONTINUOUS
10
11.033
20
2.623
11
7.033
21
2.623
0
LINE
8
BLACK
6
CONTINUOUS
10
7.033
20
2.623
11
7.033
21
4.623
0
LINE
8
BLACK
6
CONTINUOUS
10
7.033
20
4.623
11
11.033
21
4.623
0
LINE
8
BLACK
6
CONTINUOUS
10
11.033
20
4.623
11
11.033
21
2.623
0
LINE
8
BLACK
6
CONTINUOUS
10
4.016
20
5.163
11
0.016
21
5.163
0
LINE
8
BLACK
6
CONTINUOUS
10
0.016
20
5.163
11
0.016
21
7.163
0
LINE
8
BLACK
6
CONTINUOUS
10
0.016
20
7.163
11
4.016
21
7.163
0
LINE
8
BLACK
6
CONTINUOUS
10
4.016
20
7.163
11
4.016
21
5.163
0
LINE
8
BLACK
6
CONTINUOUS
10
11.033
20
7.703
11
7.033
21
7.703
0
LINE
8
BLACK
6
CONTINUOUS
10
7.033
20
7.703
11
7.033
21
9.703
0
LINE
8
BLACK
6
CONTINUOUS
10
7.033
20
9.703
11
11.033
21
9.703
0
LINE
8
BLACK
6
CONTINUOUS
10
11.033
20
9.703
11
11.033
21
7.703
0
LINE
8
BLACK
6
CONTINUOUS
10
11.033
20
10.243
11
7.033
21
10.243
0
LINE
8
BLACK
6
CONTINUOUS
10
7.033
20
10.243
11
7.033
21
10.993
0
LINE
8
BLACK
6
CONTINUOUS
10
7.033
20
10.993
11
6.96955
21
10.993
0
LINE
8
BLACK
6
CONTINUOUS
10
6.96955
20
10.993
11
4.51146
21
8.53491
0
LINE
8
BLACK
6
CONTINUOUS
10
4.51146
20
8.53491
11
4.50363
21
8.52537
0
LINE
8
BLACK
6
CONTINUOUS
10
4.50363
20
8.52537
11
4.46556
21
8.49413
0
LINE
8
BLACK
6
CONTINUOUS
10
4.46556
20
8.49413
11
4.42213
21
8.47091
0
LINE
8
BLACK
6
CONTINUOUS
10
4.42213
20
8.47091
11
4.37501
21
8.45662
0
LINE
8
BLACK
6
CONTINUOUS
10
4.37501
20
8.45662
11
4.326
21
8.45179
0
LINE
8
BLACK
6
CONTINUOUS
10
4.326
20
8.45179
11
4.31372
21
8.453
0
LINE
8
BLACK
6
CONTINUOUS
10
4.31372
20
8.453
11
4.016
21
8.453
0
LINE
8
BLACK
6
CONTINUOUS
10
4.016
20
8.453
11
4.016
21
7.703
0
LINE
8
BLACK
6
CONTINUOUS
10
4.016
20
7.703
11
0.016
21
7.703
0
LINE
8
BLACK
6
CONTINUOUS
10
0.016
20
7.703
11
0.016
21
9.703
0
LINE
8
BLACK
6
CONTINUOUS
10
0.016
20
9.703
11
4.016
21
9.703
0
LINE
8
BLACK
6
CONTINUOUS
10
4.016
20
9.703
11
4.016
21
8.953
0
LINE
8
BLACK
6
CONTINUOUS
10
4.016
20
8.953
11
4.22245
21
8.953
0
LINE
8
BLACK
6
CONTINUOUS
10
4.22245
20
8.953
11
6.68054
21
11.4111
0
LINE
8
BLACK
6
CONTINUOUS
10
6.68054
20
11.4111
11
6.68837
21
11.4206
0
LINE
8
BLACK
6
CONTINUOUS
10
6.68837
20
11.4206
11
6.72643
21
11.4519
0
LINE
8
BLACK
6
CONTINUOUS
10
6.72643
20
11.4519
11
6.76986
21
11.4751
0
LINE
8
BLACK
6
CONTINUOUS
10
6.76986
20
11.4751
11
6.81699
21
11.4894
0
LINE
8
BLACK
6
CONTINUOUS
10
6.81699
20
11.4894
11
6.85372
21
11.493
0
LINE
8
BLACK
6
CONTINUOUS
10
6.85372
20
11.493
11
6.85372
21
11.493
0
LINE
8
BLACK
6
CONTINUOUS
10
6.85372
20
11.493
11
6.866
21
11.4942
0
LINE
8
BLACK
6
CONTINUOUS
10
6.866
20
11.4942
11
6.87827
21
11.493
0
LINE
8
BLACK
6
CONTINUOUS
10
6.87827
20
11.493
11
7.033
21
11.493
0
LINE
8
BLACK
6
CONTINUOUS
10
7.033
20
11.493
11
7.033
21
12.243
0
LINE
8
BLACK
6
CONTINUOUS
10
7.033
20
12.243
11
11.033
21
12.243
0
LINE
8
BLACK
6
CONTINUOUS
10
11.033
20
12.243
11
11.033
21
10.243
0
LINE
8
BLACK
6
CONTINUOUS
10
11.033
20
12.783
11
7.033
21
12.783
0
LINE
8
BLACK
6
CONTINUOUS
10
7.033
20
12.783
11
7.033
21
13.533
0
LINE
8
BLACK
6
CONTINUOUS
10
7.033
20
13.533
11
6.99955
21
13.533
0
LINE
8
BLACK
6
CONTINUOUS
10
6.99955
20
13.533
11
4.54147
21
11.0749
0
LINE
8
BLACK
6
CONTINUOUS
10
4.54147
20
11.0749
11
4.53363
21
11.0654
0
LINE
8
BLACK
6
CONTINUOUS
10
4.53363
20
11.0654
11
4.49556
21
11.0341
0
LINE
8
BLACK
6
CONTINUOUS
10
4.49556
20
11.0341
11
4.45213
21
11.0109
0
LINE
8
BLACK
6
CONTINUOUS
10
4.45213
20
11.0109
11
4.40501
21
10.9966
0
LINE
8
BLACK
6
CONTINUOUS
10
4.40501
20
10.9966
11
4.356
21
10.9918
0
LINE
8
BLACK
6
CONTINUOUS
10
4.356
20
10.9918
11
4.34373
21
10.993
0
LINE
8
BLACK
6
CONTINUOUS
10
4.34373
20
10.993
11
4.016
21
10.993
0
LINE
8
BLACK
6
CONTINUOUS
10
4.016
20
10.993
11
4.016
21
10.243
0
LINE
8
BLACK
6
CONTINUOUS
10
4.016
20
10.243
11
0.016
21
10.243
0
LINE
8
BLACK
6
CONTINUOUS
10
0.016
20
10.243
11
0.016
21
12.243
0
LINE
8
BLACK
6
CONTINUOUS
10
0.016
20
12.243
11
4.016
21
12.243
0
LINE
8
BLACK
6
CONTINUOUS
10
4.016
20
12.243
11
4.016
21
11.493
0
LINE
8
BLACK
6
CONTINUOUS
10
4.016
20
11.493
11
4.25245
21
11.493
0
LINE
8
BLACK
6
CONTINUOUS
10
4.25245
20
11.493
11
6.71054
21
13.9511
0
LINE
8
BLACK
6
CONTINUOUS
10
6.71054
20
13.9511
11
6.71837
21
13.9606
0
LINE
8
BLACK
6
CONTINUOUS
10
6.71837
20
13.9606
11
6.75644
21
13.9919
0
LINE
8
BLACK
6
CONTINUOUS
10
6.75644
20
13.9919
11
6.79987
21
14.0151
0
LINE
8
BLACK
6
CONTINUOUS
10
6.79987
20
14.0151
11
6.84699
21
14.0294
0
LINE
8
BLACK
6
CONTINUOUS
10
6.84699
20
14.0294
11
6.88373
21
14.033
0
LINE
8
BLACK
6
CONTINUOUS
10
6.88373
20
14.033
11
6.88373
21
14.033
0
LINE
8
BLACK
6
CONTINUOUS
10
6.88373
20
14.033
11
6.896
21
14.0342
0
LINE
8
BLACK
6
CONTINUOUS
10
6.896
20
14.0342
11
6.90827
21
14.033
0
LINE
8
BLACK
6
CONTINUOUS
10
6.90827
20
14.033
11
7.033
21
14.033
0
LINE
8
BLACK
6
CONTINUOUS
10
7.033
20
14.033
11
7.033
21
14.783
0
LINE
8
BLACK
6
CONTINUOUS
10
7.033
20
14.783
11
11.033
21
14.783
0
LINE
8
BLACK
6
CONTINUOUS
10
11.033
20
14.783
11
11.033
21
12.783
0
LINE
8
BLACK
6
CONTINUOUS
10
4.016
20
12.783
11
0.016
21
12.783
0
LINE
8
BLACK
6
CONTINUOUS
10
0.016
20
12.783
11
0.016
21
14.783
0
LINE
8
BLACK
6
CONTINUOUS
10
0.016
20
14.783
11
4.016
21
14.783
0
LINE
8
BLACK
6
CONTINUOUS
10
4.016
20
14.783
11
4.016
21
12.783
  0
ENDSEC
  0
EOF
