  0
SECTION
  2
HEADER
  9
$ANGBASE
  50
0.0
  9
$ANGDIR
  70
1
  9
$MEASUREMENT
  70
1
  0
ENDSEC
  0
SECTION
  2
TABLES
  0
TABLE
  2
LTYPE
  70
4
  0
LTYPE
  5
40F
  2
CONTINUOUS
  70
0
  3
Solid line
  72
65
  73
0
  40
0.0
  0
LTYPE
  5
410
  2
DASHDOT
 70
0
  3
Dash Dot ____ _ ____ _
 72
65
 73
4
 40
2.0
 49
1.25
 49
-0.25
 49
0.25
 49
-0.25
  0
LTYPE
  5
411
  2
DASHED
 70
0
  3
Dashed __ __ __ __ __
 72
65
 73
2
 40
0.75
 49
0.5
 49
-0.25
  0
LTYPE
  5
43B
  2
DOTTED
 70
0
  3
Dotted .  .  .  .
 72
65
 73
2
 40
0.2
 49
0.0
 49
-0.2
  0
ENDTAB
  0
TABLE
  2
STYLE
  70
4
  0
STYLE
  2
KICAD
  70
0
  40
0
  41
1
  42
1
  50
0
  71
0
  3
isocp.shx
  0
STYLE
  2
KICADB
  70
0
  40
0
  41
1
  42
1
  50
0
  71
0
  3
isocp.shx
  0
STYLE
  2
KICADI
  70
0
  40
0
  41
1
  42
1
  50
15
  71
0
  3
isocp.shx
  0
STYLE
  2
KICADBI
  70
0
  40
0
  41
1
  42
1
  50
15
  71
0
  3
isocp.shx
  0
ENDTAB
  0
TABLE
  2
LAYER
  70
1
  0
LAYER
  2
BLACK
  70
0
  62
7
  6
CONTINUOUS
  0
ENDTAB
  0
ENDSEC
  0
SECTION
  2
ENTITIES
0
LINE
8
BLACK
6
CONTINUOUS
10
4.016
20
1.333
11
7.033
21
1.333
0
LINE
8
BLACK
6
CONTINUOUS
10
7.033
20
1.333
11
7.033
21
2.083
0
LINE
8
BLACK
6
CONTINUOUS
10
7.033
20
2.083
11
11.033
21
2.083
0
LINE
8
BLACK
6
CONTINUOUS
10
11.033
20
2.083
11
11.033
21
0.083
0
LINE
8
BLACK
6
CONTINUOUS
10
11.033
20
0.083
11
7.033
21
0.083
0
LINE
8
BLACK
6
CONTINUOUS
10
7.033
20
0.083
11
7.033
21
0.833
0
LINE
8
BLACK
6
CONTINUOUS
10
7.033
20
0.833
11
4.016
21
0.833
0
LINE
8
BLACK
6
CONTINUOUS
10
4.016
20
0.833
11
4.016
21
0.083
0
LINE
8
BLACK
6
CONTINUOUS
10
4.016
20
0.083
11
0.016
21
0.083
0
LINE
8
BLACK
6
CONTINUOUS
10
0.016
20
0.083
11
0.016
21
2.083
0
LINE
8
BLACK
6
CONTINUOUS
10
0.016
20
2.083
11
4.016
21
2.083
0
LINE
8
BLACK
6
CONTINUOUS
10
4.016
20
2.083
11
4.016
21
1.333
0
LINE
8
BLACK
6
CONTINUOUS
10
4.016
20
2.623
11
0.016
21
2.623
0
LINE
8
BLACK
6
CONTINUOUS
10
0.016
20
2.623
11
0.016
21
4.623
0
LINE
8
BLACK
6
CONTINUOUS
10
0.016
20
4.623
11
4.016
21
4.623
0
LINE
8
BLACK
6
CONTINUOUS
10
4.016
20
4.623
11
4.016
21
2.623
0
LINE
8
BLACK
6
CONTINUOUS
10
4.016
20
6.413
11
4.25373
21
6.413
0
LINE
8
BLACK
6
CONTINUOUS
10
4.25373
20
6.413
11
4.266
21
6.41421
0
LINE
8
BLACK
6
CONTINUOUS
10
4.266
20
6.41421
11
4.27828
21
6.413
0
LINE
8
BLACK
6
CONTINUOUS
10
4.27828
20
6.413
11
4.31501
21
6.40938
0
LINE
8
BLACK
6
CONTINUOUS
10
4.31501
20
6.40938
11
4.36214
21
6.39509
0
LINE
8
BLACK
6
CONTINUOUS
10
4.36214
20
6.39509
11
4.40557
21
6.37187
0
LINE
8
BLACK
6
CONTINUOUS
10
4.40557
20
6.37187
11
4.44363
21
6.34063
0
LINE
8
BLACK
6
CONTINUOUS
10
4.44363
20
6.34063
11
4.45147
21
6.33109
0
LINE
8
BLACK
6
CONTINUOUS
10
4.45147
20
6.33109
11
6.90956
21
3.873
0
LINE
8
BLACK
6
CONTINUOUS
10
6.90956
20
3.873
11
7.033
21
3.873
0
LINE
8
BLACK
6
CONTINUOUS
10
7.033
20
3.873
11
7.033
21
4.623
0
LINE
8
BLACK
6
CONTINUOUS
10
7.033
20
4.623
11
11.033
21
4.623
0
LINE
8
BLACK
6
CONTINUOUS
10
11.033
20
4.623
11
11.033
21
2.623
0
LINE
8
BLACK
6
CONTINUOUS
10
11.033
20
2.623
11
7.033
21
2.623
0
LINE
8
BLACK
6
CONTINUOUS
10
7.033
20
2.623
11
7.033
21
3.373
0
LINE
8
BLACK
6
CONTINUOUS
10
7.033
20
3.373
11
6.81827
21
3.373
0
LINE
8
BLACK
6
CONTINUOUS
10
6.81827
20
3.373
11
6.806
21
3.37179
0
LINE
8
BLACK
6
CONTINUOUS
10
6.806
20
3.37179
11
6.79373
21
3.373
0
LINE
8
BLACK
6
CONTINUOUS
10
6.79373
20
3.373
11
6.79373
21
3.373
0
LINE
8
BLACK
6
CONTINUOUS
10
6.79373
20
3.373
11
6.75699
21
3.37662
0
LINE
8
BLACK
6
CONTINUOUS
10
6.75699
20
3.37662
11
6.70987
21
3.39091
0
LINE
8
BLACK
6
CONTINUOUS
10
6.70987
20
3.39091
11
6.66644
21
3.41413
0
LINE
8
BLACK
6
CONTINUOUS
10
6.66644
20
3.41413
11
6.62837
21
3.44537
0
LINE
8
BLACK
6
CONTINUOUS
10
6.62837
20
3.44537
11
6.62054
21
3.4549
0
LINE
8
BLACK
6
CONTINUOUS
10
6.62054
20
3.4549
11
4.16245
21
5.913
0
LINE
8
BLACK
6
CONTINUOUS
10
4.16245
20
5.913
11
4.016
21
5.913
0
LINE
8
BLACK
6
CONTINUOUS
10
4.016
20
5.913
11
4.016
21
5.163
0
LINE
8
BLACK
6
CONTINUOUS
10
4.016
20
5.163
11
0.016
21
5.163
0
LINE
8
BLACK
6
CONTINUOUS
10
0.016
20
5.163
11
0.016
21
7.163
0
LINE
8
BLACK
6
CONTINUOUS
10
0.016
20
7.163
11
4.016
21
7.163
0
LINE
8
BLACK
6
CONTINUOUS
10
4.016
20
7.163
11
4.016
21
6.413
0
LINE
8
BLACK
6
CONTINUOUS
10
11.033
20
5.163
11
7.033
21
5.163
0
LINE
8
BLACK
6
CONTINUOUS
10
7.033
20
5.163
11
7.033
21
7.163
0
LINE
8
BLACK
6
CONTINUOUS
10
7.033
20
7.163
11
11.033
21
7.163
0
LINE
8
BLACK
6
CONTINUOUS
10
11.033
20
7.163
11
11.033
21
5.163
0
LINE
8
BLACK
6
CONTINUOUS
10
4.016
20
13.6366
11
5.75146
21
11.9011
0
LINE
8
BLACK
6
CONTINUOUS
10
5.75146
20
11.9011
11
5.77487
21
11.8726
0
LINE
8
BLACK
6
CONTINUOUS
10
5.77487
20
11.8726
11
5.79809
21
11.8291
0
LINE
8
BLACK
6
CONTINUOUS
10
5.79809
20
11.8291
11
5.81238
21
11.782
0
LINE
8
BLACK
6
CONTINUOUS
10
5.81238
20
11.782
11
5.81721
21
11.733
0
LINE
8
BLACK
6
CONTINUOUS
10
5.81721
20
11.733
11
5.81573
21
11.718
0
LINE
8
BLACK
6
CONTINUOUS
10
5.81573
20
11.718
11
5.816
21
11.7153
0
LINE
8
BLACK
6
CONTINUOUS
10
5.816
20
11.7153
11
5.816
21
10.8566
0
LINE
8
BLACK
6
CONTINUOUS
10
5.816
20
10.8566
11
7.033
21
9.63955
0
LINE
8
BLACK
6
CONTINUOUS
10
7.033
20
9.63955
11
7.033
21
9.703
0
LINE
8
BLACK
6
CONTINUOUS
10
7.033
20
9.703
11
11.033
21
9.703
0
LINE
8
BLACK
6
CONTINUOUS
10
11.033
20
9.703
11
11.033
21
7.703
0
LINE
8
BLACK
6
CONTINUOUS
10
11.033
20
7.703
11
7.033
21
7.703
0
LINE
8
BLACK
6
CONTINUOUS
10
7.033
20
7.703
11
7.033
21
8.93244
0
LINE
8
BLACK
6
CONTINUOUS
10
7.033
20
8.93244
11
5.39791
21
10.5675
0
LINE
8
BLACK
6
CONTINUOUS
10
5.39791
20
10.5675
11
5.38837
21
10.5754
0
LINE
8
BLACK
6
CONTINUOUS
10
5.38837
20
10.5754
11
5.35713
21
10.6134
0
LINE
8
BLACK
6
CONTINUOUS
10
5.35713
20
10.6134
11
5.33391
21
10.6569
0
LINE
8
BLACK
6
CONTINUOUS
10
5.33391
20
10.6569
11
5.31962
21
10.704
0
LINE
8
BLACK
6
CONTINUOUS
10
5.31962
20
10.704
11
5.316
21
10.7407
0
LINE
8
BLACK
6
CONTINUOUS
10
5.316
20
10.7407
11
5.31479
21
10.753
0
LINE
8
BLACK
6
CONTINUOUS
10
5.31479
20
10.753
11
5.316
21
10.7653
0
LINE
8
BLACK
6
CONTINUOUS
10
5.316
20
10.7653
11
5.316
21
11.6294
0
LINE
8
BLACK
6
CONTINUOUS
10
5.316
20
11.6294
11
4.016
21
12.9294
0
LINE
8
BLACK
6
CONTINUOUS
10
4.016
20
12.9294
11
4.016
21
12.783
0
LINE
8
BLACK
6
CONTINUOUS
10
4.016
20
12.783
11
0.016
21
12.783
0
LINE
8
BLACK
6
CONTINUOUS
10
0.016
20
12.783
11
0.016
21
14.783
0
LINE
8
BLACK
6
CONTINUOUS
10
0.016
20
14.783
11
4.016
21
14.783
0
LINE
8
BLACK
6
CONTINUOUS
10
4.016
20
14.783
11
4.016
21
13.6366
0
LINE
8
BLACK
6
CONTINUOUS
10
4.016
20
7.703
11
0.016
21
7.703
0
LINE
8
BLACK
6
CONTINUOUS
10
0.016
20
7.703
11
0.016
21
9.703
0
LINE
8
BLACK
6
CONTINUOUS
10
0.016
20
9.703
11
4.016
21
9.703
0
LINE
8
BLACK
6
CONTINUOUS
10
4.016
20
9.703
11
4.016
21
7.703
0
LINE
8
BLACK
6
CONTINUOUS
10
11.033
20
10.243
11
7.033
21
10.243
0
LINE
8
BLACK
6
CONTINUOUS
10
7.033
20
10.243
11
7.033
21
12.243
0
LINE
8
BLACK
6
CONTINUOUS
10
7.033
20
12.243
11
11.033
21
12.243
0
LINE
8
BLACK
6
CONTINUOUS
10
11.033
20
12.243
11
11.033
21
10.243
0
LINE
8
BLACK
6
CONTINUOUS
10
4.016
20
10.243
11
0.016
21
10.243
0
LINE
8
BLACK
6
CONTINUOUS
10
0.016
20
10.243
11
0.016
21
12.243
0
LINE
8
BLACK
6
CONTINUOUS
10
0.016
20
12.243
11
4.016
21
12.243
0
LINE
8
BLACK
6
CONTINUOUS
10
4.016
20
12.243
11
4.016
21
10.243
0
LINE
8
BLACK
6
CONTINUOUS
10
11.033
20
12.783
11
7.033
21
12.783
0
LINE
8
BLACK
6
CONTINUOUS
10
7.033
20
12.783
11
7.033
21
14.783
0
LINE
8
BLACK
6
CONTINUOUS
10
7.033
20
14.783
11
11.033
21
14.783
0
LINE
8
BLACK
6
CONTINUOUS
10
11.033
20
14.783
11
11.033
21
12.783
  0
ENDSEC
  0
EOF
