<?xml version="1.0" encoding="UTF-8" standalone="no"?>
<svg
   xmlns:dc="http://purl.org/dc/elements/1.1/"
   xmlns:cc="http://creativecommons.org/ns#"
   xmlns:rdf="http://www.w3.org/1999/02/22-rdf-syntax-ns#"
   xmlns:svg="http://www.w3.org/2000/svg"
   xmlns="http://www.w3.org/2000/svg"
   xmlns:sodipodi="http://sodipodi.sourceforge.net/DTD/sodipodi-0.dtd"
   xmlns:inkscape="http://www.inkscape.org/namespaces/inkscape"
   version="1.1"
   width="29.7002cm"
   height="21.0007cm"
   viewBox="0 0 116930 82680 "
   id="svg314"
   sodipodi:docname="bluetooth_board-B_Cu.svg">
  <metadata
     id="metadata320">
    <rdf:RDF>
      <cc:Work
         rdf:about="">
        <dc:format>image/svg+xml</dc:format>
        <dc:type
           rdf:resource="http://purl.org/dc/dcmitype/StillImage" />
      </cc:Work>
    </rdf:RDF>
  </metadata>
  <defs
     id="defs318" />
  <sodipodi:namedview
     pagecolor="#ffffff"
     bordercolor="#666666"
     borderopacity="1"
     objecttolerance="10"
     gridtolerance="10"
     guidetolerance="10"
     inkscape:pageopacity="0"
     inkscape:pageshadow="2"
     inkscape:window-width="640"
     inkscape:window-height="480"
     id="namedview316"
     showgrid="false" />
  <title
     id="title242">SVG Picture created as bluetooth_board-B_Cu.svg date 2019/09/20 18:54:44 </title>
  <desc
     id="desc244">Picture generated by PCBNEW </desc>
  <g
     style="fill:#000000; fill-opacity:1;stroke:#000000; stroke-opacity:1; stroke-linecap:round; stroke-linejoin:round; "
     transform="translate(0 0) scale(1 1)"
     id="g246" />
  <g
     id="g4811"
     transform="matrix(0.99999603,0,0,1,-54590.158,43226.531)">
    <g
       id="g4701"
       style="fill:#000000;fill-opacity:1;stroke:#000000;stroke-linecap:round;stroke-linejoin:round;stroke-opacity:1" />
    <g
       id="g4767"
       style="fill:#000000;fill-opacity:0;stroke:#000000;stroke-width:-0.0003937;stroke-linecap:round;stroke-linejoin:round;stroke-opacity:1">
      <g
         id="g4703"
         style="fill:none;stroke:#000000;stroke-opacity:1;stroke-width:78.74037889;stroke-miterlimit:4;stroke-dasharray:none;fill-opacity:1" />
      <g
         id="g4705"
         style="fill:none;fill-opacity:1;stroke:#000000;stroke-width:78.74037889;stroke-linecap:round;stroke-linejoin:round;stroke-opacity:1;stroke-miterlimit:4;stroke-dasharray:none" />
      <path
         style="color:#000000;font-style:normal;font-variant:normal;font-weight:normal;font-stretch:normal;font-size:medium;line-height:normal;font-family:sans-serif;font-variant-ligatures:normal;font-variant-position:normal;font-variant-caps:normal;font-variant-numeric:normal;font-variant-alternates:normal;font-feature-settings:normal;text-indent:0;text-align:start;text-decoration:none;text-decoration-line:none;text-decoration-style:solid;text-decoration-color:#000000;letter-spacing:normal;word-spacing:normal;text-transform:none;writing-mode:lr-tb;direction:ltr;text-orientation:mixed;dominant-baseline:auto;baseline-shift:baseline;text-anchor:start;white-space:normal;shape-padding:0;clip-rule:nonzero;display:inline;overflow:visible;visibility:visible;opacity:1;isolation:auto;mix-blend-mode:normal;color-interpolation:sRGB;color-interpolation-filters:linearRGB;solid-color:#000000;solid-opacity:1;vector-effect:none;fill:none;fill-opacity:1;fill-rule:evenodd;stroke:#000000;stroke-width:78.74037933;stroke-linecap:round;stroke-linejoin:round;stroke-miterlimit:4;stroke-dasharray:none;stroke-dashoffset:0;stroke-opacity:1;color-rendering:auto;image-rendering:auto;shape-rendering:auto;text-rendering:auto;enable-background:accumulate"
         d="m 57366.486,33627.67 c -1.15,21.926 -0.162,44.24 -0.492,66.314 0,241 0,482 0,723 3.596,4.41 11.648,0.856 17,2 520,0 1040,0 1560,0 4.41,-3.595 0.856,-11.647 2,-17 0,-257.666 0,-515.333 0,-773 -3.595,-4.41 -11.648,-0.855 -17,-2 -520,0 -1040,0 -1560,0 l -0.91,0.414 z m 1574.496,3.344 c 0,261.323 0,522.646 0,783.968 -523.656,0 -1047.312,0 -1570.968,0 0,-261.322 0,-522.645 0,-783.968 523.656,0 1047.312,0 1570.968,0 z"
         id="path4707"
         inkscape:connector-curvature="0" />
      <path
         style="color:#000000;font-style:normal;font-variant:normal;font-weight:normal;font-stretch:normal;font-size:medium;line-height:normal;font-family:sans-serif;font-variant-ligatures:normal;font-variant-position:normal;font-variant-caps:normal;font-variant-numeric:normal;font-variant-alternates:normal;font-feature-settings:normal;text-indent:0;text-align:start;text-decoration:none;text-decoration-line:none;text-decoration-style:solid;text-decoration-color:#000000;letter-spacing:normal;word-spacing:normal;text-transform:none;writing-mode:lr-tb;direction:ltr;text-orientation:mixed;dominant-baseline:auto;baseline-shift:baseline;text-anchor:start;white-space:normal;shape-padding:0;clip-rule:nonzero;display:inline;overflow:visible;visibility:visible;opacity:1;isolation:auto;mix-blend-mode:normal;color-interpolation:sRGB;color-interpolation-filters:linearRGB;solid-color:#000000;solid-opacity:1;vector-effect:none;fill:none;fill-opacity:1;fill-rule:evenodd;stroke:#000000;stroke-width:78.74037933;stroke-linecap:round;stroke-linejoin:round;stroke-miterlimit:4;stroke-dasharray:none;stroke-dashoffset:0;stroke-opacity:1;color-rendering:auto;image-rendering:auto;shape-rendering:auto;text-rendering:auto;enable-background:accumulate"
         d="m 57366.486,34627.67 c -1.15,21.926 -0.162,44.24 -0.492,66.314 0,241 0,482 0,723 3.596,4.41 11.648,0.856 17,2 520,0 1040,0 1560,0 4.41,-3.595 0.856,-11.647 2,-17 0,-257.666 0,-515.333 0,-773 -3.595,-4.41 -11.648,-0.855 -17,-2 -520,0 -1040,0 -1560,0 l -0.91,0.414 z m 1574.496,3.344 c 0,261.323 0,522.646 0,783.968 -523.656,0 -1047.312,0 -1570.968,0 0,-261.322 0,-522.645 0,-783.968 523.656,0 1047.312,0 1570.968,0 z"
         id="path4709"
         inkscape:connector-curvature="0" />
      <path
         style="color:#000000;font-style:normal;font-variant:normal;font-weight:normal;font-stretch:normal;font-size:medium;line-height:normal;font-family:sans-serif;font-variant-ligatures:normal;font-variant-position:normal;font-variant-caps:normal;font-variant-numeric:normal;font-variant-alternates:normal;font-feature-settings:normal;text-indent:0;text-align:start;text-decoration:none;text-decoration-line:none;text-decoration-style:solid;text-decoration-color:#000000;letter-spacing:normal;word-spacing:normal;text-transform:none;writing-mode:lr-tb;direction:ltr;text-orientation:mixed;dominant-baseline:auto;baseline-shift:baseline;text-anchor:start;white-space:normal;shape-padding:0;clip-rule:nonzero;display:inline;overflow:visible;visibility:visible;opacity:1;isolation:auto;mix-blend-mode:normal;color-interpolation:sRGB;color-interpolation-filters:linearRGB;solid-color:#000000;solid-opacity:1;vector-effect:none;fill:none;fill-opacity:1;fill-rule:evenodd;stroke:#000000;stroke-width:78.74037933;stroke-linecap:round;stroke-linejoin:round;stroke-miterlimit:4;stroke-dasharray:none;stroke-dashoffset:0;stroke-opacity:1;color-rendering:auto;image-rendering:auto;shape-rendering:auto;text-rendering:auto;enable-background:accumulate"
         d="m 57366.486,35627.67 c -1.15,21.926 -0.162,44.24 -0.492,66.314 0,241 0,482 0,723 3.596,4.41 11.648,0.856 17,2 520,0 1040,0 1560,0 4.41,-3.595 0.856,-11.647 2,-17 0,-257.666 0,-515.333 0,-773 -3.595,-4.41 -11.648,-0.855 -17,-2 -520,0 -1040,0 -1560,0 l -0.91,0.414 z m 1574.496,3.344 c 0,261.323 0,522.646 0,783.968 -523.656,0 -1047.312,0 -1570.968,0 0,-261.322 0,-522.645 0,-783.968 523.656,0 1047.312,0 1570.968,0 z"
         id="path4711"
         inkscape:connector-curvature="0" />
      <path
         style="color:#000000;font-style:normal;font-variant:normal;font-weight:normal;font-stretch:normal;font-size:medium;line-height:normal;font-family:sans-serif;font-variant-ligatures:normal;font-variant-position:normal;font-variant-caps:normal;font-variant-numeric:normal;font-variant-alternates:normal;font-feature-settings:normal;text-indent:0;text-align:start;text-decoration:none;text-decoration-line:none;text-decoration-style:solid;text-decoration-color:#000000;letter-spacing:normal;word-spacing:normal;text-transform:none;writing-mode:lr-tb;direction:ltr;text-orientation:mixed;dominant-baseline:auto;baseline-shift:baseline;text-anchor:start;white-space:normal;shape-padding:0;clip-rule:nonzero;display:inline;overflow:visible;visibility:visible;opacity:1;isolation:auto;mix-blend-mode:normal;color-interpolation:sRGB;color-interpolation-filters:linearRGB;solid-color:#000000;solid-opacity:1;vector-effect:none;fill:none;fill-opacity:1;fill-rule:evenodd;stroke:#000000;stroke-width:78.74037933;stroke-linecap:round;stroke-linejoin:round;stroke-miterlimit:4;stroke-dasharray:none;stroke-dashoffset:0;stroke-opacity:1;color-rendering:auto;image-rendering:auto;shape-rendering:auto;text-rendering:auto;enable-background:accumulate"
         d="m 57366.486,36627.67 c -1.15,21.926 -0.162,44.24 -0.492,66.314 0,241 0,482 0,723 3.596,4.41 11.648,0.856 17,2 520,0 1040,0 1560,0 4.41,-3.595 0.856,-11.647 2,-17 0,-257.666 0,-515.333 0,-773 -3.595,-4.41 -11.648,-0.855 -17,-2 -520,0 -1040,0 -1560,0 l -0.91,0.414 z m 1574.496,3.344 c 0,261.323 0,522.646 0,783.968 -523.656,0 -1047.312,0 -1570.968,0 0,-261.322 0,-522.645 0,-783.968 523.656,0 1047.312,0 1570.968,0 z"
         id="path4713"
         inkscape:connector-curvature="0" />
      <path
         style="color:#000000;font-style:normal;font-variant:normal;font-weight:normal;font-stretch:normal;font-size:medium;line-height:normal;font-family:sans-serif;font-variant-ligatures:normal;font-variant-position:normal;font-variant-caps:normal;font-variant-numeric:normal;font-variant-alternates:normal;font-feature-settings:normal;text-indent:0;text-align:start;text-decoration:none;text-decoration-line:none;text-decoration-style:solid;text-decoration-color:#000000;letter-spacing:normal;word-spacing:normal;text-transform:none;writing-mode:lr-tb;direction:ltr;text-orientation:mixed;dominant-baseline:auto;baseline-shift:baseline;text-anchor:start;white-space:normal;shape-padding:0;clip-rule:nonzero;display:inline;overflow:visible;visibility:visible;opacity:1;isolation:auto;mix-blend-mode:normal;color-interpolation:sRGB;color-interpolation-filters:linearRGB;solid-color:#000000;solid-opacity:1;vector-effect:none;fill:none;fill-opacity:1;fill-rule:evenodd;stroke:#000000;stroke-width:78.74037933;stroke-linecap:round;stroke-linejoin:round;stroke-miterlimit:4;stroke-dasharray:none;stroke-dashoffset:0;stroke-opacity:1;color-rendering:auto;image-rendering:auto;shape-rendering:auto;text-rendering:auto;enable-background:accumulate"
         d="m 57366.486,37627.67 c -1.15,21.926 -0.162,44.24 -0.492,66.314 0,241 0,482 0,723 3.596,4.41 11.648,0.856 17,2 520,0 1040,0 1560,0 4.41,-3.595 0.856,-11.647 2,-17 0,-257.666 0,-515.333 0,-773 -3.595,-4.41 -11.648,-0.855 -17,-2 -520,0 -1040,0 -1560,0 l -0.91,0.414 z m 1574.496,3.344 c 0,261.323 0,522.646 0,783.968 -523.656,0 -1047.312,0 -1570.968,0 0,-261.322 0,-522.645 0,-783.968 523.656,0 1047.312,0 1570.968,0 z"
         id="path4715"
         inkscape:connector-curvature="0" />
      <path
         style="color:#000000;font-style:normal;font-variant:normal;font-weight:normal;font-stretch:normal;font-size:medium;line-height:normal;font-family:sans-serif;font-variant-ligatures:normal;font-variant-position:normal;font-variant-caps:normal;font-variant-numeric:normal;font-variant-alternates:normal;font-feature-settings:normal;text-indent:0;text-align:start;text-decoration:none;text-decoration-line:none;text-decoration-style:solid;text-decoration-color:#000000;letter-spacing:normal;word-spacing:normal;text-transform:none;writing-mode:lr-tb;direction:ltr;text-orientation:mixed;dominant-baseline:auto;baseline-shift:baseline;text-anchor:start;white-space:normal;shape-padding:0;clip-rule:nonzero;display:inline;overflow:visible;visibility:visible;opacity:1;isolation:auto;mix-blend-mode:normal;color-interpolation:sRGB;color-interpolation-filters:linearRGB;solid-color:#000000;solid-opacity:1;vector-effect:none;fill:none;fill-opacity:1;fill-rule:evenodd;stroke:#000000;stroke-width:78.74037933;stroke-linecap:round;stroke-linejoin:round;stroke-miterlimit:4;stroke-dasharray:none;stroke-dashoffset:0;stroke-opacity:1;color-rendering:auto;image-rendering:auto;shape-rendering:auto;text-rendering:auto;enable-background:accumulate"
         d="m 57366.486,38627.67 c -1.15,21.926 -0.162,44.24 -0.492,66.314 0,241 0,482 0,723 3.596,4.41 11.648,0.856 17,2 520,0 1040,0 1560,0 4.41,-3.595 0.856,-11.647 2,-17 0,-257.666 0,-515.333 0,-773 -3.595,-4.41 -11.648,-0.855 -17,-2 -520,0 -1040,0 -1560,0 l -0.91,0.414 z m 1574.496,3.344 c 0,261.323 0,522.646 0,783.968 -523.656,0 -1047.312,0 -1570.968,0 0,-261.322 0,-522.645 0,-783.968 523.656,0 1047.312,0 1570.968,0 z"
         id="path4717"
         inkscape:connector-curvature="0" />
      <g
         id="g4721"
         style="fill:none;stroke:#000000;stroke-opacity:1;stroke-width:78.74037889;stroke-miterlimit:4;stroke-dasharray:none;fill-opacity:1" />
      <path
         style="color:#000000;font-style:normal;font-variant:normal;font-weight:normal;font-stretch:normal;font-size:medium;line-height:normal;font-family:sans-serif;font-variant-ligatures:normal;font-variant-position:normal;font-variant-caps:normal;font-variant-numeric:normal;font-variant-alternates:normal;font-feature-settings:normal;text-indent:0;text-align:start;text-decoration:none;text-decoration-line:none;text-decoration-style:solid;text-decoration-color:#000000;letter-spacing:normal;word-spacing:normal;text-transform:none;writing-mode:lr-tb;direction:ltr;text-orientation:mixed;dominant-baseline:auto;baseline-shift:baseline;text-anchor:start;white-space:normal;shape-padding:0;clip-rule:nonzero;display:inline;overflow:visible;visibility:visible;opacity:1;isolation:auto;mix-blend-mode:normal;color-interpolation:sRGB;color-interpolation-filters:linearRGB;solid-color:#000000;solid-opacity:1;vector-effect:none;fill:none;fill-opacity:1;fill-rule:evenodd;stroke:#000000;stroke-width:78.74037933;stroke-linecap:round;stroke-linejoin:round;stroke-miterlimit:4;stroke-dasharray:none;stroke-dashoffset:0;stroke-opacity:1;color-rendering:auto;image-rendering:auto;shape-rendering:auto;text-rendering:auto;enable-background:accumulate"
         d="m 54604.486,33627.67 c -1.15,21.926 -0.162,44.24 -0.492,66.314 0,241 0,482 0,723 3.596,4.41 11.648,0.856 17,2 520,0 1040,0 1560,0 4.41,-3.595 0.856,-11.647 2,-17 0,-257.666 0,-515.333 0,-773 -3.595,-4.41 -11.648,-0.855 -17,-2 -520,0 -1040,0 -1560,0 l -0.91,0.414 z m 1574.496,3.344 c 0,261.323 0,522.646 0,783.968 -523.656,0 -1047.312,0 -1570.968,0 0,-261.322 0,-522.645 0,-783.968 523.656,0 1047.312,0 1570.968,0 z"
         id="path4723"
         inkscape:connector-curvature="0" />
      <path
         style="color:#000000;font-style:normal;font-variant:normal;font-weight:normal;font-stretch:normal;font-size:medium;line-height:normal;font-family:sans-serif;font-variant-ligatures:normal;font-variant-position:normal;font-variant-caps:normal;font-variant-numeric:normal;font-variant-alternates:normal;font-feature-settings:normal;text-indent:0;text-align:start;text-decoration:none;text-decoration-line:none;text-decoration-style:solid;text-decoration-color:#000000;letter-spacing:normal;word-spacing:normal;text-transform:none;writing-mode:lr-tb;direction:ltr;text-orientation:mixed;dominant-baseline:auto;baseline-shift:baseline;text-anchor:start;white-space:normal;shape-padding:0;clip-rule:nonzero;display:inline;overflow:visible;visibility:visible;opacity:1;isolation:auto;mix-blend-mode:normal;color-interpolation:sRGB;color-interpolation-filters:linearRGB;solid-color:#000000;solid-opacity:1;vector-effect:none;fill:none;fill-opacity:1;fill-rule:evenodd;stroke:#000000;stroke-width:78.74037933;stroke-linecap:round;stroke-linejoin:round;stroke-miterlimit:4;stroke-dasharray:none;stroke-dashoffset:0;stroke-opacity:1;color-rendering:auto;image-rendering:auto;shape-rendering:auto;text-rendering:auto;enable-background:accumulate"
         d="m 54604.486,34627.67 c -1.15,21.926 -0.162,44.24 -0.492,66.314 0,241 0,482 0,723 3.596,4.41 11.648,0.856 17,2 520,0 1040,0 1560,0 4.41,-3.595 0.856,-11.647 2,-17 0,-257.666 0,-515.333 0,-773 -3.595,-4.41 -11.648,-0.855 -17,-2 -520,0 -1040,0 -1560,0 l -0.91,0.414 z m 1574.496,3.344 c 0,261.323 0,522.646 0,783.968 -523.656,0 -1047.312,0 -1570.968,0 0,-261.322 0,-522.645 0,-783.968 523.656,0 1047.312,0 1570.968,0 z"
         id="path4725"
         inkscape:connector-curvature="0" />
      <path
         style="color:#000000;font-style:normal;font-variant:normal;font-weight:normal;font-stretch:normal;font-size:medium;line-height:normal;font-family:sans-serif;font-variant-ligatures:normal;font-variant-position:normal;font-variant-caps:normal;font-variant-numeric:normal;font-variant-alternates:normal;font-feature-settings:normal;text-indent:0;text-align:start;text-decoration:none;text-decoration-line:none;text-decoration-style:solid;text-decoration-color:#000000;letter-spacing:normal;word-spacing:normal;text-transform:none;writing-mode:lr-tb;direction:ltr;text-orientation:mixed;dominant-baseline:auto;baseline-shift:baseline;text-anchor:start;white-space:normal;shape-padding:0;clip-rule:nonzero;display:inline;overflow:visible;visibility:visible;opacity:1;isolation:auto;mix-blend-mode:normal;color-interpolation:sRGB;color-interpolation-filters:linearRGB;solid-color:#000000;solid-opacity:1;vector-effect:none;fill:none;fill-opacity:1;fill-rule:evenodd;stroke:#000000;stroke-width:78.74037933;stroke-linecap:round;stroke-linejoin:round;stroke-miterlimit:4;stroke-dasharray:none;stroke-dashoffset:0;stroke-opacity:1;color-rendering:auto;image-rendering:auto;shape-rendering:auto;text-rendering:auto;enable-background:accumulate"
         d="m 54604.486,35627.67 c -1.15,21.926 -0.162,44.24 -0.492,66.314 0,241 0,482 0,723 3.596,4.41 11.648,0.856 17,2 520,0 1040,0 1560,0 4.41,-3.595 0.856,-11.647 2,-17 0,-257.666 0,-515.333 0,-773 -3.595,-4.41 -11.648,-0.855 -17,-2 -520,0 -1040,0 -1560,0 l -0.91,0.414 z m 1574.496,3.344 c 0,261.323 0,522.646 0,783.968 -523.656,0 -1047.312,0 -1570.968,0 0,-261.322 0,-522.645 0,-783.968 523.656,0 1047.312,0 1570.968,0 z"
         id="path4727"
         inkscape:connector-curvature="0" />
      <path
         style="color:#000000;font-style:normal;font-variant:normal;font-weight:normal;font-stretch:normal;font-size:medium;line-height:normal;font-family:sans-serif;font-variant-ligatures:normal;font-variant-position:normal;font-variant-caps:normal;font-variant-numeric:normal;font-variant-alternates:normal;font-feature-settings:normal;text-indent:0;text-align:start;text-decoration:none;text-decoration-line:none;text-decoration-style:solid;text-decoration-color:#000000;letter-spacing:normal;word-spacing:normal;text-transform:none;writing-mode:lr-tb;direction:ltr;text-orientation:mixed;dominant-baseline:auto;baseline-shift:baseline;text-anchor:start;white-space:normal;shape-padding:0;clip-rule:nonzero;display:inline;overflow:visible;visibility:visible;opacity:1;isolation:auto;mix-blend-mode:normal;color-interpolation:sRGB;color-interpolation-filters:linearRGB;solid-color:#000000;solid-opacity:1;vector-effect:none;fill:none;fill-opacity:1;fill-rule:evenodd;stroke:#000000;stroke-width:78.74037933;stroke-linecap:round;stroke-linejoin:round;stroke-miterlimit:4;stroke-dasharray:none;stroke-dashoffset:0;stroke-opacity:1;color-rendering:auto;image-rendering:auto;shape-rendering:auto;text-rendering:auto;enable-background:accumulate"
         d="m 54604.486,36627.67 c -1.15,21.926 -0.162,44.24 -0.492,66.314 0,241 0,482 0,723 3.596,4.41 11.648,0.856 17,2 520,0 1040,0 1560,0 4.41,-3.595 0.856,-11.647 2,-17 0,-257.666 0,-515.333 0,-773 -3.595,-4.41 -11.648,-0.855 -17,-2 -520,0 -1040,0 -1560,0 l -0.91,0.414 z m 1574.496,3.344 c 0,261.323 0,522.646 0,783.968 -523.656,0 -1047.312,0 -1570.968,0 0,-261.322 0,-522.645 0,-783.968 523.656,0 1047.312,0 1570.968,0 z"
         id="path4729"
         inkscape:connector-curvature="0" />
      <path
         style="color:#000000;font-style:normal;font-variant:normal;font-weight:normal;font-stretch:normal;font-size:medium;line-height:normal;font-family:sans-serif;font-variant-ligatures:normal;font-variant-position:normal;font-variant-caps:normal;font-variant-numeric:normal;font-variant-alternates:normal;font-feature-settings:normal;text-indent:0;text-align:start;text-decoration:none;text-decoration-line:none;text-decoration-style:solid;text-decoration-color:#000000;letter-spacing:normal;word-spacing:normal;text-transform:none;writing-mode:lr-tb;direction:ltr;text-orientation:mixed;dominant-baseline:auto;baseline-shift:baseline;text-anchor:start;white-space:normal;shape-padding:0;clip-rule:nonzero;display:inline;overflow:visible;visibility:visible;opacity:1;isolation:auto;mix-blend-mode:normal;color-interpolation:sRGB;color-interpolation-filters:linearRGB;solid-color:#000000;solid-opacity:1;vector-effect:none;fill:none;fill-opacity:1;fill-rule:evenodd;stroke:#000000;stroke-width:78.74037933;stroke-linecap:round;stroke-linejoin:round;stroke-miterlimit:4;stroke-dasharray:none;stroke-dashoffset:0;stroke-opacity:1;color-rendering:auto;image-rendering:auto;shape-rendering:auto;text-rendering:auto;enable-background:accumulate"
         d="m 54604.486,37627.67 c -1.15,21.926 -0.162,44.24 -0.492,66.314 0,241 0,482 0,723 3.596,4.41 11.648,0.856 17,2 520,0 1040,0 1560,0 4.41,-3.595 0.856,-11.647 2,-17 0,-257.666 0,-515.333 0,-773 -3.595,-4.41 -11.648,-0.855 -17,-2 -520,0 -1040,0 -1560,0 l -0.91,0.414 z m 1574.496,3.344 c 0,261.323 0,522.646 0,783.968 -523.656,0 -1047.312,0 -1570.968,0 0,-261.322 0,-522.645 0,-783.968 523.656,0 1047.312,0 1570.968,0 z"
         id="path4731"
         inkscape:connector-curvature="0" />
      <path
         style="color:#000000;font-style:normal;font-variant:normal;font-weight:normal;font-stretch:normal;font-size:medium;line-height:normal;font-family:sans-serif;font-variant-ligatures:normal;font-variant-position:normal;font-variant-caps:normal;font-variant-numeric:normal;font-variant-alternates:normal;font-feature-settings:normal;text-indent:0;text-align:start;text-decoration:none;text-decoration-line:none;text-decoration-style:solid;text-decoration-color:#000000;letter-spacing:normal;word-spacing:normal;text-transform:none;writing-mode:lr-tb;direction:ltr;text-orientation:mixed;dominant-baseline:auto;baseline-shift:baseline;text-anchor:start;white-space:normal;shape-padding:0;clip-rule:nonzero;display:inline;overflow:visible;visibility:visible;opacity:1;isolation:auto;mix-blend-mode:normal;color-interpolation:sRGB;color-interpolation-filters:linearRGB;solid-color:#000000;solid-opacity:1;vector-effect:none;fill:none;fill-opacity:1;fill-rule:evenodd;stroke:#000000;stroke-width:78.74037933;stroke-linecap:round;stroke-linejoin:round;stroke-miterlimit:4;stroke-dasharray:none;stroke-dashoffset:0;stroke-opacity:1;color-rendering:auto;image-rendering:auto;shape-rendering:auto;text-rendering:auto;enable-background:accumulate"
         d="m 54604.486,38627.67 c -1.15,21.926 -0.162,44.24 -0.492,66.314 0,241 0,482 0,723 3.596,4.41 11.648,0.856 17,2 520,0 1040,0 1560,0 4.41,-3.595 0.856,-11.647 2,-17 0,-257.666 0,-515.333 0,-773 -3.595,-4.41 -11.648,-0.855 -17,-2 -520,0 -1040,0 -1560,0 l -0.91,0.414 z m 1574.496,3.344 c 0,261.323 0,522.646 0,783.968 -523.656,0 -1047.312,0 -1570.968,0 0,-261.322 0,-522.645 0,-783.968 523.656,0 1047.312,0 1570.968,0 z"
         id="path4733"
         inkscape:connector-curvature="0" />
      <g
         id="g4737"
         style="fill:none;stroke:#000000;stroke-opacity:1;stroke-width:78.74037889;stroke-miterlimit:4;stroke-dasharray:none;fill-opacity:1" />
      <g
         id="g4739"
         style="fill:none;stroke:#000000;stroke-opacity:1;stroke-width:78.74037889;stroke-miterlimit:4;stroke-dasharray:none;fill-opacity:1" />
      <g
         id="g4741"
         style="fill:none;fill-opacity:1;stroke:#000000;stroke-width:78.74037889;stroke-linecap:round;stroke-linejoin:round;stroke-opacity:1;stroke-miterlimit:4;stroke-dasharray:none" />
      <g
         id="g4743"
         style="fill:none;fill-opacity:1;stroke:#000000;stroke-width:78.74037889;stroke-linecap:round;stroke-linejoin:round;stroke-opacity:1;stroke-miterlimit:4;stroke-dasharray:none" />
      <path
         style="color:#000000;font-style:normal;font-variant:normal;font-weight:normal;font-stretch:normal;font-size:medium;line-height:normal;font-family:sans-serif;font-variant-ligatures:normal;font-variant-position:normal;font-variant-caps:normal;font-variant-numeric:normal;font-variant-alternates:normal;font-feature-settings:normal;text-indent:0;text-align:start;text-decoration:none;text-decoration-line:none;text-decoration-style:solid;text-decoration-color:#000000;letter-spacing:normal;word-spacing:normal;text-transform:none;writing-mode:lr-tb;direction:ltr;text-orientation:mixed;dominant-baseline:auto;baseline-shift:baseline;text-anchor:start;white-space:normal;shape-padding:0;clip-rule:nonzero;display:inline;overflow:visible;visibility:visible;opacity:1;isolation:auto;mix-blend-mode:normal;color-interpolation:sRGB;color-interpolation-filters:linearRGB;solid-color:#000000;solid-opacity:1;vector-effect:none;fill:none;fill-opacity:1;fill-rule:nonzero;stroke:#000000;stroke-width:78.74037933;stroke-linecap:round;stroke-linejoin:round;stroke-miterlimit:4;stroke-dasharray:none;stroke-dashoffset:0;stroke-opacity:1;color-rendering:auto;image-rendering:auto;shape-rendering:auto;text-rendering:auto;enable-background:accumulate"
         d="m 55018.928,38922.576 c -39.728,-0.824 -78.404,24.225 -93.547,61.018 -17.267,38.836 -6.026,87.914 26.593,115.209 20.551,18.436 48.78,26.234 76.026,24.623 1178.357,-0.03 2356.716,0.05 3535.072,-0.04 41.792,0.627 82.023,-27.787 95.035,-67.559 14.376,-39.304 0.327,-86.503 -32.889,-111.871 -20.499,-16.442 -47.287,-22.922 -73.218,-21.383 -1177.691,0 -2355.382,-0 -3533.072,0 z"
         id="path4745"
         inkscape:connector-curvature="0" />
      <path
         style="color:#000000;font-style:normal;font-variant:normal;font-weight:normal;font-stretch:normal;font-size:medium;line-height:normal;font-family:sans-serif;font-variant-ligatures:normal;font-variant-position:normal;font-variant-caps:normal;font-variant-numeric:normal;font-variant-alternates:normal;font-feature-settings:normal;text-indent:0;text-align:start;text-decoration:none;text-decoration-line:none;text-decoration-style:solid;text-decoration-color:#000000;letter-spacing:normal;word-spacing:normal;text-transform:none;writing-mode:lr-tb;direction:ltr;text-orientation:mixed;dominant-baseline:auto;baseline-shift:baseline;text-anchor:start;white-space:normal;shape-padding:0;clip-rule:nonzero;display:inline;overflow:visible;visibility:visible;opacity:1;isolation:auto;mix-blend-mode:normal;color-interpolation:sRGB;color-interpolation-filters:linearRGB;solid-color:#000000;solid-opacity:1;vector-effect:none;fill:none;fill-opacity:1;fill-rule:nonzero;stroke:#000000;stroke-width:78.74037933;stroke-linecap:round;stroke-linejoin:round;stroke-miterlimit:4;stroke-dasharray:none;stroke-dashoffset:0;stroke-opacity:1;color-rendering:auto;image-rendering:auto;shape-rendering:auto;text-rendering:auto;enable-background:accumulate"
         d="m 55707.928,36922.576 c -39.728,-0.824 -78.404,24.225 -93.547,61.018 -17.267,38.836 -6.026,87.914 26.593,115.209 20.551,18.436 48.78,26.234 76.026,24.623 188.689,-0.1 377.385,0.197 566.07,-0.148 41.827,-0.444 81.095,-30.22 93.022,-70.284 13.303,-40.366 -2.78,-88.079 -37.964,-111.978 -20.357,-15.047 -46.269,-19.827 -71.128,-18.442 -186.357,0 -372.715,-0 -559.072,0 z"
         id="path4747"
         inkscape:connector-curvature="0" />
      <path
         style="color:#000000;font-style:normal;font-variant:normal;font-weight:normal;font-stretch:normal;font-size:medium;line-height:normal;font-family:sans-serif;font-variant-ligatures:normal;font-variant-position:normal;font-variant-caps:normal;font-variant-numeric:normal;font-variant-alternates:normal;font-feature-settings:normal;text-indent:0;text-align:start;text-decoration:none;text-decoration-line:none;text-decoration-style:solid;text-decoration-color:#000000;letter-spacing:normal;word-spacing:normal;text-transform:none;writing-mode:lr-tb;direction:ltr;text-orientation:mixed;dominant-baseline:auto;baseline-shift:baseline;text-anchor:start;white-space:normal;shape-padding:0;clip-rule:nonzero;display:inline;overflow:visible;visibility:visible;opacity:1;isolation:auto;mix-blend-mode:normal;color-interpolation:sRGB;color-interpolation-filters:linearRGB;solid-color:#000000;solid-opacity:1;vector-effect:none;fill:none;fill-opacity:1;fill-rule:nonzero;stroke:#000000;stroke-width:78.74037933;stroke-linecap:round;stroke-linejoin:round;stroke-miterlimit:4;stroke-dasharray:none;stroke-dashoffset:0;stroke-opacity:1;color-rendering:auto;image-rendering:auto;shape-rendering:auto;text-rendering:auto;enable-background:accumulate"
         d="m 56268.043,36922.078 c -39.641,3.621 -75.326,32.93 -86.208,71.271 -11.217,36.02 0.498,77.404 28.275,102.784 333.149,333.079 666.16,666.302 999.396,999.291 29.602,30.02 78.802,37.623 116.047,17.836 38.475,-18.859 61.261,-64.378 53.199,-106.476 -3.758,-25.01 -18.684,-46.697 -37.226,-63.281 -331.026,-330.959 -661.92,-662.055 -993.029,-992.928 -20.897,-20.878 -51.1,-31.393 -80.454,-28.497 z"
         id="path4749"
         inkscape:connector-curvature="0" />
      <path
         style="color:#000000;font-style:normal;font-variant:normal;font-weight:normal;font-stretch:normal;font-size:medium;line-height:normal;font-family:sans-serif;font-variant-ligatures:normal;font-variant-position:normal;font-variant-caps:normal;font-variant-numeric:normal;font-variant-alternates:normal;font-feature-settings:normal;text-indent:0;text-align:start;text-decoration:none;text-decoration-line:none;text-decoration-style:solid;text-decoration-color:#000000;letter-spacing:normal;word-spacing:normal;text-transform:none;writing-mode:lr-tb;direction:ltr;text-orientation:mixed;dominant-baseline:auto;baseline-shift:baseline;text-anchor:start;white-space:normal;shape-padding:0;clip-rule:nonzero;display:inline;overflow:visible;visibility:visible;opacity:1;isolation:auto;mix-blend-mode:normal;color-interpolation:sRGB;color-interpolation-filters:linearRGB;solid-color:#000000;solid-opacity:1;vector-effect:none;fill:none;fill-opacity:1;fill-rule:nonzero;stroke:#000000;stroke-width:78.74037933;stroke-linecap:round;stroke-linejoin:round;stroke-miterlimit:4;stroke-dasharray:none;stroke-dashoffset:0;stroke-opacity:1;color-rendering:auto;image-rendering:auto;shape-rendering:auto;text-rendering:auto;enable-background:accumulate"
         d="m 57278.928,37922.576 c -39.728,-0.824 -78.404,24.225 -93.547,61.018 -17.267,38.836 -6.026,87.914 26.593,115.209 20.551,18.436 48.78,26.234 76.026,24.623 196.689,-0.1 393.385,0.197 590.07,-0.148 41.827,-0.444 81.095,-30.22 93.022,-70.284 13.303,-40.366 -2.78,-88.079 -37.964,-111.978 -20.357,-15.047 -46.269,-19.827 -71.128,-18.442 -194.357,0 -388.715,-0 -583.072,0 z"
         id="path4751"
         inkscape:connector-curvature="0" />
      <path
         style="color:#000000;font-style:normal;font-variant:normal;font-weight:normal;font-stretch:normal;font-size:medium;line-height:normal;font-family:sans-serif;font-variant-ligatures:normal;font-variant-position:normal;font-variant-caps:normal;font-variant-numeric:normal;font-variant-alternates:normal;font-feature-settings:normal;text-indent:0;text-align:start;text-decoration:none;text-decoration-line:none;text-decoration-style:solid;text-decoration-color:#000000;letter-spacing:normal;word-spacing:normal;text-transform:none;writing-mode:lr-tb;direction:ltr;text-orientation:mixed;dominant-baseline:auto;baseline-shift:baseline;text-anchor:start;white-space:normal;shape-padding:0;clip-rule:nonzero;display:inline;overflow:visible;visibility:visible;opacity:1;isolation:auto;mix-blend-mode:normal;color-interpolation:sRGB;color-interpolation-filters:linearRGB;solid-color:#000000;solid-opacity:1;vector-effect:none;fill:none;fill-opacity:1;fill-rule:nonzero;stroke:#000000;stroke-width:78.74037933;stroke-linecap:round;stroke-linejoin:round;stroke-miterlimit:4;stroke-dasharray:none;stroke-dashoffset:0;stroke-opacity:1;color-rendering:auto;image-rendering:auto;shape-rendering:auto;text-rendering:auto;enable-background:accumulate"
         d="m 55018.928,33922.576 c -39.728,-0.824 -78.404,24.225 -93.547,61.018 -17.267,38.836 -6.026,87.914 26.593,115.209 20.551,18.436 48.78,26.234 76.026,24.623 319.689,-0.07 639.384,0.149 959.07,-0.112 42.178,-0.05 82.008,-29.91 94.022,-70.32 13.303,-40.366 -2.78,-88.079 -37.964,-111.978 -20.357,-15.047 -46.269,-19.827 -71.128,-18.442 -317.691,0 -635.382,-0 -953.072,0 z"
         id="path4753"
         inkscape:connector-curvature="0" />
      <path
         style="color:#000000;font-style:normal;font-variant:normal;font-weight:normal;font-stretch:normal;font-size:medium;line-height:normal;font-family:sans-serif;font-variant-ligatures:normal;font-variant-position:normal;font-variant-caps:normal;font-variant-numeric:normal;font-variant-alternates:normal;font-feature-settings:normal;text-indent:0;text-align:start;text-decoration:none;text-decoration-line:none;text-decoration-style:solid;text-decoration-color:#000000;letter-spacing:normal;word-spacing:normal;text-transform:none;writing-mode:lr-tb;direction:ltr;text-orientation:mixed;dominant-baseline:auto;baseline-shift:baseline;text-anchor:start;white-space:normal;shape-padding:0;clip-rule:nonzero;display:inline;overflow:visible;visibility:visible;opacity:1;isolation:auto;mix-blend-mode:normal;color-interpolation:sRGB;color-interpolation-filters:linearRGB;solid-color:#000000;solid-opacity:1;vector-effect:none;fill:none;fill-opacity:1;fill-rule:nonzero;stroke:#000000;stroke-width:78.74037933;stroke-linecap:round;stroke-linejoin:round;stroke-miterlimit:4;stroke-dasharray:none;stroke-dashoffset:0;stroke-opacity:1;color-rendering:auto;image-rendering:auto;shape-rendering:auto;text-rendering:auto;enable-background:accumulate"
         d="m 56780.043,35115.078 c -39.641,3.621 -75.326,32.93 -86.208,71.271 -11.217,36.02 0.498,77.404 28.275,102.784 269.069,268.963 537.93,538.142 807.129,806.971 29.868,29.78 79.151,36.811 116.213,16.72 37.941,-19.15 60.293,-64.266 52.3,-106.04 -3.758,-25.01 -18.684,-46.697 -37.226,-63.281 -266.945,-266.844 -533.691,-533.894 -800.761,-800.61 -20.797,-20.459 -50.745,-30.666 -79.722,-27.815 z"
         id="path4755"
         inkscape:connector-curvature="0" />
      <path
         style="color:#000000;font-style:normal;font-variant:normal;font-weight:normal;font-stretch:normal;font-size:medium;line-height:normal;font-family:sans-serif;font-variant-ligatures:normal;font-variant-position:normal;font-variant-caps:normal;font-variant-numeric:normal;font-variant-alternates:normal;font-feature-settings:normal;text-indent:0;text-align:start;text-decoration:none;text-decoration-line:none;text-decoration-style:solid;text-decoration-color:#000000;letter-spacing:normal;word-spacing:normal;text-transform:none;writing-mode:lr-tb;direction:ltr;text-orientation:mixed;dominant-baseline:auto;baseline-shift:baseline;text-anchor:start;white-space:normal;shape-padding:0;clip-rule:nonzero;display:inline;overflow:visible;visibility:visible;opacity:1;isolation:auto;mix-blend-mode:normal;color-interpolation:sRGB;color-interpolation-filters:linearRGB;solid-color:#000000;solid-opacity:1;vector-effect:none;fill:none;fill-opacity:1;fill-rule:nonzero;stroke:#000000;stroke-width:78.74037933;stroke-linecap:round;stroke-linejoin:round;stroke-miterlimit:4;stroke-dasharray:none;stroke-dashoffset:0;stroke-opacity:1;color-rendering:auto;image-rendering:auto;shape-rendering:auto;text-rendering:auto;enable-background:accumulate"
         d="m 57597.928,35922.576 c -39.728,-0.824 -78.404,24.225 -93.547,61.018 -17.267,38.836 -6.026,87.914 26.593,115.209 20.551,18.436 48.78,26.234 76.026,24.623 319.356,-0.07 638.718,0.149 958.07,-0.112 42.178,-0.05 82.008,-29.91 94.022,-70.32 13.303,-40.366 -2.78,-88.079 -37.964,-111.978 -20.357,-15.047 -46.269,-19.827 -71.128,-18.442 -317.357,0 -634.715,-0 -952.072,0 z"
         id="path4757"
         inkscape:connector-curvature="0" />
      <path
         style="color:#000000;font-style:normal;font-variant:normal;font-weight:normal;font-stretch:normal;font-size:medium;line-height:normal;font-family:sans-serif;font-variant-ligatures:normal;font-variant-position:normal;font-variant-caps:normal;font-variant-numeric:normal;font-variant-alternates:normal;font-feature-settings:normal;text-indent:0;text-align:start;text-decoration:none;text-decoration-line:none;text-decoration-style:solid;text-decoration-color:#000000;letter-spacing:normal;word-spacing:normal;text-transform:none;writing-mode:lr-tb;direction:ltr;text-orientation:mixed;dominant-baseline:auto;baseline-shift:baseline;text-anchor:start;white-space:normal;shape-padding:0;clip-rule:nonzero;display:inline;overflow:visible;visibility:visible;opacity:1;isolation:auto;mix-blend-mode:normal;color-interpolation:sRGB;color-interpolation-filters:linearRGB;solid-color:#000000;solid-opacity:1;vector-effect:none;fill:none;fill-opacity:1;fill-rule:nonzero;stroke:#000000;stroke-width:78.74037933;stroke-linecap:round;stroke-linejoin:round;stroke-miterlimit:4;stroke-dasharray:none;stroke-dashoffset:0;stroke-opacity:1;color-rendering:auto;image-rendering:auto;shape-rendering:auto;text-rendering:auto;enable-background:accumulate"
         d="m 56789.387,34740.188 c -39.735,0.31 -77.682,26.448 -91.77,63.657 -10.658,25.753 -6.031,54.083 -7.043,81.155 0.147,112.355 -0.294,224.72 0.221,337.068 1.275,41.483 31.336,79.829 71.156,91.352 38.594,12.146 83.507,-2.063 108.092,-34.202 16.442,-20.499 22.922,-47.287 21.383,-73.218 -0.121,-123.022 0.241,-246.052 -0.181,-369.069 -0.812,-41.842 -30.982,-80.764 -71.124,-92.402 -9.971,-2.99 -20.33,-4.357 -30.734,-4.341 z"
         id="path4759"
         inkscape:connector-curvature="0" />
      <path
         style="color:#000000;font-style:normal;font-variant:normal;font-weight:normal;font-stretch:normal;font-size:medium;line-height:normal;font-family:sans-serif;font-variant-ligatures:normal;font-variant-position:normal;font-variant-caps:normal;font-variant-numeric:normal;font-variant-alternates:normal;font-feature-settings:normal;text-indent:0;text-align:start;text-decoration:none;text-decoration-line:none;text-decoration-style:solid;text-decoration-color:#000000;letter-spacing:normal;word-spacing:normal;text-transform:none;writing-mode:lr-tb;direction:ltr;text-orientation:mixed;dominant-baseline:auto;baseline-shift:baseline;text-anchor:start;white-space:normal;shape-padding:0;clip-rule:nonzero;display:inline;overflow:visible;visibility:visible;opacity:1;isolation:auto;mix-blend-mode:normal;color-interpolation:sRGB;color-interpolation-filters:linearRGB;solid-color:#000000;solid-opacity:1;vector-effect:none;fill:none;fill-opacity:1;fill-rule:nonzero;stroke:#000000;stroke-width:78.74037933;stroke-linecap:round;stroke-linejoin:round;stroke-miterlimit:4;stroke-dasharray:none;stroke-dashoffset:0;stroke-opacity:1;color-rendering:auto;image-rendering:auto;shape-rendering:auto;text-rendering:auto;enable-background:accumulate"
         d="m 55973.043,33922.078 c -39.641,3.621 -75.326,32.93 -86.208,71.271 -11.217,36.02 0.498,77.404 28.275,102.784 269.069,268.963 537.93,538.142 807.129,806.971 29.868,29.78 79.151,36.811 116.213,16.72 37.941,-19.15 60.293,-64.266 52.3,-106.04 -3.758,-25.01 -18.684,-46.697 -37.226,-63.281 -266.945,-266.844 -533.691,-533.894 -800.761,-800.61 -20.797,-20.459 -50.745,-30.666 -79.722,-27.815 z"
         id="path4761"
         inkscape:connector-curvature="0" />
      <g
         id="g4765"
         style="fill:none;stroke:#000000;stroke-opacity:1;stroke-width:78.74037889;stroke-miterlimit:4;stroke-dasharray:none;fill-opacity:1" />
    </g>
  </g>
  <g
     id="g4986"
     transform="translate(-54590.017,43220.007)">
    <g
       id="g4948"
       style="fill:#000000;fill-opacity:1;stroke:#000000;stroke-linecap:round;stroke-linejoin:round;stroke-opacity:1" />
    <g
       id="g4950"
       style="fill:#000000;fill-opacity:0;stroke:#000000;stroke-width:-0.0003937;stroke-linecap:round;stroke-linejoin:round;stroke-opacity:1" />
    <g
       id="g4966"
       style="fill:#000000;fill-opacity:0;stroke:#000000;stroke-width:19.68499947;stroke-linecap:round;stroke-linejoin:round;stroke-opacity:1">
      <path
         id="path4952"
         d="M 54600,39450 V 33600"
         inkscape:connector-curvature="0" />
      <path
         id="path4954"
         d="M 58950,39450 H 54600"
         inkscape:connector-curvature="0" />
      <path
         id="path4956"
         d="m 58950,33600 v 5850"
         inkscape:connector-curvature="0" />
      <path
         id="path4958"
         d="m 54600,33600 h 4350"
         inkscape:connector-curvature="0" />
      <g
         id="g4960" />
      <g
         id="g4962" />
      <g
         id="g4964" />
    </g>
  </g>
  <g
     id="g5324"
     transform="translate(-49381.68,43220.007)">
    <g
       id="g5286"
       style="fill:#000000;fill-opacity:1;stroke:#000000;stroke-linecap:round;stroke-linejoin:round;stroke-opacity:1" />
    <g
       id="g5288"
       style="fill:#000000;fill-opacity:0;stroke:#000000;stroke-width:-0.0003937;stroke-linecap:round;stroke-linejoin:round;stroke-opacity:1" />
    <g
       id="g5304"
       style="fill:#000000;fill-opacity:0;stroke:#000000;stroke-width:19.68499947;stroke-linecap:round;stroke-linejoin:round;stroke-opacity:1">
      <path
         id="path5290"
         d="M 54600,39450 V 33600"
         inkscape:connector-curvature="0" />
      <path
         id="path5292"
         d="M 58950,39450 H 54600"
         inkscape:connector-curvature="0" />
      <path
         id="path5294"
         d="m 58950,33600 v 5850"
         inkscape:connector-curvature="0" />
      <path
         id="path5296"
         d="m 54600,33600 h 4350"
         inkscape:connector-curvature="0" />
      <g
         id="g5298" />
      <g
         id="g5300" />
      <g
         id="g5302" />
    </g>
  </g>
  <g
     id="g5624"
     transform="matrix(-1,0,0,1,64166.963,43226.531)">
    <g
       id="g5511"
       style="fill:#000000;fill-opacity:1;stroke:#000000;stroke-linecap:round;stroke-linejoin:round;stroke-opacity:1" />
    <g
       id="g5579"
       style="fill:#000000;fill-opacity:0;stroke:#000000;stroke-width:-0.0003937;stroke-linecap:round;stroke-linejoin:round;stroke-opacity:1">
      <g
         id="g5513" />
      <g
         id="g5515"
         style="fill:#000000;fill-opacity:0;stroke:#000000;stroke-width:0;stroke-linecap:round;stroke-linejoin:round;stroke-opacity:1" />
      <g
         id="g5529"
         style="fill:#000000;fill-opacity:1;stroke:#000000;stroke-width:0;stroke-linecap:round;stroke-linejoin:round;stroke-opacity:1">
        <path
           id="path5517"
           d="m 58943,33629 v 788 h -1575 v -788 z"
           style="fill:#000000;fill-opacity:1;fill-rule:evenodd;stroke:#000000;stroke-width:0;stroke-linecap:round;stroke-linejoin:round;stroke-opacity:1"
           inkscape:connector-curvature="0" />
        <path
           id="path5519"
           d="m 58943,34629 v 788 h -1575 v -788 z"
           style="fill:#000000;fill-opacity:1;fill-rule:evenodd;stroke:#000000;stroke-width:0;stroke-linecap:round;stroke-linejoin:round;stroke-opacity:1"
           inkscape:connector-curvature="0" />
        <path
           id="path5521"
           d="m 58943,35629 v 788 h -1575 v -788 z"
           style="fill:#000000;fill-opacity:1;fill-rule:evenodd;stroke:#000000;stroke-width:0;stroke-linecap:round;stroke-linejoin:round;stroke-opacity:1"
           inkscape:connector-curvature="0" />
        <path
           id="path5523"
           d="m 58943,36629 v 788 h -1575 v -788 z"
           style="fill:#000000;fill-opacity:1;fill-rule:evenodd;stroke:#000000;stroke-width:0;stroke-linecap:round;stroke-linejoin:round;stroke-opacity:1"
           inkscape:connector-curvature="0" />
        <path
           id="path5525"
           d="m 58943,37629 v 788 h -1575 v -788 z"
           style="fill:#000000;fill-opacity:1;fill-rule:evenodd;stroke:#000000;stroke-width:0;stroke-linecap:round;stroke-linejoin:round;stroke-opacity:1"
           inkscape:connector-curvature="0" />
        <path
           id="path5527"
           d="m 58943,38629 v 788 h -1575 v -788 z"
           style="fill:#000000;fill-opacity:1;fill-rule:evenodd;stroke:#000000;stroke-width:0;stroke-linecap:round;stroke-linejoin:round;stroke-opacity:1"
           inkscape:connector-curvature="0" />
      </g>
      <g
         id="g5531" />
      <g
         id="g5545"
         style="fill:#000000;fill-opacity:1;stroke:#000000;stroke-width:0;stroke-linecap:round;stroke-linejoin:round;stroke-opacity:1">
        <path
           id="path5533"
           d="m 54606,34417 v -788 h 1575 v 788 z"
           style="fill:#000000;fill-opacity:1;fill-rule:evenodd;stroke:#000000;stroke-width:0;stroke-linecap:round;stroke-linejoin:round;stroke-opacity:1"
           inkscape:connector-curvature="0" />
        <path
           id="path5535"
           d="m 54606,35417 v -788 h 1575 v 788 z"
           style="fill:#000000;fill-opacity:1;fill-rule:evenodd;stroke:#000000;stroke-width:0;stroke-linecap:round;stroke-linejoin:round;stroke-opacity:1"
           inkscape:connector-curvature="0" />
        <path
           id="path5537"
           d="m 54606,36417 v -788 h 1575 v 788 z"
           style="fill:#000000;fill-opacity:1;fill-rule:evenodd;stroke:#000000;stroke-width:0;stroke-linecap:round;stroke-linejoin:round;stroke-opacity:1"
           inkscape:connector-curvature="0" />
        <path
           id="path5539"
           d="m 54606,37417 v -788 h 1575 v 788 z"
           style="fill:#000000;fill-opacity:1;fill-rule:evenodd;stroke:#000000;stroke-width:0;stroke-linecap:round;stroke-linejoin:round;stroke-opacity:1"
           inkscape:connector-curvature="0" />
        <path
           id="path5541"
           d="m 54606,38417 v -788 h 1575 v 788 z"
           style="fill:#000000;fill-opacity:1;fill-rule:evenodd;stroke:#000000;stroke-width:0;stroke-linecap:round;stroke-linejoin:round;stroke-opacity:1"
           inkscape:connector-curvature="0" />
        <path
           id="path5543"
           d="m 54606,39417 v -788 h 1575 v 788 z"
           style="fill:#000000;fill-opacity:1;fill-rule:evenodd;stroke:#000000;stroke-width:0;stroke-linecap:round;stroke-linejoin:round;stroke-opacity:1"
           inkscape:connector-curvature="0" />
      </g>
      <g
         id="g5547" />
      <g
         id="g5549" />
      <g
         id="g5551"
         style="fill:#000000;fill-opacity:1;stroke:#000000;stroke-width:0;stroke-linecap:round;stroke-linejoin:round;stroke-opacity:1" />
      <g
         id="g5553"
         style="fill:#000000;fill-opacity:1;stroke:#000000;stroke-width:196.8500061;stroke-linecap:round;stroke-linejoin:round;stroke-opacity:1" />
      <g
         id="g5575"
         style="fill:#000000;fill-opacity:0;stroke:#000000;stroke-width:196.8500061;stroke-linecap:round;stroke-linejoin:round;stroke-opacity:1">
        <path
           id="path5555"
           d="m 55019,39023 h 3543"
           inkscape:connector-curvature="0" />
        <path
           id="path5557"
           d="m 57303,37023 h 571"
           inkscape:connector-curvature="0" />
        <path
           id="path5559"
           d="m 56303,38023 1000,-1000"
           inkscape:connector-curvature="0" />
        <path
           id="path5561"
           d="m 55708,38023 h 595"
           inkscape:connector-curvature="0" />
        <path
           id="path5563"
           d="m 57303,35023 h 571"
           inkscape:connector-curvature="0" />
        <path
           id="path5565"
           d="m 55708,36023 h 595"
           inkscape:connector-curvature="0" />
        <path
           id="path5567"
           d="m 56303,36023 1000,-1000"
           inkscape:connector-curvature="0" />
        <path
           id="path5569"
           d="m 55019,35023 h 1295"
           inkscape:connector-curvature="0" />
        <path
           id="path5571"
           d="m 57314,34023 h 1248"
           inkscape:connector-curvature="0" />
        <path
           id="path5573"
           d="m 56314,35023 1000,-1000"
           inkscape:connector-curvature="0" />
      </g>
      <g
         id="g5577" />
    </g>
  </g>
</svg>
