  0
SECTION
  2
HEADER
  9
$ACADVER
  1
AC1014
  9
$HANDSEED
  5
FFFF
  9
$MEASUREMENT
 70
     1
  0
ENDSEC
  0
SECTION
  2
TABLES
  0
TABLE
  2
VPORT
  5
8
330
0
100
AcDbSymbolTable
 70
     4
  0
VPORT
  5
2E
330
8
100
AcDbSymbolTableRecord
100
AcDbViewportTableRecord
  2
*ACTIVE
 70
     0
 10
0.0
 20
0.0
 11
1.0
 21
1.0
 12
210.0
 22
148.5
 13
0.0
 23
0.0
 14
10.0
 24
10.0
 15
10.0
 25
10.0
 16
0.0
 26
0.0
 36
1.0
 17
0.0
 27
0.0
 37
0.0
 40
341.0
 41
1.24
 42
50.0
 43
0.0
 44
0.0
 50
0.0
 51
0.0
 71
     0
 72
   100
 73
     1
 74
     3
 75
     0
 76
     0
 77
     0
 78
     0
  0
ENDTAB
  0
TABLE
  2
LTYPE
  5
5
330
0
100
AcDbSymbolTable
 70
     1
  0
LTYPE
  5
14
330
5
100
AcDbSymbolTableRecord
100
AcDbLinetypeTableRecord
  2
BYBLOCK
 70
     0
  3

 72
    65
 73
     0
 40
0.0
  0
LTYPE
  5
15
330
5
100
AcDbSymbolTableRecord
100
AcDbLinetypeTableRecord
  2
BYLAYER
 70
     0
  3

 72
    65
 73
     0
 40
0.0
  0
LTYPE
  5
16
330
5
100
AcDbSymbolTableRecord
100
AcDbLinetypeTableRecord
  2
CONTINUOUS
 70
     0
  3
Solid line
 72
    65
 73
     0
 40
0.0
  0
ENDTAB
  0
TABLE
  2
LAYER
  5
2
100
AcDbSymbolTable
 70
2
  0
LAYER
  5
50
100
AcDbSymbolTableRecord
100
AcDbLayerTableRecord
  2
0
 70
0
  6
CONTINUOUS
  0
LAYER
  5
51
100
AcDbSymbolTableRecord
100
AcDbLayerTableRecord
  2
Front
 70
0
  6
CONTINUOUS
  0
ENDTAB
  0
TABLE
  2
STYLE
  5
3
330
0
100
AcDbSymbolTable
 70
     1
  0
STYLE
  5
11
330
3
100
AcDbSymbolTableRecord
100
AcDbTextStyleTableRecord
  2
STANDARD
 70
     0
 40
0.0
 41
1.0
 50
0.0
 71
     0
 42
2.5
  3
txt
  4

  0
ENDTAB
  0
TABLE
  2
VIEW
  5
6
330
0
100
AcDbSymbolTable
 70
     0
  0
ENDTAB
  0
TABLE
  2
UCS
  5
7
330
0
100
AcDbSymbolTable
 70
     0
  0
ENDTAB
  0
TABLE
  2
APPID
  5
9
330
0
100
AcDbSymbolTable
 70
     2
  0
APPID
  5
12
330
9
100
AcDbSymbolTableRecord
100
AcDbRegAppTableRecord
  2
ACAD
 70
     0
  0
ENDTAB
  0
TABLE
  2
DIMSTYLE
  5
A
330
0
100
AcDbSymbolTable
 70
     1
  0
DIMSTYLE
105
27
330
A
100
AcDbSymbolTableRecord
100
AcDbDimStyleTableRecord
  2
ISO-25
 70
     0
  3

  4

  5

  6

  7

 40
1.0
 41
2.5
 42
0.625
 43
3.75
 44
1.25
 45
0.0
 46
0.0
 47
0.0
 48
0.0
140
2.5
141
2.5
142
0.0
143
0.03937007874016
144
1.0
145
0.0
146
1.0
147
0.625
 71
     0
 72
     0
 73
     0
 74
     0
 75
     0
 76
     0
 77
     1
 78
     8
170
     0
171
     3
172
     1
173
     0
174
     0
175
     0
176
     0
177
     0
178
     0
270
     2
271
     2
272
     2
273
     2
274
     3
340
11
275
     0
280
     0
281
     0
282
     0
283
     0
284
     8
285
     0
286
     0
287
     3
288
     0
  0
ENDTAB
  0
TABLE
  2
BLOCK_RECORD
  5
1
330
0
100
AcDbSymbolTable
 70
     1
  0
BLOCK_RECORD
  5
1F
330
1
100
AcDbSymbolTableRecord
100
AcDbBlockTableRecord
  2
*MODEL_SPACE
  0
BLOCK_RECORD
  5
1B
330
1
100
AcDbSymbolTableRecord
100
AcDbBlockTableRecord
  2
*PAPER_SPACE
  0
ENDTAB
  0
ENDSEC
  0
SECTION
  2
BLOCKS
  0
BLOCK
  5
20
330
1F
100
AcDbEntity
  8
0
100
AcDbBlockBegin
  2
*MODEL_SPACE
 70
     0
 10
0.0
 20
0.0
 30
0.0
  3
*MODEL_SPACE
  1

  0
ENDBLK
  5
21
330
1F
100
AcDbEntity
  8
0
100
AcDbBlockEnd
  0
BLOCK
  5
1C
330
1B
100
AcDbEntity
 67
     1
  8
0
100
AcDbBlockBegin
  2
*PAPER_SPACE
  1

  0
ENDBLK
  5
1D
330
1B
100
AcDbEntity
 67
     1
  8
0
100
AcDbBlockEnd
  0
ENDSEC
  0
SECTION
  2
ENTITIES
  0
SPLINE
  5
100
100
AcDbEntity
  8
Front
 62
7
100
AcDbSpline
 70
8
 71
3
 72
8
 73
4
 74
0
 40
0
 40
0
 40
0
 40
0
 40
1
 40
1
 40
1
 40
1
 10
173.289138
 20
-27.655503
 30
0.0
 10
173.286785
 20
-27.656036
 30
0.0
 10
173.284523
 20
-27.656907
 30
0.0
 10
173.282420
 20
-27.658088
 30
0.0
  0
SPLINE
  5
101
100
AcDbEntity
  8
Front
 62
7
100
AcDbSpline
 70
8
 71
3
 72
8
 73
4
 74
0
 40
0
 40
0
 40
0
 40
0
 40
1
 40
1
 40
1
 40
1
 10
173.282420
 20
-27.658088
 30
0.0
 10
173.282420
 20
-27.658088
 30
0.0
 10
173.281904
 20
-27.658088
 30
0.0
 10
173.281904
 20
-27.658088
 30
0.0
  0
SPLINE
  5
102
100
AcDbEntity
  8
Front
 62
7
100
AcDbSpline
 70
8
 71
3
 72
8
 73
4
 74
0
 40
0
 40
0
 40
0
 40
0
 40
1
 40
1
 40
1
 40
1
 10
173.281904
 20
-27.658088
 30
0.0
 10
172.607068
 20
-27.662041
 30
0.0
 10
171.960522
 20
-27.931472
 30
0.0
 10
171.483047
 20
-28.408947
 30
0.0
  0
SPLINE
  5
103
100
AcDbEntity
  8
Front
 62
7
100
AcDbSpline
 70
8
 71
3
 72
8
 73
4
 74
0
 40
0
 40
0
 40
0
 40
0
 40
1
 40
1
 40
1
 40
1
 10
171.483047
 20
-28.408947
 30
0.0
 10
171.005458
 20
-28.886535
 30
0.0
 10
170.736017
 20
-29.532791
 30
0.0
 10
170.732189
 20
-30.207803
 30
0.0
  0
SPLINE
  5
104
100
AcDbEntity
  8
Front
 62
7
100
AcDbSpline
 70
8
 71
3
 72
8
 73
4
 74
0
 40
0
 40
0
 40
0
 40
0
 40
1
 40
1
 40
1
 40
1
 10
170.732189
 20
-30.207803
 30
0.0
 10
170.730098
 20
-30.211598
 30
0.0
 10
170.729029
 20
-30.215872
 30
0.0
 10
170.729088
 20
-30.220204
 30
0.0
  0
SPLINE
  5
105
100
AcDbEntity
  8
Front
 62
7
100
AcDbSpline
 70
8
 71
3
 72
8
 73
4
 74
0
 40
0
 40
0
 40
0
 40
0
 40
1
 40
1
 40
1
 40
1
 10
170.729088
 20
-30.220204
 30
0.0
 10
170.729088
 20
-30.220204
 30
0.0
 10
170.729088
 20
-55.620200
 30
0.0
 10
170.729088
 20
-55.620200
 30
0.0
  0
SPLINE
  5
106
100
AcDbEntity
  8
Front
 62
7
100
AcDbSpline
 70
8
 71
3
 72
8
 73
4
 74
0
 40
0
 40
0
 40
0
 40
0
 40
1
 40
1
 40
1
 40
1
 10
170.729088
 20
-55.620200
 30
0.0
 10
170.729117
 20
-55.624358
 30
0.0
 10
170.730183
 20
-55.628443
 30
0.0
 10
170.732189
 20
-55.632086
 30
0.0
  0
SPLINE
  5
107
100
AcDbEntity
  8
Front
 62
7
100
AcDbSpline
 70
8
 71
3
 72
8
 73
4
 74
0
 40
0
 40
0
 40
0
 40
0
 40
1
 40
1
 40
1
 40
1
 10
170.732189
 20
-55.632086
 30
0.0
 10
170.734790
 20
-56.308794
 30
0.0
 10
171.004350
 20
-56.957415
 30
0.0
 10
171.483047
 20
-57.436110
 30
0.0
  0
SPLINE
  5
108
100
AcDbEntity
  8
Front
 62
7
100
AcDbSpline
 70
8
 71
3
 72
8
 73
4
 74
0
 40
0
 40
0
 40
0
 40
0
 40
1
 40
1
 40
1
 40
1
 10
171.483047
 20
-57.436110
 30
0.0
 10
171.964070
 20
-57.917135
 30
0.0
 10
172.616620
 20
-58.187487
 30
0.0
 10
173.296890
 20
-58.187487
 30
0.0
  0
SPLINE
  5
109
100
AcDbEntity
  8
Front
 62
7
100
AcDbSpline
 70
8
 71
3
 72
8
 73
4
 74
0
 40
0
 40
0
 40
0
 40
0
 40
1
 40
1
 40
1
 40
1
 10
173.296890
 20
-58.187487
 30
0.0
 10
173.300269
 20
-58.187467
 30
0.0
 10
173.303609
 20
-58.186764
 30
0.0
 10
173.306709
 20
-58.185418
 30
0.0
  0
SPLINE
  5
10a
100
AcDbEntity
  8
Front
 62
7
100
AcDbSpline
 70
8
 71
3
 72
8
 73
4
 74
0
 40
0
 40
0
 40
0
 40
0
 40
1
 40
1
 40
1
 40
1
 10
173.306709
 20
-58.185418
 30
0.0
 10
173.306709
 20
-58.185418
 30
0.0
 10
185.351966
 20
-58.185418
 30
0.0
 10
185.351966
 20
-58.185418
 30
0.0
  0
SPLINE
  5
10b
100
AcDbEntity
  8
Front
 62
7
100
AcDbSpline
 70
8
 71
3
 72
8
 73
4
 74
0
 40
0
 40
0
 40
0
 40
0
 40
1
 40
1
 40
1
 40
1
 10
185.351966
 20
-58.185418
 30
0.0
 10
185.355066
 20
-58.186764
 30
0.0
 10
185.358406
 20
-58.187467
 30
0.0
 10
185.361785
 20
-58.187487
 30
0.0
  0
SPLINE
  5
10c
100
AcDbEntity
  8
Front
 62
7
100
AcDbSpline
 70
8
 71
3
 72
8
 73
4
 74
0
 40
0
 40
0
 40
0
 40
0
 40
1
 40
1
 40
1
 40
1
 10
185.361785
 20
-58.187487
 30
0.0
 10
186.042055
 20
-58.187487
 30
0.0
 10
186.694605
 20
-57.917135
 30
0.0
 10
187.175628
 20
-57.436110
 30
0.0
  0
SPLINE
  5
10d
100
AcDbEntity
  8
Front
 62
7
100
AcDbSpline
 70
8
 71
3
 72
8
 73
4
 74
0
 40
0
 40
0
 40
0
 40
0
 40
1
 40
1
 40
1
 40
1
 10
187.175628
 20
-57.436110
 30
0.0
 10
187.656651
 20
-56.955087
 30
0.0
 10
187.927002
 20
-56.302537
 30
0.0
 10
187.927002
 20
-55.622267
 30
0.0
  0
SPLINE
  5
10e
100
AcDbEntity
  8
Front
 62
7
100
AcDbSpline
 70
8
 71
3
 72
8
 73
4
 74
0
 40
0
 40
0
 40
0
 40
0
 40
1
 40
1
 40
1
 40
1
 10
187.927002
 20
-55.622267
 30
0.0
 10
187.926968
 20
-55.618502
 30
0.0
 10
187.926085
 20
-55.614792
 30
0.0
 10
187.924417
 20
-55.611416
 30
0.0
  0
SPLINE
  5
10f
100
AcDbEntity
  8
Front
 62
7
100
AcDbSpline
 70
8
 71
3
 72
8
 73
4
 74
0
 40
0
 40
0
 40
0
 40
0
 40
1
 40
1
 40
1
 40
1
 10
187.924417
 20
-55.611416
 30
0.0
 10
187.924417
 20
-55.611416
 30
0.0
 10
187.924417
 20
-30.233640
 30
0.0
 10
187.924417
 20
-30.233640
 30
0.0
  0
SPLINE
  5
110
100
AcDbEntity
  8
Front
 62
7
100
AcDbSpline
 70
8
 71
3
 72
8
 73
4
 74
0
 40
0
 40
0
 40
0
 40
0
 40
1
 40
1
 40
1
 40
1
 10
187.924417
 20
-30.233640
 30
0.0
 10
187.926162
 20
-30.230107
 30
0.0
 10
187.927048
 20
-30.226211
 30
0.0
 10
187.927002
 20
-30.222271
 30
0.0
  0
SPLINE
  5
111
100
AcDbEntity
  8
Front
 62
7
100
AcDbSpline
 70
8
 71
3
 72
8
 73
4
 74
0
 40
0
 40
0
 40
0
 40
0
 40
1
 40
1
 40
1
 40
1
 10
187.927002
 20
-30.222271
 30
0.0
 10
187.926999
 20
-29.542003
 30
0.0
 10
187.656651
 20
-28.889967
 30
0.0
 10
187.175628
 20
-28.408947
 30
0.0
  0
SPLINE
  5
112
100
AcDbEntity
  8
Front
 62
7
100
AcDbSpline
 70
8
 71
3
 72
8
 73
4
 74
0
 40
0
 40
0
 40
0
 40
0
 40
1
 40
1
 40
1
 40
1
 10
187.175628
 20
-28.408947
 30
0.0
 10
186.696809
 20
-27.930130
 30
0.0
 10
186.047979
 20
-27.660552
 30
0.0
 10
185.371085
 20
-27.658088
 30
0.0
  0
SPLINE
  5
113
100
AcDbEntity
  8
Front
 62
7
100
AcDbSpline
 70
8
 71
3
 72
8
 73
4
 74
0
 40
0
 40
0
 40
0
 40
0
 40
1
 40
1
 40
1
 40
1
 10
185.371085
 20
-27.658088
 30
0.0
 10
185.367396
 20
-27.656261
 30
0.0
 10
185.363314
 20
-27.655373
 30
0.0
 10
185.359200
 20
-27.655503
 30
0.0
  0
LINE
  5
114
100
AcDbEntity
  8
Front
 62
7
100
AcDbLine
 10
185.359200
 20
-27.655503
 30
0.0
 11
173.294305
 21
-27.655503
 31
0.0
  0
SPLINE
  5
115
100
AcDbEntity
  8
Front
 62
7
100
AcDbSpline
 70
8
 71
3
 72
8
 73
4
 74
0
 40
0
 40
0
 40
0
 40
0
 40
1
 40
1
 40
1
 40
1
 10
173.294305
 20
-27.655503
 30
0.0
 10
173.292587
 20
-27.655325
 30
0.0
 10
173.290855
 20
-27.655325
 30
0.0
 10
173.289138
 20
-27.655503
 30
0.0
  0
LINE
  5
116
100
AcDbEntity
  8
Front
 62
7
100
AcDbLine
 10
173.289138
 20
-27.655503
 30
0.0
 11
173.289138
 21
-27.655503
 31
0.0
  0
SPLINE
  5
117
100
AcDbEntity
  8
Front
 62
7
100
AcDbSpline
 70
8
 71
3
 72
8
 73
4
 74
0
 40
0
 40
0
 40
0
 40
0
 40
1
 40
1
 40
1
 40
1
 10
173.307740
 20
-27.705113
 30
0.0
 10
173.307740
 20
-27.705113
 30
0.0
 10
185.350416
 20
-27.705113
 30
0.0
 10
185.350416
 20
-27.705113
 30
0.0
  0
SPLINE
  5
118
100
AcDbEntity
  8
Front
 62
7
100
AcDbSpline
 70
8
 71
3
 72
8
 73
4
 74
0
 40
0
 40
0
 40
0
 40
0
 40
1
 40
1
 40
1
 40
1
 10
185.350416
 20
-27.705113
 30
0.0
 10
185.353992
 20
-27.706680
 30
0.0
 10
185.357886
 20
-27.707387
 30
0.0
 10
185.361785
 20
-27.707179
 30
0.0
  0
SPLINE
  5
119
100
AcDbEntity
  8
Front
 62
7
100
AcDbSpline
 70
8
 71
3
 72
8
 73
4
 74
0
 40
0
 40
0
 40
0
 40
0
 40
1
 40
1
 40
1
 40
1
 10
185.361785
 20
-27.707179
 30
0.0
 10
186.028813
 20
-27.707179
 30
0.0
 10
186.668310
 20
-27.972426
 30
0.0
 10
187.139970
 20
-28.444086
 30
0.0
  0
SPLINE
  5
11a
100
AcDbEntity
  8
Front
 62
7
100
AcDbSpline
 70
8
 71
3
 72
8
 73
4
 74
0
 40
0
 40
0
 40
0
 40
0
 40
1
 40
1
 40
1
 40
1
 10
187.139970
 20
-28.444086
 30
0.0
 10
187.608811
 20
-28.912927
 30
0.0
 10
187.873212
 20
-29.547673
 30
0.0
 10
187.876358
 20
-30.210386
 30
0.0
  0
SPLINE
  5
11b
100
AcDbEntity
  8
Front
 62
7
100
AcDbSpline
 70
8
 71
3
 72
8
 73
4
 74
0
 40
0
 40
0
 40
0
 40
0
 40
1
 40
1
 40
1
 40
1
 10
187.876358
 20
-30.210386
 30
0.0
 10
187.875013
 20
-30.213485
 30
0.0
 10
187.874310
 20
-30.216825
 30
0.0
 10
187.874292
 20
-30.220204
 30
0.0
  0
SPLINE
  5
11c
100
AcDbEntity
  8
Front
 62
7
100
AcDbSpline
 70
8
 71
3
 72
8
 73
4
 74
0
 40
0
 40
0
 40
0
 40
0
 40
1
 40
1
 40
1
 40
1
 10
187.874292
 20
-30.220204
 30
0.0
 10
187.874292
 20
-30.220204
 30
0.0
 10
187.874292
 20
-55.620200
 30
0.0
 10
187.874292
 20
-55.620200
 30
0.0
  0
SPLINE
  5
11d
100
AcDbEntity
  8
Front
 62
7
100
AcDbSpline
 70
8
 71
3
 72
8
 73
4
 74
0
 40
0
 40
0
 40
0
 40
0
 40
1
 40
1
 40
1
 40
1
 10
187.874292
 20
-55.620200
 30
0.0
 10
187.874162
 20
-55.623927
 30
0.0
 10
187.874868
 20
-55.627635
 30
0.0
 10
187.876358
 20
-55.631054
 30
0.0
  0
SPLINE
  5
11e
100
AcDbEntity
  8
Front
 62
7
100
AcDbSpline
 70
8
 71
3
 72
8
 73
4
 74
0
 40
0
 40
0
 40
0
 40
0
 40
1
 40
1
 40
1
 40
1
 10
187.876358
 20
-55.631054
 30
0.0
 10
187.874030
 20
-56.294891
 30
0.0
 10
187.609547
 20
-56.930877
 30
0.0
 10
187.139970
 20
-57.400454
 30
0.0
  0
SPLINE
  5
11f
100
AcDbEntity
  8
Front
 62
7
100
AcDbSpline
 70
8
 71
3
 72
8
 73
4
 74
0
 40
0
 40
0
 40
0
 40
0
 40
1
 40
1
 40
1
 40
1
 10
187.139970
 20
-57.400454
 30
0.0
 10
186.670027
 20
-57.870394
 30
0.0
 10
186.032900
 20
-58.134919
 30
0.0
 10
185.368503
 20
-58.136843
 30
0.0
  0
SPLINE
  5
120
100
AcDbEntity
  8
Front
 62
7
100
AcDbSpline
 70
8
 71
3
 72
8
 73
4
 74
0
 40
0
 40
0
 40
0
 40
0
 40
1
 40
1
 40
1
 40
1
 10
185.368503
 20
-58.136843
 30
0.0
 10
185.365528
 20
-58.135740
 30
0.0
 10
185.362371
 20
-58.135214
 30
0.0
 10
185.359200
 20
-58.135292
 30
0.0
  0
LINE
  5
121
100
AcDbEntity
  8
Front
 62
7
100
AcDbLine
 10
185.359200
 20
-58.135292
 30
0.0
 11
173.294305
 21
-58.135292
 31
0.0
  0
SPLINE
  5
122
100
AcDbEntity
  8
Front
 62
7
100
AcDbSpline
 70
8
 71
3
 72
8
 73
4
 74
0
 40
0
 40
0
 40
0
 40
0
 40
1
 40
1
 40
1
 40
1
 10
173.294305
 20
-58.135292
 30
0.0
 10
173.291135
 20
-58.135215
 30
0.0
 10
173.287978
 20
-58.135741
 30
0.0
 10
173.285005
 20
-58.136843
 30
0.0
  0
SPLINE
  5
123
100
AcDbEntity
  8
Front
 62
7
100
AcDbSpline
 70
8
 71
3
 72
8
 73
4
 74
0
 40
0
 40
0
 40
0
 40
0
 40
1
 40
1
 40
1
 40
1
 10
173.285005
 20
-58.136843
 30
0.0
 10
173.285005
 20
-58.136843
 30
0.0
 10
173.284486
 20
-58.136843
 30
0.0
 10
173.284486
 20
-58.136843
 30
0.0
  0
SPLINE
  5
124
100
AcDbEntity
  8
Front
 62
7
100
AcDbSpline
 70
8
 71
3
 72
8
 73
4
 74
0
 40
0
 40
0
 40
0
 40
0
 40
1
 40
1
 40
1
 40
1
 10
173.284486
 20
-58.136843
 30
0.0
 10
172.621962
 20
-58.133562
 30
0.0
 10
171.986906
 20
-57.869172
 30
0.0
 10
171.518186
 20
-57.400454
 30
0.0
  0
SPLINE
  5
125
100
AcDbEntity
  8
Front
 62
7
100
AcDbSpline
 70
8
 71
3
 72
8
 73
4
 74
0
 40
0
 40
0
 40
0
 40
0
 40
1
 40
1
 40
1
 40
1
 10
171.518186
 20
-57.400454
 30
0.0
 10
171.046527
 20
-56.928792
 30
0.0
 10
170.781798
 20
-56.289297
 30
0.0
 10
170.781798
 20
-55.622267
 30
0.0
  0
SPLINE
  5
126
100
AcDbEntity
  8
Front
 62
7
100
AcDbSpline
 70
8
 71
3
 72
8
 73
4
 74
0
 40
0
 40
0
 40
0
 40
0
 40
1
 40
1
 40
1
 40
1
 10
170.781798
 20
-55.622267
 30
0.0
 10
170.781765
 20
-55.618502
 30
0.0
 10
170.780881
 20
-55.614792
 30
0.0
 10
170.779213
 20
-55.611416
 30
0.0
  0
LINE
  5
127
100
AcDbEntity
  8
Front
 62
7
100
AcDbLine
 10
170.779213
 20
-55.611416
 30
0.0
 11
170.779213
 21
-30.233640
 31
0.0
  0
SPLINE
  5
128
100
AcDbEntity
  8
Front
 62
7
100
AcDbSpline
 70
8
 71
3
 72
8
 73
4
 74
0
 40
0
 40
0
 40
0
 40
0
 40
1
 40
1
 40
1
 40
1
 10
170.779213
 20
-30.233640
 30
0.0
 10
170.780959
 20
-30.230107
 30
0.0
 10
170.781844
 20
-30.226211
 30
0.0
 10
170.781798
 20
-30.222271
 30
0.0
  0
SPLINE
  5
129
100
AcDbEntity
  8
Front
 62
7
100
AcDbSpline
 70
8
 71
3
 72
8
 73
4
 74
0
 40
0
 40
0
 40
0
 40
0
 40
1
 40
1
 40
1
 40
1
 10
170.781798
 20
-30.222271
 30
0.0
 10
170.781801
 20
-29.555246
 30
0.0
 10
171.046527
 20
-28.915745
 30
0.0
 10
171.518186
 20
-28.444086
 30
0.0
  0
SPLINE
  5
12a
100
AcDbEntity
  8
Front
 62
7
100
AcDbSpline
 70
8
 71
3
 72
8
 73
4
 74
0
 40
0
 40
0
 40
0
 40
0
 40
1
 40
1
 40
1
 40
1
 10
171.518186
 20
-28.444086
 30
0.0
 10
171.989846
 20
-27.972426
 30
0.0
 10
172.629862
 20
-27.707179
 30
0.0
 10
173.296890
 20
-27.707179
 30
0.0
  0
SPLINE
  5
12b
100
AcDbEntity
  8
Front
 62
7
100
AcDbSpline
 70
8
 71
3
 72
8
 73
4
 74
0
 40
0
 40
0
 40
0
 40
0
 40
1
 40
1
 40
1
 40
1
 10
173.296890
 20
-27.707179
 30
0.0
 10
173.300616
 20
-27.707308
 30
0.0
 10
173.304323
 20
-27.706602
 30
0.0
 10
173.307740
 20
-27.705113
 30
0.0
  0
LINE
  5
12c
100
AcDbEntity
  8
Front
 62
7
100
AcDbLine
 10
173.307740
 20
-27.705113
 30
0.0
 11
173.307740
 21
-27.705113
 31
0.0
  0
ENDSEC
  0
SECTION
  2
OBJECTS
  0
DICTIONARY
  5
C
330
0
100
AcDbDictionary
  3
ACAD_GROUP
350
D
  3
ACAD_MLINESTYLE
350
17
  0
DICTIONARY
  5
D
330
C
100
AcDbDictionary
  0
DICTIONARY
  5
1A
330
C
100
AcDbDictionary
  0
DICTIONARY
  5
17
330
C
100
AcDbDictionary
  3
STANDARD
350
18
  0
DICTIONARY
  5
19
330
C
100
AcDbDictionary
  0
ENDSEC
  0
EOF
