G04 #@! TF.GenerationSoftware,KiCad,Pcbnew,5.1.2*
G04 #@! TF.CreationDate,2019-07-09T20:01:06-04:00*
G04 #@! TF.ProjectId,programmer,70726f67-7261-46d6-9d65-722e6b696361,rev?*
G04 #@! TF.SameCoordinates,PX9157080PY463f660*
G04 #@! TF.FileFunction,Copper,L1,Top*
G04 #@! TF.FilePolarity,Positive*
%FSLAX46Y46*%
G04 Gerber Fmt 4.6, Leading zero omitted, Abs format (unit mm)*
G04 Created by KiCad (PCBNEW 5.1.2) date 2019-07-09 20:01:06*
%MOMM*%
%LPD*%
G04 APERTURE LIST*
%ADD10C,0.050000*%
%ADD11C,0.100000*%
%ADD12C,0.875000*%
%ADD13R,2.400000X0.740000*%
%ADD14O,1.700000X1.700000*%
%ADD15R,1.700000X1.700000*%
%ADD16C,0.500000*%
G04 APERTURE END LIST*
D10*
X17145000Y-27940000D02*
X17145000Y-2540000D01*
X2540000Y-30480000D02*
X14605000Y-30480000D01*
X0Y-2540000D02*
X0Y-27940000D01*
X14605000Y0D02*
X2540000Y0D01*
X14605000Y0D02*
G75*
G02X17145000Y-2540000I0J-2540000D01*
G01*
X17145000Y-27940000D02*
G75*
G02X14605000Y-30480000I-2540000J0D01*
G01*
X2540000Y-30480000D02*
G75*
G02X0Y-27940000I0J2540000D01*
G01*
X0Y-2540000D02*
G75*
G02X2540000Y0I2540000J0D01*
G01*
D11*
G36*
X9802691Y-8453553D02*
G01*
X9823926Y-8456703D01*
X9844750Y-8461919D01*
X9864962Y-8469151D01*
X9884368Y-8478330D01*
X9902781Y-8489366D01*
X9920024Y-8502154D01*
X9935930Y-8516570D01*
X9950346Y-8532476D01*
X9963134Y-8549719D01*
X9974170Y-8568132D01*
X9983349Y-8587538D01*
X9990581Y-8607750D01*
X9995797Y-8628574D01*
X9998947Y-8649809D01*
X10000000Y-8671250D01*
X10000000Y-9108750D01*
X9998947Y-9130191D01*
X9995797Y-9151426D01*
X9990581Y-9172250D01*
X9983349Y-9192462D01*
X9974170Y-9211868D01*
X9963134Y-9230281D01*
X9950346Y-9247524D01*
X9935930Y-9263430D01*
X9920024Y-9277846D01*
X9902781Y-9290634D01*
X9884368Y-9301670D01*
X9864962Y-9310849D01*
X9844750Y-9318081D01*
X9823926Y-9323297D01*
X9802691Y-9326447D01*
X9781250Y-9327500D01*
X9268750Y-9327500D01*
X9247309Y-9326447D01*
X9226074Y-9323297D01*
X9205250Y-9318081D01*
X9185038Y-9310849D01*
X9165632Y-9301670D01*
X9147219Y-9290634D01*
X9129976Y-9277846D01*
X9114070Y-9263430D01*
X9099654Y-9247524D01*
X9086866Y-9230281D01*
X9075830Y-9211868D01*
X9066651Y-9192462D01*
X9059419Y-9172250D01*
X9054203Y-9151426D01*
X9051053Y-9130191D01*
X9050000Y-9108750D01*
X9050000Y-8671250D01*
X9051053Y-8649809D01*
X9054203Y-8628574D01*
X9059419Y-8607750D01*
X9066651Y-8587538D01*
X9075830Y-8568132D01*
X9086866Y-8549719D01*
X9099654Y-8532476D01*
X9114070Y-8516570D01*
X9129976Y-8502154D01*
X9147219Y-8489366D01*
X9165632Y-8478330D01*
X9185038Y-8469151D01*
X9205250Y-8461919D01*
X9226074Y-8456703D01*
X9247309Y-8453553D01*
X9268750Y-8452500D01*
X9781250Y-8452500D01*
X9802691Y-8453553D01*
X9802691Y-8453553D01*
G37*
D12*
X9525000Y-8890000D03*
D11*
G36*
X9802691Y-6878553D02*
G01*
X9823926Y-6881703D01*
X9844750Y-6886919D01*
X9864962Y-6894151D01*
X9884368Y-6903330D01*
X9902781Y-6914366D01*
X9920024Y-6927154D01*
X9935930Y-6941570D01*
X9950346Y-6957476D01*
X9963134Y-6974719D01*
X9974170Y-6993132D01*
X9983349Y-7012538D01*
X9990581Y-7032750D01*
X9995797Y-7053574D01*
X9998947Y-7074809D01*
X10000000Y-7096250D01*
X10000000Y-7533750D01*
X9998947Y-7555191D01*
X9995797Y-7576426D01*
X9990581Y-7597250D01*
X9983349Y-7617462D01*
X9974170Y-7636868D01*
X9963134Y-7655281D01*
X9950346Y-7672524D01*
X9935930Y-7688430D01*
X9920024Y-7702846D01*
X9902781Y-7715634D01*
X9884368Y-7726670D01*
X9864962Y-7735849D01*
X9844750Y-7743081D01*
X9823926Y-7748297D01*
X9802691Y-7751447D01*
X9781250Y-7752500D01*
X9268750Y-7752500D01*
X9247309Y-7751447D01*
X9226074Y-7748297D01*
X9205250Y-7743081D01*
X9185038Y-7735849D01*
X9165632Y-7726670D01*
X9147219Y-7715634D01*
X9129976Y-7702846D01*
X9114070Y-7688430D01*
X9099654Y-7672524D01*
X9086866Y-7655281D01*
X9075830Y-7636868D01*
X9066651Y-7617462D01*
X9059419Y-7597250D01*
X9054203Y-7576426D01*
X9051053Y-7555191D01*
X9050000Y-7533750D01*
X9050000Y-7096250D01*
X9051053Y-7074809D01*
X9054203Y-7053574D01*
X9059419Y-7032750D01*
X9066651Y-7012538D01*
X9075830Y-6993132D01*
X9086866Y-6974719D01*
X9099654Y-6957476D01*
X9114070Y-6941570D01*
X9129976Y-6927154D01*
X9147219Y-6914366D01*
X9165632Y-6903330D01*
X9185038Y-6894151D01*
X9205250Y-6886919D01*
X9226074Y-6881703D01*
X9247309Y-6878553D01*
X9268750Y-6877500D01*
X9781250Y-6877500D01*
X9802691Y-6878553D01*
X9802691Y-6878553D01*
G37*
D12*
X9525000Y-7315000D03*
D13*
X14695000Y-17780000D03*
X10795000Y-17780000D03*
X14695000Y-16510000D03*
X10795000Y-16510000D03*
X14695000Y-15240000D03*
X10795000Y-15240000D03*
X14695000Y-13970000D03*
X10795000Y-13970000D03*
X14695000Y-12700000D03*
X10795000Y-12700000D03*
D14*
X6350000Y-26670000D03*
X3810000Y-26670000D03*
X6350000Y-24130000D03*
X3810000Y-24130000D03*
X6350000Y-21590000D03*
X3810000Y-21590000D03*
X6350000Y-19050000D03*
X3810000Y-19050000D03*
X6350000Y-16510000D03*
X3810000Y-16510000D03*
X6350000Y-13970000D03*
X3810000Y-13970000D03*
X6350000Y-11430000D03*
X3810000Y-11430000D03*
X6350000Y-8890000D03*
X3810000Y-8890000D03*
X6350000Y-6350000D03*
X3810000Y-6350000D03*
X6350000Y-3810000D03*
D15*
X3810000Y-3810000D03*
D11*
G36*
X9802691Y-3373553D02*
G01*
X9823926Y-3376703D01*
X9844750Y-3381919D01*
X9864962Y-3389151D01*
X9884368Y-3398330D01*
X9902781Y-3409366D01*
X9920024Y-3422154D01*
X9935930Y-3436570D01*
X9950346Y-3452476D01*
X9963134Y-3469719D01*
X9974170Y-3488132D01*
X9983349Y-3507538D01*
X9990581Y-3527750D01*
X9995797Y-3548574D01*
X9998947Y-3569809D01*
X10000000Y-3591250D01*
X10000000Y-4028750D01*
X9998947Y-4050191D01*
X9995797Y-4071426D01*
X9990581Y-4092250D01*
X9983349Y-4112462D01*
X9974170Y-4131868D01*
X9963134Y-4150281D01*
X9950346Y-4167524D01*
X9935930Y-4183430D01*
X9920024Y-4197846D01*
X9902781Y-4210634D01*
X9884368Y-4221670D01*
X9864962Y-4230849D01*
X9844750Y-4238081D01*
X9823926Y-4243297D01*
X9802691Y-4246447D01*
X9781250Y-4247500D01*
X9268750Y-4247500D01*
X9247309Y-4246447D01*
X9226074Y-4243297D01*
X9205250Y-4238081D01*
X9185038Y-4230849D01*
X9165632Y-4221670D01*
X9147219Y-4210634D01*
X9129976Y-4197846D01*
X9114070Y-4183430D01*
X9099654Y-4167524D01*
X9086866Y-4150281D01*
X9075830Y-4131868D01*
X9066651Y-4112462D01*
X9059419Y-4092250D01*
X9054203Y-4071426D01*
X9051053Y-4050191D01*
X9050000Y-4028750D01*
X9050000Y-3591250D01*
X9051053Y-3569809D01*
X9054203Y-3548574D01*
X9059419Y-3527750D01*
X9066651Y-3507538D01*
X9075830Y-3488132D01*
X9086866Y-3469719D01*
X9099654Y-3452476D01*
X9114070Y-3436570D01*
X9129976Y-3422154D01*
X9147219Y-3409366D01*
X9165632Y-3398330D01*
X9185038Y-3389151D01*
X9205250Y-3381919D01*
X9226074Y-3376703D01*
X9247309Y-3373553D01*
X9268750Y-3372500D01*
X9781250Y-3372500D01*
X9802691Y-3373553D01*
X9802691Y-3373553D01*
G37*
D12*
X9525000Y-3810000D03*
D11*
G36*
X9802691Y-4948553D02*
G01*
X9823926Y-4951703D01*
X9844750Y-4956919D01*
X9864962Y-4964151D01*
X9884368Y-4973330D01*
X9902781Y-4984366D01*
X9920024Y-4997154D01*
X9935930Y-5011570D01*
X9950346Y-5027476D01*
X9963134Y-5044719D01*
X9974170Y-5063132D01*
X9983349Y-5082538D01*
X9990581Y-5102750D01*
X9995797Y-5123574D01*
X9998947Y-5144809D01*
X10000000Y-5166250D01*
X10000000Y-5603750D01*
X9998947Y-5625191D01*
X9995797Y-5646426D01*
X9990581Y-5667250D01*
X9983349Y-5687462D01*
X9974170Y-5706868D01*
X9963134Y-5725281D01*
X9950346Y-5742524D01*
X9935930Y-5758430D01*
X9920024Y-5772846D01*
X9902781Y-5785634D01*
X9884368Y-5796670D01*
X9864962Y-5805849D01*
X9844750Y-5813081D01*
X9823926Y-5818297D01*
X9802691Y-5821447D01*
X9781250Y-5822500D01*
X9268750Y-5822500D01*
X9247309Y-5821447D01*
X9226074Y-5818297D01*
X9205250Y-5813081D01*
X9185038Y-5805849D01*
X9165632Y-5796670D01*
X9147219Y-5785634D01*
X9129976Y-5772846D01*
X9114070Y-5758430D01*
X9099654Y-5742524D01*
X9086866Y-5725281D01*
X9075830Y-5706868D01*
X9066651Y-5687462D01*
X9059419Y-5667250D01*
X9054203Y-5646426D01*
X9051053Y-5625191D01*
X9050000Y-5603750D01*
X9050000Y-5166250D01*
X9051053Y-5144809D01*
X9054203Y-5123574D01*
X9059419Y-5102750D01*
X9066651Y-5082538D01*
X9075830Y-5063132D01*
X9086866Y-5044719D01*
X9099654Y-5027476D01*
X9114070Y-5011570D01*
X9129976Y-4997154D01*
X9147219Y-4984366D01*
X9165632Y-4973330D01*
X9185038Y-4964151D01*
X9205250Y-4956919D01*
X9226074Y-4951703D01*
X9247309Y-4948553D01*
X9268750Y-4947500D01*
X9781250Y-4947500D01*
X9802691Y-4948553D01*
X9802691Y-4948553D01*
G37*
D12*
X9525000Y-5385000D03*
D16*
X6350000Y-3810000D02*
X9525000Y-3810000D01*
X10795000Y-12700000D02*
X10795000Y-4505000D01*
X10100000Y-3810000D02*
X9525000Y-3810000D01*
X10795000Y-4505000D02*
X10100000Y-3810000D01*
X3810000Y-3810000D02*
X6350000Y-3810000D01*
X9525000Y-5385000D02*
X9525000Y-7315000D01*
X9525000Y-8890000D02*
X6350000Y-8890000D01*
X6350000Y-6350000D02*
X6350000Y-26670000D01*
X9095000Y-17780000D02*
X8890000Y-17575000D01*
X10795000Y-17780000D02*
X9095000Y-17780000D01*
X6350000Y-13970000D02*
X8890000Y-13970000D01*
X8890000Y-13970000D02*
X10795000Y-13970000D01*
X10795000Y-15240000D02*
X8890000Y-15240000D01*
X8890000Y-17575000D02*
X8890000Y-15240000D01*
X8890000Y-15240000D02*
X8890000Y-13970000D01*
X14695000Y-18650000D02*
X14695000Y-17780000D01*
X14695000Y-20545002D02*
X14695000Y-18650000D01*
X2309999Y-27390001D02*
X3089999Y-28170001D01*
X3810000Y-21590000D02*
X2309999Y-23090001D01*
X2309999Y-23090001D02*
X2309999Y-27390001D01*
X3089999Y-28170001D02*
X7070001Y-28170001D01*
X7070001Y-28170001D02*
X14695000Y-20545002D01*
X16395000Y-15240000D02*
X14695000Y-15240000D01*
X16545001Y-15390001D02*
X16395000Y-15240000D01*
X16545001Y-19967807D02*
X16545001Y-15390001D01*
X1270000Y-21590000D02*
X1270000Y-27622808D01*
X3810000Y-19050000D02*
X1270000Y-21590000D01*
X7442798Y-29070010D02*
X16545001Y-19967807D01*
X1270000Y-27622808D02*
X2717202Y-29070010D01*
X2717202Y-29070010D02*
X7442798Y-29070010D01*
X16395000Y-13970000D02*
X14695000Y-13970000D01*
X16545001Y-13819999D02*
X16395000Y-13970000D01*
X16545001Y-6436583D02*
X16545001Y-13819999D01*
X509981Y-10669981D02*
X509981Y-1694405D01*
X3810000Y-13970000D02*
X509981Y-10669981D01*
X10618399Y-509981D02*
X16545001Y-6436583D01*
X509981Y-1694405D02*
X1694408Y-509980D01*
X1694408Y-509980D02*
X10618399Y-509981D01*
X14695000Y-11830000D02*
X14695000Y-12700000D01*
X14695000Y-5859388D02*
X14695000Y-11830000D01*
X1409989Y-9029989D02*
X1409990Y-2067202D01*
X3810000Y-11430000D02*
X1409989Y-9029989D01*
X1409990Y-2067202D02*
X2067203Y-1409989D01*
X2067203Y-1409989D02*
X10245602Y-1409990D01*
X10245602Y-1409990D02*
X14695000Y-5859388D01*
X12995000Y-16510000D02*
X14695000Y-16510000D01*
X12844999Y-16359999D02*
X12995000Y-16510000D01*
X12844999Y-5282193D02*
X12844999Y-16359999D01*
X3810000Y-8890000D02*
X2309999Y-7389999D01*
X2309999Y-7389999D02*
X2309999Y-2439999D01*
X2309999Y-2439999D02*
X2439999Y-2309999D01*
X2439999Y-2309999D02*
X9872805Y-2309999D01*
X9872805Y-2309999D02*
X12844999Y-5282193D01*
M02*
