M48
; DRILL file {KiCad 5.1.2} date Tue 09 Jul 2019 08:01:14 PM EDT
; FORMAT={-:-/ absolute / metric / decimal}
; #@! TF.CreationDate,2019-07-09T20:01:14-04:00
; #@! TF.GenerationSoftware,Kicad,Pcbnew,5.1.2
FMAT,2
METRIC
T1C1.000
%
G90
G05
T1
X3.81Y-3.81
X3.81Y-6.35
X3.81Y-8.89
X3.81Y-11.43
X3.81Y-13.97
X3.81Y-16.51
X3.81Y-19.05
X3.81Y-21.59
X3.81Y-24.13
X3.81Y-26.67
X6.35Y-3.81
X6.35Y-6.35
X6.35Y-8.89
X6.35Y-11.43
X6.35Y-13.97
X6.35Y-16.51
X6.35Y-19.05
X6.35Y-21.59
X6.35Y-24.13
X6.35Y-26.67
T0
M30
