  0
SECTION
  2
HEADER
  9
$ANGBASE
  50
0.0
  9
$ANGDIR
  70
  1
  9
$MEASUREMENT
  70
0
  0
ENDSEC
  0
SECTION
  2
TABLES
  0
TABLE
  2
LTYPE
  70
4
  0
LTYPE
  5
40F
  2
CONTINUOUS
  70
0
  3
Solid line
  72
65
  73
0
  40
0.0
  0
LTYPE
  5
410
  2
DASHDOT
 70
0
  3
Dash Dot ____ _ ____ _
 72
65
 73
4
 40
2.0
 49
1.25
 49
-0.25
 49
0.25
 49
-0.25
  0
LTYPE
  5
411
  2
DASHED
 70
0
  3
Dashed __ __ __ __ __
 72
65
 73
2
 40
0.75
 49
0.5
 49
-0.25
  0
LTYPE
  5
43B
  2
DOTTED
 70
0
  3
Dotted .  .  .  .
 72
65
 73
2
 40
0.2
 49
0.0
 49
-0.2
  0
ENDTAB
  0
TABLE
  2
STYLE
  70
4
  0
STYLE
  2
KICAD
  70
0
  40
0
  41
1
  42
1
  50
0
  71
0
  3
isocp.shx
  0
STYLE
  2
KICADB
  70
0
  40
0
  41
1
  42
1
  50
0
  71
0
  3
isocp.shx
  0
STYLE
  2
KICADI
  70
0
  40
0
  41
1
  42
1
  50
15
  71
0
  3
isocp.shx
  0
STYLE
  2
KICADBI
  70
0
  40
0
  41
1
  42
1
  50
15
  71
0
  3
isocp.shx
  0
ENDTAB
  0
TABLE
  2
LAYER
  70
30
  0
LAYER
  2
BLACK
  70
0
  62
7
  6
CONTINUOUS
  0
LAYER
  2
GRAY1
  70
0
  62
251
  6
CONTINUOUS
  0
LAYER
  2
GRAY2
  70
0
  62
8
  6
CONTINUOUS
  0
LAYER
  2
GRAY3
  70
0
  62
9
  6
CONTINUOUS
  0
LAYER
  2
WHITE
  70
0
  62
7
  6
CONTINUOUS
  0
LAYER
  2
LYELLOW
  70
0
  62
51
  6
CONTINUOUS
  0
LAYER
  2
BLUE1
  70
0
  62
178
  6
CONTINUOUS
  0
LAYER
  2
GREEN1
  70
0
  62
98
  6
CONTINUOUS
  0
LAYER
  2
CYAN1
  70
0
  62
138
  6
CONTINUOUS
  0
LAYER
  2
RED1
  70
0
  62
18
  6
CONTINUOUS
  0
LAYER
  2
MAGENTA1
  70
0
  62
228
  6
CONTINUOUS
  0
LAYER
  2
BROWN1
  70
0
  62
58
  6
CONTINUOUS
  0
LAYER
  2
BLUE2
  70
0
  62
5
  6
CONTINUOUS
  0
LAYER
  2
GREEN2
  70
0
  62
3
  6
CONTINUOUS
  0
LAYER
  2
CYAN2
  70
0
  62
4
  6
CONTINUOUS
  0
LAYER
  2
RED2
  70
0
  62
1
  6
CONTINUOUS
  0
LAYER
  2
MAGENTA2
  70
0
  62
6
  6
CONTINUOUS
  0
LAYER
  2
BROWN2
  70
0
  62
54
  6
CONTINUOUS
  0
LAYER
  2
BLUE3
  70
0
  62
171
  6
CONTINUOUS
  0
LAYER
  2
GREEN3
  70
0
  62
91
  6
CONTINUOUS
  0
LAYER
  2
CYAN3
  70
0
  62
131
  6
CONTINUOUS
  0
LAYER
  2
RED3
  70
0
  62
11
  6
CONTINUOUS
  0
LAYER
  2
MAGENTA3
  70
0
  62
221
  6
CONTINUOUS
  0
LAYER
  2
YELLOW3
  70
0
  62
2
  6
CONTINUOUS
  0
LAYER
  2
BLUE4
  70
0
  62
5
  6
CONTINUOUS
  0
LAYER
  2
GREEN4
  70
0
  62
3
  6
CONTINUOUS
  0
LAYER
  2
CYAN4
  70
0
  62
4
  6
CONTINUOUS
  0
LAYER
  2
RED4
  70
0
  62
1
  6
CONTINUOUS
  0
LAYER
  2
MAGENTA4
  70
0
  62
6
  6
CONTINUOUS
  0
LAYER
  2
YELLOW4
  70
0
  62
2
  6
CONTINUOUS
  0
ENDTAB
  0
ENDSEC
  0
SECTION
  2
ENTITIES
0
LINE
8
BLACK
6
CONTINUOUS
10
154.938
20
-104.165
11
154.938
21
-104.165
0
LINE
8
BLACK
6
CONTINUOUS
10
154.938
20
-104.165
11
154.444
21
-104.117
0
LINE
8
BLACK
6
CONTINUOUS
10
154.444
20
-104.117
11
154.444
21
-104.116
0
LINE
8
BLACK
6
CONTINUOUS
10
154.444
20
-104.116
11
154.442
21
-104.116
0
LINE
8
BLACK
6
CONTINUOUS
10
154.442
20
-104.116
11
154.439
21
-104.116
0
LINE
8
BLACK
6
CONTINUOUS
10
154.439
20
-104.116
11
153.965
21
-103.972
0
LINE
8
BLACK
6
CONTINUOUS
10
153.965
20
-103.972
11
153.965
21
-103.972
0
LINE
8
BLACK
6
CONTINUOUS
10
153.965
20
-103.972
11
153.962
21
-103.971
0
LINE
8
BLACK
6
CONTINUOUS
10
153.962
20
-103.971
11
153.96
21
-103.97
0
LINE
8
BLACK
6
CONTINUOUS
10
153.96
20
-103.97
11
153.523
21
-103.738
0
LINE
8
BLACK
6
CONTINUOUS
10
153.523
20
-103.738
11
153.522
21
-103.738
0
LINE
8
BLACK
6
CONTINUOUS
10
153.522
20
-103.738
11
153.52
21
-103.736
0
LINE
8
BLACK
6
CONTINUOUS
10
153.52
20
-103.736
11
153.519
21
-103.735
0
LINE
8
BLACK
6
CONTINUOUS
10
153.519
20
-103.735
11
153.134
21
-103.422
0
LINE
8
BLACK
6
CONTINUOUS
10
153.134
20
-103.422
11
153.134
21
-103.421
0
LINE
8
BLACK
6
CONTINUOUS
10
153.134
20
-103.421
11
153.133
21
-103.42
0
LINE
8
BLACK
6
CONTINUOUS
10
153.133
20
-103.42
11
153.131
21
-103.418
0
LINE
8
BLACK
6
CONTINUOUS
10
153.131
20
-103.418
11
152.815
21
-103.036
0
LINE
8
BLACK
6
CONTINUOUS
10
152.815
20
-103.036
11
152.815
21
-103.036
0
LINE
8
BLACK
6
CONTINUOUS
10
152.815
20
-103.036
11
152.814
21
-103.034
0
LINE
8
BLACK
6
CONTINUOUS
10
152.814
20
-103.034
11
152.812
21
-103.032
0
LINE
8
BLACK
6
CONTINUOUS
10
152.812
20
-103.032
11
152.576
21
-102.596
0
LINE
8
BLACK
6
CONTINUOUS
10
152.576
20
-102.596
11
152.576
21
-102.596
0
LINE
8
BLACK
6
CONTINUOUS
10
152.576
20
-102.596
11
152.575
21
-102.594
0
LINE
8
BLACK
6
CONTINUOUS
10
152.575
20
-102.594
11
152.575
21
-102.592
0
LINE
8
BLACK
6
CONTINUOUS
10
152.575
20
-102.592
11
152.428
21
-102.118
0
LINE
8
BLACK
6
CONTINUOUS
10
152.428
20
-102.118
11
152.428
21
-102.118
0
LINE
8
BLACK
6
CONTINUOUS
10
152.428
20
-102.118
11
152.427
21
-102.116
0
LINE
8
BLACK
6
CONTINUOUS
10
152.427
20
-102.116
11
152.427
21
-102.113
0
LINE
8
BLACK
6
CONTINUOUS
10
152.427
20
-102.113
11
152.375
21
-101.62
0
LINE
8
BLACK
6
CONTINUOUS
10
152.375
20
-101.62
11
152.375
21
-101.62
0
LINE
8
BLACK
6
CONTINUOUS
10
152.375
20
-101.62
11
152.375
21
-101.619
0
LINE
8
BLACK
6
CONTINUOUS
10
152.375
20
-101.619
11
152.375
21
-101.618
0
LINE
8
BLACK
6
CONTINUOUS
10
152.375
20
-101.618
11
152.375
21
-101.601
0
LINE
8
BLACK
6
CONTINUOUS
10
152.375
20
-101.601
11
152.375
21
-101.601
0
LINE
8
BLACK
6
CONTINUOUS
10
152.375
20
-101.601
11
152.375
21
-101.6
0
LINE
8
BLACK
6
CONTINUOUS
10
152.375
20
-101.6
11
152.375
21
-101.6
0
LINE
8
BLACK
6
CONTINUOUS
10
152.375
20
-101.6
11
152.375
21
-101.6
0
LINE
8
BLACK
6
CONTINUOUS
10
152.375
20
-101.6
11
152.375
21
-76.1988
0
LINE
8
BLACK
6
CONTINUOUS
10
152.375
20
-76.1988
11
152.375
21
-76.1976
0
LINE
8
BLACK
6
CONTINUOUS
10
152.375
20
-76.1976
11
152.375
21
-76.1976
0
LINE
8
BLACK
6
CONTINUOUS
10
152.375
20
-76.1976
11
152.423
21
-75.7042
0
LINE
8
BLACK
6
CONTINUOUS
10
152.423
20
-75.7042
11
152.424
21
-75.7039
0
LINE
8
BLACK
6
CONTINUOUS
10
152.424
20
-75.7039
11
152.424
21
-75.7016
0
LINE
8
BLACK
6
CONTINUOUS
10
152.424
20
-75.7016
11
152.424
21
-75.6994
0
LINE
8
BLACK
6
CONTINUOUS
10
152.424
20
-75.6994
11
152.568
21
-75.2249
0
LINE
8
BLACK
6
CONTINUOUS
10
152.568
20
-75.2249
11
152.568
21
-75.2245
0
LINE
8
BLACK
6
CONTINUOUS
10
152.568
20
-75.2245
11
152.569
21
-75.2224
0
LINE
8
BLACK
6
CONTINUOUS
10
152.569
20
-75.2224
11
152.57
21
-75.2203
0
LINE
8
BLACK
6
CONTINUOUS
10
152.57
20
-75.2203
11
152.802
21
-74.7826
0
LINE
8
BLACK
6
CONTINUOUS
10
152.802
20
-74.7826
11
152.802
21
-74.7826
0
LINE
8
BLACK
6
CONTINUOUS
10
152.802
20
-74.7826
11
152.802
21
-74.7826
0
LINE
8
BLACK
6
CONTINUOUS
10
152.802
20
-74.7826
11
152.802
21
-74.7823
0
LINE
8
BLACK
6
CONTINUOUS
10
152.802
20
-74.7823
11
152.804
21
-74.7805
0
LINE
8
BLACK
6
CONTINUOUS
10
152.804
20
-74.7805
11
152.805
21
-74.7786
0
LINE
8
BLACK
6
CONTINUOUS
10
152.805
20
-74.7786
11
153.118
21
-74.3944
0
LINE
8
BLACK
6
CONTINUOUS
10
153.118
20
-74.3944
11
153.118
21
-74.3944
0
LINE
8
BLACK
6
CONTINUOUS
10
153.118
20
-74.3944
11
153.118
21
-74.3944
0
LINE
8
BLACK
6
CONTINUOUS
10
153.118
20
-74.3944
11
153.119
21
-74.3942
0
LINE
8
BLACK
6
CONTINUOUS
10
153.119
20
-74.3942
11
153.12
21
-74.3926
0
LINE
8
BLACK
6
CONTINUOUS
10
153.12
20
-74.3926
11
153.122
21
-74.391
0
LINE
8
BLACK
6
CONTINUOUS
10
153.122
20
-74.391
11
153.504
21
-74.075
0
LINE
8
BLACK
6
CONTINUOUS
10
153.504
20
-74.075
11
153.504
21
-74.0748
0
LINE
8
BLACK
6
CONTINUOUS
10
153.504
20
-74.0748
11
153.506
21
-74.0735
0
LINE
8
BLACK
6
CONTINUOUS
10
153.506
20
-74.0735
11
153.508
21
-74.0723
0
LINE
8
BLACK
6
CONTINUOUS
10
153.508
20
-74.0723
11
153.944
21
-73.8365
0
LINE
8
BLACK
6
CONTINUOUS
10
153.944
20
-73.8365
11
153.944
21
-73.8365
0
LINE
8
BLACK
6
CONTINUOUS
10
153.944
20
-73.8365
11
153.944
21
-73.8365
0
LINE
8
BLACK
6
CONTINUOUS
10
153.944
20
-73.8365
11
153.944
21
-73.8363
0
LINE
8
BLACK
6
CONTINUOUS
10
153.944
20
-73.8363
11
153.946
21
-73.8355
0
LINE
8
BLACK
6
CONTINUOUS
10
153.946
20
-73.8355
11
153.948
21
-73.8346
0
LINE
8
BLACK
6
CONTINUOUS
10
153.948
20
-73.8346
11
154.422
21
-73.688
0
LINE
8
BLACK
6
CONTINUOUS
10
154.422
20
-73.688
11
154.422
21
-73.688
0
LINE
8
BLACK
6
CONTINUOUS
10
154.422
20
-73.688
11
154.422
21
-73.6879
0
LINE
8
BLACK
6
CONTINUOUS
10
154.422
20
-73.6879
11
154.424
21
-73.6875
0
LINE
8
BLACK
6
CONTINUOUS
10
154.424
20
-73.6875
11
154.427
21
-73.687
0
LINE
8
BLACK
6
CONTINUOUS
10
154.427
20
-73.687
11
154.92
21
-73.6352
0
LINE
8
BLACK
6
CONTINUOUS
10
154.92
20
-73.6352
11
154.92
21
-73.6352
0
LINE
8
BLACK
6
CONTINUOUS
10
154.92
20
-73.6352
11
154.921
21
-73.6352
0
LINE
8
BLACK
6
CONTINUOUS
10
154.921
20
-73.6352
11
154.922
21
-73.6351
0
LINE
8
BLACK
6
CONTINUOUS
10
154.922
20
-73.6351
11
154.939
21
-73.635
0
LINE
8
BLACK
6
CONTINUOUS
10
154.939
20
-73.635
11
154.939
21
-73.635
0
LINE
8
BLACK
6
CONTINUOUS
10
154.939
20
-73.635
11
167.006
21
-73.635
0
LINE
8
BLACK
6
CONTINUOUS
10
167.006
20
-73.635
11
167.007
21
-73.6351
0
LINE
8
BLACK
6
CONTINUOUS
10
167.007
20
-73.6351
11
167.007
21
-73.6351
0
LINE
8
BLACK
6
CONTINUOUS
10
167.007
20
-73.6351
11
167.501
21
-73.6835
0
LINE
8
BLACK
6
CONTINUOUS
10
167.501
20
-73.6835
11
167.501
21
-73.6835
0
LINE
8
BLACK
6
CONTINUOUS
10
167.501
20
-73.6835
11
167.503
21
-73.684
0
LINE
8
BLACK
6
CONTINUOUS
10
167.503
20
-73.684
11
167.506
21
-73.6844
0
LINE
8
BLACK
6
CONTINUOUS
10
167.506
20
-73.6844
11
167.98
21
-73.8277
0
LINE
8
BLACK
6
CONTINUOUS
10
167.98
20
-73.8277
11
167.98
21
-73.8278
0
LINE
8
BLACK
6
CONTINUOUS
10
167.98
20
-73.8278
11
167.983
21
-73.8287
0
LINE
8
BLACK
6
CONTINUOUS
10
167.983
20
-73.8287
11
167.985
21
-73.8296
0
LINE
8
BLACK
6
CONTINUOUS
10
167.985
20
-73.8296
11
168.422
21
-74.0623
0
LINE
8
BLACK
6
CONTINUOUS
10
168.422
20
-74.0623
11
168.422
21
-74.0623
0
LINE
8
BLACK
6
CONTINUOUS
10
168.422
20
-74.0623
11
168.422
21
-74.0623
0
LINE
8
BLACK
6
CONTINUOUS
10
168.422
20
-74.0623
11
168.423
21
-74.0625
0
LINE
8
BLACK
6
CONTINUOUS
10
168.423
20
-74.0625
11
168.425
21
-74.0637
0
LINE
8
BLACK
6
CONTINUOUS
10
168.425
20
-74.0637
11
168.426
21
-74.065
0
LINE
8
BLACK
6
CONTINUOUS
10
168.426
20
-74.065
11
168.811
21
-74.3783
0
LINE
8
BLACK
6
CONTINUOUS
10
168.811
20
-74.3783
11
168.811
21
-74.3783
0
LINE
8
BLACK
6
CONTINUOUS
10
168.811
20
-74.3783
11
168.811
21
-74.3783
0
LINE
8
BLACK
6
CONTINUOUS
10
168.811
20
-74.3783
11
168.811
21
-74.3785
0
LINE
8
BLACK
6
CONTINUOUS
10
168.811
20
-74.3785
11
168.812
21
-74.3801
0
LINE
8
BLACK
6
CONTINUOUS
10
168.812
20
-74.3801
11
168.814
21
-74.3818
0
LINE
8
BLACK
6
CONTINUOUS
10
168.814
20
-74.3818
11
169.13
21
-74.7637
0
LINE
8
BLACK
6
CONTINUOUS
10
169.13
20
-74.7637
11
169.13
21
-74.764
0
LINE
8
BLACK
6
CONTINUOUS
10
169.13
20
-74.764
11
169.131
21
-74.7659
0
LINE
8
BLACK
6
CONTINUOUS
10
169.131
20
-74.7659
11
169.133
21
-74.7678
0
LINE
8
BLACK
6
CONTINUOUS
10
169.133
20
-74.7678
11
169.369
21
-75.2038
0
LINE
8
BLACK
6
CONTINUOUS
10
169.369
20
-75.2038
11
169.369
21
-75.2038
0
LINE
8
BLACK
6
CONTINUOUS
10
169.369
20
-75.2038
11
169.369
21
-75.2038
0
LINE
8
BLACK
6
CONTINUOUS
10
169.369
20
-75.2038
11
169.369
21
-75.2041
0
LINE
8
BLACK
6
CONTINUOUS
10
169.369
20
-75.2041
11
169.37
21
-75.2062
0
LINE
8
BLACK
6
CONTINUOUS
10
169.37
20
-75.2062
11
169.37
21
-75.2083
0
LINE
8
BLACK
6
CONTINUOUS
10
169.37
20
-75.2083
11
169.517
21
-75.6819
0
LINE
8
BLACK
6
CONTINUOUS
10
169.517
20
-75.6819
11
169.517
21
-75.6822
0
LINE
8
BLACK
6
CONTINUOUS
10
169.517
20
-75.6822
11
169.518
21
-75.6845
0
LINE
8
BLACK
6
CONTINUOUS
10
169.518
20
-75.6845
11
169.518
21
-75.6866
0
LINE
8
BLACK
6
CONTINUOUS
10
169.518
20
-75.6866
11
169.57
21
-76.1797
0
LINE
8
BLACK
6
CONTINUOUS
10
169.57
20
-76.1797
11
169.57
21
-76.18
0
LINE
8
BLACK
6
CONTINUOUS
10
169.57
20
-76.18
11
169.57
21
-76.1811
0
LINE
8
BLACK
6
CONTINUOUS
10
169.57
20
-76.1811
11
169.57
21
-76.1822
0
LINE
8
BLACK
6
CONTINUOUS
10
169.57
20
-76.1822
11
169.57
21
-76.1987
0
LINE
8
BLACK
6
CONTINUOUS
10
169.57
20
-76.1987
11
169.57
21
-76.1988
0
LINE
8
BLACK
6
CONTINUOUS
10
169.57
20
-76.1988
11
169.57
21
-101.601
0
LINE
8
BLACK
6
CONTINUOUS
10
169.57
20
-101.601
11
169.57
21
-101.602
0
LINE
8
BLACK
6
CONTINUOUS
10
169.57
20
-101.602
11
169.57
21
-101.602
0
LINE
8
BLACK
6
CONTINUOUS
10
169.57
20
-101.602
11
169.522
21
-102.096
0
LINE
8
BLACK
6
CONTINUOUS
10
169.522
20
-102.096
11
169.521
21
-102.096
0
LINE
8
BLACK
6
CONTINUOUS
10
169.521
20
-102.096
11
169.521
21
-102.098
0
LINE
8
BLACK
6
CONTINUOUS
10
169.521
20
-102.098
11
169.521
21
-102.101
0
LINE
8
BLACK
6
CONTINUOUS
10
169.521
20
-102.101
11
169.377
21
-102.575
0
LINE
8
BLACK
6
CONTINUOUS
10
169.377
20
-102.575
11
169.377
21
-102.575
0
LINE
8
BLACK
6
CONTINUOUS
10
169.377
20
-102.575
11
169.376
21
-102.578
0
LINE
8
BLACK
6
CONTINUOUS
10
169.376
20
-102.578
11
169.375
21
-102.58
0
LINE
8
BLACK
6
CONTINUOUS
10
169.375
20
-102.58
11
169.143
21
-103.017
0
LINE
8
BLACK
6
CONTINUOUS
10
169.143
20
-103.017
11
169.143
21
-103.018
0
LINE
8
BLACK
6
CONTINUOUS
10
169.143
20
-103.018
11
169.141
21
-103.02
0
LINE
8
BLACK
6
CONTINUOUS
10
169.141
20
-103.02
11
169.14
21
-103.021
0
LINE
8
BLACK
6
CONTINUOUS
10
169.14
20
-103.021
11
168.827
21
-103.406
0
LINE
8
BLACK
6
CONTINUOUS
10
168.827
20
-103.406
11
168.826
21
-103.406
0
LINE
8
BLACK
6
CONTINUOUS
10
168.826
20
-103.406
11
168.825
21
-103.407
0
LINE
8
BLACK
6
CONTINUOUS
10
168.825
20
-103.407
11
168.823
21
-103.409
0
LINE
8
BLACK
6
CONTINUOUS
10
168.823
20
-103.409
11
168.441
21
-103.725
0
LINE
8
BLACK
6
CONTINUOUS
10
168.441
20
-103.725
11
168.441
21
-103.725
0
LINE
8
BLACK
6
CONTINUOUS
10
168.441
20
-103.725
11
168.439
21
-103.726
0
LINE
8
BLACK
6
CONTINUOUS
10
168.439
20
-103.726
11
168.437
21
-103.728
0
LINE
8
BLACK
6
CONTINUOUS
10
168.437
20
-103.728
11
168.001
21
-103.964
0
LINE
8
BLACK
6
CONTINUOUS
10
168.001
20
-103.964
11
168.001
21
-103.964
0
LINE
8
BLACK
6
CONTINUOUS
10
168.001
20
-103.964
11
167.999
21
-103.965
0
LINE
8
BLACK
6
CONTINUOUS
10
167.999
20
-103.965
11
167.997
21
-103.965
0
LINE
8
BLACK
6
CONTINUOUS
10
167.997
20
-103.965
11
167.523
21
-104.112
0
LINE
8
BLACK
6
CONTINUOUS
10
167.523
20
-104.112
11
167.523
21
-104.112
0
LINE
8
BLACK
6
CONTINUOUS
10
167.523
20
-104.112
11
167.521
21
-104.113
0
LINE
8
BLACK
6
CONTINUOUS
10
167.521
20
-104.113
11
167.518
21
-104.113
0
LINE
8
BLACK
6
CONTINUOUS
10
167.518
20
-104.113
11
167.025
21
-104.165
0
LINE
8
BLACK
6
CONTINUOUS
10
167.025
20
-104.165
11
167.025
21
-104.165
0
LINE
8
BLACK
6
CONTINUOUS
10
167.025
20
-104.165
11
167.024
21
-104.165
0
LINE
8
BLACK
6
CONTINUOUS
10
167.024
20
-104.165
11
167.023
21
-104.165
0
LINE
8
BLACK
6
CONTINUOUS
10
167.023
20
-104.165
11
167.006
21
-104.165
0
LINE
8
BLACK
6
CONTINUOUS
10
167.006
20
-104.165
11
167.006
21
-104.165
0
LINE
8
BLACK
6
CONTINUOUS
10
167.006
20
-104.165
11
154.939
21
-104.165
0
LINE
8
BLACK
6
CONTINUOUS
10
154.939
20
-104.165
11
154.938
21
-104.165
0
LINE
8
BLACK
6
CONTINUOUS
10
154.94
20
-73.685
11
154.924
21
-73.6851
0
LINE
8
BLACK
6
CONTINUOUS
10
154.924
20
-73.6851
11
154.434
21
-73.7365
0
LINE
8
BLACK
6
CONTINUOUS
10
154.434
20
-73.7365
11
153.965
21
-73.8816
0
LINE
8
BLACK
6
CONTINUOUS
10
153.965
20
-73.8816
11
153.534
21
-74.1151
0
LINE
8
BLACK
6
CONTINUOUS
10
153.534
20
-74.1151
11
153.156
21
-74.4279
0
LINE
8
BLACK
6
CONTINUOUS
10
153.156
20
-74.4279
11
152.845
21
-74.8083
0
LINE
8
BLACK
6
CONTINUOUS
10
152.845
20
-74.8083
11
152.615
21
-75.2417
0
LINE
8
BLACK
6
CONTINUOUS
10
152.615
20
-75.2417
11
152.473
21
-75.7115
0
LINE
8
BLACK
6
CONTINUOUS
10
152.473
20
-75.7115
11
152.425
21
-76.2012
0
LINE
8
BLACK
6
CONTINUOUS
10
152.425
20
-76.2012
11
152.425
21
-101.6
0
LINE
8
BLACK
6
CONTINUOUS
10
152.425
20
-101.6
11
152.425
21
-101.616
0
LINE
8
BLACK
6
CONTINUOUS
10
152.425
20
-101.616
11
152.476
21
-102.106
0
LINE
8
BLACK
6
CONTINUOUS
10
152.476
20
-102.106
11
152.622
21
-102.575
0
LINE
8
BLACK
6
CONTINUOUS
10
152.622
20
-102.575
11
152.855
21
-103.006
0
LINE
8
BLACK
6
CONTINUOUS
10
152.855
20
-103.006
11
153.168
21
-103.384
0
LINE
8
BLACK
6
CONTINUOUS
10
153.168
20
-103.384
11
153.548
21
-103.695
0
LINE
8
BLACK
6
CONTINUOUS
10
153.548
20
-103.695
11
153.982
21
-103.925
0
LINE
8
BLACK
6
CONTINUOUS
10
153.982
20
-103.925
11
154.452
21
-104.067
0
LINE
8
BLACK
6
CONTINUOUS
10
154.452
20
-104.067
11
154.941
21
-104.115
0
LINE
8
BLACK
6
CONTINUOUS
10
154.941
20
-104.115
11
167.005
21
-104.115
0
LINE
8
BLACK
6
CONTINUOUS
10
167.005
20
-104.115
11
167.021
21
-104.115
0
LINE
8
BLACK
6
CONTINUOUS
10
167.021
20
-104.115
11
167.511
21
-104.064
0
LINE
8
BLACK
6
CONTINUOUS
10
167.511
20
-104.064
11
167.98
21
-103.918
0
LINE
8
BLACK
6
CONTINUOUS
10
167.98
20
-103.918
11
168.411
21
-103.685
0
LINE
8
BLACK
6
CONTINUOUS
10
168.411
20
-103.685
11
168.789
21
-103.372
0
LINE
8
BLACK
6
CONTINUOUS
10
168.789
20
-103.372
11
169.1
21
-102.992
0
LINE
8
BLACK
6
CONTINUOUS
10
169.1
20
-102.992
11
169.33
21
-102.558
0
LINE
8
BLACK
6
CONTINUOUS
10
169.33
20
-102.558
11
169.472
21
-102.088
0
LINE
8
BLACK
6
CONTINUOUS
10
169.472
20
-102.088
11
169.52
21
-101.599
0
LINE
8
BLACK
6
CONTINUOUS
10
169.52
20
-101.599
11
169.52
21
-76.2001
0
LINE
8
BLACK
6
CONTINUOUS
10
169.52
20
-76.2001
11
169.52
21
-76.2001
0
LINE
8
BLACK
6
CONTINUOUS
10
169.52
20
-76.2001
11
169.52
21
-76.1836
0
LINE
8
BLACK
6
CONTINUOUS
10
169.52
20
-76.1836
11
169.469
21
-75.6943
0
LINE
8
BLACK
6
CONTINUOUS
10
169.469
20
-75.6943
11
169.323
21
-75.2254
0
LINE
8
BLACK
6
CONTINUOUS
10
169.323
20
-75.2254
11
169.09
21
-74.7937
0
LINE
8
BLACK
6
CONTINUOUS
10
169.09
20
-74.7937
11
168.777
21
-74.4155
0
LINE
8
BLACK
6
CONTINUOUS
10
168.777
20
-74.4155
11
168.397
21
-74.1053
0
LINE
8
BLACK
6
CONTINUOUS
10
168.397
20
-74.1053
11
167.963
21
-73.8749
0
LINE
8
BLACK
6
CONTINUOUS
10
167.963
20
-73.8749
11
167.493
21
-73.733
0
LINE
8
BLACK
6
CONTINUOUS
10
167.493
20
-73.733
11
167.004
21
-73.685
0
LINE
8
BLACK
6
CONTINUOUS
10
167.004
20
-73.685
11
154.94
21
-73.685
0
CIRCLE
8
BLACK
10
158.75
20
-100.33
40
0.5
0
CIRCLE
8
BLACK
10
156.21
20
-100.33
40
0.5
0
CIRCLE
8
BLACK
10
158.75
20
-97.79
40
0.5
0
CIRCLE
8
BLACK
10
156.21
20
-97.79
40
0.5
0
CIRCLE
8
BLACK
10
158.75
20
-95.25
40
0.5
0
CIRCLE
8
BLACK
10
156.21
20
-95.25
40
0.5
0
CIRCLE
8
BLACK
10
158.75
20
-92.71
40
0.5
0
CIRCLE
8
BLACK
10
156.21
20
-92.71
40
0.5
0
CIRCLE
8
BLACK
10
158.75
20
-90.17
40
0.5
0
CIRCLE
8
BLACK
10
156.21
20
-90.17
40
0.5
0
CIRCLE
8
BLACK
10
158.75
20
-87.63
40
0.5
0
CIRCLE
8
BLACK
10
156.21
20
-87.63
40
0.5
0
CIRCLE
8
BLACK
10
158.75
20
-85.09
40
0.5
0
CIRCLE
8
BLACK
10
156.21
20
-85.09
40
0.5
0
CIRCLE
8
BLACK
10
158.75
20
-82.55
40
0.5
0
CIRCLE
8
BLACK
10
156.21
20
-82.55
40
0.5
0
CIRCLE
8
BLACK
10
158.75
20
-80.01
40
0.5
0
CIRCLE
8
BLACK
10
156.21
20
-80.01
40
0.5
0
CIRCLE
8
BLACK
10
158.75
20
-77.47
40
0.5
0
CIRCLE
8
BLACK
10
156.21
20
-77.47
40
0.5
0
LINE
8
BLACK
6
CONTINUOUS
10
156.377
20
-99.4923
11
156.537
21
-99.5409
0
LINE
8
BLACK
6
CONTINUOUS
10
156.537
20
-99.5409
11
156.685
21
-99.6198
0
LINE
8
BLACK
6
CONTINUOUS
10
156.685
20
-99.6198
11
156.814
21
-99.7261
0
LINE
8
BLACK
6
CONTINUOUS
10
156.814
20
-99.7261
11
156.92
21
-99.8555
0
LINE
8
BLACK
6
CONTINUOUS
10
156.92
20
-99.8555
11
156.999
21
-100.003
0
LINE
8
BLACK
6
CONTINUOUS
10
156.999
20
-100.003
11
157.048
21
-100.163
0
LINE
8
BLACK
6
CONTINUOUS
10
157.048
20
-100.163
11
157.064
21
-100.33
0
LINE
8
BLACK
6
CONTINUOUS
10
157.064
20
-100.33
11
157.048
21
-100.497
0
LINE
8
BLACK
6
CONTINUOUS
10
157.048
20
-100.497
11
156.999
21
-100.657
0
LINE
8
BLACK
6
CONTINUOUS
10
156.999
20
-100.657
11
156.92
21
-100.805
0
LINE
8
BLACK
6
CONTINUOUS
10
156.92
20
-100.805
11
156.814
21
-100.934
0
LINE
8
BLACK
6
CONTINUOUS
10
156.814
20
-100.934
11
156.685
21
-101.04
0
LINE
8
BLACK
6
CONTINUOUS
10
156.685
20
-101.04
11
156.537
21
-101.119
0
LINE
8
BLACK
6
CONTINUOUS
10
156.537
20
-101.119
11
156.377
21
-101.168
0
LINE
8
BLACK
6
CONTINUOUS
10
156.377
20
-101.168
11
156.252
21
-101.18
0
LINE
8
BLACK
6
CONTINUOUS
10
156.252
20
-101.18
11
156.168
21
-101.18
0
LINE
8
BLACK
6
CONTINUOUS
10
156.168
20
-101.18
11
156.043
21
-101.168
0
LINE
8
BLACK
6
CONTINUOUS
10
156.043
20
-101.168
11
155.883
21
-101.119
0
LINE
8
BLACK
6
CONTINUOUS
10
155.883
20
-101.119
11
155.735
21
-101.04
0
LINE
8
BLACK
6
CONTINUOUS
10
155.735
20
-101.04
11
155.606
21
-100.934
0
LINE
8
BLACK
6
CONTINUOUS
10
155.606
20
-100.934
11
155.5
21
-100.805
0
LINE
8
BLACK
6
CONTINUOUS
10
155.5
20
-100.805
11
155.421
21
-100.657
0
LINE
8
BLACK
6
CONTINUOUS
10
155.421
20
-100.657
11
155.372
21
-100.497
0
LINE
8
BLACK
6
CONTINUOUS
10
155.372
20
-100.497
11
155.356
21
-100.33
0
LINE
8
BLACK
6
CONTINUOUS
10
155.356
20
-100.33
11
155.372
21
-100.163
0
LINE
8
BLACK
6
CONTINUOUS
10
155.372
20
-100.163
11
155.421
21
-100.003
0
LINE
8
BLACK
6
CONTINUOUS
10
155.421
20
-100.003
11
155.5
21
-99.8555
0
LINE
8
BLACK
6
CONTINUOUS
10
155.5
20
-99.8555
11
155.606
21
-99.7261
0
LINE
8
BLACK
6
CONTINUOUS
10
155.606
20
-99.7261
11
155.735
21
-99.6198
0
LINE
8
BLACK
6
CONTINUOUS
10
155.735
20
-99.6198
11
155.883
21
-99.5409
0
LINE
8
BLACK
6
CONTINUOUS
10
155.883
20
-99.5409
11
156.043
21
-99.4923
0
LINE
8
BLACK
6
CONTINUOUS
10
156.043
20
-99.4923
11
156.168
21
-99.48
0
LINE
8
BLACK
6
CONTINUOUS
10
156.168
20
-99.48
11
156.252
21
-99.48
0
LINE
8
BLACK
6
CONTINUOUS
10
156.252
20
-99.48
11
156.377
21
-99.4923
0
LINE
8
BLACK
6
CONTINUOUS
10
158.917
20
-99.4923
11
159.077
21
-99.5409
0
LINE
8
BLACK
6
CONTINUOUS
10
159.077
20
-99.5409
11
159.225
21
-99.6198
0
LINE
8
BLACK
6
CONTINUOUS
10
159.225
20
-99.6198
11
159.354
21
-99.7261
0
LINE
8
BLACK
6
CONTINUOUS
10
159.354
20
-99.7261
11
159.46
21
-99.8555
0
LINE
8
BLACK
6
CONTINUOUS
10
159.46
20
-99.8555
11
159.539
21
-100.003
0
LINE
8
BLACK
6
CONTINUOUS
10
159.539
20
-100.003
11
159.588
21
-100.163
0
LINE
8
BLACK
6
CONTINUOUS
10
159.588
20
-100.163
11
159.604
21
-100.33
0
LINE
8
BLACK
6
CONTINUOUS
10
159.604
20
-100.33
11
159.588
21
-100.497
0
LINE
8
BLACK
6
CONTINUOUS
10
159.588
20
-100.497
11
159.539
21
-100.657
0
LINE
8
BLACK
6
CONTINUOUS
10
159.539
20
-100.657
11
159.46
21
-100.805
0
LINE
8
BLACK
6
CONTINUOUS
10
159.46
20
-100.805
11
159.354
21
-100.934
0
LINE
8
BLACK
6
CONTINUOUS
10
159.354
20
-100.934
11
159.225
21
-101.04
0
LINE
8
BLACK
6
CONTINUOUS
10
159.225
20
-101.04
11
159.077
21
-101.119
0
LINE
8
BLACK
6
CONTINUOUS
10
159.077
20
-101.119
11
158.917
21
-101.168
0
LINE
8
BLACK
6
CONTINUOUS
10
158.917
20
-101.168
11
158.792
21
-101.18
0
LINE
8
BLACK
6
CONTINUOUS
10
158.792
20
-101.18
11
158.708
21
-101.18
0
LINE
8
BLACK
6
CONTINUOUS
10
158.708
20
-101.18
11
158.583
21
-101.168
0
LINE
8
BLACK
6
CONTINUOUS
10
158.583
20
-101.168
11
158.423
21
-101.119
0
LINE
8
BLACK
6
CONTINUOUS
10
158.423
20
-101.119
11
158.275
21
-101.04
0
LINE
8
BLACK
6
CONTINUOUS
10
158.275
20
-101.04
11
158.146
21
-100.934
0
LINE
8
BLACK
6
CONTINUOUS
10
158.146
20
-100.934
11
158.04
21
-100.805
0
LINE
8
BLACK
6
CONTINUOUS
10
158.04
20
-100.805
11
157.961
21
-100.657
0
LINE
8
BLACK
6
CONTINUOUS
10
157.961
20
-100.657
11
157.912
21
-100.497
0
LINE
8
BLACK
6
CONTINUOUS
10
157.912
20
-100.497
11
157.896
21
-100.33
0
LINE
8
BLACK
6
CONTINUOUS
10
157.896
20
-100.33
11
157.912
21
-100.163
0
LINE
8
BLACK
6
CONTINUOUS
10
157.912
20
-100.163
11
157.961
21
-100.003
0
LINE
8
BLACK
6
CONTINUOUS
10
157.961
20
-100.003
11
158.04
21
-99.8555
0
LINE
8
BLACK
6
CONTINUOUS
10
158.04
20
-99.8555
11
158.146
21
-99.7261
0
LINE
8
BLACK
6
CONTINUOUS
10
158.146
20
-99.7261
11
158.275
21
-99.6198
0
LINE
8
BLACK
6
CONTINUOUS
10
158.275
20
-99.6198
11
158.423
21
-99.5409
0
LINE
8
BLACK
6
CONTINUOUS
10
158.423
20
-99.5409
11
158.583
21
-99.4923
0
LINE
8
BLACK
6
CONTINUOUS
10
158.583
20
-99.4923
11
158.708
21
-99.48
0
LINE
8
BLACK
6
CONTINUOUS
10
158.708
20
-99.48
11
158.792
21
-99.48
0
LINE
8
BLACK
6
CONTINUOUS
10
158.792
20
-99.48
11
158.917
21
-99.4923
0
LINE
8
BLACK
6
CONTINUOUS
10
158.917
20
-96.9523
11
159.077
21
-97.0009
0
LINE
8
BLACK
6
CONTINUOUS
10
159.077
20
-97.0009
11
159.225
21
-97.0798
0
LINE
8
BLACK
6
CONTINUOUS
10
159.225
20
-97.0798
11
159.354
21
-97.1861
0
LINE
8
BLACK
6
CONTINUOUS
10
159.354
20
-97.1861
11
159.46
21
-97.3155
0
LINE
8
BLACK
6
CONTINUOUS
10
159.46
20
-97.3155
11
159.539
21
-97.4631
0
LINE
8
BLACK
6
CONTINUOUS
10
159.539
20
-97.4631
11
159.588
21
-97.6234
0
LINE
8
BLACK
6
CONTINUOUS
10
159.588
20
-97.6234
11
159.604
21
-97.79
0
LINE
8
BLACK
6
CONTINUOUS
10
159.604
20
-97.79
11
159.588
21
-97.9566
0
LINE
8
BLACK
6
CONTINUOUS
10
159.588
20
-97.9566
11
159.539
21
-98.1169
0
LINE
8
BLACK
6
CONTINUOUS
10
159.539
20
-98.1169
11
159.46
21
-98.2645
0
LINE
8
BLACK
6
CONTINUOUS
10
159.46
20
-98.2645
11
159.354
21
-98.3939
0
LINE
8
BLACK
6
CONTINUOUS
10
159.354
20
-98.3939
11
159.225
21
-98.5002
0
LINE
8
BLACK
6
CONTINUOUS
10
159.225
20
-98.5002
11
159.077
21
-98.5791
0
LINE
8
BLACK
6
CONTINUOUS
10
159.077
20
-98.5791
11
158.917
21
-98.6277
0
LINE
8
BLACK
6
CONTINUOUS
10
158.917
20
-98.6277
11
158.792
21
-98.64
0
LINE
8
BLACK
6
CONTINUOUS
10
158.792
20
-98.64
11
158.708
21
-98.64
0
LINE
8
BLACK
6
CONTINUOUS
10
158.708
20
-98.64
11
158.583
21
-98.6277
0
LINE
8
BLACK
6
CONTINUOUS
10
158.583
20
-98.6277
11
158.423
21
-98.5791
0
LINE
8
BLACK
6
CONTINUOUS
10
158.423
20
-98.5791
11
158.275
21
-98.5002
0
LINE
8
BLACK
6
CONTINUOUS
10
158.275
20
-98.5002
11
158.146
21
-98.3939
0
LINE
8
BLACK
6
CONTINUOUS
10
158.146
20
-98.3939
11
158.04
21
-98.2645
0
LINE
8
BLACK
6
CONTINUOUS
10
158.04
20
-98.2645
11
157.961
21
-98.1169
0
LINE
8
BLACK
6
CONTINUOUS
10
157.961
20
-98.1169
11
157.912
21
-97.9566
0
LINE
8
BLACK
6
CONTINUOUS
10
157.912
20
-97.9566
11
157.896
21
-97.79
0
LINE
8
BLACK
6
CONTINUOUS
10
157.896
20
-97.79
11
157.912
21
-97.6234
0
LINE
8
BLACK
6
CONTINUOUS
10
157.912
20
-97.6234
11
157.961
21
-97.4631
0
LINE
8
BLACK
6
CONTINUOUS
10
157.961
20
-97.4631
11
158.04
21
-97.3155
0
LINE
8
BLACK
6
CONTINUOUS
10
158.04
20
-97.3155
11
158.146
21
-97.1861
0
LINE
8
BLACK
6
CONTINUOUS
10
158.146
20
-97.1861
11
158.275
21
-97.0798
0
LINE
8
BLACK
6
CONTINUOUS
10
158.275
20
-97.0798
11
158.423
21
-97.0009
0
LINE
8
BLACK
6
CONTINUOUS
10
158.423
20
-97.0009
11
158.583
21
-96.9523
0
LINE
8
BLACK
6
CONTINUOUS
10
158.583
20
-96.9523
11
158.708
21
-96.94
0
LINE
8
BLACK
6
CONTINUOUS
10
158.708
20
-96.94
11
158.792
21
-96.94
0
LINE
8
BLACK
6
CONTINUOUS
10
158.792
20
-96.94
11
158.917
21
-96.9523
0
LINE
8
BLACK
6
CONTINUOUS
10
156.377
20
-96.9523
11
156.537
21
-97.0009
0
LINE
8
BLACK
6
CONTINUOUS
10
156.537
20
-97.0009
11
156.685
21
-97.0798
0
LINE
8
BLACK
6
CONTINUOUS
10
156.685
20
-97.0798
11
156.814
21
-97.1861
0
LINE
8
BLACK
6
CONTINUOUS
10
156.814
20
-97.1861
11
156.92
21
-97.3155
0
LINE
8
BLACK
6
CONTINUOUS
10
156.92
20
-97.3155
11
156.999
21
-97.4631
0
LINE
8
BLACK
6
CONTINUOUS
10
156.999
20
-97.4631
11
157.048
21
-97.6234
0
LINE
8
BLACK
6
CONTINUOUS
10
157.048
20
-97.6234
11
157.064
21
-97.79
0
LINE
8
BLACK
6
CONTINUOUS
10
157.064
20
-97.79
11
157.048
21
-97.9566
0
LINE
8
BLACK
6
CONTINUOUS
10
157.048
20
-97.9566
11
156.999
21
-98.1169
0
LINE
8
BLACK
6
CONTINUOUS
10
156.999
20
-98.1169
11
156.92
21
-98.2645
0
LINE
8
BLACK
6
CONTINUOUS
10
156.92
20
-98.2645
11
156.814
21
-98.3939
0
LINE
8
BLACK
6
CONTINUOUS
10
156.814
20
-98.3939
11
156.685
21
-98.5002
0
LINE
8
BLACK
6
CONTINUOUS
10
156.685
20
-98.5002
11
156.537
21
-98.5791
0
LINE
8
BLACK
6
CONTINUOUS
10
156.537
20
-98.5791
11
156.377
21
-98.6277
0
LINE
8
BLACK
6
CONTINUOUS
10
156.377
20
-98.6277
11
156.252
21
-98.64
0
LINE
8
BLACK
6
CONTINUOUS
10
156.252
20
-98.64
11
156.168
21
-98.64
0
LINE
8
BLACK
6
CONTINUOUS
10
156.168
20
-98.64
11
156.043
21
-98.6277
0
LINE
8
BLACK
6
CONTINUOUS
10
156.043
20
-98.6277
11
155.883
21
-98.5791
0
LINE
8
BLACK
6
CONTINUOUS
10
155.883
20
-98.5791
11
155.735
21
-98.5002
0
LINE
8
BLACK
6
CONTINUOUS
10
155.735
20
-98.5002
11
155.606
21
-98.3939
0
LINE
8
BLACK
6
CONTINUOUS
10
155.606
20
-98.3939
11
155.5
21
-98.2645
0
LINE
8
BLACK
6
CONTINUOUS
10
155.5
20
-98.2645
11
155.421
21
-98.1169
0
LINE
8
BLACK
6
CONTINUOUS
10
155.421
20
-98.1169
11
155.372
21
-97.9566
0
LINE
8
BLACK
6
CONTINUOUS
10
155.372
20
-97.9566
11
155.356
21
-97.79
0
LINE
8
BLACK
6
CONTINUOUS
10
155.356
20
-97.79
11
155.372
21
-97.6234
0
LINE
8
BLACK
6
CONTINUOUS
10
155.372
20
-97.6234
11
155.421
21
-97.4631
0
LINE
8
BLACK
6
CONTINUOUS
10
155.421
20
-97.4631
11
155.5
21
-97.3155
0
LINE
8
BLACK
6
CONTINUOUS
10
155.5
20
-97.3155
11
155.606
21
-97.1861
0
LINE
8
BLACK
6
CONTINUOUS
10
155.606
20
-97.1861
11
155.735
21
-97.0798
0
LINE
8
BLACK
6
CONTINUOUS
10
155.735
20
-97.0798
11
155.883
21
-97.0009
0
LINE
8
BLACK
6
CONTINUOUS
10
155.883
20
-97.0009
11
156.043
21
-96.9523
0
LINE
8
BLACK
6
CONTINUOUS
10
156.043
20
-96.9523
11
156.168
21
-96.94
0
LINE
8
BLACK
6
CONTINUOUS
10
156.168
20
-96.94
11
156.252
21
-96.94
0
LINE
8
BLACK
6
CONTINUOUS
10
156.252
20
-96.94
11
156.377
21
-96.9523
0
LINE
8
BLACK
6
CONTINUOUS
10
158.917
20
-94.4123
11
159.077
21
-94.4609
0
LINE
8
BLACK
6
CONTINUOUS
10
159.077
20
-94.4609
11
159.225
21
-94.5398
0
LINE
8
BLACK
6
CONTINUOUS
10
159.225
20
-94.5398
11
159.354
21
-94.6461
0
LINE
8
BLACK
6
CONTINUOUS
10
159.354
20
-94.6461
11
159.46
21
-94.7755
0
LINE
8
BLACK
6
CONTINUOUS
10
159.46
20
-94.7755
11
159.539
21
-94.9231
0
LINE
8
BLACK
6
CONTINUOUS
10
159.539
20
-94.9231
11
159.588
21
-95.0834
0
LINE
8
BLACK
6
CONTINUOUS
10
159.588
20
-95.0834
11
159.604
21
-95.25
0
LINE
8
BLACK
6
CONTINUOUS
10
159.604
20
-95.25
11
159.588
21
-95.4166
0
LINE
8
BLACK
6
CONTINUOUS
10
159.588
20
-95.4166
11
159.539
21
-95.5769
0
LINE
8
BLACK
6
CONTINUOUS
10
159.539
20
-95.5769
11
159.46
21
-95.7245
0
LINE
8
BLACK
6
CONTINUOUS
10
159.46
20
-95.7245
11
159.354
21
-95.8539
0
LINE
8
BLACK
6
CONTINUOUS
10
159.354
20
-95.8539
11
159.225
21
-95.9602
0
LINE
8
BLACK
6
CONTINUOUS
10
159.225
20
-95.9602
11
159.077
21
-96.0391
0
LINE
8
BLACK
6
CONTINUOUS
10
159.077
20
-96.0391
11
158.917
21
-96.0877
0
LINE
8
BLACK
6
CONTINUOUS
10
158.917
20
-96.0877
11
158.792
21
-96.1
0
LINE
8
BLACK
6
CONTINUOUS
10
158.792
20
-96.1
11
158.708
21
-96.1
0
LINE
8
BLACK
6
CONTINUOUS
10
158.708
20
-96.1
11
158.583
21
-96.0877
0
LINE
8
BLACK
6
CONTINUOUS
10
158.583
20
-96.0877
11
158.423
21
-96.0391
0
LINE
8
BLACK
6
CONTINUOUS
10
158.423
20
-96.0391
11
158.275
21
-95.9602
0
LINE
8
BLACK
6
CONTINUOUS
10
158.275
20
-95.9602
11
158.146
21
-95.8539
0
LINE
8
BLACK
6
CONTINUOUS
10
158.146
20
-95.8539
11
158.04
21
-95.7245
0
LINE
8
BLACK
6
CONTINUOUS
10
158.04
20
-95.7245
11
157.961
21
-95.5769
0
LINE
8
BLACK
6
CONTINUOUS
10
157.961
20
-95.5769
11
157.912
21
-95.4166
0
LINE
8
BLACK
6
CONTINUOUS
10
157.912
20
-95.4166
11
157.896
21
-95.25
0
LINE
8
BLACK
6
CONTINUOUS
10
157.896
20
-95.25
11
157.912
21
-95.0834
0
LINE
8
BLACK
6
CONTINUOUS
10
157.912
20
-95.0834
11
157.961
21
-94.9231
0
LINE
8
BLACK
6
CONTINUOUS
10
157.961
20
-94.9231
11
158.04
21
-94.7755
0
LINE
8
BLACK
6
CONTINUOUS
10
158.04
20
-94.7755
11
158.146
21
-94.6461
0
LINE
8
BLACK
6
CONTINUOUS
10
158.146
20
-94.6461
11
158.275
21
-94.5398
0
LINE
8
BLACK
6
CONTINUOUS
10
158.275
20
-94.5398
11
158.423
21
-94.4609
0
LINE
8
BLACK
6
CONTINUOUS
10
158.423
20
-94.4609
11
158.583
21
-94.4123
0
LINE
8
BLACK
6
CONTINUOUS
10
158.583
20
-94.4123
11
158.708
21
-94.4
0
LINE
8
BLACK
6
CONTINUOUS
10
158.708
20
-94.4
11
158.792
21
-94.4
0
LINE
8
BLACK
6
CONTINUOUS
10
158.792
20
-94.4
11
158.917
21
-94.4123
0
LINE
8
BLACK
6
CONTINUOUS
10
156.377
20
-94.4123
11
156.537
21
-94.4609
0
LINE
8
BLACK
6
CONTINUOUS
10
156.537
20
-94.4609
11
156.685
21
-94.5398
0
LINE
8
BLACK
6
CONTINUOUS
10
156.685
20
-94.5398
11
156.814
21
-94.6461
0
LINE
8
BLACK
6
CONTINUOUS
10
156.814
20
-94.6461
11
156.92
21
-94.7755
0
LINE
8
BLACK
6
CONTINUOUS
10
156.92
20
-94.7755
11
156.999
21
-94.9231
0
LINE
8
BLACK
6
CONTINUOUS
10
156.999
20
-94.9231
11
157.048
21
-95.0834
0
LINE
8
BLACK
6
CONTINUOUS
10
157.048
20
-95.0834
11
157.064
21
-95.25
0
LINE
8
BLACK
6
CONTINUOUS
10
157.064
20
-95.25
11
157.048
21
-95.4166
0
LINE
8
BLACK
6
CONTINUOUS
10
157.048
20
-95.4166
11
156.999
21
-95.5769
0
LINE
8
BLACK
6
CONTINUOUS
10
156.999
20
-95.5769
11
156.92
21
-95.7245
0
LINE
8
BLACK
6
CONTINUOUS
10
156.92
20
-95.7245
11
156.814
21
-95.8539
0
LINE
8
BLACK
6
CONTINUOUS
10
156.814
20
-95.8539
11
156.685
21
-95.9602
0
LINE
8
BLACK
6
CONTINUOUS
10
156.685
20
-95.9602
11
156.537
21
-96.0391
0
LINE
8
BLACK
6
CONTINUOUS
10
156.537
20
-96.0391
11
156.377
21
-96.0877
0
LINE
8
BLACK
6
CONTINUOUS
10
156.377
20
-96.0877
11
156.252
21
-96.1
0
LINE
8
BLACK
6
CONTINUOUS
10
156.252
20
-96.1
11
156.168
21
-96.1
0
LINE
8
BLACK
6
CONTINUOUS
10
156.168
20
-96.1
11
156.043
21
-96.0877
0
LINE
8
BLACK
6
CONTINUOUS
10
156.043
20
-96.0877
11
155.883
21
-96.0391
0
LINE
8
BLACK
6
CONTINUOUS
10
155.883
20
-96.0391
11
155.735
21
-95.9602
0
LINE
8
BLACK
6
CONTINUOUS
10
155.735
20
-95.9602
11
155.606
21
-95.8539
0
LINE
8
BLACK
6
CONTINUOUS
10
155.606
20
-95.8539
11
155.5
21
-95.7245
0
LINE
8
BLACK
6
CONTINUOUS
10
155.5
20
-95.7245
11
155.421
21
-95.5769
0
LINE
8
BLACK
6
CONTINUOUS
10
155.421
20
-95.5769
11
155.372
21
-95.4166
0
LINE
8
BLACK
6
CONTINUOUS
10
155.372
20
-95.4166
11
155.356
21
-95.25
0
LINE
8
BLACK
6
CONTINUOUS
10
155.356
20
-95.25
11
155.372
21
-95.0834
0
LINE
8
BLACK
6
CONTINUOUS
10
155.372
20
-95.0834
11
155.421
21
-94.9231
0
LINE
8
BLACK
6
CONTINUOUS
10
155.421
20
-94.9231
11
155.5
21
-94.7755
0
LINE
8
BLACK
6
CONTINUOUS
10
155.5
20
-94.7755
11
155.606
21
-94.6461
0
LINE
8
BLACK
6
CONTINUOUS
10
155.606
20
-94.6461
11
155.735
21
-94.5398
0
LINE
8
BLACK
6
CONTINUOUS
10
155.735
20
-94.5398
11
155.883
21
-94.4609
0
LINE
8
BLACK
6
CONTINUOUS
10
155.883
20
-94.4609
11
156.043
21
-94.4123
0
LINE
8
BLACK
6
CONTINUOUS
10
156.043
20
-94.4123
11
156.168
21
-94.4
0
LINE
8
BLACK
6
CONTINUOUS
10
156.168
20
-94.4
11
156.252
21
-94.4
0
LINE
8
BLACK
6
CONTINUOUS
10
156.252
20
-94.4
11
156.377
21
-94.4123
0
LINE
8
BLACK
6
CONTINUOUS
10
158.917
20
-91.8723
11
159.077
21
-91.9209
0
LINE
8
BLACK
6
CONTINUOUS
10
159.077
20
-91.9209
11
159.225
21
-91.9998
0
LINE
8
BLACK
6
CONTINUOUS
10
159.225
20
-91.9998
11
159.354
21
-92.1061
0
LINE
8
BLACK
6
CONTINUOUS
10
159.354
20
-92.1061
11
159.46
21
-92.2355
0
LINE
8
BLACK
6
CONTINUOUS
10
159.46
20
-92.2355
11
159.539
21
-92.3831
0
LINE
8
BLACK
6
CONTINUOUS
10
159.539
20
-92.3831
11
159.588
21
-92.5434
0
LINE
8
BLACK
6
CONTINUOUS
10
159.588
20
-92.5434
11
159.604
21
-92.71
0
LINE
8
BLACK
6
CONTINUOUS
10
159.604
20
-92.71
11
159.588
21
-92.8766
0
LINE
8
BLACK
6
CONTINUOUS
10
159.588
20
-92.8766
11
159.539
21
-93.0369
0
LINE
8
BLACK
6
CONTINUOUS
10
159.539
20
-93.0369
11
159.46
21
-93.1845
0
LINE
8
BLACK
6
CONTINUOUS
10
159.46
20
-93.1845
11
159.354
21
-93.3139
0
LINE
8
BLACK
6
CONTINUOUS
10
159.354
20
-93.3139
11
159.225
21
-93.4202
0
LINE
8
BLACK
6
CONTINUOUS
10
159.225
20
-93.4202
11
159.077
21
-93.4991
0
LINE
8
BLACK
6
CONTINUOUS
10
159.077
20
-93.4991
11
158.917
21
-93.5477
0
LINE
8
BLACK
6
CONTINUOUS
10
158.917
20
-93.5477
11
158.792
21
-93.56
0
LINE
8
BLACK
6
CONTINUOUS
10
158.792
20
-93.56
11
158.708
21
-93.56
0
LINE
8
BLACK
6
CONTINUOUS
10
158.708
20
-93.56
11
158.583
21
-93.5477
0
LINE
8
BLACK
6
CONTINUOUS
10
158.583
20
-93.5477
11
158.423
21
-93.4991
0
LINE
8
BLACK
6
CONTINUOUS
10
158.423
20
-93.4991
11
158.275
21
-93.4202
0
LINE
8
BLACK
6
CONTINUOUS
10
158.275
20
-93.4202
11
158.146
21
-93.3139
0
LINE
8
BLACK
6
CONTINUOUS
10
158.146
20
-93.3139
11
158.04
21
-93.1845
0
LINE
8
BLACK
6
CONTINUOUS
10
158.04
20
-93.1845
11
157.961
21
-93.0369
0
LINE
8
BLACK
6
CONTINUOUS
10
157.961
20
-93.0369
11
157.912
21
-92.8766
0
LINE
8
BLACK
6
CONTINUOUS
10
157.912
20
-92.8766
11
157.896
21
-92.71
0
LINE
8
BLACK
6
CONTINUOUS
10
157.896
20
-92.71
11
157.912
21
-92.5434
0
LINE
8
BLACK
6
CONTINUOUS
10
157.912
20
-92.5434
11
157.961
21
-92.3831
0
LINE
8
BLACK
6
CONTINUOUS
10
157.961
20
-92.3831
11
158.04
21
-92.2355
0
LINE
8
BLACK
6
CONTINUOUS
10
158.04
20
-92.2355
11
158.146
21
-92.1061
0
LINE
8
BLACK
6
CONTINUOUS
10
158.146
20
-92.1061
11
158.275
21
-91.9998
0
LINE
8
BLACK
6
CONTINUOUS
10
158.275
20
-91.9998
11
158.423
21
-91.9209
0
LINE
8
BLACK
6
CONTINUOUS
10
158.423
20
-91.9209
11
158.583
21
-91.8723
0
LINE
8
BLACK
6
CONTINUOUS
10
158.583
20
-91.8723
11
158.708
21
-91.86
0
LINE
8
BLACK
6
CONTINUOUS
10
158.708
20
-91.86
11
158.792
21
-91.86
0
LINE
8
BLACK
6
CONTINUOUS
10
158.792
20
-91.86
11
158.917
21
-91.8723
0
LINE
8
BLACK
6
CONTINUOUS
10
156.377
20
-91.8723
11
156.537
21
-91.9209
0
LINE
8
BLACK
6
CONTINUOUS
10
156.537
20
-91.9209
11
156.685
21
-91.9998
0
LINE
8
BLACK
6
CONTINUOUS
10
156.685
20
-91.9998
11
156.814
21
-92.1061
0
LINE
8
BLACK
6
CONTINUOUS
10
156.814
20
-92.1061
11
156.92
21
-92.2355
0
LINE
8
BLACK
6
CONTINUOUS
10
156.92
20
-92.2355
11
156.999
21
-92.3831
0
LINE
8
BLACK
6
CONTINUOUS
10
156.999
20
-92.3831
11
157.048
21
-92.5434
0
LINE
8
BLACK
6
CONTINUOUS
10
157.048
20
-92.5434
11
157.064
21
-92.71
0
LINE
8
BLACK
6
CONTINUOUS
10
157.064
20
-92.71
11
157.048
21
-92.8766
0
LINE
8
BLACK
6
CONTINUOUS
10
157.048
20
-92.8766
11
156.999
21
-93.0369
0
LINE
8
BLACK
6
CONTINUOUS
10
156.999
20
-93.0369
11
156.92
21
-93.1845
0
LINE
8
BLACK
6
CONTINUOUS
10
156.92
20
-93.1845
11
156.814
21
-93.3139
0
LINE
8
BLACK
6
CONTINUOUS
10
156.814
20
-93.3139
11
156.685
21
-93.4202
0
LINE
8
BLACK
6
CONTINUOUS
10
156.685
20
-93.4202
11
156.537
21
-93.4991
0
LINE
8
BLACK
6
CONTINUOUS
10
156.537
20
-93.4991
11
156.377
21
-93.5477
0
LINE
8
BLACK
6
CONTINUOUS
10
156.377
20
-93.5477
11
156.252
21
-93.56
0
LINE
8
BLACK
6
CONTINUOUS
10
156.252
20
-93.56
11
156.168
21
-93.56
0
LINE
8
BLACK
6
CONTINUOUS
10
156.168
20
-93.56
11
156.043
21
-93.5477
0
LINE
8
BLACK
6
CONTINUOUS
10
156.043
20
-93.5477
11
155.883
21
-93.4991
0
LINE
8
BLACK
6
CONTINUOUS
10
155.883
20
-93.4991
11
155.735
21
-93.4202
0
LINE
8
BLACK
6
CONTINUOUS
10
155.735
20
-93.4202
11
155.606
21
-93.3139
0
LINE
8
BLACK
6
CONTINUOUS
10
155.606
20
-93.3139
11
155.5
21
-93.1845
0
LINE
8
BLACK
6
CONTINUOUS
10
155.5
20
-93.1845
11
155.421
21
-93.0369
0
LINE
8
BLACK
6
CONTINUOUS
10
155.421
20
-93.0369
11
155.372
21
-92.8766
0
LINE
8
BLACK
6
CONTINUOUS
10
155.372
20
-92.8766
11
155.356
21
-92.71
0
LINE
8
BLACK
6
CONTINUOUS
10
155.356
20
-92.71
11
155.372
21
-92.5434
0
LINE
8
BLACK
6
CONTINUOUS
10
155.372
20
-92.5434
11
155.421
21
-92.3831
0
LINE
8
BLACK
6
CONTINUOUS
10
155.421
20
-92.3831
11
155.5
21
-92.2355
0
LINE
8
BLACK
6
CONTINUOUS
10
155.5
20
-92.2355
11
155.606
21
-92.1061
0
LINE
8
BLACK
6
CONTINUOUS
10
155.606
20
-92.1061
11
155.735
21
-91.9998
0
LINE
8
BLACK
6
CONTINUOUS
10
155.735
20
-91.9998
11
155.883
21
-91.9209
0
LINE
8
BLACK
6
CONTINUOUS
10
155.883
20
-91.9209
11
156.043
21
-91.8723
0
LINE
8
BLACK
6
CONTINUOUS
10
156.043
20
-91.8723
11
156.168
21
-91.86
0
LINE
8
BLACK
6
CONTINUOUS
10
156.168
20
-91.86
11
156.252
21
-91.86
0
LINE
8
BLACK
6
CONTINUOUS
10
156.252
20
-91.86
11
156.377
21
-91.8723
0
LINE
8
BLACK
6
CONTINUOUS
10
158.917
20
-89.3323
11
159.077
21
-89.3809
0
LINE
8
BLACK
6
CONTINUOUS
10
159.077
20
-89.3809
11
159.225
21
-89.4598
0
LINE
8
BLACK
6
CONTINUOUS
10
159.225
20
-89.4598
11
159.354
21
-89.5661
0
LINE
8
BLACK
6
CONTINUOUS
10
159.354
20
-89.5661
11
159.46
21
-89.6955
0
LINE
8
BLACK
6
CONTINUOUS
10
159.46
20
-89.6955
11
159.539
21
-89.8431
0
LINE
8
BLACK
6
CONTINUOUS
10
159.539
20
-89.8431
11
159.588
21
-90.0034
0
LINE
8
BLACK
6
CONTINUOUS
10
159.588
20
-90.0034
11
159.604
21
-90.17
0
LINE
8
BLACK
6
CONTINUOUS
10
159.604
20
-90.17
11
159.588
21
-90.3366
0
LINE
8
BLACK
6
CONTINUOUS
10
159.588
20
-90.3366
11
159.539
21
-90.4969
0
LINE
8
BLACK
6
CONTINUOUS
10
159.539
20
-90.4969
11
159.46
21
-90.6445
0
LINE
8
BLACK
6
CONTINUOUS
10
159.46
20
-90.6445
11
159.354
21
-90.7739
0
LINE
8
BLACK
6
CONTINUOUS
10
159.354
20
-90.7739
11
159.225
21
-90.8802
0
LINE
8
BLACK
6
CONTINUOUS
10
159.225
20
-90.8802
11
159.077
21
-90.9591
0
LINE
8
BLACK
6
CONTINUOUS
10
159.077
20
-90.9591
11
158.917
21
-91.0077
0
LINE
8
BLACK
6
CONTINUOUS
10
158.917
20
-91.0077
11
158.792
21
-91.02
0
LINE
8
BLACK
6
CONTINUOUS
10
158.792
20
-91.02
11
158.708
21
-91.02
0
LINE
8
BLACK
6
CONTINUOUS
10
158.708
20
-91.02
11
158.583
21
-91.0077
0
LINE
8
BLACK
6
CONTINUOUS
10
158.583
20
-91.0077
11
158.423
21
-90.9591
0
LINE
8
BLACK
6
CONTINUOUS
10
158.423
20
-90.9591
11
158.275
21
-90.8802
0
LINE
8
BLACK
6
CONTINUOUS
10
158.275
20
-90.8802
11
158.146
21
-90.7739
0
LINE
8
BLACK
6
CONTINUOUS
10
158.146
20
-90.7739
11
158.04
21
-90.6445
0
LINE
8
BLACK
6
CONTINUOUS
10
158.04
20
-90.6445
11
157.961
21
-90.4969
0
LINE
8
BLACK
6
CONTINUOUS
10
157.961
20
-90.4969
11
157.912
21
-90.3366
0
LINE
8
BLACK
6
CONTINUOUS
10
157.912
20
-90.3366
11
157.896
21
-90.17
0
LINE
8
BLACK
6
CONTINUOUS
10
157.896
20
-90.17
11
157.912
21
-90.0034
0
LINE
8
BLACK
6
CONTINUOUS
10
157.912
20
-90.0034
11
157.961
21
-89.8431
0
LINE
8
BLACK
6
CONTINUOUS
10
157.961
20
-89.8431
11
158.04
21
-89.6955
0
LINE
8
BLACK
6
CONTINUOUS
10
158.04
20
-89.6955
11
158.146
21
-89.5661
0
LINE
8
BLACK
6
CONTINUOUS
10
158.146
20
-89.5661
11
158.275
21
-89.4598
0
LINE
8
BLACK
6
CONTINUOUS
10
158.275
20
-89.4598
11
158.423
21
-89.3809
0
LINE
8
BLACK
6
CONTINUOUS
10
158.423
20
-89.3809
11
158.583
21
-89.3323
0
LINE
8
BLACK
6
CONTINUOUS
10
158.583
20
-89.3323
11
158.708
21
-89.32
0
LINE
8
BLACK
6
CONTINUOUS
10
158.708
20
-89.32
11
158.792
21
-89.32
0
LINE
8
BLACK
6
CONTINUOUS
10
158.792
20
-89.32
11
158.917
21
-89.3323
0
LINE
8
BLACK
6
CONTINUOUS
10
156.377
20
-89.3323
11
156.537
21
-89.3809
0
LINE
8
BLACK
6
CONTINUOUS
10
156.537
20
-89.3809
11
156.685
21
-89.4598
0
LINE
8
BLACK
6
CONTINUOUS
10
156.685
20
-89.4598
11
156.814
21
-89.5661
0
LINE
8
BLACK
6
CONTINUOUS
10
156.814
20
-89.5661
11
156.92
21
-89.6955
0
LINE
8
BLACK
6
CONTINUOUS
10
156.92
20
-89.6955
11
156.999
21
-89.8431
0
LINE
8
BLACK
6
CONTINUOUS
10
156.999
20
-89.8431
11
157.048
21
-90.0034
0
LINE
8
BLACK
6
CONTINUOUS
10
157.048
20
-90.0034
11
157.064
21
-90.17
0
LINE
8
BLACK
6
CONTINUOUS
10
157.064
20
-90.17
11
157.048
21
-90.3366
0
LINE
8
BLACK
6
CONTINUOUS
10
157.048
20
-90.3366
11
156.999
21
-90.4969
0
LINE
8
BLACK
6
CONTINUOUS
10
156.999
20
-90.4969
11
156.92
21
-90.6445
0
LINE
8
BLACK
6
CONTINUOUS
10
156.92
20
-90.6445
11
156.814
21
-90.7739
0
LINE
8
BLACK
6
CONTINUOUS
10
156.814
20
-90.7739
11
156.685
21
-90.8802
0
LINE
8
BLACK
6
CONTINUOUS
10
156.685
20
-90.8802
11
156.537
21
-90.9591
0
LINE
8
BLACK
6
CONTINUOUS
10
156.537
20
-90.9591
11
156.377
21
-91.0077
0
LINE
8
BLACK
6
CONTINUOUS
10
156.377
20
-91.0077
11
156.252
21
-91.02
0
LINE
8
BLACK
6
CONTINUOUS
10
156.252
20
-91.02
11
156.168
21
-91.02
0
LINE
8
BLACK
6
CONTINUOUS
10
156.168
20
-91.02
11
156.043
21
-91.0077
0
LINE
8
BLACK
6
CONTINUOUS
10
156.043
20
-91.0077
11
155.883
21
-90.9591
0
LINE
8
BLACK
6
CONTINUOUS
10
155.883
20
-90.9591
11
155.735
21
-90.8802
0
LINE
8
BLACK
6
CONTINUOUS
10
155.735
20
-90.8802
11
155.606
21
-90.7739
0
LINE
8
BLACK
6
CONTINUOUS
10
155.606
20
-90.7739
11
155.5
21
-90.6445
0
LINE
8
BLACK
6
CONTINUOUS
10
155.5
20
-90.6445
11
155.421
21
-90.4969
0
LINE
8
BLACK
6
CONTINUOUS
10
155.421
20
-90.4969
11
155.372
21
-90.3366
0
LINE
8
BLACK
6
CONTINUOUS
10
155.372
20
-90.3366
11
155.356
21
-90.17
0
LINE
8
BLACK
6
CONTINUOUS
10
155.356
20
-90.17
11
155.372
21
-90.0034
0
LINE
8
BLACK
6
CONTINUOUS
10
155.372
20
-90.0034
11
155.421
21
-89.8431
0
LINE
8
BLACK
6
CONTINUOUS
10
155.421
20
-89.8431
11
155.5
21
-89.6955
0
LINE
8
BLACK
6
CONTINUOUS
10
155.5
20
-89.6955
11
155.606
21
-89.5661
0
LINE
8
BLACK
6
CONTINUOUS
10
155.606
20
-89.5661
11
155.735
21
-89.4598
0
LINE
8
BLACK
6
CONTINUOUS
10
155.735
20
-89.4598
11
155.883
21
-89.3809
0
LINE
8
BLACK
6
CONTINUOUS
10
155.883
20
-89.3809
11
156.043
21
-89.3323
0
LINE
8
BLACK
6
CONTINUOUS
10
156.043
20
-89.3323
11
156.168
21
-89.32
0
LINE
8
BLACK
6
CONTINUOUS
10
156.168
20
-89.32
11
156.252
21
-89.32
0
LINE
8
BLACK
6
CONTINUOUS
10
156.252
20
-89.32
11
156.377
21
-89.3323
0
LINE
8
BLACK
6
CONTINUOUS
10
158.917
20
-86.7923
11
159.077
21
-86.8409
0
LINE
8
BLACK
6
CONTINUOUS
10
159.077
20
-86.8409
11
159.225
21
-86.9198
0
LINE
8
BLACK
6
CONTINUOUS
10
159.225
20
-86.9198
11
159.354
21
-87.0261
0
LINE
8
BLACK
6
CONTINUOUS
10
159.354
20
-87.0261
11
159.46
21
-87.1555
0
LINE
8
BLACK
6
CONTINUOUS
10
159.46
20
-87.1555
11
159.539
21
-87.3031
0
LINE
8
BLACK
6
CONTINUOUS
10
159.539
20
-87.3031
11
159.588
21
-87.4634
0
LINE
8
BLACK
6
CONTINUOUS
10
159.588
20
-87.4634
11
159.604
21
-87.63
0
LINE
8
BLACK
6
CONTINUOUS
10
159.604
20
-87.63
11
159.588
21
-87.7966
0
LINE
8
BLACK
6
CONTINUOUS
10
159.588
20
-87.7966
11
159.539
21
-87.9569
0
LINE
8
BLACK
6
CONTINUOUS
10
159.539
20
-87.9569
11
159.46
21
-88.1045
0
LINE
8
BLACK
6
CONTINUOUS
10
159.46
20
-88.1045
11
159.354
21
-88.2339
0
LINE
8
BLACK
6
CONTINUOUS
10
159.354
20
-88.2339
11
159.225
21
-88.3402
0
LINE
8
BLACK
6
CONTINUOUS
10
159.225
20
-88.3402
11
159.077
21
-88.4191
0
LINE
8
BLACK
6
CONTINUOUS
10
159.077
20
-88.4191
11
158.917
21
-88.4677
0
LINE
8
BLACK
6
CONTINUOUS
10
158.917
20
-88.4677
11
158.792
21
-88.48
0
LINE
8
BLACK
6
CONTINUOUS
10
158.792
20
-88.48
11
158.708
21
-88.48
0
LINE
8
BLACK
6
CONTINUOUS
10
158.708
20
-88.48
11
158.583
21
-88.4677
0
LINE
8
BLACK
6
CONTINUOUS
10
158.583
20
-88.4677
11
158.423
21
-88.4191
0
LINE
8
BLACK
6
CONTINUOUS
10
158.423
20
-88.4191
11
158.275
21
-88.3402
0
LINE
8
BLACK
6
CONTINUOUS
10
158.275
20
-88.3402
11
158.146
21
-88.2339
0
LINE
8
BLACK
6
CONTINUOUS
10
158.146
20
-88.2339
11
158.04
21
-88.1045
0
LINE
8
BLACK
6
CONTINUOUS
10
158.04
20
-88.1045
11
157.961
21
-87.9569
0
LINE
8
BLACK
6
CONTINUOUS
10
157.961
20
-87.9569
11
157.912
21
-87.7966
0
LINE
8
BLACK
6
CONTINUOUS
10
157.912
20
-87.7966
11
157.896
21
-87.63
0
LINE
8
BLACK
6
CONTINUOUS
10
157.896
20
-87.63
11
157.912
21
-87.4634
0
LINE
8
BLACK
6
CONTINUOUS
10
157.912
20
-87.4634
11
157.961
21
-87.3031
0
LINE
8
BLACK
6
CONTINUOUS
10
157.961
20
-87.3031
11
158.04
21
-87.1555
0
LINE
8
BLACK
6
CONTINUOUS
10
158.04
20
-87.1555
11
158.146
21
-87.0261
0
LINE
8
BLACK
6
CONTINUOUS
10
158.146
20
-87.0261
11
158.275
21
-86.9198
0
LINE
8
BLACK
6
CONTINUOUS
10
158.275
20
-86.9198
11
158.423
21
-86.8409
0
LINE
8
BLACK
6
CONTINUOUS
10
158.423
20
-86.8409
11
158.583
21
-86.7923
0
LINE
8
BLACK
6
CONTINUOUS
10
158.583
20
-86.7923
11
158.708
21
-86.78
0
LINE
8
BLACK
6
CONTINUOUS
10
158.708
20
-86.78
11
158.792
21
-86.78
0
LINE
8
BLACK
6
CONTINUOUS
10
158.792
20
-86.78
11
158.917
21
-86.7923
0
LINE
8
BLACK
6
CONTINUOUS
10
156.377
20
-86.7923
11
156.537
21
-86.8409
0
LINE
8
BLACK
6
CONTINUOUS
10
156.537
20
-86.8409
11
156.685
21
-86.9198
0
LINE
8
BLACK
6
CONTINUOUS
10
156.685
20
-86.9198
11
156.814
21
-87.0261
0
LINE
8
BLACK
6
CONTINUOUS
10
156.814
20
-87.0261
11
156.92
21
-87.1555
0
LINE
8
BLACK
6
CONTINUOUS
10
156.92
20
-87.1555
11
156.999
21
-87.3031
0
LINE
8
BLACK
6
CONTINUOUS
10
156.999
20
-87.3031
11
157.048
21
-87.4634
0
LINE
8
BLACK
6
CONTINUOUS
10
157.048
20
-87.4634
11
157.064
21
-87.63
0
LINE
8
BLACK
6
CONTINUOUS
10
157.064
20
-87.63
11
157.048
21
-87.7966
0
LINE
8
BLACK
6
CONTINUOUS
10
157.048
20
-87.7966
11
156.999
21
-87.9569
0
LINE
8
BLACK
6
CONTINUOUS
10
156.999
20
-87.9569
11
156.92
21
-88.1045
0
LINE
8
BLACK
6
CONTINUOUS
10
156.92
20
-88.1045
11
156.814
21
-88.2339
0
LINE
8
BLACK
6
CONTINUOUS
10
156.814
20
-88.2339
11
156.685
21
-88.3402
0
LINE
8
BLACK
6
CONTINUOUS
10
156.685
20
-88.3402
11
156.537
21
-88.4191
0
LINE
8
BLACK
6
CONTINUOUS
10
156.537
20
-88.4191
11
156.377
21
-88.4677
0
LINE
8
BLACK
6
CONTINUOUS
10
156.377
20
-88.4677
11
156.252
21
-88.48
0
LINE
8
BLACK
6
CONTINUOUS
10
156.252
20
-88.48
11
156.168
21
-88.48
0
LINE
8
BLACK
6
CONTINUOUS
10
156.168
20
-88.48
11
156.043
21
-88.4677
0
LINE
8
BLACK
6
CONTINUOUS
10
156.043
20
-88.4677
11
155.883
21
-88.4191
0
LINE
8
BLACK
6
CONTINUOUS
10
155.883
20
-88.4191
11
155.735
21
-88.3402
0
LINE
8
BLACK
6
CONTINUOUS
10
155.735
20
-88.3402
11
155.606
21
-88.2339
0
LINE
8
BLACK
6
CONTINUOUS
10
155.606
20
-88.2339
11
155.5
21
-88.1045
0
LINE
8
BLACK
6
CONTINUOUS
10
155.5
20
-88.1045
11
155.421
21
-87.9569
0
LINE
8
BLACK
6
CONTINUOUS
10
155.421
20
-87.9569
11
155.372
21
-87.7966
0
LINE
8
BLACK
6
CONTINUOUS
10
155.372
20
-87.7966
11
155.356
21
-87.63
0
LINE
8
BLACK
6
CONTINUOUS
10
155.356
20
-87.63
11
155.372
21
-87.4634
0
LINE
8
BLACK
6
CONTINUOUS
10
155.372
20
-87.4634
11
155.421
21
-87.3031
0
LINE
8
BLACK
6
CONTINUOUS
10
155.421
20
-87.3031
11
155.5
21
-87.1555
0
LINE
8
BLACK
6
CONTINUOUS
10
155.5
20
-87.1555
11
155.606
21
-87.0261
0
LINE
8
BLACK
6
CONTINUOUS
10
155.606
20
-87.0261
11
155.735
21
-86.9198
0
LINE
8
BLACK
6
CONTINUOUS
10
155.735
20
-86.9198
11
155.883
21
-86.8409
0
LINE
8
BLACK
6
CONTINUOUS
10
155.883
20
-86.8409
11
156.043
21
-86.7923
0
LINE
8
BLACK
6
CONTINUOUS
10
156.043
20
-86.7923
11
156.168
21
-86.78
0
LINE
8
BLACK
6
CONTINUOUS
10
156.168
20
-86.78
11
156.252
21
-86.78
0
LINE
8
BLACK
6
CONTINUOUS
10
156.252
20
-86.78
11
156.377
21
-86.7923
0
LINE
8
BLACK
6
CONTINUOUS
10
158.917
20
-84.2523
11
159.077
21
-84.3009
0
LINE
8
BLACK
6
CONTINUOUS
10
159.077
20
-84.3009
11
159.225
21
-84.3798
0
LINE
8
BLACK
6
CONTINUOUS
10
159.225
20
-84.3798
11
159.354
21
-84.4861
0
LINE
8
BLACK
6
CONTINUOUS
10
159.354
20
-84.4861
11
159.46
21
-84.6155
0
LINE
8
BLACK
6
CONTINUOUS
10
159.46
20
-84.6155
11
159.539
21
-84.7631
0
LINE
8
BLACK
6
CONTINUOUS
10
159.539
20
-84.7631
11
159.588
21
-84.9234
0
LINE
8
BLACK
6
CONTINUOUS
10
159.588
20
-84.9234
11
159.604
21
-85.09
0
LINE
8
BLACK
6
CONTINUOUS
10
159.604
20
-85.09
11
159.588
21
-85.2566
0
LINE
8
BLACK
6
CONTINUOUS
10
159.588
20
-85.2566
11
159.539
21
-85.4169
0
LINE
8
BLACK
6
CONTINUOUS
10
159.539
20
-85.4169
11
159.46
21
-85.5645
0
LINE
8
BLACK
6
CONTINUOUS
10
159.46
20
-85.5645
11
159.354
21
-85.6939
0
LINE
8
BLACK
6
CONTINUOUS
10
159.354
20
-85.6939
11
159.225
21
-85.8002
0
LINE
8
BLACK
6
CONTINUOUS
10
159.225
20
-85.8002
11
159.077
21
-85.8791
0
LINE
8
BLACK
6
CONTINUOUS
10
159.077
20
-85.8791
11
158.917
21
-85.9277
0
LINE
8
BLACK
6
CONTINUOUS
10
158.917
20
-85.9277
11
158.792
21
-85.94
0
LINE
8
BLACK
6
CONTINUOUS
10
158.792
20
-85.94
11
158.708
21
-85.94
0
LINE
8
BLACK
6
CONTINUOUS
10
158.708
20
-85.94
11
158.583
21
-85.9277
0
LINE
8
BLACK
6
CONTINUOUS
10
158.583
20
-85.9277
11
158.423
21
-85.8791
0
LINE
8
BLACK
6
CONTINUOUS
10
158.423
20
-85.8791
11
158.275
21
-85.8002
0
LINE
8
BLACK
6
CONTINUOUS
10
158.275
20
-85.8002
11
158.146
21
-85.6939
0
LINE
8
BLACK
6
CONTINUOUS
10
158.146
20
-85.6939
11
158.04
21
-85.5645
0
LINE
8
BLACK
6
CONTINUOUS
10
158.04
20
-85.5645
11
157.961
21
-85.4169
0
LINE
8
BLACK
6
CONTINUOUS
10
157.961
20
-85.4169
11
157.912
21
-85.2566
0
LINE
8
BLACK
6
CONTINUOUS
10
157.912
20
-85.2566
11
157.896
21
-85.09
0
LINE
8
BLACK
6
CONTINUOUS
10
157.896
20
-85.09
11
157.912
21
-84.9234
0
LINE
8
BLACK
6
CONTINUOUS
10
157.912
20
-84.9234
11
157.961
21
-84.7631
0
LINE
8
BLACK
6
CONTINUOUS
10
157.961
20
-84.7631
11
158.04
21
-84.6155
0
LINE
8
BLACK
6
CONTINUOUS
10
158.04
20
-84.6155
11
158.146
21
-84.4861
0
LINE
8
BLACK
6
CONTINUOUS
10
158.146
20
-84.4861
11
158.275
21
-84.3798
0
LINE
8
BLACK
6
CONTINUOUS
10
158.275
20
-84.3798
11
158.423
21
-84.3009
0
LINE
8
BLACK
6
CONTINUOUS
10
158.423
20
-84.3009
11
158.583
21
-84.2523
0
LINE
8
BLACK
6
CONTINUOUS
10
158.583
20
-84.2523
11
158.708
21
-84.24
0
LINE
8
BLACK
6
CONTINUOUS
10
158.708
20
-84.24
11
158.792
21
-84.24
0
LINE
8
BLACK
6
CONTINUOUS
10
158.792
20
-84.24
11
158.917
21
-84.2523
0
LINE
8
BLACK
6
CONTINUOUS
10
156.377
20
-84.2523
11
156.537
21
-84.3009
0
LINE
8
BLACK
6
CONTINUOUS
10
156.537
20
-84.3009
11
156.685
21
-84.3798
0
LINE
8
BLACK
6
CONTINUOUS
10
156.685
20
-84.3798
11
156.814
21
-84.4861
0
LINE
8
BLACK
6
CONTINUOUS
10
156.814
20
-84.4861
11
156.92
21
-84.6155
0
LINE
8
BLACK
6
CONTINUOUS
10
156.92
20
-84.6155
11
156.999
21
-84.7631
0
LINE
8
BLACK
6
CONTINUOUS
10
156.999
20
-84.7631
11
157.048
21
-84.9234
0
LINE
8
BLACK
6
CONTINUOUS
10
157.048
20
-84.9234
11
157.064
21
-85.09
0
LINE
8
BLACK
6
CONTINUOUS
10
157.064
20
-85.09
11
157.048
21
-85.2566
0
LINE
8
BLACK
6
CONTINUOUS
10
157.048
20
-85.2566
11
156.999
21
-85.4169
0
LINE
8
BLACK
6
CONTINUOUS
10
156.999
20
-85.4169
11
156.92
21
-85.5645
0
LINE
8
BLACK
6
CONTINUOUS
10
156.92
20
-85.5645
11
156.814
21
-85.6939
0
LINE
8
BLACK
6
CONTINUOUS
10
156.814
20
-85.6939
11
156.685
21
-85.8002
0
LINE
8
BLACK
6
CONTINUOUS
10
156.685
20
-85.8002
11
156.537
21
-85.8791
0
LINE
8
BLACK
6
CONTINUOUS
10
156.537
20
-85.8791
11
156.377
21
-85.9277
0
LINE
8
BLACK
6
CONTINUOUS
10
156.377
20
-85.9277
11
156.252
21
-85.94
0
LINE
8
BLACK
6
CONTINUOUS
10
156.252
20
-85.94
11
156.168
21
-85.94
0
LINE
8
BLACK
6
CONTINUOUS
10
156.168
20
-85.94
11
156.043
21
-85.9277
0
LINE
8
BLACK
6
CONTINUOUS
10
156.043
20
-85.9277
11
155.883
21
-85.8791
0
LINE
8
BLACK
6
CONTINUOUS
10
155.883
20
-85.8791
11
155.735
21
-85.8002
0
LINE
8
BLACK
6
CONTINUOUS
10
155.735
20
-85.8002
11
155.606
21
-85.6939
0
LINE
8
BLACK
6
CONTINUOUS
10
155.606
20
-85.6939
11
155.5
21
-85.5645
0
LINE
8
BLACK
6
CONTINUOUS
10
155.5
20
-85.5645
11
155.421
21
-85.4169
0
LINE
8
BLACK
6
CONTINUOUS
10
155.421
20
-85.4169
11
155.372
21
-85.2566
0
LINE
8
BLACK
6
CONTINUOUS
10
155.372
20
-85.2566
11
155.356
21
-85.09
0
LINE
8
BLACK
6
CONTINUOUS
10
155.356
20
-85.09
11
155.372
21
-84.9234
0
LINE
8
BLACK
6
CONTINUOUS
10
155.372
20
-84.9234
11
155.421
21
-84.7631
0
LINE
8
BLACK
6
CONTINUOUS
10
155.421
20
-84.7631
11
155.5
21
-84.6155
0
LINE
8
BLACK
6
CONTINUOUS
10
155.5
20
-84.6155
11
155.606
21
-84.4861
0
LINE
8
BLACK
6
CONTINUOUS
10
155.606
20
-84.4861
11
155.735
21
-84.3798
0
LINE
8
BLACK
6
CONTINUOUS
10
155.735
20
-84.3798
11
155.883
21
-84.3009
0
LINE
8
BLACK
6
CONTINUOUS
10
155.883
20
-84.3009
11
156.043
21
-84.2523
0
LINE
8
BLACK
6
CONTINUOUS
10
156.043
20
-84.2523
11
156.168
21
-84.24
0
LINE
8
BLACK
6
CONTINUOUS
10
156.168
20
-84.24
11
156.252
21
-84.24
0
LINE
8
BLACK
6
CONTINUOUS
10
156.252
20
-84.24
11
156.377
21
-84.2523
0
LINE
8
BLACK
6
CONTINUOUS
10
158.917
20
-81.7123
11
159.077
21
-81.7609
0
LINE
8
BLACK
6
CONTINUOUS
10
159.077
20
-81.7609
11
159.225
21
-81.8398
0
LINE
8
BLACK
6
CONTINUOUS
10
159.225
20
-81.8398
11
159.354
21
-81.9461
0
LINE
8
BLACK
6
CONTINUOUS
10
159.354
20
-81.9461
11
159.46
21
-82.0755
0
LINE
8
BLACK
6
CONTINUOUS
10
159.46
20
-82.0755
11
159.539
21
-82.2231
0
LINE
8
BLACK
6
CONTINUOUS
10
159.539
20
-82.2231
11
159.588
21
-82.3834
0
LINE
8
BLACK
6
CONTINUOUS
10
159.588
20
-82.3834
11
159.604
21
-82.55
0
LINE
8
BLACK
6
CONTINUOUS
10
159.604
20
-82.55
11
159.588
21
-82.7166
0
LINE
8
BLACK
6
CONTINUOUS
10
159.588
20
-82.7166
11
159.539
21
-82.8769
0
LINE
8
BLACK
6
CONTINUOUS
10
159.539
20
-82.8769
11
159.46
21
-83.0245
0
LINE
8
BLACK
6
CONTINUOUS
10
159.46
20
-83.0245
11
159.354
21
-83.1539
0
LINE
8
BLACK
6
CONTINUOUS
10
159.354
20
-83.1539
11
159.225
21
-83.2602
0
LINE
8
BLACK
6
CONTINUOUS
10
159.225
20
-83.2602
11
159.077
21
-83.3391
0
LINE
8
BLACK
6
CONTINUOUS
10
159.077
20
-83.3391
11
158.917
21
-83.3877
0
LINE
8
BLACK
6
CONTINUOUS
10
158.917
20
-83.3877
11
158.792
21
-83.4
0
LINE
8
BLACK
6
CONTINUOUS
10
158.792
20
-83.4
11
158.708
21
-83.4
0
LINE
8
BLACK
6
CONTINUOUS
10
158.708
20
-83.4
11
158.583
21
-83.3877
0
LINE
8
BLACK
6
CONTINUOUS
10
158.583
20
-83.3877
11
158.423
21
-83.3391
0
LINE
8
BLACK
6
CONTINUOUS
10
158.423
20
-83.3391
11
158.275
21
-83.2602
0
LINE
8
BLACK
6
CONTINUOUS
10
158.275
20
-83.2602
11
158.146
21
-83.1539
0
LINE
8
BLACK
6
CONTINUOUS
10
158.146
20
-83.1539
11
158.04
21
-83.0245
0
LINE
8
BLACK
6
CONTINUOUS
10
158.04
20
-83.0245
11
157.961
21
-82.8769
0
LINE
8
BLACK
6
CONTINUOUS
10
157.961
20
-82.8769
11
157.912
21
-82.7166
0
LINE
8
BLACK
6
CONTINUOUS
10
157.912
20
-82.7166
11
157.896
21
-82.55
0
LINE
8
BLACK
6
CONTINUOUS
10
157.896
20
-82.55
11
157.912
21
-82.3834
0
LINE
8
BLACK
6
CONTINUOUS
10
157.912
20
-82.3834
11
157.961
21
-82.2231
0
LINE
8
BLACK
6
CONTINUOUS
10
157.961
20
-82.2231
11
158.04
21
-82.0755
0
LINE
8
BLACK
6
CONTINUOUS
10
158.04
20
-82.0755
11
158.146
21
-81.9461
0
LINE
8
BLACK
6
CONTINUOUS
10
158.146
20
-81.9461
11
158.275
21
-81.8398
0
LINE
8
BLACK
6
CONTINUOUS
10
158.275
20
-81.8398
11
158.423
21
-81.7609
0
LINE
8
BLACK
6
CONTINUOUS
10
158.423
20
-81.7609
11
158.583
21
-81.7123
0
LINE
8
BLACK
6
CONTINUOUS
10
158.583
20
-81.7123
11
158.708
21
-81.7
0
LINE
8
BLACK
6
CONTINUOUS
10
158.708
20
-81.7
11
158.792
21
-81.7
0
LINE
8
BLACK
6
CONTINUOUS
10
158.792
20
-81.7
11
158.917
21
-81.7123
0
LINE
8
BLACK
6
CONTINUOUS
10
156.377
20
-81.7123
11
156.537
21
-81.7609
0
LINE
8
BLACK
6
CONTINUOUS
10
156.537
20
-81.7609
11
156.685
21
-81.8398
0
LINE
8
BLACK
6
CONTINUOUS
10
156.685
20
-81.8398
11
156.814
21
-81.9461
0
LINE
8
BLACK
6
CONTINUOUS
10
156.814
20
-81.9461
11
156.92
21
-82.0755
0
LINE
8
BLACK
6
CONTINUOUS
10
156.92
20
-82.0755
11
156.999
21
-82.2231
0
LINE
8
BLACK
6
CONTINUOUS
10
156.999
20
-82.2231
11
157.048
21
-82.3834
0
LINE
8
BLACK
6
CONTINUOUS
10
157.048
20
-82.3834
11
157.064
21
-82.55
0
LINE
8
BLACK
6
CONTINUOUS
10
157.064
20
-82.55
11
157.048
21
-82.7166
0
LINE
8
BLACK
6
CONTINUOUS
10
157.048
20
-82.7166
11
156.999
21
-82.8769
0
LINE
8
BLACK
6
CONTINUOUS
10
156.999
20
-82.8769
11
156.92
21
-83.0245
0
LINE
8
BLACK
6
CONTINUOUS
10
156.92
20
-83.0245
11
156.814
21
-83.1539
0
LINE
8
BLACK
6
CONTINUOUS
10
156.814
20
-83.1539
11
156.685
21
-83.2602
0
LINE
8
BLACK
6
CONTINUOUS
10
156.685
20
-83.2602
11
156.537
21
-83.3391
0
LINE
8
BLACK
6
CONTINUOUS
10
156.537
20
-83.3391
11
156.377
21
-83.3877
0
LINE
8
BLACK
6
CONTINUOUS
10
156.377
20
-83.3877
11
156.252
21
-83.4
0
LINE
8
BLACK
6
CONTINUOUS
10
156.252
20
-83.4
11
156.168
21
-83.4
0
LINE
8
BLACK
6
CONTINUOUS
10
156.168
20
-83.4
11
156.043
21
-83.3877
0
LINE
8
BLACK
6
CONTINUOUS
10
156.043
20
-83.3877
11
155.883
21
-83.3391
0
LINE
8
BLACK
6
CONTINUOUS
10
155.883
20
-83.3391
11
155.735
21
-83.2602
0
LINE
8
BLACK
6
CONTINUOUS
10
155.735
20
-83.2602
11
155.606
21
-83.1539
0
LINE
8
BLACK
6
CONTINUOUS
10
155.606
20
-83.1539
11
155.5
21
-83.0245
0
LINE
8
BLACK
6
CONTINUOUS
10
155.5
20
-83.0245
11
155.421
21
-82.8769
0
LINE
8
BLACK
6
CONTINUOUS
10
155.421
20
-82.8769
11
155.372
21
-82.7166
0
LINE
8
BLACK
6
CONTINUOUS
10
155.372
20
-82.7166
11
155.356
21
-82.55
0
LINE
8
BLACK
6
CONTINUOUS
10
155.356
20
-82.55
11
155.372
21
-82.3834
0
LINE
8
BLACK
6
CONTINUOUS
10
155.372
20
-82.3834
11
155.421
21
-82.2231
0
LINE
8
BLACK
6
CONTINUOUS
10
155.421
20
-82.2231
11
155.5
21
-82.0755
0
LINE
8
BLACK
6
CONTINUOUS
10
155.5
20
-82.0755
11
155.606
21
-81.9461
0
LINE
8
BLACK
6
CONTINUOUS
10
155.606
20
-81.9461
11
155.735
21
-81.8398
0
LINE
8
BLACK
6
CONTINUOUS
10
155.735
20
-81.8398
11
155.883
21
-81.7609
0
LINE
8
BLACK
6
CONTINUOUS
10
155.883
20
-81.7609
11
156.043
21
-81.7123
0
LINE
8
BLACK
6
CONTINUOUS
10
156.043
20
-81.7123
11
156.168
21
-81.7
0
LINE
8
BLACK
6
CONTINUOUS
10
156.168
20
-81.7
11
156.252
21
-81.7
0
LINE
8
BLACK
6
CONTINUOUS
10
156.252
20
-81.7
11
156.377
21
-81.7123
0
LINE
8
BLACK
6
CONTINUOUS
10
158.917
20
-79.1723
11
159.077
21
-79.2209
0
LINE
8
BLACK
6
CONTINUOUS
10
159.077
20
-79.2209
11
159.225
21
-79.2998
0
LINE
8
BLACK
6
CONTINUOUS
10
159.225
20
-79.2998
11
159.354
21
-79.4061
0
LINE
8
BLACK
6
CONTINUOUS
10
159.354
20
-79.4061
11
159.46
21
-79.5355
0
LINE
8
BLACK
6
CONTINUOUS
10
159.46
20
-79.5355
11
159.539
21
-79.6831
0
LINE
8
BLACK
6
CONTINUOUS
10
159.539
20
-79.6831
11
159.588
21
-79.8434
0
LINE
8
BLACK
6
CONTINUOUS
10
159.588
20
-79.8434
11
159.604
21
-80.01
0
LINE
8
BLACK
6
CONTINUOUS
10
159.604
20
-80.01
11
159.588
21
-80.1766
0
LINE
8
BLACK
6
CONTINUOUS
10
159.588
20
-80.1766
11
159.539
21
-80.3369
0
LINE
8
BLACK
6
CONTINUOUS
10
159.539
20
-80.3369
11
159.46
21
-80.4845
0
LINE
8
BLACK
6
CONTINUOUS
10
159.46
20
-80.4845
11
159.354
21
-80.6139
0
LINE
8
BLACK
6
CONTINUOUS
10
159.354
20
-80.6139
11
159.225
21
-80.7202
0
LINE
8
BLACK
6
CONTINUOUS
10
159.225
20
-80.7202
11
159.077
21
-80.7991
0
LINE
8
BLACK
6
CONTINUOUS
10
159.077
20
-80.7991
11
158.917
21
-80.8477
0
LINE
8
BLACK
6
CONTINUOUS
10
158.917
20
-80.8477
11
158.792
21
-80.86
0
LINE
8
BLACK
6
CONTINUOUS
10
158.792
20
-80.86
11
158.708
21
-80.86
0
LINE
8
BLACK
6
CONTINUOUS
10
158.708
20
-80.86
11
158.583
21
-80.8477
0
LINE
8
BLACK
6
CONTINUOUS
10
158.583
20
-80.8477
11
158.423
21
-80.7991
0
LINE
8
BLACK
6
CONTINUOUS
10
158.423
20
-80.7991
11
158.275
21
-80.7202
0
LINE
8
BLACK
6
CONTINUOUS
10
158.275
20
-80.7202
11
158.146
21
-80.6139
0
LINE
8
BLACK
6
CONTINUOUS
10
158.146
20
-80.6139
11
158.04
21
-80.4845
0
LINE
8
BLACK
6
CONTINUOUS
10
158.04
20
-80.4845
11
157.961
21
-80.3369
0
LINE
8
BLACK
6
CONTINUOUS
10
157.961
20
-80.3369
11
157.912
21
-80.1766
0
LINE
8
BLACK
6
CONTINUOUS
10
157.912
20
-80.1766
11
157.896
21
-80.01
0
LINE
8
BLACK
6
CONTINUOUS
10
157.896
20
-80.01
11
157.912
21
-79.8434
0
LINE
8
BLACK
6
CONTINUOUS
10
157.912
20
-79.8434
11
157.961
21
-79.6831
0
LINE
8
BLACK
6
CONTINUOUS
10
157.961
20
-79.6831
11
158.04
21
-79.5355
0
LINE
8
BLACK
6
CONTINUOUS
10
158.04
20
-79.5355
11
158.146
21
-79.4061
0
LINE
8
BLACK
6
CONTINUOUS
10
158.146
20
-79.4061
11
158.275
21
-79.2998
0
LINE
8
BLACK
6
CONTINUOUS
10
158.275
20
-79.2998
11
158.423
21
-79.2209
0
LINE
8
BLACK
6
CONTINUOUS
10
158.423
20
-79.2209
11
158.583
21
-79.1723
0
LINE
8
BLACK
6
CONTINUOUS
10
158.583
20
-79.1723
11
158.708
21
-79.16
0
LINE
8
BLACK
6
CONTINUOUS
10
158.708
20
-79.16
11
158.792
21
-79.16
0
LINE
8
BLACK
6
CONTINUOUS
10
158.792
20
-79.16
11
158.917
21
-79.1723
0
LINE
8
BLACK
6
CONTINUOUS
10
156.377
20
-79.1723
11
156.537
21
-79.2209
0
LINE
8
BLACK
6
CONTINUOUS
10
156.537
20
-79.2209
11
156.685
21
-79.2998
0
LINE
8
BLACK
6
CONTINUOUS
10
156.685
20
-79.2998
11
156.814
21
-79.4061
0
LINE
8
BLACK
6
CONTINUOUS
10
156.814
20
-79.4061
11
156.92
21
-79.5355
0
LINE
8
BLACK
6
CONTINUOUS
10
156.92
20
-79.5355
11
156.999
21
-79.6831
0
LINE
8
BLACK
6
CONTINUOUS
10
156.999
20
-79.6831
11
157.048
21
-79.8434
0
LINE
8
BLACK
6
CONTINUOUS
10
157.048
20
-79.8434
11
157.064
21
-80.01
0
LINE
8
BLACK
6
CONTINUOUS
10
157.064
20
-80.01
11
157.048
21
-80.1766
0
LINE
8
BLACK
6
CONTINUOUS
10
157.048
20
-80.1766
11
156.999
21
-80.3369
0
LINE
8
BLACK
6
CONTINUOUS
10
156.999
20
-80.3369
11
156.92
21
-80.4845
0
LINE
8
BLACK
6
CONTINUOUS
10
156.92
20
-80.4845
11
156.814
21
-80.6139
0
LINE
8
BLACK
6
CONTINUOUS
10
156.814
20
-80.6139
11
156.685
21
-80.7202
0
LINE
8
BLACK
6
CONTINUOUS
10
156.685
20
-80.7202
11
156.537
21
-80.7991
0
LINE
8
BLACK
6
CONTINUOUS
10
156.537
20
-80.7991
11
156.377
21
-80.8477
0
LINE
8
BLACK
6
CONTINUOUS
10
156.377
20
-80.8477
11
156.252
21
-80.86
0
LINE
8
BLACK
6
CONTINUOUS
10
156.252
20
-80.86
11
156.168
21
-80.86
0
LINE
8
BLACK
6
CONTINUOUS
10
156.168
20
-80.86
11
156.043
21
-80.8477
0
LINE
8
BLACK
6
CONTINUOUS
10
156.043
20
-80.8477
11
155.883
21
-80.7991
0
LINE
8
BLACK
6
CONTINUOUS
10
155.883
20
-80.7991
11
155.735
21
-80.7202
0
LINE
8
BLACK
6
CONTINUOUS
10
155.735
20
-80.7202
11
155.606
21
-80.6139
0
LINE
8
BLACK
6
CONTINUOUS
10
155.606
20
-80.6139
11
155.5
21
-80.4845
0
LINE
8
BLACK
6
CONTINUOUS
10
155.5
20
-80.4845
11
155.421
21
-80.3369
0
LINE
8
BLACK
6
CONTINUOUS
10
155.421
20
-80.3369
11
155.372
21
-80.1766
0
LINE
8
BLACK
6
CONTINUOUS
10
155.372
20
-80.1766
11
155.356
21
-80.01
0
LINE
8
BLACK
6
CONTINUOUS
10
155.356
20
-80.01
11
155.372
21
-79.8434
0
LINE
8
BLACK
6
CONTINUOUS
10
155.372
20
-79.8434
11
155.421
21
-79.6831
0
LINE
8
BLACK
6
CONTINUOUS
10
155.421
20
-79.6831
11
155.5
21
-79.5355
0
LINE
8
BLACK
6
CONTINUOUS
10
155.5
20
-79.5355
11
155.606
21
-79.4061
0
LINE
8
BLACK
6
CONTINUOUS
10
155.606
20
-79.4061
11
155.735
21
-79.2998
0
LINE
8
BLACK
6
CONTINUOUS
10
155.735
20
-79.2998
11
155.883
21
-79.2209
0
LINE
8
BLACK
6
CONTINUOUS
10
155.883
20
-79.2209
11
156.043
21
-79.1723
0
LINE
8
BLACK
6
CONTINUOUS
10
156.043
20
-79.1723
11
156.168
21
-79.16
0
LINE
8
BLACK
6
CONTINUOUS
10
156.168
20
-79.16
11
156.252
21
-79.16
0
LINE
8
BLACK
6
CONTINUOUS
10
156.252
20
-79.16
11
156.377
21
-79.1723
0
LINE
8
BLACK
6
CONTINUOUS
10
158.917
20
-76.6323
11
159.077
21
-76.6809
0
LINE
8
BLACK
6
CONTINUOUS
10
159.077
20
-76.6809
11
159.225
21
-76.7598
0
LINE
8
BLACK
6
CONTINUOUS
10
159.225
20
-76.7598
11
159.354
21
-76.8661
0
LINE
8
BLACK
6
CONTINUOUS
10
159.354
20
-76.8661
11
159.46
21
-76.9955
0
LINE
8
BLACK
6
CONTINUOUS
10
159.46
20
-76.9955
11
159.539
21
-77.1431
0
LINE
8
BLACK
6
CONTINUOUS
10
159.539
20
-77.1431
11
159.588
21
-77.3034
0
LINE
8
BLACK
6
CONTINUOUS
10
159.588
20
-77.3034
11
159.604
21
-77.47
0
LINE
8
BLACK
6
CONTINUOUS
10
159.604
20
-77.47
11
159.588
21
-77.6366
0
LINE
8
BLACK
6
CONTINUOUS
10
159.588
20
-77.6366
11
159.539
21
-77.7969
0
LINE
8
BLACK
6
CONTINUOUS
10
159.539
20
-77.7969
11
159.46
21
-77.9445
0
LINE
8
BLACK
6
CONTINUOUS
10
159.46
20
-77.9445
11
159.354
21
-78.0739
0
LINE
8
BLACK
6
CONTINUOUS
10
159.354
20
-78.0739
11
159.225
21
-78.1802
0
LINE
8
BLACK
6
CONTINUOUS
10
159.225
20
-78.1802
11
159.077
21
-78.2591
0
LINE
8
BLACK
6
CONTINUOUS
10
159.077
20
-78.2591
11
158.917
21
-78.3077
0
LINE
8
BLACK
6
CONTINUOUS
10
158.917
20
-78.3077
11
158.792
21
-78.32
0
LINE
8
BLACK
6
CONTINUOUS
10
158.792
20
-78.32
11
158.708
21
-78.32
0
LINE
8
BLACK
6
CONTINUOUS
10
158.708
20
-78.32
11
158.583
21
-78.3077
0
LINE
8
BLACK
6
CONTINUOUS
10
158.583
20
-78.3077
11
158.423
21
-78.2591
0
LINE
8
BLACK
6
CONTINUOUS
10
158.423
20
-78.2591
11
158.275
21
-78.1802
0
LINE
8
BLACK
6
CONTINUOUS
10
158.275
20
-78.1802
11
158.146
21
-78.0739
0
LINE
8
BLACK
6
CONTINUOUS
10
158.146
20
-78.0739
11
158.04
21
-77.9445
0
LINE
8
BLACK
6
CONTINUOUS
10
158.04
20
-77.9445
11
157.961
21
-77.7969
0
LINE
8
BLACK
6
CONTINUOUS
10
157.961
20
-77.7969
11
157.912
21
-77.6366
0
LINE
8
BLACK
6
CONTINUOUS
10
157.912
20
-77.6366
11
157.896
21
-77.47
0
LINE
8
BLACK
6
CONTINUOUS
10
157.896
20
-77.47
11
157.912
21
-77.3034
0
LINE
8
BLACK
6
CONTINUOUS
10
157.912
20
-77.3034
11
157.961
21
-77.1431
0
LINE
8
BLACK
6
CONTINUOUS
10
157.961
20
-77.1431
11
158.04
21
-76.9955
0
LINE
8
BLACK
6
CONTINUOUS
10
158.04
20
-76.9955
11
158.146
21
-76.8661
0
LINE
8
BLACK
6
CONTINUOUS
10
158.146
20
-76.8661
11
158.275
21
-76.7598
0
LINE
8
BLACK
6
CONTINUOUS
10
158.275
20
-76.7598
11
158.423
21
-76.6809
0
LINE
8
BLACK
6
CONTINUOUS
10
158.423
20
-76.6809
11
158.583
21
-76.6323
0
LINE
8
BLACK
6
CONTINUOUS
10
158.583
20
-76.6323
11
158.708
21
-76.62
0
LINE
8
BLACK
6
CONTINUOUS
10
158.708
20
-76.62
11
158.792
21
-76.62
0
LINE
8
BLACK
6
CONTINUOUS
10
158.792
20
-76.62
11
158.917
21
-76.6323
0
LINE
8
BLACK
6
CONTINUOUS
10
157.06
20
-78.32
11
155.36
21
-78.32
0
LINE
8
BLACK
6
CONTINUOUS
10
155.36
20
-78.32
11
155.36
21
-76.62
0
LINE
8
BLACK
6
CONTINUOUS
10
155.36
20
-76.62
11
157.06
21
-76.62
0
LINE
8
BLACK
6
CONTINUOUS
10
157.06
20
-76.62
11
157.06
21
-78.32
0
CIRCLE
8
BLACK
10
158.75
20
-100.33
40
0.5
0
CIRCLE
8
BLACK
10
156.21
20
-100.33
40
0.5
0
CIRCLE
8
BLACK
10
158.75
20
-97.79
40
0.5
0
CIRCLE
8
BLACK
10
156.21
20
-97.79
40
0.5
0
CIRCLE
8
BLACK
10
158.75
20
-95.25
40
0.5
0
CIRCLE
8
BLACK
10
156.21
20
-95.25
40
0.5
0
CIRCLE
8
BLACK
10
158.75
20
-92.71
40
0.5
0
CIRCLE
8
BLACK
10
156.21
20
-92.71
40
0.5
0
CIRCLE
8
BLACK
10
158.75
20
-90.17
40
0.5
0
CIRCLE
8
BLACK
10
156.21
20
-90.17
40
0.5
0
CIRCLE
8
BLACK
10
158.75
20
-87.63
40
0.5
0
CIRCLE
8
BLACK
10
156.21
20
-87.63
40
0.5
0
CIRCLE
8
BLACK
10
158.75
20
-85.09
40
0.5
0
CIRCLE
8
BLACK
10
156.21
20
-85.09
40
0.5
0
CIRCLE
8
BLACK
10
158.75
20
-82.55
40
0.5
0
CIRCLE
8
BLACK
10
156.21
20
-82.55
40
0.5
0
CIRCLE
8
BLACK
10
158.75
20
-80.01
40
0.5
0
CIRCLE
8
BLACK
10
156.21
20
-80.01
40
0.5
0
CIRCLE
8
BLACK
10
158.75
20
-77.47
40
0.5
0
CIRCLE
8
BLACK
10
156.21
20
-77.47
40
0.5
  0
ENDSEC
  0
EOF
