  0
SECTION
  2
HEADER
  9
$ACADVER
  1
AC1014
  9
$HANDSEED
  5
FFFF
  9
$MEASUREMENT
 70
     1
  0
ENDSEC
  0
SECTION
  2
TABLES
  0
TABLE
  2
VPORT
  5
8
330
0
100
AcDbSymbolTable
 70
     4
  0
VPORT
  5
2E
330
8
100
AcDbSymbolTableRecord
100
AcDbViewportTableRecord
  2
*ACTIVE
 70
     0
 10
0.0
 20
0.0
 11
1.0
 21
1.0
 12
210.0
 22
148.5
 13
0.0
 23
0.0
 14
10.0
 24
10.0
 15
10.0
 25
10.0
 16
0.0
 26
0.0
 36
1.0
 17
0.0
 27
0.0
 37
0.0
 40
341.0
 41
1.24
 42
50.0
 43
0.0
 44
0.0
 50
0.0
 51
0.0
 71
     0
 72
   100
 73
     1
 74
     3
 75
     0
 76
     0
 77
     0
 78
     0
  0
ENDTAB
  0
TABLE
  2
LTYPE
  5
5
330
0
100
AcDbSymbolTable
 70
     1
  0
LTYPE
  5
14
330
5
100
AcDbSymbolTableRecord
100
AcDbLinetypeTableRecord
  2
BYBLOCK
 70
     0
  3

 72
    65
 73
     0
 40
0.0
  0
LTYPE
  5
15
330
5
100
AcDbSymbolTableRecord
100
AcDbLinetypeTableRecord
  2
BYLAYER
 70
     0
  3

 72
    65
 73
     0
 40
0.0
  0
LTYPE
  5
16
330
5
100
AcDbSymbolTableRecord
100
AcDbLinetypeTableRecord
  2
CONTINUOUS
 70
     0
  3
Solid line
 72
    65
 73
     0
 40
0.0
  0
ENDTAB
  0
TABLE
  2
LAYER
  5
2
100
AcDbSymbolTable
 70
2
  0
LAYER
  5
50
100
AcDbSymbolTableRecord
100
AcDbLayerTableRecord
  2
0
 70
0
  6
CONTINUOUS
  0
LAYER
  5
51
100
AcDbSymbolTableRecord
100
AcDbLayerTableRecord
  2
Front
 70
0
  6
CONTINUOUS
  0
ENDTAB
  0
TABLE
  2
STYLE
  5
3
330
0
100
AcDbSymbolTable
 70
     1
  0
STYLE
  5
11
330
3
100
AcDbSymbolTableRecord
100
AcDbTextStyleTableRecord
  2
STANDARD
 70
     0
 40
0.0
 41
1.0
 50
0.0
 71
     0
 42
2.5
  3
txt
  4

  0
ENDTAB
  0
TABLE
  2
VIEW
  5
6
330
0
100
AcDbSymbolTable
 70
     0
  0
ENDTAB
  0
TABLE
  2
UCS
  5
7
330
0
100
AcDbSymbolTable
 70
     0
  0
ENDTAB
  0
TABLE
  2
APPID
  5
9
330
0
100
AcDbSymbolTable
 70
     2
  0
APPID
  5
12
330
9
100
AcDbSymbolTableRecord
100
AcDbRegAppTableRecord
  2
ACAD
 70
     0
  0
ENDTAB
  0
TABLE
  2
DIMSTYLE
  5
A
330
0
100
AcDbSymbolTable
 70
     1
  0
DIMSTYLE
105
27
330
A
100
AcDbSymbolTableRecord
100
AcDbDimStyleTableRecord
  2
ISO-25
 70
     0
  3

  4

  5

  6

  7

 40
1.0
 41
2.5
 42
0.625
 43
3.75
 44
1.25
 45
0.0
 46
0.0
 47
0.0
 48
0.0
140
2.5
141
2.5
142
0.0
143
0.03937007874016
144
1.0
145
0.0
146
1.0
147
0.625
 71
     0
 72
     0
 73
     0
 74
     0
 75
     0
 76
     0
 77
     1
 78
     8
170
     0
171
     3
172
     1
173
     0
174
     0
175
     0
176
     0
177
     0
178
     0
270
     2
271
     2
272
     2
273
     2
274
     3
340
11
275
     0
280
     0
281
     0
282
     0
283
     0
284
     8
285
     0
286
     0
287
     3
288
     0
  0
ENDTAB
  0
TABLE
  2
BLOCK_RECORD
  5
1
330
0
100
AcDbSymbolTable
 70
     1
  0
BLOCK_RECORD
  5
1F
330
1
100
AcDbSymbolTableRecord
100
AcDbBlockTableRecord
  2
*MODEL_SPACE
  0
BLOCK_RECORD
  5
1B
330
1
100
AcDbSymbolTableRecord
100
AcDbBlockTableRecord
  2
*PAPER_SPACE
  0
ENDTAB
  0
ENDSEC
  0
SECTION
  2
BLOCKS
  0
BLOCK
  5
20
330
1F
100
AcDbEntity
  8
0
100
AcDbBlockBegin
  2
*MODEL_SPACE
 70
     0
 10
0.0
 20
0.0
 30
0.0
  3
*MODEL_SPACE
  1

  0
ENDBLK
  5
21
330
1F
100
AcDbEntity
  8
0
100
AcDbBlockEnd
  0
BLOCK
  5
1C
330
1B
100
AcDbEntity
 67
     1
  8
0
100
AcDbBlockBegin
  2
*PAPER_SPACE
  1

  0
ENDBLK
  5
1D
330
1B
100
AcDbEntity
 67
     1
  8
0
100
AcDbBlockEnd
  0
ENDSEC
  0
SECTION
  2
ENTITIES
  0
SPLINE
  5
100
100
AcDbEntity
  8
Front
 62
7
100
AcDbSpline
 70
8
 71
3
 72
8
 73
4
 74
0
 40
0
 40
0
 40
0
 40
0
 40
1
 40
1
 40
1
 40
1
 10
172.442161
 20
-27.937139
 30
0.0
 10
172.414386
 20
-27.938105
 30
0.0
 10
172.386966
 20
-27.943693
 30
0.0
 10
172.361029
 20
-27.953676
 30
0.0
  0
SPLINE
  5
101
100
AcDbEntity
  8
Front
 62
7
100
AcDbSpline
 70
8
 71
3
 72
8
 73
4
 74
0
 40
0
 40
0
 40
0
 40
0
 40
1
 40
1
 40
1
 40
1
 10
172.361029
 20
-27.953676
 30
0.0
 10
172.315377
 20
-27.969679
 30
0.0
 10
172.275347
 20
-27.998580
 30
0.0
 10
172.245790
 20
-28.036877
 30
0.0
  0
SPLINE
  5
102
100
AcDbEntity
  8
Front
 62
7
100
AcDbSpline
 70
8
 71
3
 72
8
 73
4
 74
0
 40
0
 40
0
 40
0
 40
0
 40
1
 40
1
 40
1
 40
1
 10
172.245790
 20
-28.036877
 30
0.0
 10
172.245790
 20
-28.036877
 30
0.0
 10
171.111492
 20
-29.169105
 30
0.0
 10
171.111492
 20
-29.169105
 30
0.0
  0
SPLINE
  5
103
100
AcDbEntity
  8
Front
 62
7
100
AcDbSpline
 70
8
 71
3
 72
8
 73
4
 74
0
 40
0
 40
0
 40
0
 40
0
 40
1
 40
1
 40
1
 40
1
 10
171.111492
 20
-29.169105
 30
0.0
 10
171.075982
 20
-29.195634
 30
0.0
 10
171.048161
 20
-29.231125
 30
0.0
 10
171.030879
 20
-29.271944
 30
0.0
  0
SPLINE
  5
104
100
AcDbEntity
  8
Front
 62
7
100
AcDbSpline
 70
8
 71
3
 72
8
 73
4
 74
0
 40
0
 40
0
 40
0
 40
0
 40
1
 40
1
 40
1
 40
1
 10
171.030879
 20
-29.271944
 30
0.0
 10
171.010918
 20
-29.315557
 30
0.0
 10
171.003922
 20
-29.363990
 30
0.0
 10
171.010723
 20
-29.411469
 30
0.0
  0
SPLINE
  5
105
100
AcDbEntity
  8
Front
 62
7
100
AcDbSpline
 70
8
 71
3
 72
8
 73
4
 74
0
 40
0
 40
0
 40
0
 40
0
 40
1
 40
1
 40
1
 40
1
 10
171.010723
 20
-29.411469
 30
0.0
 10
171.010723
 20
-29.411469
 30
0.0
 10
171.010723
 20
-38.313250
 30
0.0
 10
171.010723
 20
-38.313250
 30
0.0
  0
SPLINE
  5
106
100
AcDbEntity
  8
Front
 62
7
100
AcDbSpline
 70
8
 71
3
 72
8
 73
4
 74
0
 40
0
 40
0
 40
0
 40
0
 40
1
 40
1
 40
1
 40
1
 10
171.010723
 20
-38.313250
 30
0.0
 10
171.005056
 20
-38.355362
 30
0.0
 10
171.010214
 20
-38.398223
 30
0.0
 10
171.025709
 20
-38.437789
 30
0.0
  0
SPLINE
  5
107
100
AcDbEntity
  8
Front
 62
7
100
AcDbSpline
 70
8
 71
3
 72
8
 73
4
 74
0
 40
0
 40
0
 40
0
 40
0
 40
1
 40
1
 40
1
 40
1
 10
171.025709
 20
-38.437789
 30
0.0
 10
171.041832
 20
-38.482812
 30
0.0
 10
171.070526
 20
-38.522267
 30
0.0
 10
171.108392
 20
-38.551478
 30
0.0
  0
LINE
  5
108
100
AcDbEntity
  8
Front
 62
7
100
AcDbLine
 10
171.108392
 20
-38.551478
 30
0.0
 11
173.730454
 21
-41.173540
 31
0.0
  0
SPLINE
  5
109
100
AcDbEntity
  8
Front
 62
7
100
AcDbSpline
 70
8
 71
3
 72
8
 73
4
 74
0
 40
0
 40
0
 40
0
 40
0
 40
1
 40
1
 40
1
 40
1
 10
173.730454
 20
-41.173540
 30
0.0
 10
173.648338
 20
-41.313944
 30
0.0
 10
173.597647
 20
-41.474864
 30
0.0
 10
173.597647
 20
-41.648962
 30
0.0
  0
SPLINE
  5
10a
100
AcDbEntity
  8
Front
 62
7
100
AcDbSpline
 70
8
 71
3
 72
8
 73
4
 74
0
 40
0
 40
0
 40
0
 40
0
 40
1
 40
1
 40
1
 40
1
 10
173.597647
 20
-41.648962
 30
0.0
 10
173.597647
 20
-42.177293
 30
0.0
 10
174.031756
 20
-42.606082
 30
0.0
 10
174.559862
 20
-42.599293
 30
0.0
  0
SPLINE
  5
10b
100
AcDbEntity
  8
Front
 62
7
100
AcDbSpline
 70
8
 71
3
 72
8
 73
4
 74
0
 40
0
 40
0
 40
0
 40
0
 40
1
 40
1
 40
1
 40
1
 10
174.559862
 20
-42.599293
 30
0.0
 10
175.087968
 20
-42.606082
 30
0.0
 10
175.522593
 20
-42.177293
 30
0.0
 10
175.522593
 20
-41.648962
 30
0.0
  0
SPLINE
  5
10c
100
AcDbEntity
  8
Front
 62
7
100
AcDbSpline
 70
8
 71
3
 72
8
 73
4
 74
0
 40
0
 40
0
 40
0
 40
0
 40
1
 40
1
 40
1
 40
1
 10
175.522593
 20
-41.648962
 30
0.0
 10
175.522593
 20
-41.120632
 30
0.0
 10
175.087968
 20
-40.692361
 30
0.0
 10
174.559862
 20
-40.699151
 30
0.0
  0
SPLINE
  5
10d
100
AcDbEntity
  8
Front
 62
7
100
AcDbSpline
 70
8
 71
3
 72
8
 73
4
 74
0
 40
0
 40
0
 40
0
 40
0
 40
1
 40
1
 40
1
 40
1
 10
174.559862
 20
-40.699151
 30
0.0
 10
174.387894
 20
-40.696939
 30
0.0
 10
174.228355
 20
-40.744667
 30
0.0
 10
174.088055
 20
-40.823174
 30
0.0
  0
LINE
  5
10e
100
AcDbEntity
  8
Front
 62
7
100
AcDbLine
 10
174.088055
 20
-40.823174
 30
0.0
 11
171.510436
 21
-38.245553
 31
0.0
  0
LINE
  5
10f
100
AcDbEntity
  8
Front
 62
7
100
AcDbLine
 10
171.510436
 20
-38.245553
 30
0.0
 11
171.510436
 21
-29.477099
 31
0.0
  0
LINE
  5
110
100
AcDbEntity
  8
Front
 62
7
100
AcDbLine
 10
171.510436
 20
-29.477099
 30
0.0
 11
172.550164
 21
-28.439954
 31
0.0
  0
LINE
  5
111
100
AcDbEntity
  8
Front
 62
7
100
AcDbLine
 10
172.550164
 20
-28.439954
 30
0.0
 11
181.266427
 21
-28.439954
 31
0.0
  0
LINE
  5
112
100
AcDbEntity
  8
Front
 62
7
100
AcDbLine
 10
181.266427
 20
-28.439954
 30
0.0
 11
187.045402
 21
-34.218926
 31
0.0
  0
LINE
  5
113
100
AcDbEntity
  8
Front
 62
7
100
AcDbLine
 10
187.045402
 20
-34.218926
 30
0.0
 11
187.045402
 21
-41.395748
 31
0.0
  0
LINE
  5
114
100
AcDbEntity
  8
Front
 62
7
100
AcDbLine
 10
187.045402
 20
-41.395748
 30
0.0
 11
187.041785
 21
-41.399365
 31
0.0
  0
LINE
  5
115
100
AcDbEntity
  8
Front
 62
7
100
AcDbLine
 10
187.041785
 20
-41.399365
 30
0.0
 11
186.645426
 21
-41.399365
 31
0.0
  0
LINE
  5
116
100
AcDbEntity
  8
Front
 62
7
100
AcDbLine
 10
186.645426
 20
-41.399365
 30
0.0
 11
186.645426
 21
-41.281027
 31
0.0
  0
LINE
  5
117
100
AcDbEntity
  8
Front
 62
7
100
AcDbLine
 10
186.645426
 20
-41.281027
 30
0.0
 11
184.245058
 21
-41.281027
 31
0.0
  0
LINE
  5
118
100
AcDbEntity
  8
Front
 62
7
100
AcDbLine
 10
184.245058
 20
-41.281027
 30
0.0
 11
184.245058
 21
-42.020001
 31
0.0
  0
LINE
  5
119
100
AcDbEntity
  8
Front
 62
7
100
AcDbLine
 10
184.245058
 20
-42.020001
 30
0.0
 11
186.645426
 21
-42.020001
 31
0.0
  0
LINE
  5
11a
100
AcDbEntity
  8
Front
 62
7
100
AcDbLine
 10
186.645426
 20
-42.020001
 30
0.0
 11
186.645426
 21
-41.899078
 31
0.0
  0
LINE
  5
11b
100
AcDbEntity
  8
Front
 62
7
100
AcDbLine
 10
186.645426
 20
-41.899078
 30
0.0
 11
187.108963
 21
-41.899078
 31
0.0
  0
SPLINE
  5
11c
100
AcDbEntity
  8
Front
 62
7
100
AcDbSpline
 70
8
 71
3
 72
8
 73
4
 74
0
 40
0
 40
0
 40
0
 40
0
 40
1
 40
1
 40
1
 40
1
 10
187.108963
 20
-41.899078
 30
0.0
 10
187.151245
 20
-41.904835
 30
0.0
 10
187.194296
 20
-41.899676
 30
0.0
 10
187.234021
 20
-41.884092
 30
0.0
  0
SPLINE
  5
11d
100
AcDbEntity
  8
Front
 62
7
100
AcDbSpline
 70
8
 71
3
 72
8
 73
4
 74
0
 40
0
 40
0
 40
0
 40
0
 40
1
 40
1
 40
1
 40
1
 10
187.234021
 20
-41.884092
 30
0.0
 10
187.279867
 20
-41.867666
 30
0.0
 10
187.319920
 20
-41.838210
 30
0.0
 10
187.349260
 20
-41.799341
 30
0.0
  0
SPLINE
  5
11e
100
AcDbEntity
  8
Front
 62
7
100
AcDbSpline
 70
8
 71
3
 72
8
 73
4
 74
0
 40
0
 40
0
 40
0
 40
0
 40
1
 40
1
 40
1
 40
1
 10
187.349260
 20
-41.799341
 30
0.0
 10
187.349260
 20
-41.799341
 30
0.0
 10
187.448479
 20
-41.700122
 30
0.0
 10
187.448479
 20
-41.700122
 30
0.0
  0
SPLINE
  5
11f
100
AcDbEntity
  8
Front
 62
7
100
AcDbSpline
 70
8
 71
3
 72
8
 73
4
 74
0
 40
0
 40
0
 40
0
 40
0
 40
1
 40
1
 40
1
 40
1
 10
187.448479
 20
-41.700122
 30
0.0
 10
187.484239
 20
-41.672675
 30
0.0
 10
187.511914
 20
-41.636072
 30
0.0
 10
187.528576
 20
-41.594186
 30
0.0
  0
SPLINE
  5
120
100
AcDbEntity
  8
Front
 62
7
100
AcDbSpline
 70
8
 71
3
 72
8
 73
4
 74
0
 40
0
 40
0
 40
0
 40
0
 40
1
 40
1
 40
1
 40
1
 10
187.528576
 20
-41.594186
 30
0.0
 10
187.529105
 20
-41.592813
 30
0.0
 10
187.529622
 20
-41.591435
 30
0.0
 10
187.530127
 20
-41.590053
 30
0.0
  0
SPLINE
  5
121
100
AcDbEntity
  8
Front
 62
7
100
AcDbSpline
 70
8
 71
3
 72
8
 73
4
 74
0
 40
0
 40
0
 40
0
 40
0
 40
1
 40
1
 40
1
 40
1
 10
187.530127
 20
-41.590053
 30
0.0
 10
187.530476
 20
-41.589193
 30
0.0
 10
187.530821
 20
-41.588331
 30
0.0
 10
187.531161
 20
-41.587468
 30
0.0
  0
SPLINE
  5
122
100
AcDbEntity
  8
Front
 62
7
100
AcDbSpline
 70
8
 71
3
 72
8
 73
4
 74
0
 40
0
 40
0
 40
0
 40
0
 40
1
 40
1
 40
1
 40
1
 10
187.531161
 20
-41.587468
 30
0.0
 10
187.546570
 20
-41.547698
 30
0.0
 10
187.551550
 20
-41.504647
 30
0.0
 10
187.545629
 20
-41.462410
 30
0.0
  0
SPLINE
  5
123
100
AcDbEntity
  8
Front
 62
7
100
AcDbSpline
 70
8
 71
3
 72
8
 73
4
 74
0
 40
0
 40
0
 40
0
 40
0
 40
1
 40
1
 40
1
 40
1
 10
187.545629
 20
-41.462410
 30
0.0
 10
187.545629
 20
-41.462410
 30
0.0
 10
187.545629
 20
-34.152265
 30
0.0
 10
187.545629
 20
-34.152265
 30
0.0
  0
SPLINE
  5
124
100
AcDbEntity
  8
Front
 62
7
100
AcDbSpline
 70
8
 71
3
 72
8
 73
4
 74
0
 40
0
 40
0
 40
0
 40
0
 40
1
 40
1
 40
1
 40
1
 10
187.545629
 20
-34.152265
 30
0.0
 10
187.551697
 20
-34.108711
 30
0.0
 10
187.546171
 20
-34.064327
 30
0.0
 10
187.529611
 20
-34.023590
 30
0.0
  0
SPLINE
  5
125
100
AcDbEntity
  8
Front
 62
7
100
AcDbSpline
 70
8
 71
3
 72
8
 73
4
 74
0
 40
0
 40
0
 40
0
 40
0
 40
1
 40
1
 40
1
 40
1
 10
187.529611
 20
-34.023590
 30
0.0
 10
187.512833
 20
-33.979634
 30
0.0
 10
187.483995
 20
-33.941303
 30
0.0
 10
187.446410
 20
-33.913002
 30
0.0
  0
SPLINE
  5
126
100
AcDbEntity
  8
Front
 62
7
100
AcDbSpline
 70
8
 71
3
 72
8
 73
4
 74
0
 40
0
 40
0
 40
0
 40
0
 40
1
 40
1
 40
1
 40
1
 10
187.446410
 20
-33.913002
 30
0.0
 10
187.446410
 20
-33.913002
 30
0.0
 10
181.571835
 20
-28.038427
 30
0.0
 10
181.571835
 20
-28.038427
 30
0.0
  0
SPLINE
  5
127
100
AcDbEntity
  8
Front
 62
7
100
AcDbSpline
 70
8
 71
3
 72
8
 73
4
 74
0
 40
0
 40
0
 40
0
 40
0
 40
1
 40
1
 40
1
 40
1
 10
181.571835
 20
-28.038427
 30
0.0
 10
181.544169
 20
-28.001872
 30
0.0
 10
181.506985
 20
-27.973626
 30
0.0
 10
181.464348
 20
-27.956777
 30
0.0
  0
SPLINE
  5
128
100
AcDbEntity
  8
Front
 62
7
100
AcDbSpline
 70
8
 71
3
 72
8
 73
4
 74
0
 40
0
 40
0
 40
0
 40
0
 40
1
 40
1
 40
1
 40
1
 10
181.464348
 20
-27.956777
 30
0.0
 10
181.463147
 20
-27.956251
 30
0.0
 10
181.461941
 20
-27.955734
 30
0.0
 10
181.460731
 20
-27.955226
 30
0.0
  0
SPLINE
  5
129
100
AcDbEntity
  8
Front
 62
7
100
AcDbSpline
 70
8
 71
3
 72
8
 73
4
 74
0
 40
0
 40
0
 40
0
 40
0
 40
1
 40
1
 40
1
 40
1
 10
181.460731
 20
-27.955226
 30
0.0
 10
181.459186
 20
-27.954694
 30
0.0
 10
181.457636
 20
-27.954178
 30
0.0
 10
181.456080
 20
-27.953676
 30
0.0
  0
SPLINE
  5
12a
100
AcDbEntity
  8
Front
 62
7
100
AcDbSpline
 70
8
 71
3
 72
8
 73
4
 74
0
 40
0
 40
0
 40
0
 40
0
 40
1
 40
1
 40
1
 40
1
 10
181.456080
 20
-27.953676
 30
0.0
 10
181.427703
 20
-27.942809
 30
0.0
 10
181.397583
 20
-27.937205
 30
0.0
 10
181.367196
 20
-27.937139
 30
0.0
  0
SPLINE
  5
12b
100
AcDbEntity
  8
Front
 62
7
100
AcDbSpline
 70
8
 71
3
 72
8
 73
4
 74
0
 40
0
 40
0
 40
0
 40
0
 40
1
 40
1
 40
1
 40
1
 10
181.367196
 20
-27.937139
 30
0.0
 10
181.355782
 20
-27.937222
 30
0.0
 10
181.344387
 20
-27.938085
 30
0.0
 10
181.333091
 20
-27.939724
 30
0.0
  0
SPLINE
  5
12c
100
AcDbEntity
  8
Front
 62
7
100
AcDbSpline
 70
8
 71
3
 72
8
 73
4
 74
0
 40
0
 40
0
 40
0
 40
0
 40
1
 40
1
 40
1
 40
1
 10
181.333091
 20
-27.939724
 30
0.0
 10
181.333091
 20
-27.939724
 30
0.0
 10
172.483502
 20
-27.939724
 30
0.0
 10
172.483502
 20
-27.939724
 30
0.0
  0
SPLINE
  5
12d
100
AcDbEntity
  8
Front
 62
7
100
AcDbSpline
 70
8
 71
3
 72
8
 73
4
 74
0
 40
0
 40
0
 40
0
 40
0
 40
1
 40
1
 40
1
 40
1
 10
172.483502
 20
-27.939724
 30
0.0
 10
172.469817
 20
-27.937721
 30
0.0
 10
172.455989
 20
-27.936856
 30
0.0
 10
172.442161
 20
-27.937139
 30
0.0
  0
LINE
  5
12e
100
AcDbEntity
  8
Front
 62
7
100
AcDbLine
 10
172.442161
 20
-27.937139
 30
0.0
 11
172.442161
 21
-27.937139
 31
0.0
  0
SPLINE
  5
12f
100
AcDbEntity
  8
Front
 62
7
100
AcDbSpline
 70
8
 71
3
 72
8
 73
4
 74
0
 40
0
 40
0
 40
0
 40
0
 40
1
 40
1
 40
1
 40
1
 10
172.812165
 20
-28.836310
 30
0.0
 10
172.782142
 20
-28.837386
 30
0.0
 10
172.752558
 20
-28.843863
 30
0.0
 10
172.724831
 20
-28.855431
 30
0.0
  0
SPLINE
  5
130
100
AcDbEntity
  8
Front
 62
7
100
AcDbSpline
 70
8
 71
3
 72
8
 73
4
 74
0
 40
0
 40
0
 40
0
 40
0
 40
1
 40
1
 40
1
 40
1
 10
172.724831
 20
-28.855431
 30
0.0
 10
172.722407
 20
-28.856255
 30
0.0
 10
172.719996
 20
-28.857116
 30
0.0
 10
172.717598
 20
-28.858014
 30
0.0
  0
SPLINE
  5
131
100
AcDbEntity
  8
Front
 62
7
100
AcDbSpline
 70
8
 71
3
 72
8
 73
4
 74
0
 40
0
 40
0
 40
0
 40
0
 40
1
 40
1
 40
1
 40
1
 10
172.717598
 20
-28.858014
 30
0.0
 10
172.716038
 20
-28.858859
 30
0.0
 10
172.714488
 20
-28.859721
 30
0.0
 10
172.712946
 20
-28.860599
 30
0.0
  0
SPLINE
  5
132
100
AcDbEntity
  8
Front
 62
7
100
AcDbSpline
 70
8
 71
3
 72
8
 73
4
 74
0
 40
0
 40
0
 40
0
 40
0
 40
1
 40
1
 40
1
 40
1
 10
172.712946
 20
-28.860599
 30
0.0
 10
172.674671
 20
-28.877558
 30
0.0
 10
172.641265
 20
-28.903855
 30
0.0
 10
172.615794
 20
-28.937079
 30
0.0
  0
LINE
  5
133
100
AcDbEntity
  8
Front
 62
7
100
AcDbLine
 10
172.615794
 20
-28.937079
 30
0.0
 11
172.010147
 21
-29.545311
 31
0.0
  0
SPLINE
  5
134
100
AcDbEntity
  8
Front
 62
7
100
AcDbSpline
 70
8
 71
3
 72
8
 73
4
 74
0
 40
0
 40
0
 40
0
 40
0
 40
1
 40
1
 40
1
 40
1
 10
172.010147
 20
-29.545311
 30
0.0
 10
171.976854
 20
-29.570926
 30
0.0
 10
171.950550
 20
-29.604516
 30
0.0
 10
171.933664
 20
-29.642979
 30
0.0
  0
SPLINE
  5
135
100
AcDbEntity
  8
Front
 62
7
100
AcDbSpline
 70
8
 71
3
 72
8
 73
4
 74
0
 40
0
 40
0
 40
0
 40
0
 40
1
 40
1
 40
1
 40
1
 10
171.933664
 20
-29.642979
 30
0.0
 10
171.913053
 20
-29.686950
 30
0.0
 10
171.905692
 20
-29.735970
 30
0.0
 10
171.912479
 20
-29.784055
 30
0.0
  0
SPLINE
  5
136
100
AcDbEntity
  8
Front
 62
7
100
AcDbSpline
 70
8
 71
3
 72
8
 73
4
 74
0
 40
0
 40
0
 40
0
 40
0
 40
1
 40
1
 40
1
 40
1
 10
171.912479
 20
-29.784055
 30
0.0
 10
171.912479
 20
-29.784055
 30
0.0
 10
171.912479
 20
-36.672008
 30
0.0
 10
171.912479
 20
-36.672008
 30
0.0
  0
SPLINE
  5
137
100
AcDbEntity
  8
Front
 62
7
100
AcDbSpline
 70
8
 71
3
 72
8
 73
4
 74
0
 40
0
 40
0
 40
0
 40
0
 40
1
 40
1
 40
1
 40
1
 10
171.912479
 20
-36.672008
 30
0.0
 10
171.906722
 20
-36.714289
 30
0.0
 10
171.911881
 20
-36.757339
 30
0.0
 10
171.927465
 20
-36.797063
 30
0.0
  0
SPLINE
  5
138
100
AcDbEntity
  8
Front
 62
7
100
AcDbSpline
 70
8
 71
3
 72
8
 73
4
 74
0
 40
0
 40
0
 40
0
 40
0
 40
1
 40
1
 40
1
 40
1
 10
171.927465
 20
-36.797063
 30
0.0
 10
171.943837
 20
-36.842656
 30
0.0
 10
171.973100
 20
-36.882512
 30
0.0
 10
172.011697
 20
-36.911786
 30
0.0
  0
LINE
  5
139
100
AcDbEntity
  8
Front
 62
7
100
AcDbLine
 10
172.011697
 20
-36.911786
 30
0.0
 11
173.730970
 21
-38.633128
 31
0.0
  0
SPLINE
  5
13a
100
AcDbEntity
  8
Front
 62
7
100
AcDbSpline
 70
8
 71
3
 72
8
 73
4
 74
0
 40
0
 40
0
 40
0
 40
0
 40
1
 40
1
 40
1
 40
1
 10
173.730970
 20
-38.633128
 30
0.0
 10
173.648635
 20
-38.773667
 30
0.0
 10
173.597647
 20
-38.934719
 30
0.0
 10
173.597647
 20
-39.109066
 30
0.0
  0
SPLINE
  5
13b
100
AcDbEntity
  8
Front
 62
7
100
AcDbSpline
 70
8
 71
3
 72
8
 73
4
 74
0
 40
0
 40
0
 40
0
 40
0
 40
1
 40
1
 40
1
 40
1
 10
173.597647
 20
-39.109066
 30
0.0
 10
173.597647
 20
-39.637396
 30
0.0
 10
174.031756
 20
-40.065669
 30
0.0
 10
174.559862
 20
-40.058880
 30
0.0
  0
SPLINE
  5
13c
100
AcDbEntity
  8
Front
 62
7
100
AcDbSpline
 70
8
 71
3
 72
8
 73
4
 74
0
 40
0
 40
0
 40
0
 40
0
 40
1
 40
1
 40
1
 40
1
 10
174.559862
 20
-40.058880
 30
0.0
 10
175.087968
 20
-40.065669
 30
0.0
 10
175.522593
 20
-39.637396
 30
0.0
 10
175.522593
 20
-39.109066
 30
0.0
  0
SPLINE
  5
13d
100
AcDbEntity
  8
Front
 62
7
100
AcDbSpline
 70
8
 71
3
 72
8
 73
4
 74
0
 40
0
 40
0
 40
0
 40
0
 40
1
 40
1
 40
1
 40
1
 10
175.522593
 20
-39.109066
 30
0.0
 10
175.522593
 20
-38.580735
 30
0.0
 10
175.087968
 20
-38.152465
 30
0.0
 10
174.559862
 20
-38.159254
 30
0.0
  0
SPLINE
  5
13e
100
AcDbEntity
  8
Front
 62
7
100
AcDbSpline
 70
8
 71
3
 72
8
 73
4
 74
0
 40
0
 40
0
 40
0
 40
0
 40
1
 40
1
 40
1
 40
1
 10
174.559862
 20
-38.159254
 30
0.0
 10
174.388145
 20
-38.157047
 30
0.0
 10
174.228731
 20
-38.204469
 30
0.0
 10
174.088573
 20
-38.282762
 30
0.0
  0
LINE
  5
13f
100
AcDbEntity
  8
Front
 62
7
100
AcDbLine
 10
174.088573
 20
-38.282762
 30
0.0
 11
172.412189
 21
-36.604827
 31
0.0
  0
LINE
  5
140
100
AcDbEntity
  8
Front
 62
7
100
AcDbLine
 10
172.412189
 20
-36.604827
 30
0.0
 11
172.412189
 21
-29.849685
 31
0.0
  0
LINE
  5
141
100
AcDbEntity
  8
Front
 62
7
100
AcDbLine
 10
172.412189
 20
-29.849685
 30
0.0
 11
172.921203
 21
-29.339121
 31
0.0
  0
LINE
  5
142
100
AcDbEntity
  8
Front
 62
7
100
AcDbLine
 10
172.921203
 20
-29.339121
 30
0.0
 11
180.892806
 21
-29.339121
 31
0.0
  0
LINE
  5
143
100
AcDbEntity
  8
Front
 62
7
100
AcDbLine
 10
180.892806
 20
-29.339121
 30
0.0
 11
185.196420
 21
-33.642217
 31
0.0
  0
LINE
  5
144
100
AcDbEntity
  8
Front
 62
7
100
AcDbLine
 10
185.196420
 20
-33.642217
 30
0.0
 11
185.196420
 21
-39.510592
 31
0.0
  0
LINE
  5
145
100
AcDbEntity
  8
Front
 62
7
100
AcDbLine
 10
185.196420
 20
-39.510592
 30
0.0
 11
185.196420
 21
-40.010821
 31
0.0
  0
LINE
  5
146
100
AcDbEntity
  8
Front
 62
7
100
AcDbLine
 10
185.196420
 20
-40.010821
 30
0.0
 11
184.245058
 21
-40.010821
 31
0.0
  0
LINE
  5
147
100
AcDbEntity
  8
Front
 62
7
100
AcDbLine
 10
184.245058
 20
-40.010821
 30
0.0
 11
184.245058
 21
-40.749794
 31
0.0
  0
LINE
  5
148
100
AcDbEntity
  8
Front
 62
7
100
AcDbLine
 10
184.245058
 20
-40.749794
 30
0.0
 11
186.645426
 21
-40.749794
 31
0.0
  0
LINE
  5
149
100
AcDbEntity
  8
Front
 62
7
100
AcDbLine
 10
186.645426
 20
-40.749794
 30
0.0
 11
186.645426
 21
-40.010821
 31
0.0
  0
LINE
  5
14a
100
AcDbEntity
  8
Front
 62
7
100
AcDbLine
 10
186.645426
 20
-40.010821
 30
0.0
 11
185.696647
 21
-40.010821
 31
0.0
  0
LINE
  5
14b
100
AcDbEntity
  8
Front
 62
7
100
AcDbLine
 10
185.696647
 20
-40.010821
 30
0.0
 11
185.696647
 21
-39.510592
 31
0.0
  0
SPLINE
  5
14c
100
AcDbEntity
  8
Front
 62
7
100
AcDbSpline
 70
8
 71
3
 72
8
 73
4
 74
0
 40
0
 40
0
 40
0
 40
0
 40
1
 40
1
 40
1
 40
1
 10
185.696647
 20
-39.510592
 30
0.0
 10
185.696647
 20
-39.510592
 30
0.0
 10
185.696647
 20
-33.575555
 30
0.0
 10
185.696647
 20
-33.575555
 30
0.0
  0
SPLINE
  5
14d
100
AcDbEntity
  8
Front
 62
7
100
AcDbSpline
 70
8
 71
3
 72
8
 73
4
 74
0
 40
0
 40
0
 40
0
 40
0
 40
1
 40
1
 40
1
 40
1
 10
185.696647
 20
-33.575555
 30
0.0
 10
185.702943
 20
-33.529910
 30
0.0
 10
185.696505
 20
-33.483414
 30
0.0
 10
185.678044
 20
-33.441197
 30
0.0
  0
SPLINE
  5
14e
100
AcDbEntity
  8
Front
 62
7
100
AcDbSpline
 70
8
 71
3
 72
8
 73
4
 74
0
 40
0
 40
0
 40
0
 40
0
 40
1
 40
1
 40
1
 40
1
 10
185.678044
 20
-33.441197
 30
0.0
 10
185.677536
 20
-33.439987
 30
0.0
 10
185.677019
 20
-33.438782
 30
0.0
 10
185.676493
 20
-33.437580
 30
0.0
  0
SPLINE
  5
14f
100
AcDbEntity
  8
Front
 62
7
100
AcDbSpline
 70
8
 71
3
 72
8
 73
4
 74
0
 40
0
 40
0
 40
0
 40
0
 40
1
 40
1
 40
1
 40
1
 10
185.676493
 20
-33.437580
 30
0.0
 10
185.676150
 20
-33.437062
 30
0.0
 10
185.675805
 20
-33.436545
 30
0.0
 10
185.675459
 20
-33.436030
 30
0.0
  0
SPLINE
  5
150
100
AcDbEntity
  8
Front
 62
7
100
AcDbSpline
 70
8
 71
3
 72
8
 73
4
 74
0
 40
0
 40
0
 40
0
 40
0
 40
1
 40
1
 40
1
 40
1
 10
185.675459
 20
-33.436030
 30
0.0
 10
185.658577
 20
-33.397133
 30
0.0
 10
185.632081
 20
-33.363167
 30
0.0
 10
185.598462
 20
-33.337327
 30
0.0
  0
SPLINE
  5
151
100
AcDbEntity
  8
Front
 62
7
100
AcDbSpline
 70
8
 71
3
 72
8
 73
4
 74
0
 40
0
 40
0
 40
0
 40
0
 40
1
 40
1
 40
1
 40
1
 10
185.598462
 20
-33.337327
 30
0.0
 10
185.598462
 20
-33.337327
 30
0.0
 10
181.199249
 20
-28.938114
 30
0.0
 10
181.199249
 20
-28.938114
 30
0.0
  0
SPLINE
  5
152
100
AcDbEntity
  8
Front
 62
7
100
AcDbSpline
 70
8
 71
3
 72
8
 73
4
 74
0
 40
0
 40
0
 40
0
 40
0
 40
1
 40
1
 40
1
 40
1
 10
181.199249
 20
-28.938114
 30
0.0
 10
181.170948
 20
-28.900529
 30
0.0
 10
181.132617
 20
-28.871690
 30
0.0
 10
181.088661
 20
-28.854913
 30
0.0
  0
SPLINE
  5
153
100
AcDbEntity
  8
Front
 62
7
100
AcDbSpline
 70
8
 71
3
 72
8
 73
4
 74
0
 40
0
 40
0
 40
0
 40
0
 40
1
 40
1
 40
1
 40
1
 10
181.088661
 20
-28.854913
 30
0.0
 10
181.088145
 20
-28.854739
 30
0.0
 10
181.087628
 20
-28.854567
 30
0.0
 10
181.087111
 20
-28.854397
 30
0.0
  0
SPLINE
  5
154
100
AcDbEntity
  8
Front
 62
7
100
AcDbSpline
 70
8
 71
3
 72
8
 73
4
 74
0
 40
0
 40
0
 40
0
 40
0
 40
1
 40
1
 40
1
 40
1
 10
181.087111
 20
-28.854397
 30
0.0
 10
181.086251
 20
-28.854048
 30
0.0
 10
181.085389
 20
-28.853704
 30
0.0
 10
181.084526
 20
-28.853365
 30
0.0
  0
SPLINE
  5
155
100
AcDbEntity
  8
Front
 62
7
100
AcDbSpline
 70
8
 71
3
 72
8
 73
4
 74
0
 40
0
 40
0
 40
0
 40
0
 40
1
 40
1
 40
1
 40
1
 10
181.084526
 20
-28.853365
 30
0.0
 10
181.055534
 20
-28.842071
 30
0.0
 10
181.024689
 20
-28.836287
 30
0.0
 10
180.993575
 20
-28.836310
 30
0.0
  0
SPLINE
  5
156
100
AcDbEntity
  8
Front
 62
7
100
AcDbSpline
 70
8
 71
3
 72
8
 73
4
 74
0
 40
0
 40
0
 40
0
 40
0
 40
1
 40
1
 40
1
 40
1
 10
180.993575
 20
-28.836310
 30
0.0
 10
180.982161
 20
-28.836392
 30
0.0
 10
180.970766
 20
-28.837256
 30
0.0
 10
180.959470
 20
-28.838895
 30
0.0
  0
SPLINE
  5
157
100
AcDbEntity
  8
Front
 62
7
100
AcDbSpline
 70
8
 71
3
 72
8
 73
4
 74
0
 40
0
 40
0
 40
0
 40
0
 40
1
 40
1
 40
1
 40
1
 10
180.959470
 20
-28.838895
 30
0.0
 10
180.959470
 20
-28.838895
 30
0.0
 10
172.854022
 20
-28.838895
 30
0.0
 10
172.854022
 20
-28.838895
 30
0.0
  0
SPLINE
  5
158
100
AcDbEntity
  8
Front
 62
7
100
AcDbSpline
 70
8
 71
3
 72
8
 73
4
 74
0
 40
0
 40
0
 40
0
 40
0
 40
1
 40
1
 40
1
 40
1
 10
172.854022
 20
-28.838895
 30
0.0
 10
172.840167
 20
-28.836863
 30
0.0
 10
172.826165
 20
-28.835998
 30
0.0
 10
172.812165
 20
-28.836310
 30
0.0
  0
LINE
  5
159
100
AcDbEntity
  8
Front
 62
7
100
AcDbLine
 10
172.812165
 20
-28.836310
 30
0.0
 11
172.812165
 21
-28.836310
 31
0.0
  0
SPLINE
  5
15a
100
AcDbEntity
  8
Front
 62
7
100
AcDbSpline
 70
8
 71
3
 72
8
 73
4
 74
0
 40
0
 40
0
 40
0
 40
0
 40
1
 40
1
 40
1
 40
1
 10
173.186302
 20
-29.738063
 30
0.0
 10
173.157040
 20
-29.739053
 30
0.0
 10
173.128179
 20
-29.745175
 30
0.0
 10
173.101034
 20
-29.756150
 30
0.0
  0
SPLINE
  5
15b
100
AcDbEntity
  8
Front
 62
7
100
AcDbSpline
 70
8
 71
3
 72
8
 73
4
 74
0
 40
0
 40
0
 40
0
 40
0
 40
1
 40
1
 40
1
 40
1
 10
173.101034
 20
-29.756150
 30
0.0
 10
173.056008
 20
-29.772783
 30
0.0
 10
173.016721
 20
-29.802025
 30
0.0
 10
172.987864
 20
-29.840382
 30
0.0
  0
SPLINE
  5
15c
100
AcDbEntity
  8
Front
 62
7
100
AcDbSpline
 70
8
 71
3
 72
8
 73
4
 74
0
 40
0
 40
0
 40
0
 40
0
 40
1
 40
1
 40
1
 40
1
 10
172.987864
 20
-29.840382
 30
0.0
 10
172.987864
 20
-29.840382
 30
0.0
 10
172.910349
 20
-29.917897
 30
0.0
 10
172.910349
 20
-29.917897
 30
0.0
  0
SPLINE
  5
15d
100
AcDbEntity
  8
Front
 62
7
100
AcDbSpline
 70
8
 71
3
 72
8
 73
4
 74
0
 40
0
 40
0
 40
0
 40
0
 40
1
 40
1
 40
1
 40
1
 10
172.910349
 20
-29.917897
 30
0.0
 10
172.874883
 20
-29.944777
 30
0.0
 10
172.847233
 20
-29.980634
 30
0.0
 10
172.830252
 20
-30.021767
 30
0.0
  0
SPLINE
  5
15e
100
AcDbEntity
  8
Front
 62
7
100
AcDbSpline
 70
8
 71
3
 72
8
 73
4
 74
0
 40
0
 40
0
 40
0
 40
0
 40
1
 40
1
 40
1
 40
1
 10
172.830252
 20
-30.021767
 30
0.0
 10
172.829726
 20
-30.022969
 30
0.0
 10
172.829209
 20
-30.024175
 30
0.0
 10
172.828702
 20
-30.025384
 30
0.0
  0
SPLINE
  5
15f
100
AcDbEntity
  8
Front
 62
7
100
AcDbSpline
 70
8
 71
3
 72
8
 73
4
 74
0
 40
0
 40
0
 40
0
 40
0
 40
1
 40
1
 40
1
 40
1
 10
172.828702
 20
-30.025384
 30
0.0
 10
172.828173
 20
-30.026758
 30
0.0
 10
172.827656
 20
-30.028137
 30
0.0
 10
172.827151
 20
-30.029520
 30
0.0
  0
SPLINE
  5
160
100
AcDbEntity
  8
Front
 62
7
100
AcDbSpline
 70
8
 71
3
 72
8
 73
4
 74
0
 40
0
 40
0
 40
0
 40
0
 40
1
 40
1
 40
1
 40
1
 10
172.827151
 20
-30.029520
 30
0.0
 10
172.810764
 20
-30.070303
 30
0.0
 10
172.805416
 20
-30.114686
 30
0.0
 10
172.811647
 20
-30.158194
 30
0.0
  0
SPLINE
  5
161
100
AcDbEntity
  8
Front
 62
7
100
AcDbSpline
 70
8
 71
3
 72
8
 73
4
 74
0
 40
0
 40
0
 40
0
 40
0
 40
1
 40
1
 40
1
 40
1
 10
172.811647
 20
-30.158194
 30
0.0
 10
172.811647
 20
-30.158194
 30
0.0
 10
172.811647
 20
-35.033864
 30
0.0
 10
172.811647
 20
-35.033864
 30
0.0
  0
SPLINE
  5
162
100
AcDbEntity
  8
Front
 62
7
100
AcDbSpline
 70
8
 71
3
 72
8
 73
4
 74
0
 40
0
 40
0
 40
0
 40
0
 40
1
 40
1
 40
1
 40
1
 10
172.811647
 20
-35.033864
 30
0.0
 10
172.805783
 20
-35.076697
 30
0.0
 10
172.811125
 20
-35.120319
 30
0.0
 10
172.827151
 20
-35.160472
 30
0.0
  0
SPLINE
  5
163
100
AcDbEntity
  8
Front
 62
7
100
AcDbSpline
 70
8
 71
3
 72
8
 73
4
 74
0
 40
0
 40
0
 40
0
 40
0
 40
1
 40
1
 40
1
 40
1
 10
172.827151
 20
-35.160472
 30
0.0
 10
172.843588
 20
-35.205182
 30
0.0
 10
172.872453
 20
-35.244266
 30
0.0
 10
172.910349
 20
-35.273127
 30
0.0
  0
LINE
  5
164
100
AcDbEntity
  8
Front
 62
7
100
AcDbLine
 10
172.910349
 20
-35.273127
 30
0.0
 11
173.730970
 21
-36.093748
 31
0.0
  0
SPLINE
  5
165
100
AcDbEntity
  8
Front
 62
7
100
AcDbSpline
 70
8
 71
3
 72
8
 73
4
 74
0
 40
0
 40
0
 40
0
 40
0
 40
1
 40
1
 40
1
 40
1
 10
173.730970
 20
-36.093748
 30
0.0
 10
173.648777
 20
-36.234199
 30
0.0
 10
173.597647
 20
-36.394984
 30
0.0
 10
173.597647
 20
-36.569169
 30
0.0
  0
SPLINE
  5
166
100
AcDbEntity
  8
Front
 62
7
100
AcDbSpline
 70
8
 71
3
 72
8
 73
4
 74
0
 40
0
 40
0
 40
0
 40
0
 40
1
 40
1
 40
1
 40
1
 10
173.597647
 20
-36.569169
 30
0.0
 10
173.597647
 20
-37.097500
 30
0.0
 10
174.031756
 20
-37.525773
 30
0.0
 10
174.559862
 20
-37.518984
 30
0.0
  0
SPLINE
  5
167
100
AcDbEntity
  8
Front
 62
7
100
AcDbSpline
 70
8
 71
3
 72
8
 73
4
 74
0
 40
0
 40
0
 40
0
 40
0
 40
1
 40
1
 40
1
 40
1
 10
174.559862
 20
-37.518984
 30
0.0
 10
175.087968
 20
-37.525773
 30
0.0
 10
175.522593
 20
-37.097500
 30
0.0
 10
175.522593
 20
-36.569169
 30
0.0
  0
SPLINE
  5
168
100
AcDbEntity
  8
Front
 62
7
100
AcDbSpline
 70
8
 71
3
 72
8
 73
4
 74
0
 40
0
 40
0
 40
0
 40
0
 40
1
 40
1
 40
1
 40
1
 10
175.522593
 20
-36.569169
 30
0.0
 10
175.522593
 20
-36.040839
 30
0.0
 10
175.087968
 20
-35.612568
 30
0.0
 10
174.559862
 20
-35.619358
 30
0.0
  0
SPLINE
  5
169
100
AcDbEntity
  8
Front
 62
7
100
AcDbSpline
 70
8
 71
3
 72
8
 73
4
 74
0
 40
0
 40
0
 40
0
 40
0
 40
1
 40
1
 40
1
 40
1
 10
174.559862
 20
-35.619358
 30
0.0
 10
174.387894
 20
-35.617146
 30
0.0
 10
174.228355
 20
-35.664874
 30
0.0
 10
174.088055
 20
-35.743381
 30
0.0
  0
LINE
  5
16a
100
AcDbEntity
  8
Front
 62
7
100
AcDbLine
 10
174.088055
 20
-35.743381
 30
0.0
 11
173.311360
 21
-34.966684
 31
0.0
  0
LINE
  5
16b
100
AcDbEntity
  8
Front
 62
7
100
AcDbLine
 10
173.311360
 20
-34.966684
 30
0.0
 11
173.311360
 21
-30.240358
 31
0.0
  0
LINE
  5
16c
100
AcDbEntity
  8
Front
 62
7
100
AcDbLine
 10
173.311360
 20
-30.240358
 30
0.0
 11
180.519185
 21
-30.240358
 31
0.0
  0
LINE
  5
16d
100
AcDbEntity
  8
Front
 62
7
100
AcDbLine
 10
180.519185
 20
-30.240358
 30
0.0
 11
183.347438
 21
-33.066026
 31
0.0
  0
SPLINE
  5
16e
100
AcDbEntity
  8
Front
 62
7
100
AcDbSpline
 70
8
 71
3
 72
8
 73
4
 74
0
 40
0
 40
0
 40
0
 40
0
 40
1
 40
1
 40
1
 40
1
 10
183.347438
 20
-33.066026
 30
0.0
 10
183.347438
 20
-33.066026
 30
0.0
 10
183.347438
 20
-44.002825
 30
0.0
 10
183.347438
 20
-44.002825
 30
0.0
  0
SPLINE
  5
16f
100
AcDbEntity
  8
Front
 62
7
100
AcDbSpline
 70
8
 71
3
 72
8
 73
4
 74
0
 40
0
 40
0
 40
0
 40
0
 40
1
 40
1
 40
1
 40
1
 10
183.347438
 20
-44.002825
 30
0.0
 10
183.341796
 20
-44.044174
 30
0.0
 10
183.346592
 20
-44.086277
 30
0.0
 10
183.361389
 20
-44.125298
 30
0.0
  0
SPLINE
  5
170
100
AcDbEntity
  8
Front
 62
7
100
AcDbSpline
 70
8
 71
3
 72
8
 73
4
 74
0
 40
0
 40
0
 40
0
 40
0
 40
1
 40
1
 40
1
 40
1
 10
183.361389
 20
-44.125298
 30
0.0
 10
183.377586
 20
-44.171267
 30
0.0
 10
183.406863
 20
-44.211502
 30
0.0
 10
183.445622
 20
-44.241053
 30
0.0
  0
LINE
  5
171
100
AcDbEntity
  8
Front
 62
7
100
AcDbLine
 10
183.445622
 20
-44.241053
 30
0.0
 11
183.544841
 21
-44.340272
 31
0.0
  0
SPLINE
  5
172
100
AcDbEntity
  8
Front
 62
7
100
AcDbSpline
 70
8
 71
3
 72
8
 73
4
 74
0
 40
0
 40
0
 40
0
 40
0
 40
1
 40
1
 40
1
 40
1
 10
183.544841
 20
-44.340272
 30
0.0
 10
183.571645
 20
-44.375476
 30
0.0
 10
183.607310
 20
-44.402937
 30
0.0
 10
183.648195
 20
-44.419853
 30
0.0
  0
SPLINE
  5
173
100
AcDbEntity
  8
Front
 62
7
100
AcDbSpline
 70
8
 71
3
 72
8
 73
4
 74
0
 40
0
 40
0
 40
0
 40
0
 40
1
 40
1
 40
1
 40
1
 10
183.648195
 20
-44.419853
 30
0.0
 10
183.650929
 20
-44.421108
 30
0.0
 10
183.653686
 20
-44.422314
 30
0.0
 10
183.656463
 20
-44.423470
 30
0.0
  0
SPLINE
  5
174
100
AcDbEntity
  8
Front
 62
7
100
AcDbSpline
 70
8
 71
3
 72
8
 73
4
 74
0
 40
0
 40
0
 40
0
 40
0
 40
1
 40
1
 40
1
 40
1
 10
183.656463
 20
-44.423470
 30
0.0
 10
183.656635
 20
-44.423470
 30
0.0
 10
183.656807
 20
-44.423470
 30
0.0
 10
183.656979
 20
-44.423470
 30
0.0
  0
SPLINE
  5
175
100
AcDbEntity
  8
Front
 62
7
100
AcDbSpline
 70
8
 71
3
 72
8
 73
4
 74
0
 40
0
 40
0
 40
0
 40
0
 40
1
 40
1
 40
1
 40
1
 10
183.656979
 20
-44.423470
 30
0.0
 10
183.697763
 20
-44.439856
 30
0.0
 10
183.742145
 20
-44.445203
 30
0.0
 10
183.785654
 20
-44.438972
 30
0.0
  0
LINE
  5
176
100
AcDbEntity
  8
Front
 62
7
100
AcDbLine
 10
183.785654
 20
-44.438972
 30
0.0
 11
184.245058
 21
-44.438972
 31
0.0
  0
LINE
  5
177
100
AcDbEntity
  8
Front
 62
7
100
AcDbLine
 10
184.245058
 20
-44.438972
 30
0.0
 11
184.245058
 21
-44.559897
 31
0.0
  0
LINE
  5
178
100
AcDbEntity
  8
Front
 62
7
100
AcDbLine
 10
184.245058
 20
-44.559897
 30
0.0
 11
186.645426
 21
-44.559897
 31
0.0
  0
LINE
  5
179
100
AcDbEntity
  8
Front
 62
7
100
AcDbLine
 10
186.645426
 20
-44.559897
 30
0.0
 11
186.645426
 21
-43.820924
 31
0.0
  0
LINE
  5
17a
100
AcDbEntity
  8
Front
 62
7
100
AcDbLine
 10
186.645426
 20
-43.820924
 30
0.0
 11
184.245058
 21
-43.820924
 31
0.0
  0
LINE
  5
17b
100
AcDbEntity
  8
Front
 62
7
100
AcDbLine
 10
184.245058
 20
-43.820924
 30
0.0
 11
184.245058
 21
-43.939261
 31
0.0
  0
LINE
  5
17c
100
AcDbEntity
  8
Front
 62
7
100
AcDbLine
 10
184.245058
 20
-43.939261
 30
0.0
 11
183.851281
 21
-43.939261
 31
0.0
  0
LINE
  5
17d
100
AcDbEntity
  8
Front
 62
7
100
AcDbLine
 10
183.851281
 20
-43.939261
 30
0.0
 11
183.847664
 21
-43.935645
 31
0.0
  0
SPLINE
  5
17e
100
AcDbEntity
  8
Front
 62
7
100
AcDbSpline
 70
8
 71
3
 72
8
 73
4
 74
0
 40
0
 40
0
 40
0
 40
0
 40
1
 40
1
 40
1
 40
1
 10
183.847664
 20
-43.935645
 30
0.0
 10
183.847664
 20
-43.935645
 30
0.0
 10
183.847664
 20
-32.997295
 30
0.0
 10
183.847664
 20
-32.997295
 30
0.0
  0
SPLINE
  5
17f
100
AcDbEntity
  8
Front
 62
7
100
AcDbSpline
 70
8
 71
3
 72
8
 73
4
 74
0
 40
0
 40
0
 40
0
 40
0
 40
1
 40
1
 40
1
 40
1
 10
183.847664
 20
-32.997295
 30
0.0
 10
183.852319
 20
-32.960633
 30
0.0
 10
183.848790
 20
-32.923395
 30
0.0
 10
183.837330
 20
-32.888260
 30
0.0
  0
SPLINE
  5
180
100
AcDbEntity
  8
Front
 62
7
100
AcDbSpline
 70
8
 71
3
 72
8
 73
4
 74
0
 40
0
 40
0
 40
0
 40
0
 40
1
 40
1
 40
1
 40
1
 10
183.837330
 20
-32.888260
 30
0.0
 10
183.835481
 20
-32.882328
 30
0.0
 10
183.833413
 20
-32.876467
 30
0.0
 10
183.831128
 20
-32.870689
 30
0.0
  0
SPLINE
  5
181
100
AcDbEntity
  8
Front
 62
7
100
AcDbSpline
 70
8
 71
3
 72
8
 73
4
 74
0
 40
0
 40
0
 40
0
 40
0
 40
1
 40
1
 40
1
 40
1
 10
183.831128
 20
-32.870689
 30
0.0
 10
183.830466
 20
-32.868613
 30
0.0
 10
183.829777
 20
-32.866546
 30
0.0
 10
183.829062
 20
-32.864487
 30
0.0
  0
SPLINE
  5
182
100
AcDbEntity
  8
Front
 62
7
100
AcDbSpline
 70
8
 71
3
 72
8
 73
4
 74
0
 40
0
 40
0
 40
0
 40
0
 40
1
 40
1
 40
1
 40
1
 10
183.829062
 20
-32.864487
 30
0.0
 10
183.828554
 20
-32.863278
 30
0.0
 10
183.828037
 20
-32.862072
 30
0.0
 10
183.827511
 20
-32.860870
 30
0.0
  0
SPLINE
  5
183
100
AcDbEntity
  8
Front
 62
7
100
AcDbSpline
 70
8
 71
3
 72
8
 73
4
 74
0
 40
0
 40
0
 40
0
 40
0
 40
1
 40
1
 40
1
 40
1
 10
183.827511
 20
-32.860870
 30
0.0
 10
183.827169
 20
-32.860180
 30
0.0
 10
183.826825
 20
-32.859491
 30
0.0
 10
183.826477
 20
-32.858804
 30
0.0
  0
SPLINE
  5
184
100
AcDbEntity
  8
Front
 62
7
100
AcDbSpline
 70
8
 71
3
 72
8
 73
4
 74
0
 40
0
 40
0
 40
0
 40
0
 40
1
 40
1
 40
1
 40
1
 10
183.826477
 20
-32.858804
 30
0.0
 10
183.809520
 20
-32.820095
 30
0.0
 10
183.783030
 20
-32.786314
 30
0.0
 10
183.749480
 20
-32.760617
 30
0.0
  0
SPLINE
  5
185
100
AcDbEntity
  8
Front
 62
7
100
AcDbSpline
 70
8
 71
3
 72
8
 73
4
 74
0
 40
0
 40
0
 40
0
 40
0
 40
1
 40
1
 40
1
 40
1
 10
183.749480
 20
-32.760617
 30
0.0
 10
183.749480
 20
-32.760617
 30
0.0
 10
180.825110
 20
-29.838832
 30
0.0
 10
180.825110
 20
-29.838832
 30
0.0
  0
SPLINE
  5
186
100
AcDbEntity
  8
Front
 62
7
100
AcDbSpline
 70
8
 71
3
 72
8
 73
4
 74
0
 40
0
 40
0
 40
0
 40
0
 40
1
 40
1
 40
1
 40
1
 10
180.825110
 20
-29.838832
 30
0.0
 10
180.798165
 20
-29.803556
 30
0.0
 10
180.762315
 20
-29.776088
 30
0.0
 10
180.721242
 20
-29.759251
 30
0.0
  0
SPLINE
  5
187
100
AcDbEntity
  8
Front
 62
7
100
AcDbSpline
 70
8
 71
3
 72
8
 73
4
 74
0
 40
0
 40
0
 40
0
 40
0
 40
1
 40
1
 40
1
 40
1
 10
180.721242
 20
-29.759251
 30
0.0
 10
180.718676
 20
-29.758174
 30
0.0
 10
180.716091
 20
-29.757140
 30
0.0
 10
180.713490
 20
-29.756150
 30
0.0
  0
SPLINE
  5
188
100
AcDbEntity
  8
Front
 62
7
100
AcDbSpline
 70
8
 71
3
 72
8
 73
4
 74
0
 40
0
 40
0
 40
0
 40
0
 40
1
 40
1
 40
1
 40
1
 10
180.713490
 20
-29.756150
 30
0.0
 10
180.683921
 20
-29.744247
 30
0.0
 10
180.652348
 20
-29.738108
 30
0.0
 10
180.620473
 20
-29.738063
 30
0.0
  0
SPLINE
  5
189
100
AcDbEntity
  8
Front
 62
7
100
AcDbSpline
 70
8
 71
3
 72
8
 73
4
 74
0
 40
0
 40
0
 40
0
 40
0
 40
1
 40
1
 40
1
 40
1
 10
180.620473
 20
-29.738063
 30
0.0
 10
180.608886
 20
-29.738121
 30
0.0
 10
180.597317
 20
-29.738985
 30
0.0
 10
180.585850
 20
-29.740648
 30
0.0
  0
SPLINE
  5
18a
100
AcDbEntity
  8
Front
 62
7
100
AcDbSpline
 70
8
 71
3
 72
8
 73
4
 74
0
 40
0
 40
0
 40
0
 40
0
 40
1
 40
1
 40
1
 40
1
 10
180.585850
 20
-29.740648
 30
0.0
 10
180.585850
 20
-29.740648
 30
0.0
 10
173.227643
 20
-29.740648
 30
0.0
 10
173.227643
 20
-29.740648
 30
0.0
  0
SPLINE
  5
18b
100
AcDbEntity
  8
Front
 62
7
100
AcDbSpline
 70
8
 71
3
 72
8
 73
4
 74
0
 40
0
 40
0
 40
0
 40
0
 40
1
 40
1
 40
1
 40
1
 10
173.227643
 20
-29.740648
 30
0.0
 10
173.213958
 20
-29.738644
 30
0.0
 10
173.200130
 20
-29.737780
 30
0.0
 10
173.186302
 20
-29.738063
 30
0.0
  0
LINE
  5
18c
100
AcDbEntity
  8
Front
 62
7
100
AcDbLine
 10
173.186302
 20
-29.738063
 30
0.0
 11
173.186302
 21
-29.738063
 31
0.0
  0
SPLINE
  5
18d
100
AcDbEntity
  8
Front
 62
7
100
AcDbSpline
 70
8
 71
3
 72
8
 73
4
 74
0
 40
0
 40
0
 40
0
 40
0
 40
1
 40
1
 40
1
 40
1
 10
177.100274
 20
-30.539049
 30
0.0
 10
176.659251
 20
-30.533379
 30
0.0
 10
176.287633
 20
-30.833181
 30
0.0
 10
176.175783
 20
-31.239263
 30
0.0
  0
LINE
  5
18e
100
AcDbEntity
  8
Front
 62
7
100
AcDbLine
 10
176.175783
 20
-31.239263
 30
0.0
 11
175.511224
 21
-31.239263
 31
0.0
  0
LINE
  5
18f
100
AcDbEntity
  8
Front
 62
7
100
AcDbLine
 10
175.511224
 20
-31.239263
 30
0.0
 11
175.511224
 21
-30.640850
 31
0.0
  0
SPLINE
  5
190
100
AcDbEntity
  8
Front
 62
7
100
AcDbSpline
 70
8
 71
3
 72
8
 73
4
 74
0
 40
0
 40
0
 40
0
 40
0
 40
1
 40
1
 40
1
 40
1
 10
175.511224
 20
-30.640850
 30
0.0
 10
175.511224
 20
-30.585626
 30
0.0
 10
175.466195
 20
-30.540605
 30
0.0
 10
175.410971
 20
-30.540599
 30
0.0
  0
LINE
  5
191
100
AcDbEntity
  8
Front
 62
7
100
AcDbLine
 10
175.410971
 20
-30.540599
 30
0.0
 11
173.711851
 21
-30.540599
 31
0.0
  0
SPLINE
  5
192
100
AcDbEntity
  8
Front
 62
7
100
AcDbSpline
 70
8
 71
3
 72
8
 73
4
 74
0
 40
0
 40
0
 40
0
 40
0
 40
1
 40
1
 40
1
 40
1
 10
173.711851
 20
-30.540599
 30
0.0
 10
173.656628
 20
-30.540599
 30
0.0
 10
173.611606
 20
-30.585626
 30
0.0
 10
173.611598
 20
-30.640850
 30
0.0
  0
LINE
  5
193
100
AcDbEntity
  8
Front
 62
7
100
AcDbLine
 10
173.611598
 20
-30.640850
 30
0.0
 11
173.611598
 21
-32.339972
 31
0.0
  0
SPLINE
  5
194
100
AcDbEntity
  8
Front
 62
7
100
AcDbSpline
 70
8
 71
3
 72
8
 73
4
 74
0
 40
0
 40
0
 40
0
 40
0
 40
1
 40
1
 40
1
 40
1
 10
173.611598
 20
-32.339972
 30
0.0
 10
173.611598
 20
-32.395196
 30
0.0
 10
173.656628
 20
-32.440217
 30
0.0
 10
173.711851
 20
-32.440225
 30
0.0
  0
LINE
  5
195
100
AcDbEntity
  8
Front
 62
7
100
AcDbLine
 10
173.711851
 20
-32.440225
 30
0.0
 11
175.410971
 21
-32.440225
 31
0.0
  0
SPLINE
  5
196
100
AcDbEntity
  8
Front
 62
7
100
AcDbSpline
 70
8
 71
3
 72
8
 73
4
 74
0
 40
0
 40
0
 40
0
 40
0
 40
1
 40
1
 40
1
 40
1
 10
175.410971
 20
-32.440225
 30
0.0
 10
175.466195
 20
-32.440225
 30
0.0
 10
175.511216
 20
-32.395196
 30
0.0
 10
175.511224
 20
-32.339972
 30
0.0
  0
LINE
  5
197
100
AcDbEntity
  8
Front
 62
7
100
AcDbLine
 10
175.511224
 20
-32.339972
 30
0.0
 11
175.511224
 21
-31.738974
 31
0.0
  0
LINE
  5
198
100
AcDbEntity
  8
Front
 62
7
100
AcDbLine
 10
175.511224
 20
-31.738974
 30
0.0
 11
176.175783
 21
-31.738974
 31
0.0
  0
SPLINE
  5
199
100
AcDbEntity
  8
Front
 62
7
100
AcDbSpline
 70
8
 71
3
 72
8
 73
4
 74
0
 40
0
 40
0
 40
0
 40
0
 40
1
 40
1
 40
1
 40
1
 10
176.175783
 20
-31.738974
 30
0.0
 10
176.287522
 20
-32.145226
 30
0.0
 10
176.659132
 20
-32.444864
 30
0.0
 10
177.100274
 20
-32.439191
 30
0.0
  0
SPLINE
  5
19a
100
AcDbEntity
  8
Front
 62
7
100
AcDbSpline
 70
8
 71
3
 72
8
 73
4
 74
0
 40
0
 40
0
 40
0
 40
0
 40
1
 40
1
 40
1
 40
1
 10
177.100274
 20
-32.439191
 30
0.0
 10
177.541417
 20
-32.444864
 30
0.0
 10
177.913027
 20
-32.145226
 30
0.0
 10
178.024766
 20
-31.738974
 30
0.0
  0
LINE
  5
19b
100
AcDbEntity
  8
Front
 62
7
100
AcDbLine
 10
178.024766
 20
-31.738974
 30
0.0
 11
179.803469
 21
-31.738974
 31
0.0
  0
LINE
  5
19c
100
AcDbEntity
  8
Front
 62
7
100
AcDbLine
 10
179.803469
 20
-31.738974
 30
0.0
 11
179.805017
 21
-31.750862
 31
0.0
  0
LINE
  5
19d
100
AcDbEntity
  8
Front
 62
7
100
AcDbLine
 10
179.805017
 20
-31.750862
 30
0.0
 11
179.810187
 21
-31.771015
 31
0.0
  0
LINE
  5
19e
100
AcDbEntity
  8
Front
 62
7
100
AcDbLine
 10
179.810187
 20
-31.771015
 30
0.0
 11
179.817936
 21
-31.791684
 31
0.0
  0
LINE
  5
19f
100
AcDbEntity
  8
Front
 62
7
100
AcDbLine
 10
179.817936
 20
-31.791684
 30
0.0
 11
179.828274
 21
-31.811840
 31
0.0
  0
LINE
  5
1a0
100
AcDbEntity
  8
Front
 62
7
100
AcDbLine
 10
179.828274
 20
-31.811840
 30
0.0
 11
179.838090
 21
-31.829408
 31
0.0
  0
LINE
  5
1a1
100
AcDbEntity
  8
Front
 62
7
100
AcDbLine
 10
179.838090
 20
-31.829408
 30
0.0
 11
179.851009
 21
-31.847495
 31
0.0
  0
LINE
  5
1a2
100
AcDbEntity
  8
Front
 62
7
100
AcDbLine
 10
179.851009
 20
-31.847495
 30
0.0
 11
179.865995
 21
-31.862481
 31
0.0
  0
LINE
  5
1a3
100
AcDbEntity
  8
Front
 62
7
100
AcDbLine
 10
179.865995
 20
-31.862481
 30
0.0
 11
179.881500
 21
-31.877986
 31
0.0
  0
LINE
  5
1a4
100
AcDbEntity
  8
Front
 62
7
100
AcDbLine
 10
179.881500
 20
-31.877986
 30
0.0
 11
179.899068
 21
-31.890387
 31
0.0
  0
LINE
  5
1a5
100
AcDbEntity
  8
Front
 62
7
100
AcDbLine
 10
179.899068
 20
-31.890387
 30
0.0
 11
179.917155
 21
-31.900722
 31
0.0
  0
LINE
  5
1a6
100
AcDbEntity
  8
Front
 62
7
100
AcDbLine
 10
179.917155
 20
-31.900722
 30
0.0
 11
179.937309
 21
-31.911059
 31
0.0
  0
LINE
  5
1a7
100
AcDbEntity
  8
Front
 62
7
100
AcDbLine
 10
179.937309
 20
-31.911059
 30
0.0
 11
179.957464
 21
-31.918293
 31
0.0
  0
LINE
  5
1a8
100
AcDbEntity
  8
Front
 62
7
100
AcDbLine
 10
179.957464
 20
-31.918293
 30
0.0
 11
179.978134
 21
-31.923460
 31
0.0
  0
LINE
  5
1a9
100
AcDbEntity
  8
Front
 62
7
100
AcDbLine
 10
179.978134
 20
-31.923460
 30
0.0
 11
179.998287
 21
-31.926045
 31
0.0
  0
LINE
  5
1aa
100
AcDbEntity
  8
Front
 62
7
100
AcDbLine
 10
179.998287
 20
-31.926045
 30
0.0
 11
180.021025
 21
-31.928627
 31
0.0
  0
LINE
  5
1ab
100
AcDbEntity
  8
Front
 62
7
100
AcDbLine
 10
180.021025
 20
-31.928627
 30
0.0
 11
180.531589
 21
-31.928627
 31
0.0
  0
LINE
  5
1ac
100
AcDbEntity
  8
Front
 62
7
100
AcDbLine
 10
180.531589
 20
-31.928627
 30
0.0
 11
180.554327
 21
-31.926045
 31
0.0
  0
LINE
  5
1ad
100
AcDbEntity
  8
Front
 62
7
100
AcDbLine
 10
180.554327
 20
-31.926045
 30
0.0
 11
180.574997
 21
-31.923460
 31
0.0
  0
LINE
  5
1ae
100
AcDbEntity
  8
Front
 62
7
100
AcDbLine
 10
180.574997
 20
-31.923460
 30
0.0
 11
180.595150
 21
-31.918293
 31
0.0
  0
LINE
  5
1af
100
AcDbEntity
  8
Front
 62
7
100
AcDbLine
 10
180.595150
 20
-31.918293
 30
0.0
 11
180.615303
 21
-31.911059
 31
0.0
  0
LINE
  5
1b0
100
AcDbEntity
  8
Front
 62
7
100
AcDbLine
 10
180.615303
 20
-31.911059
 30
0.0
 11
180.635975
 21
-31.900722
 31
0.0
  0
LINE
  5
1b1
100
AcDbEntity
  8
Front
 62
7
100
AcDbLine
 10
180.635975
 20
-31.900722
 30
0.0
 11
180.653546
 21
-31.890387
 31
0.0
  0
LINE
  5
1b2
100
AcDbEntity
  8
Front
 62
7
100
AcDbLine
 10
180.653546
 20
-31.890387
 30
0.0
 11
180.671114
 21
-31.877986
 31
0.0
  0
LINE
  5
1b3
100
AcDbEntity
  8
Front
 62
7
100
AcDbLine
 10
180.671114
 20
-31.877986
 30
0.0
 11
180.686619
 21
-31.862481
 31
0.0
  0
LINE
  5
1b4
100
AcDbEntity
  8
Front
 62
7
100
AcDbLine
 10
180.686619
 20
-31.862481
 30
0.0
 11
180.701605
 21
-31.847495
 31
0.0
  0
LINE
  5
1b5
100
AcDbEntity
  8
Front
 62
7
100
AcDbLine
 10
180.701605
 20
-31.847495
 30
0.0
 11
180.714522
 21
-31.829408
 31
0.0
  0
LINE
  5
1b6
100
AcDbEntity
  8
Front
 62
7
100
AcDbLine
 10
180.714522
 20
-31.829408
 30
0.0
 11
180.724859
 21
-31.811840
 31
0.0
  0
LINE
  5
1b7
100
AcDbEntity
  8
Front
 62
7
100
AcDbLine
 10
180.724859
 20
-31.811840
 30
0.0
 11
180.734678
 21
-31.791684
 31
0.0
  0
LINE
  5
1b8
100
AcDbEntity
  8
Front
 62
7
100
AcDbLine
 10
180.734678
 20
-31.791684
 30
0.0
 11
180.742428
 21
-31.771015
 31
0.0
  0
LINE
  5
1b9
100
AcDbEntity
  8
Front
 62
7
100
AcDbLine
 10
180.742428
 20
-31.771015
 30
0.0
 11
180.747595
 21
-31.750862
 31
0.0
  0
LINE
  5
1ba
100
AcDbEntity
  8
Front
 62
7
100
AcDbLine
 10
180.747595
 20
-31.750862
 30
0.0
 11
180.749145
 21
-31.740008
 31
0.0
  0
LINE
  5
1bb
100
AcDbEntity
  8
Front
 62
7
100
AcDbLine
 10
180.749145
 20
-31.740008
 30
0.0
 11
181.294848
 21
-32.288296
 31
0.0
  0
LINE
  5
1bc
100
AcDbEntity
  8
Front
 62
7
100
AcDbLine
 10
181.294848
 20
-32.288296
 30
0.0
 11
181.294848
 21
-40.010821
 31
0.0
  0
LINE
  5
1bd
100
AcDbEntity
  8
Front
 62
7
100
AcDbLine
 10
181.294848
 20
-40.010821
 30
0.0
 11
180.346071
 21
-40.010821
 31
0.0
  0
LINE
  5
1be
100
AcDbEntity
  8
Front
 62
7
100
AcDbLine
 10
180.346071
 20
-40.010821
 30
0.0
 11
180.346071
 21
-40.749794
 31
0.0
  0
LINE
  5
1bf
100
AcDbEntity
  8
Front
 62
7
100
AcDbLine
 10
180.346071
 20
-40.749794
 30
0.0
 11
182.746440
 21
-40.749794
 31
0.0
  0
LINE
  5
1c0
100
AcDbEntity
  8
Front
 62
7
100
AcDbLine
 10
182.746440
 20
-40.749794
 30
0.0
 11
182.746440
 21
-40.010821
 31
0.0
  0
LINE
  5
1c1
100
AcDbEntity
  8
Front
 62
7
100
AcDbLine
 10
182.746440
 20
-40.010821
 30
0.0
 11
181.795077
 21
-40.010821
 31
0.0
  0
SPLINE
  5
1c2
100
AcDbEntity
  8
Front
 62
7
100
AcDbSpline
 70
8
 71
3
 72
8
 73
4
 74
0
 40
0
 40
0
 40
0
 40
0
 40
1
 40
1
 40
1
 40
1
 10
181.795077
 20
-40.010821
 30
0.0
 10
181.795077
 20
-40.010821
 30
0.0
 10
181.795077
 20
-32.222151
 30
0.0
 10
181.795077
 20
-32.222151
 30
0.0
  0
SPLINE
  5
1c3
100
AcDbEntity
  8
Front
 62
7
100
AcDbSpline
 70
8
 71
3
 72
8
 73
4
 74
0
 40
0
 40
0
 40
0
 40
0
 40
1
 40
1
 40
1
 40
1
 10
181.795077
 20
-32.222151
 30
0.0
 10
181.801124
 20
-32.178980
 30
0.0
 10
181.795780
 20
-32.134978
 30
0.0
 10
181.779576
 20
-32.094510
 30
0.0
  0
SPLINE
  5
1c4
100
AcDbEntity
  8
Front
 62
7
100
AcDbSpline
 70
8
 71
3
 72
8
 73
4
 74
0
 40
0
 40
0
 40
0
 40
0
 40
1
 40
1
 40
1
 40
1
 10
181.779576
 20
-32.094510
 30
0.0
 10
181.763082
 20
-32.050681
 30
0.0
 10
181.734613
 20
-32.012364
 30
0.0
 10
181.697409
 20
-31.983922
 30
0.0
  0
SPLINE
  5
1c5
100
AcDbEntity
  8
Front
 62
7
100
AcDbSpline
 70
8
 71
3
 72
8
 73
4
 74
0
 40
0
 40
0
 40
0
 40
0
 40
1
 40
1
 40
1
 40
1
 10
181.697409
 20
-31.983922
 30
0.0
 10
181.697409
 20
-31.983922
 30
0.0
 10
181.054554
 20
-31.338482
 30
0.0
 10
181.054554
 20
-31.338482
 30
0.0
  0
SPLINE
  5
1c6
100
AcDbEntity
  8
Front
 62
7
100
AcDbSpline
 70
8
 71
3
 72
8
 73
4
 74
0
 40
0
 40
0
 40
0
 40
0
 40
1
 40
1
 40
1
 40
1
 10
181.054554
 20
-31.338482
 30
0.0
 10
181.028698
 20
-31.304415
 30
0.0
 10
180.994537
 20
-31.277549
 30
0.0
 10
180.955335
 20
-31.260451
 30
0.0
  0
SPLINE
  5
1c7
100
AcDbEntity
  8
Front
 62
7
100
AcDbSpline
 70
8
 71
3
 72
8
 73
4
 74
0
 40
0
 40
0
 40
0
 40
0
 40
1
 40
1
 40
1
 40
1
 10
180.955335
 20
-31.260451
 30
0.0
 10
180.922190
 20
-31.244865
 30
0.0
 10
180.886025
 20
-31.236750
 30
0.0
 10
180.849399
 20
-31.236681
 30
0.0
  0
SPLINE
  5
1c8
100
AcDbEntity
  8
Front
 62
7
100
AcDbSpline
 70
8
 71
3
 72
8
 73
4
 74
0
 40
0
 40
0
 40
0
 40
0
 40
1
 40
1
 40
1
 40
1
 10
180.849399
 20
-31.236681
 30
0.0
 10
180.837466
 20
-31.236690
 30
0.0
 10
180.825550
 20
-31.237553
 30
0.0
 10
180.813741
 20
-31.239263
 30
0.0
  0
LINE
  5
1c9
100
AcDbEntity
  8
Front
 62
7
100
AcDbLine
 10
180.813741
 20
-31.239263
 30
0.0
 11
180.749145
 21
-31.239263
 31
0.0
  0
LINE
  5
1ca
100
AcDbEntity
  8
Front
 62
7
100
AcDbLine
 10
180.749145
 20
-31.239263
 30
0.0
 11
180.747595
 21
-31.227378
 31
0.0
  0
LINE
  5
1cb
100
AcDbEntity
  8
Front
 62
7
100
AcDbLine
 10
180.747595
 20
-31.227378
 30
0.0
 11
180.742428
 21
-31.207225
 31
0.0
  0
LINE
  5
1cc
100
AcDbEntity
  8
Front
 62
7
100
AcDbLine
 10
180.742428
 20
-31.207225
 30
0.0
 11
180.734678
 21
-31.187072
 31
0.0
  0
LINE
  5
1cd
100
AcDbEntity
  8
Front
 62
7
100
AcDbLine
 10
180.734678
 20
-31.187072
 30
0.0
 11
180.724859
 21
-31.168985
 31
0.0
  0
LINE
  5
1ce
100
AcDbEntity
  8
Front
 62
7
100
AcDbLine
 10
180.724859
 20
-31.168985
 30
0.0
 11
180.714522
 21
-31.148831
 31
0.0
  0
LINE
  5
1cf
100
AcDbEntity
  8
Front
 62
7
100
AcDbLine
 10
180.714522
 20
-31.148831
 30
0.0
 11
180.701605
 21
-31.133327
 31
0.0
  0
LINE
  5
1d0
100
AcDbEntity
  8
Front
 62
7
100
AcDbLine
 10
180.701605
 20
-31.133327
 30
0.0
 11
180.686619
 21
-31.115758
 31
0.0
  0
LINE
  5
1d1
100
AcDbEntity
  8
Front
 62
7
100
AcDbLine
 10
180.686619
 20
-31.115758
 30
0.0
 11
180.671114
 21
-31.102839
 31
0.0
  0
LINE
  5
1d2
100
AcDbEntity
  8
Front
 62
7
100
AcDbLine
 10
180.671114
 20
-31.102839
 30
0.0
 11
180.653546
 21
-31.090435
 31
0.0
  0
LINE
  5
1d3
100
AcDbEntity
  8
Front
 62
7
100
AcDbLine
 10
180.653546
 20
-31.090435
 30
0.0
 11
180.635975
 21
-31.077516
 31
0.0
  0
LINE
  5
1d4
100
AcDbEntity
  8
Front
 62
7
100
AcDbLine
 10
180.635975
 20
-31.077516
 30
0.0
 11
180.615303
 21
-31.070282
 31
0.0
  0
LINE
  5
1d5
100
AcDbEntity
  8
Front
 62
7
100
AcDbLine
 10
180.615303
 20
-31.070282
 30
0.0
 11
180.595150
 21
-31.062530
 31
0.0
  0
LINE
  5
1d6
100
AcDbEntity
  8
Front
 62
7
100
AcDbLine
 10
180.595150
 20
-31.062530
 30
0.0
 11
180.574997
 21
-31.057362
 31
0.0
  0
LINE
  5
1d7
100
AcDbEntity
  8
Front
 62
7
100
AcDbLine
 10
180.574997
 20
-31.057362
 30
0.0
 11
180.554327
 21
-31.054780
 31
0.0
  0
LINE
  5
1d8
100
AcDbEntity
  8
Front
 62
7
100
AcDbLine
 10
180.554327
 20
-31.054780
 30
0.0
 11
180.531589
 21
-31.052195
 31
0.0
  0
LINE
  5
1d9
100
AcDbEntity
  8
Front
 62
7
100
AcDbLine
 10
180.531589
 20
-31.052195
 30
0.0
 11
180.021025
 21
-31.052195
 31
0.0
  0
LINE
  5
1da
100
AcDbEntity
  8
Front
 62
7
100
AcDbLine
 10
180.021025
 20
-31.052195
 30
0.0
 11
179.998287
 21
-31.054780
 31
0.0
  0
LINE
  5
1db
100
AcDbEntity
  8
Front
 62
7
100
AcDbLine
 10
179.998287
 20
-31.054780
 30
0.0
 11
179.978134
 21
-31.057362
 31
0.0
  0
LINE
  5
1dc
100
AcDbEntity
  8
Front
 62
7
100
AcDbLine
 10
179.978134
 20
-31.057362
 30
0.0
 11
179.957464
 21
-31.062530
 31
0.0
  0
LINE
  5
1dd
100
AcDbEntity
  8
Front
 62
7
100
AcDbLine
 10
179.957464
 20
-31.062530
 30
0.0
 11
179.937309
 21
-31.070282
 31
0.0
  0
LINE
  5
1de
100
AcDbEntity
  8
Front
 62
7
100
AcDbLine
 10
179.937309
 20
-31.070282
 30
0.0
 11
179.917155
 21
-31.077516
 31
0.0
  0
LINE
  5
1df
100
AcDbEntity
  8
Front
 62
7
100
AcDbLine
 10
179.917155
 20
-31.077516
 30
0.0
 11
179.899068
 21
-31.090435
 31
0.0
  0
LINE
  5
1e0
100
AcDbEntity
  8
Front
 62
7
100
AcDbLine
 10
179.899068
 20
-31.090435
 30
0.0
 11
179.881500
 21
-31.102839
 31
0.0
  0
LINE
  5
1e1
100
AcDbEntity
  8
Front
 62
7
100
AcDbLine
 10
179.881500
 20
-31.102839
 30
0.0
 11
179.865995
 21
-31.115758
 31
0.0
  0
LINE
  5
1e2
100
AcDbEntity
  8
Front
 62
7
100
AcDbLine
 10
179.865995
 20
-31.115758
 30
0.0
 11
179.851009
 21
-31.133327
 31
0.0
  0
LINE
  5
1e3
100
AcDbEntity
  8
Front
 62
7
100
AcDbLine
 10
179.851009
 20
-31.133327
 30
0.0
 11
179.838090
 21
-31.148831
 31
0.0
  0
LINE
  5
1e4
100
AcDbEntity
  8
Front
 62
7
100
AcDbLine
 10
179.838090
 20
-31.148831
 30
0.0
 11
179.828274
 21
-31.168985
 31
0.0
  0
LINE
  5
1e5
100
AcDbEntity
  8
Front
 62
7
100
AcDbLine
 10
179.828274
 20
-31.168985
 30
0.0
 11
179.817936
 21
-31.187072
 31
0.0
  0
LINE
  5
1e6
100
AcDbEntity
  8
Front
 62
7
100
AcDbLine
 10
179.817936
 20
-31.187072
 30
0.0
 11
179.810187
 21
-31.207225
 31
0.0
  0
LINE
  5
1e7
100
AcDbEntity
  8
Front
 62
7
100
AcDbLine
 10
179.810187
 20
-31.207225
 30
0.0
 11
179.805017
 21
-31.227378
 31
0.0
  0
LINE
  5
1e8
100
AcDbEntity
  8
Front
 62
7
100
AcDbLine
 10
179.805017
 20
-31.227378
 30
0.0
 11
179.803469
 21
-31.239263
 31
0.0
  0
LINE
  5
1e9
100
AcDbEntity
  8
Front
 62
7
100
AcDbLine
 10
179.803469
 20
-31.239263
 30
0.0
 11
178.024766
 21
-31.239263
 31
0.0
  0
SPLINE
  5
1ea
100
AcDbEntity
  8
Front
 62
7
100
AcDbSpline
 70
8
 71
3
 72
8
 73
4
 74
0
 40
0
 40
0
 40
0
 40
0
 40
1
 40
1
 40
1
 40
1
 10
178.024766
 20
-31.239263
 30
0.0
 10
177.912916
 20
-30.833181
 30
0.0
 10
177.541298
 20
-30.533379
 30
0.0
 10
177.100274
 20
-30.539049
 30
0.0
  0
LINE
  5
1eb
100
AcDbEntity
  8
Front
 62
7
100
AcDbLine
 10
177.100274
 20
-30.539049
 30
0.0
 11
177.100274
 21
-30.539049
 31
0.0
  0
LINE
  5
1ec
100
AcDbEntity
  8
Front
 62
7
100
AcDbLine
 10
180.021025
 20
-32.627294
 30
0.0
 11
179.998287
 21
-32.629876
 31
0.0
  0
LINE
  5
1ed
100
AcDbEntity
  8
Front
 62
7
100
AcDbLine
 10
179.998287
 20
-32.629876
 30
0.0
 11
179.978134
 21
-32.631942
 31
0.0
  0
LINE
  5
1ee
100
AcDbEntity
  8
Front
 62
7
100
AcDbLine
 10
179.978134
 20
-32.631942
 30
0.0
 11
179.957464
 21
-32.637112
 31
0.0
  0
LINE
  5
1ef
100
AcDbEntity
  8
Front
 62
7
100
AcDbLine
 10
179.957464
 20
-32.637112
 30
0.0
 11
179.937309
 21
-32.644862
 31
0.0
  0
LINE
  5
1f0
100
AcDbEntity
  8
Front
 62
7
100
AcDbLine
 10
179.937309
 20
-32.644862
 30
0.0
 11
179.917155
 21
-32.652614
 31
0.0
  0
LINE
  5
1f1
100
AcDbEntity
  8
Front
 62
7
100
AcDbLine
 10
179.917155
 20
-32.652614
 30
0.0
 11
179.899068
 21
-32.665015
 31
0.0
  0
LINE
  5
1f2
100
AcDbEntity
  8
Front
 62
7
100
AcDbLine
 10
179.899068
 20
-32.665015
 30
0.0
 11
179.881500
 21
-32.677935
 31
0.0
  0
LINE
  5
1f3
100
AcDbEntity
  8
Front
 62
7
100
AcDbLine
 10
179.881500
 20
-32.677935
 30
0.0
 11
179.865995
 21
-32.690339
 31
0.0
  0
LINE
  5
1f4
100
AcDbEntity
  8
Front
 62
7
100
AcDbLine
 10
179.865995
 20
-32.690339
 30
0.0
 11
179.851009
 21
-32.708426
 31
0.0
  0
LINE
  5
1f5
100
AcDbEntity
  8
Front
 62
7
100
AcDbLine
 10
179.851009
 20
-32.708426
 30
0.0
 11
179.838090
 21
-32.723412
 31
0.0
  0
LINE
  5
1f6
100
AcDbEntity
  8
Front
 62
7
100
AcDbLine
 10
179.838090
 20
-32.723412
 30
0.0
 11
179.828274
 21
-32.744081
 31
0.0
  0
LINE
  5
1f7
100
AcDbEntity
  8
Front
 62
7
100
AcDbLine
 10
179.828274
 20
-32.744081
 30
0.0
 11
179.817936
 21
-32.761652
 31
0.0
  0
LINE
  5
1f8
100
AcDbEntity
  8
Front
 62
7
100
AcDbLine
 10
179.817936
 20
-32.761652
 30
0.0
 11
179.810187
 21
-32.781805
 31
0.0
  0
LINE
  5
1f9
100
AcDbEntity
  8
Front
 62
7
100
AcDbLine
 10
179.810187
 20
-32.781805
 30
0.0
 11
179.805017
 21
-32.802477
 31
0.0
  0
LINE
  5
1fa
100
AcDbEntity
  8
Front
 62
7
100
AcDbLine
 10
179.805017
 20
-32.802477
 30
0.0
 11
179.802435
 21
-32.825213
 31
0.0
  0
LINE
  5
1fb
100
AcDbEntity
  8
Front
 62
7
100
AcDbLine
 10
179.802435
 20
-32.825213
 30
0.0
 11
179.799850
 21
-32.845369
 31
0.0
  0
LINE
  5
1fc
100
AcDbEntity
  8
Front
 62
7
100
AcDbLine
 10
179.799850
 20
-32.845369
 30
0.0
 11
179.799850
 21
-33.285135
 31
0.0
  0
LINE
  5
1fd
100
AcDbEntity
  8
Front
 62
7
100
AcDbLine
 10
179.799850
 20
-33.285135
 30
0.0
 11
179.802435
 21
-33.305288
 31
0.0
  0
LINE
  5
1fe
100
AcDbEntity
  8
Front
 62
7
100
AcDbLine
 10
179.802435
 20
-33.305288
 30
0.0
 11
179.805017
 21
-33.325442
 31
0.0
  0
LINE
  5
1ff
100
AcDbEntity
  8
Front
 62
7
100
AcDbLine
 10
179.805017
 20
-33.325442
 30
0.0
 11
179.810187
 21
-33.348696
 31
0.0
  0
LINE
  5
200
100
AcDbEntity
  8
Front
 62
7
100
AcDbLine
 10
179.810187
 20
-33.348696
 30
0.0
 11
179.817936
 21
-33.368849
 31
0.0
  0
LINE
  5
201
100
AcDbEntity
  8
Front
 62
7
100
AcDbLine
 10
179.817936
 20
-33.368849
 30
0.0
 11
179.828274
 21
-33.386420
 31
0.0
  0
LINE
  5
202
100
AcDbEntity
  8
Front
 62
7
100
AcDbLine
 10
179.828274
 20
-33.386420
 30
0.0
 11
179.838090
 21
-33.404507
 31
0.0
  0
LINE
  5
203
100
AcDbEntity
  8
Front
 62
7
100
AcDbLine
 10
179.838090
 20
-33.404507
 30
0.0
 11
179.851009
 21
-33.422075
 31
0.0
  0
LINE
  5
204
100
AcDbEntity
  8
Front
 62
7
100
AcDbLine
 10
179.851009
 20
-33.422075
 30
0.0
 11
179.865995
 21
-33.437580
 31
0.0
  0
LINE
  5
205
100
AcDbEntity
  8
Front
 62
7
100
AcDbLine
 10
179.865995
 20
-33.437580
 30
0.0
 11
179.881500
 21
-33.452566
 31
0.0
  0
LINE
  5
206
100
AcDbEntity
  8
Front
 62
7
100
AcDbLine
 10
179.881500
 20
-33.452566
 30
0.0
 11
179.899068
 21
-33.465486
 31
0.0
  0
LINE
  5
207
100
AcDbEntity
  8
Front
 62
7
100
AcDbLine
 10
179.899068
 20
-33.465486
 30
0.0
 11
179.917155
 21
-33.475302
 31
0.0
  0
LINE
  5
208
100
AcDbEntity
  8
Front
 62
7
100
AcDbLine
 10
179.917155
 20
-33.475302
 30
0.0
 11
179.937309
 21
-33.485639
 31
0.0
  0
LINE
  5
209
100
AcDbEntity
  8
Front
 62
7
100
AcDbLine
 10
179.937309
 20
-33.485639
 30
0.0
 11
179.957464
 21
-33.493389
 31
0.0
  0
LINE
  5
20a
100
AcDbEntity
  8
Front
 62
7
100
AcDbLine
 10
179.957464
 20
-33.493389
 30
0.0
 11
179.978134
 21
-33.498559
 31
0.0
  0
LINE
  5
20b
100
AcDbEntity
  8
Front
 62
7
100
AcDbLine
 10
179.978134
 20
-33.498559
 30
0.0
 11
179.998287
 21
-33.500625
 31
0.0
  0
LINE
  5
20c
100
AcDbEntity
  8
Front
 62
7
100
AcDbLine
 10
179.998287
 20
-33.500625
 30
0.0
 11
180.021025
 21
-33.503207
 31
0.0
  0
LINE
  5
20d
100
AcDbEntity
  8
Front
 62
7
100
AcDbLine
 10
180.021025
 20
-33.503207
 30
0.0
 11
180.025161
 21
-33.503207
 31
0.0
  0
LINE
  5
20e
100
AcDbEntity
  8
Front
 62
7
100
AcDbLine
 10
180.025161
 20
-33.503207
 30
0.0
 11
180.025161
 21
-34.557408
 31
0.0
  0
LINE
  5
20f
100
AcDbEntity
  8
Front
 62
7
100
AcDbLine
 10
180.025161
 20
-34.557408
 30
0.0
 11
180.021025
 21
-34.557408
 31
0.0
  0
LINE
  5
210
100
AcDbEntity
  8
Front
 62
7
100
AcDbLine
 10
180.021025
 20
-34.557408
 30
0.0
 11
179.998287
 21
-34.557408
 31
0.0
  0
LINE
  5
211
100
AcDbEntity
  8
Front
 62
7
100
AcDbLine
 10
179.998287
 20
-34.557408
 30
0.0
 11
179.978134
 21
-34.562575
 31
0.0
  0
LINE
  5
212
100
AcDbEntity
  8
Front
 62
7
100
AcDbLine
 10
179.978134
 20
-34.562575
 30
0.0
 11
179.957464
 21
-34.567742
 31
0.0
  0
LINE
  5
213
100
AcDbEntity
  8
Front
 62
7
100
AcDbLine
 10
179.957464
 20
-34.567742
 30
0.0
 11
179.937309
 21
-34.575495
 31
0.0
  0
LINE
  5
214
100
AcDbEntity
  8
Front
 62
7
100
AcDbLine
 10
179.937309
 20
-34.575495
 30
0.0
 11
179.917155
 21
-34.582728
 31
0.0
  0
LINE
  5
215
100
AcDbEntity
  8
Front
 62
7
100
AcDbLine
 10
179.917155
 20
-34.582728
 30
0.0
 11
179.899068
 21
-34.595648
 31
0.0
  0
LINE
  5
216
100
AcDbEntity
  8
Front
 62
7
100
AcDbLine
 10
179.899068
 20
-34.595648
 30
0.0
 11
179.881500
 21
-34.608052
 31
0.0
  0
LINE
  5
217
100
AcDbEntity
  8
Front
 62
7
100
AcDbLine
 10
179.881500
 20
-34.608052
 30
0.0
 11
179.865995
 21
-34.620969
 31
0.0
  0
LINE
  5
218
100
AcDbEntity
  8
Front
 62
7
100
AcDbLine
 10
179.865995
 20
-34.620969
 30
0.0
 11
179.851009
 21
-34.638539
 31
0.0
  0
LINE
  5
219
100
AcDbEntity
  8
Front
 62
7
100
AcDbLine
 10
179.851009
 20
-34.638539
 30
0.0
 11
179.838090
 21
-34.654041
 31
0.0
  0
LINE
  5
21a
100
AcDbEntity
  8
Front
 62
7
100
AcDbLine
 10
179.838090
 20
-34.654041
 30
0.0
 11
179.828274
 21
-34.674197
 31
0.0
  0
LINE
  5
21b
100
AcDbEntity
  8
Front
 62
7
100
AcDbLine
 10
179.828274
 20
-34.674197
 30
0.0
 11
179.817936
 21
-34.692282
 31
0.0
  0
LINE
  5
21c
100
AcDbEntity
  8
Front
 62
7
100
AcDbLine
 10
179.817936
 20
-34.692282
 30
0.0
 11
179.810187
 21
-34.712438
 31
0.0
  0
LINE
  5
21d
100
AcDbEntity
  8
Front
 62
7
100
AcDbLine
 10
179.810187
 20
-34.712438
 30
0.0
 11
179.805017
 21
-34.732591
 31
0.0
  0
LINE
  5
21e
100
AcDbEntity
  8
Front
 62
7
100
AcDbLine
 10
179.805017
 20
-34.732591
 30
0.0
 11
179.802435
 21
-34.755845
 31
0.0
  0
LINE
  5
21f
100
AcDbEntity
  8
Front
 62
7
100
AcDbLine
 10
179.802435
 20
-34.755845
 30
0.0
 11
179.799850
 21
-34.775998
 31
0.0
  0
LINE
  5
220
100
AcDbEntity
  8
Front
 62
7
100
AcDbLine
 10
179.799850
 20
-34.775998
 30
0.0
 11
179.799850
 21
-35.212664
 31
0.0
  0
LINE
  5
221
100
AcDbEntity
  8
Front
 62
7
100
AcDbLine
 10
179.799850
 20
-35.212664
 30
0.0
 11
179.802435
 21
-35.235918
 31
0.0
  0
LINE
  5
222
100
AcDbEntity
  8
Front
 62
7
100
AcDbLine
 10
179.802435
 20
-35.235918
 30
0.0
 11
179.805017
 21
-35.256072
 31
0.0
  0
LINE
  5
223
100
AcDbEntity
  8
Front
 62
7
100
AcDbLine
 10
179.805017
 20
-35.256072
 30
0.0
 11
179.810187
 21
-35.276228
 31
0.0
  0
LINE
  5
224
100
AcDbEntity
  8
Front
 62
7
100
AcDbLine
 10
179.810187
 20
-35.276228
 30
0.0
 11
179.817936
 21
-35.296381
 31
0.0
  0
LINE
  5
225
100
AcDbEntity
  8
Front
 62
7
100
AcDbLine
 10
179.817936
 20
-35.296381
 30
0.0
 11
179.828274
 21
-35.317050
 31
0.0
  0
LINE
  5
226
100
AcDbEntity
  8
Front
 62
7
100
AcDbLine
 10
179.828274
 20
-35.317050
 30
0.0
 11
179.838090
 21
-35.334621
 31
0.0
  0
LINE
  5
227
100
AcDbEntity
  8
Front
 62
7
100
AcDbLine
 10
179.838090
 20
-35.334621
 30
0.0
 11
179.851009
 21
-35.352708
 31
0.0
  0
LINE
  5
228
100
AcDbEntity
  8
Front
 62
7
100
AcDbLine
 10
179.851009
 20
-35.352708
 30
0.0
 11
179.865995
 21
-35.367694
 31
0.0
  0
LINE
  5
229
100
AcDbEntity
  8
Front
 62
7
100
AcDbLine
 10
179.865995
 20
-35.367694
 30
0.0
 11
179.881500
 21
-35.383196
 31
0.0
  0
LINE
  5
22a
100
AcDbEntity
  8
Front
 62
7
100
AcDbLine
 10
179.881500
 20
-35.383196
 30
0.0
 11
179.899068
 21
-35.395600
 31
0.0
  0
LINE
  5
22b
100
AcDbEntity
  8
Front
 62
7
100
AcDbLine
 10
179.899068
 20
-35.395600
 30
0.0
 11
179.917155
 21
-35.405934
 31
0.0
  0
LINE
  5
22c
100
AcDbEntity
  8
Front
 62
7
100
AcDbLine
 10
179.917155
 20
-35.405934
 30
0.0
 11
179.937309
 21
-35.415753
 31
0.0
  0
LINE
  5
22d
100
AcDbEntity
  8
Front
 62
7
100
AcDbLine
 10
179.937309
 20
-35.415753
 30
0.0
 11
179.957464
 21
-35.423505
 31
0.0
  0
LINE
  5
22e
100
AcDbEntity
  8
Front
 62
7
100
AcDbLine
 10
179.957464
 20
-35.423505
 30
0.0
 11
179.978134
 21
-35.428673
 31
0.0
  0
LINE
  5
22f
100
AcDbEntity
  8
Front
 62
7
100
AcDbLine
 10
179.978134
 20
-35.428673
 30
0.0
 11
179.998287
 21
-35.431255
 31
0.0
  0
LINE
  5
230
100
AcDbEntity
  8
Front
 62
7
100
AcDbLine
 10
179.998287
 20
-35.431255
 30
0.0
 11
180.021025
 21
-35.433840
 31
0.0
  0
LINE
  5
231
100
AcDbEntity
  8
Front
 62
7
100
AcDbLine
 10
180.021025
 20
-35.433840
 30
0.0
 11
180.531589
 21
-35.433840
 31
0.0
  0
LINE
  5
232
100
AcDbEntity
  8
Front
 62
7
100
AcDbLine
 10
180.531589
 20
-35.433840
 30
0.0
 11
180.554327
 21
-35.431255
 31
0.0
  0
LINE
  5
233
100
AcDbEntity
  8
Front
 62
7
100
AcDbLine
 10
180.554327
 20
-35.431255
 30
0.0
 11
180.574997
 21
-35.428673
 31
0.0
  0
LINE
  5
234
100
AcDbEntity
  8
Front
 62
7
100
AcDbLine
 10
180.574997
 20
-35.428673
 30
0.0
 11
180.595150
 21
-35.423505
 31
0.0
  0
LINE
  5
235
100
AcDbEntity
  8
Front
 62
7
100
AcDbLine
 10
180.595150
 20
-35.423505
 30
0.0
 11
180.615303
 21
-35.415753
 31
0.0
  0
LINE
  5
236
100
AcDbEntity
  8
Front
 62
7
100
AcDbLine
 10
180.615303
 20
-35.415753
 30
0.0
 11
180.635975
 21
-35.405934
 31
0.0
  0
LINE
  5
237
100
AcDbEntity
  8
Front
 62
7
100
AcDbLine
 10
180.635975
 20
-35.405934
 30
0.0
 11
180.653546
 21
-35.395600
 31
0.0
  0
LINE
  5
238
100
AcDbEntity
  8
Front
 62
7
100
AcDbLine
 10
180.653546
 20
-35.395600
 30
0.0
 11
180.671114
 21
-35.383196
 31
0.0
  0
LINE
  5
239
100
AcDbEntity
  8
Front
 62
7
100
AcDbLine
 10
180.671114
 20
-35.383196
 30
0.0
 11
180.686619
 21
-35.367694
 31
0.0
  0
LINE
  5
23a
100
AcDbEntity
  8
Front
 62
7
100
AcDbLine
 10
180.686619
 20
-35.367694
 30
0.0
 11
180.701605
 21
-35.352708
 31
0.0
  0
LINE
  5
23b
100
AcDbEntity
  8
Front
 62
7
100
AcDbLine
 10
180.701605
 20
-35.352708
 30
0.0
 11
180.714522
 21
-35.334621
 31
0.0
  0
LINE
  5
23c
100
AcDbEntity
  8
Front
 62
7
100
AcDbLine
 10
180.714522
 20
-35.334621
 30
0.0
 11
180.724859
 21
-35.317050
 31
0.0
  0
LINE
  5
23d
100
AcDbEntity
  8
Front
 62
7
100
AcDbLine
 10
180.724859
 20
-35.317050
 30
0.0
 11
180.734678
 21
-35.296381
 31
0.0
  0
LINE
  5
23e
100
AcDbEntity
  8
Front
 62
7
100
AcDbLine
 10
180.734678
 20
-35.296381
 30
0.0
 11
180.742428
 21
-35.276228
 31
0.0
  0
LINE
  5
23f
100
AcDbEntity
  8
Front
 62
7
100
AcDbLine
 10
180.742428
 20
-35.276228
 30
0.0
 11
180.747595
 21
-35.256072
 31
0.0
  0
LINE
  5
240
100
AcDbEntity
  8
Front
 62
7
100
AcDbLine
 10
180.747595
 20
-35.256072
 30
0.0
 11
180.750180
 21
-35.235918
 31
0.0
  0
LINE
  5
241
100
AcDbEntity
  8
Front
 62
7
100
AcDbLine
 10
180.750180
 20
-35.235918
 30
0.0
 11
180.750180
 21
-35.212664
 31
0.0
  0
LINE
  5
242
100
AcDbEntity
  8
Front
 62
7
100
AcDbLine
 10
180.750180
 20
-35.212664
 30
0.0
 11
180.750180
 21
-34.775998
 31
0.0
  0
LINE
  5
243
100
AcDbEntity
  8
Front
 62
7
100
AcDbLine
 10
180.750180
 20
-34.775998
 30
0.0
 11
180.750180
 21
-34.755845
 31
0.0
  0
LINE
  5
244
100
AcDbEntity
  8
Front
 62
7
100
AcDbLine
 10
180.750180
 20
-34.755845
 30
0.0
 11
180.747595
 21
-34.732591
 31
0.0
  0
LINE
  5
245
100
AcDbEntity
  8
Front
 62
7
100
AcDbLine
 10
180.747595
 20
-34.732591
 30
0.0
 11
180.742428
 21
-34.712438
 31
0.0
  0
LINE
  5
246
100
AcDbEntity
  8
Front
 62
7
100
AcDbLine
 10
180.742428
 20
-34.712438
 30
0.0
 11
180.734678
 21
-34.692282
 31
0.0
  0
LINE
  5
247
100
AcDbEntity
  8
Front
 62
7
100
AcDbLine
 10
180.734678
 20
-34.692282
 30
0.0
 11
180.724859
 21
-34.674197
 31
0.0
  0
LINE
  5
248
100
AcDbEntity
  8
Front
 62
7
100
AcDbLine
 10
180.724859
 20
-34.674197
 30
0.0
 11
180.714522
 21
-34.654041
 31
0.0
  0
LINE
  5
249
100
AcDbEntity
  8
Front
 62
7
100
AcDbLine
 10
180.714522
 20
-34.654041
 30
0.0
 11
180.701605
 21
-34.638539
 31
0.0
  0
LINE
  5
24a
100
AcDbEntity
  8
Front
 62
7
100
AcDbLine
 10
180.701605
 20
-34.638539
 30
0.0
 11
180.686619
 21
-34.620969
 31
0.0
  0
LINE
  5
24b
100
AcDbEntity
  8
Front
 62
7
100
AcDbLine
 10
180.686619
 20
-34.620969
 30
0.0
 11
180.671114
 21
-34.608052
 31
0.0
  0
LINE
  5
24c
100
AcDbEntity
  8
Front
 62
7
100
AcDbLine
 10
180.671114
 20
-34.608052
 30
0.0
 11
180.653546
 21
-34.595648
 31
0.0
  0
LINE
  5
24d
100
AcDbEntity
  8
Front
 62
7
100
AcDbLine
 10
180.653546
 20
-34.595648
 30
0.0
 11
180.635975
 21
-34.582728
 31
0.0
  0
LINE
  5
24e
100
AcDbEntity
  8
Front
 62
7
100
AcDbLine
 10
180.635975
 20
-34.582728
 30
0.0
 11
180.615303
 21
-34.575495
 31
0.0
  0
LINE
  5
24f
100
AcDbEntity
  8
Front
 62
7
100
AcDbLine
 10
180.615303
 20
-34.575495
 30
0.0
 11
180.595150
 21
-34.567742
 31
0.0
  0
LINE
  5
250
100
AcDbEntity
  8
Front
 62
7
100
AcDbLine
 10
180.595150
 20
-34.567742
 30
0.0
 11
180.574997
 21
-34.562575
 31
0.0
  0
LINE
  5
251
100
AcDbEntity
  8
Front
 62
7
100
AcDbLine
 10
180.574997
 20
-34.562575
 30
0.0
 11
180.554327
 21
-34.557408
 31
0.0
  0
LINE
  5
252
100
AcDbEntity
  8
Front
 62
7
100
AcDbLine
 10
180.554327
 20
-34.557408
 30
0.0
 11
180.531589
 21
-34.557408
 31
0.0
  0
LINE
  5
253
100
AcDbEntity
  8
Front
 62
7
100
AcDbLine
 10
180.531589
 20
-34.557408
 30
0.0
 11
180.524871
 21
-34.557408
 31
0.0
  0
LINE
  5
254
100
AcDbEntity
  8
Front
 62
7
100
AcDbLine
 10
180.524871
 20
-34.557408
 30
0.0
 11
180.524871
 21
-33.503207
 31
0.0
  0
LINE
  5
255
100
AcDbEntity
  8
Front
 62
7
100
AcDbLine
 10
180.524871
 20
-33.503207
 30
0.0
 11
180.531589
 21
-33.503207
 31
0.0
  0
LINE
  5
256
100
AcDbEntity
  8
Front
 62
7
100
AcDbLine
 10
180.531589
 20
-33.503207
 30
0.0
 11
180.554327
 21
-33.500625
 31
0.0
  0
LINE
  5
257
100
AcDbEntity
  8
Front
 62
7
100
AcDbLine
 10
180.554327
 20
-33.500625
 30
0.0
 11
180.574997
 21
-33.498559
 31
0.0
  0
LINE
  5
258
100
AcDbEntity
  8
Front
 62
7
100
AcDbLine
 10
180.574997
 20
-33.498559
 30
0.0
 11
180.595150
 21
-33.493389
 31
0.0
  0
LINE
  5
259
100
AcDbEntity
  8
Front
 62
7
100
AcDbLine
 10
180.595150
 20
-33.493389
 30
0.0
 11
180.615303
 21
-33.485639
 31
0.0
  0
LINE
  5
25a
100
AcDbEntity
  8
Front
 62
7
100
AcDbLine
 10
180.615303
 20
-33.485639
 30
0.0
 11
180.635975
 21
-33.475302
 31
0.0
  0
LINE
  5
25b
100
AcDbEntity
  8
Front
 62
7
100
AcDbLine
 10
180.635975
 20
-33.475302
 30
0.0
 11
180.653546
 21
-33.465486
 31
0.0
  0
LINE
  5
25c
100
AcDbEntity
  8
Front
 62
7
100
AcDbLine
 10
180.653546
 20
-33.465486
 30
0.0
 11
180.671114
 21
-33.452566
 31
0.0
  0
LINE
  5
25d
100
AcDbEntity
  8
Front
 62
7
100
AcDbLine
 10
180.671114
 20
-33.452566
 30
0.0
 11
180.686619
 21
-33.437580
 31
0.0
  0
LINE
  5
25e
100
AcDbEntity
  8
Front
 62
7
100
AcDbLine
 10
180.686619
 20
-33.437580
 30
0.0
 11
180.701605
 21
-33.422075
 31
0.0
  0
LINE
  5
25f
100
AcDbEntity
  8
Front
 62
7
100
AcDbLine
 10
180.701605
 20
-33.422075
 30
0.0
 11
180.714522
 21
-33.404507
 31
0.0
  0
LINE
  5
260
100
AcDbEntity
  8
Front
 62
7
100
AcDbLine
 10
180.714522
 20
-33.404507
 30
0.0
 11
180.724859
 21
-33.386420
 31
0.0
  0
LINE
  5
261
100
AcDbEntity
  8
Front
 62
7
100
AcDbLine
 10
180.724859
 20
-33.386420
 30
0.0
 11
180.734678
 21
-33.368849
 31
0.0
  0
LINE
  5
262
100
AcDbEntity
  8
Front
 62
7
100
AcDbLine
 10
180.734678
 20
-33.368849
 30
0.0
 11
180.742428
 21
-33.348696
 31
0.0
  0
LINE
  5
263
100
AcDbEntity
  8
Front
 62
7
100
AcDbLine
 10
180.742428
 20
-33.348696
 30
0.0
 11
180.747595
 21
-33.325442
 31
0.0
  0
LINE
  5
264
100
AcDbEntity
  8
Front
 62
7
100
AcDbLine
 10
180.747595
 20
-33.325442
 30
0.0
 11
180.750180
 21
-33.305288
 31
0.0
  0
LINE
  5
265
100
AcDbEntity
  8
Front
 62
7
100
AcDbLine
 10
180.750180
 20
-33.305288
 30
0.0
 11
180.750180
 21
-33.285135
 31
0.0
  0
LINE
  5
266
100
AcDbEntity
  8
Front
 62
7
100
AcDbLine
 10
180.750180
 20
-33.285135
 30
0.0
 11
180.750180
 21
-32.845369
 31
0.0
  0
LINE
  5
267
100
AcDbEntity
  8
Front
 62
7
100
AcDbLine
 10
180.750180
 20
-32.845369
 30
0.0
 11
180.750180
 21
-32.825213
 31
0.0
  0
LINE
  5
268
100
AcDbEntity
  8
Front
 62
7
100
AcDbLine
 10
180.750180
 20
-32.825213
 30
0.0
 11
180.747595
 21
-32.802477
 31
0.0
  0
LINE
  5
269
100
AcDbEntity
  8
Front
 62
7
100
AcDbLine
 10
180.747595
 20
-32.802477
 30
0.0
 11
180.742428
 21
-32.781805
 31
0.0
  0
LINE
  5
26a
100
AcDbEntity
  8
Front
 62
7
100
AcDbLine
 10
180.742428
 20
-32.781805
 30
0.0
 11
180.734678
 21
-32.761652
 31
0.0
  0
LINE
  5
26b
100
AcDbEntity
  8
Front
 62
7
100
AcDbLine
 10
180.734678
 20
-32.761652
 30
0.0
 11
180.724859
 21
-32.744081
 31
0.0
  0
LINE
  5
26c
100
AcDbEntity
  8
Front
 62
7
100
AcDbLine
 10
180.724859
 20
-32.744081
 30
0.0
 11
180.714522
 21
-32.723412
 31
0.0
  0
LINE
  5
26d
100
AcDbEntity
  8
Front
 62
7
100
AcDbLine
 10
180.714522
 20
-32.723412
 30
0.0
 11
180.701605
 21
-32.708426
 31
0.0
  0
LINE
  5
26e
100
AcDbEntity
  8
Front
 62
7
100
AcDbLine
 10
180.701605
 20
-32.708426
 30
0.0
 11
180.686619
 21
-32.690339
 31
0.0
  0
LINE
  5
26f
100
AcDbEntity
  8
Front
 62
7
100
AcDbLine
 10
180.686619
 20
-32.690339
 30
0.0
 11
180.671114
 21
-32.677935
 31
0.0
  0
LINE
  5
270
100
AcDbEntity
  8
Front
 62
7
100
AcDbLine
 10
180.671114
 20
-32.677935
 30
0.0
 11
180.653546
 21
-32.665015
 31
0.0
  0
LINE
  5
271
100
AcDbEntity
  8
Front
 62
7
100
AcDbLine
 10
180.653546
 20
-32.665015
 30
0.0
 11
180.635975
 21
-32.652614
 31
0.0
  0
LINE
  5
272
100
AcDbEntity
  8
Front
 62
7
100
AcDbLine
 10
180.635975
 20
-32.652614
 30
0.0
 11
180.615303
 21
-32.644862
 31
0.0
  0
LINE
  5
273
100
AcDbEntity
  8
Front
 62
7
100
AcDbLine
 10
180.615303
 20
-32.644862
 30
0.0
 11
180.595150
 21
-32.637112
 31
0.0
  0
LINE
  5
274
100
AcDbEntity
  8
Front
 62
7
100
AcDbLine
 10
180.595150
 20
-32.637112
 30
0.0
 11
180.574997
 21
-32.631942
 31
0.0
  0
LINE
  5
275
100
AcDbEntity
  8
Front
 62
7
100
AcDbLine
 10
180.574997
 20
-32.631942
 30
0.0
 11
180.554327
 21
-32.629876
 31
0.0
  0
LINE
  5
276
100
AcDbEntity
  8
Front
 62
7
100
AcDbLine
 10
180.554327
 20
-32.629876
 30
0.0
 11
180.531589
 21
-32.627294
 31
0.0
  0
LINE
  5
277
100
AcDbEntity
  8
Front
 62
7
100
AcDbLine
 10
180.531589
 20
-32.627294
 30
0.0
 11
180.021025
 21
-32.627294
 31
0.0
  0
LINE
  5
278
100
AcDbEntity
  8
Front
 62
7
100
AcDbLine
 10
180.021025
 20
-32.627294
 30
0.0
 11
180.021025
 21
-32.627294
 31
0.0
  0
SPLINE
  5
279
100
AcDbEntity
  8
Front
 62
7
100
AcDbSpline
 70
8
 71
3
 72
8
 73
4
 74
0
 40
0
 40
0
 40
0
 40
0
 40
1
 40
1
 40
1
 40
1
 10
174.559862
 20
-33.078945
 30
0.0
 10
174.031756
 20
-33.072153
 30
0.0
 10
173.597647
 20
-33.500942
 30
0.0
 10
173.597647
 20
-34.029276
 30
0.0
  0
SPLINE
  5
27a
100
AcDbEntity
  8
Front
 62
7
100
AcDbSpline
 70
8
 71
3
 72
8
 73
4
 74
0
 40
0
 40
0
 40
0
 40
0
 40
1
 40
1
 40
1
 40
1
 10
173.597647
 20
-34.029276
 30
0.0
 10
173.597647
 20
-34.557606
 30
0.0
 10
174.031756
 20
-34.985877
 30
0.0
 10
174.559862
 20
-34.979087
 30
0.0
  0
SPLINE
  5
27b
100
AcDbEntity
  8
Front
 62
7
100
AcDbSpline
 70
8
 71
3
 72
8
 73
4
 74
0
 40
0
 40
0
 40
0
 40
0
 40
1
 40
1
 40
1
 40
1
 10
174.559862
 20
-34.979087
 30
0.0
 10
175.087968
 20
-34.985877
 30
0.0
 10
175.522593
 20
-34.557606
 30
0.0
 10
175.522593
 20
-34.029276
 30
0.0
  0
SPLINE
  5
27c
100
AcDbEntity
  8
Front
 62
7
100
AcDbSpline
 70
8
 71
3
 72
8
 73
4
 74
0
 40
0
 40
0
 40
0
 40
0
 40
1
 40
1
 40
1
 40
1
 10
175.522593
 20
-34.029276
 30
0.0
 10
175.522593
 20
-33.500942
 30
0.0
 10
175.087968
 20
-33.072153
 30
0.0
 10
174.559862
 20
-33.078945
 30
0.0
  0
LINE
  5
27d
100
AcDbEntity
  8
Front
 62
7
100
AcDbLine
 10
174.559862
 20
-33.078945
 30
0.0
 11
174.559862
 21
-33.078945
 31
0.0
  0
SPLINE
  5
27e
100
AcDbEntity
  8
Front
 62
7
100
AcDbSpline
 70
8
 71
3
 72
8
 73
4
 74
0
 40
0
 40
0
 40
0
 40
0
 40
1
 40
1
 40
1
 40
1
 10
177.100274
 20
-33.078945
 30
0.0
 10
176.572169
 20
-33.072153
 30
0.0
 10
176.138059
 20
-33.500942
 30
0.0
 10
176.138059
 20
-34.029276
 30
0.0
  0
SPLINE
  5
27f
100
AcDbEntity
  8
Front
 62
7
100
AcDbSpline
 70
8
 71
3
 72
8
 73
4
 74
0
 40
0
 40
0
 40
0
 40
0
 40
1
 40
1
 40
1
 40
1
 10
176.138059
 20
-34.029276
 30
0.0
 10
176.138059
 20
-34.470698
 30
0.0
 10
176.442433
 20
-34.838607
 30
0.0
 10
176.850161
 20
-34.944980
 30
0.0
  0
LINE
  5
280
100
AcDbEntity
  8
Front
 62
7
100
AcDbLine
 10
176.850161
 20
-34.944980
 30
0.0
 11
176.850161
 21
-35.653465
 31
0.0
  0
SPLINE
  5
281
100
AcDbEntity
  8
Front
 62
7
100
AcDbSpline
 70
8
 71
3
 72
8
 73
4
 74
0
 40
0
 40
0
 40
0
 40
0
 40
1
 40
1
 40
1
 40
1
 10
176.850161
 20
-35.653465
 30
0.0
 10
176.442433
 20
-35.759838
 30
0.0
 10
176.138059
 20
-36.127747
 30
0.0
 10
176.138059
 20
-36.569169
 30
0.0
  0
SPLINE
  5
282
100
AcDbEntity
  8
Front
 62
7
100
AcDbSpline
 70
8
 71
3
 72
8
 73
4
 74
0
 40
0
 40
0
 40
0
 40
0
 40
1
 40
1
 40
1
 40
1
 10
176.138059
 20
-36.569169
 30
0.0
 10
176.138059
 20
-37.010595
 30
0.0
 10
176.442433
 20
-37.378503
 30
0.0
 10
176.850161
 20
-37.484876
 30
0.0
  0
LINE
  5
283
100
AcDbEntity
  8
Front
 62
7
100
AcDbLine
 10
176.850161
 20
-37.484876
 30
0.0
 11
176.850161
 21
-38.193362
 31
0.0
  0
SPLINE
  5
284
100
AcDbEntity
  8
Front
 62
7
100
AcDbSpline
 70
8
 71
3
 72
8
 73
4
 74
0
 40
0
 40
0
 40
0
 40
0
 40
1
 40
1
 40
1
 40
1
 10
176.850161
 20
-38.193362
 30
0.0
 10
176.442433
 20
-38.299735
 30
0.0
 10
176.138059
 20
-38.667643
 30
0.0
 10
176.138059
 20
-39.109066
 30
0.0
  0
SPLINE
  5
285
100
AcDbEntity
  8
Front
 62
7
100
AcDbSpline
 70
8
 71
3
 72
8
 73
4
 74
0
 40
0
 40
0
 40
0
 40
0
 40
1
 40
1
 40
1
 40
1
 10
176.138059
 20
-39.109066
 30
0.0
 10
176.138059
 20
-39.550475
 30
0.0
 10
176.442457
 20
-39.918384
 30
0.0
 10
176.850161
 20
-40.024773
 30
0.0
  0
LINE
  5
286
100
AcDbEntity
  8
Front
 62
7
100
AcDbLine
 10
176.850161
 20
-40.024773
 30
0.0
 11
176.850161
 21
-40.733258
 31
0.0
  0
SPLINE
  5
287
100
AcDbEntity
  8
Front
 62
7
100
AcDbSpline
 70
8
 71
3
 72
8
 73
4
 74
0
 40
0
 40
0
 40
0
 40
0
 40
1
 40
1
 40
1
 40
1
 10
176.850161
 20
-40.733258
 30
0.0
 10
176.442433
 20
-40.839631
 30
0.0
 10
176.138059
 20
-41.207539
 30
0.0
 10
176.138059
 20
-41.648962
 30
0.0
  0
SPLINE
  5
288
100
AcDbEntity
  8
Front
 62
7
100
AcDbSpline
 70
8
 71
3
 72
8
 73
4
 74
0
 40
0
 40
0
 40
0
 40
0
 40
1
 40
1
 40
1
 40
1
 10
176.138059
 20
-41.648962
 30
0.0
 10
176.138059
 20
-42.090372
 30
0.0
 10
176.442457
 20
-42.458278
 30
0.0
 10
176.850161
 20
-42.564669
 30
0.0
  0
LINE
  5
289
100
AcDbEntity
  8
Front
 62
7
100
AcDbLine
 10
176.850161
 20
-42.564669
 30
0.0
 11
176.850161
 21
-43.273670
 31
0.0
  0
SPLINE
  5
28a
100
AcDbEntity
  8
Front
 62
7
100
AcDbSpline
 70
8
 71
3
 72
8
 73
4
 74
0
 40
0
 40
0
 40
0
 40
0
 40
1
 40
1
 40
1
 40
1
 10
176.850161
 20
-43.273670
 30
0.0
 10
176.442457
 20
-43.380059
 30
0.0
 10
176.138059
 20
-43.747968
 30
0.0
 10
176.138059
 20
-44.189377
 30
0.0
  0
SPLINE
  5
28b
100
AcDbEntity
  8
Front
 62
7
100
AcDbSpline
 70
8
 71
3
 72
8
 73
4
 74
0
 40
0
 40
0
 40
0
 40
0
 40
1
 40
1
 40
1
 40
1
 10
176.138059
 20
-44.189377
 30
0.0
 10
176.138059
 20
-44.630800
 30
0.0
 10
176.442433
 20
-44.998708
 30
0.0
 10
176.850161
 20
-45.105082
 30
0.0
  0
LINE
  5
28c
100
AcDbEntity
  8
Front
 62
7
100
AcDbLine
 10
176.850161
 20
-45.105082
 30
0.0
 11
176.850161
 21
-45.813567
 31
0.0
  0
SPLINE
  5
28d
100
AcDbEntity
  8
Front
 62
7
100
AcDbSpline
 70
8
 71
3
 72
8
 73
4
 74
0
 40
0
 40
0
 40
0
 40
0
 40
1
 40
1
 40
1
 40
1
 10
176.850161
 20
-45.813567
 30
0.0
 10
176.442457
 20
-45.919956
 30
0.0
 10
176.138059
 20
-46.287864
 30
0.0
 10
176.138059
 20
-46.729274
 30
0.0
  0
SPLINE
  5
28e
100
AcDbEntity
  8
Front
 62
7
100
AcDbSpline
 70
8
 71
3
 72
8
 73
4
 74
0
 40
0
 40
0
 40
0
 40
0
 40
1
 40
1
 40
1
 40
1
 10
176.138059
 20
-46.729274
 30
0.0
 10
176.138059
 20
-47.170696
 30
0.0
 10
176.442433
 20
-47.538605
 30
0.0
 10
176.850161
 20
-47.644978
 30
0.0
  0
LINE
  5
28f
100
AcDbEntity
  8
Front
 62
7
100
AcDbLine
 10
176.850161
 20
-47.644978
 30
0.0
 11
176.850161
 21
-48.353463
 31
0.0
  0
SPLINE
  5
290
100
AcDbEntity
  8
Front
 62
7
100
AcDbSpline
 70
8
 71
3
 72
8
 73
4
 74
0
 40
0
 40
0
 40
0
 40
0
 40
1
 40
1
 40
1
 40
1
 10
176.850161
 20
-48.353463
 30
0.0
 10
176.442433
 20
-48.459836
 30
0.0
 10
176.138059
 20
-48.827745
 30
0.0
 10
176.138059
 20
-49.269167
 30
0.0
  0
SPLINE
  5
291
100
AcDbEntity
  8
Front
 62
7
100
AcDbSpline
 70
8
 71
3
 72
8
 73
4
 74
0
 40
0
 40
0
 40
0
 40
0
 40
1
 40
1
 40
1
 40
1
 10
176.138059
 20
-49.269167
 30
0.0
 10
176.138059
 20
-49.710593
 30
0.0
 10
176.442433
 20
-50.078501
 30
0.0
 10
176.850161
 20
-50.184874
 30
0.0
  0
LINE
  5
292
100
AcDbEntity
  8
Front
 62
7
100
AcDbLine
 10
176.850161
 20
-50.184874
 30
0.0
 11
176.850161
 21
-50.893360
 31
0.0
  0
SPLINE
  5
293
100
AcDbEntity
  8
Front
 62
7
100
AcDbSpline
 70
8
 71
3
 72
8
 73
4
 74
0
 40
0
 40
0
 40
0
 40
0
 40
1
 40
1
 40
1
 40
1
 10
176.850161
 20
-50.893360
 30
0.0
 10
176.442433
 20
-50.999733
 30
0.0
 10
176.138059
 20
-51.367641
 30
0.0
 10
176.138059
 20
-51.809064
 30
0.0
  0
SPLINE
  5
294
100
AcDbEntity
  8
Front
 62
7
100
AcDbSpline
 70
8
 71
3
 72
8
 73
4
 74
0
 40
0
 40
0
 40
0
 40
0
 40
1
 40
1
 40
1
 40
1
 10
176.138059
 20
-51.809064
 30
0.0
 10
176.138059
 20
-52.250473
 30
0.0
 10
176.442457
 20
-52.618382
 30
0.0
 10
176.850161
 20
-52.724771
 30
0.0
  0
LINE
  5
295
100
AcDbEntity
  8
Front
 62
7
100
AcDbLine
 10
176.850161
 20
-52.724771
 30
0.0
 11
176.850161
 21
-53.433256
 31
0.0
  0
SPLINE
  5
296
100
AcDbEntity
  8
Front
 62
7
100
AcDbSpline
 70
8
 71
3
 72
8
 73
4
 74
0
 40
0
 40
0
 40
0
 40
0
 40
1
 40
1
 40
1
 40
1
 10
176.850161
 20
-53.433256
 30
0.0
 10
176.442467
 20
-53.539656
 30
0.0
 10
176.138059
 20
-53.907567
 30
0.0
 10
176.138059
 20
-54.348960
 30
0.0
  0
SPLINE
  5
297
100
AcDbEntity
  8
Front
 62
7
100
AcDbSpline
 70
8
 71
3
 72
8
 73
4
 74
0
 40
0
 40
0
 40
0
 40
0
 40
1
 40
1
 40
1
 40
1
 10
176.138059
 20
-54.348960
 30
0.0
 10
176.138059
 20
-54.877259
 30
0.0
 10
176.572201
 20
-55.306030
 30
0.0
 10
177.100274
 20
-55.299291
 30
0.0
  0
SPLINE
  5
298
100
AcDbEntity
  8
Front
 62
7
100
AcDbSpline
 70
8
 71
3
 72
8
 73
4
 74
0
 40
0
 40
0
 40
0
 40
0
 40
1
 40
1
 40
1
 40
1
 10
177.100274
 20
-55.299291
 30
0.0
 10
177.628346
 20
-55.306030
 30
0.0
 10
178.062490
 20
-54.877259
 30
0.0
 10
178.062490
 20
-54.348960
 30
0.0
  0
SPLINE
  5
299
100
AcDbEntity
  8
Front
 62
7
100
AcDbSpline
 70
8
 71
3
 72
8
 73
4
 74
0
 40
0
 40
0
 40
0
 40
0
 40
1
 40
1
 40
1
 40
1
 10
178.062490
 20
-54.348960
 30
0.0
 10
178.062490
 20
-53.907511
 30
0.0
 10
177.757642
 20
-53.539603
 30
0.0
 10
177.349872
 20
-53.433256
 30
0.0
  0
LINE
  5
29a
100
AcDbEntity
  8
Front
 62
7
100
AcDbLine
 10
177.349872
 20
-53.433256
 30
0.0
 11
177.349872
 21
-52.724771
 31
0.0
  0
SPLINE
  5
29b
100
AcDbEntity
  8
Front
 62
7
100
AcDbSpline
 70
8
 71
3
 72
8
 73
4
 74
0
 40
0
 40
0
 40
0
 40
0
 40
1
 40
1
 40
1
 40
1
 10
177.349872
 20
-52.724771
 30
0.0
 10
177.757650
 20
-52.618432
 30
0.0
 10
178.062490
 20
-52.250526
 30
0.0
 10
178.062490
 20
-51.809064
 30
0.0
  0
SPLINE
  5
29c
100
AcDbEntity
  8
Front
 62
7
100
AcDbSpline
 70
8
 71
3
 72
8
 73
4
 74
0
 40
0
 40
0
 40
0
 40
0
 40
1
 40
1
 40
1
 40
1
 10
178.062490
 20
-51.809064
 30
0.0
 10
178.062490
 20
-51.367585
 30
0.0
 10
177.757674
 20
-50.999680
 30
0.0
 10
177.349872
 20
-50.893360
 30
0.0
  0
LINE
  5
29d
100
AcDbEntity
  8
Front
 62
7
100
AcDbLine
 10
177.349872
 20
-50.893360
 30
0.0
 11
177.349872
 21
-50.184874
 31
0.0
  0
SPLINE
  5
29e
100
AcDbEntity
  8
Front
 62
7
100
AcDbSpline
 70
8
 71
3
 72
8
 73
4
 74
0
 40
0
 40
0
 40
0
 40
0
 40
1
 40
1
 40
1
 40
1
 10
177.349872
 20
-50.184874
 30
0.0
 10
177.757674
 20
-50.078552
 30
0.0
 10
178.062490
 20
-49.710648
 30
0.0
 10
178.062490
 20
-49.269167
 30
0.0
  0
SPLINE
  5
29f
100
AcDbEntity
  8
Front
 62
7
100
AcDbSpline
 70
8
 71
3
 72
8
 73
4
 74
0
 40
0
 40
0
 40
0
 40
0
 40
1
 40
1
 40
1
 40
1
 10
178.062490
 20
-49.269167
 30
0.0
 10
178.062490
 20
-48.827689
 30
0.0
 10
177.757674
 20
-48.459783
 30
0.0
 10
177.349872
 20
-48.353463
 30
0.0
  0
LINE
  5
2a0
100
AcDbEntity
  8
Front
 62
7
100
AcDbLine
 10
177.349872
 20
-48.353463
 30
0.0
 11
177.349872
 21
-47.644978
 31
0.0
  0
SPLINE
  5
2a1
100
AcDbEntity
  8
Front
 62
7
100
AcDbSpline
 70
8
 71
3
 72
8
 73
4
 74
0
 40
0
 40
0
 40
0
 40
0
 40
1
 40
1
 40
1
 40
1
 10
177.349872
 20
-47.644978
 30
0.0
 10
177.757674
 20
-47.538658
 30
0.0
 10
178.062490
 20
-47.170752
 30
0.0
 10
178.062490
 20
-46.729274
 30
0.0
  0
SPLINE
  5
2a2
100
AcDbEntity
  8
Front
 62
7
100
AcDbSpline
 70
8
 71
3
 72
8
 73
4
 74
0
 40
0
 40
0
 40
0
 40
0
 40
1
 40
1
 40
1
 40
1
 10
178.062490
 20
-46.729274
 30
0.0
 10
178.062490
 20
-46.287809
 30
0.0
 10
177.757650
 20
-45.919903
 30
0.0
 10
177.349872
 20
-45.813567
 30
0.0
  0
LINE
  5
2a3
100
AcDbEntity
  8
Front
 62
7
100
AcDbLine
 10
177.349872
 20
-45.813567
 30
0.0
 11
177.349872
 21
-45.105082
 31
0.0
  0
SPLINE
  5
2a4
100
AcDbEntity
  8
Front
 62
7
100
AcDbSpline
 70
8
 71
3
 72
8
 73
4
 74
0
 40
0
 40
0
 40
0
 40
0
 40
1
 40
1
 40
1
 40
1
 10
177.349872
 20
-45.105082
 30
0.0
 10
177.757674
 20
-44.998761
 30
0.0
 10
178.062490
 20
-44.630856
 30
0.0
 10
178.062490
 20
-44.189377
 30
0.0
  0
SPLINE
  5
2a5
100
AcDbEntity
  8
Front
 62
7
100
AcDbSpline
 70
8
 71
3
 72
8
 73
4
 74
0
 40
0
 40
0
 40
0
 40
0
 40
1
 40
1
 40
1
 40
1
 10
178.062490
 20
-44.189377
 30
0.0
 10
178.062490
 20
-43.747915
 30
0.0
 10
177.757650
 20
-43.380006
 30
0.0
 10
177.349872
 20
-43.273670
 30
0.0
  0
LINE
  5
2a6
100
AcDbEntity
  8
Front
 62
7
100
AcDbLine
 10
177.349872
 20
-43.273670
 30
0.0
 11
177.349872
 21
-42.564669
 31
0.0
  0
SPLINE
  5
2a7
100
AcDbEntity
  8
Front
 62
7
100
AcDbSpline
 70
8
 71
3
 72
8
 73
4
 74
0
 40
0
 40
0
 40
0
 40
0
 40
1
 40
1
 40
1
 40
1
 10
177.349872
 20
-42.564669
 30
0.0
 10
177.677180
 20
-42.479317
 30
0.0
 10
177.934937
 20
-42.225209
 30
0.0
 10
178.024766
 20
-41.899078
 30
0.0
  0
LINE
  5
2a8
100
AcDbEntity
  8
Front
 62
7
100
AcDbLine
 10
178.024766
 20
-41.899078
 30
0.0
 11
179.390058
 21
-41.899078
 31
0.0
  0
SPLINE
  5
2a9
100
AcDbEntity
  8
Front
 62
7
100
AcDbSpline
 70
8
 71
3
 72
8
 73
4
 74
0
 40
0
 40
0
 40
0
 40
0
 40
1
 40
1
 40
1
 40
1
 10
179.390058
 20
-41.899078
 30
0.0
 10
179.390058
 20
-41.899078
 30
0.0
 10
179.390058
 20
-42.877311
 30
0.0
 10
179.390058
 20
-42.877311
 30
0.0
  0
SPLINE
  5
2aa
100
AcDbEntity
  8
Front
 62
7
100
AcDbSpline
 70
8
 71
3
 72
8
 73
4
 74
0
 40
0
 40
0
 40
0
 40
0
 40
1
 40
1
 40
1
 40
1
 10
179.390058
 20
-42.877311
 30
0.0
 10
179.385470
 20
-42.904681
 30
0.0
 10
179.385470
 20
-42.932624
 30
0.0
 10
179.390058
 20
-42.959994
 30
0.0
  0
SPLINE
  5
2ab
100
AcDbEntity
  8
Front
 62
7
100
AcDbSpline
 70
8
 71
3
 72
8
 73
4
 74
0
 40
0
 40
0
 40
0
 40
0
 40
1
 40
1
 40
1
 40
1
 10
179.390058
 20
-42.959994
 30
0.0
 10
179.390058
 20
-42.959994
 30
0.0
 10
179.390058
 20
-45.220837
 30
0.0
 10
179.390058
 20
-45.220837
 30
0.0
  0
SPLINE
  5
2ac
100
AcDbEntity
  8
Front
 62
7
100
AcDbSpline
 70
8
 71
3
 72
8
 73
4
 74
0
 40
0
 40
0
 40
0
 40
0
 40
1
 40
1
 40
1
 40
1
 10
179.390058
 20
-45.220837
 30
0.0
 10
179.383649
 20
-45.269242
 30
0.0
 10
179.391553
 20
-45.318465
 30
0.0
 10
179.412793
 20
-45.362431
 30
0.0
  0
SPLINE
  5
2ad
100
AcDbEntity
  8
Front
 62
7
100
AcDbSpline
 70
8
 71
3
 72
8
 73
4
 74
0
 40
0
 40
0
 40
0
 40
0
 40
1
 40
1
 40
1
 40
1
 10
179.412793
 20
-45.362431
 30
0.0
 10
179.430189
 20
-45.400881
 30
0.0
 10
179.457032
 20
-45.434303
 30
0.0
 10
179.490824
 20
-45.459583
 30
0.0
  0
SPLINE
  5
2ae
100
AcDbEntity
  8
Front
 62
7
100
AcDbSpline
 70
8
 71
3
 72
8
 73
4
 74
0
 40
0
 40
0
 40
0
 40
0
 40
1
 40
1
 40
1
 40
1
 10
179.490824
 20
-45.459583
 30
0.0
 10
179.490824
 20
-45.459583
 30
0.0
 10
179.645338
 20
-45.612028
 30
0.0
 10
179.645338
 20
-45.612028
 30
0.0
  0
SPLINE
  5
2af
100
AcDbEntity
  8
Front
 62
7
100
AcDbSpline
 70
8
 71
3
 72
8
 73
4
 74
0
 40
0
 40
0
 40
0
 40
0
 40
1
 40
1
 40
1
 40
1
 10
179.645338
 20
-45.612028
 30
0.0
 10
179.672131
 20
-45.646780
 30
0.0
 10
179.707597
 20
-45.673870
 30
0.0
 10
179.748174
 20
-45.690575
 30
0.0
  0
SPLINE
  5
2b0
100
AcDbEntity
  8
Front
 62
7
100
AcDbSpline
 70
8
 71
3
 72
8
 73
4
 74
0
 40
0
 40
0
 40
0
 40
0
 40
1
 40
1
 40
1
 40
1
 10
179.748174
 20
-45.690575
 30
0.0
 10
179.749546
 20
-45.691278
 30
0.0
 10
179.750924
 20
-45.691967
 30
0.0
 10
179.752309
 20
-45.692644
 30
0.0
  0
SPLINE
  5
2b1
100
AcDbEntity
  8
Front
 62
7
100
AcDbSpline
 70
8
 71
3
 72
8
 73
4
 74
0
 40
0
 40
0
 40
0
 40
0
 40
1
 40
1
 40
1
 40
1
 10
179.752309
 20
-45.692644
 30
0.0
 10
179.753340
 20
-45.692995
 30
0.0
 10
179.754373
 20
-45.693339
 30
0.0
 10
179.755407
 20
-45.693676
 30
0.0
  0
SPLINE
  5
2b2
100
AcDbEntity
  8
Front
 62
7
100
AcDbSpline
 70
8
 71
3
 72
8
 73
4
 74
0
 40
0
 40
0
 40
0
 40
0
 40
1
 40
1
 40
1
 40
1
 10
179.755407
 20
-45.693676
 30
0.0
 10
179.795560
 20
-45.709702
 30
0.0
 10
179.839182
 20
-45.715044
 30
0.0
 10
179.882016
 20
-45.709181
 30
0.0
  0
LINE
  5
2b3
100
AcDbEntity
  8
Front
 62
7
100
AcDbLine
 10
179.882016
 20
-45.709181
 30
0.0
 11
180.346071
 21
-45.709181
 31
0.0
  0
LINE
  5
2b4
100
AcDbEntity
  8
Front
 62
7
100
AcDbLine
 10
180.346071
 20
-45.709181
 30
0.0
 11
180.346071
 21
-45.830103
 31
0.0
  0
LINE
  5
2b5
100
AcDbEntity
  8
Front
 62
7
100
AcDbLine
 10
180.346071
 20
-45.830103
 30
0.0
 11
182.746440
 21
-45.830103
 31
0.0
  0
LINE
  5
2b6
100
AcDbEntity
  8
Front
 62
7
100
AcDbLine
 10
182.746440
 20
-45.830103
 30
0.0
 11
182.746440
 21
-45.090614
 31
0.0
  0
LINE
  5
2b7
100
AcDbEntity
  8
Front
 62
7
100
AcDbLine
 10
182.746440
 20
-45.090614
 30
0.0
 11
180.346071
 21
-45.090614
 31
0.0
  0
LINE
  5
2b8
100
AcDbEntity
  8
Front
 62
7
100
AcDbLine
 10
180.346071
 20
-45.090614
 30
0.0
 11
180.346071
 21
-45.208952
 31
0.0
  0
LINE
  5
2b9
100
AcDbEntity
  8
Front
 62
7
100
AcDbLine
 10
180.346071
 20
-45.208952
 30
0.0
 11
179.948162
 21
-45.208952
 31
0.0
  0
LINE
  5
2ba
100
AcDbEntity
  8
Front
 62
7
100
AcDbLine
 10
179.948162
 20
-45.208952
 30
0.0
 11
179.890284
 21
-45.151590
 31
0.0
  0
LINE
  5
2bb
100
AcDbEntity
  8
Front
 62
7
100
AcDbLine
 10
179.890284
 20
-45.151590
 30
0.0
 11
179.890284
 21
-43.169284
 31
0.0
  0
LINE
  5
2bc
100
AcDbEntity
  8
Front
 62
7
100
AcDbLine
 10
179.890284
 20
-43.169284
 30
0.0
 11
180.346071
 21
-43.169284
 31
0.0
  0
LINE
  5
2bd
100
AcDbEntity
  8
Front
 62
7
100
AcDbLine
 10
180.346071
 20
-43.169284
 30
0.0
 11
180.346071
 21
-43.290207
 31
0.0
  0
LINE
  5
2be
100
AcDbEntity
  8
Front
 62
7
100
AcDbLine
 10
180.346071
 20
-43.290207
 30
0.0
 11
182.746440
 21
-43.290207
 31
0.0
  0
LINE
  5
2bf
100
AcDbEntity
  8
Front
 62
7
100
AcDbLine
 10
182.746440
 20
-43.290207
 30
0.0
 11
182.746440
 21
-42.550718
 31
0.0
  0
LINE
  5
2c0
100
AcDbEntity
  8
Front
 62
7
100
AcDbLine
 10
182.746440
 20
-42.550718
 30
0.0
 11
180.346071
 21
-42.550718
 31
0.0
  0
LINE
  5
2c1
100
AcDbEntity
  8
Front
 62
7
100
AcDbLine
 10
180.346071
 20
-42.550718
 30
0.0
 11
180.346071
 21
-42.669055
 31
0.0
  0
LINE
  5
2c2
100
AcDbEntity
  8
Front
 62
7
100
AcDbLine
 10
180.346071
 20
-42.669055
 30
0.0
 11
179.890284
 21
-42.669055
 31
0.0
  0
LINE
  5
2c3
100
AcDbEntity
  8
Front
 62
7
100
AcDbLine
 10
179.890284
 20
-42.669055
 30
0.0
 11
179.890284
 21
-41.899078
 31
0.0
  0
LINE
  5
2c4
100
AcDbEntity
  8
Front
 62
7
100
AcDbLine
 10
179.890284
 20
-41.899078
 30
0.0
 11
180.346071
 21
-41.899078
 31
0.0
  0
LINE
  5
2c5
100
AcDbEntity
  8
Front
 62
7
100
AcDbLine
 10
180.346071
 20
-41.899078
 30
0.0
 11
180.346071
 21
-42.020001
 31
0.0
  0
LINE
  5
2c6
100
AcDbEntity
  8
Front
 62
7
100
AcDbLine
 10
180.346071
 20
-42.020001
 30
0.0
 11
182.746440
 21
-42.020001
 31
0.0
  0
LINE
  5
2c7
100
AcDbEntity
  8
Front
 62
7
100
AcDbLine
 10
182.746440
 20
-42.020001
 30
0.0
 11
182.746440
 21
-41.281027
 31
0.0
  0
LINE
  5
2c8
100
AcDbEntity
  8
Front
 62
7
100
AcDbLine
 10
182.746440
 20
-41.281027
 30
0.0
 11
180.346071
 21
-41.281027
 31
0.0
  0
LINE
  5
2c9
100
AcDbEntity
  8
Front
 62
7
100
AcDbLine
 10
180.346071
 20
-41.281027
 30
0.0
 11
180.346071
 21
-41.399365
 31
0.0
  0
SPLINE
  5
2ca
100
AcDbEntity
  8
Front
 62
7
100
AcDbSpline
 70
8
 71
3
 72
8
 73
4
 74
0
 40
0
 40
0
 40
0
 40
0
 40
1
 40
1
 40
1
 40
1
 10
180.346071
 20
-41.399365
 30
0.0
 10
180.346071
 20
-41.399365
 30
0.0
 10
179.682544
 20
-41.399365
 30
0.0
 10
179.682544
 20
-41.399365
 30
0.0
  0
SPLINE
  5
2cb
100
AcDbEntity
  8
Front
 62
7
100
AcDbSpline
 70
8
 71
3
 72
8
 73
4
 74
0
 40
0
 40
0
 40
0
 40
0
 40
1
 40
1
 40
1
 40
1
 10
179.682544
 20
-41.399365
 30
0.0
 10
179.667358
 20
-41.396745
 30
0.0
 10
179.651963
 20
-41.395534
 30
0.0
 10
179.636554
 20
-41.395748
 30
0.0
  0
SPLINE
  5
2cc
100
AcDbEntity
  8
Front
 62
7
100
AcDbSpline
 70
8
 71
3
 72
8
 73
4
 74
0
 40
0
 40
0
 40
0
 40
0
 40
1
 40
1
 40
1
 40
1
 10
179.636554
 20
-41.395748
 30
0.0
 10
179.624078
 20
-41.396024
 30
0.0
 10
179.611641
 20
-41.397233
 30
0.0
 10
179.599346
 20
-41.399365
 30
0.0
  0
LINE
  5
2cd
100
AcDbEntity
  8
Front
 62
7
100
AcDbLine
 10
179.599346
 20
-41.399365
 30
0.0
 11
178.024766
 21
-41.399365
 31
0.0
  0
SPLINE
  5
2ce
100
AcDbEntity
  8
Front
 62
7
100
AcDbSpline
 70
8
 71
3
 72
8
 73
4
 74
0
 40
0
 40
0
 40
0
 40
0
 40
1
 40
1
 40
1
 40
1
 10
178.024766
 20
-41.399365
 30
0.0
 10
177.935016
 20
-41.073065
 30
0.0
 10
177.677309
 20
-40.818626
 30
0.0
 10
177.349872
 20
-40.733258
 30
0.0
  0
LINE
  5
2cf
100
AcDbEntity
  8
Front
 62
7
100
AcDbLine
 10
177.349872
 20
-40.733258
 30
0.0
 11
177.349872
 21
-40.024773
 31
0.0
  0
SPLINE
  5
2d0
100
AcDbEntity
  8
Front
 62
7
100
AcDbSpline
 70
8
 71
3
 72
8
 73
4
 74
0
 40
0
 40
0
 40
0
 40
0
 40
1
 40
1
 40
1
 40
1
 10
177.349872
 20
-40.024773
 30
0.0
 10
177.757650
 20
-39.918434
 30
0.0
 10
178.062490
 20
-39.550528
 30
0.0
 10
178.062490
 20
-39.109066
 30
0.0
  0
SPLINE
  5
2d1
100
AcDbEntity
  8
Front
 62
7
100
AcDbSpline
 70
8
 71
3
 72
8
 73
4
 74
0
 40
0
 40
0
 40
0
 40
0
 40
1
 40
1
 40
1
 40
1
 10
178.062490
 20
-39.109066
 30
0.0
 10
178.062490
 20
-38.667587
 30
0.0
 10
177.757674
 20
-38.299682
 30
0.0
 10
177.349872
 20
-38.193362
 30
0.0
  0
LINE
  5
2d2
100
AcDbEntity
  8
Front
 62
7
100
AcDbLine
 10
177.349872
 20
-38.193362
 30
0.0
 11
177.349872
 21
-37.484876
 31
0.0
  0
SPLINE
  5
2d3
100
AcDbEntity
  8
Front
 62
7
100
AcDbSpline
 70
8
 71
3
 72
8
 73
4
 74
0
 40
0
 40
0
 40
0
 40
0
 40
1
 40
1
 40
1
 40
1
 10
177.349872
 20
-37.484876
 30
0.0
 10
177.677148
 20
-37.399548
 30
0.0
 10
177.934895
 20
-37.145358
 30
0.0
 10
178.024766
 20
-36.819285
 30
0.0
  0
LINE
  5
2d4
100
AcDbEntity
  8
Front
 62
7
100
AcDbLine
 10
178.024766
 20
-36.819285
 30
0.0
 11
179.803469
 21
-36.819285
 31
0.0
  0
LINE
  5
2d5
100
AcDbEntity
  8
Front
 62
7
100
AcDbLine
 10
179.803469
 20
-36.819285
 30
0.0
 11
179.805017
 21
-36.830654
 31
0.0
  0
LINE
  5
2d6
100
AcDbEntity
  8
Front
 62
7
100
AcDbLine
 10
179.805017
 20
-36.830654
 30
0.0
 11
179.810187
 21
-36.851324
 31
0.0
  0
LINE
  5
2d7
100
AcDbEntity
  8
Front
 62
7
100
AcDbLine
 10
179.810187
 20
-36.851324
 30
0.0
 11
179.817936
 21
-36.871477
 31
0.0
  0
LINE
  5
2d8
100
AcDbEntity
  8
Front
 62
7
100
AcDbLine
 10
179.817936
 20
-36.871477
 30
0.0
 11
179.828274
 21
-36.891630
 31
0.0
  0
LINE
  5
2d9
100
AcDbEntity
  8
Front
 62
7
100
AcDbLine
 10
179.828274
 20
-36.891630
 30
0.0
 11
179.838090
 21
-36.909717
 31
0.0
  0
LINE
  5
2da
100
AcDbEntity
  8
Front
 62
7
100
AcDbLine
 10
179.838090
 20
-36.909717
 30
0.0
 11
179.851009
 21
-36.927288
 31
0.0
  0
LINE
  5
2db
100
AcDbEntity
  8
Front
 62
7
100
AcDbLine
 10
179.851009
 20
-36.927288
 30
0.0
 11
179.865995
 21
-36.942790
 31
0.0
  0
LINE
  5
2dc
100
AcDbEntity
  8
Front
 62
7
100
AcDbLine
 10
179.865995
 20
-36.942790
 30
0.0
 11
179.881500
 21
-36.957776
 31
0.0
  0
LINE
  5
2dd
100
AcDbEntity
  8
Front
 62
7
100
AcDbLine
 10
179.881500
 20
-36.957776
 30
0.0
 11
179.899068
 21
-36.970696
 31
0.0
  0
LINE
  5
2de
100
AcDbEntity
  8
Front
 62
7
100
AcDbLine
 10
179.899068
 20
-36.970696
 30
0.0
 11
179.917155
 21
-36.980514
 31
0.0
  0
LINE
  5
2df
100
AcDbEntity
  8
Front
 62
7
100
AcDbLine
 10
179.917155
 20
-36.980514
 30
0.0
 11
179.937309
 21
-36.990849
 31
0.0
  0
LINE
  5
2e0
100
AcDbEntity
  8
Front
 62
7
100
AcDbLine
 10
179.937309
 20
-36.990849
 30
0.0
 11
179.957464
 21
-36.998601
 31
0.0
  0
LINE
  5
2e1
100
AcDbEntity
  8
Front
 62
7
100
AcDbLine
 10
179.957464
 20
-36.998601
 30
0.0
 11
179.978134
 21
-37.003253
 31
0.0
  0
LINE
  5
2e2
100
AcDbEntity
  8
Front
 62
7
100
AcDbLine
 10
179.978134
 20
-37.003253
 30
0.0
 11
179.998287
 21
-37.005838
 31
0.0
  0
LINE
  5
2e3
100
AcDbEntity
  8
Front
 62
7
100
AcDbLine
 10
179.998287
 20
-37.005838
 30
0.0
 11
180.021025
 21
-37.008420
 31
0.0
  0
LINE
  5
2e4
100
AcDbEntity
  8
Front
 62
7
100
AcDbLine
 10
180.021025
 20
-37.008420
 30
0.0
 11
180.531589
 21
-37.008420
 31
0.0
  0
LINE
  5
2e5
100
AcDbEntity
  8
Front
 62
7
100
AcDbLine
 10
180.531589
 20
-37.008420
 30
0.0
 11
180.554327
 21
-37.005838
 31
0.0
  0
LINE
  5
2e6
100
AcDbEntity
  8
Front
 62
7
100
AcDbLine
 10
180.554327
 20
-37.005838
 30
0.0
 11
180.574997
 21
-37.003253
 31
0.0
  0
LINE
  5
2e7
100
AcDbEntity
  8
Front
 62
7
100
AcDbLine
 10
180.574997
 20
-37.003253
 30
0.0
 11
180.595150
 21
-36.998601
 31
0.0
  0
LINE
  5
2e8
100
AcDbEntity
  8
Front
 62
7
100
AcDbLine
 10
180.595150
 20
-36.998601
 30
0.0
 11
180.615303
 21
-36.990849
 31
0.0
  0
LINE
  5
2e9
100
AcDbEntity
  8
Front
 62
7
100
AcDbLine
 10
180.615303
 20
-36.990849
 30
0.0
 11
180.635975
 21
-36.980514
 31
0.0
  0
LINE
  5
2ea
100
AcDbEntity
  8
Front
 62
7
100
AcDbLine
 10
180.635975
 20
-36.980514
 30
0.0
 11
180.653546
 21
-36.970696
 31
0.0
  0
LINE
  5
2eb
100
AcDbEntity
  8
Front
 62
7
100
AcDbLine
 10
180.653546
 20
-36.970696
 30
0.0
 11
180.671114
 21
-36.957776
 31
0.0
  0
LINE
  5
2ec
100
AcDbEntity
  8
Front
 62
7
100
AcDbLine
 10
180.671114
 20
-36.957776
 30
0.0
 11
180.686619
 21
-36.942790
 31
0.0
  0
LINE
  5
2ed
100
AcDbEntity
  8
Front
 62
7
100
AcDbLine
 10
180.686619
 20
-36.942790
 30
0.0
 11
180.701605
 21
-36.927288
 31
0.0
  0
LINE
  5
2ee
100
AcDbEntity
  8
Front
 62
7
100
AcDbLine
 10
180.701605
 20
-36.927288
 30
0.0
 11
180.714522
 21
-36.909717
 31
0.0
  0
LINE
  5
2ef
100
AcDbEntity
  8
Front
 62
7
100
AcDbLine
 10
180.714522
 20
-36.909717
 30
0.0
 11
180.724859
 21
-36.891630
 31
0.0
  0
LINE
  5
2f0
100
AcDbEntity
  8
Front
 62
7
100
AcDbLine
 10
180.724859
 20
-36.891630
 30
0.0
 11
180.734678
 21
-36.871477
 31
0.0
  0
LINE
  5
2f1
100
AcDbEntity
  8
Front
 62
7
100
AcDbLine
 10
180.734678
 20
-36.871477
 30
0.0
 11
180.742428
 21
-36.851324
 31
0.0
  0
LINE
  5
2f2
100
AcDbEntity
  8
Front
 62
7
100
AcDbLine
 10
180.742428
 20
-36.851324
 30
0.0
 11
180.747595
 21
-36.830654
 31
0.0
  0
LINE
  5
2f3
100
AcDbEntity
  8
Front
 62
7
100
AcDbLine
 10
180.747595
 20
-36.830654
 30
0.0
 11
180.750180
 21
-36.810498
 31
0.0
  0
LINE
  5
2f4
100
AcDbEntity
  8
Front
 62
7
100
AcDbLine
 10
180.750180
 20
-36.810498
 30
0.0
 11
180.750180
 21
-36.787763
 31
0.0
  0
LINE
  5
2f5
100
AcDbEntity
  8
Front
 62
7
100
AcDbLine
 10
180.750180
 20
-36.787763
 30
0.0
 11
180.750180
 21
-36.350579
 31
0.0
  0
LINE
  5
2f6
100
AcDbEntity
  8
Front
 62
7
100
AcDbLine
 10
180.750180
 20
-36.350579
 30
0.0
 11
180.750180
 21
-36.330425
 31
0.0
  0
LINE
  5
2f7
100
AcDbEntity
  8
Front
 62
7
100
AcDbLine
 10
180.750180
 20
-36.330425
 30
0.0
 11
180.747595
 21
-36.307687
 31
0.0
  0
LINE
  5
2f8
100
AcDbEntity
  8
Front
 62
7
100
AcDbLine
 10
180.747595
 20
-36.307687
 30
0.0
 11
180.742428
 21
-36.287018
 31
0.0
  0
LINE
  5
2f9
100
AcDbEntity
  8
Front
 62
7
100
AcDbLine
 10
180.742428
 20
-36.287018
 30
0.0
 11
180.734678
 21
-36.266864
 31
0.0
  0
LINE
  5
2fa
100
AcDbEntity
  8
Front
 62
7
100
AcDbLine
 10
180.734678
 20
-36.266864
 30
0.0
 11
180.724859
 21
-36.249293
 31
0.0
  0
LINE
  5
2fb
100
AcDbEntity
  8
Front
 62
7
100
AcDbLine
 10
180.724859
 20
-36.249293
 30
0.0
 11
180.714522
 21
-36.228624
 31
0.0
  0
LINE
  5
2fc
100
AcDbEntity
  8
Front
 62
7
100
AcDbLine
 10
180.714522
 20
-36.228624
 30
0.0
 11
180.701605
 21
-36.213636
 31
0.0
  0
LINE
  5
2fd
100
AcDbEntity
  8
Front
 62
7
100
AcDbLine
 10
180.701605
 20
-36.213636
 30
0.0
 11
180.686619
 21
-36.195551
 31
0.0
  0
LINE
  5
2fe
100
AcDbEntity
  8
Front
 62
7
100
AcDbLine
 10
180.686619
 20
-36.195551
 30
0.0
 11
180.671114
 21
-36.183148
 31
0.0
  0
LINE
  5
2ff
100
AcDbEntity
  8
Front
 62
7
100
AcDbLine
 10
180.671114
 20
-36.183148
 30
0.0
 11
180.653546
 21
-36.170228
 31
0.0
  0
LINE
  5
300
100
AcDbEntity
  8
Front
 62
7
100
AcDbLine
 10
180.653546
 20
-36.170228
 30
0.0
 11
180.635975
 21
-36.157827
 31
0.0
  0
LINE
  5
301
100
AcDbEntity
  8
Front
 62
7
100
AcDbLine
 10
180.635975
 20
-36.157827
 30
0.0
 11
180.615303
 21
-36.150075
 31
0.0
  0
LINE
  5
302
100
AcDbEntity
  8
Front
 62
7
100
AcDbLine
 10
180.615303
 20
-36.150075
 30
0.0
 11
180.595150
 21
-36.142322
 31
0.0
  0
LINE
  5
303
100
AcDbEntity
  8
Front
 62
7
100
AcDbLine
 10
180.595150
 20
-36.142322
 30
0.0
 11
180.574997
 21
-36.137155
 31
0.0
  0
LINE
  5
304
100
AcDbEntity
  8
Front
 62
7
100
AcDbLine
 10
180.574997
 20
-36.137155
 30
0.0
 11
180.554327
 21
-36.134573
 31
0.0
  0
LINE
  5
305
100
AcDbEntity
  8
Front
 62
7
100
AcDbLine
 10
180.554327
 20
-36.134573
 30
0.0
 11
180.531589
 21
-36.132504
 31
0.0
  0
LINE
  5
306
100
AcDbEntity
  8
Front
 62
7
100
AcDbLine
 10
180.531589
 20
-36.132504
 30
0.0
 11
180.021025
 21
-36.132504
 31
0.0
  0
LINE
  5
307
100
AcDbEntity
  8
Front
 62
7
100
AcDbLine
 10
180.021025
 20
-36.132504
 30
0.0
 11
179.998287
 21
-36.134573
 31
0.0
  0
LINE
  5
308
100
AcDbEntity
  8
Front
 62
7
100
AcDbLine
 10
179.998287
 20
-36.134573
 30
0.0
 11
179.978134
 21
-36.137155
 31
0.0
  0
LINE
  5
309
100
AcDbEntity
  8
Front
 62
7
100
AcDbLine
 10
179.978134
 20
-36.137155
 30
0.0
 11
179.957464
 21
-36.142322
 31
0.0
  0
LINE
  5
30a
100
AcDbEntity
  8
Front
 62
7
100
AcDbLine
 10
179.957464
 20
-36.142322
 30
0.0
 11
179.937309
 21
-36.150075
 31
0.0
  0
LINE
  5
30b
100
AcDbEntity
  8
Front
 62
7
100
AcDbLine
 10
179.937309
 20
-36.150075
 30
0.0
 11
179.917155
 21
-36.157827
 31
0.0
  0
LINE
  5
30c
100
AcDbEntity
  8
Front
 62
7
100
AcDbLine
 10
179.917155
 20
-36.157827
 30
0.0
 11
179.899068
 21
-36.170228
 31
0.0
  0
LINE
  5
30d
100
AcDbEntity
  8
Front
 62
7
100
AcDbLine
 10
179.899068
 20
-36.170228
 30
0.0
 11
179.881500
 21
-36.183148
 31
0.0
  0
LINE
  5
30e
100
AcDbEntity
  8
Front
 62
7
100
AcDbLine
 10
179.881500
 20
-36.183148
 30
0.0
 11
179.865995
 21
-36.195551
 31
0.0
  0
LINE
  5
30f
100
AcDbEntity
  8
Front
 62
7
100
AcDbLine
 10
179.865995
 20
-36.195551
 30
0.0
 11
179.851009
 21
-36.213636
 31
0.0
  0
LINE
  5
310
100
AcDbEntity
  8
Front
 62
7
100
AcDbLine
 10
179.851009
 20
-36.213636
 30
0.0
 11
179.838090
 21
-36.228624
 31
0.0
  0
LINE
  5
311
100
AcDbEntity
  8
Front
 62
7
100
AcDbLine
 10
179.838090
 20
-36.228624
 30
0.0
 11
179.828274
 21
-36.249293
 31
0.0
  0
LINE
  5
312
100
AcDbEntity
  8
Front
 62
7
100
AcDbLine
 10
179.828274
 20
-36.249293
 30
0.0
 11
179.817936
 21
-36.266864
 31
0.0
  0
LINE
  5
313
100
AcDbEntity
  8
Front
 62
7
100
AcDbLine
 10
179.817936
 20
-36.266864
 30
0.0
 11
179.810187
 21
-36.287018
 31
0.0
  0
LINE
  5
314
100
AcDbEntity
  8
Front
 62
7
100
AcDbLine
 10
179.810187
 20
-36.287018
 30
0.0
 11
179.805017
 21
-36.307687
 31
0.0
  0
LINE
  5
315
100
AcDbEntity
  8
Front
 62
7
100
AcDbLine
 10
179.805017
 20
-36.307687
 30
0.0
 11
179.803985
 21
-36.319056
 31
0.0
  0
LINE
  5
316
100
AcDbEntity
  8
Front
 62
7
100
AcDbLine
 10
179.803985
 20
-36.319056
 30
0.0
 11
178.024766
 21
-36.319056
 31
0.0
  0
SPLINE
  5
317
100
AcDbEntity
  8
Front
 62
7
100
AcDbSpline
 70
8
 71
3
 72
8
 73
4
 74
0
 40
0
 40
0
 40
0
 40
0
 40
1
 40
1
 40
1
 40
1
 10
178.024766
 20
-36.319056
 30
0.0
 10
177.934895
 20
-35.992981
 30
0.0
 10
177.677148
 20
-35.738793
 30
0.0
 10
177.349872
 20
-35.653465
 30
0.0
  0
LINE
  5
318
100
AcDbEntity
  8
Front
 62
7
100
AcDbLine
 10
177.349872
 20
-35.653465
 30
0.0
 11
177.349872
 21
-34.944980
 31
0.0
  0
SPLINE
  5
319
100
AcDbEntity
  8
Front
 62
7
100
AcDbSpline
 70
8
 71
3
 72
8
 73
4
 74
0
 40
0
 40
0
 40
0
 40
0
 40
1
 40
1
 40
1
 40
1
 10
177.349872
 20
-34.944980
 30
0.0
 10
177.757674
 20
-34.838660
 30
0.0
 10
178.062490
 20
-34.470754
 30
0.0
 10
178.062490
 20
-34.029276
 30
0.0
  0
SPLINE
  5
31a
100
AcDbEntity
  8
Front
 62
7
100
AcDbSpline
 70
8
 71
3
 72
8
 73
4
 74
0
 40
0
 40
0
 40
0
 40
0
 40
1
 40
1
 40
1
 40
1
 10
178.062490
 20
-34.029276
 30
0.0
 10
178.062490
 20
-33.500942
 30
0.0
 10
177.628380
 20
-33.072153
 30
0.0
 10
177.100274
 20
-33.078945
 30
0.0
  0
LINE
  5
31b
100
AcDbEntity
  8
Front
 62
7
100
AcDbLine
 10
177.100274
 20
-33.078945
 30
0.0
 11
177.100274
 21
-33.078945
 31
0.0
  0
LINE
  5
31c
100
AcDbEntity
  8
Front
 62
7
100
AcDbLine
 10
184.245058
 20
-42.550718
 30
0.0
 11
184.245058
 21
-43.290207
 31
0.0
  0
LINE
  5
31d
100
AcDbEntity
  8
Front
 62
7
100
AcDbLine
 10
184.245058
 20
-43.290207
 30
0.0
 11
186.645426
 21
-43.290207
 31
0.0
  0
LINE
  5
31e
100
AcDbEntity
  8
Front
 62
7
100
AcDbLine
 10
186.645426
 20
-43.290207
 30
0.0
 11
186.645426
 21
-43.169284
 31
0.0
  0
LINE
  5
31f
100
AcDbEntity
  8
Front
 62
7
100
AcDbLine
 10
186.645426
 20
-43.169284
 30
0.0
 11
187.042301
 21
-43.169284
 31
0.0
  0
LINE
  5
320
100
AcDbEntity
  8
Front
 62
7
100
AcDbLine
 10
187.042301
 20
-43.169284
 30
0.0
 11
187.045402
 21
-43.172385
 31
0.0
  0
LINE
  5
321
100
AcDbEntity
  8
Front
 62
7
100
AcDbLine
 10
187.045402
 20
-43.172385
 30
0.0
 11
187.045402
 21
-47.545243
 31
0.0
  0
LINE
  5
322
100
AcDbEntity
  8
Front
 62
7
100
AcDbLine
 10
187.045402
 20
-47.545243
 30
0.0
 11
178.091427
 21
-56.499218
 31
0.0
  0
LINE
  5
323
100
AcDbEntity
  8
Front
 62
7
100
AcDbLine
 10
178.091427
 20
-56.499218
 30
0.0
 11
173.571292
 21
-56.499218
 31
0.0
  0
LINE
  5
324
100
AcDbEntity
  8
Front
 62
7
100
AcDbLine
 10
173.571292
 20
-56.499218
 30
0.0
 11
172.270079
 21
-55.198005
 31
0.0
  0
LINE
  5
325
100
AcDbEntity
  8
Front
 62
7
100
AcDbLine
 10
172.270079
 20
-55.198005
 30
0.0
 11
172.270079
 21
-49.372522
 31
0.0
  0
LINE
  5
326
100
AcDbEntity
  8
Front
 62
7
100
AcDbLine
 10
172.270079
 20
-49.372522
 30
0.0
 11
174.088055
 21
-47.555062
 31
0.0
  0
SPLINE
  5
327
100
AcDbEntity
  8
Front
 62
7
100
AcDbSpline
 70
8
 71
3
 72
8
 73
4
 74
0
 40
0
 40
0
 40
0
 40
0
 40
1
 40
1
 40
1
 40
1
 10
174.088055
 20
-47.555062
 30
0.0
 10
174.228355
 20
-47.633569
 30
0.0
 10
174.387894
 20
-47.681297
 30
0.0
 10
174.559862
 20
-47.679085
 30
0.0
  0
SPLINE
  5
328
100
AcDbEntity
  8
Front
 62
7
100
AcDbSpline
 70
8
 71
3
 72
8
 73
4
 74
0
 40
0
 40
0
 40
0
 40
0
 40
1
 40
1
 40
1
 40
1
 10
174.559862
 20
-47.679085
 30
0.0
 10
175.087968
 20
-47.685875
 30
0.0
 10
175.522593
 20
-47.257604
 30
0.0
 10
175.522593
 20
-46.729274
 30
0.0
  0
SPLINE
  5
329
100
AcDbEntity
  8
Front
 62
7
100
AcDbSpline
 70
8
 71
3
 72
8
 73
4
 74
0
 40
0
 40
0
 40
0
 40
0
 40
1
 40
1
 40
1
 40
1
 10
175.522593
 20
-46.729274
 30
0.0
 10
175.522593
 20
-46.200941
 30
0.0
 10
175.087968
 20
-45.772152
 30
0.0
 10
174.559862
 20
-45.778943
 30
0.0
  0
SPLINE
  5
32a
100
AcDbEntity
  8
Front
 62
7
100
AcDbSpline
 70
8
 71
3
 72
8
 73
4
 74
0
 40
0
 40
0
 40
0
 40
0
 40
1
 40
1
 40
1
 40
1
 10
174.559862
 20
-45.778943
 30
0.0
 10
174.031756
 20
-45.772152
 30
0.0
 10
173.597647
 20
-46.200941
 30
0.0
 10
173.597647
 20
-46.729274
 30
0.0
  0
SPLINE
  5
32b
100
AcDbEntity
  8
Front
 62
7
100
AcDbSpline
 70
8
 71
3
 72
8
 73
4
 74
0
 40
0
 40
0
 40
0
 40
0
 40
1
 40
1
 40
1
 40
1
 10
173.597647
 20
-46.729274
 30
0.0
 10
173.597647
 20
-46.903459
 30
0.0
 10
173.648777
 20
-47.064244
 30
0.0
 10
173.730970
 20
-47.204695
 30
0.0
  0
SPLINE
  5
32c
100
AcDbEntity
  8
Front
 62
7
100
AcDbSpline
 70
8
 71
3
 72
8
 73
4
 74
0
 40
0
 40
0
 40
0
 40
0
 40
1
 40
1
 40
1
 40
1
 10
173.730970
 20
-47.204695
 30
0.0
 10
173.730970
 20
-47.204695
 30
0.0
 10
171.868553
 20
-49.067113
 30
0.0
 10
171.868553
 20
-49.067113
 30
0.0
  0
SPLINE
  5
32d
100
AcDbEntity
  8
Front
 62
7
100
AcDbSpline
 70
8
 71
3
 72
8
 73
4
 74
0
 40
0
 40
0
 40
0
 40
0
 40
1
 40
1
 40
1
 40
1
 10
171.868553
 20
-49.067113
 30
0.0
 10
171.833276
 20
-49.094059
 30
0.0
 10
171.805809
 20
-49.129910
 30
0.0
 10
171.788971
 20
-49.170983
 30
0.0
  0
SPLINE
  5
32e
100
AcDbEntity
  8
Front
 62
7
100
AcDbSpline
 70
8
 71
3
 72
8
 73
4
 74
0
 40
0
 40
0
 40
0
 40
0
 40
1
 40
1
 40
1
 40
1
 10
171.788971
 20
-49.170983
 30
0.0
 10
171.788445
 20
-49.172185
 30
0.0
 10
171.787928
 20
-49.173390
 30
0.0
 10
171.787421
 20
-49.174600
 30
0.0
  0
SPLINE
  5
32f
100
AcDbEntity
  8
Front
 62
7
100
AcDbSpline
 70
8
 71
3
 72
8
 73
4
 74
0
 40
0
 40
0
 40
0
 40
0
 40
1
 40
1
 40
1
 40
1
 10
171.787421
 20
-49.174600
 30
0.0
 10
171.786892
 20
-49.175974
 30
0.0
 10
171.786375
 20
-49.177353
 30
0.0
 10
171.785870
 20
-49.178736
 30
0.0
  0
SPLINE
  5
330
100
AcDbEntity
  8
Front
 62
7
100
AcDbSpline
 70
8
 71
3
 72
8
 73
4
 74
0
 40
0
 40
0
 40
0
 40
0
 40
1
 40
1
 40
1
 40
1
 10
171.785870
 20
-49.178736
 30
0.0
 10
171.769937
 20
-49.218368
 30
0.0
 10
171.764421
 20
-49.261422
 30
0.0
 10
171.769850
 20
-49.303791
 30
0.0
  0
SPLINE
  5
331
100
AcDbEntity
  8
Front
 62
7
100
AcDbSpline
 70
8
 71
3
 72
8
 73
4
 74
0
 40
0
 40
0
 40
0
 40
0
 40
1
 40
1
 40
1
 40
1
 10
171.769850
 20
-49.303791
 30
0.0
 10
171.769850
 20
-49.303791
 30
0.0
 10
171.769850
 20
-55.269319
 30
0.0
 10
171.769850
 20
-55.269319
 30
0.0
  0
SPLINE
  5
332
100
AcDbEntity
  8
Front
 62
7
100
AcDbSpline
 70
8
 71
3
 72
8
 73
4
 74
0
 40
0
 40
0
 40
0
 40
0
 40
1
 40
1
 40
1
 40
1
 10
171.769850
 20
-55.269319
 30
0.0
 10
171.765062
 20
-55.309354
 30
0.0
 10
171.770026
 20
-55.349954
 30
0.0
 10
171.784320
 20
-55.387656
 30
0.0
  0
SPLINE
  5
333
100
AcDbEntity
  8
Front
 62
7
100
AcDbSpline
 70
8
 71
3
 72
8
 73
4
 74
0
 40
0
 40
0
 40
0
 40
0
 40
1
 40
1
 40
1
 40
1
 10
171.784320
 20
-55.387656
 30
0.0
 10
171.800376
 20
-55.433561
 30
0.0
 10
171.829469
 20
-55.473788
 30
0.0
 10
171.868037
 20
-55.503411
 30
0.0
  0
SPLINE
  5
334
100
AcDbEntity
  8
Front
 62
7
100
AcDbSpline
 70
8
 71
3
 72
8
 73
4
 74
0
 40
0
 40
0
 40
0
 40
0
 40
1
 40
1
 40
1
 40
1
 10
171.868037
 20
-55.503411
 30
0.0
 10
171.868037
 20
-55.503411
 30
0.0
 10
173.264333
 20
-56.899194
 30
0.0
 10
173.264333
 20
-56.899194
 30
0.0
  0
SPLINE
  5
335
100
AcDbEntity
  8
Front
 62
7
100
AcDbSpline
 70
8
 71
3
 72
8
 73
4
 74
0
 40
0
 40
0
 40
0
 40
0
 40
1
 40
1
 40
1
 40
1
 10
173.264333
 20
-56.899194
 30
0.0
 10
173.290785
 20
-56.934443
 30
0.0
 10
173.326083
 20
-56.962075
 30
0.0
 10
173.366652
 20
-56.979291
 30
0.0
  0
SPLINE
  5
336
100
AcDbEntity
  8
Front
 62
7
100
AcDbSpline
 70
8
 71
3
 72
8
 73
4
 74
0
 40
0
 40
0
 40
0
 40
0
 40
1
 40
1
 40
1
 40
1
 10
173.366652
 20
-56.979291
 30
0.0
 10
173.410265
 20
-56.999251
 30
0.0
 10
173.458699
 20
-57.006247
 30
0.0
 10
173.506178
 20
-56.999445
 30
0.0
  0
SPLINE
  5
337
100
AcDbEntity
  8
Front
 62
7
100
AcDbSpline
 70
8
 71
3
 72
8
 73
4
 74
0
 40
0
 40
0
 40
0
 40
0
 40
1
 40
1
 40
1
 40
1
 10
173.506178
 20
-56.999445
 30
0.0
 10
173.506178
 20
-56.999445
 30
0.0
 10
178.158092
 20
-56.999445
 30
0.0
 10
178.158092
 20
-56.999445
 30
0.0
  0
SPLINE
  5
338
100
AcDbEntity
  8
Front
 62
7
100
AcDbSpline
 70
8
 71
3
 72
8
 73
4
 74
0
 40
0
 40
0
 40
0
 40
0
 40
1
 40
1
 40
1
 40
1
 10
178.158092
 20
-56.999445
 30
0.0
 10
178.203736
 20
-57.005741
 30
0.0
 10
178.250233
 20
-56.999303
 30
0.0
 10
178.292450
 20
-56.980842
 30
0.0
  0
SPLINE
  5
339
100
AcDbEntity
  8
Front
 62
7
100
AcDbSpline
 70
8
 71
3
 72
8
 73
4
 74
0
 40
0
 40
0
 40
0
 40
0
 40
1
 40
1
 40
1
 40
1
 10
178.292450
 20
-56.980842
 30
0.0
 10
178.293659
 20
-56.980334
 30
0.0
 10
178.294865
 20
-56.979818
 30
0.0
 10
178.296067
 20
-56.979291
 30
0.0
  0
SPLINE
  5
33a
100
AcDbEntity
  8
Front
 62
7
100
AcDbSpline
 70
8
 71
3
 72
8
 73
4
 74
0
 40
0
 40
0
 40
0
 40
0
 40
1
 40
1
 40
1
 40
1
 10
178.296067
 20
-56.979291
 30
0.0
 10
178.296585
 20
-56.978948
 30
0.0
 10
178.297102
 20
-56.978604
 30
0.0
 10
178.297617
 20
-56.978257
 30
0.0
  0
SPLINE
  5
33b
100
AcDbEntity
  8
Front
 62
7
100
AcDbSpline
 70
8
 71
3
 72
8
 73
4
 74
0
 40
0
 40
0
 40
0
 40
0
 40
1
 40
1
 40
1
 40
1
 10
178.297617
 20
-56.978257
 30
0.0
 10
178.337006
 20
-56.961235
 30
0.0
 10
178.371353
 20
-56.934363
 30
0.0
 10
178.397352
 20
-56.900226
 30
0.0
  0
SPLINE
  5
33c
100
AcDbEntity
  8
Front
 62
7
100
AcDbSpline
 70
8
 71
3
 72
8
 73
4
 74
0
 40
0
 40
0
 40
0
 40
0
 40
1
 40
1
 40
1
 40
1
 10
178.397352
 20
-56.900226
 30
0.0
 10
178.397352
 20
-56.900226
 30
0.0
 10
187.446928
 20
-47.850652
 30
0.0
 10
187.446928
 20
-47.850652
 30
0.0
  0
SPLINE
  5
33d
100
AcDbEntity
  8
Front
 62
7
100
AcDbSpline
 70
8
 71
3
 72
8
 73
4
 74
0
 40
0
 40
0
 40
0
 40
0
 40
1
 40
1
 40
1
 40
1
 10
187.446928
 20
-47.850652
 30
0.0
 10
187.483483
 20
-47.822985
 30
0.0
 10
187.511728
 20
-47.785801
 30
0.0
 10
187.528576
 20
-47.743165
 30
0.0
  0
SPLINE
  5
33e
100
AcDbEntity
  8
Front
 62
7
100
AcDbSpline
 70
8
 71
3
 72
8
 73
4
 74
0
 40
0
 40
0
 40
0
 40
0
 40
1
 40
1
 40
1
 40
1
 10
187.528576
 20
-47.743165
 30
0.0
 10
187.529105
 20
-47.741791
 30
0.0
 10
187.529622
 20
-47.740412
 30
0.0
 10
187.530127
 20
-47.739029
 30
0.0
  0
SPLINE
  5
33f
100
AcDbEntity
  8
Front
 62
7
100
AcDbSpline
 70
8
 71
3
 72
8
 73
4
 74
0
 40
0
 40
0
 40
0
 40
0
 40
1
 40
1
 40
1
 40
1
 10
187.530127
 20
-47.739029
 30
0.0
 10
187.530300
 20
-47.738513
 30
0.0
 10
187.530472
 20
-47.737996
 30
0.0
 10
187.530643
 20
-47.737479
 30
0.0
  0
SPLINE
  5
340
100
AcDbEntity
  8
Front
 62
7
100
AcDbSpline
 70
8
 71
3
 72
8
 73
4
 74
0
 40
0
 40
0
 40
0
 40
0
 40
1
 40
1
 40
1
 40
1
 10
187.530643
 20
-47.737479
 30
0.0
 10
187.546315
 20
-47.697596
 30
0.0
 10
187.551475
 20
-47.654356
 30
0.0
 10
187.545629
 20
-47.611905
 30
0.0
  0
SPLINE
  5
341
100
AcDbEntity
  8
Front
 62
7
100
AcDbSpline
 70
8
 71
3
 72
8
 73
4
 74
0
 40
0
 40
0
 40
0
 40
0
 40
1
 40
1
 40
1
 40
1
 10
187.545629
 20
-47.611905
 30
0.0
 10
187.545629
 20
-47.611905
 30
0.0
 10
187.545629
 20
-43.105721
 30
0.0
 10
187.545629
 20
-43.105721
 30
0.0
  0
SPLINE
  5
342
100
AcDbEntity
  8
Front
 62
7
100
AcDbSpline
 70
8
 71
3
 72
8
 73
4
 74
0
 40
0
 40
0
 40
0
 40
0
 40
1
 40
1
 40
1
 40
1
 10
187.545629
 20
-43.105721
 30
0.0
 10
187.551421
 20
-43.062674
 30
0.0
 10
187.545900
 20
-43.018861
 30
0.0
 10
187.529611
 20
-42.978596
 30
0.0
  0
SPLINE
  5
343
100
AcDbEntity
  8
Front
 62
7
100
AcDbSpline
 70
8
 71
3
 72
8
 73
4
 74
0
 40
0
 40
0
 40
0
 40
0
 40
1
 40
1
 40
1
 40
1
 10
187.529611
 20
-42.978596
 30
0.0
 10
187.513088
 20
-42.934076
 30
0.0
 10
187.484229
 20
-42.895181
 30
0.0
 10
187.446410
 20
-42.866461
 30
0.0
  0
SPLINE
  5
344
100
AcDbEntity
  8
Front
 62
7
100
AcDbSpline
 70
8
 71
3
 72
8
 73
4
 74
0
 40
0
 40
0
 40
0
 40
0
 40
1
 40
1
 40
1
 40
1
 10
187.446410
 20
-42.866461
 30
0.0
 10
187.446410
 20
-42.866461
 30
0.0
 10
187.347710
 20
-42.767758
 30
0.0
 10
187.347710
 20
-42.767758
 30
0.0
  0
SPLINE
  5
345
100
AcDbEntity
  8
Front
 62
7
100
AcDbSpline
 70
8
 71
3
 72
8
 73
4
 74
0
 40
0
 40
0
 40
0
 40
0
 40
1
 40
1
 40
1
 40
1
 10
187.347710
 20
-42.767758
 30
0.0
 10
187.320184
 20
-42.731278
 30
0.0
 10
187.283187
 20
-42.703038
 30
0.0
 10
187.240739
 20
-42.686108
 30
0.0
  0
SPLINE
  5
346
100
AcDbEntity
  8
Front
 62
7
100
AcDbSpline
 70
8
 71
3
 72
8
 73
4
 74
0
 40
0
 40
0
 40
0
 40
0
 40
1
 40
1
 40
1
 40
1
 10
187.240739
 20
-42.686108
 30
0.0
 10
187.239366
 20
-42.685579
 30
0.0
 10
187.237988
 20
-42.685064
 30
0.0
 10
187.236606
 20
-42.684560
 30
0.0
  0
SPLINE
  5
347
100
AcDbEntity
  8
Front
 62
7
100
AcDbSpline
 70
8
 71
3
 72
8
 73
4
 74
0
 40
0
 40
0
 40
0
 40
0
 40
1
 40
1
 40
1
 40
1
 10
187.236606
 20
-42.684560
 30
0.0
 10
187.235746
 20
-42.684210
 30
0.0
 10
187.234885
 20
-42.683865
 30
0.0
 10
187.234021
 20
-42.683525
 30
0.0
  0
SPLINE
  5
348
100
AcDbEntity
  8
Front
 62
7
100
AcDbSpline
 70
8
 71
3
 72
8
 73
4
 74
0
 40
0
 40
0
 40
0
 40
0
 40
1
 40
1
 40
1
 40
1
 10
187.234021
 20
-42.683525
 30
0.0
 10
187.205029
 20
-42.672232
 30
0.0
 10
187.174184
 20
-42.666449
 30
0.0
 10
187.143070
 20
-42.666473
 30
0.0
  0
SPLINE
  5
349
100
AcDbEntity
  8
Front
 62
7
100
AcDbSpline
 70
8
 71
3
 72
8
 73
4
 74
0
 40
0
 40
0
 40
0
 40
0
 40
1
 40
1
 40
1
 40
1
 10
187.143070
 20
-42.666473
 30
0.0
 10
187.132347
 20
-42.666646
 30
0.0
 10
187.121645
 20
-42.667508
 30
0.0
 10
187.111032
 20
-42.669055
 30
0.0
  0
LINE
  5
34a
100
AcDbEntity
  8
Front
 62
7
100
AcDbLine
 10
187.111032
 20
-42.669055
 30
0.0
 11
186.645426
 21
-42.669055
 31
0.0
  0
LINE
  5
34b
100
AcDbEntity
  8
Front
 62
7
100
AcDbLine
 10
186.645426
 20
-42.669055
 30
0.0
 11
186.645426
 21
-42.550718
 31
0.0
  0
LINE
  5
34c
100
AcDbEntity
  8
Front
 62
7
100
AcDbLine
 10
186.645426
 20
-42.550718
 30
0.0
 11
184.245058
 21
-42.550718
 31
0.0
  0
LINE
  5
34d
100
AcDbEntity
  8
Front
 62
7
100
AcDbLine
 10
184.245058
 20
-42.550718
 30
0.0
 11
184.245058
 21
-42.550718
 31
0.0
  0
SPLINE
  5
34e
100
AcDbEntity
  8
Front
 62
7
100
AcDbSpline
 70
8
 71
3
 72
8
 73
4
 74
0
 40
0
 40
0
 40
0
 40
0
 40
1
 40
1
 40
1
 40
1
 10
174.559862
 20
-43.239047
 30
0.0
 10
174.031756
 20
-43.232258
 30
0.0
 10
173.597647
 20
-43.661047
 30
0.0
 10
173.597647
 20
-44.189377
 30
0.0
  0
SPLINE
  5
34f
100
AcDbEntity
  8
Front
 62
7
100
AcDbSpline
 70
8
 71
3
 72
8
 73
4
 74
0
 40
0
 40
0
 40
0
 40
0
 40
1
 40
1
 40
1
 40
1
 10
173.597647
 20
-44.189377
 30
0.0
 10
173.597647
 20
-44.717708
 30
0.0
 10
174.031756
 20
-45.145978
 30
0.0
 10
174.559862
 20
-45.139189
 30
0.0
  0
SPLINE
  5
350
100
AcDbEntity
  8
Front
 62
7
100
AcDbSpline
 70
8
 71
3
 72
8
 73
4
 74
0
 40
0
 40
0
 40
0
 40
0
 40
1
 40
1
 40
1
 40
1
 10
174.559862
 20
-45.139189
 30
0.0
 10
175.087968
 20
-45.145978
 30
0.0
 10
175.522593
 20
-44.717708
 30
0.0
 10
175.522593
 20
-44.189377
 30
0.0
  0
SPLINE
  5
351
100
AcDbEntity
  8
Front
 62
7
100
AcDbSpline
 70
8
 71
3
 72
8
 73
4
 74
0
 40
0
 40
0
 40
0
 40
0
 40
1
 40
1
 40
1
 40
1
 10
175.522593
 20
-44.189377
 30
0.0
 10
175.522593
 20
-43.661047
 30
0.0
 10
175.087968
 20
-43.232258
 30
0.0
 10
174.559862
 20
-43.239047
 30
0.0
  0
LINE
  5
352
100
AcDbEntity
  8
Front
 62
7
100
AcDbLine
 10
174.559862
 20
-43.239047
 30
0.0
 11
174.559862
 21
-43.239047
 31
0.0
  0
LINE
  5
353
100
AcDbEntity
  8
Front
 62
7
100
AcDbLine
 10
180.346071
 20
-43.820924
 30
0.0
 11
180.346071
 21
-44.559897
 31
0.0
  0
LINE
  5
354
100
AcDbEntity
  8
Front
 62
7
100
AcDbLine
 10
180.346071
 20
-44.559897
 30
0.0
 11
182.746440
 21
-44.559897
 31
0.0
  0
LINE
  5
355
100
AcDbEntity
  8
Front
 62
7
100
AcDbLine
 10
182.746440
 20
-44.559897
 30
0.0
 11
182.746440
 21
-43.820924
 31
0.0
  0
LINE
  5
356
100
AcDbEntity
  8
Front
 62
7
100
AcDbLine
 10
182.746440
 20
-43.820924
 30
0.0
 11
180.346071
 21
-43.820924
 31
0.0
  0
LINE
  5
357
100
AcDbEntity
  8
Front
 62
7
100
AcDbLine
 10
180.346071
 20
-43.820924
 30
0.0
 11
180.346071
 21
-43.820924
 31
0.0
  0
LINE
  5
358
100
AcDbEntity
  8
Front
 62
7
100
AcDbLine
 10
184.245058
 20
-45.090614
 30
0.0
 11
184.245058
 21
-45.830103
 31
0.0
  0
LINE
  5
359
100
AcDbEntity
  8
Front
 62
7
100
AcDbLine
 10
184.245058
 20
-45.830103
 30
0.0
 11
185.196420
 21
-45.830103
 31
0.0
  0
LINE
  5
35a
100
AcDbEntity
  8
Front
 62
7
100
AcDbLine
 10
185.196420
 20
-45.830103
 30
0.0
 11
185.196420
 21
-46.330330
 31
0.0
  0
LINE
  5
35b
100
AcDbEntity
  8
Front
 62
7
100
AcDbLine
 10
185.196420
 20
-46.330330
 30
0.0
 11
185.196420
 21
-48.121953
 31
0.0
  0
LINE
  5
35c
100
AcDbEntity
  8
Front
 62
7
100
AcDbLine
 10
185.196420
 20
-48.121953
 30
0.0
 11
177.717807
 21
-55.600048
 31
0.0
  0
LINE
  5
35d
100
AcDbEntity
  8
Front
 62
7
100
AcDbLine
 10
177.717807
 20
-55.600048
 30
0.0
 11
173.944912
 21
-55.600048
 31
0.0
  0
LINE
  5
35e
100
AcDbEntity
  8
Front
 62
7
100
AcDbLine
 10
173.944912
 20
-55.600048
 30
0.0
 11
173.311360
 21
-54.966495
 31
0.0
  0
LINE
  5
35f
100
AcDbEntity
  8
Front
 62
7
100
AcDbLine
 10
173.311360
 20
-54.966495
 30
0.0
 11
173.311360
 21
-50.874238
 31
0.0
  0
LINE
  5
360
100
AcDbEntity
  8
Front
 62
7
100
AcDbLine
 10
173.311360
 20
-50.874238
 30
0.0
 11
174.088573
 21
-50.095474
 31
0.0
  0
SPLINE
  5
361
100
AcDbEntity
  8
Front
 62
7
100
AcDbSpline
 70
8
 71
3
 72
8
 73
4
 74
0
 40
0
 40
0
 40
0
 40
0
 40
1
 40
1
 40
1
 40
1
 10
174.088573
 20
-50.095474
 30
0.0
 10
174.228731
 20
-50.173767
 30
0.0
 10
174.388145
 20
-50.221188
 30
0.0
 10
174.559862
 20
-50.218982
 30
0.0
  0
SPLINE
  5
362
100
AcDbEntity
  8
Front
 62
7
100
AcDbSpline
 70
8
 71
3
 72
8
 73
4
 74
0
 40
0
 40
0
 40
0
 40
0
 40
1
 40
1
 40
1
 40
1
 10
174.559862
 20
-50.218982
 30
0.0
 10
175.087968
 20
-50.225771
 30
0.0
 10
175.522593
 20
-49.797498
 30
0.0
 10
175.522593
 20
-49.269167
 30
0.0
  0
SPLINE
  5
363
100
AcDbEntity
  8
Front
 62
7
100
AcDbSpline
 70
8
 71
3
 72
8
 73
4
 74
0
 40
0
 40
0
 40
0
 40
0
 40
1
 40
1
 40
1
 40
1
 10
175.522593
 20
-49.269167
 30
0.0
 10
175.522593
 20
-48.740837
 30
0.0
 10
175.087968
 20
-48.312567
 30
0.0
 10
174.559862
 20
-48.319356
 30
0.0
  0
SPLINE
  5
364
100
AcDbEntity
  8
Front
 62
7
100
AcDbSpline
 70
8
 71
3
 72
8
 73
4
 74
0
 40
0
 40
0
 40
0
 40
0
 40
1
 40
1
 40
1
 40
1
 10
174.559862
 20
-48.319356
 30
0.0
 10
174.031756
 20
-48.312567
 30
0.0
 10
173.597647
 20
-48.740837
 30
0.0
 10
173.597647
 20
-49.269167
 30
0.0
  0
SPLINE
  5
365
100
AcDbEntity
  8
Front
 62
7
100
AcDbSpline
 70
8
 71
3
 72
8
 73
4
 74
0
 40
0
 40
0
 40
0
 40
0
 40
1
 40
1
 40
1
 40
1
 10
173.597647
 20
-49.269167
 30
0.0
 10
173.597647
 20
-49.443679
 30
0.0
 10
173.648494
 20
-49.604998
 30
0.0
 10
173.730970
 20
-49.745626
 30
0.0
  0
SPLINE
  5
366
100
AcDbEntity
  8
Front
 62
7
100
AcDbSpline
 70
8
 71
3
 72
8
 73
4
 74
0
 40
0
 40
0
 40
0
 40
0
 40
1
 40
1
 40
1
 40
1
 10
173.730970
 20
-49.745626
 30
0.0
 10
173.730970
 20
-49.745626
 30
0.0
 10
172.909315
 20
-50.568830
 30
0.0
 10
172.909315
 20
-50.568830
 30
0.0
  0
SPLINE
  5
367
100
AcDbEntity
  8
Front
 62
7
100
AcDbSpline
 70
8
 71
3
 72
8
 73
4
 74
0
 40
0
 40
0
 40
0
 40
0
 40
1
 40
1
 40
1
 40
1
 10
172.909315
 20
-50.568830
 30
0.0
 10
172.873291
 20
-50.596351
 30
0.0
 10
172.845426
 20
-50.633148
 30
0.0
 10
172.828702
 20
-50.675285
 30
0.0
  0
SPLINE
  5
368
100
AcDbEntity
  8
Front
 62
7
100
AcDbSpline
 70
8
 71
3
 72
8
 73
4
 74
0
 40
0
 40
0
 40
0
 40
0
 40
1
 40
1
 40
1
 40
1
 10
172.828702
 20
-50.675285
 30
0.0
 10
172.828701
 20
-50.675457
 30
0.0
 10
172.828701
 20
-50.675629
 30
0.0
 10
172.828702
 20
-50.675801
 30
0.0
  0
SPLINE
  5
369
100
AcDbEntity
  8
Front
 62
7
100
AcDbSpline
 70
8
 71
3
 72
8
 73
4
 74
0
 40
0
 40
0
 40
0
 40
0
 40
1
 40
1
 40
1
 40
1
 10
172.828702
 20
-50.675801
 30
0.0
 10
172.827808
 20
-50.678027
 30
0.0
 10
172.826946
 20
-50.680267
 30
0.0
 10
172.826117
 20
-50.682518
 30
0.0
  0
SPLINE
  5
36a
100
AcDbEntity
  8
Front
 62
7
100
AcDbSpline
 70
8
 71
3
 72
8
 73
4
 74
0
 40
0
 40
0
 40
0
 40
0
 40
1
 40
1
 40
1
 40
1
 10
172.826117
 20
-50.682518
 30
0.0
 10
172.810530
 20
-50.722605
 30
0.0
 10
172.805546
 20
-50.766033
 30
0.0
 10
172.811647
 20
-50.808608
 30
0.0
  0
SPLINE
  5
36b
100
AcDbEntity
  8
Front
 62
7
100
AcDbSpline
 70
8
 71
3
 72
8
 73
4
 74
0
 40
0
 40
0
 40
0
 40
0
 40
1
 40
1
 40
1
 40
1
 10
172.811647
 20
-50.808608
 30
0.0
 10
172.811647
 20
-50.808608
 30
0.0
 10
172.811647
 20
-55.033673
 30
0.0
 10
172.811647
 20
-55.033673
 30
0.0
  0
SPLINE
  5
36c
100
AcDbEntity
  8
Front
 62
7
100
AcDbSpline
 70
8
 71
3
 72
8
 73
4
 74
0
 40
0
 40
0
 40
0
 40
0
 40
1
 40
1
 40
1
 40
1
 10
172.811647
 20
-55.033673
 30
0.0
 10
172.805889
 20
-55.075955
 30
0.0
 10
172.811048
 20
-55.119006
 30
0.0
 10
172.826633
 20
-55.158731
 30
0.0
  0
SPLINE
  5
36d
100
AcDbEntity
  8
Front
 62
7
100
AcDbSpline
 70
8
 71
3
 72
8
 73
4
 74
0
 40
0
 40
0
 40
0
 40
0
 40
1
 40
1
 40
1
 40
1
 10
172.826633
 20
-55.158731
 30
0.0
 10
172.843058
 20
-55.204577
 30
0.0
 10
172.872514
 20
-55.244629
 30
0.0
 10
172.911384
 20
-55.273970
 30
0.0
  0
SPLINE
  5
36e
100
AcDbEntity
  8
Front
 62
7
100
AcDbSpline
 70
8
 71
3
 72
8
 73
4
 74
0
 40
0
 40
0
 40
0
 40
0
 40
1
 40
1
 40
1
 40
1
 10
172.911384
 20
-55.273970
 30
0.0
 10
172.911384
 20
-55.273970
 30
0.0
 10
173.638988
 20
-56.001574
 30
0.0
 10
173.638988
 20
-56.001574
 30
0.0
  0
SPLINE
  5
36f
100
AcDbEntity
  8
Front
 62
7
100
AcDbSpline
 70
8
 71
3
 72
8
 73
4
 74
0
 40
0
 40
0
 40
0
 40
0
 40
1
 40
1
 40
1
 40
1
 10
173.638988
 20
-56.001574
 30
0.0
 10
173.665573
 20
-56.036443
 30
0.0
 10
173.700859
 20
-56.063709
 30
0.0
 10
173.741308
 20
-56.080637
 30
0.0
  0
SPLINE
  5
370
100
AcDbEntity
  8
Front
 62
7
100
AcDbSpline
 70
8
 71
3
 72
8
 73
4
 74
0
 40
0
 40
0
 40
0
 40
0
 40
1
 40
1
 40
1
 40
1
 10
173.741308
 20
-56.080637
 30
0.0
 10
173.743020
 20
-56.081518
 30
0.0
 10
173.744743
 20
-56.082380
 30
0.0
 10
173.746475
 20
-56.083222
 30
0.0
  0
SPLINE
  5
371
100
AcDbEntity
  8
Front
 62
7
100
AcDbSpline
 70
8
 71
3
 72
8
 73
4
 74
0
 40
0
 40
0
 40
0
 40
0
 40
1
 40
1
 40
1
 40
1
 10
173.746475
 20
-56.083222
 30
0.0
 10
173.747848
 20
-56.083751
 30
0.0
 10
173.749226
 20
-56.084268
 30
0.0
 10
173.750608
 20
-56.084772
 30
0.0
  0
SPLINE
  5
372
100
AcDbEntity
  8
Front
 62
7
100
AcDbSpline
 70
8
 71
3
 72
8
 73
4
 74
0
 40
0
 40
0
 40
0
 40
0
 40
1
 40
1
 40
1
 40
1
 10
173.750608
 20
-56.084772
 30
0.0
 10
173.791549
 20
-56.101249
 30
0.0
 10
173.836121
 20
-56.106598
 30
0.0
 10
173.879798
 20
-56.100274
 30
0.0
  0
SPLINE
  5
373
100
AcDbEntity
  8
Front
 62
7
100
AcDbSpline
 70
8
 71
3
 72
8
 73
4
 74
0
 40
0
 40
0
 40
0
 40
0
 40
1
 40
1
 40
1
 40
1
 10
173.879798
 20
-56.100274
 30
0.0
 10
173.879798
 20
-56.100274
 30
0.0
 10
177.784471
 20
-56.100274
 30
0.0
 10
177.784471
 20
-56.100274
 30
0.0
  0
SPLINE
  5
374
100
AcDbEntity
  8
Front
 62
7
100
AcDbSpline
 70
8
 71
3
 72
8
 73
4
 74
0
 40
0
 40
0
 40
0
 40
0
 40
1
 40
1
 40
1
 40
1
 10
177.784471
 20
-56.100274
 30
0.0
 10
177.830116
 20
-56.106570
 30
0.0
 10
177.876612
 20
-56.100133
 30
0.0
 10
177.918829
 20
-56.081671
 30
0.0
  0
SPLINE
  5
375
100
AcDbEntity
  8
Front
 62
7
100
AcDbSpline
 70
8
 71
3
 72
8
 73
4
 74
0
 40
0
 40
0
 40
0
 40
0
 40
1
 40
1
 40
1
 40
1
 10
177.918829
 20
-56.081671
 30
0.0
 10
177.920211
 20
-56.081167
 30
0.0
 10
177.921589
 20
-56.080650
 30
0.0
 10
177.922962
 20
-56.080121
 30
0.0
  0
SPLINE
  5
376
100
AcDbEntity
  8
Front
 62
7
100
AcDbSpline
 70
8
 71
3
 72
8
 73
4
 74
0
 40
0
 40
0
 40
0
 40
0
 40
1
 40
1
 40
1
 40
1
 10
177.922962
 20
-56.080121
 30
0.0
 10
177.924870
 20
-56.079112
 30
0.0
 10
177.926766
 20
-56.078078
 30
0.0
 10
177.928648
 20
-56.077020
 30
0.0
  0
SPLINE
  5
377
100
AcDbEntity
  8
Front
 62
7
100
AcDbSpline
 70
8
 71
3
 72
8
 73
4
 74
0
 40
0
 40
0
 40
0
 40
0
 40
1
 40
1
 40
1
 40
1
 10
177.928648
 20
-56.077020
 30
0.0
 10
177.965814
 20
-56.060137
 30
0.0
 10
177.998281
 20
-56.034411
 30
0.0
 10
178.023215
 20
-56.002090
 30
0.0
  0
SPLINE
  5
378
100
AcDbEntity
  8
Front
 62
7
100
AcDbSpline
 70
8
 71
3
 72
8
 73
4
 74
0
 40
0
 40
0
 40
0
 40
0
 40
1
 40
1
 40
1
 40
1
 10
178.023215
 20
-56.002090
 30
0.0
 10
178.023215
 20
-56.002090
 30
0.0
 10
185.597946
 20
-48.427359
 30
0.0
 10
185.597946
 20
-48.427359
 30
0.0
  0
SPLINE
  5
379
100
AcDbEntity
  8
Front
 62
7
100
AcDbSpline
 70
8
 71
3
 72
8
 73
4
 74
0
 40
0
 40
0
 40
0
 40
0
 40
1
 40
1
 40
1
 40
1
 10
185.597946
 20
-48.427359
 30
0.0
 10
185.627565
 20
-48.404738
 30
0.0
 10
185.651753
 20
-48.375782
 30
0.0
 10
185.668741
 20
-48.342610
 30
0.0
  0
SPLINE
  5
37a
100
AcDbEntity
  8
Front
 62
7
100
AcDbSpline
 70
8
 71
3
 72
8
 73
4
 74
0
 40
0
 40
0
 40
0
 40
0
 40
1
 40
1
 40
1
 40
1
 10
185.668741
 20
-48.342610
 30
0.0
 10
185.669441
 20
-48.341410
 30
0.0
 10
185.670130
 20
-48.340204
 30
0.0
 10
185.670810
 20
-48.338993
 30
0.0
  0
SPLINE
  5
37b
100
AcDbEntity
  8
Front
 62
7
100
AcDbSpline
 70
8
 71
3
 72
8
 73
4
 74
0
 40
0
 40
0
 40
0
 40
0
 40
1
 40
1
 40
1
 40
1
 10
185.670810
 20
-48.338993
 30
0.0
 10
185.674005
 20
-48.332745
 30
0.0
 10
185.676936
 20
-48.326366
 30
0.0
 10
185.679594
 20
-48.319872
 30
0.0
  0
SPLINE
  5
37c
100
AcDbEntity
  8
Front
 62
7
100
AcDbSpline
 70
8
 71
3
 72
8
 73
4
 74
0
 40
0
 40
0
 40
0
 40
0
 40
1
 40
1
 40
1
 40
1
 10
185.679594
 20
-48.319872
 30
0.0
 10
185.680123
 20
-48.318499
 30
0.0
 10
185.680640
 20
-48.317121
 30
0.0
 10
185.681145
 20
-48.315739
 30
0.0
  0
SPLINE
  5
37d
100
AcDbEntity
  8
Front
 62
7
100
AcDbSpline
 70
8
 71
3
 72
8
 73
4
 74
0
 40
0
 40
0
 40
0
 40
0
 40
1
 40
1
 40
1
 40
1
 10
185.681145
 20
-48.315739
 30
0.0
 10
185.681318
 20
-48.315223
 30
0.0
 10
185.681490
 20
-48.314706
 30
0.0
 10
185.681661
 20
-48.314188
 30
0.0
  0
SPLINE
  5
37e
100
AcDbEntity
  8
Front
 62
7
100
AcDbSpline
 70
8
 71
3
 72
8
 73
4
 74
0
 40
0
 40
0
 40
0
 40
0
 40
1
 40
1
 40
1
 40
1
 10
185.681661
 20
-48.314188
 30
0.0
 10
185.696981
 20
-48.274939
 30
0.0
 10
185.702136
 20
-48.232455
 30
0.0
 10
185.696647
 20
-48.190681
 30
0.0
  0
LINE
  5
37f
100
AcDbEntity
  8
Front
 62
7
100
AcDbLine
 10
185.696647
 20
-48.190681
 30
0.0
 11
185.696647
 21
-46.330330
 31
0.0
  0
LINE
  5
380
100
AcDbEntity
  8
Front
 62
7
100
AcDbLine
 10
185.696647
 20
-46.330330
 30
0.0
 11
185.696647
 21
-45.830103
 31
0.0
  0
LINE
  5
381
100
AcDbEntity
  8
Front
 62
7
100
AcDbLine
 10
185.696647
 20
-45.830103
 30
0.0
 11
186.645426
 21
-45.830103
 31
0.0
  0
LINE
  5
382
100
AcDbEntity
  8
Front
 62
7
100
AcDbLine
 10
186.645426
 20
-45.830103
 30
0.0
 11
186.645426
 21
-45.090614
 31
0.0
  0
LINE
  5
383
100
AcDbEntity
  8
Front
 62
7
100
AcDbLine
 10
186.645426
 20
-45.090614
 30
0.0
 11
184.245058
 21
-45.090614
 31
0.0
  0
LINE
  5
384
100
AcDbEntity
  8
Front
 62
7
100
AcDbLine
 10
184.245058
 20
-45.090614
 30
0.0
 11
184.245058
 21
-45.090614
 31
0.0
  0
SPLINE
  5
385
100
AcDbEntity
  8
Front
 62
7
100
AcDbSpline
 70
8
 71
3
 72
8
 73
4
 74
0
 40
0
 40
0
 40
0
 40
0
 40
1
 40
1
 40
1
 40
1
 10
174.559862
 20
-50.859252
 30
0.0
 10
174.031756
 20
-50.852463
 30
0.0
 10
173.597647
 20
-51.280733
 30
0.0
 10
173.597647
 20
-51.809064
 30
0.0
  0
SPLINE
  5
386
100
AcDbEntity
  8
Front
 62
7
100
AcDbSpline
 70
8
 71
3
 72
8
 73
4
 74
0
 40
0
 40
0
 40
0
 40
0
 40
1
 40
1
 40
1
 40
1
 10
173.597647
 20
-51.809064
 30
0.0
 10
173.597647
 20
-52.337394
 30
0.0
 10
174.031756
 20
-52.765667
 30
0.0
 10
174.559862
 20
-52.758878
 30
0.0
  0
SPLINE
  5
387
100
AcDbEntity
  8
Front
 62
7
100
AcDbSpline
 70
8
 71
3
 72
8
 73
4
 74
0
 40
0
 40
0
 40
0
 40
0
 40
1
 40
1
 40
1
 40
1
 10
174.559862
 20
-52.758878
 30
0.0
 10
175.087968
 20
-52.765667
 30
0.0
 10
175.522593
 20
-52.337394
 30
0.0
 10
175.522593
 20
-51.809064
 30
0.0
  0
SPLINE
  5
388
100
AcDbEntity
  8
Front
 62
7
100
AcDbSpline
 70
8
 71
3
 72
8
 73
4
 74
0
 40
0
 40
0
 40
0
 40
0
 40
1
 40
1
 40
1
 40
1
 10
175.522593
 20
-51.809064
 30
0.0
 10
175.522593
 20
-51.280733
 30
0.0
 10
175.087968
 20
-50.852463
 30
0.0
 10
174.559862
 20
-50.859252
 30
0.0
  0
LINE
  5
389
100
AcDbEntity
  8
Front
 62
7
100
AcDbLine
 10
174.559862
 20
-50.859252
 30
0.0
 11
174.559862
 21
-50.859252
 31
0.0
  0
SPLINE
  5
38a
100
AcDbEntity
  8
Front
 62
7
100
AcDbSpline
 70
8
 71
3
 72
8
 73
4
 74
0
 40
0
 40
0
 40
0
 40
0
 40
1
 40
1
 40
1
 40
1
 10
174.559862
 20
-53.399149
 30
0.0
 10
174.031788
 20
-53.392410
 30
0.0
 10
173.597647
 20
-53.820664
 30
0.0
 10
173.597647
 20
-54.348960
 30
0.0
  0
SPLINE
  5
38b
100
AcDbEntity
  8
Front
 62
7
100
AcDbSpline
 70
8
 71
3
 72
8
 73
4
 74
0
 40
0
 40
0
 40
0
 40
0
 40
1
 40
1
 40
1
 40
1
 10
173.597647
 20
-54.348960
 30
0.0
 10
173.597647
 20
-54.877259
 30
0.0
 10
174.031788
 20
-55.306030
 30
0.0
 10
174.559862
 20
-55.299291
 30
0.0
  0
SPLINE
  5
38c
100
AcDbEntity
  8
Front
 62
7
100
AcDbSpline
 70
8
 71
3
 72
8
 73
4
 74
0
 40
0
 40
0
 40
0
 40
0
 40
1
 40
1
 40
1
 40
1
 10
174.559862
 20
-55.299291
 30
0.0
 10
175.087933
 20
-55.306030
 30
0.0
 10
175.522075
 20
-54.877259
 30
0.0
 10
175.522075
 20
-54.348960
 30
0.0
  0
SPLINE
  5
38d
100
AcDbEntity
  8
Front
 62
7
100
AcDbSpline
 70
8
 71
3
 72
8
 73
4
 74
0
 40
0
 40
0
 40
0
 40
0
 40
1
 40
1
 40
1
 40
1
 10
175.522075
 20
-54.348960
 30
0.0
 10
175.522075
 20
-53.820664
 30
0.0
 10
175.087933
 20
-53.392410
 30
0.0
 10
174.559862
 20
-53.399149
 30
0.0
  0
LINE
  5
38e
100
AcDbEntity
  8
Front
 62
7
100
AcDbLine
 10
174.559862
 20
-53.399149
 30
0.0
 11
174.559862
 21
-53.399149
 31
0.0
  0
SPLINE
  5
38f
100
AcDbEntity
  8
Front
 62
1
100
AcDbSpline
 70
8
 71
3
 72
8
 73
4
 74
0
 40
0
 40
0
 40
0
 40
0
 40
1
 40
1
 40
1
 40
1
 10
177.602526
 20
-54.351180
 30
0.0
 10
177.602526
 20
-54.627322
 30
0.0
 10
177.378669
 20
-54.851179
 30
0.0
 10
177.102528
 20
-54.851179
 30
0.0
  0
SPLINE
  5
390
100
AcDbEntity
  8
Front
 62
1
100
AcDbSpline
 70
8
 71
3
 72
8
 73
4
 74
0
 40
0
 40
0
 40
0
 40
0
 40
1
 40
1
 40
1
 40
1
 10
177.102528
 20
-54.851179
 30
0.0
 10
176.826386
 20
-54.851179
 30
0.0
 10
176.602529
 20
-54.627322
 30
0.0
 10
176.602529
 20
-54.351180
 30
0.0
  0
SPLINE
  5
391
100
AcDbEntity
  8
Front
 62
1
100
AcDbSpline
 70
8
 71
3
 72
8
 73
4
 74
0
 40
0
 40
0
 40
0
 40
0
 40
1
 40
1
 40
1
 40
1
 10
176.602529
 20
-54.351180
 30
0.0
 10
176.602529
 20
-54.075038
 30
0.0
 10
176.826386
 20
-53.851182
 30
0.0
 10
177.102528
 20
-53.851182
 30
0.0
  0
SPLINE
  5
392
100
AcDbEntity
  8
Front
 62
1
100
AcDbSpline
 70
8
 71
3
 72
8
 73
4
 74
0
 40
0
 40
0
 40
0
 40
0
 40
1
 40
1
 40
1
 40
1
 10
177.102528
 20
-53.851182
 30
0.0
 10
177.378669
 20
-53.851182
 30
0.0
 10
177.602526
 20
-54.075038
 30
0.0
 10
177.602526
 20
-54.351180
 30
0.0
  0
LINE
  5
393
100
AcDbEntity
  8
Front
 62
1
100
AcDbLine
 10
177.602526
 20
-54.351180
 30
0.0
 11
177.602526
 21
-54.351180
 31
0.0
  0
SPLINE
  5
394
100
AcDbEntity
  8
Front
 62
1
100
AcDbSpline
 70
8
 71
3
 72
8
 73
4
 74
0
 40
0
 40
0
 40
0
 40
0
 40
1
 40
1
 40
1
 40
1
 10
175.062529
 20
-54.351180
 30
0.0
 10
175.062529
 20
-54.627322
 30
0.0
 10
174.838672
 20
-54.851179
 30
0.0
 10
174.562530
 20
-54.851179
 30
0.0
  0
SPLINE
  5
395
100
AcDbEntity
  8
Front
 62
1
100
AcDbSpline
 70
8
 71
3
 72
8
 73
4
 74
0
 40
0
 40
0
 40
0
 40
0
 40
1
 40
1
 40
1
 40
1
 10
174.562530
 20
-54.851179
 30
0.0
 10
174.286389
 20
-54.851179
 30
0.0
 10
174.062532
 20
-54.627322
 30
0.0
 10
174.062532
 20
-54.351180
 30
0.0
  0
SPLINE
  5
396
100
AcDbEntity
  8
Front
 62
1
100
AcDbSpline
 70
8
 71
3
 72
8
 73
4
 74
0
 40
0
 40
0
 40
0
 40
0
 40
1
 40
1
 40
1
 40
1
 10
174.062532
 20
-54.351180
 30
0.0
 10
174.062532
 20
-54.075038
 30
0.0
 10
174.286389
 20
-53.851182
 30
0.0
 10
174.562530
 20
-53.851182
 30
0.0
  0
SPLINE
  5
397
100
AcDbEntity
  8
Front
 62
1
100
AcDbSpline
 70
8
 71
3
 72
8
 73
4
 74
0
 40
0
 40
0
 40
0
 40
0
 40
1
 40
1
 40
1
 40
1
 10
174.562530
 20
-53.851182
 30
0.0
 10
174.838672
 20
-53.851182
 30
0.0
 10
175.062529
 20
-54.075038
 30
0.0
 10
175.062529
 20
-54.351180
 30
0.0
  0
LINE
  5
398
100
AcDbEntity
  8
Front
 62
1
100
AcDbLine
 10
175.062529
 20
-54.351180
 30
0.0
 11
175.062529
 21
-54.351180
 31
0.0
  0
SPLINE
  5
399
100
AcDbEntity
  8
Front
 62
1
100
AcDbSpline
 70
8
 71
3
 72
8
 73
4
 74
0
 40
0
 40
0
 40
0
 40
0
 40
1
 40
1
 40
1
 40
1
 10
177.602526
 20
-51.811284
 30
0.0
 10
177.602526
 20
-52.087425
 30
0.0
 10
177.378669
 20
-52.311282
 30
0.0
 10
177.102528
 20
-52.311282
 30
0.0
  0
SPLINE
  5
39a
100
AcDbEntity
  8
Front
 62
1
100
AcDbSpline
 70
8
 71
3
 72
8
 73
4
 74
0
 40
0
 40
0
 40
0
 40
0
 40
1
 40
1
 40
1
 40
1
 10
177.102528
 20
-52.311282
 30
0.0
 10
176.826386
 20
-52.311282
 30
0.0
 10
176.602529
 20
-52.087425
 30
0.0
 10
176.602529
 20
-51.811284
 30
0.0
  0
SPLINE
  5
39b
100
AcDbEntity
  8
Front
 62
1
100
AcDbSpline
 70
8
 71
3
 72
8
 73
4
 74
0
 40
0
 40
0
 40
0
 40
0
 40
1
 40
1
 40
1
 40
1
 10
176.602529
 20
-51.811284
 30
0.0
 10
176.602529
 20
-51.535142
 30
0.0
 10
176.826386
 20
-51.311285
 30
0.0
 10
177.102528
 20
-51.311285
 30
0.0
  0
SPLINE
  5
39c
100
AcDbEntity
  8
Front
 62
1
100
AcDbSpline
 70
8
 71
3
 72
8
 73
4
 74
0
 40
0
 40
0
 40
0
 40
0
 40
1
 40
1
 40
1
 40
1
 10
177.102528
 20
-51.311285
 30
0.0
 10
177.378669
 20
-51.311285
 30
0.0
 10
177.602526
 20
-51.535142
 30
0.0
 10
177.602526
 20
-51.811284
 30
0.0
  0
LINE
  5
39d
100
AcDbEntity
  8
Front
 62
1
100
AcDbLine
 10
177.602526
 20
-51.811284
 30
0.0
 11
177.602526
 21
-51.811284
 31
0.0
  0
SPLINE
  5
39e
100
AcDbEntity
  8
Front
 62
1
100
AcDbSpline
 70
8
 71
3
 72
8
 73
4
 74
0
 40
0
 40
0
 40
0
 40
0
 40
1
 40
1
 40
1
 40
1
 10
175.062529
 20
-51.811284
 30
0.0
 10
175.062529
 20
-52.087425
 30
0.0
 10
174.838672
 20
-52.311282
 30
0.0
 10
174.562530
 20
-52.311282
 30
0.0
  0
SPLINE
  5
39f
100
AcDbEntity
  8
Front
 62
1
100
AcDbSpline
 70
8
 71
3
 72
8
 73
4
 74
0
 40
0
 40
0
 40
0
 40
0
 40
1
 40
1
 40
1
 40
1
 10
174.562530
 20
-52.311282
 30
0.0
 10
174.286389
 20
-52.311282
 30
0.0
 10
174.062532
 20
-52.087425
 30
0.0
 10
174.062532
 20
-51.811284
 30
0.0
  0
SPLINE
  5
3a0
100
AcDbEntity
  8
Front
 62
1
100
AcDbSpline
 70
8
 71
3
 72
8
 73
4
 74
0
 40
0
 40
0
 40
0
 40
0
 40
1
 40
1
 40
1
 40
1
 10
174.062532
 20
-51.811284
 30
0.0
 10
174.062532
 20
-51.535142
 30
0.0
 10
174.286389
 20
-51.311285
 30
0.0
 10
174.562530
 20
-51.311285
 30
0.0
  0
SPLINE
  5
3a1
100
AcDbEntity
  8
Front
 62
1
100
AcDbSpline
 70
8
 71
3
 72
8
 73
4
 74
0
 40
0
 40
0
 40
0
 40
0
 40
1
 40
1
 40
1
 40
1
 10
174.562530
 20
-51.311285
 30
0.0
 10
174.838672
 20
-51.311285
 30
0.0
 10
175.062529
 20
-51.535142
 30
0.0
 10
175.062529
 20
-51.811284
 30
0.0
  0
LINE
  5
3a2
100
AcDbEntity
  8
Front
 62
1
100
AcDbLine
 10
175.062529
 20
-51.811284
 30
0.0
 11
175.062529
 21
-51.811284
 31
0.0
  0
SPLINE
  5
3a3
100
AcDbEntity
  8
Front
 62
1
100
AcDbSpline
 70
8
 71
3
 72
8
 73
4
 74
0
 40
0
 40
0
 40
0
 40
0
 40
1
 40
1
 40
1
 40
1
 10
177.602526
 20
-49.271286
 30
0.0
 10
177.602526
 20
-49.547428
 30
0.0
 10
177.378669
 20
-49.771284
 30
0.0
 10
177.102528
 20
-49.771284
 30
0.0
  0
SPLINE
  5
3a4
100
AcDbEntity
  8
Front
 62
1
100
AcDbSpline
 70
8
 71
3
 72
8
 73
4
 74
0
 40
0
 40
0
 40
0
 40
0
 40
1
 40
1
 40
1
 40
1
 10
177.102528
 20
-49.771284
 30
0.0
 10
176.826386
 20
-49.771284
 30
0.0
 10
176.602529
 20
-49.547428
 30
0.0
 10
176.602529
 20
-49.271286
 30
0.0
  0
SPLINE
  5
3a5
100
AcDbEntity
  8
Front
 62
1
100
AcDbSpline
 70
8
 71
3
 72
8
 73
4
 74
0
 40
0
 40
0
 40
0
 40
0
 40
1
 40
1
 40
1
 40
1
 10
176.602529
 20
-49.271286
 30
0.0
 10
176.602529
 20
-48.995144
 30
0.0
 10
176.826386
 20
-48.771287
 30
0.0
 10
177.102528
 20
-48.771287
 30
0.0
  0
SPLINE
  5
3a6
100
AcDbEntity
  8
Front
 62
1
100
AcDbSpline
 70
8
 71
3
 72
8
 73
4
 74
0
 40
0
 40
0
 40
0
 40
0
 40
1
 40
1
 40
1
 40
1
 10
177.102528
 20
-48.771287
 30
0.0
 10
177.378669
 20
-48.771287
 30
0.0
 10
177.602526
 20
-48.995144
 30
0.0
 10
177.602526
 20
-49.271286
 30
0.0
  0
LINE
  5
3a7
100
AcDbEntity
  8
Front
 62
1
100
AcDbLine
 10
177.602526
 20
-49.271286
 30
0.0
 11
177.602526
 21
-49.271286
 31
0.0
  0
SPLINE
  5
3a8
100
AcDbEntity
  8
Front
 62
1
100
AcDbSpline
 70
8
 71
3
 72
8
 73
4
 74
0
 40
0
 40
0
 40
0
 40
0
 40
1
 40
1
 40
1
 40
1
 10
175.062529
 20
-49.271286
 30
0.0
 10
175.062529
 20
-49.547428
 30
0.0
 10
174.838672
 20
-49.771284
 30
0.0
 10
174.562530
 20
-49.771284
 30
0.0
  0
SPLINE
  5
3a9
100
AcDbEntity
  8
Front
 62
1
100
AcDbSpline
 70
8
 71
3
 72
8
 73
4
 74
0
 40
0
 40
0
 40
0
 40
0
 40
1
 40
1
 40
1
 40
1
 10
174.562530
 20
-49.771284
 30
0.0
 10
174.286389
 20
-49.771284
 30
0.0
 10
174.062532
 20
-49.547428
 30
0.0
 10
174.062532
 20
-49.271286
 30
0.0
  0
SPLINE
  5
3aa
100
AcDbEntity
  8
Front
 62
1
100
AcDbSpline
 70
8
 71
3
 72
8
 73
4
 74
0
 40
0
 40
0
 40
0
 40
0
 40
1
 40
1
 40
1
 40
1
 10
174.062532
 20
-49.271286
 30
0.0
 10
174.062532
 20
-48.995144
 30
0.0
 10
174.286389
 20
-48.771287
 30
0.0
 10
174.562530
 20
-48.771287
 30
0.0
  0
SPLINE
  5
3ab
100
AcDbEntity
  8
Front
 62
1
100
AcDbSpline
 70
8
 71
3
 72
8
 73
4
 74
0
 40
0
 40
0
 40
0
 40
0
 40
1
 40
1
 40
1
 40
1
 10
174.562530
 20
-48.771287
 30
0.0
 10
174.838672
 20
-48.771287
 30
0.0
 10
175.062529
 20
-48.995144
 30
0.0
 10
175.062529
 20
-49.271286
 30
0.0
  0
LINE
  5
3ac
100
AcDbEntity
  8
Front
 62
1
100
AcDbLine
 10
175.062529
 20
-49.271286
 30
0.0
 11
175.062529
 21
-49.271286
 31
0.0
  0
SPLINE
  5
3ad
100
AcDbEntity
  8
Front
 62
1
100
AcDbSpline
 70
8
 71
3
 72
8
 73
4
 74
0
 40
0
 40
0
 40
0
 40
0
 40
1
 40
1
 40
1
 40
1
 10
177.602526
 20
-46.731288
 30
0.0
 10
177.602526
 20
-47.007430
 30
0.0
 10
177.378669
 20
-47.231287
 30
0.0
 10
177.102528
 20
-47.231287
 30
0.0
  0
SPLINE
  5
3ae
100
AcDbEntity
  8
Front
 62
1
100
AcDbSpline
 70
8
 71
3
 72
8
 73
4
 74
0
 40
0
 40
0
 40
0
 40
0
 40
1
 40
1
 40
1
 40
1
 10
177.102528
 20
-47.231287
 30
0.0
 10
176.826386
 20
-47.231287
 30
0.0
 10
176.602529
 20
-47.007430
 30
0.0
 10
176.602529
 20
-46.731288
 30
0.0
  0
SPLINE
  5
3af
100
AcDbEntity
  8
Front
 62
1
100
AcDbSpline
 70
8
 71
3
 72
8
 73
4
 74
0
 40
0
 40
0
 40
0
 40
0
 40
1
 40
1
 40
1
 40
1
 10
176.602529
 20
-46.731288
 30
0.0
 10
176.602529
 20
-46.455147
 30
0.0
 10
176.826386
 20
-46.231290
 30
0.0
 10
177.102528
 20
-46.231290
 30
0.0
  0
SPLINE
  5
3b0
100
AcDbEntity
  8
Front
 62
1
100
AcDbSpline
 70
8
 71
3
 72
8
 73
4
 74
0
 40
0
 40
0
 40
0
 40
0
 40
1
 40
1
 40
1
 40
1
 10
177.102528
 20
-46.231290
 30
0.0
 10
177.378669
 20
-46.231290
 30
0.0
 10
177.602526
 20
-46.455147
 30
0.0
 10
177.602526
 20
-46.731288
 30
0.0
  0
LINE
  5
3b1
100
AcDbEntity
  8
Front
 62
1
100
AcDbLine
 10
177.602526
 20
-46.731288
 30
0.0
 11
177.602526
 21
-46.731288
 31
0.0
  0
SPLINE
  5
3b2
100
AcDbEntity
  8
Front
 62
1
100
AcDbSpline
 70
8
 71
3
 72
8
 73
4
 74
0
 40
0
 40
0
 40
0
 40
0
 40
1
 40
1
 40
1
 40
1
 10
175.062529
 20
-46.731288
 30
0.0
 10
175.062529
 20
-47.007430
 30
0.0
 10
174.838672
 20
-47.231287
 30
0.0
 10
174.562530
 20
-47.231287
 30
0.0
  0
SPLINE
  5
3b3
100
AcDbEntity
  8
Front
 62
1
100
AcDbSpline
 70
8
 71
3
 72
8
 73
4
 74
0
 40
0
 40
0
 40
0
 40
0
 40
1
 40
1
 40
1
 40
1
 10
174.562530
 20
-47.231287
 30
0.0
 10
174.286389
 20
-47.231287
 30
0.0
 10
174.062532
 20
-47.007430
 30
0.0
 10
174.062532
 20
-46.731288
 30
0.0
  0
SPLINE
  5
3b4
100
AcDbEntity
  8
Front
 62
1
100
AcDbSpline
 70
8
 71
3
 72
8
 73
4
 74
0
 40
0
 40
0
 40
0
 40
0
 40
1
 40
1
 40
1
 40
1
 10
174.062532
 20
-46.731288
 30
0.0
 10
174.062532
 20
-46.455147
 30
0.0
 10
174.286389
 20
-46.231290
 30
0.0
 10
174.562530
 20
-46.231290
 30
0.0
  0
SPLINE
  5
3b5
100
AcDbEntity
  8
Front
 62
1
100
AcDbSpline
 70
8
 71
3
 72
8
 73
4
 74
0
 40
0
 40
0
 40
0
 40
0
 40
1
 40
1
 40
1
 40
1
 10
174.562530
 20
-46.231290
 30
0.0
 10
174.838672
 20
-46.231290
 30
0.0
 10
175.062529
 20
-46.455147
 30
0.0
 10
175.062529
 20
-46.731288
 30
0.0
  0
LINE
  5
3b6
100
AcDbEntity
  8
Front
 62
1
100
AcDbLine
 10
175.062529
 20
-46.731288
 30
0.0
 11
175.062529
 21
-46.731288
 31
0.0
  0
SPLINE
  5
3b7
100
AcDbEntity
  8
Front
 62
1
100
AcDbSpline
 70
8
 71
3
 72
8
 73
4
 74
0
 40
0
 40
0
 40
0
 40
0
 40
1
 40
1
 40
1
 40
1
 10
177.602526
 20
-44.191291
 30
0.0
 10
177.602526
 20
-44.467432
 30
0.0
 10
177.378669
 20
-44.691289
 30
0.0
 10
177.102528
 20
-44.691289
 30
0.0
  0
SPLINE
  5
3b8
100
AcDbEntity
  8
Front
 62
1
100
AcDbSpline
 70
8
 71
3
 72
8
 73
4
 74
0
 40
0
 40
0
 40
0
 40
0
 40
1
 40
1
 40
1
 40
1
 10
177.102528
 20
-44.691289
 30
0.0
 10
176.826386
 20
-44.691289
 30
0.0
 10
176.602529
 20
-44.467432
 30
0.0
 10
176.602529
 20
-44.191291
 30
0.0
  0
SPLINE
  5
3b9
100
AcDbEntity
  8
Front
 62
1
100
AcDbSpline
 70
8
 71
3
 72
8
 73
4
 74
0
 40
0
 40
0
 40
0
 40
0
 40
1
 40
1
 40
1
 40
1
 10
176.602529
 20
-44.191291
 30
0.0
 10
176.602529
 20
-43.915149
 30
0.0
 10
176.826386
 20
-43.691292
 30
0.0
 10
177.102528
 20
-43.691292
 30
0.0
  0
SPLINE
  5
3ba
100
AcDbEntity
  8
Front
 62
1
100
AcDbSpline
 70
8
 71
3
 72
8
 73
4
 74
0
 40
0
 40
0
 40
0
 40
0
 40
1
 40
1
 40
1
 40
1
 10
177.102528
 20
-43.691292
 30
0.0
 10
177.378669
 20
-43.691292
 30
0.0
 10
177.602526
 20
-43.915149
 30
0.0
 10
177.602526
 20
-44.191291
 30
0.0
  0
LINE
  5
3bb
100
AcDbEntity
  8
Front
 62
1
100
AcDbLine
 10
177.602526
 20
-44.191291
 30
0.0
 11
177.602526
 21
-44.191291
 31
0.0
  0
SPLINE
  5
3bc
100
AcDbEntity
  8
Front
 62
1
100
AcDbSpline
 70
8
 71
3
 72
8
 73
4
 74
0
 40
0
 40
0
 40
0
 40
0
 40
1
 40
1
 40
1
 40
1
 10
175.062529
 20
-44.191291
 30
0.0
 10
175.062529
 20
-44.467432
 30
0.0
 10
174.838672
 20
-44.691289
 30
0.0
 10
174.562530
 20
-44.691289
 30
0.0
  0
SPLINE
  5
3bd
100
AcDbEntity
  8
Front
 62
1
100
AcDbSpline
 70
8
 71
3
 72
8
 73
4
 74
0
 40
0
 40
0
 40
0
 40
0
 40
1
 40
1
 40
1
 40
1
 10
174.562530
 20
-44.691289
 30
0.0
 10
174.286389
 20
-44.691289
 30
0.0
 10
174.062532
 20
-44.467432
 30
0.0
 10
174.062532
 20
-44.191291
 30
0.0
  0
SPLINE
  5
3be
100
AcDbEntity
  8
Front
 62
1
100
AcDbSpline
 70
8
 71
3
 72
8
 73
4
 74
0
 40
0
 40
0
 40
0
 40
0
 40
1
 40
1
 40
1
 40
1
 10
174.062532
 20
-44.191291
 30
0.0
 10
174.062532
 20
-43.915149
 30
0.0
 10
174.286389
 20
-43.691292
 30
0.0
 10
174.562530
 20
-43.691292
 30
0.0
  0
SPLINE
  5
3bf
100
AcDbEntity
  8
Front
 62
1
100
AcDbSpline
 70
8
 71
3
 72
8
 73
4
 74
0
 40
0
 40
0
 40
0
 40
0
 40
1
 40
1
 40
1
 40
1
 10
174.562530
 20
-43.691292
 30
0.0
 10
174.838672
 20
-43.691292
 30
0.0
 10
175.062529
 20
-43.915149
 30
0.0
 10
175.062529
 20
-44.191291
 30
0.0
  0
LINE
  5
3c0
100
AcDbEntity
  8
Front
 62
1
100
AcDbLine
 10
175.062529
 20
-44.191291
 30
0.0
 11
175.062529
 21
-44.191291
 31
0.0
  0
SPLINE
  5
3c1
100
AcDbEntity
  8
Front
 62
1
100
AcDbSpline
 70
8
 71
3
 72
8
 73
4
 74
0
 40
0
 40
0
 40
0
 40
0
 40
1
 40
1
 40
1
 40
1
 10
177.602526
 20
-41.651293
 30
0.0
 10
177.602526
 20
-41.927435
 30
0.0
 10
177.378669
 20
-42.151292
 30
0.0
 10
177.102528
 20
-42.151292
 30
0.0
  0
SPLINE
  5
3c2
100
AcDbEntity
  8
Front
 62
1
100
AcDbSpline
 70
8
 71
3
 72
8
 73
4
 74
0
 40
0
 40
0
 40
0
 40
0
 40
1
 40
1
 40
1
 40
1
 10
177.102528
 20
-42.151292
 30
0.0
 10
176.826386
 20
-42.151292
 30
0.0
 10
176.602529
 20
-41.927435
 30
0.0
 10
176.602529
 20
-41.651293
 30
0.0
  0
SPLINE
  5
3c3
100
AcDbEntity
  8
Front
 62
1
100
AcDbSpline
 70
8
 71
3
 72
8
 73
4
 74
0
 40
0
 40
0
 40
0
 40
0
 40
1
 40
1
 40
1
 40
1
 10
176.602529
 20
-41.651293
 30
0.0
 10
176.602529
 20
-41.375152
 30
0.0
 10
176.826386
 20
-41.151295
 30
0.0
 10
177.102528
 20
-41.151295
 30
0.0
  0
SPLINE
  5
3c4
100
AcDbEntity
  8
Front
 62
1
100
AcDbSpline
 70
8
 71
3
 72
8
 73
4
 74
0
 40
0
 40
0
 40
0
 40
0
 40
1
 40
1
 40
1
 40
1
 10
177.102528
 20
-41.151295
 30
0.0
 10
177.378669
 20
-41.151295
 30
0.0
 10
177.602526
 20
-41.375152
 30
0.0
 10
177.602526
 20
-41.651293
 30
0.0
  0
LINE
  5
3c5
100
AcDbEntity
  8
Front
 62
1
100
AcDbLine
 10
177.602526
 20
-41.651293
 30
0.0
 11
177.602526
 21
-41.651293
 31
0.0
  0
SPLINE
  5
3c6
100
AcDbEntity
  8
Front
 62
1
100
AcDbSpline
 70
8
 71
3
 72
8
 73
4
 74
0
 40
0
 40
0
 40
0
 40
0
 40
1
 40
1
 40
1
 40
1
 10
175.062529
 20
-41.651293
 30
0.0
 10
175.062529
 20
-41.927435
 30
0.0
 10
174.838672
 20
-42.151292
 30
0.0
 10
174.562530
 20
-42.151292
 30
0.0
  0
SPLINE
  5
3c7
100
AcDbEntity
  8
Front
 62
1
100
AcDbSpline
 70
8
 71
3
 72
8
 73
4
 74
0
 40
0
 40
0
 40
0
 40
0
 40
1
 40
1
 40
1
 40
1
 10
174.562530
 20
-42.151292
 30
0.0
 10
174.286389
 20
-42.151292
 30
0.0
 10
174.062532
 20
-41.927435
 30
0.0
 10
174.062532
 20
-41.651293
 30
0.0
  0
SPLINE
  5
3c8
100
AcDbEntity
  8
Front
 62
1
100
AcDbSpline
 70
8
 71
3
 72
8
 73
4
 74
0
 40
0
 40
0
 40
0
 40
0
 40
1
 40
1
 40
1
 40
1
 10
174.062532
 20
-41.651293
 30
0.0
 10
174.062532
 20
-41.375152
 30
0.0
 10
174.286389
 20
-41.151295
 30
0.0
 10
174.562530
 20
-41.151295
 30
0.0
  0
SPLINE
  5
3c9
100
AcDbEntity
  8
Front
 62
1
100
AcDbSpline
 70
8
 71
3
 72
8
 73
4
 74
0
 40
0
 40
0
 40
0
 40
0
 40
1
 40
1
 40
1
 40
1
 10
174.562530
 20
-41.151295
 30
0.0
 10
174.838672
 20
-41.151295
 30
0.0
 10
175.062529
 20
-41.375152
 30
0.0
 10
175.062529
 20
-41.651293
 30
0.0
  0
LINE
  5
3ca
100
AcDbEntity
  8
Front
 62
1
100
AcDbLine
 10
175.062529
 20
-41.651293
 30
0.0
 11
175.062529
 21
-41.651293
 31
0.0
  0
SPLINE
  5
3cb
100
AcDbEntity
  8
Front
 62
1
100
AcDbSpline
 70
8
 71
3
 72
8
 73
4
 74
0
 40
0
 40
0
 40
0
 40
0
 40
1
 40
1
 40
1
 40
1
 10
177.602526
 20
-39.111296
 30
0.0
 10
177.602526
 20
-39.387437
 30
0.0
 10
177.378669
 20
-39.611294
 30
0.0
 10
177.102528
 20
-39.611294
 30
0.0
  0
SPLINE
  5
3cc
100
AcDbEntity
  8
Front
 62
1
100
AcDbSpline
 70
8
 71
3
 72
8
 73
4
 74
0
 40
0
 40
0
 40
0
 40
0
 40
1
 40
1
 40
1
 40
1
 10
177.102528
 20
-39.611294
 30
0.0
 10
176.826386
 20
-39.611294
 30
0.0
 10
176.602529
 20
-39.387437
 30
0.0
 10
176.602529
 20
-39.111296
 30
0.0
  0
SPLINE
  5
3cd
100
AcDbEntity
  8
Front
 62
1
100
AcDbSpline
 70
8
 71
3
 72
8
 73
4
 74
0
 40
0
 40
0
 40
0
 40
0
 40
1
 40
1
 40
1
 40
1
 10
176.602529
 20
-39.111296
 30
0.0
 10
176.602529
 20
-38.835154
 30
0.0
 10
176.826386
 20
-38.611297
 30
0.0
 10
177.102528
 20
-38.611297
 30
0.0
  0
SPLINE
  5
3ce
100
AcDbEntity
  8
Front
 62
1
100
AcDbSpline
 70
8
 71
3
 72
8
 73
4
 74
0
 40
0
 40
0
 40
0
 40
0
 40
1
 40
1
 40
1
 40
1
 10
177.102528
 20
-38.611297
 30
0.0
 10
177.378669
 20
-38.611297
 30
0.0
 10
177.602526
 20
-38.835154
 30
0.0
 10
177.602526
 20
-39.111296
 30
0.0
  0
LINE
  5
3cf
100
AcDbEntity
  8
Front
 62
1
100
AcDbLine
 10
177.602526
 20
-39.111296
 30
0.0
 11
177.602526
 21
-39.111296
 31
0.0
  0
SPLINE
  5
3d0
100
AcDbEntity
  8
Front
 62
1
100
AcDbSpline
 70
8
 71
3
 72
8
 73
4
 74
0
 40
0
 40
0
 40
0
 40
0
 40
1
 40
1
 40
1
 40
1
 10
175.062529
 20
-39.111296
 30
0.0
 10
175.062529
 20
-39.387437
 30
0.0
 10
174.838672
 20
-39.611294
 30
0.0
 10
174.562530
 20
-39.611294
 30
0.0
  0
SPLINE
  5
3d1
100
AcDbEntity
  8
Front
 62
1
100
AcDbSpline
 70
8
 71
3
 72
8
 73
4
 74
0
 40
0
 40
0
 40
0
 40
0
 40
1
 40
1
 40
1
 40
1
 10
174.562530
 20
-39.611294
 30
0.0
 10
174.286389
 20
-39.611294
 30
0.0
 10
174.062532
 20
-39.387437
 30
0.0
 10
174.062532
 20
-39.111296
 30
0.0
  0
SPLINE
  5
3d2
100
AcDbEntity
  8
Front
 62
1
100
AcDbSpline
 70
8
 71
3
 72
8
 73
4
 74
0
 40
0
 40
0
 40
0
 40
0
 40
1
 40
1
 40
1
 40
1
 10
174.062532
 20
-39.111296
 30
0.0
 10
174.062532
 20
-38.835154
 30
0.0
 10
174.286389
 20
-38.611297
 30
0.0
 10
174.562530
 20
-38.611297
 30
0.0
  0
SPLINE
  5
3d3
100
AcDbEntity
  8
Front
 62
1
100
AcDbSpline
 70
8
 71
3
 72
8
 73
4
 74
0
 40
0
 40
0
 40
0
 40
0
 40
1
 40
1
 40
1
 40
1
 10
174.562530
 20
-38.611297
 30
0.0
 10
174.838672
 20
-38.611297
 30
0.0
 10
175.062529
 20
-38.835154
 30
0.0
 10
175.062529
 20
-39.111296
 30
0.0
  0
LINE
  5
3d4
100
AcDbEntity
  8
Front
 62
1
100
AcDbLine
 10
175.062529
 20
-39.111296
 30
0.0
 11
175.062529
 21
-39.111296
 31
0.0
  0
SPLINE
  5
3d5
100
AcDbEntity
  8
Front
 62
1
100
AcDbSpline
 70
8
 71
3
 72
8
 73
4
 74
0
 40
0
 40
0
 40
0
 40
0
 40
1
 40
1
 40
1
 40
1
 10
177.602526
 20
-36.571299
 30
0.0
 10
177.602526
 20
-36.847440
 30
0.0
 10
177.378669
 20
-37.071297
 30
0.0
 10
177.102528
 20
-37.071297
 30
0.0
  0
SPLINE
  5
3d6
100
AcDbEntity
  8
Front
 62
1
100
AcDbSpline
 70
8
 71
3
 72
8
 73
4
 74
0
 40
0
 40
0
 40
0
 40
0
 40
1
 40
1
 40
1
 40
1
 10
177.102528
 20
-37.071297
 30
0.0
 10
176.826386
 20
-37.071297
 30
0.0
 10
176.602529
 20
-36.847440
 30
0.0
 10
176.602529
 20
-36.571299
 30
0.0
  0
SPLINE
  5
3d7
100
AcDbEntity
  8
Front
 62
1
100
AcDbSpline
 70
8
 71
3
 72
8
 73
4
 74
0
 40
0
 40
0
 40
0
 40
0
 40
1
 40
1
 40
1
 40
1
 10
176.602529
 20
-36.571299
 30
0.0
 10
176.602529
 20
-36.295157
 30
0.0
 10
176.826386
 20
-36.071300
 30
0.0
 10
177.102528
 20
-36.071300
 30
0.0
  0
SPLINE
  5
3d8
100
AcDbEntity
  8
Front
 62
1
100
AcDbSpline
 70
8
 71
3
 72
8
 73
4
 74
0
 40
0
 40
0
 40
0
 40
0
 40
1
 40
1
 40
1
 40
1
 10
177.102528
 20
-36.071300
 30
0.0
 10
177.378669
 20
-36.071300
 30
0.0
 10
177.602526
 20
-36.295157
 30
0.0
 10
177.602526
 20
-36.571299
 30
0.0
  0
LINE
  5
3d9
100
AcDbEntity
  8
Front
 62
1
100
AcDbLine
 10
177.602526
 20
-36.571299
 30
0.0
 11
177.602526
 21
-36.571299
 31
0.0
  0
SPLINE
  5
3da
100
AcDbEntity
  8
Front
 62
1
100
AcDbSpline
 70
8
 71
3
 72
8
 73
4
 74
0
 40
0
 40
0
 40
0
 40
0
 40
1
 40
1
 40
1
 40
1
 10
175.062529
 20
-36.571299
 30
0.0
 10
175.062529
 20
-36.847440
 30
0.0
 10
174.838672
 20
-37.071297
 30
0.0
 10
174.562530
 20
-37.071297
 30
0.0
  0
SPLINE
  5
3db
100
AcDbEntity
  8
Front
 62
1
100
AcDbSpline
 70
8
 71
3
 72
8
 73
4
 74
0
 40
0
 40
0
 40
0
 40
0
 40
1
 40
1
 40
1
 40
1
 10
174.562530
 20
-37.071297
 30
0.0
 10
174.286389
 20
-37.071297
 30
0.0
 10
174.062532
 20
-36.847440
 30
0.0
 10
174.062532
 20
-36.571299
 30
0.0
  0
SPLINE
  5
3dc
100
AcDbEntity
  8
Front
 62
1
100
AcDbSpline
 70
8
 71
3
 72
8
 73
4
 74
0
 40
0
 40
0
 40
0
 40
0
 40
1
 40
1
 40
1
 40
1
 10
174.062532
 20
-36.571299
 30
0.0
 10
174.062532
 20
-36.295157
 30
0.0
 10
174.286389
 20
-36.071300
 30
0.0
 10
174.562530
 20
-36.071300
 30
0.0
  0
SPLINE
  5
3dd
100
AcDbEntity
  8
Front
 62
1
100
AcDbSpline
 70
8
 71
3
 72
8
 73
4
 74
0
 40
0
 40
0
 40
0
 40
0
 40
1
 40
1
 40
1
 40
1
 10
174.562530
 20
-36.071300
 30
0.0
 10
174.838672
 20
-36.071300
 30
0.0
 10
175.062529
 20
-36.295157
 30
0.0
 10
175.062529
 20
-36.571299
 30
0.0
  0
LINE
  5
3de
100
AcDbEntity
  8
Front
 62
1
100
AcDbLine
 10
175.062529
 20
-36.571299
 30
0.0
 11
175.062529
 21
-36.571299
 31
0.0
  0
SPLINE
  5
3df
100
AcDbEntity
  8
Front
 62
1
100
AcDbSpline
 70
8
 71
3
 72
8
 73
4
 74
0
 40
0
 40
0
 40
0
 40
0
 40
1
 40
1
 40
1
 40
1
 10
177.602526
 20
-34.031301
 30
0.0
 10
177.602526
 20
-34.307443
 30
0.0
 10
177.378669
 20
-34.531300
 30
0.0
 10
177.102528
 20
-34.531300
 30
0.0
  0
SPLINE
  5
3e0
100
AcDbEntity
  8
Front
 62
1
100
AcDbSpline
 70
8
 71
3
 72
8
 73
4
 74
0
 40
0
 40
0
 40
0
 40
0
 40
1
 40
1
 40
1
 40
1
 10
177.102528
 20
-34.531300
 30
0.0
 10
176.826386
 20
-34.531300
 30
0.0
 10
176.602529
 20
-34.307443
 30
0.0
 10
176.602529
 20
-34.031301
 30
0.0
  0
SPLINE
  5
3e1
100
AcDbEntity
  8
Front
 62
1
100
AcDbSpline
 70
8
 71
3
 72
8
 73
4
 74
0
 40
0
 40
0
 40
0
 40
0
 40
1
 40
1
 40
1
 40
1
 10
176.602529
 20
-34.031301
 30
0.0
 10
176.602529
 20
-33.755160
 30
0.0
 10
176.826386
 20
-33.531303
 30
0.0
 10
177.102528
 20
-33.531303
 30
0.0
  0
SPLINE
  5
3e2
100
AcDbEntity
  8
Front
 62
1
100
AcDbSpline
 70
8
 71
3
 72
8
 73
4
 74
0
 40
0
 40
0
 40
0
 40
0
 40
1
 40
1
 40
1
 40
1
 10
177.102528
 20
-33.531303
 30
0.0
 10
177.378669
 20
-33.531303
 30
0.0
 10
177.602526
 20
-33.755160
 30
0.0
 10
177.602526
 20
-34.031301
 30
0.0
  0
LINE
  5
3e3
100
AcDbEntity
  8
Front
 62
1
100
AcDbLine
 10
177.602526
 20
-34.031301
 30
0.0
 11
177.602526
 21
-34.031301
 31
0.0
  0
SPLINE
  5
3e4
100
AcDbEntity
  8
Front
 62
1
100
AcDbSpline
 70
8
 71
3
 72
8
 73
4
 74
0
 40
0
 40
0
 40
0
 40
0
 40
1
 40
1
 40
1
 40
1
 10
175.062529
 20
-34.031301
 30
0.0
 10
175.062529
 20
-34.307443
 30
0.0
 10
174.838672
 20
-34.531300
 30
0.0
 10
174.562530
 20
-34.531300
 30
0.0
  0
SPLINE
  5
3e5
100
AcDbEntity
  8
Front
 62
1
100
AcDbSpline
 70
8
 71
3
 72
8
 73
4
 74
0
 40
0
 40
0
 40
0
 40
0
 40
1
 40
1
 40
1
 40
1
 10
174.562530
 20
-34.531300
 30
0.0
 10
174.286389
 20
-34.531300
 30
0.0
 10
174.062532
 20
-34.307443
 30
0.0
 10
174.062532
 20
-34.031301
 30
0.0
  0
SPLINE
  5
3e6
100
AcDbEntity
  8
Front
 62
1
100
AcDbSpline
 70
8
 71
3
 72
8
 73
4
 74
0
 40
0
 40
0
 40
0
 40
0
 40
1
 40
1
 40
1
 40
1
 10
174.062532
 20
-34.031301
 30
0.0
 10
174.062532
 20
-33.755160
 30
0.0
 10
174.286389
 20
-33.531303
 30
0.0
 10
174.562530
 20
-33.531303
 30
0.0
  0
SPLINE
  5
3e7
100
AcDbEntity
  8
Front
 62
1
100
AcDbSpline
 70
8
 71
3
 72
8
 73
4
 74
0
 40
0
 40
0
 40
0
 40
0
 40
1
 40
1
 40
1
 40
1
 10
174.562530
 20
-33.531303
 30
0.0
 10
174.838672
 20
-33.531303
 30
0.0
 10
175.062529
 20
-33.755160
 30
0.0
 10
175.062529
 20
-34.031301
 30
0.0
  0
LINE
  5
3e8
100
AcDbEntity
  8
Front
 62
1
100
AcDbLine
 10
175.062529
 20
-34.031301
 30
0.0
 11
175.062529
 21
-34.031301
 31
0.0
  0
SPLINE
  5
3e9
100
AcDbEntity
  8
Front
 62
1
100
AcDbSpline
 70
8
 71
3
 72
8
 73
4
 74
0
 40
0
 40
0
 40
0
 40
0
 40
1
 40
1
 40
1
 40
1
 10
177.602526
 20
-31.491303
 30
0.0
 10
177.602526
 20
-31.767445
 30
0.0
 10
177.378669
 20
-31.991302
 30
0.0
 10
177.102528
 20
-31.991302
 30
0.0
  0
SPLINE
  5
3ea
100
AcDbEntity
  8
Front
 62
1
100
AcDbSpline
 70
8
 71
3
 72
8
 73
4
 74
0
 40
0
 40
0
 40
0
 40
0
 40
1
 40
1
 40
1
 40
1
 10
177.102528
 20
-31.991302
 30
0.0
 10
176.826386
 20
-31.991302
 30
0.0
 10
176.602529
 20
-31.767445
 30
0.0
 10
176.602529
 20
-31.491303
 30
0.0
  0
SPLINE
  5
3eb
100
AcDbEntity
  8
Front
 62
1
100
AcDbSpline
 70
8
 71
3
 72
8
 73
4
 74
0
 40
0
 40
0
 40
0
 40
0
 40
1
 40
1
 40
1
 40
1
 10
176.602529
 20
-31.491303
 30
0.0
 10
176.602529
 20
-31.215162
 30
0.0
 10
176.826386
 20
-30.991305
 30
0.0
 10
177.102528
 20
-30.991305
 30
0.0
  0
SPLINE
  5
3ec
100
AcDbEntity
  8
Front
 62
1
100
AcDbSpline
 70
8
 71
3
 72
8
 73
4
 74
0
 40
0
 40
0
 40
0
 40
0
 40
1
 40
1
 40
1
 40
1
 10
177.102528
 20
-30.991305
 30
0.0
 10
177.378669
 20
-30.991305
 30
0.0
 10
177.602526
 20
-31.215162
 30
0.0
 10
177.602526
 20
-31.491303
 30
0.0
  0
LINE
  5
3ed
100
AcDbEntity
  8
Front
 62
1
100
AcDbLine
 10
177.602526
 20
-31.491303
 30
0.0
 11
177.602526
 21
-31.491303
 31
0.0
  0
SPLINE
  5
3ee
100
AcDbEntity
  8
Front
 62
1
100
AcDbSpline
 70
8
 71
3
 72
8
 73
4
 74
0
 40
0
 40
0
 40
0
 40
0
 40
1
 40
1
 40
1
 40
1
 10
175.062529
 20
-31.491303
 30
0.0
 10
175.062529
 20
-31.767445
 30
0.0
 10
174.838672
 20
-31.991302
 30
0.0
 10
174.562530
 20
-31.991302
 30
0.0
  0
SPLINE
  5
3ef
100
AcDbEntity
  8
Front
 62
1
100
AcDbSpline
 70
8
 71
3
 72
8
 73
4
 74
0
 40
0
 40
0
 40
0
 40
0
 40
1
 40
1
 40
1
 40
1
 10
174.562530
 20
-31.991302
 30
0.0
 10
174.286389
 20
-31.991302
 30
0.0
 10
174.062532
 20
-31.767445
 30
0.0
 10
174.062532
 20
-31.491303
 30
0.0
  0
SPLINE
  5
3f0
100
AcDbEntity
  8
Front
 62
1
100
AcDbSpline
 70
8
 71
3
 72
8
 73
4
 74
0
 40
0
 40
0
 40
0
 40
0
 40
1
 40
1
 40
1
 40
1
 10
174.062532
 20
-31.491303
 30
0.0
 10
174.062532
 20
-31.215162
 30
0.0
 10
174.286389
 20
-30.991305
 30
0.0
 10
174.562530
 20
-30.991305
 30
0.0
  0
SPLINE
  5
3f1
100
AcDbEntity
  8
Front
 62
1
100
AcDbSpline
 70
8
 71
3
 72
8
 73
4
 74
0
 40
0
 40
0
 40
0
 40
0
 40
1
 40
1
 40
1
 40
1
 10
174.562530
 20
-30.991305
 30
0.0
 10
174.838672
 20
-30.991305
 30
0.0
 10
175.062529
 20
-31.215162
 30
0.0
 10
175.062529
 20
-31.491303
 30
0.0
  0
LINE
  5
3f2
100
AcDbEntity
  8
Front
 62
1
100
AcDbLine
 10
175.062529
 20
-31.491303
 30
0.0
 11
175.062529
 21
-31.491303
 31
0.0
  0
ENDSEC
  0
SECTION
  2
OBJECTS
  0
DICTIONARY
  5
C
330
0
100
AcDbDictionary
  3
ACAD_GROUP
350
D
  3
ACAD_MLINESTYLE
350
17
  0
DICTIONARY
  5
D
330
C
100
AcDbDictionary
  0
DICTIONARY
  5
1A
330
C
100
AcDbDictionary
  0
DICTIONARY
  5
17
330
C
100
AcDbDictionary
  3
STANDARD
350
18
  0
DICTIONARY
  5
19
330
C
100
AcDbDictionary
  0
ENDSEC
  0
EOF
