<?xml version="1.0" encoding="UTF-8" standalone="no"?>
<svg
   xmlns:dc="http://purl.org/dc/elements/1.1/"
   xmlns:cc="http://creativecommons.org/ns#"
   xmlns:rdf="http://www.w3.org/1999/02/22-rdf-syntax-ns#"
   xmlns:svg="http://www.w3.org/2000/svg"
   xmlns="http://www.w3.org/2000/svg"
   xmlns:sodipodi="http://sodipodi.sourceforge.net/DTD/sodipodi-0.dtd"
   xmlns:inkscape="http://www.inkscape.org/namespaces/inkscape"
   version="1.1"
   width="29.7002cm"
   height="21.0007cm"
   viewBox="0 0 116930 82680 "
   id="svg1620"
   sodipodi:docname="programmer-F_Cu.svg"
   inkscape:version="0.92.4 5da689c313, 2019-01-14">
  <metadata
     id="metadata1626">
    <rdf:RDF>
      <cc:Work
         rdf:about="">
        <dc:format>image/svg+xml</dc:format>
        <dc:type
           rdf:resource="http://purl.org/dc/dcmitype/StillImage" />
        <dc:title>SVG Picture created as programmer-F_Cu.svg date 2019/07/09 20:16:47 </dc:title>
      </cc:Work>
    </rdf:RDF>
  </metadata>
  <defs
     id="defs1624" />
  <sodipodi:namedview
     pagecolor="#ffffff"
     bordercolor="#666666"
     borderopacity="1"
     objecttolerance="10"
     gridtolerance="10"
     guidetolerance="10"
     inkscape:pageopacity="0"
     inkscape:pageshadow="2"
     inkscape:window-width="1884"
     inkscape:window-height="1048"
     id="namedview1622"
     showgrid="false"
     inkscape:zoom="18.06162"
     inkscape:cx="678.85391"
     inkscape:cy="639.99228"
     inkscape:window-x="36"
     inkscape:window-y="0"
     inkscape:window-maximized="1"
     inkscape:current-layer="g2825" />
  <title
     id="title1266">SVG Picture created as programmer-F_Cu.svg date 2019/07/09 20:16:47 </title>
  <desc
     id="desc1268">Picture generated by PCBNEW </desc>
  <g
     style="fill:#000000; fill-opacity:1;stroke:#000000; stroke-opacity:1; stroke-linecap:round; stroke-linejoin:round; "
     transform="translate(0 0) scale(1 1)"
     id="g1270" />
  <g
     style="fill:#000000; fill-opacity:0.0;  stroke:#000000; stroke-width:-0.000393701; stroke-opacity:1;  stroke-linecap:round; stroke-linejoin:round;"
     id="g1272" />
  <g
     style="fill:#FFFFFF; fill-opacity:0.0;  stroke:#FFFFFF; stroke-width:196.85; stroke-opacity:1;  stroke-linecap:round; stroke-linejoin:round;"
     id="g1496" />
  <g
     style="fill:#FFFFFF; fill-opacity:1.0;  stroke:#FFFFFF; stroke-width:39.3701; stroke-opacity:1;  stroke-linecap:round; stroke-linejoin:round;"
     id="g1502" />
  <g
     style="fill:#FFFFFF; fill-opacity:1.0;  stroke:#FFFFFF; stroke-width:39.3701; stroke-opacity:1;  stroke-linecap:round; stroke-linejoin:round;"
     id="g1508" />
  <g
     style="fill:#FFFFFF; fill-opacity:1.0;  stroke:#FFFFFF; stroke-width:39.3701; stroke-opacity:1;  stroke-linecap:round; stroke-linejoin:round;"
     id="g1514" />
  <g
     style="fill:#FFFFFF; fill-opacity:1.0;  stroke:#FFFFFF; stroke-width:39.3701; stroke-opacity:1;  stroke-linecap:round; stroke-linejoin:round;"
     id="g1520" />
  <g
     style="fill:#FFFFFF; fill-opacity:1.0;  stroke:#FFFFFF; stroke-width:39.3701; stroke-opacity:1;  stroke-linecap:round; stroke-linejoin:round;"
     id="g1526" />
  <g
     style="fill:#FFFFFF; fill-opacity:1.0;  stroke:#FFFFFF; stroke-width:39.3701; stroke-opacity:1;  stroke-linecap:round; stroke-linejoin:round;"
     id="g1532" />
  <g
     style="fill:#FFFFFF; fill-opacity:1.0;  stroke:#FFFFFF; stroke-width:39.3701; stroke-opacity:1;  stroke-linecap:round; stroke-linejoin:round;"
     id="g1538" />
  <g
     style="fill:#FFFFFF; fill-opacity:1.0;  stroke:#FFFFFF; stroke-width:39.3701; stroke-opacity:1;  stroke-linecap:round; stroke-linejoin:round;"
     id="g1544" />
  <g
     style="fill:#FFFFFF; fill-opacity:1.0;  stroke:#FFFFFF; stroke-width:39.3701; stroke-opacity:1;  stroke-linecap:round; stroke-linejoin:round;"
     id="g1550" />
  <g
     style="fill:#FFFFFF; fill-opacity:1.0;  stroke:#FFFFFF; stroke-width:39.3701; stroke-opacity:1;  stroke-linecap:round; stroke-linejoin:round;"
     id="g1556" />
  <g
     style="fill:#FFFFFF; fill-opacity:1.0;  stroke:#FFFFFF; stroke-width:39.3701; stroke-opacity:1;  stroke-linecap:round; stroke-linejoin:round;"
     id="g1562" />
  <g
     style="fill:#FFFFFF; fill-opacity:1.0;  stroke:#FFFFFF; stroke-width:39.3701; stroke-opacity:1;  stroke-linecap:round; stroke-linejoin:round;"
     id="g1568" />
  <g
     style="fill:#FFFFFF; fill-opacity:1.0;  stroke:#FFFFFF; stroke-width:39.3701; stroke-opacity:1;  stroke-linecap:round; stroke-linejoin:round;"
     id="g1574" />
  <g
     style="fill:#FFFFFF; fill-opacity:1.0;  stroke:#FFFFFF; stroke-width:39.3701; stroke-opacity:1;  stroke-linecap:round; stroke-linejoin:round;"
     id="g1580" />
  <g
     style="fill:#FFFFFF; fill-opacity:1.0;  stroke:#FFFFFF; stroke-width:39.3701; stroke-opacity:1;  stroke-linecap:round; stroke-linejoin:round;"
     id="g1586" />
  <g
     style="fill:#FFFFFF; fill-opacity:1.0;  stroke:#FFFFFF; stroke-width:39.3701; stroke-opacity:1;  stroke-linecap:round; stroke-linejoin:round;"
     id="g1592" />
  <g
     style="fill:#FFFFFF; fill-opacity:1.0;  stroke:#FFFFFF; stroke-width:39.3701; stroke-opacity:1;  stroke-linecap:round; stroke-linejoin:round;"
     id="g1598" />
  <g
     style="fill:#FFFFFF; fill-opacity:1.0;  stroke:#FFFFFF; stroke-width:39.3701; stroke-opacity:1;  stroke-linecap:round; stroke-linejoin:round;"
     id="g1604" />
  <g
     style="fill:#FFFFFF; fill-opacity:1.0;  stroke:#FFFFFF; stroke-width:39.3701; stroke-opacity:1;  stroke-linecap:round; stroke-linejoin:round;"
     id="g1610" />
  <g
     style="fill:#FFFFFF; fill-opacity:1.0;  stroke:#FFFFFF; stroke-width:39.3701; stroke-opacity:1;  stroke-linecap:round; stroke-linejoin:round;"
     id="g1616" />
  <g
     style="fill:#000000; fill-opacity:1.0;  stroke:#000000; stroke-width:39.3701; stroke-opacity:1;  stroke-linecap:round; stroke-linejoin:round;"
     id="g1618" />
  <g
     inkscape:groupmode="layer"
     id="layer1"
     inkscape:label="Front"
     style="display:inline">
    <g
       id="g2825"
       transform="translate(65624.511,11682.05)">
      <path
         style="fill:#bdbdbd;fill-opacity:1;fill-rule:evenodd;stroke:#000000;stroke-width:0.75590545;stroke-linecap:round;stroke-linejoin:round;stroke-miterlimit:4;stroke-dasharray:none;stroke-opacity:1"
         d="M 651.75 113.20898 A 0.94509453 0.94509453 0 0 0 651.44336 113.27148 A 0.94509453 0.94509453 0 0 0 651.00781 113.58594 L 646.7207 117.86523 A 0.94509453 0.94509453 0 0 0 646.41602 118.25391 A 0.94509453 0.94509453 0 0 0 646.33984 118.78125 L 646.33984 152.42578 A 0.94509453 0.94509453 0 0 0 646.39648 152.89648 A 0.94509453 0.94509453 0 0 0 646.70898 153.32617 L 656.61914 163.23633 C 656.30878 163.76699 656.11719 164.37519 656.11719 165.0332 C 656.11719 167.03004 657.75792 168.65066 659.75391 168.625 C 661.7499 168.65066 663.39258 167.03004 663.39258 165.0332 C 663.39258 163.03636 661.7499 161.4177 659.75391 161.44336 C 659.10395 161.435 658.50097 161.61539 657.9707 161.91211 L 648.22852 152.16992 L 648.22852 119.0293 L 652.1582 115.10938 L 685.10156 115.10938 L 706.94336 136.95117 L 706.94336 164.07617 L 706.92969 164.08984 L 705.43164 164.08984 L 705.43164 163.64258 L 696.35938 163.64258 L 696.35938 166.43555 L 705.43164 166.43555 L 705.43164 165.97852 L 707.18359 165.97852 A 0.94509453 0.94509453 0 0 0 707.65625 165.92188 A 0.94509453 0.94509453 0 0 0 708.0918 165.60156 L 708.4668 165.22656 A 0.94509453 0.94509453 0 0 0 708.76953 164.82617 A 0.94509453 0.94509453 0 0 0 708.77539 164.81055 A 0.94509453 0.94509453 0 0 0 708.7793 164.80078 A 0.94509453 0.94509453 0 0 0 708.83398 164.32812 L 708.83398 136.69922 A 0.94509453 0.94509453 0 0 0 708.77344 136.21289 A 0.94509453 0.94509453 0 0 0 708.45898 135.79492 L 686.25586 113.5918 A 0.94509453 0.94509453 0 0 0 685.84961 113.2832 A 0.94509453 0.94509453 0 0 0 685.83594 113.27734 A 0.94509453 0.94509453 0 0 0 685.81836 113.27148 A 0.94509453 0.94509453 0 0 0 685.48242 113.20898 A 0.94509453 0.94509453 0 0 0 685.35352 113.21875 L 651.90625 113.21875 A 0.94509453 0.94509453 0 0 0 651.75 113.20898 z M 653.14844 116.60742 A 0.94509453 0.94509453 0 0 0 652.81836 116.67969 A 0.94509453 0.94509453 0 0 0 652.79102 116.68945 A 0.94509453 0.94509453 0 0 0 652.77344 116.69922 A 0.94509453 0.94509453 0 0 0 652.40625 116.98828 L 650.11719 119.28711 A 0.94509453 0.94509453 0 0 0 649.82812 119.65625 A 0.94509453 0.94509453 0 0 0 649.74805 120.18945 L 649.74805 146.22266 A 0.94509453 0.94509453 0 0 0 649.80469 146.69531 A 0.94509453 0.94509453 0 0 0 650.12305 147.12891 L 656.62109 153.63477 C 656.3099 154.16594 656.11719 154.77464 656.11719 155.43359 C 656.11719 157.43043 657.75792 159.0491 659.75391 159.02344 C 661.7499 159.0491 663.39258 157.43043 663.39258 155.43359 C 663.39258 153.43675 661.7499 151.81809 659.75391 151.84375 C 659.1049 151.83541 658.50239 152.01464 657.97266 152.31055 L 651.63672 145.96875 L 651.63672 120.4375 L 653.56055 118.50781 L 683.68945 118.50781 L 699.95508 134.77148 L 699.95508 156.95117 L 699.95508 158.8418 L 696.35938 158.8418 L 696.35938 161.63477 L 705.43164 161.63477 L 705.43164 158.8418 L 701.8457 158.8418 L 701.8457 156.95117 L 701.8457 134.51953 A 0.94509453 0.94509453 0 0 0 701.77539 134.01172 A 0.94509453 0.94509453 0 0 0 701.76953 133.99805 A 0.94509453 0.94509453 0 0 0 701.76562 133.99219 A 0.94509453 0.94509453 0 0 0 701.47461 133.61914 L 684.84766 116.99219 A 0.94509453 0.94509453 0 0 0 684.42969 116.67773 A 0.94509453 0.94509453 0 0 0 684.42383 116.67578 A 0.94509453 0.94509453 0 0 0 684.41406 116.67188 A 0.94509453 0.94509453 0 0 0 684.07031 116.60742 A 0.94509453 0.94509453 0 0 0 683.94141 116.61719 L 653.30664 116.61719 A 0.94509453 0.94509453 0 0 0 653.14844 116.60742 z M 654.5625 120.01562 A 0.94509453 0.94509453 0 0 0 654.24023 120.08398 A 0.94509453 0.94509453 0 0 0 653.8125 120.40234 L 653.51953 120.69531 A 0.94509453 0.94509453 0 0 0 653.2168 121.08789 A 0.94509453 0.94509453 0 0 0 653.21094 121.10156 A 0.94509453 0.94509453 0 0 0 653.20508 121.11719 A 0.94509453 0.94509453 0 0 0 653.14648 121.60352 L 653.14648 140.03125 A 0.94509453 0.94509453 0 0 0 653.20508 140.50977 A 0.94509453 0.94509453 0 0 0 653.51953 140.93555 L 656.62109 144.03711 C 656.31044 144.56795 656.11719 145.17564 656.11719 145.83398 C 656.11719 147.83082 657.75792 149.44949 659.75391 149.42383 C 661.7499 149.44949 663.39258 147.83082 663.39258 145.83398 C 663.39258 143.83714 661.7499 142.21848 659.75391 142.24414 C 659.10395 142.23578 658.50097 142.41617 657.9707 142.71289 L 655.03516 139.77734 L 655.03516 121.91406 L 682.27734 121.91406 L 692.9668 132.59375 L 692.9668 173.92969 A 0.94509453 0.94509453 0 0 0 693.01953 174.39258 A 0.94509453 0.94509453 0 0 0 693.33789 174.83008 L 693.71289 175.20508 A 0.94509453 0.94509453 0 0 0 694.10352 175.50586 A 0.94509453 0.94509453 0 0 0 694.13477 175.51953 A 0.94509453 0.94509453 0 0 0 694.13672 175.51953 A 0.94509453 0.94509453 0 0 0 694.62305 175.57812 L 696.35938 175.57812 L 696.35938 176.03516 L 705.43164 176.03516 L 705.43164 173.24219 L 696.35938 173.24219 L 696.35938 173.68945 L 694.87109 173.68945 L 694.85742 173.67578 L 694.85742 132.33398 A 0.94509453 0.94509453 0 0 0 694.81836 131.92188 A 0.94509453 0.94509453 0 0 0 694.79492 131.85547 A 0.94509453 0.94509453 0 0 0 694.78711 131.83203 A 0.94509453 0.94509453 0 0 0 694.78125 131.81836 A 0.94509453 0.94509453 0 0 0 694.77734 131.81055 A 0.94509453 0.94509453 0 0 0 694.48633 131.43945 L 683.43359 120.39648 A 0.94509453 0.94509453 0 0 0 683.04102 120.0957 A 0.94509453 0.94509453 0 0 0 683.01172 120.08398 A 0.94509453 0.94509453 0 0 0 682.66016 120.01562 A 0.94509453 0.94509453 0 0 0 682.5293 120.02539 L 654.71875 120.02539 A 0.94509453 0.94509453 0 0 0 654.5625 120.01562 z M 669.35547 123.04297 C 667.68861 123.02154 666.28407 124.15465 665.86133 125.68945 L 663.34961 125.68945 L 663.34961 123.42773 C 663.34961 123.21901 663.17942 123.04885 662.9707 123.04883 L 656.54883 123.04883 C 656.34011 123.04883 656.16995 123.21901 656.16992 123.42773 L 656.16992 129.84961 C 656.16992 130.05833 656.34011 130.22849 656.54883 130.22852 L 662.9707 130.22852 C 663.17942 130.22852 663.34958 130.05833 663.34961 129.84961 L 663.34961 127.57812 L 665.86133 127.57812 C 666.28365 129.11356 667.68816 130.24605 669.35547 130.22461 C 671.02278 130.24605 672.42729 129.11356 672.84961 127.57812 L 679.57227 127.57812 L 679.57812 127.62305 L 679.59766 127.69922 L 679.62695 127.77734 L 679.66602 127.85352 L 679.70312 127.91992 L 679.75195 127.98828 L 679.80859 128.04492 L 679.86719 128.10352 L 679.93359 128.15039 L 680.00195 128.18945 L 680.07812 128.22852 L 680.1543 128.25586 L 680.23242 128.27539 L 680.30859 128.28516 L 680.39453 128.29492 L 682.32422 128.29492 L 682.41016 128.28516 L 682.48828 128.27539 L 682.56445 128.25586 L 682.64062 128.22852 L 682.71875 128.18945 L 682.78516 128.15039 L 682.85156 128.10352 L 682.91016 128.04492 L 682.9668 127.98828 L 683.01562 127.91992 L 683.05469 127.85352 L 683.0918 127.77734 L 683.12109 127.69922 L 683.14062 127.62305 L 683.14648 127.58203 L 685.20898 129.6543 L 685.20898 158.8418 L 681.62305 158.8418 L 681.62305 161.63477 L 690.69531 161.63477 L 690.69531 158.8418 L 687.09961 158.8418 L 687.09961 129.4043 A 0.94509453 0.94509453 0 0 0 687.04102 128.92188 A 0.94509453 0.94509453 0 0 0 686.73047 128.50391 L 684.30078 126.06445 A 0.94509453 0.94509453 0 0 0 683.92578 125.76953 A 0.94509453 0.94509453 0 0 0 683.52539 125.67969 A 0.94509453 0.94509453 0 0 0 683.39062 125.68945 L 683.14648 125.68945 L 683.14062 125.64453 L 683.12109 125.56836 L 683.0918 125.49219 L 683.05469 125.42383 L 683.01562 125.34766 L 682.9668 125.28906 L 682.91016 125.22266 L 682.85156 125.17383 L 682.78516 125.12695 L 682.71875 125.07812 L 682.64062 125.05078 L 682.56445 125.02148 L 682.48828 125.00195 L 682.41016 124.99219 L 682.32422 124.98242 L 680.39453 124.98242 L 680.30859 124.99219 L 680.23242 125.00195 L 680.1543 125.02148 L 680.07812 125.05078 L 680.00195 125.07812 L 679.93359 125.12695 L 679.86719 125.17383 L 679.80859 125.22266 L 679.75195 125.28906 L 679.70312 125.34766 L 679.66602 125.42383 L 679.62695 125.49219 L 679.59766 125.56836 L 679.57812 125.64453 L 679.57227 125.68945 L 672.84961 125.68945 C 672.42687 124.15465 671.02233 123.02154 669.35547 123.04297 z M 680.39453 130.93555 L 680.30859 130.94531 L 680.23242 130.95312 L 680.1543 130.97266 L 680.07812 131.00195 L 680.00195 131.03125 L 679.93359 131.07812 L 679.86719 131.12695 L 679.80859 131.17383 L 679.75195 131.24219 L 679.70312 131.29883 L 679.66602 131.37695 L 679.62695 131.44336 L 679.59766 131.51953 L 679.57812 131.59766 L 679.56836 131.68359 L 679.55859 131.75977 L 679.55859 133.42188 L 679.56836 133.49805 L 679.57812 133.57422 L 679.59766 133.66211 L 679.62695 133.73828 L 679.66602 133.80469 L 679.70312 133.87305 L 679.75195 133.93945 L 679.80859 133.99805 L 679.86719 134.05469 L 679.93359 134.10352 L 680.00195 134.14062 L 680.07812 134.17969 L 680.1543 134.20898 L 680.23242 134.22852 L 680.30859 134.23633 L 680.39453 134.24609 L 680.41016 134.24609 L 680.41016 138.23047 L 680.39453 138.23047 L 680.30859 138.23047 L 680.23242 138.25 L 680.1543 138.26953 L 680.07812 138.29883 L 680.00195 138.32617 L 679.93359 138.375 L 679.86719 138.42188 L 679.80859 138.4707 L 679.75195 138.53711 L 679.70312 138.5957 L 679.66602 138.67188 L 679.62695 138.74023 L 679.59766 138.81641 L 679.57812 138.89258 L 679.56836 138.98047 L 679.55859 139.05664 L 679.55859 140.70703 L 679.56836 140.79492 L 679.57812 140.87109 L 679.59766 140.94727 L 679.62695 141.02344 L 679.66602 141.10156 L 679.70312 141.16797 L 679.75195 141.23633 L 679.80859 141.29297 L 679.86719 141.35156 L 679.93359 141.39844 L 680.00195 141.4375 L 680.07812 141.47461 L 680.1543 141.50391 L 680.23242 141.52344 L 680.30859 141.5332 L 680.39453 141.54297 L 682.32422 141.54297 L 682.41016 141.5332 L 682.48828 141.52344 L 682.56445 141.50391 L 682.64062 141.47461 L 682.71875 141.4375 L 682.78516 141.39844 L 682.85156 141.35156 L 682.91016 141.29297 L 682.9668 141.23633 L 683.01562 141.16797 L 683.05469 141.10156 L 683.0918 141.02344 L 683.12109 140.94727 L 683.14062 140.87109 L 683.15039 140.79492 L 683.15039 140.70703 L 683.15039 139.05664 L 683.15039 138.98047 L 683.14062 138.89258 L 683.12109 138.81641 L 683.0918 138.74023 L 683.05469 138.67188 L 683.01562 138.5957 L 682.9668 138.53711 L 682.91016 138.4707 L 682.85156 138.42188 L 682.78516 138.375 L 682.71875 138.32617 L 682.64062 138.29883 L 682.56445 138.26953 L 682.48828 138.25 L 682.41016 138.23047 L 682.32422 138.23047 L 682.29883 138.23047 L 682.29883 134.24609 L 682.32422 134.24609 L 682.41016 134.23633 L 682.48828 134.22852 L 682.56445 134.20898 L 682.64062 134.17969 L 682.71875 134.14062 L 682.78516 134.10352 L 682.85156 134.05469 L 682.91016 133.99805 L 682.9668 133.93945 L 683.01562 133.87305 L 683.05469 133.80469 L 683.0918 133.73828 L 683.12109 133.66211 L 683.14062 133.57422 L 683.15039 133.49805 L 683.15039 133.42188 L 683.15039 131.75977 L 683.15039 131.68359 L 683.14062 131.59766 L 683.12109 131.51953 L 683.0918 131.44336 L 683.05469 131.37695 L 683.01562 131.29883 L 682.9668 131.24219 L 682.91016 131.17383 L 682.85156 131.12695 L 682.78516 131.07812 L 682.71875 131.03125 L 682.64062 131.00195 L 682.56445 130.97266 L 682.48828 130.95312 L 682.41016 130.94531 L 682.32422 130.93555 L 680.39453 130.93555 z M 659.75391 132.64258 C 657.75792 132.61691 656.11719 134.23753 656.11719 136.23438 C 656.11719 138.23122 657.75792 139.84988 659.75391 139.82422 C 661.7499 139.84988 663.39258 138.23122 663.39258 136.23438 C 663.39258 134.23753 661.7499 132.61691 659.75391 132.64258 z M 669.35547 132.64258 C 667.35948 132.61691 665.71875 134.23753 665.71875 136.23438 C 665.71875 137.90275 666.86914 139.29327 668.41016 139.69531 L 668.41016 142.37305 C 666.86914 142.77509 665.71875 144.16561 665.71875 145.83398 C 665.71875 147.50236 666.86914 148.89288 668.41016 149.29492 L 668.41016 151.97266 C 666.86914 152.3747 665.71875 153.76522 665.71875 155.43359 C 665.71875 157.10191 666.86923 158.49243 668.41016 158.89453 L 668.41016 161.57227 C 666.86914 161.97431 665.71875 163.36483 665.71875 165.0332 C 665.71875 166.70152 666.86923 168.09203 668.41016 168.49414 L 668.41016 171.17383 C 666.86923 171.57593 665.71875 172.96645 665.71875 174.63477 C 665.71875 176.30314 666.86914 177.69366 668.41016 178.0957 L 668.41016 180.77344 C 666.86923 181.17554 665.71875 182.56606 665.71875 184.23438 C 665.71875 185.90275 666.86914 187.29327 668.41016 187.69531 L 668.41016 190.37305 C 666.86914 190.77509 665.71875 192.16561 665.71875 193.83398 C 665.71875 195.50236 666.86914 196.89288 668.41016 197.29492 L 668.41016 199.97266 C 666.86914 200.3747 665.71875 201.76522 665.71875 203.43359 C 665.71875 205.10191 666.86923 206.49243 668.41016 206.89453 L 668.41016 209.57227 C 666.86927 209.97441 665.71875 211.36494 665.71875 213.0332 C 665.71875 215.02992 667.3596 216.65047 669.35547 216.625 C 671.35133 216.65047 672.99219 215.02992 672.99219 213.0332 C 672.99219 211.36473 671.84001 209.97421 670.29883 209.57227 L 670.29883 206.89453 C 671.84004 206.49262 672.99219 205.10211 672.99219 203.43359 C 672.99219 201.76501 671.84013 200.3745 670.29883 199.97266 L 670.29883 197.29492 C 671.84013 196.89307 672.99219 195.50257 672.99219 193.83398 C 672.99219 192.1654 671.84013 190.77489 670.29883 190.37305 L 670.29883 187.69531 C 671.84013 187.29347 672.99219 185.90296 672.99219 184.23438 C 672.99219 182.56585 671.84004 181.17534 670.29883 180.77344 L 670.29883 178.0957 C 671.84013 177.69386 672.99219 176.30335 672.99219 174.63477 C 672.99219 172.96625 671.84004 171.57573 670.29883 171.17383 L 670.29883 168.49414 C 671.5359 168.17155 672.5101 167.21114 672.84961 165.97852 L 678.00977 165.97852 L 678.00977 169.67578 A 0.94509453 0.94509453 0 0 0 678.00977 169.98828 L 678.00977 178.5332 A 0.94509453 0.94509453 0 0 0 678.0957 179.06836 A 0.94509453 0.94509453 0 0 0 678.39062 179.43555 L 678.97461 180.01172 A 0.94509453 0.94509453 0 0 0 679.36328 180.30859 A 0.94509453 0.94509453 0 0 0 679.37891 180.31641 A 0.94509453 0.94509453 0 0 0 679.39062 180.32031 A 0.94509453 0.94509453 0 0 0 679.86914 180.37891 L 681.62305 180.37891 L 681.62305 180.83594 L 690.69531 180.83594 L 690.69531 178.04102 L 681.62305 178.04102 L 681.62305 178.48828 L 680.11914 178.48828 L 679.90039 178.27148 L 679.90039 170.7793 L 681.62305 170.7793 L 681.62305 171.23633 L 690.69531 171.23633 L 690.69531 168.44141 L 681.62305 168.44141 L 681.62305 168.88867 L 679.90039 168.88867 L 679.90039 165.97852 L 681.62305 165.97852 L 681.62305 166.43555 L 690.69531 166.43555 L 690.69531 163.64258 L 681.62305 163.64258 L 681.62305 164.08984 L 679.11523 164.08984 A 0.94509453 0.94509453 0 0 0 678.94141 164.07617 A 0.94509453 0.94509453 0 0 0 678.80078 164.08984 L 672.84961 164.08984 C 672.5104 162.85658 671.53639 161.89492 670.29883 161.57227 L 670.29883 158.89453 C 671.84004 158.49262 672.99219 157.10211 672.99219 155.43359 C 672.99219 153.76501 671.84013 152.3745 670.29883 151.97266 L 670.29883 149.29492 C 671.53578 148.97242 672.50994 148.0117 672.84961 146.7793 L 679.57227 146.7793 L 679.57812 146.82227 L 679.59766 146.90039 L 679.62695 146.97656 L 679.66602 147.05273 L 679.70312 147.12109 L 679.75195 147.1875 L 679.80859 147.24609 L 679.86719 147.30273 L 679.93359 147.35156 L 680.00195 147.38867 L 680.07812 147.42773 L 680.1543 147.45703 L 680.23242 147.47461 L 680.30859 147.48438 L 680.39453 147.49414 L 682.32422 147.49414 L 682.41016 147.48438 L 682.48828 147.47461 L 682.56445 147.45703 L 682.64062 147.42773 L 682.71875 147.38867 L 682.78516 147.35156 L 682.85156 147.30273 L 682.91016 147.24609 L 682.9668 147.1875 L 683.01562 147.12109 L 683.05469 147.05273 L 683.0918 146.97656 L 683.12109 146.90039 L 683.14062 146.82227 L 683.15039 146.74609 L 683.15039 146.66016 L 683.15039 145.00781 L 683.15039 144.93164 L 683.14062 144.8457 L 683.12109 144.76758 L 683.0918 144.69141 L 683.05469 144.625 L 683.01562 144.54688 L 682.9668 144.49023 L 682.91016 144.42188 L 682.85156 144.375 L 682.78516 144.32617 L 682.71875 144.2793 L 682.64062 144.25 L 682.56445 144.2207 L 682.48828 144.20117 L 682.41016 144.19141 L 682.32422 144.18359 L 680.39453 144.18359 L 680.30859 144.19141 L 680.23242 144.20117 L 680.1543 144.2207 L 680.07812 144.25 L 680.00195 144.2793 L 679.93359 144.32617 L 679.86719 144.375 L 679.80859 144.42188 L 679.75195 144.49023 L 679.70312 144.54688 L 679.66602 144.625 L 679.62695 144.69141 L 679.59766 144.76758 L 679.57812 144.8457 L 679.57422 144.88867 L 672.84961 144.88867 C 672.50994 143.65626 671.53578 142.69555 670.29883 142.37305 L 670.29883 139.69531 C 671.84013 139.29347 672.99219 137.90296 672.99219 136.23438 C 672.99219 134.23753 671.35146 132.61691 669.35547 132.64258 z M 696.35938 168.44141 L 696.35938 171.23633 L 705.43164 171.23633 L 705.43164 170.7793 L 706.93164 170.7793 L 706.94336 170.79102 L 706.94336 187.31836 L 673.10156 221.16016 L 656.01758 221.16016 L 651.09961 216.24219 L 651.09961 194.22461 L 657.9707 187.35547 C 658.50097 187.65219 659.10395 187.83258 659.75391 187.82422 C 661.7499 187.84988 663.39258 186.23122 663.39258 184.23438 C 663.39258 182.23753 661.7499 180.61691 659.75391 180.64258 C 657.75792 180.61691 656.11719 182.23753 656.11719 184.23438 C 656.11719 184.89272 656.31044 185.50041 656.62109 186.03125 L 649.58203 193.07031 A 0.94509453 0.94509453 0 0 0 649.28125 193.46289 A 0.94509453 0.94509453 0 0 0 649.27539 193.47656 A 0.94509453 0.94509453 0 0 0 649.26953 193.49219 A 0.94509453 0.94509453 0 0 0 649.20898 193.96484 L 649.20898 216.51172 A 0.94509453 0.94509453 0 0 0 649.26367 216.95898 A 0.94509453 0.94509453 0 0 0 649.58008 217.39648 L 654.85742 222.67188 A 0.94509453 0.94509453 0 0 0 655.24414 222.97461 A 0.94509453 0.94509453 0 0 0 655.77148 223.05078 L 673.35352 223.05078 A 0.94509453 0.94509453 0 0 0 673.86133 222.98047 A 0.94509453 0.94509453 0 0 0 673.875 222.97461 A 0.94509453 0.94509453 0 0 0 673.88086 222.9707 A 0.94509453 0.94509453 0 0 0 674.25781 222.67578 L 708.46094 188.47266 A 0.94509453 0.94509453 0 0 0 708.76953 188.06641 A 0.94509453 0.94509453 0 0 0 708.77539 188.05078 A 0.94509453 0.94509453 0 0 0 708.77734 188.04492 A 0.94509453 0.94509453 0 0 0 708.83398 187.57031 L 708.83398 170.53906 A 0.94509453 0.94509453 0 0 0 708.77344 170.05859 A 0.94509453 0.94509453 0 0 0 708.45898 169.63477 L 708.08594 169.26172 A 0.94509453 0.94509453 0 0 0 707.68164 168.95312 A 0.94509453 0.94509453 0 0 0 707.66602 168.94727 A 0.94509453 0.94509453 0 0 0 707.65625 168.94336 A 0.94509453 0.94509453 0 0 0 707.3125 168.87891 A 0.94509453 0.94509453 0 0 0 707.19141 168.88867 L 705.43164 168.88867 L 705.43164 168.44141 L 696.35938 168.44141 z M 659.75391 171.04297 C 657.75792 171.01731 656.11719 172.63793 656.11719 174.63477 C 656.11719 176.63161 657.75792 178.25027 659.75391 178.22461 C 661.7499 178.25027 663.39258 176.63161 663.39258 174.63477 C 663.39258 172.63793 661.7499 171.01731 659.75391 171.04297 z M 681.62305 173.24219 L 681.62305 176.03516 L 690.69531 176.03516 L 690.69531 173.24219 L 681.62305 173.24219 z M 696.35938 178.04102 L 696.35938 180.83594 L 699.95508 180.83594 L 699.95508 182.72656 L 699.95508 189.49805 L 671.68945 217.76172 L 657.42969 217.76172 L 655.03516 215.36719 L 655.03516 199.90039 L 657.97266 196.95703 C 658.50239 197.25294 659.1049 197.43217 659.75391 197.42383 C 661.7499 197.44949 663.39258 195.83082 663.39258 193.83398 C 663.39258 191.83714 661.7499 190.21848 659.75391 190.24414 C 657.75792 190.21848 656.11719 191.83714 656.11719 193.83398 C 656.11719 194.49355 656.30937 195.10326 656.62109 195.63477 L 653.51562 198.74609 A 0.94509453 0.94509453 0 0 0 653.21094 199.14844 A 0.94509453 0.94509453 0 0 0 653.21094 199.15039 A 0.94509453 0.94509453 0 0 0 653.20117 199.17578 A 0.94509453 0.94509453 0 0 0 653.14648 199.65234 L 653.14648 215.62109 A 0.94509453 0.94509453 0 0 0 653.20312 216.09375 A 0.94509453 0.94509453 0 0 0 653.52344 216.5293 L 656.27344 219.2793 A 0.94509453 0.94509453 0 0 0 656.66016 219.57812 A 0.94509453 0.94509453 0 0 0 656.67969 219.58789 A 0.94509453 0.94509453 0 0 0 656.69531 219.59375 A 0.94509453 0.94509453 0 0 0 657.18359 219.65234 L 671.94141 219.65234 A 0.94509453 0.94509453 0 0 0 672.44922 219.58203 A 0.94509453 0.94509453 0 0 0 672.46484 219.57617 A 0.94509453 0.94509453 0 0 0 672.48633 219.56445 A 0.94509453 0.94509453 0 0 0 672.84375 219.28125 L 701.47266 190.65234 A 0.94509453 0.94509453 0 0 0 701.74023 190.33203 A 0.94509453 0.94509453 0 0 0 701.74805 190.31836 A 0.94509453 0.94509453 0 0 0 701.78125 190.24609 A 0.94509453 0.94509453 0 0 0 701.78711 190.23047 A 0.94509453 0.94509453 0 0 0 701.78906 190.22461 A 0.94509453 0.94509453 0 0 0 701.8457 189.75781 L 701.8457 182.72656 L 701.8457 180.83594 L 705.43164 180.83594 L 705.43164 178.04102 L 696.35938 178.04102 z M 659.75391 199.84375 C 657.75792 199.81809 656.11719 201.43675 656.11719 203.43359 C 656.11719 205.43043 657.75792 207.0491 659.75391 207.02344 C 661.7499 207.0491 663.39258 205.43043 663.39258 203.43359 C 663.39258 201.43675 661.7499 199.81809 659.75391 199.84375 z M 659.75391 209.44336 C 657.75804 209.41789 656.11719 211.03649 656.11719 213.0332 C 656.11719 215.02992 657.75804 216.65047 659.75391 216.625 C 661.74977 216.65047 663.39062 215.02992 663.39062 213.0332 C 663.39062 211.03649 661.74977 209.41789 659.75391 209.44336 z "
         id="path2267"
         transform="matrix(104.16675,0,0,104.16675,-65624.511,-11682.05)" />
      <path
         inkscape:connector-curvature="0"
         id="circle2477"
         d="m 4297.81,10509.8 a 196.85001,196.85001 0 0 1 -196.85,196.85 196.85001,196.85001 0 0 1 -196.85,-196.85 196.85001,196.85001 0 0 1 196.85,-196.85 196.85001,196.85001 0 0 1 196.85,196.85 z"
         style="fill:#3a3a3a;fill-opacity:1;stroke:#f40000;stroke-width:78.74022259;stroke-linecap:round;stroke-linejoin:round;stroke-opacity:1;stroke-miterlimit:4;stroke-dasharray:none" />
      <path
         inkscape:connector-curvature="0"
         id="circle2483"
         d="m 3297.81,10509.8 a 196.85001,196.85001 0 0 1 -196.85,196.85 196.85001,196.85001 0 0 1 -196.85,-196.85 196.85001,196.85001 0 0 1 196.85,-196.85 196.85001,196.85001 0 0 1 196.85,196.85 z"
         style="fill:#3a3a3a;fill-opacity:1;stroke:#f40000;stroke-width:78.74022259;stroke-linecap:round;stroke-linejoin:round;stroke-opacity:1;stroke-miterlimit:4;stroke-dasharray:none" />
      <path
         inkscape:connector-curvature="0"
         id="circle2489"
         d="m 4297.81,9509.8398 a 196.85001,196.85001 0 0 1 -196.85,196.85 196.85001,196.85001 0 0 1 -196.85,-196.85 196.85001,196.85001 0 0 1 196.85,-196.85 196.85001,196.85001 0 0 1 196.85,196.85 z"
         style="fill:#3a3a3a;fill-opacity:1;stroke:#f40000;stroke-width:78.74022259;stroke-linecap:round;stroke-linejoin:round;stroke-opacity:1;stroke-miterlimit:4;stroke-dasharray:none" />
      <path
         inkscape:connector-curvature="0"
         id="circle2495"
         d="m 3297.81,9509.8398 a 196.85001,196.85001 0 0 1 -196.85,196.85 196.85001,196.85001 0 0 1 -196.85,-196.85 196.85001,196.85001 0 0 1 196.85,-196.85 196.85001,196.85001 0 0 1 196.85,196.85 z"
         style="fill:#3a3a3a;fill-opacity:1;stroke:#f40000;stroke-width:78.74022259;stroke-linecap:round;stroke-linejoin:round;stroke-opacity:1;stroke-miterlimit:4;stroke-dasharray:none" />
      <path
         inkscape:connector-curvature="0"
         id="circle2501"
         d="m 4297.81,8509.8398 a 196.85001,196.85001 0 0 1 -196.85,196.85 196.85001,196.85001 0 0 1 -196.85,-196.85 196.85001,196.85001 0 0 1 196.85,-196.85 196.85001,196.85001 0 0 1 196.85,196.85 z"
         style="fill:#3a3a3a;fill-opacity:1;stroke:#f40000;stroke-width:78.74022259;stroke-linecap:round;stroke-linejoin:round;stroke-opacity:1;stroke-miterlimit:4;stroke-dasharray:none" />
      <path
         inkscape:connector-curvature="0"
         id="circle2507"
         d="m 3297.81,8509.8398 a 196.85001,196.85001 0 0 1 -196.85,196.85 196.85001,196.85001 0 0 1 -196.85,-196.85 196.85001,196.85001 0 0 1 196.85,-196.85 196.85001,196.85001 0 0 1 196.85,196.85 z"
         style="fill:#3a3a3a;fill-opacity:1;stroke:#f40000;stroke-width:78.74022259;stroke-linecap:round;stroke-linejoin:round;stroke-opacity:1;stroke-miterlimit:4;stroke-dasharray:none" />
      <path
         inkscape:connector-curvature="0"
         id="circle2513"
         d="m 4297.81,7509.8398 a 196.85001,196.85001 0 0 1 -196.85,196.85 196.85001,196.85001 0 0 1 -196.85,-196.85 196.85001,196.85001 0 0 1 196.85,-196.85 196.85001,196.85001 0 0 1 196.85,196.85 z"
         style="fill:#3a3a3a;fill-opacity:1;stroke:#f40000;stroke-width:78.74022259;stroke-linecap:round;stroke-linejoin:round;stroke-opacity:1;stroke-miterlimit:4;stroke-dasharray:none" />
      <path
         inkscape:connector-curvature="0"
         id="circle2519"
         d="m 3297.81,7509.8398 a 196.85001,196.85001 0 0 1 -196.85,196.85 196.85001,196.85001 0 0 1 -196.85,-196.85 196.85001,196.85001 0 0 1 196.85,-196.85 196.85001,196.85001 0 0 1 196.85,196.85 z"
         style="fill:#3a3a3a;fill-opacity:1;stroke:#f40000;stroke-width:78.74022259;stroke-linecap:round;stroke-linejoin:round;stroke-opacity:1;stroke-miterlimit:4;stroke-dasharray:none" />
      <path
         inkscape:connector-curvature="0"
         id="circle2525"
         d="m 4297.81,6509.8398 a 196.85001,196.85001 0 0 1 -196.85,196.85 196.85001,196.85001 0 0 1 -196.85,-196.85 196.85001,196.85001 0 0 1 196.85,-196.85 196.85001,196.85001 0 0 1 196.85,196.85 z"
         style="fill:#3a3a3a;fill-opacity:1;stroke:#f40000;stroke-width:78.74022259;stroke-linecap:round;stroke-linejoin:round;stroke-opacity:1;stroke-miterlimit:4;stroke-dasharray:none" />
      <path
         inkscape:connector-curvature="0"
         id="circle2531"
         d="m 3297.81,6509.8398 a 196.85001,196.85001 0 0 1 -196.85,196.85 196.85001,196.85001 0 0 1 -196.85,-196.85 196.85001,196.85001 0 0 1 196.85,-196.85 196.85001,196.85001 0 0 1 196.85,196.85 z"
         style="fill:#3a3a3a;fill-opacity:1;stroke:#f40000;stroke-width:78.74022259;stroke-linecap:round;stroke-linejoin:round;stroke-opacity:1;stroke-miterlimit:4;stroke-dasharray:none" />
      <path
         inkscape:connector-curvature="0"
         id="circle2537"
         d="m 4297.81,5509.8398 a 196.85001,196.85001 0 0 1 -196.85,196.85 196.85001,196.85001 0 0 1 -196.85,-196.85 196.85001,196.85001 0 0 1 196.85,-196.85 196.85001,196.85001 0 0 1 196.85,196.85 z"
         style="fill:#3a3a3a;fill-opacity:1;stroke:#f40000;stroke-width:78.74022259;stroke-linecap:round;stroke-linejoin:round;stroke-opacity:1;stroke-miterlimit:4;stroke-dasharray:none" />
      <path
         inkscape:connector-curvature="0"
         id="circle2543"
         d="m 3297.81,5509.8398 a 196.85001,196.85001 0 0 1 -196.85,196.85 196.85001,196.85001 0 0 1 -196.85,-196.85 196.85001,196.85001 0 0 1 196.85,-196.85 196.85001,196.85001 0 0 1 196.85,196.85 z"
         style="fill:#3a3a3a;fill-opacity:1;stroke:#f40000;stroke-width:78.74022259;stroke-linecap:round;stroke-linejoin:round;stroke-opacity:1;stroke-miterlimit:4;stroke-dasharray:none" />
      <path
         inkscape:connector-curvature="0"
         id="circle2549"
         d="m 4297.81,4509.8398 a 196.85001,196.85001 0 0 1 -196.85,196.85 196.85001,196.85001 0 0 1 -196.85,-196.85 196.85001,196.85001 0 0 1 196.85,-196.85 196.85001,196.85001 0 0 1 196.85,196.85 z"
         style="fill:#3a3a3a;fill-opacity:1;stroke:#f40000;stroke-width:78.74022259;stroke-linecap:round;stroke-linejoin:round;stroke-opacity:1;stroke-miterlimit:4;stroke-dasharray:none" />
      <path
         inkscape:connector-curvature="0"
         id="circle2555"
         d="m 3297.81,4509.8398 a 196.85001,196.85001 0 0 1 -196.85,196.85 196.85001,196.85001 0 0 1 -196.85,-196.85 196.85001,196.85001 0 0 1 196.85,-196.85 196.85001,196.85001 0 0 1 196.85,196.85 z"
         style="fill:#3a3a3a;fill-opacity:1;stroke:#f40000;stroke-width:78.74022259;stroke-linecap:round;stroke-linejoin:round;stroke-opacity:1;stroke-miterlimit:4;stroke-dasharray:none" />
      <path
         inkscape:connector-curvature="0"
         id="circle2561"
         d="m 4297.81,3509.8401 a 196.85001,196.85001 0 0 1 -196.85,196.85 196.85001,196.85001 0 0 1 -196.85,-196.85 196.85001,196.85001 0 0 1 196.85,-196.85 196.85001,196.85001 0 0 1 196.85,196.85 z"
         style="fill:#3a3a3a;fill-opacity:1;stroke:#f40000;stroke-width:78.74022259;stroke-linecap:round;stroke-linejoin:round;stroke-opacity:1;stroke-miterlimit:4;stroke-dasharray:none" />
      <path
         inkscape:connector-curvature="0"
         id="circle2567"
         d="m 3297.81,3509.8401 a 196.85001,196.85001 0 0 1 -196.85,196.85 196.85001,196.85001 0 0 1 -196.85,-196.85 196.85001,196.85001 0 0 1 196.85,-196.85 196.85001,196.85001 0 0 1 196.85,196.85 z"
         style="fill:#3a3a3a;fill-opacity:1;stroke:#f40000;stroke-width:78.74022259;stroke-linecap:round;stroke-linejoin:round;stroke-opacity:1;stroke-miterlimit:4;stroke-dasharray:none" />
      <path
         inkscape:connector-curvature="0"
         id="circle2573"
         d="m 4297.81,2509.8401 a 196.85001,196.85001 0 0 1 -196.85,196.85 196.85001,196.85001 0 0 1 -196.85,-196.85 196.85001,196.85001 0 0 1 196.85,-196.85 196.85001,196.85001 0 0 1 196.85,196.85 z"
         style="fill:#3a3a3a;fill-opacity:1;stroke:#f40000;stroke-width:78.74022259;stroke-linecap:round;stroke-linejoin:round;stroke-opacity:1;stroke-miterlimit:4;stroke-dasharray:none" />
      <path
         inkscape:connector-curvature="0"
         id="circle2579"
         d="m 3297.81,2509.8401 a 196.85001,196.85001 0 0 1 -196.85,196.85 196.85001,196.85001 0 0 1 -196.85,-196.85 196.85001,196.85001 0 0 1 196.85,-196.85 196.85001,196.85001 0 0 1 196.85,196.85 z"
         style="fill:#3a3a3a;fill-opacity:1;stroke:#f40000;stroke-width:78.74022259;stroke-linecap:round;stroke-linejoin:round;stroke-opacity:1;stroke-miterlimit:4;stroke-dasharray:none" />
      <path
         inkscape:connector-curvature="0"
         id="circle2585"
         d="m 4297.81,1509.84 a 196.85001,196.85001 0 0 1 -196.85,196.85 196.85001,196.85001 0 0 1 -196.85,-196.85 196.85001,196.85001 0 0 1 196.85,-196.85 196.85001,196.85001 0 0 1 196.85,196.85 z"
         style="fill:#3a3a3a;fill-opacity:1;stroke:#f40000;stroke-width:78.74022259;stroke-linecap:round;stroke-linejoin:round;stroke-opacity:1;stroke-miterlimit:4;stroke-dasharray:none" />
      <path
         inkscape:connector-curvature="0"
         id="circle2591"
         d="m 3297.81,1509.84 a 196.85001,196.85001 0 0 1 -196.85,196.85 196.85001,196.85001 0 0 1 -196.85,-196.85 196.85001,196.85001 0 0 1 196.85,-196.85 196.85001,196.85001 0 0 1 196.85,196.85 z"
         style="fill:#3a3a3a;fill-opacity:1;stroke:#f40000;stroke-width:78.74022259;stroke-linecap:round;stroke-linejoin:round;stroke-opacity:1;stroke-miterlimit:4;stroke-dasharray:none" />
    </g>
  </g>
</svg>
