%TF.GenerationSoftware,KiCad,Pcbnew,5.0.1*%
%TF.CreationDate,2019-02-10T21:41:56-05:00*%
%TF.ProjectId,board2,626F617264322E6B696361645F706362,rev?*%
%TF.SameCoordinates,PX5f5e100PY5f5e100*%
%TF.FileFunction,Soldermask,Top*%
%TF.FilePolarity,Negative*%
%FSLAX46Y46*%
G04 Gerber Fmt 4.6, Leading zero omitted, Abs format (unit mm)*
G04 Created by KiCad (PCBNEW 5.0.1) date Sun 10 Feb 2019 09:41:56 PM EST*
%MOMM*%
%LPD*%
G01*
G04 APERTURE LIST*
%ADD10C,0.100000*%
G04 APERTURE END LIST*
D10*
G36*
X-12443435Y-29489389D02*
X-12252166Y-29568615D01*
X-12080024Y-29683637D01*
X-11933637Y-29830024D01*
X-11818615Y-30002166D01*
X-11739389Y-30193435D01*
X-11699000Y-30396484D01*
X-11699000Y-30603516D01*
X-11739389Y-30806565D01*
X-11818615Y-30997834D01*
X-11933637Y-31169976D01*
X-12080024Y-31316363D01*
X-12252166Y-31431385D01*
X-12443435Y-31510611D01*
X-12646484Y-31551000D01*
X-12853516Y-31551000D01*
X-13056565Y-31510611D01*
X-13247834Y-31431385D01*
X-13419976Y-31316363D01*
X-13566363Y-31169976D01*
X-13681385Y-30997834D01*
X-13760611Y-30806565D01*
X-13801000Y-30603516D01*
X-13801000Y-30396484D01*
X-13760611Y-30193435D01*
X-13681385Y-30002166D01*
X-13566363Y-29830024D01*
X-13419976Y-29683637D01*
X-13247834Y-29568615D01*
X-13056565Y-29489389D01*
X-12853516Y-29449000D01*
X-12646484Y-29449000D01*
X-12443435Y-29489389D01*
X-12443435Y-29489389D01*
G37*
G36*
X-16943435Y-29489389D02*
X-16752166Y-29568615D01*
X-16580024Y-29683637D01*
X-16433637Y-29830024D01*
X-16318615Y-30002166D01*
X-16239389Y-30193435D01*
X-16199000Y-30396484D01*
X-16199000Y-30603516D01*
X-16239389Y-30806565D01*
X-16318615Y-30997834D01*
X-16433637Y-31169976D01*
X-16580024Y-31316363D01*
X-16752166Y-31431385D01*
X-16943435Y-31510611D01*
X-17146484Y-31551000D01*
X-17353516Y-31551000D01*
X-17556565Y-31510611D01*
X-17747834Y-31431385D01*
X-17919976Y-31316363D01*
X-18066363Y-31169976D01*
X-18181385Y-30997834D01*
X-18260611Y-30806565D01*
X-18301000Y-30603516D01*
X-18301000Y-30396484D01*
X-18260611Y-30193435D01*
X-18181385Y-30002166D01*
X-18066363Y-29830024D01*
X-17919976Y-29683637D01*
X-17747834Y-29568615D01*
X-17556565Y-29489389D01*
X-17353516Y-29449000D01*
X-17146484Y-29449000D01*
X-16943435Y-29489389D01*
X-16943435Y-29489389D01*
G37*
G36*
X-27443435Y-29489389D02*
X-27252166Y-29568615D01*
X-27080024Y-29683637D01*
X-26933637Y-29830024D01*
X-26818615Y-30002166D01*
X-26739389Y-30193435D01*
X-26699000Y-30396484D01*
X-26699000Y-30603516D01*
X-26739389Y-30806565D01*
X-26818615Y-30997834D01*
X-26933637Y-31169976D01*
X-27080024Y-31316363D01*
X-27252166Y-31431385D01*
X-27443435Y-31510611D01*
X-27646484Y-31551000D01*
X-27853516Y-31551000D01*
X-28056565Y-31510611D01*
X-28247834Y-31431385D01*
X-28419976Y-31316363D01*
X-28566363Y-31169976D01*
X-28681385Y-30997834D01*
X-28760611Y-30806565D01*
X-28801000Y-30603516D01*
X-28801000Y-30396484D01*
X-28760611Y-30193435D01*
X-28681385Y-30002166D01*
X-28566363Y-29830024D01*
X-28419976Y-29683637D01*
X-28247834Y-29568615D01*
X-28056565Y-29489389D01*
X-27853516Y-29449000D01*
X-27646484Y-29449000D01*
X-27443435Y-29489389D01*
X-27443435Y-29489389D01*
G37*
G36*
X-31943435Y-29489389D02*
X-31752166Y-29568615D01*
X-31580024Y-29683637D01*
X-31433637Y-29830024D01*
X-31318615Y-30002166D01*
X-31239389Y-30193435D01*
X-31199000Y-30396484D01*
X-31199000Y-30603516D01*
X-31239389Y-30806565D01*
X-31318615Y-30997834D01*
X-31433637Y-31169976D01*
X-31580024Y-31316363D01*
X-31752166Y-31431385D01*
X-31943435Y-31510611D01*
X-32146484Y-31551000D01*
X-32353516Y-31551000D01*
X-32556565Y-31510611D01*
X-32747834Y-31431385D01*
X-32919976Y-31316363D01*
X-33066363Y-31169976D01*
X-33181385Y-30997834D01*
X-33260611Y-30806565D01*
X-33301000Y-30603516D01*
X-33301000Y-30396484D01*
X-33260611Y-30193435D01*
X-33181385Y-30002166D01*
X-33066363Y-29830024D01*
X-32919976Y-29683637D01*
X-32747834Y-29568615D01*
X-32556565Y-29489389D01*
X-32353516Y-29449000D01*
X-32146484Y-29449000D01*
X-31943435Y-29489389D01*
X-31943435Y-29489389D01*
G37*
G36*
X-19943435Y-29489389D02*
X-19752166Y-29568615D01*
X-19580024Y-29683637D01*
X-19433637Y-29830024D01*
X-19318615Y-30002166D01*
X-19239389Y-30193435D01*
X-19199000Y-30396484D01*
X-19199000Y-30603516D01*
X-19239389Y-30806565D01*
X-19318615Y-30997834D01*
X-19433637Y-31169976D01*
X-19580024Y-31316363D01*
X-19752166Y-31431385D01*
X-19943435Y-31510611D01*
X-20146484Y-31551000D01*
X-20353516Y-31551000D01*
X-20556565Y-31510611D01*
X-20747834Y-31431385D01*
X-20919976Y-31316363D01*
X-21066363Y-31169976D01*
X-21181385Y-30997834D01*
X-21260611Y-30806565D01*
X-21301000Y-30603516D01*
X-21301000Y-30396484D01*
X-21260611Y-30193435D01*
X-21181385Y-30002166D01*
X-21066363Y-29830024D01*
X-20919976Y-29683637D01*
X-20747834Y-29568615D01*
X-20556565Y-29489389D01*
X-20353516Y-29449000D01*
X-20146484Y-29449000D01*
X-19943435Y-29489389D01*
X-19943435Y-29489389D01*
G37*
G36*
X-24443435Y-29489389D02*
X-24252166Y-29568615D01*
X-24080024Y-29683637D01*
X-23933637Y-29830024D01*
X-23818615Y-30002166D01*
X-23739389Y-30193435D01*
X-23699000Y-30396484D01*
X-23699000Y-30603516D01*
X-23739389Y-30806565D01*
X-23818615Y-30997834D01*
X-23933637Y-31169976D01*
X-24080024Y-31316363D01*
X-24252166Y-31431385D01*
X-24443435Y-31510611D01*
X-24646484Y-31551000D01*
X-24853516Y-31551000D01*
X-25056565Y-31510611D01*
X-25247834Y-31431385D01*
X-25419976Y-31316363D01*
X-25566363Y-31169976D01*
X-25681385Y-30997834D01*
X-25760611Y-30806565D01*
X-25801000Y-30603516D01*
X-25801000Y-30396484D01*
X-25760611Y-30193435D01*
X-25681385Y-30002166D01*
X-25566363Y-29830024D01*
X-25419976Y-29683637D01*
X-25247834Y-29568615D01*
X-25056565Y-29489389D01*
X-24853516Y-29449000D01*
X-24646484Y-29449000D01*
X-24443435Y-29489389D01*
X-24443435Y-29489389D01*
G37*
G36*
X27570443Y-29355519D02*
X27636627Y-29362037D01*
X27749853Y-29396384D01*
X27806467Y-29413557D01*
X27872775Y-29449000D01*
X27962991Y-29497222D01*
X27998729Y-29526552D01*
X28100186Y-29609814D01*
X28160768Y-29683635D01*
X28212778Y-29747009D01*
X28212779Y-29747011D01*
X28296443Y-29903533D01*
X28296443Y-29903534D01*
X28347963Y-30073373D01*
X28365359Y-30250000D01*
X28347963Y-30426627D01*
X28313616Y-30539853D01*
X28296443Y-30596467D01*
X28292676Y-30603514D01*
X28212778Y-30752991D01*
X28183448Y-30788729D01*
X28100186Y-30890186D01*
X27998729Y-30973448D01*
X27962991Y-31002778D01*
X27962989Y-31002779D01*
X27806467Y-31086443D01*
X27749853Y-31103616D01*
X27636627Y-31137963D01*
X27570443Y-31144481D01*
X27504260Y-31151000D01*
X27415740Y-31151000D01*
X27349557Y-31144481D01*
X27283373Y-31137963D01*
X27170147Y-31103616D01*
X27113533Y-31086443D01*
X26957011Y-31002779D01*
X26957009Y-31002778D01*
X26921271Y-30973448D01*
X26819814Y-30890186D01*
X26736552Y-30788729D01*
X26707222Y-30752991D01*
X26627324Y-30603514D01*
X26623557Y-30596467D01*
X26606384Y-30539853D01*
X26572037Y-30426627D01*
X26554641Y-30250000D01*
X26572037Y-30073373D01*
X26623557Y-29903534D01*
X26623557Y-29903533D01*
X26707221Y-29747011D01*
X26707222Y-29747009D01*
X26759232Y-29683635D01*
X26819814Y-29609814D01*
X26921271Y-29526552D01*
X26957009Y-29497222D01*
X27047225Y-29449000D01*
X27113533Y-29413557D01*
X27170147Y-29396384D01*
X27283373Y-29362037D01*
X27349557Y-29355519D01*
X27415740Y-29349000D01*
X27504260Y-29349000D01*
X27570443Y-29355519D01*
X27570443Y-29355519D01*
G37*
G36*
X25030443Y-29355519D02*
X25096627Y-29362037D01*
X25209853Y-29396384D01*
X25266467Y-29413557D01*
X25332775Y-29449000D01*
X25422991Y-29497222D01*
X25458729Y-29526552D01*
X25560186Y-29609814D01*
X25620768Y-29683635D01*
X25672778Y-29747009D01*
X25672779Y-29747011D01*
X25756443Y-29903533D01*
X25756443Y-29903534D01*
X25807963Y-30073373D01*
X25825359Y-30250000D01*
X25807963Y-30426627D01*
X25773616Y-30539853D01*
X25756443Y-30596467D01*
X25752676Y-30603514D01*
X25672778Y-30752991D01*
X25643448Y-30788729D01*
X25560186Y-30890186D01*
X25458729Y-30973448D01*
X25422991Y-31002778D01*
X25422989Y-31002779D01*
X25266467Y-31086443D01*
X25209853Y-31103616D01*
X25096627Y-31137963D01*
X25030443Y-31144481D01*
X24964260Y-31151000D01*
X24875740Y-31151000D01*
X24809557Y-31144481D01*
X24743373Y-31137963D01*
X24630147Y-31103616D01*
X24573533Y-31086443D01*
X24417011Y-31002779D01*
X24417009Y-31002778D01*
X24381271Y-30973448D01*
X24279814Y-30890186D01*
X24196552Y-30788729D01*
X24167222Y-30752991D01*
X24087324Y-30603514D01*
X24083557Y-30596467D01*
X24066384Y-30539853D01*
X24032037Y-30426627D01*
X24014641Y-30250000D01*
X24032037Y-30073373D01*
X24083557Y-29903534D01*
X24083557Y-29903533D01*
X24167221Y-29747011D01*
X24167222Y-29747009D01*
X24219232Y-29683635D01*
X24279814Y-29609814D01*
X24381271Y-29526552D01*
X24417009Y-29497222D01*
X24507225Y-29449000D01*
X24573533Y-29413557D01*
X24630147Y-29396384D01*
X24743373Y-29362037D01*
X24809557Y-29355519D01*
X24875740Y-29349000D01*
X24964260Y-29349000D01*
X25030443Y-29355519D01*
X25030443Y-29355519D01*
G37*
G36*
X23281000Y-31151000D02*
X21479000Y-31151000D01*
X21479000Y-29349000D01*
X23281000Y-29349000D01*
X23281000Y-31151000D01*
X23281000Y-31151000D01*
G37*
G36*
X37730443Y-29355519D02*
X37796627Y-29362037D01*
X37909853Y-29396384D01*
X37966467Y-29413557D01*
X38032775Y-29449000D01*
X38122991Y-29497222D01*
X38158729Y-29526552D01*
X38260186Y-29609814D01*
X38320768Y-29683635D01*
X38372778Y-29747009D01*
X38372779Y-29747011D01*
X38456443Y-29903533D01*
X38456443Y-29903534D01*
X38507963Y-30073373D01*
X38525359Y-30250000D01*
X38507963Y-30426627D01*
X38473616Y-30539853D01*
X38456443Y-30596467D01*
X38452676Y-30603514D01*
X38372778Y-30752991D01*
X38343448Y-30788729D01*
X38260186Y-30890186D01*
X38158729Y-30973448D01*
X38122991Y-31002778D01*
X38122989Y-31002779D01*
X37966467Y-31086443D01*
X37909853Y-31103616D01*
X37796627Y-31137963D01*
X37730443Y-31144481D01*
X37664260Y-31151000D01*
X37575740Y-31151000D01*
X37509557Y-31144481D01*
X37443373Y-31137963D01*
X37330147Y-31103616D01*
X37273533Y-31086443D01*
X37117011Y-31002779D01*
X37117009Y-31002778D01*
X37081271Y-30973448D01*
X36979814Y-30890186D01*
X36896552Y-30788729D01*
X36867222Y-30752991D01*
X36787324Y-30603514D01*
X36783557Y-30596467D01*
X36766384Y-30539853D01*
X36732037Y-30426627D01*
X36714641Y-30250000D01*
X36732037Y-30073373D01*
X36783557Y-29903534D01*
X36783557Y-29903533D01*
X36867221Y-29747011D01*
X36867222Y-29747009D01*
X36919232Y-29683635D01*
X36979814Y-29609814D01*
X37081271Y-29526552D01*
X37117009Y-29497222D01*
X37207225Y-29449000D01*
X37273533Y-29413557D01*
X37330147Y-29396384D01*
X37443373Y-29362037D01*
X37509557Y-29355519D01*
X37575740Y-29349000D01*
X37664260Y-29349000D01*
X37730443Y-29355519D01*
X37730443Y-29355519D01*
G37*
G36*
X30110443Y-29355519D02*
X30176627Y-29362037D01*
X30289853Y-29396384D01*
X30346467Y-29413557D01*
X30412775Y-29449000D01*
X30502991Y-29497222D01*
X30538729Y-29526552D01*
X30640186Y-29609814D01*
X30700768Y-29683635D01*
X30752778Y-29747009D01*
X30752779Y-29747011D01*
X30836443Y-29903533D01*
X30836443Y-29903534D01*
X30887963Y-30073373D01*
X30905359Y-30250000D01*
X30887963Y-30426627D01*
X30853616Y-30539853D01*
X30836443Y-30596467D01*
X30832676Y-30603514D01*
X30752778Y-30752991D01*
X30723448Y-30788729D01*
X30640186Y-30890186D01*
X30538729Y-30973448D01*
X30502991Y-31002778D01*
X30502989Y-31002779D01*
X30346467Y-31086443D01*
X30289853Y-31103616D01*
X30176627Y-31137963D01*
X30110443Y-31144481D01*
X30044260Y-31151000D01*
X29955740Y-31151000D01*
X29889557Y-31144481D01*
X29823373Y-31137963D01*
X29710147Y-31103616D01*
X29653533Y-31086443D01*
X29497011Y-31002779D01*
X29497009Y-31002778D01*
X29461271Y-30973448D01*
X29359814Y-30890186D01*
X29276552Y-30788729D01*
X29247222Y-30752991D01*
X29167324Y-30603514D01*
X29163557Y-30596467D01*
X29146384Y-30539853D01*
X29112037Y-30426627D01*
X29094641Y-30250000D01*
X29112037Y-30073373D01*
X29163557Y-29903534D01*
X29163557Y-29903533D01*
X29247221Y-29747011D01*
X29247222Y-29747009D01*
X29299232Y-29683635D01*
X29359814Y-29609814D01*
X29461271Y-29526552D01*
X29497009Y-29497222D01*
X29587225Y-29449000D01*
X29653533Y-29413557D01*
X29710147Y-29396384D01*
X29823373Y-29362037D01*
X29889557Y-29355519D01*
X29955740Y-29349000D01*
X30044260Y-29349000D01*
X30110443Y-29355519D01*
X30110443Y-29355519D01*
G37*
G36*
X32650443Y-29355519D02*
X32716627Y-29362037D01*
X32829853Y-29396384D01*
X32886467Y-29413557D01*
X32952775Y-29449000D01*
X33042991Y-29497222D01*
X33078729Y-29526552D01*
X33180186Y-29609814D01*
X33240768Y-29683635D01*
X33292778Y-29747009D01*
X33292779Y-29747011D01*
X33376443Y-29903533D01*
X33376443Y-29903534D01*
X33427963Y-30073373D01*
X33445359Y-30250000D01*
X33427963Y-30426627D01*
X33393616Y-30539853D01*
X33376443Y-30596467D01*
X33372676Y-30603514D01*
X33292778Y-30752991D01*
X33263448Y-30788729D01*
X33180186Y-30890186D01*
X33078729Y-30973448D01*
X33042991Y-31002778D01*
X33042989Y-31002779D01*
X32886467Y-31086443D01*
X32829853Y-31103616D01*
X32716627Y-31137963D01*
X32650443Y-31144481D01*
X32584260Y-31151000D01*
X32495740Y-31151000D01*
X32429557Y-31144481D01*
X32363373Y-31137963D01*
X32250147Y-31103616D01*
X32193533Y-31086443D01*
X32037011Y-31002779D01*
X32037009Y-31002778D01*
X32001271Y-30973448D01*
X31899814Y-30890186D01*
X31816552Y-30788729D01*
X31787222Y-30752991D01*
X31707324Y-30603514D01*
X31703557Y-30596467D01*
X31686384Y-30539853D01*
X31652037Y-30426627D01*
X31634641Y-30250000D01*
X31652037Y-30073373D01*
X31703557Y-29903534D01*
X31703557Y-29903533D01*
X31787221Y-29747011D01*
X31787222Y-29747009D01*
X31839232Y-29683635D01*
X31899814Y-29609814D01*
X32001271Y-29526552D01*
X32037009Y-29497222D01*
X32127225Y-29449000D01*
X32193533Y-29413557D01*
X32250147Y-29396384D01*
X32363373Y-29362037D01*
X32429557Y-29355519D01*
X32495740Y-29349000D01*
X32584260Y-29349000D01*
X32650443Y-29355519D01*
X32650443Y-29355519D01*
G37*
G36*
X35190443Y-29355519D02*
X35256627Y-29362037D01*
X35369853Y-29396384D01*
X35426467Y-29413557D01*
X35492775Y-29449000D01*
X35582991Y-29497222D01*
X35618729Y-29526552D01*
X35720186Y-29609814D01*
X35780768Y-29683635D01*
X35832778Y-29747009D01*
X35832779Y-29747011D01*
X35916443Y-29903533D01*
X35916443Y-29903534D01*
X35967963Y-30073373D01*
X35985359Y-30250000D01*
X35967963Y-30426627D01*
X35933616Y-30539853D01*
X35916443Y-30596467D01*
X35912676Y-30603514D01*
X35832778Y-30752991D01*
X35803448Y-30788729D01*
X35720186Y-30890186D01*
X35618729Y-30973448D01*
X35582991Y-31002778D01*
X35582989Y-31002779D01*
X35426467Y-31086443D01*
X35369853Y-31103616D01*
X35256627Y-31137963D01*
X35190443Y-31144481D01*
X35124260Y-31151000D01*
X35035740Y-31151000D01*
X34969557Y-31144481D01*
X34903373Y-31137963D01*
X34790147Y-31103616D01*
X34733533Y-31086443D01*
X34577011Y-31002779D01*
X34577009Y-31002778D01*
X34541271Y-30973448D01*
X34439814Y-30890186D01*
X34356552Y-30788729D01*
X34327222Y-30752991D01*
X34247324Y-30603514D01*
X34243557Y-30596467D01*
X34226384Y-30539853D01*
X34192037Y-30426627D01*
X34174641Y-30250000D01*
X34192037Y-30073373D01*
X34243557Y-29903534D01*
X34243557Y-29903533D01*
X34327221Y-29747011D01*
X34327222Y-29747009D01*
X34379232Y-29683635D01*
X34439814Y-29609814D01*
X34541271Y-29526552D01*
X34577009Y-29497222D01*
X34667225Y-29449000D01*
X34733533Y-29413557D01*
X34790147Y-29396384D01*
X34903373Y-29362037D01*
X34969557Y-29355519D01*
X35035740Y-29349000D01*
X35124260Y-29349000D01*
X35190443Y-29355519D01*
X35190443Y-29355519D01*
G37*
G36*
X44085734Y-26643232D02*
X44295202Y-26729996D01*
X44483723Y-26855962D01*
X44644038Y-27016277D01*
X44770004Y-27204798D01*
X44856768Y-27414266D01*
X44901000Y-27636635D01*
X44901000Y-27863365D01*
X44856768Y-28085734D01*
X44770004Y-28295202D01*
X44644038Y-28483723D01*
X44483723Y-28644038D01*
X44295202Y-28770004D01*
X44085734Y-28856768D01*
X43863365Y-28901000D01*
X43636635Y-28901000D01*
X43414266Y-28856768D01*
X43204798Y-28770004D01*
X43016277Y-28644038D01*
X42855962Y-28483723D01*
X42729996Y-28295202D01*
X42643232Y-28085734D01*
X42599000Y-27863365D01*
X42599000Y-27636635D01*
X42643232Y-27414266D01*
X42729996Y-27204798D01*
X42855962Y-27016277D01*
X43016277Y-26855962D01*
X43204798Y-26729996D01*
X43414266Y-26643232D01*
X43636635Y-26599000D01*
X43863365Y-26599000D01*
X44085734Y-26643232D01*
X44085734Y-26643232D01*
G37*
G36*
X-35414266Y-26643232D02*
X-35204798Y-26729996D01*
X-35016277Y-26855962D01*
X-34855962Y-27016277D01*
X-34729996Y-27204798D01*
X-34643232Y-27414266D01*
X-34599000Y-27636635D01*
X-34599000Y-27863365D01*
X-34643232Y-28085734D01*
X-34729996Y-28295202D01*
X-34855962Y-28483723D01*
X-35016277Y-28644038D01*
X-35204798Y-28770004D01*
X-35414266Y-28856768D01*
X-35636635Y-28901000D01*
X-35863365Y-28901000D01*
X-36085734Y-28856768D01*
X-36295202Y-28770004D01*
X-36483723Y-28644038D01*
X-36644038Y-28483723D01*
X-36770004Y-28295202D01*
X-36856768Y-28085734D01*
X-36901000Y-27863365D01*
X-36901000Y-27636635D01*
X-36856768Y-27414266D01*
X-36770004Y-27204798D01*
X-36644038Y-27016277D01*
X-36483723Y-26855962D01*
X-36295202Y-26729996D01*
X-36085734Y-26643232D01*
X-35863365Y-26599000D01*
X-35636635Y-26599000D01*
X-35414266Y-26643232D01*
X-35414266Y-26643232D01*
G37*
G36*
X-8664266Y-26643232D02*
X-8454798Y-26729996D01*
X-8266277Y-26855962D01*
X-8105962Y-27016277D01*
X-7979996Y-27204798D01*
X-7893232Y-27414266D01*
X-7849000Y-27636635D01*
X-7849000Y-27863365D01*
X-7893232Y-28085734D01*
X-7979996Y-28295202D01*
X-8105962Y-28483723D01*
X-8266277Y-28644038D01*
X-8454798Y-28770004D01*
X-8664266Y-28856768D01*
X-8886635Y-28901000D01*
X-9113365Y-28901000D01*
X-9335734Y-28856768D01*
X-9545202Y-28770004D01*
X-9733723Y-28644038D01*
X-9894038Y-28483723D01*
X-10020004Y-28295202D01*
X-10106768Y-28085734D01*
X-10151000Y-27863365D01*
X-10151000Y-27636635D01*
X-10106768Y-27414266D01*
X-10020004Y-27204798D01*
X-9894038Y-27016277D01*
X-9733723Y-26855962D01*
X-9545202Y-26729996D01*
X-9335734Y-26643232D01*
X-9113365Y-26599000D01*
X-8886635Y-26599000D01*
X-8664266Y-26643232D01*
X-8664266Y-26643232D01*
G37*
G36*
X9335734Y-26643232D02*
X9545202Y-26729996D01*
X9733723Y-26855962D01*
X9894038Y-27016277D01*
X10020004Y-27204798D01*
X10106768Y-27414266D01*
X10151000Y-27636635D01*
X10151000Y-27863365D01*
X10106768Y-28085734D01*
X10020004Y-28295202D01*
X9894038Y-28483723D01*
X9733723Y-28644038D01*
X9545202Y-28770004D01*
X9335734Y-28856768D01*
X9113365Y-28901000D01*
X8886635Y-28901000D01*
X8664266Y-28856768D01*
X8454798Y-28770004D01*
X8266277Y-28644038D01*
X8105962Y-28483723D01*
X7979996Y-28295202D01*
X7893232Y-28085734D01*
X7849000Y-27863365D01*
X7849000Y-27636635D01*
X7893232Y-27414266D01*
X7979996Y-27204798D01*
X8105962Y-27016277D01*
X8266277Y-26855962D01*
X8454798Y-26729996D01*
X8664266Y-26643232D01*
X8886635Y-26599000D01*
X9113365Y-26599000D01*
X9335734Y-26643232D01*
X9335734Y-26643232D01*
G37*
G36*
X-27443435Y-22989389D02*
X-27252166Y-23068615D01*
X-27080024Y-23183637D01*
X-26933637Y-23330024D01*
X-26818615Y-23502166D01*
X-26739389Y-23693435D01*
X-26699000Y-23896484D01*
X-26699000Y-24103516D01*
X-26739389Y-24306565D01*
X-26818615Y-24497834D01*
X-26933637Y-24669976D01*
X-27080024Y-24816363D01*
X-27252166Y-24931385D01*
X-27443435Y-25010611D01*
X-27646484Y-25051000D01*
X-27853516Y-25051000D01*
X-28056565Y-25010611D01*
X-28247834Y-24931385D01*
X-28419976Y-24816363D01*
X-28566363Y-24669976D01*
X-28681385Y-24497834D01*
X-28760611Y-24306565D01*
X-28801000Y-24103516D01*
X-28801000Y-23896484D01*
X-28760611Y-23693435D01*
X-28681385Y-23502166D01*
X-28566363Y-23330024D01*
X-28419976Y-23183637D01*
X-28247834Y-23068615D01*
X-28056565Y-22989389D01*
X-27853516Y-22949000D01*
X-27646484Y-22949000D01*
X-27443435Y-22989389D01*
X-27443435Y-22989389D01*
G37*
G36*
X-16943435Y-22989389D02*
X-16752166Y-23068615D01*
X-16580024Y-23183637D01*
X-16433637Y-23330024D01*
X-16318615Y-23502166D01*
X-16239389Y-23693435D01*
X-16199000Y-23896484D01*
X-16199000Y-24103516D01*
X-16239389Y-24306565D01*
X-16318615Y-24497834D01*
X-16433637Y-24669976D01*
X-16580024Y-24816363D01*
X-16752166Y-24931385D01*
X-16943435Y-25010611D01*
X-17146484Y-25051000D01*
X-17353516Y-25051000D01*
X-17556565Y-25010611D01*
X-17747834Y-24931385D01*
X-17919976Y-24816363D01*
X-18066363Y-24669976D01*
X-18181385Y-24497834D01*
X-18260611Y-24306565D01*
X-18301000Y-24103516D01*
X-18301000Y-23896484D01*
X-18260611Y-23693435D01*
X-18181385Y-23502166D01*
X-18066363Y-23330024D01*
X-17919976Y-23183637D01*
X-17747834Y-23068615D01*
X-17556565Y-22989389D01*
X-17353516Y-22949000D01*
X-17146484Y-22949000D01*
X-16943435Y-22989389D01*
X-16943435Y-22989389D01*
G37*
G36*
X-12443435Y-22989389D02*
X-12252166Y-23068615D01*
X-12080024Y-23183637D01*
X-11933637Y-23330024D01*
X-11818615Y-23502166D01*
X-11739389Y-23693435D01*
X-11699000Y-23896484D01*
X-11699000Y-24103516D01*
X-11739389Y-24306565D01*
X-11818615Y-24497834D01*
X-11933637Y-24669976D01*
X-12080024Y-24816363D01*
X-12252166Y-24931385D01*
X-12443435Y-25010611D01*
X-12646484Y-25051000D01*
X-12853516Y-25051000D01*
X-13056565Y-25010611D01*
X-13247834Y-24931385D01*
X-13419976Y-24816363D01*
X-13566363Y-24669976D01*
X-13681385Y-24497834D01*
X-13760611Y-24306565D01*
X-13801000Y-24103516D01*
X-13801000Y-23896484D01*
X-13760611Y-23693435D01*
X-13681385Y-23502166D01*
X-13566363Y-23330024D01*
X-13419976Y-23183637D01*
X-13247834Y-23068615D01*
X-13056565Y-22989389D01*
X-12853516Y-22949000D01*
X-12646484Y-22949000D01*
X-12443435Y-22989389D01*
X-12443435Y-22989389D01*
G37*
G36*
X-19943435Y-22989389D02*
X-19752166Y-23068615D01*
X-19580024Y-23183637D01*
X-19433637Y-23330024D01*
X-19318615Y-23502166D01*
X-19239389Y-23693435D01*
X-19199000Y-23896484D01*
X-19199000Y-24103516D01*
X-19239389Y-24306565D01*
X-19318615Y-24497834D01*
X-19433637Y-24669976D01*
X-19580024Y-24816363D01*
X-19752166Y-24931385D01*
X-19943435Y-25010611D01*
X-20146484Y-25051000D01*
X-20353516Y-25051000D01*
X-20556565Y-25010611D01*
X-20747834Y-24931385D01*
X-20919976Y-24816363D01*
X-21066363Y-24669976D01*
X-21181385Y-24497834D01*
X-21260611Y-24306565D01*
X-21301000Y-24103516D01*
X-21301000Y-23896484D01*
X-21260611Y-23693435D01*
X-21181385Y-23502166D01*
X-21066363Y-23330024D01*
X-20919976Y-23183637D01*
X-20747834Y-23068615D01*
X-20556565Y-22989389D01*
X-20353516Y-22949000D01*
X-20146484Y-22949000D01*
X-19943435Y-22989389D01*
X-19943435Y-22989389D01*
G37*
G36*
X-31943435Y-22989389D02*
X-31752166Y-23068615D01*
X-31580024Y-23183637D01*
X-31433637Y-23330024D01*
X-31318615Y-23502166D01*
X-31239389Y-23693435D01*
X-31199000Y-23896484D01*
X-31199000Y-24103516D01*
X-31239389Y-24306565D01*
X-31318615Y-24497834D01*
X-31433637Y-24669976D01*
X-31580024Y-24816363D01*
X-31752166Y-24931385D01*
X-31943435Y-25010611D01*
X-32146484Y-25051000D01*
X-32353516Y-25051000D01*
X-32556565Y-25010611D01*
X-32747834Y-24931385D01*
X-32919976Y-24816363D01*
X-33066363Y-24669976D01*
X-33181385Y-24497834D01*
X-33260611Y-24306565D01*
X-33301000Y-24103516D01*
X-33301000Y-23896484D01*
X-33260611Y-23693435D01*
X-33181385Y-23502166D01*
X-33066363Y-23330024D01*
X-32919976Y-23183637D01*
X-32747834Y-23068615D01*
X-32556565Y-22989389D01*
X-32353516Y-22949000D01*
X-32146484Y-22949000D01*
X-31943435Y-22989389D01*
X-31943435Y-22989389D01*
G37*
G36*
X-24443435Y-22989389D02*
X-24252166Y-23068615D01*
X-24080024Y-23183637D01*
X-23933637Y-23330024D01*
X-23818615Y-23502166D01*
X-23739389Y-23693435D01*
X-23699000Y-23896484D01*
X-23699000Y-24103516D01*
X-23739389Y-24306565D01*
X-23818615Y-24497834D01*
X-23933637Y-24669976D01*
X-24080024Y-24816363D01*
X-24252166Y-24931385D01*
X-24443435Y-25010611D01*
X-24646484Y-25051000D01*
X-24853516Y-25051000D01*
X-25056565Y-25010611D01*
X-25247834Y-24931385D01*
X-25419976Y-24816363D01*
X-25566363Y-24669976D01*
X-25681385Y-24497834D01*
X-25760611Y-24306565D01*
X-25801000Y-24103516D01*
X-25801000Y-23896484D01*
X-25760611Y-23693435D01*
X-25681385Y-23502166D01*
X-25566363Y-23330024D01*
X-25419976Y-23183637D01*
X-25247834Y-23068615D01*
X-25056565Y-22989389D01*
X-24853516Y-22949000D01*
X-24646484Y-22949000D01*
X-24443435Y-22989389D01*
X-24443435Y-22989389D01*
G37*
G36*
X-38139557Y-23105519D02*
X-38073373Y-23112037D01*
X-37960147Y-23146384D01*
X-37903533Y-23163557D01*
X-37865967Y-23183637D01*
X-37747009Y-23247222D01*
X-37711271Y-23276552D01*
X-37609814Y-23359814D01*
X-37526552Y-23461271D01*
X-37497222Y-23497009D01*
X-37497221Y-23497011D01*
X-37413557Y-23653533D01*
X-37413557Y-23653534D01*
X-37362037Y-23823373D01*
X-37344641Y-24000000D01*
X-37362037Y-24176627D01*
X-37396384Y-24289853D01*
X-37413557Y-24346467D01*
X-37487652Y-24485087D01*
X-37497222Y-24502991D01*
X-37526552Y-24538729D01*
X-37609814Y-24640186D01*
X-37711271Y-24723448D01*
X-37747009Y-24752778D01*
X-37747011Y-24752779D01*
X-37903533Y-24836443D01*
X-37960147Y-24853616D01*
X-38073373Y-24887963D01*
X-38139558Y-24894482D01*
X-38205740Y-24901000D01*
X-38294260Y-24901000D01*
X-38360442Y-24894482D01*
X-38426627Y-24887963D01*
X-38539853Y-24853616D01*
X-38596467Y-24836443D01*
X-38752989Y-24752779D01*
X-38752991Y-24752778D01*
X-38788729Y-24723448D01*
X-38890186Y-24640186D01*
X-38973448Y-24538729D01*
X-39002778Y-24502991D01*
X-39012348Y-24485087D01*
X-39086443Y-24346467D01*
X-39103616Y-24289853D01*
X-39137963Y-24176627D01*
X-39155359Y-24000000D01*
X-39137963Y-23823373D01*
X-39086443Y-23653534D01*
X-39086443Y-23653533D01*
X-39002779Y-23497011D01*
X-39002778Y-23497009D01*
X-38973448Y-23461271D01*
X-38890186Y-23359814D01*
X-38788729Y-23276552D01*
X-38752991Y-23247222D01*
X-38634033Y-23183637D01*
X-38596467Y-23163557D01*
X-38539853Y-23146384D01*
X-38426627Y-23112037D01*
X-38360443Y-23105519D01*
X-38294260Y-23099000D01*
X-38205740Y-23099000D01*
X-38139557Y-23105519D01*
X-38139557Y-23105519D01*
G37*
G36*
X-38139557Y-20565519D02*
X-38073373Y-20572037D01*
X-37960147Y-20606384D01*
X-37903533Y-20623557D01*
X-37764913Y-20697652D01*
X-37747009Y-20707222D01*
X-37711271Y-20736552D01*
X-37609814Y-20819814D01*
X-37526552Y-20921271D01*
X-37497222Y-20957009D01*
X-37497221Y-20957011D01*
X-37413557Y-21113533D01*
X-37413557Y-21113534D01*
X-37362037Y-21283373D01*
X-37344641Y-21460000D01*
X-37362037Y-21636627D01*
X-37396384Y-21749853D01*
X-37413557Y-21806467D01*
X-37487652Y-21945087D01*
X-37497222Y-21962991D01*
X-37526552Y-21998729D01*
X-37609814Y-22100186D01*
X-37711271Y-22183448D01*
X-37747009Y-22212778D01*
X-37747011Y-22212779D01*
X-37903533Y-22296443D01*
X-37960147Y-22313616D01*
X-38073373Y-22347963D01*
X-38139557Y-22354481D01*
X-38205740Y-22361000D01*
X-38294260Y-22361000D01*
X-38360443Y-22354481D01*
X-38426627Y-22347963D01*
X-38539853Y-22313616D01*
X-38596467Y-22296443D01*
X-38752989Y-22212779D01*
X-38752991Y-22212778D01*
X-38788729Y-22183448D01*
X-38890186Y-22100186D01*
X-38973448Y-21998729D01*
X-39002778Y-21962991D01*
X-39012348Y-21945087D01*
X-39086443Y-21806467D01*
X-39103616Y-21749853D01*
X-39137963Y-21636627D01*
X-39155359Y-21460000D01*
X-39137963Y-21283373D01*
X-39086443Y-21113534D01*
X-39086443Y-21113533D01*
X-39002779Y-20957011D01*
X-39002778Y-20957009D01*
X-38973448Y-20921271D01*
X-38890186Y-20819814D01*
X-38788729Y-20736552D01*
X-38752991Y-20707222D01*
X-38735087Y-20697652D01*
X-38596467Y-20623557D01*
X-38539853Y-20606384D01*
X-38426627Y-20572037D01*
X-38360443Y-20565519D01*
X-38294260Y-20559000D01*
X-38205740Y-20559000D01*
X-38139557Y-20565519D01*
X-38139557Y-20565519D01*
G37*
G36*
X-38139558Y-18025518D02*
X-38073373Y-18032037D01*
X-37960147Y-18066384D01*
X-37903533Y-18083557D01*
X-37764913Y-18157652D01*
X-37747009Y-18167222D01*
X-37711271Y-18196552D01*
X-37609814Y-18279814D01*
X-37526552Y-18381271D01*
X-37497222Y-18417009D01*
X-37497221Y-18417011D01*
X-37413557Y-18573533D01*
X-37413557Y-18573534D01*
X-37362037Y-18743373D01*
X-37344641Y-18920000D01*
X-37362037Y-19096627D01*
X-37396384Y-19209853D01*
X-37413557Y-19266467D01*
X-37487652Y-19405087D01*
X-37497222Y-19422991D01*
X-37526552Y-19458729D01*
X-37609814Y-19560186D01*
X-37711271Y-19643448D01*
X-37747009Y-19672778D01*
X-37747011Y-19672779D01*
X-37903533Y-19756443D01*
X-37960147Y-19773616D01*
X-38073373Y-19807963D01*
X-38139557Y-19814481D01*
X-38205740Y-19821000D01*
X-38294260Y-19821000D01*
X-38360443Y-19814481D01*
X-38426627Y-19807963D01*
X-38539853Y-19773616D01*
X-38596467Y-19756443D01*
X-38752989Y-19672779D01*
X-38752991Y-19672778D01*
X-38788729Y-19643448D01*
X-38890186Y-19560186D01*
X-38973448Y-19458729D01*
X-39002778Y-19422991D01*
X-39012348Y-19405087D01*
X-39086443Y-19266467D01*
X-39103616Y-19209853D01*
X-39137963Y-19096627D01*
X-39155359Y-18920000D01*
X-39137963Y-18743373D01*
X-39086443Y-18573534D01*
X-39086443Y-18573533D01*
X-39002779Y-18417011D01*
X-39002778Y-18417009D01*
X-38973448Y-18381271D01*
X-38890186Y-18279814D01*
X-38788729Y-18196552D01*
X-38752991Y-18167222D01*
X-38735087Y-18157652D01*
X-38596467Y-18083557D01*
X-38539853Y-18066384D01*
X-38426627Y-18032037D01*
X-38360442Y-18025518D01*
X-38294260Y-18019000D01*
X-38205740Y-18019000D01*
X-38139558Y-18025518D01*
X-38139558Y-18025518D01*
G37*
G36*
X-38139557Y-15485519D02*
X-38073373Y-15492037D01*
X-37960147Y-15526384D01*
X-37903533Y-15543557D01*
X-37779577Y-15609814D01*
X-37747009Y-15627222D01*
X-37711271Y-15656552D01*
X-37609814Y-15739814D01*
X-37526552Y-15841271D01*
X-37497222Y-15877009D01*
X-37497221Y-15877011D01*
X-37413557Y-16033533D01*
X-37413557Y-16033534D01*
X-37362037Y-16203373D01*
X-37344641Y-16380000D01*
X-37362037Y-16556627D01*
X-37396384Y-16669853D01*
X-37413557Y-16726467D01*
X-37427734Y-16752989D01*
X-37497222Y-16882991D01*
X-37503127Y-16890186D01*
X-37609814Y-17020186D01*
X-37690550Y-17086443D01*
X-37747009Y-17132778D01*
X-37747011Y-17132779D01*
X-37903533Y-17216443D01*
X-37960147Y-17233616D01*
X-38073373Y-17267963D01*
X-38139557Y-17274481D01*
X-38205740Y-17281000D01*
X-38294260Y-17281000D01*
X-38360443Y-17274481D01*
X-38426627Y-17267963D01*
X-38539853Y-17233616D01*
X-38596467Y-17216443D01*
X-38752989Y-17132779D01*
X-38752991Y-17132778D01*
X-38809450Y-17086443D01*
X-38890186Y-17020186D01*
X-38996873Y-16890186D01*
X-39002778Y-16882991D01*
X-39072266Y-16752989D01*
X-39086443Y-16726467D01*
X-39103616Y-16669853D01*
X-39137963Y-16556627D01*
X-39155359Y-16380000D01*
X-39137963Y-16203373D01*
X-39086443Y-16033534D01*
X-39086443Y-16033533D01*
X-39002779Y-15877011D01*
X-39002778Y-15877009D01*
X-38973448Y-15841271D01*
X-38890186Y-15739814D01*
X-38788729Y-15656552D01*
X-38752991Y-15627222D01*
X-38720423Y-15609814D01*
X-38596467Y-15543557D01*
X-38539853Y-15526384D01*
X-38426627Y-15492037D01*
X-38360443Y-15485519D01*
X-38294260Y-15479000D01*
X-38205740Y-15479000D01*
X-38139557Y-15485519D01*
X-38139557Y-15485519D01*
G37*
G36*
X-33849000Y-17151000D02*
X-35651000Y-17151000D01*
X-35651000Y-15349000D01*
X-33849000Y-15349000D01*
X-33849000Y-17151000D01*
X-33849000Y-17151000D01*
G37*
G36*
X-32099558Y-15355518D02*
X-32033373Y-15362037D01*
X-31920147Y-15396384D01*
X-31863533Y-15413557D01*
X-31741100Y-15479000D01*
X-31707009Y-15497222D01*
X-31671271Y-15526552D01*
X-31569814Y-15609814D01*
X-31486552Y-15711271D01*
X-31457222Y-15747009D01*
X-31457221Y-15747011D01*
X-31373557Y-15903533D01*
X-31373557Y-15903534D01*
X-31322037Y-16073373D01*
X-31304641Y-16250000D01*
X-31322037Y-16426627D01*
X-31356384Y-16539853D01*
X-31373557Y-16596467D01*
X-31447652Y-16735087D01*
X-31457222Y-16752991D01*
X-31486552Y-16788729D01*
X-31569814Y-16890186D01*
X-31671271Y-16973448D01*
X-31707009Y-17002778D01*
X-31707011Y-17002779D01*
X-31863533Y-17086443D01*
X-31920147Y-17103616D01*
X-32033373Y-17137963D01*
X-32099557Y-17144481D01*
X-32165740Y-17151000D01*
X-32254260Y-17151000D01*
X-32320443Y-17144481D01*
X-32386627Y-17137963D01*
X-32499853Y-17103616D01*
X-32556467Y-17086443D01*
X-32712989Y-17002779D01*
X-32712991Y-17002778D01*
X-32748729Y-16973448D01*
X-32850186Y-16890186D01*
X-32933448Y-16788729D01*
X-32962778Y-16752991D01*
X-32972348Y-16735087D01*
X-33046443Y-16596467D01*
X-33063616Y-16539853D01*
X-33097963Y-16426627D01*
X-33115359Y-16250000D01*
X-33097963Y-16073373D01*
X-33046443Y-15903534D01*
X-33046443Y-15903533D01*
X-32962779Y-15747011D01*
X-32962778Y-15747009D01*
X-32933448Y-15711271D01*
X-32850186Y-15609814D01*
X-32748729Y-15526552D01*
X-32712991Y-15497222D01*
X-32678900Y-15479000D01*
X-32556467Y-15413557D01*
X-32499853Y-15396384D01*
X-32386627Y-15362037D01*
X-32320442Y-15355518D01*
X-32254260Y-15349000D01*
X-32165740Y-15349000D01*
X-32099558Y-15355518D01*
X-32099558Y-15355518D01*
G37*
G36*
X-38139557Y-12945519D02*
X-38073373Y-12952037D01*
X-37960147Y-12986384D01*
X-37903533Y-13003557D01*
X-37764913Y-13077652D01*
X-37747009Y-13087222D01*
X-37711271Y-13116552D01*
X-37609814Y-13199814D01*
X-37526774Y-13301000D01*
X-37497222Y-13337009D01*
X-37497221Y-13337011D01*
X-37413557Y-13493533D01*
X-37413557Y-13493534D01*
X-37362037Y-13663373D01*
X-37344641Y-13840000D01*
X-37362037Y-14016627D01*
X-37396384Y-14129853D01*
X-37413557Y-14186467D01*
X-37487652Y-14325087D01*
X-37497222Y-14342991D01*
X-37526552Y-14378729D01*
X-37609814Y-14480186D01*
X-37711271Y-14563448D01*
X-37747009Y-14592778D01*
X-37747011Y-14592779D01*
X-37903533Y-14676443D01*
X-37960147Y-14693616D01*
X-38073373Y-14727963D01*
X-38139558Y-14734482D01*
X-38205740Y-14741000D01*
X-38294260Y-14741000D01*
X-38360442Y-14734482D01*
X-38426627Y-14727963D01*
X-38539853Y-14693616D01*
X-38596467Y-14676443D01*
X-38752989Y-14592779D01*
X-38752991Y-14592778D01*
X-38788729Y-14563448D01*
X-38890186Y-14480186D01*
X-38973448Y-14378729D01*
X-39002778Y-14342991D01*
X-39012348Y-14325087D01*
X-39086443Y-14186467D01*
X-39103616Y-14129853D01*
X-39137963Y-14016627D01*
X-39155359Y-13840000D01*
X-39137963Y-13663373D01*
X-39086443Y-13493534D01*
X-39086443Y-13493533D01*
X-39002779Y-13337011D01*
X-39002778Y-13337009D01*
X-38973226Y-13301000D01*
X-38890186Y-13199814D01*
X-38788729Y-13116552D01*
X-38752991Y-13087222D01*
X-38735087Y-13077652D01*
X-38596467Y-13003557D01*
X-38539853Y-12986384D01*
X-38426627Y-12952037D01*
X-38360443Y-12945519D01*
X-38294260Y-12939000D01*
X-38205740Y-12939000D01*
X-38139557Y-12945519D01*
X-38139557Y-12945519D01*
G37*
G36*
X6901000Y-13711000D02*
X5799000Y-13711000D01*
X5799000Y-11099000D01*
X6901000Y-11099000D01*
X6901000Y-13711000D01*
X6901000Y-13711000D01*
G37*
G36*
X-3259000Y-13711000D02*
X-4361000Y-13711000D01*
X-4361000Y-11099000D01*
X-3259000Y-11099000D01*
X-3259000Y-13711000D01*
X-3259000Y-13711000D01*
G37*
G36*
X1821000Y-13711000D02*
X719000Y-13711000D01*
X719000Y-11099000D01*
X1821000Y-11099000D01*
X1821000Y-13711000D01*
X1821000Y-13711000D01*
G37*
G36*
X24129485Y-10748996D02*
X24129487Y-10748997D01*
X24129488Y-10748997D01*
X24221769Y-10787221D01*
X24366255Y-10847069D01*
X24579342Y-10989449D01*
X24760551Y-11170658D01*
X24902931Y-11383745D01*
X25001004Y-11620515D01*
X25051000Y-11871861D01*
X25051000Y-12128139D01*
X25001004Y-12379485D01*
X24902931Y-12616255D01*
X24760551Y-12829342D01*
X24579342Y-13010551D01*
X24579339Y-13010553D01*
X24366255Y-13152931D01*
X24129488Y-13251003D01*
X24129487Y-13251003D01*
X24129485Y-13251004D01*
X23878139Y-13301000D01*
X23621861Y-13301000D01*
X23370515Y-13251004D01*
X23370513Y-13251003D01*
X23370512Y-13251003D01*
X23133745Y-13152931D01*
X22920661Y-13010553D01*
X22920658Y-13010551D01*
X22739449Y-12829342D01*
X22597069Y-12616255D01*
X22498996Y-12379485D01*
X22449000Y-12128139D01*
X22449000Y-11871861D01*
X22498996Y-11620515D01*
X22597069Y-11383745D01*
X22739449Y-11170658D01*
X22920658Y-10989449D01*
X23133745Y-10847069D01*
X23278231Y-10787221D01*
X23370512Y-10748997D01*
X23370513Y-10748997D01*
X23370515Y-10748996D01*
X23621861Y-10699000D01*
X23878139Y-10699000D01*
X24129485Y-10748996D01*
X24129485Y-10748996D01*
G37*
G36*
X32360442Y-10645518D02*
X32426627Y-10652037D01*
X32539853Y-10686384D01*
X32596467Y-10703557D01*
X32681476Y-10748996D01*
X32752991Y-10787222D01*
X32788729Y-10816552D01*
X32890186Y-10899814D01*
X32963745Y-10989447D01*
X33002778Y-11037009D01*
X33002779Y-11037011D01*
X33086443Y-11193533D01*
X33086443Y-11193534D01*
X33137963Y-11363373D01*
X33155359Y-11540000D01*
X33137963Y-11716627D01*
X33103616Y-11829853D01*
X33086443Y-11886467D01*
X33012348Y-12025087D01*
X33002778Y-12042991D01*
X32973448Y-12078729D01*
X32890186Y-12180186D01*
X32788729Y-12263448D01*
X32752991Y-12292778D01*
X32752989Y-12292779D01*
X32596467Y-12376443D01*
X32539853Y-12393616D01*
X32426627Y-12427963D01*
X32360442Y-12434482D01*
X32294260Y-12441000D01*
X32205740Y-12441000D01*
X32139558Y-12434482D01*
X32073373Y-12427963D01*
X31960147Y-12393616D01*
X31903533Y-12376443D01*
X31747011Y-12292779D01*
X31747009Y-12292778D01*
X31711271Y-12263448D01*
X31609814Y-12180186D01*
X31526552Y-12078729D01*
X31497222Y-12042991D01*
X31487652Y-12025087D01*
X31413557Y-11886467D01*
X31396384Y-11829853D01*
X31362037Y-11716627D01*
X31344641Y-11540000D01*
X31362037Y-11363373D01*
X31413557Y-11193534D01*
X31413557Y-11193533D01*
X31497221Y-11037011D01*
X31497222Y-11037009D01*
X31536255Y-10989447D01*
X31609814Y-10899814D01*
X31711271Y-10816552D01*
X31747009Y-10787222D01*
X31818524Y-10748996D01*
X31903533Y-10703557D01*
X31960147Y-10686384D01*
X32073373Y-10652037D01*
X32139558Y-10645518D01*
X32205740Y-10639000D01*
X32294260Y-10639000D01*
X32360442Y-10645518D01*
X32360442Y-10645518D01*
G37*
G36*
X-37349000Y-12201000D02*
X-39151000Y-12201000D01*
X-39151000Y-10399000D01*
X-37349000Y-10399000D01*
X-37349000Y-12201000D01*
X-37349000Y-12201000D01*
G37*
G36*
X-719000Y-10401000D02*
X-1821000Y-10401000D01*
X-1821000Y-7789000D01*
X-719000Y-7789000D01*
X-719000Y-10401000D01*
X-719000Y-10401000D01*
G37*
G36*
X-5799000Y-10401000D02*
X-6901000Y-10401000D01*
X-6901000Y-7789000D01*
X-5799000Y-7789000D01*
X-5799000Y-10401000D01*
X-5799000Y-10401000D01*
G37*
G36*
X4361000Y-10401000D02*
X3259000Y-10401000D01*
X3259000Y-7789000D01*
X4361000Y-7789000D01*
X4361000Y-10401000D01*
X4361000Y-10401000D01*
G37*
G36*
X33151000Y-9901000D02*
X31349000Y-9901000D01*
X31349000Y-8099000D01*
X33151000Y-8099000D01*
X33151000Y-9901000D01*
X33151000Y-9901000D01*
G37*
G36*
X24129485Y-7248996D02*
X24129487Y-7248997D01*
X24129488Y-7248997D01*
X24325105Y-7330024D01*
X24366255Y-7347069D01*
X24579342Y-7489449D01*
X24760551Y-7670658D01*
X24902931Y-7883745D01*
X25001004Y-8120515D01*
X25051000Y-8371861D01*
X25051000Y-8628139D01*
X25013560Y-8816363D01*
X25001003Y-8879488D01*
X24946690Y-9010611D01*
X24902931Y-9116255D01*
X24760551Y-9329342D01*
X24579342Y-9510551D01*
X24579339Y-9510553D01*
X24366255Y-9652931D01*
X24129488Y-9751003D01*
X24129487Y-9751003D01*
X24129485Y-9751004D01*
X23878139Y-9801000D01*
X23621861Y-9801000D01*
X23370515Y-9751004D01*
X23370513Y-9751003D01*
X23370512Y-9751003D01*
X23133745Y-9652931D01*
X22920661Y-9510553D01*
X22920658Y-9510551D01*
X22739449Y-9329342D01*
X22597069Y-9116255D01*
X22553310Y-9010611D01*
X22498997Y-8879488D01*
X22486441Y-8816363D01*
X22449000Y-8628139D01*
X22449000Y-8371861D01*
X22498996Y-8120515D01*
X22597069Y-7883745D01*
X22739449Y-7670658D01*
X22920658Y-7489449D01*
X23133745Y-7347069D01*
X23174895Y-7330024D01*
X23370512Y-7248997D01*
X23370513Y-7248997D01*
X23370515Y-7248996D01*
X23621861Y-7199000D01*
X23878139Y-7199000D01*
X24129485Y-7248996D01*
X24129485Y-7248996D01*
G37*
G36*
X30092091Y-8478085D02*
X30126069Y-8488393D01*
X30157387Y-8505133D01*
X30184839Y-8527661D01*
X30207367Y-8555113D01*
X30224107Y-8586431D01*
X30234415Y-8620409D01*
X30238500Y-8661890D01*
X30238500Y-9338110D01*
X30234415Y-9379591D01*
X30224107Y-9413569D01*
X30207367Y-9444887D01*
X30184839Y-9472339D01*
X30157387Y-9494867D01*
X30126069Y-9511607D01*
X30092091Y-9521915D01*
X30050610Y-9526000D01*
X29449390Y-9526000D01*
X29407909Y-9521915D01*
X29373931Y-9511607D01*
X29342613Y-9494867D01*
X29315161Y-9472339D01*
X29292633Y-9444887D01*
X29275893Y-9413569D01*
X29265585Y-9379591D01*
X29261500Y-9338110D01*
X29261500Y-8661890D01*
X29265585Y-8620409D01*
X29275893Y-8586431D01*
X29292633Y-8555113D01*
X29315161Y-8527661D01*
X29342613Y-8505133D01*
X29373931Y-8488393D01*
X29407909Y-8478085D01*
X29449390Y-8474000D01*
X30050610Y-8474000D01*
X30092091Y-8478085D01*
X30092091Y-8478085D01*
G37*
G36*
X28517091Y-8478085D02*
X28551069Y-8488393D01*
X28582387Y-8505133D01*
X28609839Y-8527661D01*
X28632367Y-8555113D01*
X28649107Y-8586431D01*
X28659415Y-8620409D01*
X28663500Y-8661890D01*
X28663500Y-9338110D01*
X28659415Y-9379591D01*
X28649107Y-9413569D01*
X28632367Y-9444887D01*
X28609839Y-9472339D01*
X28582387Y-9494867D01*
X28551069Y-9511607D01*
X28517091Y-9521915D01*
X28475610Y-9526000D01*
X27874390Y-9526000D01*
X27832909Y-9521915D01*
X27798931Y-9511607D01*
X27767613Y-9494867D01*
X27740161Y-9472339D01*
X27717633Y-9444887D01*
X27700893Y-9413569D01*
X27690585Y-9379591D01*
X27686500Y-9338110D01*
X27686500Y-8661890D01*
X27690585Y-8620409D01*
X27700893Y-8586431D01*
X27717633Y-8555113D01*
X27740161Y-8527661D01*
X27767613Y-8505133D01*
X27798931Y-8488393D01*
X27832909Y-8478085D01*
X27874390Y-8474000D01*
X28475610Y-8474000D01*
X28517091Y-8478085D01*
X28517091Y-8478085D01*
G37*
G36*
X-33693435Y-6989389D02*
X-33502166Y-7068615D01*
X-33330024Y-7183637D01*
X-33183637Y-7330024D01*
X-33068615Y-7502166D01*
X-32989389Y-7693435D01*
X-32949000Y-7896484D01*
X-32949000Y-8103516D01*
X-32989389Y-8306565D01*
X-33068615Y-8497834D01*
X-33183637Y-8669976D01*
X-33330024Y-8816363D01*
X-33502166Y-8931385D01*
X-33693435Y-9010611D01*
X-33896484Y-9051000D01*
X-34103516Y-9051000D01*
X-34306565Y-9010611D01*
X-34497834Y-8931385D01*
X-34669976Y-8816363D01*
X-34816363Y-8669976D01*
X-34931385Y-8497834D01*
X-35010611Y-8306565D01*
X-35051000Y-8103516D01*
X-35051000Y-7896484D01*
X-35010611Y-7693435D01*
X-34931385Y-7502166D01*
X-34816363Y-7330024D01*
X-34669976Y-7183637D01*
X-34497834Y-7068615D01*
X-34306565Y-6989389D01*
X-34103516Y-6949000D01*
X-33896484Y-6949000D01*
X-33693435Y-6989389D01*
X-33693435Y-6989389D01*
G37*
G36*
X-38193435Y-6989389D02*
X-38002166Y-7068615D01*
X-37830024Y-7183637D01*
X-37683637Y-7330024D01*
X-37568615Y-7502166D01*
X-37489389Y-7693435D01*
X-37449000Y-7896484D01*
X-37449000Y-8103516D01*
X-37489389Y-8306565D01*
X-37568615Y-8497834D01*
X-37683637Y-8669976D01*
X-37830024Y-8816363D01*
X-38002166Y-8931385D01*
X-38193435Y-9010611D01*
X-38396484Y-9051000D01*
X-38603516Y-9051000D01*
X-38806565Y-9010611D01*
X-38997834Y-8931385D01*
X-39169976Y-8816363D01*
X-39316363Y-8669976D01*
X-39431385Y-8497834D01*
X-39510611Y-8306565D01*
X-39551000Y-8103516D01*
X-39551000Y-7896484D01*
X-39510611Y-7693435D01*
X-39431385Y-7502166D01*
X-39316363Y-7330024D01*
X-39169976Y-7183637D01*
X-38997834Y-7068615D01*
X-38806565Y-6989389D01*
X-38603516Y-6949000D01*
X-38396484Y-6949000D01*
X-38193435Y-6989389D01*
X-38193435Y-6989389D01*
G37*
G36*
X18167091Y-7478085D02*
X18201069Y-7488393D01*
X18232387Y-7505133D01*
X18259839Y-7527661D01*
X18282367Y-7555113D01*
X18299107Y-7586431D01*
X18309415Y-7620409D01*
X18313500Y-7661890D01*
X18313500Y-8338110D01*
X18309415Y-8379591D01*
X18299107Y-8413569D01*
X18282367Y-8444887D01*
X18259839Y-8472339D01*
X18232387Y-8494867D01*
X18201069Y-8511607D01*
X18167091Y-8521915D01*
X18125610Y-8526000D01*
X17524390Y-8526000D01*
X17482909Y-8521915D01*
X17448931Y-8511607D01*
X17417613Y-8494867D01*
X17390161Y-8472339D01*
X17367633Y-8444887D01*
X17350893Y-8413569D01*
X17340585Y-8379591D01*
X17336500Y-8338110D01*
X17336500Y-7661890D01*
X17340585Y-7620409D01*
X17350893Y-7586431D01*
X17367633Y-7555113D01*
X17390161Y-7527661D01*
X17417613Y-7505133D01*
X17448931Y-7488393D01*
X17482909Y-7478085D01*
X17524390Y-7474000D01*
X18125610Y-7474000D01*
X18167091Y-7478085D01*
X18167091Y-7478085D01*
G37*
G36*
X16592091Y-7478085D02*
X16626069Y-7488393D01*
X16657387Y-7505133D01*
X16684839Y-7527661D01*
X16707367Y-7555113D01*
X16724107Y-7586431D01*
X16734415Y-7620409D01*
X16738500Y-7661890D01*
X16738500Y-8338110D01*
X16734415Y-8379591D01*
X16724107Y-8413569D01*
X16707367Y-8444887D01*
X16684839Y-8472339D01*
X16657387Y-8494867D01*
X16626069Y-8511607D01*
X16592091Y-8521915D01*
X16550610Y-8526000D01*
X15949390Y-8526000D01*
X15907909Y-8521915D01*
X15873931Y-8511607D01*
X15842613Y-8494867D01*
X15815161Y-8472339D01*
X15792633Y-8444887D01*
X15775893Y-8413569D01*
X15765585Y-8379591D01*
X15761500Y-8338110D01*
X15761500Y-7661890D01*
X15765585Y-7620409D01*
X15775893Y-7586431D01*
X15792633Y-7555113D01*
X15815161Y-7527661D01*
X15842613Y-7505133D01*
X15873931Y-7488393D01*
X15907909Y-7478085D01*
X15949390Y-7474000D01*
X16550610Y-7474000D01*
X16592091Y-7478085D01*
X16592091Y-7478085D01*
G37*
G36*
X47151000Y-8521000D02*
X45349000Y-8521000D01*
X45349000Y-6719000D01*
X47151000Y-6719000D01*
X47151000Y-8521000D01*
X47151000Y-8521000D01*
G37*
G36*
X17879591Y-6090585D02*
X17913569Y-6100893D01*
X17944887Y-6117633D01*
X17972339Y-6140161D01*
X17994867Y-6167613D01*
X18011607Y-6198931D01*
X18021915Y-6232909D01*
X18026000Y-6274390D01*
X18026000Y-6875610D01*
X18021915Y-6917091D01*
X18011607Y-6951069D01*
X17994867Y-6982387D01*
X17972339Y-7009839D01*
X17944887Y-7032367D01*
X17913569Y-7049107D01*
X17879591Y-7059415D01*
X17838110Y-7063500D01*
X17161890Y-7063500D01*
X17120409Y-7059415D01*
X17086431Y-7049107D01*
X17055113Y-7032367D01*
X17027661Y-7009839D01*
X17005133Y-6982387D01*
X16988393Y-6951069D01*
X16978085Y-6917091D01*
X16974000Y-6875610D01*
X16974000Y-6274390D01*
X16978085Y-6232909D01*
X16988393Y-6198931D01*
X17005133Y-6167613D01*
X17027661Y-6140161D01*
X17055113Y-6117633D01*
X17086431Y-6100893D01*
X17120409Y-6090585D01*
X17161890Y-6086500D01*
X17838110Y-6086500D01*
X17879591Y-6090585D01*
X17879591Y-6090585D01*
G37*
G36*
X30092091Y-5978085D02*
X30126069Y-5988393D01*
X30157387Y-6005133D01*
X30184839Y-6027661D01*
X30207367Y-6055113D01*
X30224107Y-6086431D01*
X30234415Y-6120409D01*
X30238500Y-6161890D01*
X30238500Y-6838110D01*
X30234415Y-6879591D01*
X30224107Y-6913569D01*
X30207367Y-6944887D01*
X30184839Y-6972339D01*
X30157387Y-6994867D01*
X30126069Y-7011607D01*
X30092091Y-7021915D01*
X30050610Y-7026000D01*
X29449390Y-7026000D01*
X29407909Y-7021915D01*
X29373931Y-7011607D01*
X29342613Y-6994867D01*
X29315161Y-6972339D01*
X29292633Y-6944887D01*
X29275893Y-6913569D01*
X29265585Y-6879591D01*
X29261500Y-6838110D01*
X29261500Y-6161890D01*
X29265585Y-6120409D01*
X29275893Y-6086431D01*
X29292633Y-6055113D01*
X29315161Y-6027661D01*
X29342613Y-6005133D01*
X29373931Y-5988393D01*
X29407909Y-5978085D01*
X29449390Y-5974000D01*
X30050610Y-5974000D01*
X30092091Y-5978085D01*
X30092091Y-5978085D01*
G37*
G36*
X31667091Y-5978085D02*
X31701069Y-5988393D01*
X31732387Y-6005133D01*
X31759839Y-6027661D01*
X31782367Y-6055113D01*
X31799107Y-6086431D01*
X31809415Y-6120409D01*
X31813500Y-6161890D01*
X31813500Y-6838110D01*
X31809415Y-6879591D01*
X31799107Y-6913569D01*
X31782367Y-6944887D01*
X31759839Y-6972339D01*
X31732387Y-6994867D01*
X31701069Y-7011607D01*
X31667091Y-7021915D01*
X31625610Y-7026000D01*
X31024390Y-7026000D01*
X30982909Y-7021915D01*
X30948931Y-7011607D01*
X30917613Y-6994867D01*
X30890161Y-6972339D01*
X30867633Y-6944887D01*
X30850893Y-6913569D01*
X30840585Y-6879591D01*
X30836500Y-6838110D01*
X30836500Y-6161890D01*
X30840585Y-6120409D01*
X30850893Y-6086431D01*
X30867633Y-6055113D01*
X30890161Y-6027661D01*
X30917613Y-6005133D01*
X30948931Y-5988393D01*
X30982909Y-5978085D01*
X31024390Y-5974000D01*
X31625610Y-5974000D01*
X31667091Y-5978085D01*
X31667091Y-5978085D01*
G37*
G36*
X20170293Y-4850323D02*
X20177311Y-4852452D01*
X20191080Y-4859811D01*
X20213719Y-4869187D01*
X20237753Y-4873967D01*
X20262257Y-4873966D01*
X20286290Y-4869184D01*
X20308920Y-4859811D01*
X20322689Y-4852452D01*
X20329707Y-4850323D01*
X20343140Y-4849000D01*
X20656860Y-4849000D01*
X20670293Y-4850323D01*
X20677311Y-4852452D01*
X20691080Y-4859811D01*
X20713719Y-4869187D01*
X20737753Y-4873967D01*
X20762257Y-4873966D01*
X20786290Y-4869184D01*
X20808920Y-4859811D01*
X20822689Y-4852452D01*
X20829707Y-4850323D01*
X20843140Y-4849000D01*
X21156860Y-4849000D01*
X21170293Y-4850323D01*
X21177311Y-4852452D01*
X21191080Y-4859811D01*
X21213719Y-4869187D01*
X21237753Y-4873967D01*
X21262257Y-4873966D01*
X21286290Y-4869184D01*
X21308920Y-4859811D01*
X21322689Y-4852452D01*
X21329707Y-4850323D01*
X21343140Y-4849000D01*
X21656860Y-4849000D01*
X21670293Y-4850323D01*
X21677311Y-4852452D01*
X21691080Y-4859811D01*
X21713719Y-4869187D01*
X21737753Y-4873967D01*
X21762257Y-4873966D01*
X21786290Y-4869184D01*
X21808920Y-4859811D01*
X21822689Y-4852452D01*
X21829707Y-4850323D01*
X21843140Y-4849000D01*
X22156860Y-4849000D01*
X22170293Y-4850323D01*
X22177311Y-4852452D01*
X22191080Y-4859811D01*
X22213719Y-4869187D01*
X22237753Y-4873967D01*
X22262257Y-4873966D01*
X22286290Y-4869184D01*
X22308920Y-4859811D01*
X22322689Y-4852452D01*
X22329707Y-4850323D01*
X22343140Y-4849000D01*
X22656860Y-4849000D01*
X22670293Y-4850323D01*
X22677311Y-4852452D01*
X22691080Y-4859811D01*
X22713719Y-4869187D01*
X22737753Y-4873967D01*
X22762257Y-4873966D01*
X22786290Y-4869184D01*
X22808920Y-4859811D01*
X22822689Y-4852452D01*
X22829707Y-4850323D01*
X22843140Y-4849000D01*
X23156860Y-4849000D01*
X23170293Y-4850323D01*
X23177311Y-4852452D01*
X23191080Y-4859811D01*
X23213719Y-4869187D01*
X23237753Y-4873967D01*
X23262257Y-4873966D01*
X23286290Y-4869184D01*
X23308920Y-4859811D01*
X23322689Y-4852452D01*
X23329707Y-4850323D01*
X23343140Y-4849000D01*
X23656860Y-4849000D01*
X23670293Y-4850323D01*
X23677311Y-4852452D01*
X23691080Y-4859811D01*
X23713719Y-4869187D01*
X23737753Y-4873967D01*
X23762257Y-4873966D01*
X23786290Y-4869184D01*
X23808920Y-4859811D01*
X23822689Y-4852452D01*
X23829707Y-4850323D01*
X23843140Y-4849000D01*
X24156860Y-4849000D01*
X24170293Y-4850323D01*
X24177311Y-4852452D01*
X24191080Y-4859811D01*
X24213719Y-4869187D01*
X24237753Y-4873967D01*
X24262257Y-4873966D01*
X24286290Y-4869184D01*
X24308920Y-4859811D01*
X24322689Y-4852452D01*
X24329707Y-4850323D01*
X24343140Y-4849000D01*
X24656860Y-4849000D01*
X24670293Y-4850323D01*
X24677311Y-4852452D01*
X24691080Y-4859811D01*
X24713719Y-4869187D01*
X24737753Y-4873967D01*
X24762257Y-4873966D01*
X24786290Y-4869184D01*
X24808920Y-4859811D01*
X24822689Y-4852452D01*
X24829707Y-4850323D01*
X24843140Y-4849000D01*
X25156860Y-4849000D01*
X25170293Y-4850323D01*
X25177311Y-4852452D01*
X25191080Y-4859811D01*
X25213719Y-4869187D01*
X25237753Y-4873967D01*
X25262257Y-4873966D01*
X25286290Y-4869184D01*
X25308920Y-4859811D01*
X25322689Y-4852452D01*
X25329707Y-4850323D01*
X25343140Y-4849000D01*
X25656860Y-4849000D01*
X25670293Y-4850323D01*
X25677311Y-4852452D01*
X25691080Y-4859811D01*
X25713719Y-4869187D01*
X25737753Y-4873967D01*
X25762257Y-4873966D01*
X25786290Y-4869184D01*
X25808920Y-4859811D01*
X25822689Y-4852452D01*
X25829707Y-4850323D01*
X25843140Y-4849000D01*
X26156860Y-4849000D01*
X26170293Y-4850323D01*
X26177311Y-4852452D01*
X26191080Y-4859811D01*
X26213719Y-4869187D01*
X26237753Y-4873967D01*
X26262257Y-4873966D01*
X26286290Y-4869184D01*
X26308920Y-4859811D01*
X26322689Y-4852452D01*
X26329707Y-4850323D01*
X26343140Y-4849000D01*
X26656860Y-4849000D01*
X26670293Y-4850323D01*
X26677311Y-4852452D01*
X26691080Y-4859811D01*
X26713719Y-4869187D01*
X26737753Y-4873967D01*
X26762257Y-4873966D01*
X26786290Y-4869184D01*
X26808920Y-4859811D01*
X26822689Y-4852452D01*
X26829707Y-4850323D01*
X26843140Y-4849000D01*
X27156860Y-4849000D01*
X27170293Y-4850323D01*
X27177311Y-4852452D01*
X27191080Y-4859811D01*
X27213719Y-4869187D01*
X27237753Y-4873967D01*
X27262257Y-4873966D01*
X27286290Y-4869184D01*
X27308920Y-4859811D01*
X27322689Y-4852452D01*
X27329707Y-4850323D01*
X27343140Y-4849000D01*
X27656860Y-4849000D01*
X27670293Y-4850323D01*
X27677312Y-4852452D01*
X27683775Y-4855907D01*
X27689442Y-4860558D01*
X27694093Y-4866225D01*
X27697548Y-4872688D01*
X27699677Y-4879707D01*
X27701000Y-4893140D01*
X27701000Y-6456860D01*
X27699677Y-6470293D01*
X27697548Y-6477312D01*
X27694093Y-6483775D01*
X27689442Y-6489442D01*
X27683775Y-6494093D01*
X27677312Y-6497548D01*
X27670293Y-6499677D01*
X27656860Y-6501000D01*
X27343140Y-6501000D01*
X27329707Y-6499677D01*
X27322689Y-6497548D01*
X27308920Y-6490189D01*
X27286281Y-6480813D01*
X27262247Y-6476033D01*
X27237743Y-6476034D01*
X27213710Y-6480816D01*
X27191080Y-6490189D01*
X27177311Y-6497548D01*
X27170293Y-6499677D01*
X27156860Y-6501000D01*
X26843140Y-6501000D01*
X26829707Y-6499677D01*
X26822689Y-6497548D01*
X26808920Y-6490189D01*
X26786281Y-6480813D01*
X26762247Y-6476033D01*
X26737743Y-6476034D01*
X26713710Y-6480816D01*
X26691080Y-6490189D01*
X26677311Y-6497548D01*
X26670293Y-6499677D01*
X26656860Y-6501000D01*
X26343140Y-6501000D01*
X26329707Y-6499677D01*
X26322689Y-6497548D01*
X26308920Y-6490189D01*
X26286281Y-6480813D01*
X26262247Y-6476033D01*
X26237743Y-6476034D01*
X26213710Y-6480816D01*
X26191080Y-6490189D01*
X26177311Y-6497548D01*
X26170293Y-6499677D01*
X26156860Y-6501000D01*
X25843140Y-6501000D01*
X25829707Y-6499677D01*
X25822689Y-6497548D01*
X25808920Y-6490189D01*
X25786281Y-6480813D01*
X25762247Y-6476033D01*
X25737743Y-6476034D01*
X25713710Y-6480816D01*
X25691080Y-6490189D01*
X25677311Y-6497548D01*
X25670293Y-6499677D01*
X25656860Y-6501000D01*
X25343140Y-6501000D01*
X25329707Y-6499677D01*
X25322689Y-6497548D01*
X25308920Y-6490189D01*
X25286281Y-6480813D01*
X25262247Y-6476033D01*
X25237743Y-6476034D01*
X25213710Y-6480816D01*
X25191080Y-6490189D01*
X25177311Y-6497548D01*
X25170293Y-6499677D01*
X25156860Y-6501000D01*
X24843140Y-6501000D01*
X24829707Y-6499677D01*
X24822689Y-6497548D01*
X24808920Y-6490189D01*
X24786281Y-6480813D01*
X24762247Y-6476033D01*
X24737743Y-6476034D01*
X24713710Y-6480816D01*
X24691080Y-6490189D01*
X24677311Y-6497548D01*
X24670293Y-6499677D01*
X24656860Y-6501000D01*
X24343140Y-6501000D01*
X24329707Y-6499677D01*
X24322689Y-6497548D01*
X24308920Y-6490189D01*
X24286281Y-6480813D01*
X24262247Y-6476033D01*
X24237743Y-6476034D01*
X24213710Y-6480816D01*
X24191080Y-6490189D01*
X24177311Y-6497548D01*
X24170293Y-6499677D01*
X24156860Y-6501000D01*
X23843140Y-6501000D01*
X23829707Y-6499677D01*
X23822689Y-6497548D01*
X23808920Y-6490189D01*
X23786281Y-6480813D01*
X23762247Y-6476033D01*
X23737743Y-6476034D01*
X23713710Y-6480816D01*
X23691080Y-6490189D01*
X23677311Y-6497548D01*
X23670293Y-6499677D01*
X23656860Y-6501000D01*
X23343140Y-6501000D01*
X23329707Y-6499677D01*
X23322689Y-6497548D01*
X23308920Y-6490189D01*
X23286281Y-6480813D01*
X23262247Y-6476033D01*
X23237743Y-6476034D01*
X23213710Y-6480816D01*
X23191080Y-6490189D01*
X23177311Y-6497548D01*
X23170293Y-6499677D01*
X23156860Y-6501000D01*
X22843140Y-6501000D01*
X22829707Y-6499677D01*
X22822689Y-6497548D01*
X22808920Y-6490189D01*
X22786281Y-6480813D01*
X22762247Y-6476033D01*
X22737743Y-6476034D01*
X22713710Y-6480816D01*
X22691080Y-6490189D01*
X22677311Y-6497548D01*
X22670293Y-6499677D01*
X22656860Y-6501000D01*
X22343140Y-6501000D01*
X22329707Y-6499677D01*
X22322689Y-6497548D01*
X22308920Y-6490189D01*
X22286281Y-6480813D01*
X22262247Y-6476033D01*
X22237743Y-6476034D01*
X22213710Y-6480816D01*
X22191080Y-6490189D01*
X22177311Y-6497548D01*
X22170293Y-6499677D01*
X22156860Y-6501000D01*
X21843140Y-6501000D01*
X21829707Y-6499677D01*
X21822689Y-6497548D01*
X21808920Y-6490189D01*
X21786281Y-6480813D01*
X21762247Y-6476033D01*
X21737743Y-6476034D01*
X21713710Y-6480816D01*
X21691080Y-6490189D01*
X21677311Y-6497548D01*
X21670293Y-6499677D01*
X21656860Y-6501000D01*
X21343140Y-6501000D01*
X21329707Y-6499677D01*
X21322689Y-6497548D01*
X21308920Y-6490189D01*
X21286281Y-6480813D01*
X21262247Y-6476033D01*
X21237743Y-6476034D01*
X21213710Y-6480816D01*
X21191080Y-6490189D01*
X21177311Y-6497548D01*
X21170293Y-6499677D01*
X21156860Y-6501000D01*
X20843140Y-6501000D01*
X20829707Y-6499677D01*
X20822689Y-6497548D01*
X20808920Y-6490189D01*
X20786281Y-6480813D01*
X20762247Y-6476033D01*
X20737743Y-6476034D01*
X20713710Y-6480816D01*
X20691080Y-6490189D01*
X20677311Y-6497548D01*
X20670293Y-6499677D01*
X20656860Y-6501000D01*
X20343140Y-6501000D01*
X20329707Y-6499677D01*
X20322689Y-6497548D01*
X20308920Y-6490189D01*
X20286281Y-6480813D01*
X20262247Y-6476033D01*
X20237743Y-6476034D01*
X20213710Y-6480816D01*
X20191080Y-6490189D01*
X20177311Y-6497548D01*
X20170293Y-6499677D01*
X20156860Y-6501000D01*
X19843140Y-6501000D01*
X19829707Y-6499677D01*
X19822688Y-6497548D01*
X19816225Y-6494093D01*
X19810558Y-6489442D01*
X19805907Y-6483775D01*
X19802452Y-6477312D01*
X19800323Y-6470293D01*
X19799000Y-6456860D01*
X19799000Y-4893140D01*
X19800323Y-4879707D01*
X19802452Y-4872688D01*
X19805907Y-4866225D01*
X19810558Y-4860558D01*
X19816225Y-4855907D01*
X19822688Y-4852452D01*
X19829707Y-4850323D01*
X19843140Y-4849000D01*
X20156860Y-4849000D01*
X20170293Y-4850323D01*
X20170293Y-4850323D01*
G37*
G36*
X-11581396Y-3378347D02*
X-11544855Y-3389432D01*
X-11511180Y-3407431D01*
X-11481659Y-3431659D01*
X-11457431Y-3461180D01*
X-11439432Y-3494855D01*
X-11428347Y-3531396D01*
X-11424000Y-3575538D01*
X-11424000Y-5924462D01*
X-11428347Y-5968604D01*
X-11439432Y-6005145D01*
X-11457431Y-6038820D01*
X-11481659Y-6068341D01*
X-11511180Y-6092569D01*
X-11544855Y-6110568D01*
X-11581396Y-6121653D01*
X-11625538Y-6126000D01*
X-12574462Y-6126000D01*
X-12618604Y-6121653D01*
X-12655145Y-6110568D01*
X-12688820Y-6092569D01*
X-12718341Y-6068341D01*
X-12742569Y-6038820D01*
X-12760568Y-6005145D01*
X-12771653Y-5968604D01*
X-12776000Y-5924462D01*
X-12776000Y-3575538D01*
X-12771653Y-3531396D01*
X-12760568Y-3494855D01*
X-12742569Y-3461180D01*
X-12718341Y-3431659D01*
X-12688820Y-3407431D01*
X-12655145Y-3389432D01*
X-12618604Y-3378347D01*
X-12574462Y-3374000D01*
X-11625538Y-3374000D01*
X-11581396Y-3378347D01*
X-11581396Y-3378347D01*
G37*
G36*
X-14381396Y-3378347D02*
X-14344855Y-3389432D01*
X-14311180Y-3407431D01*
X-14281659Y-3431659D01*
X-14257431Y-3461180D01*
X-14239432Y-3494855D01*
X-14228347Y-3531396D01*
X-14224000Y-3575538D01*
X-14224000Y-5924462D01*
X-14228347Y-5968604D01*
X-14239432Y-6005145D01*
X-14257431Y-6038820D01*
X-14281659Y-6068341D01*
X-14311180Y-6092569D01*
X-14344855Y-6110568D01*
X-14381396Y-6121653D01*
X-14425538Y-6126000D01*
X-15374462Y-6126000D01*
X-15418604Y-6121653D01*
X-15455145Y-6110568D01*
X-15488820Y-6092569D01*
X-15518341Y-6068341D01*
X-15542569Y-6038820D01*
X-15560568Y-6005145D01*
X-15571653Y-5968604D01*
X-15576000Y-5924462D01*
X-15576000Y-3575538D01*
X-15571653Y-3531396D01*
X-15560568Y-3494855D01*
X-15542569Y-3461180D01*
X-15518341Y-3431659D01*
X-15488820Y-3407431D01*
X-15455145Y-3389432D01*
X-15418604Y-3378347D01*
X-15374462Y-3374000D01*
X-14425538Y-3374000D01*
X-14381396Y-3378347D01*
X-14381396Y-3378347D01*
G37*
G36*
X-9870409Y-5090585D02*
X-9836431Y-5100893D01*
X-9805113Y-5117633D01*
X-9777661Y-5140161D01*
X-9755133Y-5167613D01*
X-9738393Y-5198931D01*
X-9728085Y-5232909D01*
X-9724000Y-5274390D01*
X-9724000Y-5875610D01*
X-9728085Y-5917091D01*
X-9738393Y-5951069D01*
X-9755133Y-5982387D01*
X-9777661Y-6009839D01*
X-9805113Y-6032367D01*
X-9836431Y-6049107D01*
X-9870409Y-6059415D01*
X-9911890Y-6063500D01*
X-10588110Y-6063500D01*
X-10629591Y-6059415D01*
X-10663569Y-6049107D01*
X-10694887Y-6032367D01*
X-10722339Y-6009839D01*
X-10744867Y-5982387D01*
X-10761607Y-5951069D01*
X-10771915Y-5917091D01*
X-10776000Y-5875610D01*
X-10776000Y-5274390D01*
X-10771915Y-5232909D01*
X-10761607Y-5198931D01*
X-10744867Y-5167613D01*
X-10722339Y-5140161D01*
X-10694887Y-5117633D01*
X-10663569Y-5100893D01*
X-10629591Y-5090585D01*
X-10588110Y-5086500D01*
X-9911890Y-5086500D01*
X-9870409Y-5090585D01*
X-9870409Y-5090585D01*
G37*
G36*
X10879485Y-3498996D02*
X10879487Y-3498997D01*
X10879488Y-3498997D01*
X11103168Y-3591648D01*
X11116255Y-3597069D01*
X11329342Y-3739449D01*
X11510551Y-3920658D01*
X11510553Y-3920661D01*
X11652931Y-4133745D01*
X11739231Y-4342091D01*
X11751004Y-4370515D01*
X11801000Y-4621861D01*
X11801000Y-4878139D01*
X11753362Y-5117633D01*
X11751003Y-5129488D01*
X11722239Y-5198931D01*
X11652931Y-5366255D01*
X11510551Y-5579342D01*
X11329342Y-5760551D01*
X11329339Y-5760553D01*
X11116255Y-5902931D01*
X10879488Y-6001003D01*
X10879487Y-6001003D01*
X10879485Y-6001004D01*
X10628139Y-6051000D01*
X10371861Y-6051000D01*
X10120515Y-6001004D01*
X10120513Y-6001003D01*
X10120512Y-6001003D01*
X9883745Y-5902931D01*
X9670661Y-5760553D01*
X9670658Y-5760551D01*
X9489449Y-5579342D01*
X9347069Y-5366255D01*
X9277761Y-5198931D01*
X9248997Y-5129488D01*
X9246639Y-5117633D01*
X9199000Y-4878139D01*
X9199000Y-4621861D01*
X9248996Y-4370515D01*
X9260770Y-4342091D01*
X9347069Y-4133745D01*
X9489447Y-3920661D01*
X9489449Y-3920658D01*
X9670658Y-3739449D01*
X9883745Y-3597069D01*
X9896832Y-3591648D01*
X10120512Y-3498997D01*
X10120513Y-3498997D01*
X10120515Y-3498996D01*
X10371861Y-3449000D01*
X10628139Y-3449000D01*
X10879485Y-3498996D01*
X10879485Y-3498996D01*
G37*
G36*
X46360443Y-4185519D02*
X46426627Y-4192037D01*
X46539853Y-4226384D01*
X46596467Y-4243557D01*
X46597763Y-4244250D01*
X46752991Y-4327222D01*
X46788729Y-4356552D01*
X46890186Y-4439814D01*
X46960828Y-4525893D01*
X47002778Y-4577009D01*
X47002779Y-4577011D01*
X47086443Y-4733533D01*
X47086443Y-4733534D01*
X47137963Y-4903373D01*
X47155359Y-5080000D01*
X47137963Y-5256627D01*
X47124621Y-5300610D01*
X47086443Y-5426467D01*
X47053285Y-5488500D01*
X47002778Y-5582991D01*
X46973448Y-5618729D01*
X46890186Y-5720186D01*
X46788729Y-5803448D01*
X46752991Y-5832778D01*
X46752989Y-5832779D01*
X46596467Y-5916443D01*
X46570031Y-5924462D01*
X46426627Y-5967963D01*
X46365331Y-5974000D01*
X46294260Y-5981000D01*
X46205740Y-5981000D01*
X46134669Y-5974000D01*
X46073373Y-5967963D01*
X45929969Y-5924462D01*
X45903533Y-5916443D01*
X45747011Y-5832779D01*
X45747009Y-5832778D01*
X45711271Y-5803448D01*
X45609814Y-5720186D01*
X45526552Y-5618729D01*
X45497222Y-5582991D01*
X45446715Y-5488500D01*
X45413557Y-5426467D01*
X45375379Y-5300610D01*
X45362037Y-5256627D01*
X45344641Y-5080000D01*
X45362037Y-4903373D01*
X45413557Y-4733534D01*
X45413557Y-4733533D01*
X45497221Y-4577011D01*
X45497222Y-4577009D01*
X45539172Y-4525893D01*
X45609814Y-4439814D01*
X45711271Y-4356552D01*
X45747009Y-4327222D01*
X45902237Y-4244250D01*
X45903533Y-4243557D01*
X45960147Y-4226384D01*
X46073373Y-4192037D01*
X46139557Y-4185519D01*
X46205740Y-4179000D01*
X46294260Y-4179000D01*
X46360443Y-4185519D01*
X46360443Y-4185519D01*
G37*
G36*
X31667091Y-4478085D02*
X31701069Y-4488393D01*
X31732387Y-4505133D01*
X31759839Y-4527661D01*
X31782367Y-4555113D01*
X31799107Y-4586431D01*
X31809415Y-4620409D01*
X31813500Y-4661890D01*
X31813500Y-5338110D01*
X31809415Y-5379591D01*
X31799107Y-5413569D01*
X31782367Y-5444887D01*
X31759839Y-5472339D01*
X31732387Y-5494867D01*
X31701069Y-5511607D01*
X31667091Y-5521915D01*
X31625610Y-5526000D01*
X31024390Y-5526000D01*
X30982909Y-5521915D01*
X30948931Y-5511607D01*
X30917613Y-5494867D01*
X30890161Y-5472339D01*
X30867633Y-5444887D01*
X30850893Y-5413569D01*
X30840585Y-5379591D01*
X30836500Y-5338110D01*
X30836500Y-4661890D01*
X30840585Y-4620409D01*
X30850893Y-4586431D01*
X30867633Y-4555113D01*
X30890161Y-4527661D01*
X30917613Y-4505133D01*
X30948931Y-4488393D01*
X30982909Y-4478085D01*
X31024390Y-4474000D01*
X31625610Y-4474000D01*
X31667091Y-4478085D01*
X31667091Y-4478085D01*
G37*
G36*
X30092091Y-4478085D02*
X30126069Y-4488393D01*
X30157387Y-4505133D01*
X30184839Y-4527661D01*
X30207367Y-4555113D01*
X30224107Y-4586431D01*
X30234415Y-4620409D01*
X30238500Y-4661890D01*
X30238500Y-5338110D01*
X30234415Y-5379591D01*
X30224107Y-5413569D01*
X30207367Y-5444887D01*
X30184839Y-5472339D01*
X30157387Y-5494867D01*
X30126069Y-5511607D01*
X30092091Y-5521915D01*
X30050610Y-5526000D01*
X29449390Y-5526000D01*
X29407909Y-5521915D01*
X29373931Y-5511607D01*
X29342613Y-5494867D01*
X29315161Y-5472339D01*
X29292633Y-5444887D01*
X29275893Y-5413569D01*
X29265585Y-5379591D01*
X29261500Y-5338110D01*
X29261500Y-4661890D01*
X29265585Y-4620409D01*
X29275893Y-4586431D01*
X29292633Y-4555113D01*
X29315161Y-4527661D01*
X29342613Y-4505133D01*
X29373931Y-4488393D01*
X29407909Y-4478085D01*
X29449390Y-4474000D01*
X30050610Y-4474000D01*
X30092091Y-4478085D01*
X30092091Y-4478085D01*
G37*
G36*
X17879591Y-4515585D02*
X17913569Y-4525893D01*
X17944887Y-4542633D01*
X17972339Y-4565161D01*
X17994867Y-4592613D01*
X18011607Y-4623931D01*
X18021915Y-4657909D01*
X18026000Y-4699390D01*
X18026000Y-5300610D01*
X18021915Y-5342091D01*
X18011607Y-5376069D01*
X17994867Y-5407387D01*
X17972339Y-5434839D01*
X17944887Y-5457367D01*
X17913569Y-5474107D01*
X17879591Y-5484415D01*
X17838110Y-5488500D01*
X17161890Y-5488500D01*
X17120409Y-5484415D01*
X17086431Y-5474107D01*
X17055113Y-5457367D01*
X17027661Y-5434839D01*
X17005133Y-5407387D01*
X16988393Y-5376069D01*
X16978085Y-5342091D01*
X16974000Y-5300610D01*
X16974000Y-4699390D01*
X16978085Y-4657909D01*
X16988393Y-4623931D01*
X17005133Y-4592613D01*
X17027661Y-4565161D01*
X17055113Y-4542633D01*
X17086431Y-4525893D01*
X17120409Y-4515585D01*
X17161890Y-4511500D01*
X17838110Y-4511500D01*
X17879591Y-4515585D01*
X17879591Y-4515585D01*
G37*
G36*
X37051000Y-4701000D02*
X34449000Y-4701000D01*
X34449000Y-2699000D01*
X37051000Y-2699000D01*
X37051000Y-4701000D01*
X37051000Y-4701000D01*
G37*
G36*
X38879591Y-3715585D02*
X38913569Y-3725893D01*
X38944887Y-3742633D01*
X38972339Y-3765161D01*
X38994867Y-3792613D01*
X39011607Y-3823931D01*
X39021915Y-3857909D01*
X39026000Y-3899390D01*
X39026000Y-4500610D01*
X39021915Y-4542091D01*
X39011607Y-4576069D01*
X38994867Y-4607387D01*
X38972339Y-4634839D01*
X38944887Y-4657367D01*
X38913569Y-4674107D01*
X38879591Y-4684415D01*
X38838110Y-4688500D01*
X38161890Y-4688500D01*
X38120409Y-4684415D01*
X38086431Y-4674107D01*
X38055113Y-4657367D01*
X38027661Y-4634839D01*
X38005133Y-4607387D01*
X37988393Y-4576069D01*
X37978085Y-4542091D01*
X37974000Y-4500610D01*
X37974000Y-3899390D01*
X37978085Y-3857909D01*
X37988393Y-3823931D01*
X38005133Y-3792613D01*
X38027661Y-3765161D01*
X38055113Y-3742633D01*
X38086431Y-3725893D01*
X38120409Y-3715585D01*
X38161890Y-3711500D01*
X38838110Y-3711500D01*
X38879591Y-3715585D01*
X38879591Y-3715585D01*
G37*
G36*
X-9870409Y-3515585D02*
X-9836431Y-3525893D01*
X-9805113Y-3542633D01*
X-9777661Y-3565161D01*
X-9755133Y-3592613D01*
X-9738393Y-3623931D01*
X-9728085Y-3657909D01*
X-9724000Y-3699390D01*
X-9724000Y-4300610D01*
X-9728085Y-4342091D01*
X-9738393Y-4376069D01*
X-9755133Y-4407387D01*
X-9777661Y-4434839D01*
X-9805113Y-4457367D01*
X-9836431Y-4474107D01*
X-9870409Y-4484415D01*
X-9911890Y-4488500D01*
X-10588110Y-4488500D01*
X-10629591Y-4484415D01*
X-10663569Y-4474107D01*
X-10694887Y-4457367D01*
X-10722339Y-4434839D01*
X-10744867Y-4407387D01*
X-10761607Y-4376069D01*
X-10771915Y-4342091D01*
X-10776000Y-4300610D01*
X-10776000Y-3699390D01*
X-10771915Y-3657909D01*
X-10761607Y-3623931D01*
X-10744867Y-3592613D01*
X-10722339Y-3565161D01*
X-10694887Y-3542633D01*
X-10663569Y-3525893D01*
X-10629591Y-3515585D01*
X-10588110Y-3511500D01*
X-9911890Y-3511500D01*
X-9870409Y-3515585D01*
X-9870409Y-3515585D01*
G37*
G36*
X18870293Y3949677D02*
X18877312Y3947548D01*
X18883775Y3944093D01*
X18889442Y3939442D01*
X18894093Y3933775D01*
X18897548Y3927312D01*
X18899677Y3920293D01*
X18901000Y3906860D01*
X18901000Y3593140D01*
X18899677Y3579707D01*
X18897548Y3572689D01*
X18890189Y3558920D01*
X18880813Y3536281D01*
X18876033Y3512247D01*
X18876034Y3487743D01*
X18880816Y3463710D01*
X18890189Y3441080D01*
X18897548Y3427311D01*
X18899677Y3420293D01*
X18901000Y3406860D01*
X18901000Y3093140D01*
X18899677Y3079707D01*
X18897548Y3072689D01*
X18890189Y3058920D01*
X18880813Y3036281D01*
X18876033Y3012247D01*
X18876034Y2987743D01*
X18880816Y2963710D01*
X18890189Y2941080D01*
X18897548Y2927311D01*
X18899677Y2920293D01*
X18901000Y2906860D01*
X18901000Y2593140D01*
X18899677Y2579707D01*
X18897548Y2572689D01*
X18890189Y2558920D01*
X18880813Y2536281D01*
X18876033Y2512247D01*
X18876034Y2487743D01*
X18880816Y2463710D01*
X18890189Y2441080D01*
X18897548Y2427311D01*
X18899677Y2420293D01*
X18901000Y2406860D01*
X18901000Y2093140D01*
X18899677Y2079707D01*
X18897548Y2072689D01*
X18890189Y2058920D01*
X18880813Y2036281D01*
X18876033Y2012247D01*
X18876034Y1987743D01*
X18880816Y1963710D01*
X18890189Y1941080D01*
X18897548Y1927311D01*
X18899677Y1920293D01*
X18901000Y1906860D01*
X18901000Y1593140D01*
X18899677Y1579707D01*
X18897548Y1572689D01*
X18890189Y1558920D01*
X18880813Y1536281D01*
X18876033Y1512247D01*
X18876034Y1487743D01*
X18880816Y1463710D01*
X18890189Y1441080D01*
X18897548Y1427311D01*
X18899677Y1420293D01*
X18901000Y1406860D01*
X18901000Y1093140D01*
X18899677Y1079707D01*
X18897548Y1072689D01*
X18890189Y1058920D01*
X18880813Y1036281D01*
X18876033Y1012247D01*
X18876034Y987743D01*
X18880816Y963710D01*
X18890189Y941080D01*
X18897548Y927311D01*
X18899677Y920293D01*
X18901000Y906860D01*
X18901000Y593140D01*
X18899677Y579707D01*
X18897548Y572689D01*
X18890189Y558920D01*
X18880813Y536281D01*
X18876033Y512247D01*
X18876034Y487743D01*
X18880816Y463710D01*
X18890189Y441080D01*
X18897548Y427311D01*
X18899677Y420293D01*
X18901000Y406860D01*
X18901000Y93140D01*
X18899677Y79707D01*
X18897548Y72689D01*
X18890189Y58920D01*
X18880813Y36281D01*
X18876033Y12247D01*
X18876034Y-12257D01*
X18880816Y-36290D01*
X18890189Y-58920D01*
X18897548Y-72689D01*
X18899677Y-79707D01*
X18901000Y-93140D01*
X18901000Y-406860D01*
X18899677Y-420293D01*
X18897548Y-427311D01*
X18890189Y-441080D01*
X18880813Y-463719D01*
X18876033Y-487753D01*
X18876034Y-512257D01*
X18880816Y-536290D01*
X18890189Y-558920D01*
X18897548Y-572689D01*
X18899677Y-579707D01*
X18901000Y-593140D01*
X18901000Y-906860D01*
X18899677Y-920293D01*
X18897548Y-927311D01*
X18890189Y-941080D01*
X18880813Y-963719D01*
X18876033Y-987753D01*
X18876034Y-1012257D01*
X18880816Y-1036290D01*
X18890189Y-1058920D01*
X18897548Y-1072689D01*
X18899677Y-1079707D01*
X18901000Y-1093140D01*
X18901000Y-1406860D01*
X18899677Y-1420293D01*
X18897548Y-1427311D01*
X18890189Y-1441080D01*
X18880813Y-1463719D01*
X18876033Y-1487753D01*
X18876034Y-1512257D01*
X18880816Y-1536290D01*
X18890189Y-1558920D01*
X18897548Y-1572689D01*
X18899677Y-1579707D01*
X18901000Y-1593140D01*
X18901000Y-1906860D01*
X18899677Y-1920293D01*
X18897548Y-1927311D01*
X18890189Y-1941080D01*
X18880813Y-1963719D01*
X18876033Y-1987753D01*
X18876034Y-2012257D01*
X18880816Y-2036290D01*
X18890189Y-2058920D01*
X18897548Y-2072689D01*
X18899677Y-2079707D01*
X18901000Y-2093140D01*
X18901000Y-2406860D01*
X18899677Y-2420293D01*
X18897548Y-2427311D01*
X18890189Y-2441080D01*
X18880813Y-2463719D01*
X18876033Y-2487753D01*
X18876034Y-2512257D01*
X18880816Y-2536290D01*
X18890189Y-2558920D01*
X18897548Y-2572689D01*
X18899677Y-2579707D01*
X18901000Y-2593140D01*
X18901000Y-2906860D01*
X18899677Y-2920293D01*
X18897548Y-2927311D01*
X18890189Y-2941080D01*
X18880813Y-2963719D01*
X18876033Y-2987753D01*
X18876034Y-3012257D01*
X18880816Y-3036290D01*
X18890189Y-3058920D01*
X18897548Y-3072689D01*
X18899677Y-3079707D01*
X18901000Y-3093140D01*
X18901000Y-3406860D01*
X18899677Y-3420293D01*
X18897548Y-3427311D01*
X18890189Y-3441080D01*
X18880813Y-3463719D01*
X18876033Y-3487753D01*
X18876034Y-3512257D01*
X18880816Y-3536290D01*
X18890189Y-3558920D01*
X18897548Y-3572689D01*
X18899677Y-3579707D01*
X18901000Y-3593140D01*
X18901000Y-3906860D01*
X18899677Y-3920293D01*
X18897548Y-3927312D01*
X18894093Y-3933775D01*
X18889442Y-3939442D01*
X18883775Y-3944093D01*
X18877312Y-3947548D01*
X18870293Y-3949677D01*
X18856860Y-3951000D01*
X17293140Y-3951000D01*
X17279707Y-3949677D01*
X17272688Y-3947548D01*
X17266225Y-3944093D01*
X17260558Y-3939442D01*
X17255907Y-3933775D01*
X17252452Y-3927312D01*
X17250323Y-3920293D01*
X17249000Y-3906860D01*
X17249000Y-3593140D01*
X17250323Y-3579707D01*
X17252452Y-3572689D01*
X17259811Y-3558920D01*
X17269187Y-3536281D01*
X17273967Y-3512247D01*
X17273966Y-3487743D01*
X17269184Y-3463710D01*
X17259811Y-3441080D01*
X17252452Y-3427311D01*
X17250323Y-3420293D01*
X17249000Y-3406860D01*
X17249000Y-3093140D01*
X17250323Y-3079707D01*
X17252452Y-3072689D01*
X17259811Y-3058920D01*
X17269187Y-3036281D01*
X17273967Y-3012247D01*
X17273966Y-2987743D01*
X17269184Y-2963710D01*
X17259811Y-2941080D01*
X17252452Y-2927311D01*
X17250323Y-2920293D01*
X17249000Y-2906860D01*
X17249000Y-2593140D01*
X17250323Y-2579707D01*
X17252452Y-2572689D01*
X17259811Y-2558920D01*
X17269187Y-2536281D01*
X17273967Y-2512247D01*
X17273966Y-2487743D01*
X17269184Y-2463710D01*
X17259811Y-2441080D01*
X17252452Y-2427311D01*
X17250323Y-2420293D01*
X17249000Y-2406860D01*
X17249000Y-2093140D01*
X17250323Y-2079707D01*
X17252452Y-2072689D01*
X17259811Y-2058920D01*
X17269187Y-2036281D01*
X17273967Y-2012247D01*
X17273966Y-1987743D01*
X17269184Y-1963710D01*
X17259811Y-1941080D01*
X17252452Y-1927311D01*
X17250323Y-1920293D01*
X17249000Y-1906860D01*
X17249000Y-1593140D01*
X17250323Y-1579707D01*
X17252452Y-1572689D01*
X17259811Y-1558920D01*
X17269187Y-1536281D01*
X17273967Y-1512247D01*
X17273966Y-1487743D01*
X17269184Y-1463710D01*
X17259811Y-1441080D01*
X17252452Y-1427311D01*
X17250323Y-1420293D01*
X17249000Y-1406860D01*
X17249000Y-1093140D01*
X17250323Y-1079707D01*
X17252452Y-1072689D01*
X17259811Y-1058920D01*
X17269187Y-1036281D01*
X17273967Y-1012247D01*
X17273966Y-987743D01*
X17269184Y-963710D01*
X17259811Y-941080D01*
X17252452Y-927311D01*
X17250323Y-920293D01*
X17249000Y-906860D01*
X17249000Y-593140D01*
X17250323Y-579707D01*
X17252452Y-572689D01*
X17259811Y-558920D01*
X17269187Y-536281D01*
X17273967Y-512247D01*
X17273966Y-487743D01*
X17269184Y-463710D01*
X17259811Y-441080D01*
X17252452Y-427311D01*
X17250323Y-420293D01*
X17249000Y-406860D01*
X17249000Y-93140D01*
X17250323Y-79707D01*
X17252452Y-72689D01*
X17259811Y-58920D01*
X17269187Y-36281D01*
X17273967Y-12247D01*
X17273966Y12257D01*
X17269184Y36290D01*
X17259811Y58920D01*
X17252452Y72689D01*
X17250323Y79707D01*
X17249000Y93140D01*
X17249000Y406860D01*
X17250323Y420293D01*
X17252452Y427311D01*
X17259811Y441080D01*
X17269187Y463719D01*
X17273967Y487753D01*
X17273966Y512257D01*
X17269184Y536290D01*
X17259811Y558920D01*
X17252452Y572689D01*
X17250323Y579707D01*
X17249000Y593140D01*
X17249000Y906860D01*
X17250323Y920293D01*
X17252452Y927311D01*
X17259811Y941080D01*
X17269187Y963719D01*
X17273967Y987753D01*
X17273966Y1012257D01*
X17269184Y1036290D01*
X17259811Y1058920D01*
X17252452Y1072689D01*
X17250323Y1079707D01*
X17249000Y1093140D01*
X17249000Y1406860D01*
X17250323Y1420293D01*
X17252452Y1427311D01*
X17259811Y1441080D01*
X17269187Y1463719D01*
X17273967Y1487753D01*
X17273966Y1512257D01*
X17269184Y1536290D01*
X17259811Y1558920D01*
X17252452Y1572689D01*
X17250323Y1579707D01*
X17249000Y1593140D01*
X17249000Y1906860D01*
X17250323Y1920293D01*
X17252452Y1927311D01*
X17259811Y1941080D01*
X17269187Y1963719D01*
X17273967Y1987753D01*
X17273966Y2012257D01*
X17269184Y2036290D01*
X17259811Y2058920D01*
X17252452Y2072689D01*
X17250323Y2079707D01*
X17249000Y2093140D01*
X17249000Y2406860D01*
X17250323Y2420293D01*
X17252452Y2427311D01*
X17259811Y2441080D01*
X17269187Y2463719D01*
X17273967Y2487753D01*
X17273966Y2512257D01*
X17269184Y2536290D01*
X17259811Y2558920D01*
X17252452Y2572689D01*
X17250323Y2579707D01*
X17249000Y2593140D01*
X17249000Y2906860D01*
X17250323Y2920293D01*
X17252452Y2927311D01*
X17259811Y2941080D01*
X17269187Y2963719D01*
X17273967Y2987753D01*
X17273966Y3012257D01*
X17269184Y3036290D01*
X17259811Y3058920D01*
X17252452Y3072689D01*
X17250323Y3079707D01*
X17249000Y3093140D01*
X17249000Y3406860D01*
X17250323Y3420293D01*
X17252452Y3427311D01*
X17259811Y3441080D01*
X17269187Y3463719D01*
X17273967Y3487753D01*
X17273966Y3512257D01*
X17269184Y3536290D01*
X17259811Y3558920D01*
X17252452Y3572689D01*
X17250323Y3579707D01*
X17249000Y3593140D01*
X17249000Y3906860D01*
X17250323Y3920293D01*
X17252452Y3927312D01*
X17255907Y3933775D01*
X17260558Y3939442D01*
X17266225Y3944093D01*
X17272688Y3947548D01*
X17279707Y3949677D01*
X17293140Y3951000D01*
X18856860Y3951000D01*
X18870293Y3949677D01*
X18870293Y3949677D01*
G37*
G36*
X30220293Y3949677D02*
X30227312Y3947548D01*
X30233775Y3944093D01*
X30239442Y3939442D01*
X30244093Y3933775D01*
X30247548Y3927312D01*
X30249677Y3920293D01*
X30251000Y3906860D01*
X30251000Y3593140D01*
X30249677Y3579707D01*
X30247548Y3572689D01*
X30240189Y3558920D01*
X30230813Y3536281D01*
X30226033Y3512247D01*
X30226034Y3487743D01*
X30230816Y3463710D01*
X30240189Y3441080D01*
X30247548Y3427311D01*
X30249677Y3420293D01*
X30251000Y3406860D01*
X30251000Y3093140D01*
X30249677Y3079707D01*
X30247548Y3072689D01*
X30240189Y3058920D01*
X30230813Y3036281D01*
X30226033Y3012247D01*
X30226034Y2987743D01*
X30230816Y2963710D01*
X30240189Y2941080D01*
X30247548Y2927311D01*
X30249677Y2920293D01*
X30251000Y2906860D01*
X30251000Y2593140D01*
X30249677Y2579707D01*
X30247548Y2572689D01*
X30240189Y2558920D01*
X30230813Y2536281D01*
X30226033Y2512247D01*
X30226034Y2487743D01*
X30230816Y2463710D01*
X30240189Y2441080D01*
X30247548Y2427311D01*
X30249677Y2420293D01*
X30251000Y2406860D01*
X30251000Y2093140D01*
X30249677Y2079707D01*
X30247548Y2072689D01*
X30240189Y2058920D01*
X30230813Y2036281D01*
X30226033Y2012247D01*
X30226034Y1987743D01*
X30230816Y1963710D01*
X30240189Y1941080D01*
X30247548Y1927311D01*
X30249677Y1920293D01*
X30251000Y1906860D01*
X30251000Y1593140D01*
X30249677Y1579707D01*
X30247548Y1572689D01*
X30240189Y1558920D01*
X30230813Y1536281D01*
X30226033Y1512247D01*
X30226034Y1487743D01*
X30230816Y1463710D01*
X30240189Y1441080D01*
X30247548Y1427311D01*
X30249677Y1420293D01*
X30251000Y1406860D01*
X30251000Y1093140D01*
X30249677Y1079707D01*
X30247548Y1072689D01*
X30240189Y1058920D01*
X30230813Y1036281D01*
X30226033Y1012247D01*
X30226034Y987743D01*
X30230816Y963710D01*
X30240189Y941080D01*
X30247548Y927311D01*
X30249677Y920293D01*
X30251000Y906860D01*
X30251000Y593140D01*
X30249677Y579707D01*
X30247548Y572689D01*
X30240189Y558920D01*
X30230813Y536281D01*
X30226033Y512247D01*
X30226034Y487743D01*
X30230816Y463710D01*
X30240189Y441080D01*
X30247548Y427311D01*
X30249677Y420293D01*
X30251000Y406860D01*
X30251000Y93140D01*
X30249677Y79707D01*
X30247548Y72689D01*
X30240189Y58920D01*
X30230813Y36281D01*
X30226033Y12247D01*
X30226034Y-12257D01*
X30230816Y-36290D01*
X30240189Y-58920D01*
X30247548Y-72689D01*
X30249677Y-79707D01*
X30251000Y-93140D01*
X30251000Y-406860D01*
X30249677Y-420293D01*
X30247548Y-427311D01*
X30240189Y-441080D01*
X30230813Y-463719D01*
X30226033Y-487753D01*
X30226034Y-512257D01*
X30230816Y-536290D01*
X30240189Y-558920D01*
X30247548Y-572689D01*
X30249677Y-579707D01*
X30251000Y-593140D01*
X30251000Y-906860D01*
X30249677Y-920293D01*
X30247548Y-927311D01*
X30240189Y-941080D01*
X30230813Y-963719D01*
X30226033Y-987753D01*
X30226034Y-1012257D01*
X30230816Y-1036290D01*
X30240189Y-1058920D01*
X30247548Y-1072689D01*
X30249677Y-1079707D01*
X30251000Y-1093140D01*
X30251000Y-1406860D01*
X30249677Y-1420293D01*
X30247548Y-1427311D01*
X30240189Y-1441080D01*
X30230813Y-1463719D01*
X30226033Y-1487753D01*
X30226034Y-1512257D01*
X30230816Y-1536290D01*
X30240189Y-1558920D01*
X30247548Y-1572689D01*
X30249677Y-1579707D01*
X30251000Y-1593140D01*
X30251000Y-1906860D01*
X30249677Y-1920293D01*
X30247548Y-1927311D01*
X30240189Y-1941080D01*
X30230813Y-1963719D01*
X30226033Y-1987753D01*
X30226034Y-2012257D01*
X30230816Y-2036290D01*
X30240189Y-2058920D01*
X30247548Y-2072689D01*
X30249677Y-2079707D01*
X30251000Y-2093140D01*
X30251000Y-2406860D01*
X30249677Y-2420293D01*
X30247548Y-2427311D01*
X30240189Y-2441080D01*
X30230813Y-2463719D01*
X30226033Y-2487753D01*
X30226034Y-2512257D01*
X30230816Y-2536290D01*
X30240189Y-2558920D01*
X30247548Y-2572689D01*
X30249677Y-2579707D01*
X30251000Y-2593140D01*
X30251000Y-2906860D01*
X30249677Y-2920293D01*
X30247548Y-2927311D01*
X30240189Y-2941080D01*
X30230813Y-2963719D01*
X30226033Y-2987753D01*
X30226034Y-3012257D01*
X30230816Y-3036290D01*
X30240189Y-3058920D01*
X30247548Y-3072689D01*
X30249677Y-3079707D01*
X30251000Y-3093140D01*
X30251000Y-3406860D01*
X30249677Y-3420293D01*
X30247548Y-3427311D01*
X30240189Y-3441080D01*
X30230813Y-3463719D01*
X30226033Y-3487753D01*
X30226034Y-3512257D01*
X30230816Y-3536290D01*
X30240189Y-3558920D01*
X30247548Y-3572689D01*
X30249677Y-3579707D01*
X30251000Y-3593140D01*
X30251000Y-3906860D01*
X30249677Y-3920293D01*
X30247548Y-3927312D01*
X30244093Y-3933775D01*
X30239442Y-3939442D01*
X30233775Y-3944093D01*
X30227312Y-3947548D01*
X30220293Y-3949677D01*
X30206860Y-3951000D01*
X28643140Y-3951000D01*
X28629707Y-3949677D01*
X28622688Y-3947548D01*
X28616225Y-3944093D01*
X28610558Y-3939442D01*
X28605907Y-3933775D01*
X28602452Y-3927312D01*
X28600323Y-3920293D01*
X28599000Y-3906860D01*
X28599000Y-3593140D01*
X28600323Y-3579707D01*
X28602452Y-3572689D01*
X28609811Y-3558920D01*
X28619187Y-3536281D01*
X28623967Y-3512247D01*
X28623966Y-3487743D01*
X28619184Y-3463710D01*
X28609811Y-3441080D01*
X28602452Y-3427311D01*
X28600323Y-3420293D01*
X28599000Y-3406860D01*
X28599000Y-3093140D01*
X28600323Y-3079707D01*
X28602452Y-3072689D01*
X28609811Y-3058920D01*
X28619187Y-3036281D01*
X28623967Y-3012247D01*
X28623966Y-2987743D01*
X28619184Y-2963710D01*
X28609811Y-2941080D01*
X28602452Y-2927311D01*
X28600323Y-2920293D01*
X28599000Y-2906860D01*
X28599000Y-2593140D01*
X28600323Y-2579707D01*
X28602452Y-2572689D01*
X28609811Y-2558920D01*
X28619187Y-2536281D01*
X28623967Y-2512247D01*
X28623966Y-2487743D01*
X28619184Y-2463710D01*
X28609811Y-2441080D01*
X28602452Y-2427311D01*
X28600323Y-2420293D01*
X28599000Y-2406860D01*
X28599000Y-2093140D01*
X28600323Y-2079707D01*
X28602452Y-2072689D01*
X28609811Y-2058920D01*
X28619187Y-2036281D01*
X28623967Y-2012247D01*
X28623966Y-1987743D01*
X28619184Y-1963710D01*
X28609811Y-1941080D01*
X28602452Y-1927311D01*
X28600323Y-1920293D01*
X28599000Y-1906860D01*
X28599000Y-1593140D01*
X28600323Y-1579707D01*
X28602452Y-1572689D01*
X28609811Y-1558920D01*
X28619187Y-1536281D01*
X28623967Y-1512247D01*
X28623966Y-1487743D01*
X28619184Y-1463710D01*
X28609811Y-1441080D01*
X28602452Y-1427311D01*
X28600323Y-1420293D01*
X28599000Y-1406860D01*
X28599000Y-1093140D01*
X28600323Y-1079707D01*
X28602452Y-1072689D01*
X28609811Y-1058920D01*
X28619187Y-1036281D01*
X28623967Y-1012247D01*
X28623966Y-987743D01*
X28619184Y-963710D01*
X28609811Y-941080D01*
X28602452Y-927311D01*
X28600323Y-920293D01*
X28599000Y-906860D01*
X28599000Y-593140D01*
X28600323Y-579707D01*
X28602452Y-572689D01*
X28609811Y-558920D01*
X28619187Y-536281D01*
X28623967Y-512247D01*
X28623966Y-487743D01*
X28619184Y-463710D01*
X28609811Y-441080D01*
X28602452Y-427311D01*
X28600323Y-420293D01*
X28599000Y-406860D01*
X28599000Y-93140D01*
X28600323Y-79707D01*
X28602452Y-72689D01*
X28609811Y-58920D01*
X28619187Y-36281D01*
X28623967Y-12247D01*
X28623966Y12257D01*
X28619184Y36290D01*
X28609811Y58920D01*
X28602452Y72689D01*
X28600323Y79707D01*
X28599000Y93140D01*
X28599000Y406860D01*
X28600323Y420293D01*
X28602452Y427311D01*
X28609811Y441080D01*
X28619187Y463719D01*
X28623967Y487753D01*
X28623966Y512257D01*
X28619184Y536290D01*
X28609811Y558920D01*
X28602452Y572689D01*
X28600323Y579707D01*
X28599000Y593140D01*
X28599000Y906860D01*
X28600323Y920293D01*
X28602452Y927311D01*
X28609811Y941080D01*
X28619187Y963719D01*
X28623967Y987753D01*
X28623966Y1012257D01*
X28619184Y1036290D01*
X28609811Y1058920D01*
X28602452Y1072689D01*
X28600323Y1079707D01*
X28599000Y1093140D01*
X28599000Y1406860D01*
X28600323Y1420293D01*
X28602452Y1427311D01*
X28609811Y1441080D01*
X28619187Y1463719D01*
X28623967Y1487753D01*
X28623966Y1512257D01*
X28619184Y1536290D01*
X28609811Y1558920D01*
X28602452Y1572689D01*
X28600323Y1579707D01*
X28599000Y1593140D01*
X28599000Y1906860D01*
X28600323Y1920293D01*
X28602452Y1927311D01*
X28609811Y1941080D01*
X28619187Y1963719D01*
X28623967Y1987753D01*
X28623966Y2012257D01*
X28619184Y2036290D01*
X28609811Y2058920D01*
X28602452Y2072689D01*
X28600323Y2079707D01*
X28599000Y2093140D01*
X28599000Y2406860D01*
X28600323Y2420293D01*
X28602452Y2427311D01*
X28609811Y2441080D01*
X28619187Y2463719D01*
X28623967Y2487753D01*
X28623966Y2512257D01*
X28619184Y2536290D01*
X28609811Y2558920D01*
X28602452Y2572689D01*
X28600323Y2579707D01*
X28599000Y2593140D01*
X28599000Y2906860D01*
X28600323Y2920293D01*
X28602452Y2927311D01*
X28609811Y2941080D01*
X28619187Y2963719D01*
X28623967Y2987753D01*
X28623966Y3012257D01*
X28619184Y3036290D01*
X28609811Y3058920D01*
X28602452Y3072689D01*
X28600323Y3079707D01*
X28599000Y3093140D01*
X28599000Y3406860D01*
X28600323Y3420293D01*
X28602452Y3427311D01*
X28609811Y3441080D01*
X28619187Y3463719D01*
X28623967Y3487753D01*
X28623966Y3512257D01*
X28619184Y3536290D01*
X28609811Y3558920D01*
X28602452Y3572689D01*
X28600323Y3579707D01*
X28599000Y3593140D01*
X28599000Y3906860D01*
X28600323Y3920293D01*
X28602452Y3927312D01*
X28605907Y3933775D01*
X28610558Y3939442D01*
X28616225Y3944093D01*
X28622688Y3947548D01*
X28629707Y3949677D01*
X28643140Y3951000D01*
X30206860Y3951000D01*
X30220293Y3949677D01*
X30220293Y3949677D01*
G37*
G36*
X46360442Y-1645518D02*
X46426627Y-1652037D01*
X46539853Y-1686384D01*
X46596467Y-1703557D01*
X46705069Y-1761607D01*
X46752991Y-1787222D01*
X46763125Y-1795539D01*
X46890186Y-1899814D01*
X46970628Y-1997834D01*
X47002778Y-2037009D01*
X47002779Y-2037011D01*
X47086443Y-2193533D01*
X47086443Y-2193534D01*
X47137963Y-2363373D01*
X47155359Y-2540000D01*
X47137963Y-2716627D01*
X47119952Y-2776000D01*
X47086443Y-2886467D01*
X47070175Y-2916901D01*
X47002778Y-3042991D01*
X46978695Y-3072336D01*
X46890186Y-3180186D01*
X46788729Y-3263448D01*
X46752991Y-3292778D01*
X46752989Y-3292779D01*
X46596467Y-3376443D01*
X46587391Y-3379196D01*
X46426627Y-3427963D01*
X46364692Y-3434063D01*
X46294260Y-3441000D01*
X46205740Y-3441000D01*
X46135308Y-3434063D01*
X46073373Y-3427963D01*
X45912609Y-3379196D01*
X45903533Y-3376443D01*
X45747011Y-3292779D01*
X45747009Y-3292778D01*
X45711271Y-3263448D01*
X45609814Y-3180186D01*
X45521305Y-3072336D01*
X45497222Y-3042991D01*
X45429825Y-2916901D01*
X45413557Y-2886467D01*
X45380048Y-2776000D01*
X45362037Y-2716627D01*
X45344641Y-2540000D01*
X45362037Y-2363373D01*
X45413557Y-2193534D01*
X45413557Y-2193533D01*
X45497221Y-2037011D01*
X45497222Y-2037009D01*
X45529372Y-1997834D01*
X45609814Y-1899814D01*
X45736875Y-1795539D01*
X45747009Y-1787222D01*
X45794931Y-1761607D01*
X45903533Y-1703557D01*
X45960147Y-1686384D01*
X46073373Y-1652037D01*
X46139557Y-1645519D01*
X46205740Y-1639000D01*
X46294260Y-1639000D01*
X46360442Y-1645518D01*
X46360442Y-1645518D01*
G37*
G36*
X38879591Y-2140585D02*
X38913569Y-2150893D01*
X38944887Y-2167633D01*
X38972339Y-2190161D01*
X38994867Y-2217613D01*
X39011607Y-2248931D01*
X39021915Y-2282909D01*
X39026000Y-2324390D01*
X39026000Y-2925610D01*
X39021915Y-2967091D01*
X39011607Y-3001069D01*
X38994867Y-3032387D01*
X38972339Y-3059839D01*
X38944887Y-3082367D01*
X38913569Y-3099107D01*
X38879591Y-3109415D01*
X38838110Y-3113500D01*
X38161890Y-3113500D01*
X38120409Y-3109415D01*
X38086431Y-3099107D01*
X38055113Y-3082367D01*
X38027661Y-3059839D01*
X38005133Y-3032387D01*
X37988393Y-3001069D01*
X37978085Y-2967091D01*
X37974000Y-2925610D01*
X37974000Y-2324390D01*
X37978085Y-2282909D01*
X37988393Y-2248931D01*
X38005133Y-2217613D01*
X38027661Y-2190161D01*
X38055113Y-2167633D01*
X38086431Y-2150893D01*
X38120409Y-2140585D01*
X38161890Y-2136500D01*
X38838110Y-2136500D01*
X38879591Y-2140585D01*
X38879591Y-2140585D01*
G37*
G36*
X12017091Y-1728085D02*
X12051069Y-1738393D01*
X12082387Y-1755133D01*
X12109839Y-1777661D01*
X12132367Y-1805113D01*
X12149107Y-1836431D01*
X12159415Y-1870409D01*
X12163500Y-1911890D01*
X12163500Y-2588110D01*
X12159415Y-2629591D01*
X12149107Y-2663569D01*
X12132367Y-2694887D01*
X12109839Y-2722339D01*
X12082387Y-2744867D01*
X12051069Y-2761607D01*
X12017091Y-2771915D01*
X11975610Y-2776000D01*
X11374390Y-2776000D01*
X11332909Y-2771915D01*
X11298931Y-2761607D01*
X11267613Y-2744867D01*
X11240161Y-2722339D01*
X11217633Y-2694887D01*
X11200893Y-2663569D01*
X11190585Y-2629591D01*
X11186500Y-2588110D01*
X11186500Y-1911890D01*
X11190585Y-1870409D01*
X11200893Y-1836431D01*
X11217633Y-1805113D01*
X11240161Y-1777661D01*
X11267613Y-1755133D01*
X11298931Y-1738393D01*
X11332909Y-1728085D01*
X11374390Y-1724000D01*
X11975610Y-1724000D01*
X12017091Y-1728085D01*
X12017091Y-1728085D01*
G37*
G36*
X10629591Y-1728085D02*
X10663569Y-1738393D01*
X10694887Y-1755133D01*
X10722339Y-1777661D01*
X10744867Y-1805113D01*
X10761607Y-1836431D01*
X10771915Y-1870409D01*
X10776000Y-1911890D01*
X10776000Y-2588110D01*
X10771915Y-2629591D01*
X10761607Y-2663569D01*
X10744867Y-2694887D01*
X10722339Y-2722339D01*
X10694887Y-2744867D01*
X10663569Y-2761607D01*
X10629591Y-2771915D01*
X10588110Y-2776000D01*
X9986890Y-2776000D01*
X9945409Y-2771915D01*
X9911431Y-2761607D01*
X9880113Y-2744867D01*
X9852661Y-2722339D01*
X9830133Y-2694887D01*
X9813393Y-2663569D01*
X9803085Y-2629591D01*
X9799000Y-2588110D01*
X9799000Y-1911890D01*
X9803085Y-1870409D01*
X9813393Y-1836431D01*
X9830133Y-1805113D01*
X9852661Y-1777661D01*
X9880113Y-1755133D01*
X9911431Y-1738393D01*
X9945409Y-1728085D01*
X9986890Y-1724000D01*
X10588110Y-1724000D01*
X10629591Y-1728085D01*
X10629591Y-1728085D01*
G37*
G36*
X13592091Y-1728085D02*
X13626069Y-1738393D01*
X13657387Y-1755133D01*
X13684839Y-1777661D01*
X13707367Y-1805113D01*
X13724107Y-1836431D01*
X13734415Y-1870409D01*
X13738500Y-1911890D01*
X13738500Y-2588110D01*
X13734415Y-2629591D01*
X13724107Y-2663569D01*
X13707367Y-2694887D01*
X13684839Y-2722339D01*
X13657387Y-2744867D01*
X13626069Y-2761607D01*
X13592091Y-2771915D01*
X13550610Y-2776000D01*
X12949390Y-2776000D01*
X12907909Y-2771915D01*
X12873931Y-2761607D01*
X12842613Y-2744867D01*
X12815161Y-2722339D01*
X12792633Y-2694887D01*
X12775893Y-2663569D01*
X12765585Y-2629591D01*
X12761500Y-2588110D01*
X12761500Y-1911890D01*
X12765585Y-1870409D01*
X12775893Y-1836431D01*
X12792633Y-1805113D01*
X12815161Y-1777661D01*
X12842613Y-1755133D01*
X12873931Y-1738393D01*
X12907909Y-1728085D01*
X12949390Y-1724000D01*
X13550610Y-1724000D01*
X13592091Y-1728085D01*
X13592091Y-1728085D01*
G37*
G36*
X9054591Y-1728085D02*
X9088569Y-1738393D01*
X9119887Y-1755133D01*
X9147339Y-1777661D01*
X9169867Y-1805113D01*
X9186607Y-1836431D01*
X9196915Y-1870409D01*
X9201000Y-1911890D01*
X9201000Y-2588110D01*
X9196915Y-2629591D01*
X9186607Y-2663569D01*
X9169867Y-2694887D01*
X9147339Y-2722339D01*
X9119887Y-2744867D01*
X9088569Y-2761607D01*
X9054591Y-2771915D01*
X9013110Y-2776000D01*
X8411890Y-2776000D01*
X8370409Y-2771915D01*
X8336431Y-2761607D01*
X8305113Y-2744867D01*
X8277661Y-2722339D01*
X8255133Y-2694887D01*
X8238393Y-2663569D01*
X8228085Y-2629591D01*
X8224000Y-2588110D01*
X8224000Y-1911890D01*
X8228085Y-1870409D01*
X8238393Y-1836431D01*
X8255133Y-1805113D01*
X8277661Y-1777661D01*
X8305113Y-1755133D01*
X8336431Y-1738393D01*
X8370409Y-1728085D01*
X8411890Y-1724000D01*
X9013110Y-1724000D01*
X9054591Y-1728085D01*
X9054591Y-1728085D01*
G37*
G36*
X-9749000Y-2551000D02*
X-11351000Y-2551000D01*
X-11351000Y2551000D01*
X-9749000Y2551000D01*
X-9749000Y-2551000D01*
X-9749000Y-2551000D01*
G37*
G36*
X-15649000Y-2551000D02*
X-17251000Y-2551000D01*
X-17251000Y2551000D01*
X-15649000Y2551000D01*
X-15649000Y-2551000D01*
X-15649000Y-2551000D01*
G37*
G36*
X-38193435Y-489389D02*
X-38002166Y-568615D01*
X-37830024Y-683637D01*
X-37683637Y-830024D01*
X-37568615Y-1002166D01*
X-37489389Y-1193435D01*
X-37449000Y-1396484D01*
X-37449000Y-1603516D01*
X-37489389Y-1806565D01*
X-37568615Y-1997834D01*
X-37683637Y-2169976D01*
X-37830024Y-2316363D01*
X-38002166Y-2431385D01*
X-38193435Y-2510611D01*
X-38396484Y-2551000D01*
X-38603516Y-2551000D01*
X-38806565Y-2510611D01*
X-38997834Y-2431385D01*
X-39169976Y-2316363D01*
X-39316363Y-2169976D01*
X-39431385Y-1997834D01*
X-39510611Y-1806565D01*
X-39551000Y-1603516D01*
X-39551000Y-1396484D01*
X-39510611Y-1193435D01*
X-39431385Y-1002166D01*
X-39316363Y-830024D01*
X-39169976Y-683637D01*
X-38997834Y-568615D01*
X-38806565Y-489389D01*
X-38603516Y-449000D01*
X-38396484Y-449000D01*
X-38193435Y-489389D01*
X-38193435Y-489389D01*
G37*
G36*
X-33693435Y-489389D02*
X-33502166Y-568615D01*
X-33330024Y-683637D01*
X-33183637Y-830024D01*
X-33068615Y-1002166D01*
X-32989389Y-1193435D01*
X-32949000Y-1396484D01*
X-32949000Y-1603516D01*
X-32989389Y-1806565D01*
X-33068615Y-1997834D01*
X-33183637Y-2169976D01*
X-33330024Y-2316363D01*
X-33502166Y-2431385D01*
X-33693435Y-2510611D01*
X-33896484Y-2551000D01*
X-34103516Y-2551000D01*
X-34306565Y-2510611D01*
X-34497834Y-2431385D01*
X-34669976Y-2316363D01*
X-34816363Y-2169976D01*
X-34931385Y-1997834D01*
X-35010611Y-1806565D01*
X-35051000Y-1603516D01*
X-35051000Y-1396484D01*
X-35010611Y-1193435D01*
X-34931385Y-1002166D01*
X-34816363Y-830024D01*
X-34669976Y-683637D01*
X-34497834Y-568615D01*
X-34306565Y-489389D01*
X-34103516Y-449000D01*
X-33896484Y-449000D01*
X-33693435Y-489389D01*
X-33693435Y-489389D01*
G37*
G36*
X-3399000Y-2101000D02*
X-5101000Y-2101000D01*
X-5101000Y-399000D01*
X-3399000Y-399000D01*
X-3399000Y-2101000D01*
X-3399000Y-2101000D01*
G37*
G36*
X3092091Y-728085D02*
X3126069Y-738393D01*
X3157387Y-755133D01*
X3184839Y-777661D01*
X3207367Y-805113D01*
X3224107Y-836431D01*
X3234415Y-870409D01*
X3238500Y-911890D01*
X3238500Y-1588110D01*
X3234415Y-1629591D01*
X3224107Y-1663569D01*
X3207367Y-1694887D01*
X3184839Y-1722339D01*
X3157387Y-1744867D01*
X3126069Y-1761607D01*
X3092091Y-1771915D01*
X3050610Y-1776000D01*
X2449390Y-1776000D01*
X2407909Y-1771915D01*
X2373931Y-1761607D01*
X2342613Y-1744867D01*
X2315161Y-1722339D01*
X2292633Y-1694887D01*
X2275893Y-1663569D01*
X2265585Y-1629591D01*
X2261500Y-1588110D01*
X2261500Y-911890D01*
X2265585Y-870409D01*
X2275893Y-836431D01*
X2292633Y-805113D01*
X2315161Y-777661D01*
X2342613Y-755133D01*
X2373931Y-738393D01*
X2407909Y-728085D01*
X2449390Y-724000D01*
X3050610Y-724000D01*
X3092091Y-728085D01*
X3092091Y-728085D01*
G37*
G36*
X4667091Y-728085D02*
X4701069Y-738393D01*
X4732387Y-755133D01*
X4759839Y-777661D01*
X4782367Y-805113D01*
X4799107Y-836431D01*
X4809415Y-870409D01*
X4813500Y-911890D01*
X4813500Y-1588110D01*
X4809415Y-1629591D01*
X4799107Y-1663569D01*
X4782367Y-1694887D01*
X4759839Y-1722339D01*
X4732387Y-1744867D01*
X4701069Y-1761607D01*
X4667091Y-1771915D01*
X4625610Y-1776000D01*
X4024390Y-1776000D01*
X3982909Y-1771915D01*
X3948931Y-1761607D01*
X3917613Y-1744867D01*
X3890161Y-1722339D01*
X3867633Y-1694887D01*
X3850893Y-1663569D01*
X3840585Y-1629591D01*
X3836500Y-1588110D01*
X3836500Y-911890D01*
X3840585Y-870409D01*
X3850893Y-836431D01*
X3867633Y-805113D01*
X3890161Y-777661D01*
X3917613Y-755133D01*
X3948931Y-738393D01*
X3982909Y-728085D01*
X4024390Y-724000D01*
X4625610Y-724000D01*
X4667091Y-728085D01*
X4667091Y-728085D01*
G37*
G36*
X1167091Y-728085D02*
X1201069Y-738393D01*
X1232387Y-755133D01*
X1259839Y-777661D01*
X1282367Y-805113D01*
X1299107Y-836431D01*
X1309415Y-870409D01*
X1313500Y-911890D01*
X1313500Y-1588110D01*
X1309415Y-1629591D01*
X1299107Y-1663569D01*
X1282367Y-1694887D01*
X1259839Y-1722339D01*
X1232387Y-1744867D01*
X1201069Y-1761607D01*
X1167091Y-1771915D01*
X1125610Y-1776000D01*
X524390Y-1776000D01*
X482909Y-1771915D01*
X448931Y-1761607D01*
X417613Y-1744867D01*
X390161Y-1722339D01*
X367633Y-1694887D01*
X350893Y-1663569D01*
X340585Y-1629591D01*
X336500Y-1588110D01*
X336500Y-911890D01*
X340585Y-870409D01*
X350893Y-836431D01*
X367633Y-805113D01*
X390161Y-777661D01*
X417613Y-755133D01*
X448931Y-738393D01*
X482909Y-728085D01*
X524390Y-724000D01*
X1125610Y-724000D01*
X1167091Y-728085D01*
X1167091Y-728085D01*
G37*
G36*
X-407909Y-728085D02*
X-373931Y-738393D01*
X-342613Y-755133D01*
X-315161Y-777661D01*
X-292633Y-805113D01*
X-275893Y-836431D01*
X-265585Y-870409D01*
X-261500Y-911890D01*
X-261500Y-1588110D01*
X-265585Y-1629591D01*
X-275893Y-1663569D01*
X-292633Y-1694887D01*
X-315161Y-1722339D01*
X-342613Y-1744867D01*
X-373931Y-1761607D01*
X-407909Y-1771915D01*
X-449390Y-1776000D01*
X-1050610Y-1776000D01*
X-1092091Y-1771915D01*
X-1126069Y-1761607D01*
X-1157387Y-1744867D01*
X-1184839Y-1722339D01*
X-1207367Y-1694887D01*
X-1224107Y-1663569D01*
X-1234415Y-1629591D01*
X-1238500Y-1588110D01*
X-1238500Y-911890D01*
X-1234415Y-870409D01*
X-1224107Y-836431D01*
X-1207367Y-805113D01*
X-1184839Y-777661D01*
X-1157387Y-755133D01*
X-1126069Y-738393D01*
X-1092091Y-728085D01*
X-1050610Y-724000D01*
X-449390Y-724000D01*
X-407909Y-728085D01*
X-407909Y-728085D01*
G37*
G36*
X12017091Y-228085D02*
X12051069Y-238393D01*
X12082387Y-255133D01*
X12109839Y-277661D01*
X12132367Y-305113D01*
X12149107Y-336431D01*
X12159415Y-370409D01*
X12163500Y-411890D01*
X12163500Y-1088110D01*
X12159415Y-1129591D01*
X12149107Y-1163569D01*
X12132367Y-1194887D01*
X12109839Y-1222339D01*
X12082387Y-1244867D01*
X12051069Y-1261607D01*
X12017091Y-1271915D01*
X11975610Y-1276000D01*
X11374390Y-1276000D01*
X11332909Y-1271915D01*
X11298931Y-1261607D01*
X11267613Y-1244867D01*
X11240161Y-1222339D01*
X11217633Y-1194887D01*
X11200893Y-1163569D01*
X11190585Y-1129591D01*
X11186500Y-1088110D01*
X11186500Y-411890D01*
X11190585Y-370409D01*
X11200893Y-336431D01*
X11217633Y-305113D01*
X11240161Y-277661D01*
X11267613Y-255133D01*
X11298931Y-238393D01*
X11332909Y-228085D01*
X11374390Y-224000D01*
X11975610Y-224000D01*
X12017091Y-228085D01*
X12017091Y-228085D01*
G37*
G36*
X9017091Y-228085D02*
X9051069Y-238393D01*
X9082387Y-255133D01*
X9109839Y-277661D01*
X9132367Y-305113D01*
X9149107Y-336431D01*
X9159415Y-370409D01*
X9163500Y-411890D01*
X9163500Y-1088110D01*
X9159415Y-1129591D01*
X9149107Y-1163569D01*
X9132367Y-1194887D01*
X9109839Y-1222339D01*
X9082387Y-1244867D01*
X9051069Y-1261607D01*
X9017091Y-1271915D01*
X8975610Y-1276000D01*
X8374390Y-1276000D01*
X8332909Y-1271915D01*
X8298931Y-1261607D01*
X8267613Y-1244867D01*
X8240161Y-1222339D01*
X8217633Y-1194887D01*
X8200893Y-1163569D01*
X8190585Y-1129591D01*
X8186500Y-1088110D01*
X8186500Y-411890D01*
X8190585Y-370409D01*
X8200893Y-336431D01*
X8217633Y-305113D01*
X8240161Y-277661D01*
X8267613Y-255133D01*
X8298931Y-238393D01*
X8332909Y-228085D01*
X8374390Y-224000D01*
X8975610Y-224000D01*
X9017091Y-228085D01*
X9017091Y-228085D01*
G37*
G36*
X-7370409Y-303085D02*
X-7336431Y-313393D01*
X-7305113Y-330133D01*
X-7277661Y-352661D01*
X-7255133Y-380113D01*
X-7238393Y-411431D01*
X-7228085Y-445409D01*
X-7224000Y-486890D01*
X-7224000Y-1088110D01*
X-7228085Y-1129591D01*
X-7238393Y-1163569D01*
X-7255133Y-1194887D01*
X-7277661Y-1222339D01*
X-7305113Y-1244867D01*
X-7336431Y-1261607D01*
X-7370409Y-1271915D01*
X-7411890Y-1276000D01*
X-8088110Y-1276000D01*
X-8129591Y-1271915D01*
X-8163569Y-1261607D01*
X-8194887Y-1244867D01*
X-8222339Y-1222339D01*
X-8244867Y-1194887D01*
X-8261607Y-1163569D01*
X-8271915Y-1129591D01*
X-8276000Y-1088110D01*
X-8276000Y-486890D01*
X-8271915Y-445409D01*
X-8261607Y-411431D01*
X-8244867Y-380113D01*
X-8222339Y-352661D01*
X-8194887Y-330133D01*
X-8163569Y-313393D01*
X-8129591Y-303085D01*
X-8088110Y-299000D01*
X-7411890Y-299000D01*
X-7370409Y-303085D01*
X-7370409Y-303085D01*
G37*
G36*
X10592091Y-228085D02*
X10626069Y-238393D01*
X10657387Y-255133D01*
X10684839Y-277661D01*
X10707367Y-305113D01*
X10724107Y-336431D01*
X10734415Y-370409D01*
X10738500Y-411890D01*
X10738500Y-1088110D01*
X10734415Y-1129591D01*
X10724107Y-1163569D01*
X10707367Y-1194887D01*
X10684839Y-1222339D01*
X10657387Y-1244867D01*
X10626069Y-1261607D01*
X10592091Y-1271915D01*
X10550610Y-1276000D01*
X9949390Y-1276000D01*
X9907909Y-1271915D01*
X9873931Y-1261607D01*
X9842613Y-1244867D01*
X9815161Y-1222339D01*
X9792633Y-1194887D01*
X9775893Y-1163569D01*
X9765585Y-1129591D01*
X9761500Y-1088110D01*
X9761500Y-411890D01*
X9765585Y-370409D01*
X9775893Y-336431D01*
X9792633Y-305113D01*
X9815161Y-277661D01*
X9842613Y-255133D01*
X9873931Y-238393D01*
X9907909Y-228085D01*
X9949390Y-224000D01*
X10550610Y-224000D01*
X10592091Y-228085D01*
X10592091Y-228085D01*
G37*
G36*
X13592091Y-228085D02*
X13626069Y-238393D01*
X13657387Y-255133D01*
X13684839Y-277661D01*
X13707367Y-305113D01*
X13724107Y-336431D01*
X13734415Y-370409D01*
X13738500Y-411890D01*
X13738500Y-1088110D01*
X13734415Y-1129591D01*
X13724107Y-1163569D01*
X13707367Y-1194887D01*
X13684839Y-1222339D01*
X13657387Y-1244867D01*
X13626069Y-1261607D01*
X13592091Y-1271915D01*
X13550610Y-1276000D01*
X12949390Y-1276000D01*
X12907909Y-1271915D01*
X12873931Y-1261607D01*
X12842613Y-1244867D01*
X12815161Y-1222339D01*
X12792633Y-1194887D01*
X12775893Y-1163569D01*
X12765585Y-1129591D01*
X12761500Y-1088110D01*
X12761500Y-411890D01*
X12765585Y-370409D01*
X12775893Y-336431D01*
X12792633Y-305113D01*
X12815161Y-277661D01*
X12842613Y-255133D01*
X12873931Y-238393D01*
X12907909Y-228085D01*
X12949390Y-224000D01*
X13550610Y-224000D01*
X13592091Y-228085D01*
X13592091Y-228085D01*
G37*
G36*
X46360442Y894482D02*
X46426627Y887963D01*
X46525702Y857909D01*
X46596467Y836443D01*
X46678466Y792613D01*
X46752991Y752778D01*
X46770519Y738393D01*
X46890186Y640186D01*
X46965019Y549000D01*
X47002778Y502991D01*
X47002779Y502989D01*
X47086443Y346467D01*
X47100842Y299000D01*
X47137963Y176627D01*
X47155359Y0D01*
X47137963Y-176627D01*
X47111106Y-265164D01*
X47086443Y-346467D01*
X47021348Y-468250D01*
X47002778Y-502991D01*
X46975457Y-536281D01*
X46890186Y-640186D01*
X46788729Y-723448D01*
X46752991Y-752778D01*
X46752989Y-752779D01*
X46596467Y-836443D01*
X46550126Y-850500D01*
X46426627Y-887963D01*
X46360443Y-894481D01*
X46294260Y-901000D01*
X46205740Y-901000D01*
X46139557Y-894481D01*
X46073373Y-887963D01*
X45949874Y-850500D01*
X45903533Y-836443D01*
X45747011Y-752779D01*
X45747009Y-752778D01*
X45711271Y-723448D01*
X45609814Y-640186D01*
X45524543Y-536281D01*
X45497222Y-502991D01*
X45478652Y-468250D01*
X45413557Y-346467D01*
X45388894Y-265164D01*
X45362037Y-176627D01*
X45344641Y0D01*
X45362037Y176627D01*
X45399158Y299000D01*
X45413557Y346467D01*
X45497221Y502989D01*
X45497222Y502991D01*
X45534981Y549000D01*
X45609814Y640186D01*
X45729481Y738393D01*
X45747009Y752778D01*
X45821534Y792613D01*
X45903533Y836443D01*
X45974298Y857909D01*
X46073373Y887963D01*
X46139558Y894482D01*
X46205740Y901000D01*
X46294260Y901000D01*
X46360442Y894482D01*
X46360442Y894482D01*
G37*
G36*
X38879591Y109415D02*
X38913569Y99107D01*
X38944887Y82367D01*
X38972339Y59839D01*
X38994867Y32387D01*
X39011607Y1069D01*
X39021915Y-32909D01*
X39026000Y-74390D01*
X39026000Y-675610D01*
X39021915Y-717091D01*
X39011607Y-751069D01*
X38994867Y-782387D01*
X38972339Y-809839D01*
X38944887Y-832367D01*
X38913569Y-849107D01*
X38879591Y-859415D01*
X38838110Y-863500D01*
X38161890Y-863500D01*
X38120409Y-859415D01*
X38086431Y-849107D01*
X38055113Y-832367D01*
X38027661Y-809839D01*
X38005133Y-782387D01*
X37988393Y-751069D01*
X37978085Y-717091D01*
X37974000Y-675610D01*
X37974000Y-74390D01*
X37978085Y-32909D01*
X37988393Y1069D01*
X38005133Y32387D01*
X38027661Y59839D01*
X38055113Y82367D01*
X38086431Y99107D01*
X38120409Y109415D01*
X38161890Y113500D01*
X38838110Y113500D01*
X38879591Y109415D01*
X38879591Y109415D01*
G37*
G36*
X37051000Y-301000D02*
X34449000Y-301000D01*
X34449000Y1701000D01*
X37051000Y1701000D01*
X37051000Y-301000D01*
X37051000Y-301000D01*
G37*
G36*
X-36620409Y1021915D02*
X-36586431Y1011607D01*
X-36555113Y994867D01*
X-36527661Y972339D01*
X-36505133Y944887D01*
X-36488393Y913569D01*
X-36478085Y879591D01*
X-36474000Y838110D01*
X-36474000Y161890D01*
X-36478085Y120409D01*
X-36488393Y86431D01*
X-36505133Y55113D01*
X-36527661Y27661D01*
X-36555113Y5133D01*
X-36586431Y-11607D01*
X-36620409Y-21915D01*
X-36661890Y-26000D01*
X-37263110Y-26000D01*
X-37304591Y-21915D01*
X-37338569Y-11607D01*
X-37369887Y5133D01*
X-37397339Y27661D01*
X-37419867Y55113D01*
X-37436607Y86431D01*
X-37446915Y120409D01*
X-37451000Y161890D01*
X-37451000Y838110D01*
X-37446915Y879591D01*
X-37436607Y913569D01*
X-37419867Y944887D01*
X-37397339Y972339D01*
X-37369887Y994867D01*
X-37338569Y1011607D01*
X-37304591Y1021915D01*
X-37263110Y1026000D01*
X-36661890Y1026000D01*
X-36620409Y1021915D01*
X-36620409Y1021915D01*
G37*
G36*
X-38195409Y1021915D02*
X-38161431Y1011607D01*
X-38130113Y994867D01*
X-38102661Y972339D01*
X-38080133Y944887D01*
X-38063393Y913569D01*
X-38053085Y879591D01*
X-38049000Y838110D01*
X-38049000Y161890D01*
X-38053085Y120409D01*
X-38063393Y86431D01*
X-38080133Y55113D01*
X-38102661Y27661D01*
X-38130113Y5133D01*
X-38161431Y-11607D01*
X-38195409Y-21915D01*
X-38236890Y-26000D01*
X-38838110Y-26000D01*
X-38879591Y-21915D01*
X-38913569Y-11607D01*
X-38944887Y5133D01*
X-38972339Y27661D01*
X-38994867Y55113D01*
X-39011607Y86431D01*
X-39021915Y120409D01*
X-39026000Y161890D01*
X-39026000Y838110D01*
X-39021915Y879591D01*
X-39011607Y913569D01*
X-38994867Y944887D01*
X-38972339Y972339D01*
X-38944887Y994867D01*
X-38913569Y1011607D01*
X-38879591Y1021915D01*
X-38838110Y1026000D01*
X-38236890Y1026000D01*
X-38195409Y1021915D01*
X-38195409Y1021915D01*
G37*
G36*
X5372510Y2297959D02*
X5496032Y2285793D01*
X5694146Y2225695D01*
X5876729Y2128103D01*
X6036765Y1996765D01*
X6168103Y1836729D01*
X6265695Y1654146D01*
X6325793Y1456032D01*
X6346085Y1250000D01*
X6325793Y1043968D01*
X6265695Y845854D01*
X6168103Y663271D01*
X6036765Y503235D01*
X5876729Y371897D01*
X5694146Y274305D01*
X5496032Y214207D01*
X5372510Y202041D01*
X5341631Y199000D01*
X5238369Y199000D01*
X5207490Y202041D01*
X5083968Y214207D01*
X4885854Y274305D01*
X4703271Y371897D01*
X4543235Y503235D01*
X4411897Y663271D01*
X4314305Y845854D01*
X4254207Y1043968D01*
X4233915Y1250000D01*
X4254207Y1456032D01*
X4314305Y1654146D01*
X4411897Y1836729D01*
X4543235Y1996765D01*
X4703271Y2128103D01*
X4885854Y2225695D01*
X5083968Y2285793D01*
X5207490Y2297959D01*
X5238369Y2301000D01*
X5341631Y2301000D01*
X5372510Y2297959D01*
X5372510Y2297959D01*
G37*
G36*
X3801000Y199000D02*
X1699000Y199000D01*
X1699000Y2301000D01*
X3801000Y2301000D01*
X3801000Y199000D01*
X3801000Y199000D01*
G37*
G36*
X13592091Y1271915D02*
X13626069Y1261607D01*
X13657387Y1244867D01*
X13684839Y1222339D01*
X13707367Y1194887D01*
X13724107Y1163569D01*
X13734415Y1129591D01*
X13738500Y1088110D01*
X13738500Y411890D01*
X13734415Y370409D01*
X13724107Y336431D01*
X13707367Y305113D01*
X13684839Y277661D01*
X13657387Y255133D01*
X13626069Y238393D01*
X13592091Y228085D01*
X13550610Y224000D01*
X12949390Y224000D01*
X12907909Y228085D01*
X12873931Y238393D01*
X12842613Y255133D01*
X12815161Y277661D01*
X12792633Y305113D01*
X12775893Y336431D01*
X12765585Y370409D01*
X12761500Y411890D01*
X12761500Y1088110D01*
X12765585Y1129591D01*
X12775893Y1163569D01*
X12792633Y1194887D01*
X12815161Y1222339D01*
X12842613Y1244867D01*
X12873931Y1261607D01*
X12907909Y1271915D01*
X12949390Y1276000D01*
X13550610Y1276000D01*
X13592091Y1271915D01*
X13592091Y1271915D01*
G37*
G36*
X12017091Y1271915D02*
X12051069Y1261607D01*
X12082387Y1244867D01*
X12109839Y1222339D01*
X12132367Y1194887D01*
X12149107Y1163569D01*
X12159415Y1129591D01*
X12163500Y1088110D01*
X12163500Y411890D01*
X12159415Y370409D01*
X12149107Y336431D01*
X12132367Y305113D01*
X12109839Y277661D01*
X12082387Y255133D01*
X12051069Y238393D01*
X12017091Y228085D01*
X11975610Y224000D01*
X11374390Y224000D01*
X11332909Y228085D01*
X11298931Y238393D01*
X11267613Y255133D01*
X11240161Y277661D01*
X11217633Y305113D01*
X11200893Y336431D01*
X11190585Y370409D01*
X11186500Y411890D01*
X11186500Y1088110D01*
X11190585Y1129591D01*
X11200893Y1163569D01*
X11217633Y1194887D01*
X11240161Y1222339D01*
X11267613Y1244867D01*
X11298931Y1261607D01*
X11332909Y1271915D01*
X11374390Y1276000D01*
X11975610Y1276000D01*
X12017091Y1271915D01*
X12017091Y1271915D01*
G37*
G36*
X9017091Y1271915D02*
X9051069Y1261607D01*
X9082387Y1244867D01*
X9109839Y1222339D01*
X9132367Y1194887D01*
X9149107Y1163569D01*
X9159415Y1129591D01*
X9163500Y1088110D01*
X9163500Y411890D01*
X9159415Y370409D01*
X9149107Y336431D01*
X9132367Y305113D01*
X9109839Y277661D01*
X9082387Y255133D01*
X9051069Y238393D01*
X9017091Y228085D01*
X8975610Y224000D01*
X8374390Y224000D01*
X8332909Y228085D01*
X8298931Y238393D01*
X8267613Y255133D01*
X8240161Y277661D01*
X8217633Y305113D01*
X8200893Y336431D01*
X8190585Y370409D01*
X8186500Y411890D01*
X8186500Y1088110D01*
X8190585Y1129591D01*
X8200893Y1163569D01*
X8217633Y1194887D01*
X8240161Y1222339D01*
X8267613Y1244867D01*
X8298931Y1261607D01*
X8332909Y1271915D01*
X8374390Y1276000D01*
X8975610Y1276000D01*
X9017091Y1271915D01*
X9017091Y1271915D01*
G37*
G36*
X10592091Y1271915D02*
X10626069Y1261607D01*
X10657387Y1244867D01*
X10684839Y1222339D01*
X10707367Y1194887D01*
X10724107Y1163569D01*
X10734415Y1129591D01*
X10738500Y1088110D01*
X10738500Y411890D01*
X10734415Y370409D01*
X10724107Y336431D01*
X10707367Y305113D01*
X10684839Y277661D01*
X10657387Y255133D01*
X10626069Y238393D01*
X10592091Y228085D01*
X10550610Y224000D01*
X9949390Y224000D01*
X9907909Y228085D01*
X9873931Y238393D01*
X9842613Y255133D01*
X9815161Y277661D01*
X9792633Y305113D01*
X9775893Y336431D01*
X9765585Y370409D01*
X9761500Y411890D01*
X9761500Y1088110D01*
X9765585Y1129591D01*
X9775893Y1163569D01*
X9792633Y1194887D01*
X9815161Y1222339D01*
X9842613Y1244867D01*
X9873931Y1261607D01*
X9907909Y1271915D01*
X9949390Y1276000D01*
X10550610Y1276000D01*
X10592091Y1271915D01*
X10592091Y1271915D01*
G37*
G36*
X-7370409Y1271915D02*
X-7336431Y1261607D01*
X-7305113Y1244867D01*
X-7277661Y1222339D01*
X-7255133Y1194887D01*
X-7238393Y1163569D01*
X-7228085Y1129591D01*
X-7224000Y1088110D01*
X-7224000Y486890D01*
X-7228085Y445409D01*
X-7238393Y411431D01*
X-7255133Y380113D01*
X-7277661Y352661D01*
X-7305113Y330133D01*
X-7336431Y313393D01*
X-7370409Y303085D01*
X-7411890Y299000D01*
X-8088110Y299000D01*
X-8129591Y303085D01*
X-8163569Y313393D01*
X-8194887Y330133D01*
X-8222339Y352661D01*
X-8244867Y380113D01*
X-8261607Y411431D01*
X-8271915Y445409D01*
X-8276000Y486890D01*
X-8276000Y1088110D01*
X-8271915Y1129591D01*
X-8261607Y1163569D01*
X-8244867Y1194887D01*
X-8222339Y1222339D01*
X-8194887Y1244867D01*
X-8163569Y1261607D01*
X-8129591Y1271915D01*
X-8088110Y1276000D01*
X-7411890Y1276000D01*
X-7370409Y1271915D01*
X-7370409Y1271915D01*
G37*
G36*
X-4001772Y2068297D02*
X-3846900Y2004147D01*
X-3707519Y1911015D01*
X-3588985Y1792481D01*
X-3495853Y1653100D01*
X-3431703Y1498228D01*
X-3399000Y1333816D01*
X-3399000Y1166184D01*
X-3431703Y1001772D01*
X-3495853Y846900D01*
X-3588985Y707519D01*
X-3707519Y588985D01*
X-3846900Y495853D01*
X-4001772Y431703D01*
X-4166184Y399000D01*
X-4333816Y399000D01*
X-4498228Y431703D01*
X-4653100Y495853D01*
X-4792481Y588985D01*
X-4911015Y707519D01*
X-5004147Y846900D01*
X-5068297Y1001772D01*
X-5101000Y1166184D01*
X-5101000Y1333816D01*
X-5068297Y1498228D01*
X-5004147Y1653100D01*
X-4911015Y1792481D01*
X-4792481Y1911015D01*
X-4653100Y2004147D01*
X-4498228Y2068297D01*
X-4333816Y2101000D01*
X-4166184Y2101000D01*
X-4001772Y2068297D01*
X-4001772Y2068297D01*
G37*
G36*
X38879591Y1684415D02*
X38913569Y1674107D01*
X38944887Y1657367D01*
X38972339Y1634839D01*
X38994867Y1607387D01*
X39011607Y1576069D01*
X39021915Y1542091D01*
X39026000Y1500610D01*
X39026000Y899390D01*
X39021915Y857909D01*
X39011607Y823931D01*
X38994867Y792613D01*
X38972339Y765161D01*
X38944887Y742633D01*
X38913569Y725893D01*
X38879591Y715585D01*
X38838110Y711500D01*
X38161890Y711500D01*
X38120409Y715585D01*
X38086431Y725893D01*
X38055113Y742633D01*
X38027661Y765161D01*
X38005133Y792613D01*
X37988393Y823931D01*
X37978085Y857909D01*
X37974000Y899390D01*
X37974000Y1500610D01*
X37978085Y1542091D01*
X37988393Y1576069D01*
X38005133Y1607387D01*
X38027661Y1634839D01*
X38055113Y1657367D01*
X38086431Y1674107D01*
X38120409Y1684415D01*
X38161890Y1688500D01*
X38838110Y1688500D01*
X38879591Y1684415D01*
X38879591Y1684415D01*
G37*
G36*
X-407909Y1771915D02*
X-373931Y1761607D01*
X-342613Y1744867D01*
X-315161Y1722339D01*
X-292633Y1694887D01*
X-275893Y1663569D01*
X-265585Y1629591D01*
X-261500Y1588110D01*
X-261500Y911890D01*
X-265585Y870409D01*
X-275893Y836431D01*
X-292633Y805113D01*
X-315161Y777661D01*
X-342613Y755133D01*
X-373931Y738393D01*
X-407909Y728085D01*
X-449390Y724000D01*
X-1050610Y724000D01*
X-1092091Y728085D01*
X-1126069Y738393D01*
X-1157387Y755133D01*
X-1184839Y777661D01*
X-1207367Y805113D01*
X-1224107Y836431D01*
X-1234415Y870409D01*
X-1238500Y911890D01*
X-1238500Y1588110D01*
X-1234415Y1629591D01*
X-1224107Y1663569D01*
X-1207367Y1694887D01*
X-1184839Y1722339D01*
X-1157387Y1744867D01*
X-1126069Y1761607D01*
X-1092091Y1771915D01*
X-1050610Y1776000D01*
X-449390Y1776000D01*
X-407909Y1771915D01*
X-407909Y1771915D01*
G37*
G36*
X1167091Y1771915D02*
X1201069Y1761607D01*
X1232387Y1744867D01*
X1259839Y1722339D01*
X1282367Y1694887D01*
X1299107Y1663569D01*
X1309415Y1629591D01*
X1313500Y1588110D01*
X1313500Y911890D01*
X1309415Y870409D01*
X1299107Y836431D01*
X1282367Y805113D01*
X1259839Y777661D01*
X1232387Y755133D01*
X1201069Y738393D01*
X1167091Y728085D01*
X1125610Y724000D01*
X524390Y724000D01*
X482909Y728085D01*
X448931Y738393D01*
X417613Y755133D01*
X390161Y777661D01*
X367633Y805113D01*
X350893Y836431D01*
X340585Y870409D01*
X336500Y911890D01*
X336500Y1588110D01*
X340585Y1629591D01*
X350893Y1663569D01*
X367633Y1694887D01*
X390161Y1722339D01*
X417613Y1744867D01*
X448931Y1761607D01*
X482909Y1771915D01*
X524390Y1776000D01*
X1125610Y1776000D01*
X1167091Y1771915D01*
X1167091Y1771915D01*
G37*
G36*
X31879591Y2484415D02*
X31913569Y2474107D01*
X31944887Y2457367D01*
X31972339Y2434839D01*
X31994867Y2407387D01*
X32011607Y2376069D01*
X32021915Y2342091D01*
X32026000Y2300610D01*
X32026000Y1699390D01*
X32021915Y1657909D01*
X32011607Y1623931D01*
X31994867Y1592613D01*
X31972339Y1565161D01*
X31944887Y1542633D01*
X31913569Y1525893D01*
X31879591Y1515585D01*
X31838110Y1511500D01*
X31161890Y1511500D01*
X31120409Y1515585D01*
X31086431Y1525893D01*
X31055113Y1542633D01*
X31027661Y1565161D01*
X31005133Y1592613D01*
X30988393Y1623931D01*
X30978085Y1657909D01*
X30974000Y1699390D01*
X30974000Y2300610D01*
X30978085Y2342091D01*
X30988393Y2376069D01*
X31005133Y2407387D01*
X31027661Y2434839D01*
X31055113Y2457367D01*
X31086431Y2474107D01*
X31120409Y2484415D01*
X31161890Y2488500D01*
X31838110Y2488500D01*
X31879591Y2484415D01*
X31879591Y2484415D01*
G37*
G36*
X46360443Y3434481D02*
X46426627Y3427963D01*
X46536666Y3394583D01*
X46596467Y3376443D01*
X46645002Y3350500D01*
X46752991Y3292778D01*
X46788729Y3263448D01*
X46890186Y3180186D01*
X46967071Y3086500D01*
X47002778Y3042991D01*
X47002779Y3042989D01*
X47086443Y2886467D01*
X47097353Y2850500D01*
X47137963Y2716627D01*
X47155359Y2540000D01*
X47137963Y2363373D01*
X47131507Y2342091D01*
X47086443Y2193533D01*
X47032781Y2093140D01*
X47002778Y2037009D01*
X46982464Y2012257D01*
X46890186Y1899814D01*
X46788729Y1816552D01*
X46752991Y1787222D01*
X46752989Y1787221D01*
X46596467Y1703557D01*
X46567885Y1694887D01*
X46426627Y1652037D01*
X46378896Y1647336D01*
X46294260Y1639000D01*
X46205740Y1639000D01*
X46121104Y1647336D01*
X46073373Y1652037D01*
X45932115Y1694887D01*
X45903533Y1703557D01*
X45747011Y1787221D01*
X45747009Y1787222D01*
X45711271Y1816552D01*
X45609814Y1899814D01*
X45517536Y2012257D01*
X45497222Y2037009D01*
X45467219Y2093140D01*
X45413557Y2193533D01*
X45368493Y2342091D01*
X45362037Y2363373D01*
X45344641Y2540000D01*
X45362037Y2716627D01*
X45402647Y2850500D01*
X45413557Y2886467D01*
X45497221Y3042989D01*
X45497222Y3042991D01*
X45532929Y3086500D01*
X45609814Y3180186D01*
X45711271Y3263448D01*
X45747009Y3292778D01*
X45854998Y3350500D01*
X45903533Y3376443D01*
X45963334Y3394583D01*
X46073373Y3427963D01*
X46139557Y3434481D01*
X46205740Y3441000D01*
X46294260Y3441000D01*
X46360443Y3434481D01*
X46360443Y3434481D01*
G37*
G36*
X13592091Y2771915D02*
X13626069Y2761607D01*
X13657387Y2744867D01*
X13684839Y2722339D01*
X13707367Y2694887D01*
X13724107Y2663569D01*
X13734415Y2629591D01*
X13738500Y2588110D01*
X13738500Y1911890D01*
X13734415Y1870409D01*
X13724107Y1836431D01*
X13707367Y1805113D01*
X13684839Y1777661D01*
X13657387Y1755133D01*
X13626069Y1738393D01*
X13592091Y1728085D01*
X13550610Y1724000D01*
X12949390Y1724000D01*
X12907909Y1728085D01*
X12873931Y1738393D01*
X12842613Y1755133D01*
X12815161Y1777661D01*
X12792633Y1805113D01*
X12775893Y1836431D01*
X12765585Y1870409D01*
X12761500Y1911890D01*
X12761500Y2588110D01*
X12765585Y2629591D01*
X12775893Y2663569D01*
X12792633Y2694887D01*
X12815161Y2722339D01*
X12842613Y2744867D01*
X12873931Y2761607D01*
X12907909Y2771915D01*
X12949390Y2776000D01*
X13550610Y2776000D01*
X13592091Y2771915D01*
X13592091Y2771915D01*
G37*
G36*
X9017091Y2771915D02*
X9051069Y2761607D01*
X9082387Y2744867D01*
X9109839Y2722339D01*
X9132367Y2694887D01*
X9149107Y2663569D01*
X9159415Y2629591D01*
X9163500Y2588110D01*
X9163500Y1911890D01*
X9159415Y1870409D01*
X9149107Y1836431D01*
X9132367Y1805113D01*
X9109839Y1777661D01*
X9082387Y1755133D01*
X9051069Y1738393D01*
X9017091Y1728085D01*
X8975610Y1724000D01*
X8374390Y1724000D01*
X8332909Y1728085D01*
X8298931Y1738393D01*
X8267613Y1755133D01*
X8240161Y1777661D01*
X8217633Y1805113D01*
X8200893Y1836431D01*
X8190585Y1870409D01*
X8186500Y1911890D01*
X8186500Y2588110D01*
X8190585Y2629591D01*
X8200893Y2663569D01*
X8217633Y2694887D01*
X8240161Y2722339D01*
X8267613Y2744867D01*
X8298931Y2761607D01*
X8332909Y2771915D01*
X8374390Y2776000D01*
X8975610Y2776000D01*
X9017091Y2771915D01*
X9017091Y2771915D01*
G37*
G36*
X10592091Y2771915D02*
X10626069Y2761607D01*
X10657387Y2744867D01*
X10684839Y2722339D01*
X10707367Y2694887D01*
X10724107Y2663569D01*
X10734415Y2629591D01*
X10738500Y2588110D01*
X10738500Y1911890D01*
X10734415Y1870409D01*
X10724107Y1836431D01*
X10707367Y1805113D01*
X10684839Y1777661D01*
X10657387Y1755133D01*
X10626069Y1738393D01*
X10592091Y1728085D01*
X10550610Y1724000D01*
X9949390Y1724000D01*
X9907909Y1728085D01*
X9873931Y1738393D01*
X9842613Y1755133D01*
X9815161Y1777661D01*
X9792633Y1805113D01*
X9775893Y1836431D01*
X9765585Y1870409D01*
X9761500Y1911890D01*
X9761500Y2588110D01*
X9765585Y2629591D01*
X9775893Y2663569D01*
X9792633Y2694887D01*
X9815161Y2722339D01*
X9842613Y2744867D01*
X9873931Y2761607D01*
X9907909Y2771915D01*
X9949390Y2776000D01*
X10550610Y2776000D01*
X10592091Y2771915D01*
X10592091Y2771915D01*
G37*
G36*
X12017091Y2771915D02*
X12051069Y2761607D01*
X12082387Y2744867D01*
X12109839Y2722339D01*
X12132367Y2694887D01*
X12149107Y2663569D01*
X12159415Y2629591D01*
X12163500Y2588110D01*
X12163500Y1911890D01*
X12159415Y1870409D01*
X12149107Y1836431D01*
X12132367Y1805113D01*
X12109839Y1777661D01*
X12082387Y1755133D01*
X12051069Y1738393D01*
X12017091Y1728085D01*
X11975610Y1724000D01*
X11374390Y1724000D01*
X11332909Y1728085D01*
X11298931Y1738393D01*
X11267613Y1755133D01*
X11240161Y1777661D01*
X11217633Y1805113D01*
X11200893Y1836431D01*
X11190585Y1870409D01*
X11186500Y1911890D01*
X11186500Y2588110D01*
X11190585Y2629591D01*
X11200893Y2663569D01*
X11217633Y2694887D01*
X11240161Y2722339D01*
X11267613Y2744867D01*
X11298931Y2761607D01*
X11332909Y2771915D01*
X11374390Y2776000D01*
X11975610Y2776000D01*
X12017091Y2771915D01*
X12017091Y2771915D01*
G37*
G36*
X31879591Y4059415D02*
X31913569Y4049107D01*
X31944887Y4032367D01*
X31972339Y4009839D01*
X31994867Y3982387D01*
X32011607Y3951069D01*
X32021915Y3917091D01*
X32026000Y3875610D01*
X32026000Y3274390D01*
X32021915Y3232909D01*
X32011607Y3198931D01*
X31994867Y3167613D01*
X31972339Y3140161D01*
X31944887Y3117633D01*
X31913569Y3100893D01*
X31879591Y3090585D01*
X31838110Y3086500D01*
X31161890Y3086500D01*
X31120409Y3090585D01*
X31086431Y3100893D01*
X31055113Y3117633D01*
X31027661Y3140161D01*
X31005133Y3167613D01*
X30988393Y3198931D01*
X30978085Y3232909D01*
X30974000Y3274390D01*
X30974000Y3875610D01*
X30978085Y3917091D01*
X30988393Y3951069D01*
X31005133Y3982387D01*
X31027661Y4009839D01*
X31055113Y4032367D01*
X31086431Y4049107D01*
X31120409Y4059415D01*
X31161890Y4063500D01*
X31838110Y4063500D01*
X31879591Y4059415D01*
X31879591Y4059415D01*
G37*
G36*
X-14381396Y6121653D02*
X-14344855Y6110568D01*
X-14311180Y6092569D01*
X-14281659Y6068341D01*
X-14257431Y6038820D01*
X-14239432Y6005145D01*
X-14228347Y5968604D01*
X-14224000Y5924462D01*
X-14224000Y3575538D01*
X-14228347Y3531396D01*
X-14239432Y3494855D01*
X-14257431Y3461180D01*
X-14281659Y3431659D01*
X-14311180Y3407431D01*
X-14344855Y3389432D01*
X-14381396Y3378347D01*
X-14425538Y3374000D01*
X-15374462Y3374000D01*
X-15418604Y3378347D01*
X-15455145Y3389432D01*
X-15488820Y3407431D01*
X-15518341Y3431659D01*
X-15542569Y3461180D01*
X-15560568Y3494855D01*
X-15571653Y3531396D01*
X-15576000Y3575538D01*
X-15576000Y5924462D01*
X-15571653Y5968604D01*
X-15560568Y6005145D01*
X-15542569Y6038820D01*
X-15518341Y6068341D01*
X-15488820Y6092569D01*
X-15455145Y6110568D01*
X-15418604Y6121653D01*
X-15374462Y6126000D01*
X-14425538Y6126000D01*
X-14381396Y6121653D01*
X-14381396Y6121653D01*
G37*
G36*
X-11581396Y6121653D02*
X-11544855Y6110568D01*
X-11511180Y6092569D01*
X-11481659Y6068341D01*
X-11457431Y6038820D01*
X-11439432Y6005145D01*
X-11428347Y5968604D01*
X-11424000Y5924462D01*
X-11424000Y3575538D01*
X-11428347Y3531396D01*
X-11439432Y3494855D01*
X-11457431Y3461180D01*
X-11481659Y3431659D01*
X-11511180Y3407431D01*
X-11544855Y3389432D01*
X-11581396Y3378347D01*
X-11625538Y3374000D01*
X-12574462Y3374000D01*
X-12618604Y3378347D01*
X-12655145Y3389432D01*
X-12688820Y3407431D01*
X-12718341Y3431659D01*
X-12742569Y3461180D01*
X-12760568Y3494855D01*
X-12771653Y3531396D01*
X-12776000Y3575538D01*
X-12776000Y5924462D01*
X-12771653Y5968604D01*
X-12760568Y6005145D01*
X-12742569Y6038820D01*
X-12718341Y6068341D01*
X-12688820Y6092569D01*
X-12655145Y6110568D01*
X-12618604Y6121653D01*
X-12574462Y6126000D01*
X-11625538Y6126000D01*
X-11581396Y6121653D01*
X-11581396Y6121653D01*
G37*
G36*
X46360442Y5974482D02*
X46426627Y5967963D01*
X46539853Y5933616D01*
X46596467Y5916443D01*
X46735087Y5842348D01*
X46752991Y5832778D01*
X46788729Y5803448D01*
X46890186Y5720186D01*
X46964534Y5629591D01*
X47002778Y5582991D01*
X47002779Y5582989D01*
X47086443Y5426467D01*
X47086443Y5426466D01*
X47137963Y5256627D01*
X47155359Y5080000D01*
X47137963Y4903373D01*
X47108156Y4805113D01*
X47086443Y4733533D01*
X47048148Y4661890D01*
X47002778Y4577009D01*
X46984808Y4555113D01*
X46890186Y4439814D01*
X46788729Y4356552D01*
X46752991Y4327222D01*
X46752989Y4327221D01*
X46596467Y4243557D01*
X46539853Y4226384D01*
X46426627Y4192037D01*
X46360443Y4185519D01*
X46294260Y4179000D01*
X46205740Y4179000D01*
X46139557Y4185519D01*
X46073373Y4192037D01*
X45960147Y4226384D01*
X45903533Y4243557D01*
X45747011Y4327221D01*
X45747009Y4327222D01*
X45711271Y4356552D01*
X45609814Y4439814D01*
X45515192Y4555113D01*
X45497222Y4577009D01*
X45451852Y4661890D01*
X45413557Y4733533D01*
X45391844Y4805113D01*
X45362037Y4903373D01*
X45344641Y5080000D01*
X45362037Y5256627D01*
X45413557Y5426466D01*
X45413557Y5426467D01*
X45497221Y5582989D01*
X45497222Y5582991D01*
X45535466Y5629591D01*
X45609814Y5720186D01*
X45711271Y5803448D01*
X45747009Y5832778D01*
X45764913Y5842348D01*
X45903533Y5916443D01*
X45960147Y5933616D01*
X46073373Y5967963D01*
X46139558Y5974482D01*
X46205740Y5981000D01*
X46294260Y5981000D01*
X46360442Y5974482D01*
X46360442Y5974482D01*
G37*
G36*
X30092091Y5521915D02*
X30126069Y5511607D01*
X30157387Y5494867D01*
X30184839Y5472339D01*
X30207367Y5444887D01*
X30224107Y5413569D01*
X30234415Y5379591D01*
X30238500Y5338110D01*
X30238500Y4661890D01*
X30234415Y4620409D01*
X30224107Y4586431D01*
X30207367Y4555113D01*
X30184839Y4527661D01*
X30157387Y4505133D01*
X30126069Y4488393D01*
X30092091Y4478085D01*
X30050610Y4474000D01*
X29449390Y4474000D01*
X29407909Y4478085D01*
X29373931Y4488393D01*
X29342613Y4505133D01*
X29315161Y4527661D01*
X29292633Y4555113D01*
X29275893Y4586431D01*
X29265585Y4620409D01*
X29261500Y4661890D01*
X29261500Y5338110D01*
X29265585Y5379591D01*
X29275893Y5413569D01*
X29292633Y5444887D01*
X29315161Y5472339D01*
X29342613Y5494867D01*
X29373931Y5511607D01*
X29407909Y5521915D01*
X29449390Y5526000D01*
X30050610Y5526000D01*
X30092091Y5521915D01*
X30092091Y5521915D01*
G37*
G36*
X31667091Y5521915D02*
X31701069Y5511607D01*
X31732387Y5494867D01*
X31759839Y5472339D01*
X31782367Y5444887D01*
X31799107Y5413569D01*
X31809415Y5379591D01*
X31813500Y5338110D01*
X31813500Y4661890D01*
X31809415Y4620409D01*
X31799107Y4586431D01*
X31782367Y4555113D01*
X31759839Y4527661D01*
X31732387Y4505133D01*
X31701069Y4488393D01*
X31667091Y4478085D01*
X31625610Y4474000D01*
X31024390Y4474000D01*
X30982909Y4478085D01*
X30948931Y4488393D01*
X30917613Y4505133D01*
X30890161Y4527661D01*
X30867633Y4555113D01*
X30850893Y4586431D01*
X30840585Y4620409D01*
X30836500Y4661890D01*
X30836500Y5338110D01*
X30840585Y5379591D01*
X30850893Y5413569D01*
X30867633Y5444887D01*
X30890161Y5472339D01*
X30917613Y5494867D01*
X30948931Y5511607D01*
X30982909Y5521915D01*
X31024390Y5526000D01*
X31625610Y5526000D01*
X31667091Y5521915D01*
X31667091Y5521915D01*
G37*
G36*
X-35499000Y4499000D02*
X-38001000Y4499000D01*
X-38001000Y5341000D01*
X-35499000Y5341000D01*
X-35499000Y4499000D01*
X-35499000Y4499000D01*
G37*
G36*
X-31599000Y4499000D02*
X-34101000Y4499000D01*
X-34101000Y5341000D01*
X-31599000Y5341000D01*
X-31599000Y4499000D01*
X-31599000Y4499000D01*
G37*
G36*
X18092091Y5771915D02*
X18126069Y5761607D01*
X18157387Y5744867D01*
X18184839Y5722339D01*
X18207367Y5694887D01*
X18224107Y5663569D01*
X18234415Y5629591D01*
X18238500Y5588110D01*
X18238500Y4911890D01*
X18234415Y4870409D01*
X18224107Y4836431D01*
X18207367Y4805113D01*
X18184839Y4777661D01*
X18157387Y4755133D01*
X18126069Y4738393D01*
X18092091Y4728085D01*
X18050610Y4724000D01*
X17449390Y4724000D01*
X17407909Y4728085D01*
X17373931Y4738393D01*
X17342613Y4755133D01*
X17315161Y4777661D01*
X17292633Y4805113D01*
X17275893Y4836431D01*
X17265585Y4870409D01*
X17261500Y4911890D01*
X17261500Y5588110D01*
X17265585Y5629591D01*
X17275893Y5663569D01*
X17292633Y5694887D01*
X17315161Y5722339D01*
X17342613Y5744867D01*
X17373931Y5761607D01*
X17407909Y5771915D01*
X17449390Y5776000D01*
X18050610Y5776000D01*
X18092091Y5771915D01*
X18092091Y5771915D01*
G37*
G36*
X16517091Y5771915D02*
X16551069Y5761607D01*
X16582387Y5744867D01*
X16609839Y5722339D01*
X16632367Y5694887D01*
X16649107Y5663569D01*
X16659415Y5629591D01*
X16663500Y5588110D01*
X16663500Y4911890D01*
X16659415Y4870409D01*
X16649107Y4836431D01*
X16632367Y4805113D01*
X16609839Y4777661D01*
X16582387Y4755133D01*
X16551069Y4738393D01*
X16517091Y4728085D01*
X16475610Y4724000D01*
X15874390Y4724000D01*
X15832909Y4728085D01*
X15798931Y4738393D01*
X15767613Y4755133D01*
X15740161Y4777661D01*
X15717633Y4805113D01*
X15700893Y4836431D01*
X15690585Y4870409D01*
X15686500Y4911890D01*
X15686500Y5588110D01*
X15690585Y5629591D01*
X15700893Y5663569D01*
X15717633Y5694887D01*
X15740161Y5722339D01*
X15767613Y5744867D01*
X15798931Y5761607D01*
X15832909Y5771915D01*
X15874390Y5776000D01*
X16475610Y5776000D01*
X16517091Y5771915D01*
X16517091Y5771915D01*
G37*
G36*
X20170293Y6499677D02*
X20177311Y6497548D01*
X20191080Y6490189D01*
X20213719Y6480813D01*
X20237753Y6476033D01*
X20262257Y6476034D01*
X20286290Y6480816D01*
X20308920Y6490189D01*
X20322689Y6497548D01*
X20329707Y6499677D01*
X20343140Y6501000D01*
X20656860Y6501000D01*
X20670293Y6499677D01*
X20677311Y6497548D01*
X20691080Y6490189D01*
X20713719Y6480813D01*
X20737753Y6476033D01*
X20762257Y6476034D01*
X20786290Y6480816D01*
X20808920Y6490189D01*
X20822689Y6497548D01*
X20829707Y6499677D01*
X20843140Y6501000D01*
X21156860Y6501000D01*
X21170293Y6499677D01*
X21177311Y6497548D01*
X21191080Y6490189D01*
X21213719Y6480813D01*
X21237753Y6476033D01*
X21262257Y6476034D01*
X21286290Y6480816D01*
X21308920Y6490189D01*
X21322689Y6497548D01*
X21329707Y6499677D01*
X21343140Y6501000D01*
X21656860Y6501000D01*
X21670293Y6499677D01*
X21677311Y6497548D01*
X21691080Y6490189D01*
X21713719Y6480813D01*
X21737753Y6476033D01*
X21762257Y6476034D01*
X21786290Y6480816D01*
X21808920Y6490189D01*
X21822689Y6497548D01*
X21829707Y6499677D01*
X21843140Y6501000D01*
X22156860Y6501000D01*
X22170293Y6499677D01*
X22177311Y6497548D01*
X22191080Y6490189D01*
X22213719Y6480813D01*
X22237753Y6476033D01*
X22262257Y6476034D01*
X22286290Y6480816D01*
X22308920Y6490189D01*
X22322689Y6497548D01*
X22329707Y6499677D01*
X22343140Y6501000D01*
X22656860Y6501000D01*
X22670293Y6499677D01*
X22677311Y6497548D01*
X22691080Y6490189D01*
X22713719Y6480813D01*
X22737753Y6476033D01*
X22762257Y6476034D01*
X22786290Y6480816D01*
X22808920Y6490189D01*
X22822689Y6497548D01*
X22829707Y6499677D01*
X22843140Y6501000D01*
X23156860Y6501000D01*
X23170293Y6499677D01*
X23177311Y6497548D01*
X23191080Y6490189D01*
X23213719Y6480813D01*
X23237753Y6476033D01*
X23262257Y6476034D01*
X23286290Y6480816D01*
X23308920Y6490189D01*
X23322689Y6497548D01*
X23329707Y6499677D01*
X23343140Y6501000D01*
X23656860Y6501000D01*
X23670293Y6499677D01*
X23677311Y6497548D01*
X23691080Y6490189D01*
X23713719Y6480813D01*
X23737753Y6476033D01*
X23762257Y6476034D01*
X23786290Y6480816D01*
X23808920Y6490189D01*
X23822689Y6497548D01*
X23829707Y6499677D01*
X23843140Y6501000D01*
X24156860Y6501000D01*
X24170293Y6499677D01*
X24177311Y6497548D01*
X24191080Y6490189D01*
X24213719Y6480813D01*
X24237753Y6476033D01*
X24262257Y6476034D01*
X24286290Y6480816D01*
X24308920Y6490189D01*
X24322689Y6497548D01*
X24329707Y6499677D01*
X24343140Y6501000D01*
X24656860Y6501000D01*
X24670293Y6499677D01*
X24677311Y6497548D01*
X24691080Y6490189D01*
X24713719Y6480813D01*
X24737753Y6476033D01*
X24762257Y6476034D01*
X24786290Y6480816D01*
X24808920Y6490189D01*
X24822689Y6497548D01*
X24829707Y6499677D01*
X24843140Y6501000D01*
X25156860Y6501000D01*
X25170293Y6499677D01*
X25177311Y6497548D01*
X25191080Y6490189D01*
X25213719Y6480813D01*
X25237753Y6476033D01*
X25262257Y6476034D01*
X25286290Y6480816D01*
X25308920Y6490189D01*
X25322689Y6497548D01*
X25329707Y6499677D01*
X25343140Y6501000D01*
X25656860Y6501000D01*
X25670293Y6499677D01*
X25677311Y6497548D01*
X25691080Y6490189D01*
X25713719Y6480813D01*
X25737753Y6476033D01*
X25762257Y6476034D01*
X25786290Y6480816D01*
X25808920Y6490189D01*
X25822689Y6497548D01*
X25829707Y6499677D01*
X25843140Y6501000D01*
X26156860Y6501000D01*
X26170293Y6499677D01*
X26177311Y6497548D01*
X26191080Y6490189D01*
X26213719Y6480813D01*
X26237753Y6476033D01*
X26262257Y6476034D01*
X26286290Y6480816D01*
X26308920Y6490189D01*
X26322689Y6497548D01*
X26329707Y6499677D01*
X26343140Y6501000D01*
X26656860Y6501000D01*
X26670293Y6499677D01*
X26677311Y6497548D01*
X26691080Y6490189D01*
X26713719Y6480813D01*
X26737753Y6476033D01*
X26762257Y6476034D01*
X26786290Y6480816D01*
X26808920Y6490189D01*
X26822689Y6497548D01*
X26829707Y6499677D01*
X26843140Y6501000D01*
X27156860Y6501000D01*
X27170293Y6499677D01*
X27177311Y6497548D01*
X27191080Y6490189D01*
X27213719Y6480813D01*
X27237753Y6476033D01*
X27262257Y6476034D01*
X27286290Y6480816D01*
X27308920Y6490189D01*
X27322689Y6497548D01*
X27329707Y6499677D01*
X27343140Y6501000D01*
X27656860Y6501000D01*
X27670293Y6499677D01*
X27677312Y6497548D01*
X27683775Y6494093D01*
X27689442Y6489442D01*
X27694093Y6483775D01*
X27697548Y6477312D01*
X27699677Y6470293D01*
X27701000Y6456860D01*
X27701000Y4893140D01*
X27699677Y4879707D01*
X27697548Y4872688D01*
X27694093Y4866225D01*
X27689442Y4860558D01*
X27683775Y4855907D01*
X27677312Y4852452D01*
X27670293Y4850323D01*
X27656860Y4849000D01*
X27343140Y4849000D01*
X27329707Y4850323D01*
X27322689Y4852452D01*
X27308920Y4859811D01*
X27286281Y4869187D01*
X27262247Y4873967D01*
X27237743Y4873966D01*
X27213710Y4869184D01*
X27191080Y4859811D01*
X27177311Y4852452D01*
X27170293Y4850323D01*
X27156860Y4849000D01*
X26843140Y4849000D01*
X26829707Y4850323D01*
X26822689Y4852452D01*
X26808920Y4859811D01*
X26786281Y4869187D01*
X26762247Y4873967D01*
X26737743Y4873966D01*
X26713710Y4869184D01*
X26691080Y4859811D01*
X26677311Y4852452D01*
X26670293Y4850323D01*
X26656860Y4849000D01*
X26343140Y4849000D01*
X26329707Y4850323D01*
X26322689Y4852452D01*
X26308920Y4859811D01*
X26286281Y4869187D01*
X26262247Y4873967D01*
X26237743Y4873966D01*
X26213710Y4869184D01*
X26191080Y4859811D01*
X26177311Y4852452D01*
X26170293Y4850323D01*
X26156860Y4849000D01*
X25843140Y4849000D01*
X25829707Y4850323D01*
X25822689Y4852452D01*
X25808920Y4859811D01*
X25786281Y4869187D01*
X25762247Y4873967D01*
X25737743Y4873966D01*
X25713710Y4869184D01*
X25691080Y4859811D01*
X25677311Y4852452D01*
X25670293Y4850323D01*
X25656860Y4849000D01*
X25343140Y4849000D01*
X25329707Y4850323D01*
X25322689Y4852452D01*
X25308920Y4859811D01*
X25286281Y4869187D01*
X25262247Y4873967D01*
X25237743Y4873966D01*
X25213710Y4869184D01*
X25191080Y4859811D01*
X25177311Y4852452D01*
X25170293Y4850323D01*
X25156860Y4849000D01*
X24843140Y4849000D01*
X24829707Y4850323D01*
X24822689Y4852452D01*
X24808920Y4859811D01*
X24786281Y4869187D01*
X24762247Y4873967D01*
X24737743Y4873966D01*
X24713710Y4869184D01*
X24691080Y4859811D01*
X24677311Y4852452D01*
X24670293Y4850323D01*
X24656860Y4849000D01*
X24343140Y4849000D01*
X24329707Y4850323D01*
X24322689Y4852452D01*
X24308920Y4859811D01*
X24286281Y4869187D01*
X24262247Y4873967D01*
X24237743Y4873966D01*
X24213710Y4869184D01*
X24191080Y4859811D01*
X24177311Y4852452D01*
X24170293Y4850323D01*
X24156860Y4849000D01*
X23843140Y4849000D01*
X23829707Y4850323D01*
X23822689Y4852452D01*
X23808920Y4859811D01*
X23786281Y4869187D01*
X23762247Y4873967D01*
X23737743Y4873966D01*
X23713710Y4869184D01*
X23691080Y4859811D01*
X23677311Y4852452D01*
X23670293Y4850323D01*
X23656860Y4849000D01*
X23343140Y4849000D01*
X23329707Y4850323D01*
X23322689Y4852452D01*
X23308920Y4859811D01*
X23286281Y4869187D01*
X23262247Y4873967D01*
X23237743Y4873966D01*
X23213710Y4869184D01*
X23191080Y4859811D01*
X23177311Y4852452D01*
X23170293Y4850323D01*
X23156860Y4849000D01*
X22843140Y4849000D01*
X22829707Y4850323D01*
X22822689Y4852452D01*
X22808920Y4859811D01*
X22786281Y4869187D01*
X22762247Y4873967D01*
X22737743Y4873966D01*
X22713710Y4869184D01*
X22691080Y4859811D01*
X22677311Y4852452D01*
X22670293Y4850323D01*
X22656860Y4849000D01*
X22343140Y4849000D01*
X22329707Y4850323D01*
X22322689Y4852452D01*
X22308920Y4859811D01*
X22286281Y4869187D01*
X22262247Y4873967D01*
X22237743Y4873966D01*
X22213710Y4869184D01*
X22191080Y4859811D01*
X22177311Y4852452D01*
X22170293Y4850323D01*
X22156860Y4849000D01*
X21843140Y4849000D01*
X21829707Y4850323D01*
X21822689Y4852452D01*
X21808920Y4859811D01*
X21786281Y4869187D01*
X21762247Y4873967D01*
X21737743Y4873966D01*
X21713710Y4869184D01*
X21691080Y4859811D01*
X21677311Y4852452D01*
X21670293Y4850323D01*
X21656860Y4849000D01*
X21343140Y4849000D01*
X21329707Y4850323D01*
X21322689Y4852452D01*
X21308920Y4859811D01*
X21286281Y4869187D01*
X21262247Y4873967D01*
X21237743Y4873966D01*
X21213710Y4869184D01*
X21191080Y4859811D01*
X21177311Y4852452D01*
X21170293Y4850323D01*
X21156860Y4849000D01*
X20843140Y4849000D01*
X20829707Y4850323D01*
X20822689Y4852452D01*
X20808920Y4859811D01*
X20786281Y4869187D01*
X20762247Y4873967D01*
X20737743Y4873966D01*
X20713710Y4869184D01*
X20691080Y4859811D01*
X20677311Y4852452D01*
X20670293Y4850323D01*
X20656860Y4849000D01*
X20343140Y4849000D01*
X20329707Y4850323D01*
X20322689Y4852452D01*
X20308920Y4859811D01*
X20286281Y4869187D01*
X20262247Y4873967D01*
X20237743Y4873966D01*
X20213710Y4869184D01*
X20191080Y4859811D01*
X20177311Y4852452D01*
X20170293Y4850323D01*
X20156860Y4849000D01*
X19843140Y4849000D01*
X19829707Y4850323D01*
X19822688Y4852452D01*
X19816225Y4855907D01*
X19810558Y4860558D01*
X19805907Y4866225D01*
X19802452Y4872688D01*
X19800323Y4879707D01*
X19799000Y4893140D01*
X19799000Y6456860D01*
X19800323Y6470293D01*
X19802452Y6477312D01*
X19805907Y6483775D01*
X19810558Y6489442D01*
X19816225Y6494093D01*
X19822688Y6497548D01*
X19829707Y6499677D01*
X19843140Y6501000D01*
X20156860Y6501000D01*
X20170293Y6499677D01*
X20170293Y6499677D01*
G37*
G36*
X-31599000Y5769000D02*
X-34101000Y5769000D01*
X-34101000Y6611000D01*
X-31599000Y6611000D01*
X-31599000Y5769000D01*
X-31599000Y5769000D01*
G37*
G36*
X-35499000Y5769000D02*
X-38001000Y5769000D01*
X-38001000Y6611000D01*
X-35499000Y6611000D01*
X-35499000Y5769000D01*
X-35499000Y5769000D01*
G37*
G36*
X31667091Y7021915D02*
X31701069Y7011607D01*
X31732387Y6994867D01*
X31759839Y6972339D01*
X31782367Y6944887D01*
X31799107Y6913569D01*
X31809415Y6879591D01*
X31813500Y6838110D01*
X31813500Y6161890D01*
X31809415Y6120409D01*
X31799107Y6086431D01*
X31782367Y6055113D01*
X31759839Y6027661D01*
X31732387Y6005133D01*
X31701069Y5988393D01*
X31667091Y5978085D01*
X31625610Y5974000D01*
X31024390Y5974000D01*
X30982909Y5978085D01*
X30948931Y5988393D01*
X30917613Y6005133D01*
X30890161Y6027661D01*
X30867633Y6055113D01*
X30850893Y6086431D01*
X30840585Y6120409D01*
X30836500Y6161890D01*
X30836500Y6838110D01*
X30840585Y6879591D01*
X30850893Y6913569D01*
X30867633Y6944887D01*
X30890161Y6972339D01*
X30917613Y6994867D01*
X30948931Y7011607D01*
X30982909Y7021915D01*
X31024390Y7026000D01*
X31625610Y7026000D01*
X31667091Y7021915D01*
X31667091Y7021915D01*
G37*
G36*
X30092091Y7021915D02*
X30126069Y7011607D01*
X30157387Y6994867D01*
X30184839Y6972339D01*
X30207367Y6944887D01*
X30224107Y6913569D01*
X30234415Y6879591D01*
X30238500Y6838110D01*
X30238500Y6161890D01*
X30234415Y6120409D01*
X30224107Y6086431D01*
X30207367Y6055113D01*
X30184839Y6027661D01*
X30157387Y6005133D01*
X30126069Y5988393D01*
X30092091Y5978085D01*
X30050610Y5974000D01*
X29449390Y5974000D01*
X29407909Y5978085D01*
X29373931Y5988393D01*
X29342613Y6005133D01*
X29315161Y6027661D01*
X29292633Y6055113D01*
X29275893Y6086431D01*
X29265585Y6120409D01*
X29261500Y6161890D01*
X29261500Y6838110D01*
X29265585Y6879591D01*
X29275893Y6913569D01*
X29292633Y6944887D01*
X29315161Y6972339D01*
X29342613Y6994867D01*
X29373931Y7011607D01*
X29407909Y7021915D01*
X29449390Y7026000D01*
X30050610Y7026000D01*
X30092091Y7021915D01*
X30092091Y7021915D01*
G37*
G36*
X16517091Y7271915D02*
X16551069Y7261607D01*
X16582387Y7244867D01*
X16609839Y7222339D01*
X16632367Y7194887D01*
X16649107Y7163569D01*
X16659415Y7129591D01*
X16663500Y7088110D01*
X16663500Y6411890D01*
X16659415Y6370409D01*
X16649107Y6336431D01*
X16632367Y6305113D01*
X16609839Y6277661D01*
X16582387Y6255133D01*
X16551069Y6238393D01*
X16517091Y6228085D01*
X16475610Y6224000D01*
X15874390Y6224000D01*
X15832909Y6228085D01*
X15798931Y6238393D01*
X15767613Y6255133D01*
X15740161Y6277661D01*
X15717633Y6305113D01*
X15700893Y6336431D01*
X15690585Y6370409D01*
X15686500Y6411890D01*
X15686500Y7088110D01*
X15690585Y7129591D01*
X15700893Y7163569D01*
X15717633Y7194887D01*
X15740161Y7222339D01*
X15767613Y7244867D01*
X15798931Y7261607D01*
X15832909Y7271915D01*
X15874390Y7276000D01*
X16475610Y7276000D01*
X16517091Y7271915D01*
X16517091Y7271915D01*
G37*
G36*
X18092091Y7271915D02*
X18126069Y7261607D01*
X18157387Y7244867D01*
X18184839Y7222339D01*
X18207367Y7194887D01*
X18224107Y7163569D01*
X18234415Y7129591D01*
X18238500Y7088110D01*
X18238500Y6411890D01*
X18234415Y6370409D01*
X18224107Y6336431D01*
X18207367Y6305113D01*
X18184839Y6277661D01*
X18157387Y6255133D01*
X18126069Y6238393D01*
X18092091Y6228085D01*
X18050610Y6224000D01*
X17449390Y6224000D01*
X17407909Y6228085D01*
X17373931Y6238393D01*
X17342613Y6255133D01*
X17315161Y6277661D01*
X17292633Y6305113D01*
X17275893Y6336431D01*
X17265585Y6370409D01*
X17261500Y6411890D01*
X17261500Y7088110D01*
X17265585Y7129591D01*
X17275893Y7163569D01*
X17292633Y7194887D01*
X17315161Y7222339D01*
X17342613Y7244867D01*
X17373931Y7261607D01*
X17407909Y7271915D01*
X17449390Y7276000D01*
X18050610Y7276000D01*
X18092091Y7271915D01*
X18092091Y7271915D01*
G37*
G36*
X46360442Y8514482D02*
X46426627Y8507963D01*
X46539853Y8473616D01*
X46596467Y8456443D01*
X46735087Y8382348D01*
X46752991Y8372778D01*
X46754108Y8371861D01*
X46890186Y8260186D01*
X46973448Y8158729D01*
X47002778Y8122991D01*
X47002779Y8122989D01*
X47086443Y7966467D01*
X47086443Y7966466D01*
X47137963Y7796627D01*
X47155359Y7620000D01*
X47137963Y7443373D01*
X47103616Y7330147D01*
X47086443Y7273533D01*
X47027665Y7163569D01*
X47002778Y7117009D01*
X46979061Y7088110D01*
X46890186Y6979814D01*
X46809465Y6913569D01*
X46752991Y6867222D01*
X46752989Y6867221D01*
X46596467Y6783557D01*
X46539853Y6766384D01*
X46426627Y6732037D01*
X46360443Y6725519D01*
X46294260Y6719000D01*
X46205740Y6719000D01*
X46139558Y6725518D01*
X46073373Y6732037D01*
X45960147Y6766384D01*
X45903533Y6783557D01*
X45747011Y6867221D01*
X45747009Y6867222D01*
X45690535Y6913569D01*
X45609814Y6979814D01*
X45520939Y7088110D01*
X45497222Y7117009D01*
X45472335Y7163569D01*
X45413557Y7273533D01*
X45396384Y7330147D01*
X45362037Y7443373D01*
X45344641Y7620000D01*
X45362037Y7796627D01*
X45413557Y7966466D01*
X45413557Y7966467D01*
X45497221Y8122989D01*
X45497222Y8122991D01*
X45526552Y8158729D01*
X45609814Y8260186D01*
X45745892Y8371861D01*
X45747009Y8372778D01*
X45764913Y8382348D01*
X45903533Y8456443D01*
X45960147Y8473616D01*
X46073373Y8507963D01*
X46139558Y8514482D01*
X46205740Y8521000D01*
X46294260Y8521000D01*
X46360442Y8514482D01*
X46360442Y8514482D01*
G37*
G36*
X-31599000Y7039000D02*
X-34101000Y7039000D01*
X-34101000Y7881000D01*
X-31599000Y7881000D01*
X-31599000Y7039000D01*
X-31599000Y7039000D01*
G37*
G36*
X-35499000Y7039000D02*
X-38001000Y7039000D01*
X-38001000Y7881000D01*
X-35499000Y7881000D01*
X-35499000Y7039000D01*
X-35499000Y7039000D01*
G37*
G36*
X24129485Y9751004D02*
X24129487Y9751003D01*
X24129488Y9751003D01*
X24366255Y9652931D01*
X24579342Y9510551D01*
X24760551Y9329342D01*
X24902931Y9116255D01*
X25001004Y8879485D01*
X25051000Y8628139D01*
X25051000Y8371861D01*
X25001497Y8122991D01*
X25001003Y8120512D01*
X24937195Y7966466D01*
X24902931Y7883745D01*
X24760551Y7670658D01*
X24579342Y7489449D01*
X24579339Y7489447D01*
X24366255Y7347069D01*
X24129488Y7248997D01*
X24129487Y7248997D01*
X24129485Y7248996D01*
X23878139Y7199000D01*
X23621861Y7199000D01*
X23370515Y7248996D01*
X23370513Y7248997D01*
X23370512Y7248997D01*
X23133745Y7347069D01*
X22920661Y7489447D01*
X22920658Y7489449D01*
X22739449Y7670658D01*
X22597069Y7883745D01*
X22562805Y7966466D01*
X22498997Y8120512D01*
X22498504Y8122991D01*
X22449000Y8371861D01*
X22449000Y8628139D01*
X22498996Y8879485D01*
X22597069Y9116255D01*
X22739449Y9329342D01*
X22920658Y9510551D01*
X23133745Y9652931D01*
X23370512Y9751003D01*
X23370513Y9751003D01*
X23370515Y9751004D01*
X23621861Y9801000D01*
X23878139Y9801000D01*
X24129485Y9751004D01*
X24129485Y9751004D01*
G37*
G36*
X4361000Y7789000D02*
X3259000Y7789000D01*
X3259000Y10401000D01*
X4361000Y10401000D01*
X4361000Y7789000D01*
X4361000Y7789000D01*
G37*
G36*
X-719000Y7789000D02*
X-1821000Y7789000D01*
X-1821000Y10401000D01*
X-719000Y10401000D01*
X-719000Y7789000D01*
X-719000Y7789000D01*
G37*
G36*
X-5799000Y7789000D02*
X-6901000Y7789000D01*
X-6901000Y10401000D01*
X-5799000Y10401000D01*
X-5799000Y7789000D01*
X-5799000Y7789000D01*
G37*
G36*
X33151000Y8099000D02*
X31349000Y8099000D01*
X31349000Y9901000D01*
X33151000Y9901000D01*
X33151000Y8099000D01*
X33151000Y8099000D01*
G37*
G36*
X-31599000Y8309000D02*
X-34101000Y8309000D01*
X-34101000Y9151000D01*
X-31599000Y9151000D01*
X-31599000Y8309000D01*
X-31599000Y8309000D01*
G37*
G36*
X-35499000Y8309000D02*
X-38001000Y8309000D01*
X-38001000Y9151000D01*
X-35499000Y9151000D01*
X-35499000Y8309000D01*
X-35499000Y8309000D01*
G37*
G36*
X-35499000Y9579000D02*
X-38001000Y9579000D01*
X-38001000Y10421000D01*
X-35499000Y10421000D01*
X-35499000Y9579000D01*
X-35499000Y9579000D01*
G37*
G36*
X-31599000Y9579000D02*
X-34101000Y9579000D01*
X-34101000Y10421000D01*
X-31599000Y10421000D01*
X-31599000Y9579000D01*
X-31599000Y9579000D01*
G37*
G36*
X32360443Y12434481D02*
X32426627Y12427963D01*
X32539853Y12393616D01*
X32596467Y12376443D01*
X32735087Y12302348D01*
X32752991Y12292778D01*
X32788729Y12263448D01*
X32890186Y12180186D01*
X32973448Y12078729D01*
X33002778Y12042991D01*
X33002779Y12042989D01*
X33086443Y11886467D01*
X33103616Y11829853D01*
X33137963Y11716627D01*
X33155359Y11540000D01*
X33137963Y11363373D01*
X33103616Y11250147D01*
X33086443Y11193533D01*
X33035913Y11099000D01*
X33002778Y11037009D01*
X32973448Y11001271D01*
X32890186Y10899814D01*
X32788729Y10816552D01*
X32752991Y10787222D01*
X32752989Y10787221D01*
X32596467Y10703557D01*
X32581444Y10699000D01*
X32426627Y10652037D01*
X32360443Y10645519D01*
X32294260Y10639000D01*
X32205740Y10639000D01*
X32139557Y10645519D01*
X32073373Y10652037D01*
X31918556Y10699000D01*
X31903533Y10703557D01*
X31747011Y10787221D01*
X31747009Y10787222D01*
X31711271Y10816552D01*
X31609814Y10899814D01*
X31526552Y11001271D01*
X31497222Y11037009D01*
X31464087Y11099000D01*
X31413557Y11193533D01*
X31396384Y11250147D01*
X31362037Y11363373D01*
X31344641Y11540000D01*
X31362037Y11716627D01*
X31396384Y11829853D01*
X31413557Y11886467D01*
X31497221Y12042989D01*
X31497222Y12042991D01*
X31526552Y12078729D01*
X31609814Y12180186D01*
X31711271Y12263448D01*
X31747009Y12292778D01*
X31764913Y12302348D01*
X31903533Y12376443D01*
X31960147Y12393616D01*
X32073373Y12427963D01*
X32139557Y12434481D01*
X32205740Y12441000D01*
X32294260Y12441000D01*
X32360443Y12434481D01*
X32360443Y12434481D01*
G37*
G36*
X24129485Y13251004D02*
X24129487Y13251003D01*
X24129488Y13251003D01*
X24366255Y13152931D01*
X24579342Y13010551D01*
X24760551Y12829342D01*
X24902931Y12616255D01*
X25001004Y12379485D01*
X25051000Y12128139D01*
X25051000Y11871861D01*
X25001004Y11620515D01*
X24902931Y11383745D01*
X24760551Y11170658D01*
X24579342Y10989449D01*
X24579339Y10989447D01*
X24366255Y10847069D01*
X24129488Y10748997D01*
X24129487Y10748997D01*
X24129485Y10748996D01*
X23878139Y10699000D01*
X23621861Y10699000D01*
X23370515Y10748996D01*
X23370513Y10748997D01*
X23370512Y10748997D01*
X23133745Y10847069D01*
X22920661Y10989447D01*
X22920658Y10989449D01*
X22739449Y11170658D01*
X22597069Y11383745D01*
X22498996Y11620515D01*
X22449000Y11871861D01*
X22449000Y12128139D01*
X22498996Y12379485D01*
X22597069Y12616255D01*
X22739449Y12829342D01*
X22920658Y13010551D01*
X23133745Y13152931D01*
X23370512Y13251003D01*
X23370513Y13251003D01*
X23370515Y13251004D01*
X23621861Y13301000D01*
X23878139Y13301000D01*
X24129485Y13251004D01*
X24129485Y13251004D01*
G37*
G36*
X6901000Y11099000D02*
X5799000Y11099000D01*
X5799000Y13711000D01*
X6901000Y13711000D01*
X6901000Y11099000D01*
X6901000Y11099000D01*
G37*
G36*
X1821000Y11099000D02*
X719000Y11099000D01*
X719000Y13711000D01*
X1821000Y13711000D01*
X1821000Y11099000D01*
X1821000Y11099000D01*
G37*
G36*
X-3259000Y11099000D02*
X-4361000Y11099000D01*
X-4361000Y13711000D01*
X-3259000Y13711000D01*
X-3259000Y11099000D01*
X-3259000Y11099000D01*
G37*
G36*
X-37349000Y16699000D02*
X-39151000Y16699000D01*
X-39151000Y18501000D01*
X-37349000Y18501000D01*
X-37349000Y16699000D01*
X-37349000Y16699000D01*
G37*
G36*
X-38139557Y21034481D02*
X-38073373Y21027963D01*
X-37960147Y20993616D01*
X-37903533Y20976443D01*
X-37799058Y20920599D01*
X-37747009Y20892778D01*
X-37711271Y20863448D01*
X-37609814Y20780186D01*
X-37526552Y20678729D01*
X-37497222Y20642991D01*
X-37497221Y20642989D01*
X-37413557Y20486467D01*
X-37413557Y20486466D01*
X-37362037Y20316627D01*
X-37344641Y20140000D01*
X-37362037Y19963373D01*
X-37396384Y19850147D01*
X-37413557Y19793533D01*
X-37438424Y19747011D01*
X-37497222Y19637009D01*
X-37519540Y19609815D01*
X-37609814Y19499814D01*
X-37711271Y19416552D01*
X-37747009Y19387222D01*
X-37747011Y19387221D01*
X-37903533Y19303557D01*
X-37960147Y19286384D01*
X-38073373Y19252037D01*
X-38139558Y19245518D01*
X-38205740Y19239000D01*
X-38294260Y19239000D01*
X-38360442Y19245518D01*
X-38426627Y19252037D01*
X-38539853Y19286384D01*
X-38596467Y19303557D01*
X-38752989Y19387221D01*
X-38752991Y19387222D01*
X-38788729Y19416552D01*
X-38890186Y19499814D01*
X-38980460Y19609815D01*
X-39002778Y19637009D01*
X-39061576Y19747011D01*
X-39086443Y19793533D01*
X-39103616Y19850147D01*
X-39137963Y19963373D01*
X-39155359Y20140000D01*
X-39137963Y20316627D01*
X-39086443Y20486466D01*
X-39086443Y20486467D01*
X-39002779Y20642989D01*
X-39002778Y20642991D01*
X-38973448Y20678729D01*
X-38890186Y20780186D01*
X-38788729Y20863448D01*
X-38752991Y20892778D01*
X-38700942Y20920599D01*
X-38596467Y20976443D01*
X-38539853Y20993616D01*
X-38426627Y21027963D01*
X-38360443Y21034481D01*
X-38294260Y21041000D01*
X-38205740Y21041000D01*
X-38139557Y21034481D01*
X-38139557Y21034481D01*
G37*
G36*
X-32139558Y21144482D02*
X-32073373Y21137963D01*
X-31960147Y21103616D01*
X-31903533Y21086443D01*
X-31794126Y21027963D01*
X-31747009Y21002778D01*
X-31714920Y20976443D01*
X-31609814Y20890186D01*
X-31532140Y20795539D01*
X-31497222Y20752991D01*
X-31497221Y20752989D01*
X-31413557Y20596467D01*
X-31413557Y20596466D01*
X-31362037Y20426627D01*
X-31344641Y20250000D01*
X-31362037Y20073373D01*
X-31395404Y19963375D01*
X-31413557Y19903533D01*
X-31472354Y19793534D01*
X-31497222Y19747009D01*
X-31526552Y19711271D01*
X-31609814Y19609814D01*
X-31711271Y19526552D01*
X-31747009Y19497222D01*
X-31747011Y19497221D01*
X-31903533Y19413557D01*
X-31960147Y19396384D01*
X-32073373Y19362037D01*
X-32139557Y19355519D01*
X-32205740Y19349000D01*
X-32294260Y19349000D01*
X-32360443Y19355519D01*
X-32426627Y19362037D01*
X-32539853Y19396384D01*
X-32596467Y19413557D01*
X-32752989Y19497221D01*
X-32752991Y19497222D01*
X-32788729Y19526552D01*
X-32890186Y19609814D01*
X-32973448Y19711271D01*
X-33002778Y19747009D01*
X-33027646Y19793534D01*
X-33086443Y19903533D01*
X-33104596Y19963375D01*
X-33137963Y20073373D01*
X-33155359Y20250000D01*
X-33137963Y20426627D01*
X-33086443Y20596466D01*
X-33086443Y20596467D01*
X-33002779Y20752989D01*
X-33002778Y20752991D01*
X-32967860Y20795539D01*
X-32890186Y20890186D01*
X-32785080Y20976443D01*
X-32752991Y21002778D01*
X-32705874Y21027963D01*
X-32596467Y21086443D01*
X-32539853Y21103616D01*
X-32426627Y21137963D01*
X-32360442Y21144482D01*
X-32294260Y21151000D01*
X-32205740Y21151000D01*
X-32139558Y21144482D01*
X-32139558Y21144482D01*
G37*
G36*
X10111000Y19349000D02*
X8309000Y19349000D01*
X8309000Y21151000D01*
X10111000Y21151000D01*
X10111000Y19349000D01*
X10111000Y19349000D01*
G37*
G36*
X11860442Y21144482D02*
X11926627Y21137963D01*
X12039853Y21103616D01*
X12096467Y21086443D01*
X12205874Y21027963D01*
X12252991Y21002778D01*
X12285080Y20976443D01*
X12390186Y20890186D01*
X12467860Y20795539D01*
X12502778Y20752991D01*
X12502779Y20752989D01*
X12586443Y20596467D01*
X12586443Y20596466D01*
X12637963Y20426627D01*
X12655359Y20250000D01*
X12637963Y20073373D01*
X12604596Y19963375D01*
X12586443Y19903533D01*
X12527646Y19793534D01*
X12502778Y19747009D01*
X12473448Y19711271D01*
X12390186Y19609814D01*
X12288729Y19526552D01*
X12252991Y19497222D01*
X12252989Y19497221D01*
X12096467Y19413557D01*
X12039853Y19396384D01*
X11926627Y19362037D01*
X11860443Y19355519D01*
X11794260Y19349000D01*
X11705740Y19349000D01*
X11639557Y19355519D01*
X11573373Y19362037D01*
X11460147Y19396384D01*
X11403533Y19413557D01*
X11247011Y19497221D01*
X11247009Y19497222D01*
X11211271Y19526552D01*
X11109814Y19609814D01*
X11026552Y19711271D01*
X10997222Y19747009D01*
X10972354Y19793534D01*
X10913557Y19903533D01*
X10895404Y19963375D01*
X10862037Y20073373D01*
X10844641Y20250000D01*
X10862037Y20426627D01*
X10913557Y20596466D01*
X10913557Y20596467D01*
X10997221Y20752989D01*
X10997222Y20752991D01*
X11032140Y20795539D01*
X11109814Y20890186D01*
X11214920Y20976443D01*
X11247009Y21002778D01*
X11294126Y21027963D01*
X11403533Y21086443D01*
X11460147Y21103616D01*
X11573373Y21137963D01*
X11639558Y21144482D01*
X11705740Y21151000D01*
X11794260Y21151000D01*
X11860442Y21144482D01*
X11860442Y21144482D01*
G37*
G36*
X-33889000Y19349000D02*
X-35691000Y19349000D01*
X-35691000Y21151000D01*
X-33889000Y21151000D01*
X-33889000Y19349000D01*
X-33889000Y19349000D01*
G37*
G36*
X-18907909Y21771915D02*
X-18873931Y21761607D01*
X-18842613Y21744867D01*
X-18815161Y21722339D01*
X-18792633Y21694887D01*
X-18775893Y21663569D01*
X-18765585Y21629591D01*
X-18761500Y21588110D01*
X-18761500Y20911890D01*
X-18765585Y20870409D01*
X-18775893Y20836431D01*
X-18792633Y20805113D01*
X-18815161Y20777661D01*
X-18842613Y20755133D01*
X-18873931Y20738393D01*
X-18907909Y20728085D01*
X-18949390Y20724000D01*
X-19550610Y20724000D01*
X-19592091Y20728085D01*
X-19626069Y20738393D01*
X-19657387Y20755133D01*
X-19684839Y20777661D01*
X-19707367Y20805113D01*
X-19724107Y20836431D01*
X-19734415Y20870409D01*
X-19738500Y20911890D01*
X-19738500Y21588110D01*
X-19734415Y21629591D01*
X-19724107Y21663569D01*
X-19707367Y21694887D01*
X-19684839Y21722339D01*
X-19657387Y21744867D01*
X-19626069Y21761607D01*
X-19592091Y21771915D01*
X-19550610Y21776000D01*
X-18949390Y21776000D01*
X-18907909Y21771915D01*
X-18907909Y21771915D01*
G37*
G36*
X-17332909Y21771915D02*
X-17298931Y21761607D01*
X-17267613Y21744867D01*
X-17240161Y21722339D01*
X-17217633Y21694887D01*
X-17200893Y21663569D01*
X-17190585Y21629591D01*
X-17186500Y21588110D01*
X-17186500Y20911890D01*
X-17190585Y20870409D01*
X-17200893Y20836431D01*
X-17217633Y20805113D01*
X-17240161Y20777661D01*
X-17267613Y20755133D01*
X-17298931Y20738393D01*
X-17332909Y20728085D01*
X-17374390Y20724000D01*
X-17975610Y20724000D01*
X-18017091Y20728085D01*
X-18051069Y20738393D01*
X-18082387Y20755133D01*
X-18109839Y20777661D01*
X-18132367Y20805113D01*
X-18149107Y20836431D01*
X-18159415Y20870409D01*
X-18163500Y20911890D01*
X-18163500Y21588110D01*
X-18159415Y21629591D01*
X-18149107Y21663569D01*
X-18132367Y21694887D01*
X-18109839Y21722339D01*
X-18082387Y21744867D01*
X-18051069Y21761607D01*
X-18017091Y21771915D01*
X-17975610Y21776000D01*
X-17374390Y21776000D01*
X-17332909Y21771915D01*
X-17332909Y21771915D01*
G37*
G36*
X-19074000Y22319000D02*
X-19826000Y22319000D01*
X-19826000Y23481000D01*
X-19074000Y23481000D01*
X-19074000Y22319000D01*
X-19074000Y22319000D01*
G37*
G36*
X-17174000Y22319000D02*
X-17926000Y22319000D01*
X-17926000Y23481000D01*
X-17174000Y23481000D01*
X-17174000Y22319000D01*
X-17174000Y22319000D01*
G37*
G36*
X-29370515Y25001004D02*
X-29370513Y25001003D01*
X-29370512Y25001003D01*
X-29301311Y24972339D01*
X-29133745Y24902931D01*
X-28920658Y24760551D01*
X-28739449Y24579342D01*
X-28739447Y24579339D01*
X-28597069Y24366255D01*
X-28510621Y24157552D01*
X-28498996Y24129485D01*
X-28449000Y23878139D01*
X-28449000Y23621861D01*
X-28493660Y23397339D01*
X-28498997Y23370512D01*
X-28528113Y23300220D01*
X-28597069Y23133745D01*
X-28739449Y22920658D01*
X-28920658Y22739449D01*
X-28920661Y22739447D01*
X-29133745Y22597069D01*
X-29370512Y22498997D01*
X-29370513Y22498997D01*
X-29370515Y22498996D01*
X-29621861Y22449000D01*
X-29878139Y22449000D01*
X-30129485Y22498996D01*
X-30129487Y22498997D01*
X-30129488Y22498997D01*
X-30366255Y22597069D01*
X-30579339Y22739447D01*
X-30579342Y22739449D01*
X-30760551Y22920658D01*
X-30902931Y23133745D01*
X-30971887Y23300220D01*
X-31001003Y23370512D01*
X-31006339Y23397339D01*
X-31051000Y23621861D01*
X-31051000Y23878139D01*
X-31001004Y24129485D01*
X-30989378Y24157552D01*
X-30902931Y24366255D01*
X-30760553Y24579339D01*
X-30760551Y24579342D01*
X-30579342Y24760551D01*
X-30366255Y24902931D01*
X-30198689Y24972339D01*
X-30129488Y25001003D01*
X-30129487Y25001003D01*
X-30129485Y25001004D01*
X-29878139Y25051000D01*
X-29621861Y25051000D01*
X-29370515Y25001004D01*
X-29370515Y25001004D01*
G37*
G36*
X-20870409Y23446915D02*
X-20836431Y23436607D01*
X-20805113Y23419867D01*
X-20777661Y23397339D01*
X-20755133Y23369887D01*
X-20738393Y23338569D01*
X-20728085Y23304591D01*
X-20724000Y23263110D01*
X-20724000Y22661890D01*
X-20728085Y22620409D01*
X-20738393Y22586431D01*
X-20755133Y22555113D01*
X-20777661Y22527661D01*
X-20805113Y22505133D01*
X-20836431Y22488393D01*
X-20870409Y22478085D01*
X-20911890Y22474000D01*
X-21588110Y22474000D01*
X-21629591Y22478085D01*
X-21663569Y22488393D01*
X-21694887Y22505133D01*
X-21722339Y22527661D01*
X-21744867Y22555113D01*
X-21761607Y22586431D01*
X-21771915Y22620409D01*
X-21776000Y22661890D01*
X-21776000Y23263110D01*
X-21771915Y23304591D01*
X-21761607Y23338569D01*
X-21744867Y23369887D01*
X-21722339Y23397339D01*
X-21694887Y23419867D01*
X-21663569Y23436607D01*
X-21629591Y23446915D01*
X-21588110Y23451000D01*
X-20911890Y23451000D01*
X-20870409Y23446915D01*
X-20870409Y23446915D01*
G37*
G36*
X-22849000Y22849000D02*
X-24651000Y22849000D01*
X-24651000Y24651000D01*
X-22849000Y24651000D01*
X-22849000Y22849000D01*
X-22849000Y22849000D01*
G37*
G36*
X-26179558Y24644482D02*
X-26113373Y24637963D01*
X-26000147Y24603616D01*
X-25943533Y24586443D01*
X-25930243Y24579339D01*
X-25787009Y24502778D01*
X-25754380Y24476000D01*
X-25649814Y24390186D01*
X-25570262Y24293250D01*
X-25537222Y24252991D01*
X-25537221Y24252989D01*
X-25453557Y24096467D01*
X-25439158Y24049000D01*
X-25402037Y23926627D01*
X-25384641Y23750000D01*
X-25402037Y23573373D01*
X-25430058Y23481000D01*
X-25453557Y23403533D01*
X-25508780Y23300220D01*
X-25537222Y23247009D01*
X-25566552Y23211271D01*
X-25649814Y23109814D01*
X-25741580Y23034505D01*
X-25787009Y22997222D01*
X-25787011Y22997221D01*
X-25943533Y22913557D01*
X-26000147Y22896384D01*
X-26113373Y22862037D01*
X-26179557Y22855519D01*
X-26245740Y22849000D01*
X-26334260Y22849000D01*
X-26400443Y22855519D01*
X-26466627Y22862037D01*
X-26579853Y22896384D01*
X-26636467Y22913557D01*
X-26792989Y22997221D01*
X-26792991Y22997222D01*
X-26838420Y23034505D01*
X-26930186Y23109814D01*
X-27013448Y23211271D01*
X-27042778Y23247009D01*
X-27071220Y23300220D01*
X-27126443Y23403533D01*
X-27149942Y23481000D01*
X-27177963Y23573373D01*
X-27195359Y23750000D01*
X-27177963Y23926627D01*
X-27140842Y24049000D01*
X-27126443Y24096467D01*
X-27042779Y24252989D01*
X-27042778Y24252991D01*
X-27009738Y24293250D01*
X-26930186Y24390186D01*
X-26825620Y24476000D01*
X-26792991Y24502778D01*
X-26649757Y24579339D01*
X-26636467Y24586443D01*
X-26579853Y24603616D01*
X-26466627Y24637963D01*
X-26400442Y24644482D01*
X-26334260Y24651000D01*
X-26245740Y24651000D01*
X-26179558Y24644482D01*
X-26179558Y24644482D01*
G37*
G36*
X23056991Y24473899D02*
X23142321Y24465495D01*
X23279172Y24423981D01*
X23279174Y24423980D01*
X23279177Y24423979D01*
X23405296Y24356568D01*
X23515843Y24265843D01*
X23606568Y24155296D01*
X23673979Y24029177D01*
X23673980Y24029174D01*
X23673981Y24029172D01*
X23715495Y23892321D01*
X23729512Y23750000D01*
X23715495Y23607679D01*
X23673981Y23470828D01*
X23673979Y23470823D01*
X23606568Y23344704D01*
X23515843Y23234157D01*
X23405296Y23143432D01*
X23279177Y23076021D01*
X23279174Y23076020D01*
X23279172Y23076019D01*
X23142321Y23034505D01*
X23056991Y23026101D01*
X23035660Y23024000D01*
X22964340Y23024000D01*
X22943009Y23026101D01*
X22857679Y23034505D01*
X22720828Y23076019D01*
X22720826Y23076020D01*
X22720823Y23076021D01*
X22594704Y23143432D01*
X22484157Y23234157D01*
X22393432Y23344704D01*
X22326021Y23470823D01*
X22326019Y23470828D01*
X22284505Y23607679D01*
X22270488Y23750000D01*
X22284505Y23892321D01*
X22326019Y24029172D01*
X22326020Y24029174D01*
X22326021Y24029177D01*
X22393432Y24155296D01*
X22484157Y24265843D01*
X22594704Y24356568D01*
X22720823Y24423979D01*
X22720826Y24423980D01*
X22720828Y24423981D01*
X22857679Y24465495D01*
X22943009Y24473899D01*
X22964340Y24476000D01*
X23035660Y24476000D01*
X23056991Y24473899D01*
X23056991Y24473899D01*
G37*
G36*
X25056991Y24473899D02*
X25142321Y24465495D01*
X25279172Y24423981D01*
X25279174Y24423980D01*
X25279177Y24423979D01*
X25405296Y24356568D01*
X25515843Y24265843D01*
X25606568Y24155296D01*
X25673979Y24029177D01*
X25673980Y24029174D01*
X25673981Y24029172D01*
X25715495Y23892321D01*
X25729512Y23750000D01*
X25715495Y23607679D01*
X25673981Y23470828D01*
X25673979Y23470823D01*
X25606568Y23344704D01*
X25515843Y23234157D01*
X25405296Y23143432D01*
X25279177Y23076021D01*
X25279174Y23076020D01*
X25279172Y23076019D01*
X25142321Y23034505D01*
X25056991Y23026101D01*
X25035660Y23024000D01*
X24964340Y23024000D01*
X24943009Y23026101D01*
X24857679Y23034505D01*
X24720828Y23076019D01*
X24720826Y23076020D01*
X24720823Y23076021D01*
X24594704Y23143432D01*
X24484157Y23234157D01*
X24393432Y23344704D01*
X24326021Y23470823D01*
X24326019Y23470828D01*
X24284505Y23607679D01*
X24270488Y23750000D01*
X24284505Y23892321D01*
X24326019Y24029172D01*
X24326020Y24029174D01*
X24326021Y24029177D01*
X24393432Y24155296D01*
X24484157Y24265843D01*
X24594704Y24356568D01*
X24720823Y24423979D01*
X24720826Y24423980D01*
X24720828Y24423981D01*
X24857679Y24465495D01*
X24943009Y24473899D01*
X24964340Y24476000D01*
X25035660Y24476000D01*
X25056991Y24473899D01*
X25056991Y24473899D01*
G37*
G36*
X19056991Y24473899D02*
X19142321Y24465495D01*
X19279172Y24423981D01*
X19279174Y24423980D01*
X19279177Y24423979D01*
X19405296Y24356568D01*
X19515843Y24265843D01*
X19606568Y24155296D01*
X19673979Y24029177D01*
X19673980Y24029174D01*
X19673981Y24029172D01*
X19715495Y23892321D01*
X19729512Y23750000D01*
X19715495Y23607679D01*
X19673981Y23470828D01*
X19673979Y23470823D01*
X19606568Y23344704D01*
X19515843Y23234157D01*
X19405296Y23143432D01*
X19279177Y23076021D01*
X19279174Y23076020D01*
X19279172Y23076019D01*
X19142321Y23034505D01*
X19056991Y23026101D01*
X19035660Y23024000D01*
X18964340Y23024000D01*
X18943009Y23026101D01*
X18857679Y23034505D01*
X18720828Y23076019D01*
X18720826Y23076020D01*
X18720823Y23076021D01*
X18594704Y23143432D01*
X18484157Y23234157D01*
X18393432Y23344704D01*
X18326021Y23470823D01*
X18326019Y23470828D01*
X18284505Y23607679D01*
X18270488Y23750000D01*
X18284505Y23892321D01*
X18326019Y24029172D01*
X18326020Y24029174D01*
X18326021Y24029177D01*
X18393432Y24155296D01*
X18484157Y24265843D01*
X18594704Y24356568D01*
X18720823Y24423979D01*
X18720826Y24423980D01*
X18720828Y24423981D01*
X18857679Y24465495D01*
X18943009Y24473899D01*
X18964340Y24476000D01*
X19035660Y24476000D01*
X19056991Y24473899D01*
X19056991Y24473899D01*
G37*
G36*
X17056991Y24473899D02*
X17142321Y24465495D01*
X17279172Y24423981D01*
X17279174Y24423980D01*
X17279177Y24423979D01*
X17405296Y24356568D01*
X17515843Y24265843D01*
X17606568Y24155296D01*
X17673979Y24029177D01*
X17673980Y24029174D01*
X17673981Y24029172D01*
X17715495Y23892321D01*
X17729512Y23750000D01*
X17715495Y23607679D01*
X17673981Y23470828D01*
X17673979Y23470823D01*
X17606568Y23344704D01*
X17515843Y23234157D01*
X17405296Y23143432D01*
X17279177Y23076021D01*
X17279174Y23076020D01*
X17279172Y23076019D01*
X17142321Y23034505D01*
X17056991Y23026101D01*
X17035660Y23024000D01*
X16964340Y23024000D01*
X16943009Y23026101D01*
X16857679Y23034505D01*
X16720828Y23076019D01*
X16720826Y23076020D01*
X16720823Y23076021D01*
X16594704Y23143432D01*
X16484157Y23234157D01*
X16393432Y23344704D01*
X16326021Y23470823D01*
X16326019Y23470828D01*
X16284505Y23607679D01*
X16270488Y23750000D01*
X16284505Y23892321D01*
X16326019Y24029172D01*
X16326020Y24029174D01*
X16326021Y24029177D01*
X16393432Y24155296D01*
X16484157Y24265843D01*
X16594704Y24356568D01*
X16720823Y24423979D01*
X16720826Y24423980D01*
X16720828Y24423981D01*
X16857679Y24465495D01*
X16943009Y24473899D01*
X16964340Y24476000D01*
X17035660Y24476000D01*
X17056991Y24473899D01*
X17056991Y24473899D01*
G37*
G36*
X15726000Y23024000D02*
X14274000Y23024000D01*
X14274000Y24476000D01*
X15726000Y24476000D01*
X15726000Y23024000D01*
X15726000Y23024000D01*
G37*
G36*
X21056991Y24473899D02*
X21142321Y24465495D01*
X21279172Y24423981D01*
X21279174Y24423980D01*
X21279177Y24423979D01*
X21405296Y24356568D01*
X21515843Y24265843D01*
X21606568Y24155296D01*
X21673979Y24029177D01*
X21673980Y24029174D01*
X21673981Y24029172D01*
X21715495Y23892321D01*
X21729512Y23750000D01*
X21715495Y23607679D01*
X21673981Y23470828D01*
X21673979Y23470823D01*
X21606568Y23344704D01*
X21515843Y23234157D01*
X21405296Y23143432D01*
X21279177Y23076021D01*
X21279174Y23076020D01*
X21279172Y23076019D01*
X21142321Y23034505D01*
X21056991Y23026101D01*
X21035660Y23024000D01*
X20964340Y23024000D01*
X20943009Y23026101D01*
X20857679Y23034505D01*
X20720828Y23076019D01*
X20720826Y23076020D01*
X20720823Y23076021D01*
X20594704Y23143432D01*
X20484157Y23234157D01*
X20393432Y23344704D01*
X20326021Y23470823D01*
X20326019Y23470828D01*
X20284505Y23607679D01*
X20270488Y23750000D01*
X20284505Y23892321D01*
X20326019Y24029172D01*
X20326020Y24029174D01*
X20326021Y24029177D01*
X20393432Y24155296D01*
X20484157Y24265843D01*
X20594704Y24356568D01*
X20720823Y24423979D01*
X20720826Y24423980D01*
X20720828Y24423981D01*
X20857679Y24465495D01*
X20943009Y24473899D01*
X20964340Y24476000D01*
X21035660Y24476000D01*
X21056991Y24473899D01*
X21056991Y24473899D01*
G37*
G36*
X-20870409Y25021915D02*
X-20836431Y25011607D01*
X-20805113Y24994867D01*
X-20777661Y24972339D01*
X-20755133Y24944887D01*
X-20738393Y24913569D01*
X-20728085Y24879591D01*
X-20724000Y24838110D01*
X-20724000Y24236890D01*
X-20728085Y24195409D01*
X-20738393Y24161431D01*
X-20755133Y24130113D01*
X-20777661Y24102661D01*
X-20805113Y24080133D01*
X-20836431Y24063393D01*
X-20870409Y24053085D01*
X-20911890Y24049000D01*
X-21588110Y24049000D01*
X-21629591Y24053085D01*
X-21663569Y24063393D01*
X-21694887Y24080133D01*
X-21722339Y24102661D01*
X-21744867Y24130113D01*
X-21761607Y24161431D01*
X-21771915Y24195409D01*
X-21776000Y24236890D01*
X-21776000Y24838110D01*
X-21771915Y24879591D01*
X-21761607Y24913569D01*
X-21744867Y24944887D01*
X-21722339Y24972339D01*
X-21694887Y24994867D01*
X-21663569Y25011607D01*
X-21629591Y25021915D01*
X-21588110Y25026000D01*
X-20911890Y25026000D01*
X-20870409Y25021915D01*
X-20870409Y25021915D01*
G37*
G36*
X-17174000Y24519000D02*
X-19826000Y24519000D01*
X-19826000Y25681000D01*
X-17174000Y25681000D01*
X-17174000Y24519000D01*
X-17174000Y24519000D01*
G37*
G36*
X17056991Y26473899D02*
X17142321Y26465495D01*
X17279172Y26423981D01*
X17279174Y26423980D01*
X17279177Y26423979D01*
X17405296Y26356568D01*
X17515843Y26265843D01*
X17606568Y26155296D01*
X17673979Y26029177D01*
X17673980Y26029174D01*
X17673981Y26029172D01*
X17715495Y25892321D01*
X17729512Y25750000D01*
X17715495Y25607679D01*
X17673981Y25470828D01*
X17673979Y25470823D01*
X17606568Y25344704D01*
X17515843Y25234157D01*
X17405296Y25143432D01*
X17279177Y25076021D01*
X17279174Y25076020D01*
X17279172Y25076019D01*
X17142321Y25034505D01*
X17056991Y25026101D01*
X17035660Y25024000D01*
X16964340Y25024000D01*
X16943009Y25026101D01*
X16857679Y25034505D01*
X16720828Y25076019D01*
X16720826Y25076020D01*
X16720823Y25076021D01*
X16594704Y25143432D01*
X16484157Y25234157D01*
X16393432Y25344704D01*
X16326021Y25470823D01*
X16326019Y25470828D01*
X16284505Y25607679D01*
X16270488Y25750000D01*
X16284505Y25892321D01*
X16326019Y26029172D01*
X16326020Y26029174D01*
X16326021Y26029177D01*
X16393432Y26155296D01*
X16484157Y26265843D01*
X16594704Y26356568D01*
X16720823Y26423979D01*
X16720826Y26423980D01*
X16720828Y26423981D01*
X16857679Y26465495D01*
X16943009Y26473899D01*
X16964340Y26476000D01*
X17035660Y26476000D01*
X17056991Y26473899D01*
X17056991Y26473899D01*
G37*
G36*
X25056991Y26473899D02*
X25142321Y26465495D01*
X25279172Y26423981D01*
X25279174Y26423980D01*
X25279177Y26423979D01*
X25405296Y26356568D01*
X25515843Y26265843D01*
X25606568Y26155296D01*
X25673979Y26029177D01*
X25673980Y26029174D01*
X25673981Y26029172D01*
X25715495Y25892321D01*
X25729512Y25750000D01*
X25715495Y25607679D01*
X25673981Y25470828D01*
X25673979Y25470823D01*
X25606568Y25344704D01*
X25515843Y25234157D01*
X25405296Y25143432D01*
X25279177Y25076021D01*
X25279174Y25076020D01*
X25279172Y25076019D01*
X25142321Y25034505D01*
X25056991Y25026101D01*
X25035660Y25024000D01*
X24964340Y25024000D01*
X24943009Y25026101D01*
X24857679Y25034505D01*
X24720828Y25076019D01*
X24720826Y25076020D01*
X24720823Y25076021D01*
X24594704Y25143432D01*
X24484157Y25234157D01*
X24393432Y25344704D01*
X24326021Y25470823D01*
X24326019Y25470828D01*
X24284505Y25607679D01*
X24270488Y25750000D01*
X24284505Y25892321D01*
X24326019Y26029172D01*
X24326020Y26029174D01*
X24326021Y26029177D01*
X24393432Y26155296D01*
X24484157Y26265843D01*
X24594704Y26356568D01*
X24720823Y26423979D01*
X24720826Y26423980D01*
X24720828Y26423981D01*
X24857679Y26465495D01*
X24943009Y26473899D01*
X24964340Y26476000D01*
X25035660Y26476000D01*
X25056991Y26473899D01*
X25056991Y26473899D01*
G37*
G36*
X23056991Y26473899D02*
X23142321Y26465495D01*
X23279172Y26423981D01*
X23279174Y26423980D01*
X23279177Y26423979D01*
X23405296Y26356568D01*
X23515843Y26265843D01*
X23606568Y26155296D01*
X23673979Y26029177D01*
X23673980Y26029174D01*
X23673981Y26029172D01*
X23715495Y25892321D01*
X23729512Y25750000D01*
X23715495Y25607679D01*
X23673981Y25470828D01*
X23673979Y25470823D01*
X23606568Y25344704D01*
X23515843Y25234157D01*
X23405296Y25143432D01*
X23279177Y25076021D01*
X23279174Y25076020D01*
X23279172Y25076019D01*
X23142321Y25034505D01*
X23056991Y25026101D01*
X23035660Y25024000D01*
X22964340Y25024000D01*
X22943009Y25026101D01*
X22857679Y25034505D01*
X22720828Y25076019D01*
X22720826Y25076020D01*
X22720823Y25076021D01*
X22594704Y25143432D01*
X22484157Y25234157D01*
X22393432Y25344704D01*
X22326021Y25470823D01*
X22326019Y25470828D01*
X22284505Y25607679D01*
X22270488Y25750000D01*
X22284505Y25892321D01*
X22326019Y26029172D01*
X22326020Y26029174D01*
X22326021Y26029177D01*
X22393432Y26155296D01*
X22484157Y26265843D01*
X22594704Y26356568D01*
X22720823Y26423979D01*
X22720826Y26423980D01*
X22720828Y26423981D01*
X22857679Y26465495D01*
X22943009Y26473899D01*
X22964340Y26476000D01*
X23035660Y26476000D01*
X23056991Y26473899D01*
X23056991Y26473899D01*
G37*
G36*
X19056991Y26473899D02*
X19142321Y26465495D01*
X19279172Y26423981D01*
X19279174Y26423980D01*
X19279177Y26423979D01*
X19405296Y26356568D01*
X19515843Y26265843D01*
X19606568Y26155296D01*
X19673979Y26029177D01*
X19673980Y26029174D01*
X19673981Y26029172D01*
X19715495Y25892321D01*
X19729512Y25750000D01*
X19715495Y25607679D01*
X19673981Y25470828D01*
X19673979Y25470823D01*
X19606568Y25344704D01*
X19515843Y25234157D01*
X19405296Y25143432D01*
X19279177Y25076021D01*
X19279174Y25076020D01*
X19279172Y25076019D01*
X19142321Y25034505D01*
X19056991Y25026101D01*
X19035660Y25024000D01*
X18964340Y25024000D01*
X18943009Y25026101D01*
X18857679Y25034505D01*
X18720828Y25076019D01*
X18720826Y25076020D01*
X18720823Y25076021D01*
X18594704Y25143432D01*
X18484157Y25234157D01*
X18393432Y25344704D01*
X18326021Y25470823D01*
X18326019Y25470828D01*
X18284505Y25607679D01*
X18270488Y25750000D01*
X18284505Y25892321D01*
X18326019Y26029172D01*
X18326020Y26029174D01*
X18326021Y26029177D01*
X18393432Y26155296D01*
X18484157Y26265843D01*
X18594704Y26356568D01*
X18720823Y26423979D01*
X18720826Y26423980D01*
X18720828Y26423981D01*
X18857679Y26465495D01*
X18943009Y26473899D01*
X18964340Y26476000D01*
X19035660Y26476000D01*
X19056991Y26473899D01*
X19056991Y26473899D01*
G37*
G36*
X21056991Y26473899D02*
X21142321Y26465495D01*
X21279172Y26423981D01*
X21279174Y26423980D01*
X21279177Y26423979D01*
X21405296Y26356568D01*
X21515843Y26265843D01*
X21606568Y26155296D01*
X21673979Y26029177D01*
X21673980Y26029174D01*
X21673981Y26029172D01*
X21715495Y25892321D01*
X21729512Y25750000D01*
X21715495Y25607679D01*
X21673981Y25470828D01*
X21673979Y25470823D01*
X21606568Y25344704D01*
X21515843Y25234157D01*
X21405296Y25143432D01*
X21279177Y25076021D01*
X21279174Y25076020D01*
X21279172Y25076019D01*
X21142321Y25034505D01*
X21056991Y25026101D01*
X21035660Y25024000D01*
X20964340Y25024000D01*
X20943009Y25026101D01*
X20857679Y25034505D01*
X20720828Y25076019D01*
X20720826Y25076020D01*
X20720823Y25076021D01*
X20594704Y25143432D01*
X20484157Y25234157D01*
X20393432Y25344704D01*
X20326021Y25470823D01*
X20326019Y25470828D01*
X20284505Y25607679D01*
X20270488Y25750000D01*
X20284505Y25892321D01*
X20326019Y26029172D01*
X20326020Y26029174D01*
X20326021Y26029177D01*
X20393432Y26155296D01*
X20484157Y26265843D01*
X20594704Y26356568D01*
X20720823Y26423979D01*
X20720826Y26423980D01*
X20720828Y26423981D01*
X20857679Y26465495D01*
X20943009Y26473899D01*
X20964340Y26476000D01*
X21035660Y26476000D01*
X21056991Y26473899D01*
X21056991Y26473899D01*
G37*
G36*
X15056991Y26473899D02*
X15142321Y26465495D01*
X15279172Y26423981D01*
X15279174Y26423980D01*
X15279177Y26423979D01*
X15405296Y26356568D01*
X15515843Y26265843D01*
X15606568Y26155296D01*
X15673979Y26029177D01*
X15673980Y26029174D01*
X15673981Y26029172D01*
X15715495Y25892321D01*
X15729512Y25750000D01*
X15715495Y25607679D01*
X15673981Y25470828D01*
X15673979Y25470823D01*
X15606568Y25344704D01*
X15515843Y25234157D01*
X15405296Y25143432D01*
X15279177Y25076021D01*
X15279174Y25076020D01*
X15279172Y25076019D01*
X15142321Y25034505D01*
X15056991Y25026101D01*
X15035660Y25024000D01*
X14964340Y25024000D01*
X14943009Y25026101D01*
X14857679Y25034505D01*
X14720828Y25076019D01*
X14720826Y25076020D01*
X14720823Y25076021D01*
X14594704Y25143432D01*
X14484157Y25234157D01*
X14393432Y25344704D01*
X14326021Y25470823D01*
X14326019Y25470828D01*
X14284505Y25607679D01*
X14270488Y25750000D01*
X14284505Y25892321D01*
X14326019Y26029172D01*
X14326020Y26029174D01*
X14326021Y26029177D01*
X14393432Y26155296D01*
X14484157Y26265843D01*
X14594704Y26356568D01*
X14720823Y26423979D01*
X14720826Y26423980D01*
X14720828Y26423981D01*
X14857679Y26465495D01*
X14943009Y26473899D01*
X14964340Y26476000D01*
X15035660Y26476000D01*
X15056991Y26473899D01*
X15056991Y26473899D01*
G37*
G36*
X-35414266Y28856768D02*
X-35204798Y28770004D01*
X-35016277Y28644038D01*
X-34855962Y28483723D01*
X-34729996Y28295202D01*
X-34643232Y28085734D01*
X-34599000Y27863365D01*
X-34599000Y27636635D01*
X-34643232Y27414266D01*
X-34729996Y27204798D01*
X-34855962Y27016277D01*
X-35016277Y26855962D01*
X-35204798Y26729996D01*
X-35414266Y26643232D01*
X-35636635Y26599000D01*
X-35863365Y26599000D01*
X-36085734Y26643232D01*
X-36295202Y26729996D01*
X-36483723Y26855962D01*
X-36644038Y27016277D01*
X-36770004Y27204798D01*
X-36856768Y27414266D01*
X-36901000Y27636635D01*
X-36901000Y27863365D01*
X-36856768Y28085734D01*
X-36770004Y28295202D01*
X-36644038Y28483723D01*
X-36483723Y28644038D01*
X-36295202Y28770004D01*
X-36085734Y28856768D01*
X-35863365Y28901000D01*
X-35636635Y28901000D01*
X-35414266Y28856768D01*
X-35414266Y28856768D01*
G37*
G36*
X-8664266Y28856768D02*
X-8454798Y28770004D01*
X-8266277Y28644038D01*
X-8105962Y28483723D01*
X-7979996Y28295202D01*
X-7893232Y28085734D01*
X-7849000Y27863365D01*
X-7849000Y27636635D01*
X-7893232Y27414266D01*
X-7979996Y27204798D01*
X-8105962Y27016277D01*
X-8266277Y26855962D01*
X-8454798Y26729996D01*
X-8664266Y26643232D01*
X-8886635Y26599000D01*
X-9113365Y26599000D01*
X-9335734Y26643232D01*
X-9545202Y26729996D01*
X-9733723Y26855962D01*
X-9894038Y27016277D01*
X-10020004Y27204798D01*
X-10106768Y27414266D01*
X-10151000Y27636635D01*
X-10151000Y27863365D01*
X-10106768Y28085734D01*
X-10020004Y28295202D01*
X-9894038Y28483723D01*
X-9733723Y28644038D01*
X-9545202Y28770004D01*
X-9335734Y28856768D01*
X-9113365Y28901000D01*
X-8886635Y28901000D01*
X-8664266Y28856768D01*
X-8664266Y28856768D01*
G37*
G36*
X9335734Y28856768D02*
X9545202Y28770004D01*
X9733723Y28644038D01*
X9894038Y28483723D01*
X10020004Y28295202D01*
X10106768Y28085734D01*
X10151000Y27863365D01*
X10151000Y27636635D01*
X10106768Y27414266D01*
X10020004Y27204798D01*
X9894038Y27016277D01*
X9733723Y26855962D01*
X9545202Y26729996D01*
X9335734Y26643232D01*
X9113365Y26599000D01*
X8886635Y26599000D01*
X8664266Y26643232D01*
X8454798Y26729996D01*
X8266277Y26855962D01*
X8105962Y27016277D01*
X7979996Y27204798D01*
X7893232Y27414266D01*
X7849000Y27636635D01*
X7849000Y27863365D01*
X7893232Y28085734D01*
X7979996Y28295202D01*
X8105962Y28483723D01*
X8266277Y28644038D01*
X8454798Y28770004D01*
X8664266Y28856768D01*
X8886635Y28901000D01*
X9113365Y28901000D01*
X9335734Y28856768D01*
X9335734Y28856768D01*
G37*
G36*
X44085734Y28856768D02*
X44295202Y28770004D01*
X44483723Y28644038D01*
X44644038Y28483723D01*
X44770004Y28295202D01*
X44856768Y28085734D01*
X44901000Y27863365D01*
X44901000Y27636635D01*
X44856768Y27414266D01*
X44770004Y27204798D01*
X44644038Y27016277D01*
X44483723Y26855962D01*
X44295202Y26729996D01*
X44085734Y26643232D01*
X43863365Y26599000D01*
X43636635Y26599000D01*
X43414266Y26643232D01*
X43204798Y26729996D01*
X43016277Y26855962D01*
X42855962Y27016277D01*
X42729996Y27204798D01*
X42643232Y27414266D01*
X42599000Y27636635D01*
X42599000Y27863365D01*
X42643232Y28085734D01*
X42729996Y28295202D01*
X42855962Y28483723D01*
X43016277Y28644038D01*
X43204798Y28770004D01*
X43414266Y28856768D01*
X43636635Y28901000D01*
X43863365Y28901000D01*
X44085734Y28856768D01*
X44085734Y28856768D01*
G37*
G36*
X-28693435Y30010611D02*
X-28502166Y29931385D01*
X-28330024Y29816363D01*
X-28183637Y29669976D01*
X-28068615Y29497834D01*
X-27989389Y29306565D01*
X-27949000Y29103516D01*
X-27949000Y28896484D01*
X-27989389Y28693435D01*
X-28068615Y28502166D01*
X-28183637Y28330024D01*
X-28330024Y28183637D01*
X-28502166Y28068615D01*
X-28693435Y27989389D01*
X-28896484Y27949000D01*
X-29103516Y27949000D01*
X-29306565Y27989389D01*
X-29497834Y28068615D01*
X-29669976Y28183637D01*
X-29816363Y28330024D01*
X-29931385Y28502166D01*
X-30010611Y28693435D01*
X-30051000Y28896484D01*
X-30051000Y29103516D01*
X-30010611Y29306565D01*
X-29931385Y29497834D01*
X-29816363Y29669976D01*
X-29669976Y29816363D01*
X-29497834Y29931385D01*
X-29306565Y30010611D01*
X-29103516Y30051000D01*
X-28896484Y30051000D01*
X-28693435Y30010611D01*
X-28693435Y30010611D01*
G37*
G36*
X-17293435Y30010611D02*
X-17102166Y29931385D01*
X-16930024Y29816363D01*
X-16783637Y29669976D01*
X-16668615Y29497834D01*
X-16589389Y29306565D01*
X-16549000Y29103516D01*
X-16549000Y28896484D01*
X-16589389Y28693435D01*
X-16668615Y28502166D01*
X-16783637Y28330024D01*
X-16930024Y28183637D01*
X-17102166Y28068615D01*
X-17293435Y27989389D01*
X-17496484Y27949000D01*
X-17703516Y27949000D01*
X-17906565Y27989389D01*
X-18097834Y28068615D01*
X-18269976Y28183637D01*
X-18416363Y28330024D01*
X-18531385Y28502166D01*
X-18610611Y28693435D01*
X-18651000Y28896484D01*
X-18651000Y29103516D01*
X-18610611Y29306565D01*
X-18531385Y29497834D01*
X-18416363Y29669976D01*
X-18269976Y29816363D01*
X-18097834Y29931385D01*
X-17906565Y30010611D01*
X-17703516Y30051000D01*
X-17496484Y30051000D01*
X-17293435Y30010611D01*
X-17293435Y30010611D01*
G37*
G36*
X32650443Y31144481D02*
X32716627Y31137963D01*
X32829853Y31103616D01*
X32886467Y31086443D01*
X33025087Y31012348D01*
X33042991Y31002778D01*
X33078729Y30973448D01*
X33180186Y30890186D01*
X33263448Y30788729D01*
X33292778Y30752991D01*
X33292779Y30752989D01*
X33376443Y30596467D01*
X33376443Y30596466D01*
X33427963Y30426627D01*
X33445359Y30250000D01*
X33427963Y30073373D01*
X33421176Y30051000D01*
X33376443Y29903533D01*
X33329850Y29816365D01*
X33292778Y29747009D01*
X33263448Y29711271D01*
X33180186Y29609814D01*
X33078729Y29526552D01*
X33042991Y29497222D01*
X33042989Y29497221D01*
X32886467Y29413557D01*
X32829853Y29396384D01*
X32716627Y29362037D01*
X32650443Y29355519D01*
X32584260Y29349000D01*
X32495740Y29349000D01*
X32429557Y29355519D01*
X32363373Y29362037D01*
X32250147Y29396384D01*
X32193533Y29413557D01*
X32037011Y29497221D01*
X32037009Y29497222D01*
X32001271Y29526552D01*
X31899814Y29609814D01*
X31816552Y29711271D01*
X31787222Y29747009D01*
X31750150Y29816365D01*
X31703557Y29903533D01*
X31658824Y30051000D01*
X31652037Y30073373D01*
X31634641Y30250000D01*
X31652037Y30426627D01*
X31703557Y30596466D01*
X31703557Y30596467D01*
X31787221Y30752989D01*
X31787222Y30752991D01*
X31816552Y30788729D01*
X31899814Y30890186D01*
X32001271Y30973448D01*
X32037009Y31002778D01*
X32054913Y31012348D01*
X32193533Y31086443D01*
X32250147Y31103616D01*
X32363373Y31137963D01*
X32429557Y31144481D01*
X32495740Y31151000D01*
X32584260Y31151000D01*
X32650443Y31144481D01*
X32650443Y31144481D01*
G37*
G36*
X25030443Y31144481D02*
X25096627Y31137963D01*
X25209853Y31103616D01*
X25266467Y31086443D01*
X25405087Y31012348D01*
X25422991Y31002778D01*
X25458729Y30973448D01*
X25560186Y30890186D01*
X25643448Y30788729D01*
X25672778Y30752991D01*
X25672779Y30752989D01*
X25756443Y30596467D01*
X25756443Y30596466D01*
X25807963Y30426627D01*
X25825359Y30250000D01*
X25807963Y30073373D01*
X25801176Y30051000D01*
X25756443Y29903533D01*
X25709850Y29816365D01*
X25672778Y29747009D01*
X25643448Y29711271D01*
X25560186Y29609814D01*
X25458729Y29526552D01*
X25422991Y29497222D01*
X25422989Y29497221D01*
X25266467Y29413557D01*
X25209853Y29396384D01*
X25096627Y29362037D01*
X25030443Y29355519D01*
X24964260Y29349000D01*
X24875740Y29349000D01*
X24809557Y29355519D01*
X24743373Y29362037D01*
X24630147Y29396384D01*
X24573533Y29413557D01*
X24417011Y29497221D01*
X24417009Y29497222D01*
X24381271Y29526552D01*
X24279814Y29609814D01*
X24196552Y29711271D01*
X24167222Y29747009D01*
X24130150Y29816365D01*
X24083557Y29903533D01*
X24038824Y30051000D01*
X24032037Y30073373D01*
X24014641Y30250000D01*
X24032037Y30426627D01*
X24083557Y30596466D01*
X24083557Y30596467D01*
X24167221Y30752989D01*
X24167222Y30752991D01*
X24196552Y30788729D01*
X24279814Y30890186D01*
X24381271Y30973448D01*
X24417009Y31002778D01*
X24434913Y31012348D01*
X24573533Y31086443D01*
X24630147Y31103616D01*
X24743373Y31137963D01*
X24809557Y31144481D01*
X24875740Y31151000D01*
X24964260Y31151000D01*
X25030443Y31144481D01*
X25030443Y31144481D01*
G37*
G36*
X22490443Y31144481D02*
X22556627Y31137963D01*
X22669853Y31103616D01*
X22726467Y31086443D01*
X22865087Y31012348D01*
X22882991Y31002778D01*
X22918729Y30973448D01*
X23020186Y30890186D01*
X23103448Y30788729D01*
X23132778Y30752991D01*
X23132779Y30752989D01*
X23216443Y30596467D01*
X23216443Y30596466D01*
X23267963Y30426627D01*
X23285359Y30250000D01*
X23267963Y30073373D01*
X23261176Y30051000D01*
X23216443Y29903533D01*
X23169850Y29816365D01*
X23132778Y29747009D01*
X23103448Y29711271D01*
X23020186Y29609814D01*
X22918729Y29526552D01*
X22882991Y29497222D01*
X22882989Y29497221D01*
X22726467Y29413557D01*
X22669853Y29396384D01*
X22556627Y29362037D01*
X22490443Y29355519D01*
X22424260Y29349000D01*
X22335740Y29349000D01*
X22269557Y29355519D01*
X22203373Y29362037D01*
X22090147Y29396384D01*
X22033533Y29413557D01*
X21877011Y29497221D01*
X21877009Y29497222D01*
X21841271Y29526552D01*
X21739814Y29609814D01*
X21656552Y29711271D01*
X21627222Y29747009D01*
X21590150Y29816365D01*
X21543557Y29903533D01*
X21498824Y30051000D01*
X21492037Y30073373D01*
X21474641Y30250000D01*
X21492037Y30426627D01*
X21543557Y30596466D01*
X21543557Y30596467D01*
X21627221Y30752989D01*
X21627222Y30752991D01*
X21656552Y30788729D01*
X21739814Y30890186D01*
X21841271Y30973448D01*
X21877009Y31002778D01*
X21894913Y31012348D01*
X22033533Y31086443D01*
X22090147Y31103616D01*
X22203373Y31137963D01*
X22269557Y31144481D01*
X22335740Y31151000D01*
X22424260Y31151000D01*
X22490443Y31144481D01*
X22490443Y31144481D01*
G37*
G36*
X35190443Y31144481D02*
X35256627Y31137963D01*
X35369853Y31103616D01*
X35426467Y31086443D01*
X35565087Y31012348D01*
X35582991Y31002778D01*
X35618729Y30973448D01*
X35720186Y30890186D01*
X35803448Y30788729D01*
X35832778Y30752991D01*
X35832779Y30752989D01*
X35916443Y30596467D01*
X35916443Y30596466D01*
X35967963Y30426627D01*
X35985359Y30250000D01*
X35967963Y30073373D01*
X35961176Y30051000D01*
X35916443Y29903533D01*
X35869850Y29816365D01*
X35832778Y29747009D01*
X35803448Y29711271D01*
X35720186Y29609814D01*
X35618729Y29526552D01*
X35582991Y29497222D01*
X35582989Y29497221D01*
X35426467Y29413557D01*
X35369853Y29396384D01*
X35256627Y29362037D01*
X35190443Y29355519D01*
X35124260Y29349000D01*
X35035740Y29349000D01*
X34969557Y29355519D01*
X34903373Y29362037D01*
X34790147Y29396384D01*
X34733533Y29413557D01*
X34577011Y29497221D01*
X34577009Y29497222D01*
X34541271Y29526552D01*
X34439814Y29609814D01*
X34356552Y29711271D01*
X34327222Y29747009D01*
X34290150Y29816365D01*
X34243557Y29903533D01*
X34198824Y30051000D01*
X34192037Y30073373D01*
X34174641Y30250000D01*
X34192037Y30426627D01*
X34243557Y30596466D01*
X34243557Y30596467D01*
X34327221Y30752989D01*
X34327222Y30752991D01*
X34356552Y30788729D01*
X34439814Y30890186D01*
X34541271Y30973448D01*
X34577009Y31002778D01*
X34594913Y31012348D01*
X34733533Y31086443D01*
X34790147Y31103616D01*
X34903373Y31137963D01*
X34969557Y31144481D01*
X35035740Y31151000D01*
X35124260Y31151000D01*
X35190443Y31144481D01*
X35190443Y31144481D01*
G37*
G36*
X27570443Y31144481D02*
X27636627Y31137963D01*
X27749853Y31103616D01*
X27806467Y31086443D01*
X27945087Y31012348D01*
X27962991Y31002778D01*
X27998729Y30973448D01*
X28100186Y30890186D01*
X28183448Y30788729D01*
X28212778Y30752991D01*
X28212779Y30752989D01*
X28296443Y30596467D01*
X28296443Y30596466D01*
X28347963Y30426627D01*
X28365359Y30250000D01*
X28347963Y30073373D01*
X28341176Y30051000D01*
X28296443Y29903533D01*
X28249850Y29816365D01*
X28212778Y29747009D01*
X28183448Y29711271D01*
X28100186Y29609814D01*
X27998729Y29526552D01*
X27962991Y29497222D01*
X27962989Y29497221D01*
X27806467Y29413557D01*
X27749853Y29396384D01*
X27636627Y29362037D01*
X27570443Y29355519D01*
X27504260Y29349000D01*
X27415740Y29349000D01*
X27349557Y29355519D01*
X27283373Y29362037D01*
X27170147Y29396384D01*
X27113533Y29413557D01*
X26957011Y29497221D01*
X26957009Y29497222D01*
X26921271Y29526552D01*
X26819814Y29609814D01*
X26736552Y29711271D01*
X26707222Y29747009D01*
X26670150Y29816365D01*
X26623557Y29903533D01*
X26578824Y30051000D01*
X26572037Y30073373D01*
X26554641Y30250000D01*
X26572037Y30426627D01*
X26623557Y30596466D01*
X26623557Y30596467D01*
X26707221Y30752989D01*
X26707222Y30752991D01*
X26736552Y30788729D01*
X26819814Y30890186D01*
X26921271Y30973448D01*
X26957009Y31002778D01*
X26974913Y31012348D01*
X27113533Y31086443D01*
X27170147Y31103616D01*
X27283373Y31137963D01*
X27349557Y31144481D01*
X27415740Y31151000D01*
X27504260Y31151000D01*
X27570443Y31144481D01*
X27570443Y31144481D01*
G37*
G36*
X38521000Y29349000D02*
X36719000Y29349000D01*
X36719000Y31151000D01*
X38521000Y31151000D01*
X38521000Y29349000D01*
X38521000Y29349000D01*
G37*
G36*
X30110443Y31144481D02*
X30176627Y31137963D01*
X30289853Y31103616D01*
X30346467Y31086443D01*
X30485087Y31012348D01*
X30502991Y31002778D01*
X30538729Y30973448D01*
X30640186Y30890186D01*
X30723448Y30788729D01*
X30752778Y30752991D01*
X30752779Y30752989D01*
X30836443Y30596467D01*
X30836443Y30596466D01*
X30887963Y30426627D01*
X30905359Y30250000D01*
X30887963Y30073373D01*
X30881176Y30051000D01*
X30836443Y29903533D01*
X30789850Y29816365D01*
X30752778Y29747009D01*
X30723448Y29711271D01*
X30640186Y29609814D01*
X30538729Y29526552D01*
X30502991Y29497222D01*
X30502989Y29497221D01*
X30346467Y29413557D01*
X30289853Y29396384D01*
X30176627Y29362037D01*
X30110443Y29355519D01*
X30044260Y29349000D01*
X29955740Y29349000D01*
X29889557Y29355519D01*
X29823373Y29362037D01*
X29710147Y29396384D01*
X29653533Y29413557D01*
X29497011Y29497221D01*
X29497009Y29497222D01*
X29461271Y29526552D01*
X29359814Y29609814D01*
X29276552Y29711271D01*
X29247222Y29747009D01*
X29210150Y29816365D01*
X29163557Y29903533D01*
X29118824Y30051000D01*
X29112037Y30073373D01*
X29094641Y30250000D01*
X29112037Y30426627D01*
X29163557Y30596466D01*
X29163557Y30596467D01*
X29247221Y30752989D01*
X29247222Y30752991D01*
X29276552Y30788729D01*
X29359814Y30890186D01*
X29461271Y30973448D01*
X29497009Y31002778D01*
X29514913Y31012348D01*
X29653533Y31086443D01*
X29710147Y31103616D01*
X29823373Y31137963D01*
X29889557Y31144481D01*
X29955740Y31151000D01*
X30044260Y31151000D01*
X30110443Y31144481D01*
X30110443Y31144481D01*
G37*
M02*
