<?xml version="1.0" standalone="no"?>
 <!DOCTYPE svg PUBLIC "-//W3C//DTD SVG 1.1//EN" 
 "http://www.w3.org/Graphics/SVG/1.1/DTD/svg11.dtd"> 
<svg xmlns="http://www.w3.org/2000/svg" version="1.1" 
    width="29.7002cm" height="21.0007cm" viewBox="0 0 116930 82680 ">
<title>SVG Picture created as board2-F_SilkS.svg date 2019/04/10 12:09:58 </title>
  <desc>Picture generated by PCBNEW </desc>
<g style="fill:#000000; fill-opacity:1;stroke:#000000; stroke-opacity:1;
stroke-linecap:round; stroke-linejoin:round; "
 transform="translate(0 0) scale(1 1)">
</g>
<g style="fill:#000000; fill-opacity:0.0; 
stroke:#000000; stroke-width:-0.000393701; stroke-opacity:1; 
stroke-linecap:round; stroke-linejoin:round;">
</g>
<g style="fill:#000000; fill-opacity:0.0; 
stroke:#000000; stroke-width:118.11; stroke-opacity:1; 
stroke-linecap:round; stroke-linejoin:round;">
<path d="M50984 33816
L51068 33844
L51096 33872
L51124 33928
L51124 34012
L51096 34069
L51068 34097
L51012 34125
L50787 34125
L50787 33534
L50984 33534
L51040 33562
L51068 33591
L51096 33647
L51096 33703
L51068 33759
L51040 33787
L50984 33816
L50787 33816
" />
<path d="M51490 33534
L51602 33534
L51659 33562
L51715 33619
L51743 33731
L51743 33928
L51715 34041
L51659 34097
L51602 34125
L51490 34125
L51434 34097
L51377 34041
L51349 33928
L51349 33731
L51377 33619
L51434 33562
L51490 33534
" />
<path d="M52109 33534
L52221 33534
L52277 33562
L52334 33619
L52362 33731
L52362 33928
L52334 34041
L52277 34097
L52221 34125
L52109 34125
L52052 34097
L51996 34041
L51968 33928
L51968 33731
L51996 33619
L52052 33562
L52109 33534
" />
<path d="M52530 33534
L52868 33534
" />
<path d="M52699 34125
L52699 33534
" />
<path d="M53374 34125
L53037 34125
" />
<path d="M53205 34125
L53205 33534
L53149 33619
L53093 33675
L53037 33703
" />
<path d="M50984 44938
L51068 44966
L51096 44994
L51124 45050
L51124 45134
L51096 45191
L51068 45219
L51012 45247
L50787 45247
L50787 44656
L50984 44656
L51040 44685
L51068 44713
L51096 44769
L51096 44825
L51068 44881
L51040 44910
L50984 44938
L50787 44938
" />
<path d="M51490 44656
L51602 44656
L51659 44685
L51715 44741
L51743 44853
L51743 45050
L51715 45163
L51659 45219
L51602 45247
L51490 45247
L51434 45219
L51377 45163
L51349 45050
L51349 44853
L51377 44741
L51434 44685
L51490 44656
" />
<path d="M52109 44656
L52221 44656
L52277 44685
L52334 44741
L52362 44853
L52362 45050
L52334 45163
L52277 45219
L52221 45247
L52109 45247
L52052 45219
L51996 45163
L51968 45050
L51968 44853
L51996 44741
L52052 44685
L52109 44656
" />
<path d="M52530 44656
L52868 44656
" />
<path d="M52699 45247
L52699 44656
" />
<path d="M53177 44656
L53233 44656
L53290 44685
L53318 44713
L53346 44769
L53374 44881
L53374 45022
L53346 45134
L53318 45191
L53290 45219
L53233 45247
L53177 45247
L53121 45219
L53093 45191
L53065 45134
L53037 45022
L53037 44881
L53065 44769
L53093 44713
L53121 44685
L53177 44656
" />
<path d="M25239 34519
L25239 34969
" />
<path d="M25464 34744
L25014 34744
" />
<path d="M25239 43574
L25239 44024
" />
<path d="M36726 47895
L36464 47520
" />
<path d="M36276 47895
L36276 47108
L36576 47108
L36651 47145
L36689 47183
L36726 47258
L36726 47370
L36689 47445
L36651 47483
L36576 47520
L36276 47520
" />
<path d="M37176 47895
L37101 47858
L37064 47820
L37026 47745
L37026 47520
L37064 47445
L37101 47408
L37176 47370
L37289 47370
L37364 47408
L37401 47445
L37439 47520
L37439 47745
L37401 47820
L37364 47858
L37289 47895
L37176 47895
" />
<path d="M37701 47370
L37851 47895
L38001 47520
L38151 47895
L38301 47370
" />
<path d="M38938 47895
L38938 47483
L38901 47408
L38826 47370
L38676 47370
L38601 47408
" />
<path d="M38938 47858
L38863 47895
L38676 47895
L38601 47858
L38563 47783
L38563 47708
L38601 47633
L38676 47595
L38863 47595
L38938 47558
" />
<path d="M39313 47370
L39313 47895
" />
<path d="M39313 47445
L39351 47408
L39426 47370
L39538 47370
L39613 47408
L39651 47483
L39651 47895
" />
<path d="M41076 47895
L40813 47520
" />
<path d="M40626 47895
L40626 47108
L40926 47108
L41001 47145
L41038 47183
L41076 47258
L41076 47370
L41038 47445
L41001 47483
L40926 47520
L40626 47520
" />
<path d="M41376 47670
L41751 47670
" />
<path d="M41301 47895
L41563 47108
L41826 47895
" />
<path d="M42050 47858
L42163 47895
L42350 47895
L42425 47858
L42463 47820
L42500 47745
L42500 47670
L42463 47595
L42425 47558
L42350 47520
L42200 47483
L42125 47445
L42088 47408
L42050 47333
L42050 47258
L42088 47183
L42125 47145
L42200 47108
L42388 47108
L42500 47145
" />
<path d="M38329 45894
L38357 45866
L38413 45838
L38554 45838
L38610 45866
L38638 45894
L38667 45950
L38667 46006
L38638 46091
L38301 46428
L38667 46428
" />
<path d="M39341 45809
L38835 46569
" />
<path d="M39848 46428
L39510 46428
" />
<path d="M39679 46428
L39679 45838
L39623 45922
L39566 45978
L39510 46006
" />
<path d="M40129 46428
L40241 46428
L40298 46400
L40326 46372
L40382 46287
L40410 46175
L40410 45950
L40382 45894
L40354 45866
L40298 45838
L40185 45838
L40129 45866
L40101 45894
L40073 45950
L40073 46091
L40101 46147
L40129 46175
L40185 46203
L40298 46203
L40354 46175
L40382 46147
L40410 46091
" />
<path d="M36239 32836
L36239 32049
" />
<path d="M36239 32424
L36689 32424
" />
<path d="M36689 32836
L36689 32049
" />
<path d="M37176 32836
L37101 32799
L37064 32761
L37026 32686
L37026 32461
L37064 32386
L37101 32349
L37176 32311
L37289 32311
L37364 32349
L37401 32386
L37439 32461
L37439 32686
L37401 32761
L37364 32799
L37289 32836
L37176 32836
" />
<path d="M37889 32836
L37814 32799
L37776 32724
L37776 32049
" />
<path d="M38301 32836
L38226 32799
L38188 32724
L38188 32049
" />
<path d="M38938 32836
L38938 32424
L38901 32349
L38826 32311
L38676 32311
L38601 32349
" />
<path d="M38938 32799
L38863 32836
L38676 32836
L38601 32799
L38563 32724
L38563 32649
L38601 32574
L38676 32536
L38863 32536
L38938 32499
" />
<path d="M39313 32836
L39313 32049
" />
<path d="M39313 32349
L39388 32311
L39538 32311
L39613 32349
L39651 32386
L39688 32461
L39688 32686
L39651 32761
L39613 32799
L39538 32836
L39388 32836
L39313 32799
" />
<path d="M40363 32836
L40363 32424
L40326 32349
L40251 32311
L40101 32311
L40026 32349
" />
<path d="M40363 32799
L40288 32836
L40101 32836
L40026 32799
L39988 32724
L39988 32649
L40026 32574
L40101 32536
L40288 32536
L40363 32499
" />
<path d="M41076 32311
L41076 32836
" />
<path d="M40738 32311
L40738 32724
L40776 32799
L40851 32836
L40963 32836
L41038 32799
L41076 32761
" />
<path d="M41788 32311
L41788 32949
L41751 33023
L41713 33061
L41638 33098
L41526 33098
L41451 33061
" />
<path d="M41788 32799
L41713 32836
L41563 32836
L41488 32799
L41451 32761
L41413 32686
L41413 32461
L41451 32386
L41488 32349
L41563 32311
L41713 32311
L41788 32349
" />
<path d="M42163 32836
L42163 32049
" />
<path d="M42500 32836
L42500 32424
L42463 32349
L42388 32311
L42275 32311
L42200 32349
L42163 32386
" />
<path d="M38432 30769
L38882 30769
" />
<path d="M38657 31556
L38657 30769
" />
<path d="M39145 31556
L39145 31032
" />
<path d="M39145 30769
L39107 30807
L39145 30844
L39182 30807
L39145 30769
L39145 30844
" />
<path d="M39520 31556
L39520 31032
" />
<path d="M39520 31107
L39557 31069
L39632 31032
L39745 31032
L39820 31069
L39857 31144
L39857 31556
" />
<path d="M39857 31144
L39895 31069
L39970 31032
L40082 31032
L40157 31069
L40194 31144
L40194 31556
" />
</g>
<g style="fill:#000000; fill-opacity:0.0; 
stroke:#000000; stroke-width:47.2441; stroke-opacity:1; 
stroke-linecap:round; stroke-linejoin:round;">
<path d="M49629 30437
L49629 28814
" />
<path d="M45669 30437
L49629 30437
" />
<path d="M44858 28814
L49629 28814
" />
<path d="M45669 30437
L45669 29625
" />
<path d="M45669 29625
L44858 29625
" />
<path d="M44858 29625
L44858 28814
" />
<path d="M45275 30437
L44858 30437
" />
<path d="M44858 30437
L44858 30019
" />
<path d="M40929.4 38484.3 A618.244 618.244 0.0 1 0 40906 39298.4 " />
<path d="M42393 43078
L42393 44125
" />
<path d="M36346 43078
L36346 44125
" />
<path d="M41570 44125
L40169 44125
" />
<path d="M39570 44125
L38169 44125
" />
<path d="M37570 44125
L36346 44125
" />
<path d="M42393 43078
L41169 43078
" />
<path d="M42169 44125
L42169 44724
" />
<path d="M42393 44125
L42169 44125
" />
<path d="M36570 43078
L36346 43078
" />
<path d="M40570 43078
L39169 43078
" />
<path d="M38570 43078
L37169 43078
" />
<path d="M36346 35661
L36346 34614
" />
<path d="M42393 35661
L42393 34614
" />
<path d="M36346 34614
L37570 34614
" />
<path d="M36570 35661
L36570 36259
" />
<path d="M36346 35661
L36570 35661
" />
<path d="M42169 34614
L42393 34614
" />
<path d="M38169 34614
L39570 34614
" />
<path d="M40169 34614
L41570 34614
" />
<path d="M37169 35661
L38570 35661
" />
<path d="M39169 35661
L40570 35661
" />
<path d="M41169 35661
L42393 35661
" />
<path d="M34292 36964
L33818 36964
" />
<path d="M34292 38035
L33818 38035
" />
<path d="M34292 41775
L33818 41775
" />
<path d="M34292 40704
L33818 40704
" />
<path d="M35133 41319
L35133 41190
" />
<path d="M35535 41319
L35535 41190
" />
<path d="M52677 38700
L52677 41279
" />
<path d="M52677 41279
L54212 41279
" />
<path d="M54212 41279
L54212 38700
" />
<path d="M39448 39078
L39320 39078
" />
<path d="M39448 38677
L39320 38677
" />
<path d="M40698 40062
L40826 40062
" />
<path d="M40698 39661
L40826 39661
" />
<path d="M39320 39661
L39448 39661
" />
<path d="M39320 40062
L39448 40062
" />
<path d="M30803 30083
L30803 29955
" />
<path d="M31204 30083
L31204 29955
" />
</g>
<g style="fill:#000000; fill-opacity:0.0; 
stroke:#000000; stroke-width:59.0551; stroke-opacity:1; 
stroke-linecap:round; stroke-linejoin:round;">
<path d="M32568 38267
L34921 38267
" />
<path d="M33188 40442
L34921 40442
" />
</g>
<g style="fill:#000000; fill-opacity:0.0; 
stroke:#000000; stroke-width:47.2441; stroke-opacity:1; 
stroke-linecap:round; stroke-linejoin:round;">
<path d="M36118 39434
L36118 39305
" />
<path d="M36519 39434
L36519 39305
" />
<path d="M46112 36511
L45984 36511
" />
<path d="M46112 36913
L45984 36913
" />
<path d="M46112 37503
L45984 37503
" />
<path d="M46112 37102
L45984 37102
" />
<path d="M46141 42318
L46013 42318
" />
<path d="M46141 42720
L46013 42720
" />
<path d="M46460 41584
L46460 41712
" />
<path d="M46059 41584
L46059 41712
" />
<path d="M51328 42129
L51456 42129
" />
<path d="M51328 41728
L51456 41728
" />
<path d="M51456 37011
L51328 37011
" />
<path d="M51456 36610
L51328 36610
" />
<path d="M51570 38208
L51570 38336
" />
<path d="M51972 38208
L51972 38336
" />
<path d="M51328 41137
L51456 41137
" />
<path d="M51328 41539
L51456 41539
" />
<circle cx="37696.9" cy="39370.1" r="1031.5" /> 
<path d="M36681 39370
L38712 39370
" />
<path d="M36681 39354
L38712 39354
" />
<path d="M36681 39338
L38712 39338
" />
<path d="M36681 39322
L38711 39322
" />
<path d="M36682 39307
L38711 39307
" />
<path d="M36683 39291
L38709 39291
" />
<path d="M36685 39275
L37287 39275
" />
<path d="M38106 39275
L38708 39275
" />
<path d="M36687 39259
L37287 39259
" />
<path d="M38106 39259
L38706 39259
" />
<path d="M36688 39244
L37287 39244
" />
<path d="M38106 39244
L38705 39244
" />
<path d="M36690 39228
L37287 39228
" />
<path d="M38106 39228
L38703 39228
" />
<path d="M36692 39212
L37287 39212
" />
<path d="M38106 39212
L38700 39212
" />
<path d="M36695 39196
L37287 39196
" />
<path d="M38106 39196
L38698 39196
" />
<path d="M36698 39181
L37287 39181
" />
<path d="M38106 39181
L38695 39181
" />
<path d="M36701 39165
L37287 39165
" />
<path d="M38106 39165
L38692 39165
" />
<path d="M36704 39149
L37287 39149
" />
<path d="M38106 39149
L38688 39149
" />
<path d="M36708 39133
L37287 39133
" />
<path d="M38106 39133
L38685 39133
" />
<path d="M36712 39118
L37287 39118
" />
<path d="M38106 39118
L38681 39118
" />
<path d="M36716 39102
L37287 39102
" />
<path d="M38106 39102
L38677 39102
" />
<path d="M36720 39086
L37287 39086
" />
<path d="M38106 39086
L38673 39086
" />
<path d="M36725 39070
L37287 39070
" />
<path d="M38106 39070
L38668 39070
" />
<path d="M36730 39054
L37287 39054
" />
<path d="M38106 39054
L38663 39054
" />
<path d="M36735 39038
L37287 39038
" />
<path d="M38106 39038
L38658 39038
" />
<path d="M36740 39023
L37287 39023
" />
<path d="M38106 39023
L38652 39023
" />
<path d="M36746 39007
L37287 39007
" />
<path d="M38106 39007
L38647 39007
" />
<path d="M36752 38991
L37287 38991
" />
<path d="M38106 38991
L38640 38991
" />
<path d="M36759 38975
L37287 38975
" />
<path d="M38106 38975
L38634 38975
" />
<path d="M36765 38960
L37287 38960
" />
<path d="M38106 38960
L38627 38960
" />
<path d="M36772 38944
L37287 38944
" />
<path d="M38106 38944
L38621 38944
" />
<path d="M36779 38928
L37287 38928
" />
<path d="M38106 38928
L38613 38928
" />
<path d="M36787 38912
L37287 38912
" />
<path d="M38106 38912
L38606 38912
" />
<path d="M36795 38897
L37287 38897
" />
<path d="M38106 38897
L38598 38897
" />
<path d="M36803 38881
L37287 38881
" />
<path d="M38106 38881
L38589 38881
" />
<path d="M36812 38865
L37287 38865
" />
<path d="M38106 38865
L38581 38865
" />
<path d="M36821 38850
L37287 38850
" />
<path d="M38106 38850
L38572 38850
" />
<path d="M36830 38834
L37287 38834
" />
<path d="M38106 38834
L38562 38834
" />
<path d="M36840 38818
L37287 38818
" />
<path d="M38106 38818
L38553 38818
" />
<path d="M36850 38802
L37287 38802
" />
<path d="M38106 38802
L38542 38802
" />
<path d="M36861 38787
L37287 38787
" />
<path d="M38106 38787
L38532 38787
" />
<path d="M36872 38771
L37287 38771
" />
<path d="M38106 38771
L38521 38771
" />
<path d="M36883 38755
L37287 38755
" />
<path d="M38106 38755
L38509 38755
" />
<path d="M36895 38739
L37287 38739
" />
<path d="M38106 38739
L38498 38739
" />
<path d="M36907 38724
L37287 38724
" />
<path d="M38106 38724
L38485 38724
" />
<path d="M36920 38708
L37287 38708
" />
<path d="M38106 38708
L38472 38708
" />
<path d="M36934 38692
L37287 38692
" />
<path d="M38106 38692
L38459 38692
" />
<path d="M36948 38676
L37287 38676
" />
<path d="M38106 38676
L38445 38676
" />
<path d="M36962 38661
L37287 38661
" />
<path d="M38106 38661
L38430 38661
" />
<path d="M36977 38645
L37287 38645
" />
<path d="M38106 38645
L38415 38645
" />
<path d="M36994 38629
L37287 38629
" />
<path d="M38106 38629
L38399 38629
" />
<path d="M37010 38613
L37287 38613
" />
<path d="M38106 38613
L38383 38613
" />
<path d="M37027 38598
L37287 38598
" />
<path d="M38106 38598
L38365 38598
" />
<path d="M37046 38582
L37287 38582
" />
<path d="M38106 38582
L38347 38582
" />
<path d="M37064 38566
L37287 38566
" />
<path d="M38106 38566
L38328 38566
" />
<path d="M37085 38550
L37287 38550
" />
<path d="M38106 38550
L38308 38550
" />
<path d="M37106 38535
L37287 38535
" />
<path d="M38106 38535
L38287 38535
" />
<path d="M37128 38519
L37287 38519
" />
<path d="M38106 38519
L38264 38519
" />
<path d="M37152 38503
L37287 38503
" />
<path d="M38106 38503
L38241 38503
" />
<path d="M37177 38487
L37287 38487
" />
<path d="M38106 38487
L38216 38487
" />
<path d="M37204 38472
L37287 38472
" />
<path d="M38106 38472
L38189 38472
" />
<path d="M37233 38456
L38160 38456
" />
<path d="M37264 38440
L38129 38440
" />
<path d="M37298 38424
L38094 38424
" />
<path d="M37336 38409
L38057 38409
" />
<path d="M37379 38393
L38013 38393
" />
<path d="M37430 38377
L37963 38377
" />
<path d="M37492 38361
L37900 38361
" />
<path d="M37585 38346
L37808 38346
" />
<path d="M37116 40474
L37116 40277
" />
<path d="M37017 40375
L37214 40375
" />
<path d="M25393 39862
L24803 39862
" />
<path d="M23818 40354
L23818 42125
" />
<path d="M24803 42618
L25393 42618
" />
<path d="M26377 42125
L26377 40354
" />
<path d="M28838 50984
L28838 49212
" />
<path d="M27263 51476
L27854 51476
" />
<path d="M26279 49212
L26279 50984
" />
<path d="M27854 48720
L27263 48720
" />
<path d="M30807 48720
L30216 48720
" />
<path d="M29232 49212
L29232 50984
" />
<path d="M30216 51476
L30807 51476
" />
<path d="M31791 50984
L31791 49212
" />
<path d="M34744 50984
L34744 49212
" />
<path d="M33169 51476
L33759 51476
" />
<path d="M32185 49212
L32185 50984
" />
<path d="M33759 48720
L33169 48720
" />
<path d="M54326 40777
L54326 40649
" />
<path d="M54728 40777
L54728 40649
" />
<path d="M54326 39143
L54326 39271
" />
<path d="M54728 39143
L54728 39271
" />
<path d="M32165 30803
L32037 30803
" />
<path d="M32165 31204
L32037 31204
" />
<path d="M24571 39374
L24443 39374
" />
<path d="M24571 38972
L24443 38972
" />
<path d="M24974 35159
L26364 35159
" />
<path d="M24974 37706
L26364 37706
" />
<path d="M24452 35185
L24974 35185
" />
<path d="M24974 35159
L24974 35185
" />
<path d="M26364 35159
L26364 35185
" />
<path d="M24974 37681
L24974 37706
" />
<path d="M26364 37681
L26364 37706
" />
<path d="M28496 29496
L28496 30543
" />
<path d="M29519 29496
L28496 29496
" />
<path d="M29519 30543
L28496 30543
" />
<path d="M29519 29496
L29519 30543
" />
<path d="M30019 29496
L30543 29496
" />
<path d="M30543 29496
L30543 30019
" />
<path d="M25165 46291
L25165 45767
" />
<path d="M25688 46291
L25165 46291
" />
<path d="M26188 46291
L26188 45244
" />
<path d="M26188 45244
L27212 45244
" />
<path d="M26188 46291
L27212 46291
" />
<path d="M27212 46291
L27212 45244
" />
<path d="M51543 44437
L52590 44437
" />
<path d="M51543 43413
L51543 44437
" />
<path d="M52590 43413
L52590 44437
" />
<path d="M51543 43413
L52590 43413
" />
<path d="M51543 42913
L51543 42389
" />
<path d="M51543 42389
L52066 42389
" />
<path d="M24834 32964
L24311 32964
" />
<path d="M24834 32440
L24834 32964
" />
<path d="M24834 31940
L23787 31940
" />
<path d="M23787 31940
L23787 30917
" />
<path d="M24834 31940
L24834 30917
" />
<path d="M24834 30917
L23787 30917
" />
<path d="M52590 34303
L51543 34303
" />
<path d="M52590 35326
L52590 34303
" />
<path d="M51543 35326
L51543 34303
" />
<path d="M52590 35326
L51543 35326
" />
<path d="M52590 35826
L52590 36350
" />
<path d="M52590 36350
L52066 36350
" />
<path d="M23787 49342
L24834 49342
" />
<path d="M23787 44318
L23787 49342
" />
<path d="M24834 44318
L24834 49342
" />
<path d="M23787 44318
L24834 44318
" />
<path d="M23787 43818
L23787 43295
" />
<path d="M23787 43295
L24311 43295
" />
<path d="M26476 26909
L33917 26909
" />
<path d="M26476 26909
L26476 28996
" />
<path d="M33917 28996
L33917 26909
" />
<path d="M33917 28996
L26476 28996
" />
<path d="M43691 38773
L44591 38773
" />
<path d="M43691 38194
L43691 38773
" />
<path d="M44591 38194
L43691 38194
" />
<path d="M44591 38785
L43691 38785
" />
<path d="M43691 38785
L43691 39364
" />
<path d="M43691 39364
L44591 39364
" />
<path d="M43691 39954
L44591 39954
" />
<path d="M43691 39375
L43691 39954
" />
<path d="M44591 39375
L43691 39375
" />
<path d="M44591 39966
L43691 39966
" />
<path d="M43691 39966
L43691 40545
" />
<path d="M43691 40545
L44591 40545
" />
<path d="M47082 37358
L46708 37358
" />
<path d="M46708 37358
L46708 37732
" />
<path d="M50358 37358
L50732 37358
" />
<path d="M50732 37358
L50732 37732
" />
<path d="M47082 41381
L46708 41381
" />
<path d="M46708 41381
L46708 41007
" />
<path d="M50358 41381
L50732 41381
" />
<path d="M50732 41381
L50732 41007
" />
<path d="M50732 41007
L51259 41007
" />
<path d="M31452 29566
L31452 30275
" />
<path d="M32720 30275
L32720 29311
" />
<path d="M51456 37602
L51328 37602
" />
<path d="M51456 37200
L51328 37200
" />
<path d="M50836 42712
L50708 42712
" />
<path d="M50836 43114
L50708 43114
" />
<path d="M43031 38685
L43159 38685
" />
<path d="M43031 38283
L43159 38283
" />
<path d="M43031 38874
L43159 38874
" />
<path d="M43031 39275
L43159 39275
" />
<path d="M43046 40456
L43174 40456
" />
<path d="M43046 40055
L43174 40055
" />
<path d="M43031 39464
L43159 39464
" />
<path d="M43031 39866
L43159 39866
" />
<circle cx="48720.5" cy="44094.5" r="570.866" /> 
<circle cx="48720.5" cy="36023.6" r="570.866" /> 
<circle cx="48720.5" cy="42716.5" r="570.866" /> 
<circle cx="27657.5" cy="30019.7" r="570.866" /> 
<circle cx="48720.5" cy="34645.7" r="570.866" /> 
<circle cx="43503.9" cy="41240.2" r="570.866" /> 
</g>
<g style="fill:#000000; fill-opacity:1.0; 
stroke:#000000; stroke-width:3.93701; stroke-opacity:1; 
stroke-linecap:round; stroke-linejoin:round;">
<path style="fill:#000000; fill-opacity:1.0; 
stroke:#000000; stroke-width:3.93701; stroke-opacity:1; 
stroke-linecap:round; stroke-linejoin:round;fill-rule:evenodd;"
d="M 31780,38475
31771,38513
31754,38547
31730,38576
31701,38600
31666,38618
31628,38628
31590,38630
31553,38625
31518,38611
31487,38591
31460,38566
31439,38534
31424,38499
31419,38479
31416,38461
31415,38448
31416,38435
31418,38419
31421,38406
31433,38369
31454,38336
31481,38308
31515,38284
31525,38279
31540,38272
31552,38268
31564,38266
31580,38265
31599,38265
31632,38267
31659,38272
31683,38282
31706,38298
31723,38313
31749,38341
31767,38371
31778,38403
31782,38434
31780,38475
Z" /> 
<path style="fill:#000000; fill-opacity:1.0; 
stroke:#000000; stroke-width:3.93701; stroke-opacity:1; 
stroke-linecap:round; stroke-linejoin:round;fill-rule:evenodd;"
d="M 30818,41805
30725,41805
30641,41805
30566,41805
30497,41805
30436,41805
30382,41806
30334,41806
30292,41806
30255,41807
30223,41807
30196,41808
30173,41809
30153,41810
30137,41811
30124,41813
30113,41814
30104,41816
30096,41818
30090,41821
30084,41823
30079,41826
30073,41830
30069,41832
30045,41845
30045,41507
30083,41507
30100,41507
30113,41506
30120,41505
30121,41505
30118,41500
30111,41491
30103,41482
30087,41461
30071,41433
30057,41403
30045,41373
30041,41361
30035,41334
30031,41301
30029,41266
30029,41231
30032,41200
30034,41185
30049,41131
30072,41081
30102,41035
30139,40994
30184,40958
30228,40932
30274,40911
30321,40894
30370,40882
30424,40875
30484,40871
30514,40871
30537,40872
30537,41198
30500,41198
30465,41200
30435,41202
30411,41205
30406,41206
30364,41219
30330,41235
30303,41256
30285,41280
30274,41309
30271,41342
30275,41380
30281,41405
30288,41424
30298,41446
30308,41462
30326,41490
30779,41490
30796,41463
30812,41432
30823,41399
30827,41365
30826,41333
30819,41305
30812,41292
30795,41269
30773,41250
30745,41234
30709,41220
30665,41209
30663,41208
30639,41204
30608,41201
30573,41199
30537,41198
30537,40872
30598,40874
30675,40883
30745,40897
30809,40917
30866,40942
30916,40973
30959,41009
30994,41050
31007,41068
31029,41108
31044,41148
31054,41192
31058,41239
31057,41276
31053,41327
31044,41371
31031,41410
31013,41445
30999,41464
30991,41476
30985,41484
30983,41487
30987,41488
30999,41489
31018,41489
31043,41489
31072,41489
31104,41489
31139,41489
31175,41489
31211,41489
31247,41489
31280,41488
31311,41488
31337,41487
31359,41486
31374,41486
31376,41486
31404,41483
31426,41478
31444,41471
31463,41461
31466,41458
31481,41449
31481,41805
30818,41805
Z" /> 
<path style="fill:#000000; fill-opacity:1.0; 
stroke:#000000; stroke-width:3.93701; stroke-opacity:1; 
stroke-linecap:round; stroke-linejoin:round;fill-rule:evenodd;"
d="M 31056,40422
31048,40482
31035,40535
31016,40582
30992,40623
30967,40654
30938,40681
30906,40702
30870,40719
30853,40725
30838,40730
30823,40735
30810,40739
30795,40742
30780,40745
30763,40747
30744,40749
30721,40750
30694,40752
30663,40753
30626,40753
30584,40754
30534,40755
30477,40755
30421,40756
30359,40756
30306,40757
30260,40757
30222,40758
30189,40758
30162,40759
30141,40760
30123,40761
30109,40763
30098,40765
30090,40767
30083,40770
30077,40773
30072,40777
30067,40781
30064,40783
30055,40789
30049,40792
30049,40792
30048,40788
30047,40775
30047,40756
30046,40731
30046,40701
30045,40667
30045,40630
30045,40625
30045,40459
30083,40458
30121,40456
30101,40432
30074,40393
30053,40350
30041,40316
30035,40289
30031,40256
30029,40221
30029,40186
30032,40155
30034,40141
30049,40086
30070,40036
30098,39992
30132,39954
30172,39922
30217,39897
30267,39880
30289,39875
30314,39872
30343,39871
30356,39870
30358,39870
30358,40170
30328,40173
30303,40184
30281,40204
30279,40206
30266,40225
30257,40245
30252,40269
30251,40298
30251,40306
30252,40327
30254,40343
30258,40356
30265,40372
30267,40376
30281,40400
30298,40418
30304,40423
30326,40441
30403,40441
30434,40440
30457,40440
30472,40439
30481,40437
30484,40435
30485,40429
30486,40416
30487,40397
30487,40375
30487,40372
30485,40324
30479,40284
30468,40250
30452,40221
30433,40200
30411,40182
30386,40173
30358,40170
30358,39870
30393,39871
30424,39875
30452,39881
30480,39891
30501,39900
30538,39924
30573,39954
30604,39992
30631,40035
30654,40083
30670,40135
30676,40161
30685,40214
30691,40273
30693,40332
30693,40382
30690,40446
30713,40443
30752,40435
30784,40423
30809,40406
30827,40383
30838,40355
30843,40321
30843,40280
30841,40265
30831,40210
30815,40156
30800,40118
30792,40101
30786,40086
30782,40075
30782,40072
30785,40068
30797,40062
30816,40052
30843,40040
30879,40025
30885,40022
30914,40010
30939,40000
30961,39991
30978,39984
30989,39980
30992,39979
30994,39983
30996,39993
30998,40004
31000,40016
31003,40035
31009,40059
31015,40086
31022,40116
31025,40127
31035,40169
31043,40203
31049,40233
31053,40259
31056,40283
31058,40307
31058,40333
31059,40355
31056,40422
Z" /> 
<path style="fill:#000000; fill-opacity:1.0; 
stroke:#000000; stroke-width:3.93701; stroke-opacity:1; 
stroke-linecap:round; stroke-linejoin:round;fill-rule:evenodd;"
d="M 31417,39499
31409,39562
31393,39626
31370,39693
31338,39763
31336,39768
31325,39790
31316,39811
31308,39827
31304,39838
31303,39842
31301,39849
31299,39851
31295,39849
31285,39843
31269,39833
31250,39820
31227,39805
31203,39789
31178,39772
31153,39755
31129,39739
31108,39725
31090,39712
31077,39703
31069,39697
31068,39696
31070,39692
31077,39684
31088,39672
31093,39665
31123,39627
31145,39585
31158,39540
31164,39492
31164,39464
31157,39417
31143,39374
31121,39335
31092,39301
31055,39271
31010,39246
30976,39231
30923,39214
30865,39201
30804,39193
30741,39189
30678,39190
30616,39195
30557,39205
30503,39218
30454,39237
30441,39243
30396,39270
30358,39301
30327,39338
30304,39377
30289,39421
30281,39467
30281,39483
30285,39531
30298,39579
30319,39625
30349,39670
30380,39706
30397,39724
30280,39795
30251,39813
30224,39829
30201,39843
30181,39855
30167,39863
30159,39868
30158,39868
30154,39865
30148,39855
30138,39839
30127,39819
30116,39796
30103,39772
30091,39747
30080,39722
30070,39700
30062,39681
30059,39672
30044,39619
30034,39565
30029,39507
30028,39457
30028,39430
30029,39404
30030,39382
30032,39365
30032,39359
30044,39304
30062,39249
30085,39194
30112,39145
30133,39114
30175,39064
30225,39017
30281,38975
30342,38938
30406,38908
30452,38890
30524,38871
30601,38857
30680,38851
30760,38851
30840,38857
30917,38871
30990,38890
30995,38892
31059,38917
31117,38947
31171,38983
31223,39028
31241,39045
31290,39099
31330,39154
31363,39211
31387,39272
31405,39336
31412,39374
31418,39437
31417,39499
Z" /> 
<path style="fill:#000000; fill-opacity:1.0; 
stroke:#000000; stroke-width:3.93701; stroke-opacity:1; 
stroke-linecap:round; stroke-linejoin:round;fill-rule:evenodd;"
d="M 31598,38210
31553,38214
31511,38226
31472,38246
31437,38273
31408,38307
31385,38345
31370,38387
31362,38429
31363,38471
31370,38511
31385,38549
31405,38584
31432,38615
31463,38641
31499,38662
31539,38677
31582,38684
31602,38685
31636,38685
31636,38706
31635,38720
31631,38730
31621,38741
31606,38756
30743,38756
30640,38756
30545,38756
30459,38756
30380,38756
30309,38756
30244,38756
30187,38756
30135,38756
30090,38756
30050,38755
30015,38755
29986,38755
29960,38755
29939,38754
29921,38754
29907,38753
29895,38753
29886,38752
29880,38751
29875,38751
29872,38750
29870,38749
29869,38749
29866,38747
29864,38746
29861,38744
29859,38742
29857,38739
29856,38735
29854,38730
29853,38722
29851,38712
29850,38700
29849,38684
29848,38665
29848,38643
29847,38616
29847,38585
29846,38549
29846,38507
29846,38460
29846,38408
29845,38349
29845,38283
29845,38210
29845,38130
29845,38042
29845,37946
29845,37841
29845,37826
29845,37721
29845,37625
29845,37536
29846,37456
29846,37382
29846,37316
29846,37257
29846,37204
29846,37157
29846,37116
29847,37079
29847,37048
29847,37022
29848,36999
29848,36980
29849,36965
29849,36953
29850,36944
29850,36937
29851,36932
29852,36928
29852,36927
29854,36923
29855,36920
29856,36917
29857,36915
29859,36913
29863,36910
29867,36909
29874,36907
29883,36905
29894,36904
29908,36903
29926,36902
29947,36901
29973,36901
30002,36900
30037,36900
30077,36899
30122,36899
30173,36899
30230,36899
30294,36898
30365,36898
30443,36898
30530,36898
30624,36898
30726,36898
30743,36898
30846,36898
30941,36898
31028,36898
31107,36898
31179,36898
31244,36899
31301,36899
31353,36899
31396,36899
31396,37018
31374,37034
31367,37038
31362,37042
31357,37046
31351,37049
31345,37052
31338,37054
31329,37056
31318,37058
31304,37060
31287,37061
31267,37062
31243,37063
31215,37064
31181,37064
31143,37065
31098,37065
31047,37065
30990,37065
30925,37065
30852,37065
30771,37065
30723,37065
30638,37065
30561,37065
30492,37065
30430,37065
30376,37065
30328,37065
30286,37065
30249,37064
30218,37064
30192,37063
30170,37062
30151,37061
30136,37059
30123,37058
30113,37056
30105,37053
30098,37051
30093,37048
30087,37045
30082,37041
30076,37037
30072,37034
30050,37019
30050,37228
30050,37277
30050,37317
30050,37350
30050,37376
30051,37396
30051,37411
30052,37422
30053,37428
30054,37431
30055,37432
30057,37431
30058,37431
30072,37421
30093,37411
30117,37401
30128,37398
30135,37396
30143,37395
30153,37393
30167,37392
30184,37392
30205,37391
30232,37390
30265,37390
30304,37389
30352,37389
30370,37389
30419,37388
30460,37388
30494,37388
30521,37388
30541,37388
30557,37388
30567,37389
30574,37390
30578,37391
30579,37392
30578,37394
30576,37395
30571,37399
30560,37408
30543,37421
30521,37437
30496,37456
30467,37477
30437,37499
30405,37523
30372,37546
30340,37570
30309,37592
30281,37613
30255,37632
30232,37648
30215,37661
30202,37669
30200,37671
30185,37680
30166,37691
30147,37701
30144,37702
30125,37711
30110,37716
30096,37718
30080,37718
30050,37718
30050,38172
30087,38137
30106,38118
30129,38098
30150,38080
30160,38072
30175,38060
30196,38044
30222,38025
30252,38003
30285,37979
30321,37953
30359,37925
30399,37896
30440,37867
30481,37837
30521,37808
30561,37780
30598,37753
30634,37728
30666,37705
30695,37684
30720,37667
30740,37653
30754,37644
30762,37639
30764,37638
30768,37641
30779,37649
30795,37662
30816,37679
30842,37699
30871,37722
30903,37747
30937,37775
30972,37803
31009,37832
31038,37856
31038,38254
31033,38256
31024,38262
31024,38262
31012,38270
30997,38278
30994,38279
30991,38280
30987,38282
30982,38283
30975,38284
30965,38285
30953,38285
30938,38286
30918,38286
30894,38287
30865,38287
30831,38287
30790,38288
30742,38288
30688,38288
30625,38288
30555,38289
30482,38289
30417,38289
30360,38289
30311,38289
30268,38289
30231,38289
30200,38288
30174,38288
30153,38287
30135,38286
30121,38284
30109,38283
30100,38281
30093,38278
30086,38275
30081,38272
30075,38269
30070,38265
30060,38258
30053,38254
30052,38254
30051,38258
30051,38271
30051,38290
30050,38316
30050,38346
30050,38382
30050,38420
30050,38447
30050,38489
30050,38527
30050,38561
30051,38590
30052,38613
30052,38630
30053,38639
30054,38641
30060,38638
30063,38635
30069,38629
30081,38623
30091,38618
30114,38607
30578,38606
31041,38605
31041,38429
31041,38391
31041,38355
31040,38324
31040,38297
31039,38276
31039,38261
31038,38254
31038,38254
31038,37856
31046,37862
31082,37891
31117,37920
31151,37947
31181,37972
31209,37994
31233,38014
31253,38030
31261,38037
31300,38071
31333,38101
31360,38128
31381,38153
31384,38156
31396,38172
31396,37726
31378,37728
31355,37727
31328,37719
31297,37703
31268,37685
31259,37679
31245,37668
31225,37652
31201,37634
31173,37613
31144,37590
31112,37565
31080,37540
31047,37515
31016,37490
30986,37467
30959,37446
30936,37427
30916,37411
30902,37399
30893,37392
30892,37391
30895,37390
30907,37389
30928,37389
30957,37388
30994,37388
31040,37388
31088,37389
31140,37389
31184,37390
31220,37390
31251,37392
31276,37393
31297,37395
31314,37397
31328,37400
31340,37404
31351,37409
31362,37415
31372,37421
31396,37436
31396,37018
31396,36899
31399,36899
31439,36899
31474,36900
31504,36900
31530,36901
31552,36902
31570,36903
31584,36903
31596,36905
31605,36906
31612,36907
31617,36909
31621,36911
31623,36913
31625,36915
31626,36918
31628,36920
31629,36923
31630,36925
31631,36928
31632,36933
31633,36939
31633,36949
31634,36961
31634,36976
31635,36996
31635,37019
31635,37047
31636,37080
31636,37119
31636,37163
31636,37214
31636,37271
31636,37336
31636,37408
31636,37489
31636,37572
31636,38210
31598,38210
Z" /> 
<path style="fill:#000000; fill-opacity:1.0; 
stroke:#000000; stroke-width:3.93701; stroke-opacity:1; 
stroke-linecap:round; stroke-linejoin:round;fill-rule:evenodd;"
d="M 29714,41822
29705,41834
29695,41845
29573,41845
29537,41845
29508,41845
29487,41845
29471,41844
29459,41843
29451,41842
29446,41840
29442,41838
29439,41836
29430,41824
29428,41810
29434,41797
29438,41793
29443,41790
29450,41789
29462,41788
29480,41787
29494,41787
29548,41787
29548,41592
29499,41592
29477,41592
29462,41591
29452,41589
29444,41586
29439,41583
29430,41570
29428,41557
29435,41543
29439,41540
29444,41537
29451,41536
29463,41535
29480,41534
29504,41534
29510,41534
29556,41534
29593,41534
29624,41534
29648,41534
29667,41534
29680,41535
29690,41536
29697,41537
29702,41539
29705,41541
29708,41543
29715,41555
29714,41569
29705,41581
29700,41586
29694,41589
29685,41591
29671,41592
29651,41592
29605,41592
29605,41787
29652,41787
29673,41788
29688,41788
29697,41790
29704,41793
29708,41796
29715,41809
29714,41822
Z" /> 
<path style="fill:#000000; fill-opacity:1.0; 
stroke:#000000; stroke-width:3.93701; stroke-opacity:1; 
stroke-linecap:round; stroke-linejoin:round;fill-rule:evenodd;"
d="M 29716,41324
29716,41355
29716,41379
29715,41397
29715,41410
29713,41419
29712,41425
29710,41429
29709,41431
29696,41441
29683,41442
29670,41436
29666,41432
29662,41428
29660,41421
29659,41411
29659,41396
29659,41374
29659,41369
29659,41312
29552,41312
29518,41312
29492,41312
29473,41311
29459,41310
29450,41309
29444,41308
29440,41306
29436,41303
29429,41290
29429,41276
29438,41264
29439,41263
29443,41260
29448,41258
29455,41256
29465,41255
29479,41255
29499,41254
29525,41254
29555,41254
29659,41254
29659,41199
29659,41176
29659,41159
29661,41149
29663,41142
29666,41137
29667,41137
29680,41130
29695,41131
29708,41138
29710,41141
29712,41145
29714,41151
29715,41159
29715,41171
29716,41188
29716,41210
29716,41240
29716,41277
29716,41285
29716,41324
Z" /> 
<path style="fill:#000000; fill-opacity:1.0; 
stroke:#000000; stroke-width:3.93701; stroke-opacity:1; 
stroke-linecap:round; stroke-linejoin:round;fill-rule:evenodd;"
d="M 29714,41019
29708,41028
29699,41038
29573,41038
29536,41038
29507,41038
29484,41038
29468,41037
29456,41037
29448,41035
29442,41034
29439,41032
29437,41030
29429,41018
29429,41004
29436,40991
29445,40981
29699,40981
29708,40991
29714,41001
29716,41010
29714,41019
Z" /> 
<path style="fill:#000000; fill-opacity:1.0; 
stroke:#000000; stroke-width:3.93701; stroke-opacity:1; 
stroke-linecap:round; stroke-linejoin:round;fill-rule:evenodd;"
d="M 29716,40844
29713,40852
29713,40852
29705,40862
29697,40868
29693,40869
29688,40869
29680,40868
29670,40864
29656,40858
29636,40850
29611,40839
29579,40824
29562,40816
29531,40802
29502,40789
29478,40776
29457,40766
29442,40759
29434,40754
29433,40753
29428,40741
29429,40727
29435,40716
29435,40715
29442,40711
29455,40703
29473,40694
29493,40683
29501,40680
29558,40651
29496,40619
29474,40608
29455,40598
29441,40589
29432,40583
29430,40581
29428,40564
29433,40551
29439,40547
29451,40540
29469,40530
29492,40519
29518,40507
29545,40494
29574,40481
29602,40469
29628,40457
29651,40447
29670,40440
29684,40434
29691,40433
29691,40433
29700,40437
29709,40446
29709,40446
29715,40457
29715,40467
29714,40471
29711,40475
29707,40480
29698,40485
29686,40493
29668,40502
29643,40513
29621,40524
29595,40536
29571,40547
29552,40556
29537,40562
29529,40566
29528,40567
29530,40569
29538,40575
29553,40583
29571,40592
29579,40596
29604,40609
29623,40619
29636,40627
29644,40633
29648,40639
29650,40646
29650,40650
29649,40657
29646,40664
29641,40670
29631,40677
29615,40686
29593,40697
29581,40704
29561,40714
29545,40723
29533,40730
29528,40734
29528,40734
29532,40737
29543,40742
29560,40751
29582,40761
29606,40773
29619,40778
29651,40793
29675,40805
29693,40815
29705,40823
29713,40830
29716,40837
29716,40844
Z" /> 
<path style="fill:#000000; fill-opacity:1.0; 
stroke:#000000; stroke-width:3.93701; stroke-opacity:1; 
stroke-linecap:round; stroke-linejoin:round;fill-rule:evenodd;"
d="M 29716,39770
29715,39821
29709,39864
29700,39901
29687,39931
29670,39956
29647,39976
29620,39991
29619,39992
29595,40001
29573,40005
29552,40002
29527,39993
29523,39991
29501,39980
29484,39967
29469,39950
29455,39928
29454,39926
29444,39906
29437,39884
29432,39858
29429,39826
29428,39787
29428,39773
29428,39708
29439,39699
29443,39696
29448,39694
29454,39692
29463,39691
29476,39690
29485,39690
29485,39752
29485,39789
29486,39810
29488,39833
29490,39851
29490,39852
29499,39884
29512,39909
29530,39928
29553,39941
29560,39943
29569,39945
29579,39944
29592,39940
29598,39937
29615,39928
29627,39917
29635,39905
29645,39880
29653,39849
29657,39813
29658,39786
29659,39752
29485,39752
29485,39690
29494,39690
29517,39690
29549,39690
29573,39690
29695,39690
29705,39700
29710,39705
29713,39711
29715,39718
29716,39729
29716,39745
29716,39769
29716,39770
Z" /> 
<path style="fill:#000000; fill-opacity:1.0; 
stroke:#000000; stroke-width:3.93701; stroke-opacity:1; 
stroke-linecap:round; stroke-linejoin:round;fill-rule:evenodd;"
d="M 29716,39460
29716,39490
29715,39513
29714,39530
29711,39542
29708,39550
29703,39554
29697,39556
29689,39556
29688,39556
29679,39556
29672,39554
29667,39550
29663,39542
29661,39529
29659,39511
29658,39487
29658,39455
29658,39445
29656,39350
29631,39348
29605,39347
29605,39413
29605,39439
29605,39457
29604,39470
29602,39478
29600,39483
29597,39487
29597,39487
29583,39494
29569,39494
29557,39487
29556,39485
29552,39480
29550,39473
29549,39463
29548,39447
29548,39425
29548,39411
29548,39347
29485,39347
29485,39444
29485,39477
29485,39501
29485,39519
29484,39531
29482,39539
29481,39545
29478,39548
29477,39549
29465,39555
29451,39556
29438,39550
29434,39546
29432,39542
29431,39535
29429,39525
29428,39511
29428,39491
29428,39464
29428,39430
29428,39422
29428,39387
29428,39360
29428,39340
29429,39325
29430,39315
29431,39308
29433,39304
29435,39300
29437,39299
29440,39296
29445,39294
29450,39292
29459,39291
29472,39290
29489,39290
29513,39290
29544,39290
29570,39290
29606,39290
29635,39290
29657,39290
29673,39291
29684,39291
29692,39293
29698,39295
29702,39297
29705,39299
29716,39308
29716,39422
29716,39460
Z" /> 
<path style="fill:#000000; fill-opacity:1.0; 
stroke:#000000; stroke-width:3.93701; stroke-opacity:1; 
stroke-linecap:round; stroke-linejoin:round;fill-rule:evenodd;"
d="M 29715,38858
29709,38867
29700,38879
29688,38895
29670,38914
29649,38939
29622,38969
29591,39003
29526,39074
29613,39076
29643,39077
29665,39078
29681,39079
29692,39080
29699,39082
29703,39084
29707,39087
29708,39089
29715,39103
29714,39115
29708,39126
29699,39136
29575,39138
29539,39138
29510,39138
29488,39138
29472,39138
29461,39137
29453,39136
29447,39134
29443,39132
29439,39129
29433,39124
29429,39119
29428,39113
29429,39105
29434,39096
29442,39083
29455,39067
29473,39047
29496,39021
29522,38992
29617,38887
29531,38885
29501,38884
29479,38884
29463,38883
29452,38881
29445,38880
29441,38877
29437,38874
29436,38872
29428,38858
29430,38844
29439,38832
29443,38829
29448,38827
29454,38826
29463,38824
29476,38824
29494,38823
29518,38823
29549,38823
29572,38823
29608,38823
29636,38823
29658,38823
29674,38824
29685,38825
29693,38826
29698,38828
29702,38830
29705,38832
29710,38837
29714,38841
29717,38845
29717,38851
29715,38858
Z" /> 
<path style="fill:#000000; fill-opacity:1.0; 
stroke:#000000; stroke-width:3.93701; stroke-opacity:1; 
stroke-linecap:round; stroke-linejoin:round;fill-rule:evenodd;"
d="M 29714,38602
29710,38629
29703,38650
29693,38663
29688,38667
29676,38670
29665,38668
29654,38660
29649,38648
29650,38630
29652,38616
29657,38585
29658,38554
29654,38519
29652,38509
29643,38476
29629,38451
29611,38432
29589,38422
29578,38420
29555,38421
29534,38430
29517,38446
29503,38469
29493,38496
29487,38528
29486,38563
29490,38602
29490,38604
29493,38619
29496,38627
29500,38631
29507,38632
29510,38632
29525,38632
29525,38605
29527,38581
29532,38565
29541,38555
29555,38552
29557,38552
29569,38554
29577,38561
29582,38574
29586,38593
29587,38612
29588,38640
29586,38660
29583,38674
29575,38683
29562,38687
29544,38689
29519,38690
29492,38689
29473,38687
29463,38685
29462,38684
29450,38669
29440,38646
29433,38618
29429,38586
29428,38550
29431,38513
29434,38492
29444,38458
29459,38426
29480,38400
29484,38396
29501,38383
29522,38371
29545,38362
29565,38357
29573,38356
29589,38359
29609,38366
29630,38376
29649,38387
29662,38398
29682,38422
29697,38453
29708,38490
29714,38531
29716,38570
29714,38602
Z" /> 
<path style="fill:#000000; fill-opacity:1.0; 
stroke:#000000; stroke-width:3.93701; stroke-opacity:1; 
stroke-linecap:round; stroke-linejoin:round;fill-rule:evenodd;"
d="M 29708,38218
29705,38221
29701,38223
29695,38225
29686,38226
29674,38227
29656,38227
29632,38227
29602,38227
29572,38227
29535,38227
29506,38227
29484,38227
29467,38226
29456,38226
29448,38224
29442,38223
29439,38221
29436,38218
29429,38205
29429,38192
29438,38179
29441,38176
29445,38174
29450,38172
29458,38171
29470,38170
29487,38170
29509,38170
29538,38170
29571,38170
29695,38170
29705,38180
29715,38194
29715,38207
29708,38218
Z" /> 
<path style="fill:#000000; fill-opacity:1.0; 
stroke:#000000; stroke-width:3.93701; stroke-opacity:1; 
stroke-linecap:round; stroke-linejoin:round;fill-rule:evenodd;"
d="M 29716,37916
29714,37946
29711,37973
29706,37997
29701,38015
29695,38027
29693,38029
29680,38035
29666,38033
29654,38023
29654,38023
29650,38017
29648,38011
29648,38003
29649,37990
29652,37971
29652,37970
29656,37941
29658,37910
29658,37879
29656,37850
29653,37825
29648,37807
29648,37806
29640,37793
29633,37788
29625,37792
29618,37803
29612,37823
29606,37850
29603,37867
29598,37904
29593,37934
29588,37957
29583,37975
29577,37989
29570,38001
29561,38012
29552,38020
29540,38030
29530,38035
29517,38036
29512,38036
29496,38035
29485,38031
29475,38023
29459,38007
29447,37989
29438,37967
29432,37942
29429,37910
29428,37872
29428,37865
29429,37839
29430,37814
29432,37791
29434,37774
29434,37773
29438,37756
29443,37742
29447,37734
29460,37727
29474,37726
29486,37733
29487,37734
29492,37740
29493,37747
29493,37759
29492,37773
29490,37788
29489,37810
29488,37836
29488,37863
29488,37870
29488,37896
29488,37916
29489,37930
29491,37940
29494,37949
29496,37954
29503,37965
29509,37972
29511,37973
29518,37971
29524,37960
29530,37943
29536,37918
29537,37911
29543,37873
29548,37843
29552,37819
29556,37801
29561,37787
29565,37775
29571,37766
29577,37757
29586,37748
29588,37745
29599,37734
29608,37728
29618,37726
29630,37725
29654,37729
29674,37741
29691,37761
29704,37790
29710,37810
29714,37831
29716,37857
29717,37886
29716,37916
Z" /> 
<path style="fill:#000000; fill-opacity:1.0; 
stroke:#000000; stroke-width:3.93701; stroke-opacity:1; 
stroke-linecap:round; stroke-linejoin:round;fill-rule:evenodd;"
d="M 29716,37514
29716,37541
29716,37562
29715,37577
29714,37588
29713,37595
29711,37599
29708,37603
29707,37604
29695,37612
29681,37613
29669,37608
29666,37606
29664,37602
29662,37596
29660,37586
29659,37572
29659,37552
29658,37525
29658,37500
29656,37403
29631,37402
29605,37400
29605,37466
29605,37495
29604,37516
29602,37531
29598,37540
29592,37545
29583,37547
29575,37547
29565,37546
29558,37543
29553,37535
29550,37523
29548,37504
29548,37478
29548,37464
29548,37401
29485,37401
29485,37498
29485,37531
29485,37555
29485,37573
29484,37585
29483,37594
29481,37599
29478,37603
29476,37605
29466,37612
29456,37614
29445,37611
29436,37605
29434,37602
29432,37598
29430,37592
29429,37583
29428,37570
29428,37552
29428,37527
29428,37495
29428,37478
29428,37443
29428,37415
29428,37394
29429,37379
29430,37368
29431,37361
29433,37356
29435,37353
29436,37352
29439,37349
29443,37347
29449,37346
29458,37345
29470,37344
29488,37343
29512,37343
29543,37343
29571,37343
29608,37343
29637,37343
29659,37343
29675,37344
29687,37345
29694,37346
29700,37347
29703,37350
29706,37352
29707,37353
29710,37357
29712,37361
29714,37366
29715,37375
29716,37387
29716,37404
29716,37427
29716,37457
29716,37479
29716,37514
Z" /> 
<path style="fill:#000000; fill-opacity:1.0; 
stroke:#000000; stroke-width:3.93701; stroke-opacity:1; 
stroke-linecap:round; stroke-linejoin:round;fill-rule:evenodd;"
d="M 29716,36960
29716,36975
29715,37021
29712,37059
29706,37091
29697,37118
29686,37142
29670,37163
29663,37171
29648,37184
29627,37195
29603,37204
29580,37209
29572,37210
29549,37206
29524,37198
29500,37186
29480,37171
29478,37169
29462,37149
29449,37127
29440,37102
29433,37073
29429,37037
29428,36995
29428,36976
29428,36952
29428,36934
29429,36923
29431,36915
29434,36910
29436,36907
29439,36905
29443,36903
29449,36901
29458,36900
29470,36899
29488,36899
29511,36899
29542,36898
29572,36898
29612,36898
29643,36898
29659,36899
29659,36956
29485,36956
29485,36993
29486,37015
29488,37038
29490,37057
29490,37058
29497,37089
29509,37113
29526,37132
29544,37143
29564,37151
29583,37150
29603,37142
29624,37125
29639,37103
29650,37073
29653,37054
29656,37031
29658,37008
29659,36987
29659,36986
29659,36956
29659,36899
29668,36899
29686,36901
29700,36904
29708,36909
29713,36917
29716,36927
29717,36942
29716,36960
Z" /> 
</g>
<g style="fill:#000000; fill-opacity:0.0; 
stroke:#000000; stroke-width:3.93701; stroke-opacity:1; 
stroke-linecap:round; stroke-linejoin:round;">
</g>
<g style="fill:#000000; fill-opacity:0.0; 
stroke:#000000; stroke-width:59.0551; stroke-opacity:1; 
stroke-linecap:round; stroke-linejoin:round;">
<path d="M44248 29757
L44530 29757
L44586 29775
L44623 29813
L44642 29869
L44642 29907
" />
<path d="M44417 29513
L44398 29550
L44380 29569
L44342 29588
L44323 29588
L44286 29569
L44267 29550
L44248 29513
L44248 29438
L44267 29401
L44286 29382
L44323 29363
L44342 29363
L44380 29382
L44398 29401
L44417 29438
L44417 29513
L44436 29550
L44455 29569
L44492 29588
L44567 29588
L44605 29569
L44623 29550
L44642 29513
L44642 29438
L44623 29401
L44605 29382
L44567 29363
L44492 29363
L44455 29382
L44436 29401
L44417 29438
" />
<path d="M39276 39548
L39276 39154
L39370 39154
L39426 39173
L39463 39210
L39482 39248
L39501 39323
L39501 39379
L39482 39454
L39463 39491
L39426 39529
L39370 39548
L39276 39548
" />
<path d="M39857 39154
L39670 39154
L39651 39341
L39670 39323
L39707 39304
L39801 39304
L39838 39323
L39857 39341
L39876 39379
L39876 39473
L39857 39510
L39838 39529
L39801 39548
L39707 39548
L39670 39529
L39651 39510
" />
<path d="M40949 39534
L41137 39534
" />
<path d="M40912 39646
L41043 39252
L41174 39646
" />
<path d="M42571 43902
L42890 43902
L42928 43883
L42946 43864
L42965 43827
L42965 43752
L42946 43714
L42928 43696
L42890 43677
L42571 43677
" />
<path d="M42571 43302
L42571 43489
L42759 43508
L42740 43489
L42721 43452
L42721 43358
L42740 43321
L42759 43302
L42796 43283
L42890 43283
L42928 43302
L42946 43321
L42965 43358
L42965 43452
L42946 43489
L42928 43508
" />
<path d="M35737 35437
L36055 35437
L36093 35419
L36112 35400
L36130 35362
L36130 35287
L36112 35250
L36093 35231
L36055 35212
L35737 35212
" />
<path d="M35868 34856
L36130 34856
" />
<path d="M35718 34950
L35999 35044
L35999 34800
" />
<path d="M33802 36792
L33670 36604
" />
<path d="M33577 36792
L33577 36398
L33727 36398
L33764 36417
L33783 36436
L33802 36473
L33802 36529
L33783 36567
L33764 36586
L33727 36604
L33577 36604
" />
<path d="M34176 36792
L33952 36792
" />
<path d="M34064 36792
L34064 36398
L34026 36454
L33989 36492
L33952 36511
" />
<path d="M34420 36398
L34458 36398
L34495 36417
L34514 36436
L34533 36473
L34551 36548
L34551 36642
L34533 36717
L34514 36754
L34495 36773
L34458 36792
L34420 36792
L34383 36773
L34364 36754
L34345 36717
L34326 36642
L34326 36548
L34345 36473
L34364 36436
L34383 36417
L34420 36398
" />
<path d="M33802 42315
L33670 42128
" />
<path d="M33577 42315
L33577 41922
L33727 41922
L33764 41940
L33783 41959
L33802 41997
L33802 42053
L33783 42090
L33764 42109
L33727 42128
L33577 42128
" />
<path d="M34176 42315
L33952 42315
" />
<path d="M34064 42315
L34064 41922
L34026 41978
L33989 42015
L33952 42034
" />
<path d="M34551 42315
L34326 42315
" />
<path d="M34439 42315
L34439 41922
L34401 41978
L34364 42015
L34326 42034
" />
<path d="M35475 42689
L35494 42707
L35512 42764
L35512 42801
L35494 42857
L35456 42895
L35419 42914
L35344 42932
L35287 42932
L35212 42914
L35175 42895
L35137 42857
L35119 42801
L35119 42764
L35137 42707
L35156 42689
" />
<path d="M35512 42314
L35512 42539
" />
<path d="M35512 42426
L35119 42426
L35175 42464
L35212 42501
L35231 42539
" />
<path d="M35119 41976
L35119 42051
L35137 42089
L35156 42107
L35212 42145
L35287 42164
L35437 42164
L35475 42145
L35494 42126
L35512 42089
L35512 42014
L35494 41976
L35475 41957
L35437 41939
L35344 41939
L35306 41957
L35287 41976
L35269 42014
L35269 42089
L35287 42126
L35306 42145
L35344 42164
" />
<path d="M52274 40148
L52461 40148
" />
<path d="M52067 40279
L52274 40148
L52067 40016
" />
<path d="M52461 39679
L52461 39904
" />
<path d="M52461 39791
L52067 39791
L52124 39829
L52161 39866
L52180 39904
" />
<path d="M38812 40532
L38681 40344
" />
<path d="M38587 40532
L38587 40138
L38737 40138
L38774 40157
L38793 40176
L38812 40213
L38812 40269
L38793 40307
L38774 40326
L38737 40344
L38587 40344
" />
<path d="M39168 40138
L38981 40138
L38962 40326
L38981 40307
L39018 40288
L39112 40288
L39149 40307
L39168 40326
L39187 40363
L39187 40457
L39168 40494
L39149 40513
L39112 40532
L39018 40532
L38981 40513
L38962 40494
" />
<path d="M41713 39927
L41526 40059
" />
<path d="M41713 40152
L41319 40152
L41319 40002
L41338 39965
L41357 39946
L41394 39927
L41451 39927
L41488 39946
L41507 39965
L41526 40002
L41526 40152
" />
<path d="M41451 39590
L41713 39590
" />
<path d="M41301 39684
L41582 39777
L41582 39534
" />
<path d="M38812 38662
L38681 38474
" />
<path d="M38587 38662
L38587 38268
L38737 38268
L38774 38287
L38793 38306
L38812 38343
L38812 38399
L38793 38437
L38774 38456
L38737 38474
L38587 38474
" />
<path d="M38943 38268
L39187 38268
L39056 38418
L39112 38418
L39149 38437
L39168 38456
L39187 38493
L39187 38587
L39168 38624
L39149 38643
L39112 38662
L38999 38662
L38962 38643
L38943 38624
" />
<path d="M30938 29372
L30919 29391
L30863 29410
L30825 29410
L30769 29391
L30732 29354
L30713 29316
L30694 29241
L30694 29185
L30713 29110
L30732 29072
L30769 29035
L30825 29016
L30863 29016
L30919 29035
L30938 29054
" />
<path d="M31069 29016
L31313 29016
L31182 29166
L31238 29166
L31275 29185
L31294 29204
L31313 29241
L31313 29335
L31294 29372
L31275 29391
L31238 29410
L31125 29410
L31088 29391
L31069 29372
" />
<path d="M31969 39670
L32288 39670
L32325 39651
L32344 39632
L32363 39595
L32363 39520
L32344 39482
L32325 39463
L32288 39445
L31969 39445
" />
<path d="M31969 39295
L31969 39051
L32119 39182
L32119 39126
L32138 39088
L32156 39070
L32194 39051
L32288 39051
L32325 39070
L32344 39088
L32363 39126
L32363 39238
L32344 39276
L32325 39295
" />
<path d="M28979 28524
L28979 28130
L29204 28524
L29204 28130
" />
<path d="M29335 28130
L29560 28130
" />
<path d="M29447 28524
L29447 28130
" />
<path d="M29897 28524
L29672 28524
" />
<path d="M29785 28524
L29785 28130
L29747 28187
L29710 28224
L29672 28243
" />
<path d="M24995 27363
L24995 26969
" />
<path d="M24995 27156
L25220 27156
" />
<path d="M25220 27363
L25220 26969
" />
<path d="M25613 27363
L25389 27363
" />
<path d="M25501 27363
L25501 26969
L25464 27025
L25426 27063
L25389 27081
" />
<path d="M56294 51752
L56294 51359
" />
<path d="M56294 51546
L56519 51546
" />
<path d="M56519 51752
L56519 51359
" />
<path d="M56669 51359
L56913 51359
L56781 51509
L56838 51509
L56875 51527
L56894 51546
L56913 51584
L56913 51677
L56894 51715
L56875 51734
L56838 51752
L56725 51752
L56688 51734
L56669 51715
" />
<path d="M24995 51752
L24995 51359
" />
<path d="M24995 51546
L25220 51546
" />
<path d="M25220 51752
L25220 51359
" />
<path d="M25576 51490
L25576 51752
" />
<path d="M25482 51340
L25389 51621
L25632 51621
" />
<path d="M35526 27363
L35526 26969
" />
<path d="M35526 27156
L35751 27156
" />
<path d="M35751 27363
L35751 26969
" />
<path d="M35901 26969
L36164 26969
L35995 27363
" />
<path d="M42613 27363
L42613 26969
" />
<path d="M42613 27156
L42838 27156
" />
<path d="M42838 27363
L42838 26969
" />
<path d="M43082 27138
L43044 27119
L43025 27100
L43007 27063
L43007 27044
L43025 27006
L43044 26988
L43082 26969
L43157 26969
L43194 26988
L43213 27006
L43232 27044
L43232 27063
L43213 27100
L43194 27119
L43157 27138
L43082 27138
L43044 27156
L43025 27175
L43007 27213
L43007 27288
L43025 27325
L43044 27344
L43082 27363
L43157 27363
L43194 27344
L43213 27325
L43232 27288
L43232 27213
L43213 27175
L43194 27156
L43157 27138
" />
<path d="M35526 51752
L35526 51359
" />
<path d="M35526 51546
L35751 51546
" />
<path d="M35751 51752
L35751 51359
" />
<path d="M35958 51752
L36032 51752
L36070 51734
L36089 51715
L36126 51659
L36145 51584
L36145 51434
L36126 51396
L36107 51377
L36070 51359
L35995 51359
L35958 51377
L35939 51396
L35920 51434
L35920 51527
L35939 51565
L35958 51584
L35995 51602
L36070 51602
L36107 51584
L36126 51565
L36145 51527
" />
<path d="M42425 51752
L42425 51359
" />
<path d="M42425 51546
L42650 51546
" />
<path d="M42650 51752
L42650 51359
" />
<path d="M43044 51752
L42819 51752
" />
<path d="M42932 51752
L42932 51359
L42894 51415
L42857 51452
L42819 51471
" />
<path d="M43288 51359
L43325 51359
L43363 51377
L43382 51396
L43400 51434
L43419 51509
L43419 51602
L43400 51677
L43382 51715
L43363 51734
L43325 51752
L43288 51752
L43250 51734
L43232 51715
L43213 51677
L43194 51602
L43194 51509
L43213 51434
L43232 51396
L43250 51377
L43288 51359
" />
<path d="M56294 27363
L56294 26969
" />
<path d="M56294 27156
L56519 27156
" />
<path d="M56519 27363
L56519 26969
" />
<path d="M56688 27006
L56706 26988
L56744 26969
L56838 26969
L56875 26988
L56894 27006
L56913 27044
L56913 27081
L56894 27138
L56669 27363
L56913 27363
" />
<path d="M35967 40396
L35948 40415
L35892 40434
L35854 40434
L35798 40415
L35761 40377
L35742 40340
L35723 40265
L35723 40209
L35742 40134
L35761 40096
L35798 40059
L35854 40040
L35892 40040
L35948 40059
L35967 40077
" />
<path d="M36342 40434
L36117 40434
" />
<path d="M36229 40434
L36229 40040
L36192 40096
L36154 40134
L36117 40152
" />
<path d="M36679 40171
L36679 40434
" />
<path d="M36586 40021
L36492 40302
L36736 40302
" />
<path d="M45111 36853
L45092 36871
L45036 36890
L44999 36890
L44942 36871
L44905 36834
L44886 36796
L44867 36721
L44867 36665
L44886 36590
L44905 36553
L44942 36515
L44999 36497
L45036 36497
L45092 36515
L45111 36534
" />
<path d="M45242 36497
L45505 36497
L45336 36890
" />
<path d="M45111 37443
L45092 37462
L45036 37481
L44999 37481
L44942 37462
L44905 37425
L44886 37387
L44867 37312
L44867 37256
L44886 37181
L44905 37143
L44942 37106
L44999 37087
L45036 37087
L45092 37106
L45111 37125
" />
<path d="M45336 37256
L45299 37237
L45280 37218
L45261 37181
L45261 37162
L45280 37125
L45299 37106
L45336 37087
L45411 37087
L45449 37106
L45467 37125
L45486 37162
L45486 37181
L45467 37218
L45449 37237
L45411 37256
L45336 37256
L45299 37275
L45280 37293
L45261 37331
L45261 37406
L45280 37443
L45299 37462
L45336 37481
L45411 37481
L45449 37462
L45467 37443
L45486 37406
L45486 37331
L45467 37293
L45449 37275
L45411 37256
" />
<path d="M46012 43223
L45993 43242
L45937 43260
L45899 43260
L45843 43242
L45805 43204
L45787 43167
L45768 43092
L45768 43035
L45787 42960
L45805 42923
L45843 42885
L45899 42867
L45937 42867
L45993 42885
L46012 42904
" />
<path d="M46199 43260
L46274 43260
L46312 43242
L46330 43223
L46368 43167
L46387 43092
L46387 42942
L46368 42904
L46349 42885
L46312 42867
L46237 42867
L46199 42885
L46180 42904
L46162 42942
L46162 43035
L46180 43073
L46199 43092
L46237 43110
L46312 43110
L46349 43092
L46368 43073
L46387 43035
" />
<path d="M46006 40902
L46025 40921
L46044 40977
L46044 41015
L46025 41071
L45988 41108
L45950 41127
L45875 41146
L45819 41146
L45744 41127
L45706 41108
L45669 41071
L45650 41015
L45650 40977
L45669 40921
L45688 40902
" />
<path d="M46044 40527
L46044 40752
" />
<path d="M46044 40640
L45650 40640
L45706 40677
L45744 40715
L45763 40752
" />
<path d="M45650 40284
L45650 40246
L45669 40209
L45688 40190
L45725 40171
L45800 40152
L45894 40152
L45969 40171
L46006 40190
L46025 40209
L46044 40246
L46044 40284
L46025 40321
L46006 40340
L45969 40359
L45894 40377
L45800 40377
L45725 40359
L45688 40340
L45669 40321
L45650 40284
" />
<path d="M52305 42069
L52287 42088
L52230 42107
L52193 42107
L52137 42088
L52099 42050
L52080 42013
L52062 41938
L52062 41882
L52080 41807
L52099 41769
L52137 41732
L52193 41713
L52230 41713
L52287 41732
L52305 41751
" />
<path d="M52680 42107
L52455 42107
" />
<path d="M52568 42107
L52568 41713
L52530 41769
L52493 41807
L52455 41826
" />
<path d="M53055 42107
L52830 42107
" />
<path d="M52943 42107
L52943 41713
L52905 41769
L52868 41807
L52830 41826
" />
<path d="M52305 36951
L52287 36970
L52230 36989
L52193 36989
L52137 36970
L52099 36932
L52080 36895
L52062 36820
L52062 36764
L52080 36689
L52099 36651
L52137 36614
L52193 36595
L52230 36595
L52287 36614
L52305 36632
" />
<path d="M52680 36989
L52455 36989
" />
<path d="M52568 36989
L52568 36595
L52530 36651
L52493 36689
L52455 36707
" />
<path d="M52830 36632
L52849 36614
L52887 36595
L52980 36595
L53018 36614
L53037 36632
L53055 36670
L53055 36707
L53037 36764
L52812 36989
L53055 36989
" />
<path d="M52475 38525
L52494 38544
L52512 38600
L52512 38638
L52494 38694
L52456 38731
L52419 38750
L52344 38769
L52287 38769
L52212 38750
L52175 38731
L52137 38694
L52119 38638
L52119 38600
L52137 38544
L52156 38525
" />
<path d="M52512 38150
L52512 38375
" />
<path d="M52512 38263
L52119 38263
L52175 38300
L52212 38338
L52231 38375
" />
<path d="M52119 38019
L52119 37775
L52269 37907
L52269 37850
L52287 37813
L52306 37794
L52344 37775
L52437 37775
L52475 37794
L52494 37813
L52512 37850
L52512 37963
L52494 38000
L52475 38019
" />
<path d="M52404 41305
L52423 41324
L52441 41380
L52441 41418
L52423 41474
L52385 41511
L52348 41530
L52273 41549
L52216 41549
L52141 41530
L52104 41511
L52066 41474
L52048 41418
L52048 41380
L52066 41324
L52085 41305
" />
<path d="M52048 40968
L52048 41043
L52066 41080
L52085 41099
L52141 41137
L52216 41155
L52366 41155
L52404 41137
L52423 41118
L52441 41080
L52441 41005
L52423 40968
L52404 40949
L52366 40930
L52273 40930
L52235 40949
L52216 40968
L52198 41005
L52198 41080
L52216 41118
L52235 41137
L52273 41155
" />
<path d="M35967 38624
L35948 38643
L35892 38662
L35854 38662
L35798 38643
L35761 38606
L35742 38568
L35723 38493
L35723 38437
L35742 38362
L35761 38324
L35798 38287
L35854 38268
L35892 38268
L35948 38287
L35967 38306
" />
<path d="M36342 38662
L36117 38662
" />
<path d="M36229 38662
L36229 38268
L36192 38324
L36154 38362
L36117 38381
" />
<path d="M36698 38268
L36511 38268
L36492 38456
L36511 38437
L36548 38418
L36642 38418
L36679 38437
L36698 38456
L36717 38493
L36717 38587
L36698 38624
L36679 38643
L36642 38662
L36548 38662
L36511 38643
L36492 38624
" />
<path d="M27029 41765
L27048 41708
L27048 41615
L27029 41577
L27010 41558
L26973 41540
L26935 41540
L26898 41558
L26879 41577
L26860 41615
L26841 41690
L26823 41727
L26804 41746
L26766 41765
L26729 41765
L26691 41746
L26673 41727
L26654 41690
L26654 41596
L26673 41540
" />
<path d="M26654 41408
L27048 41315
L26766 41240
L27048 41165
L26654 41071
" />
<path d="M27048 40715
L27048 40940
" />
<path d="M27048 40827
L26654 40827
L26710 40865
L26748 40902
L26766 40940
" />
<path d="M26148 48190
L26204 48209
L26298 48209
L26335 48190
L26354 48172
L26373 48134
L26373 48097
L26354 48059
L26335 48040
L26298 48022
L26223 48003
L26185 47984
L26167 47965
L26148 47928
L26148 47890
L26167 47853
L26185 47834
L26223 47815
L26317 47815
L26373 47834
" />
<path d="M26504 47815
L26598 48209
L26673 47928
L26748 48209
L26841 47815
" />
<path d="M26973 47853
L26991 47834
L27029 47815
L27123 47815
L27160 47834
L27179 47853
L27198 47890
L27198 47928
L27179 47984
L26954 48209
L27198 48209
" />
<path d="M29101 48190
L29157 48209
L29251 48209
L29288 48190
L29307 48172
L29326 48134
L29326 48097
L29307 48059
L29288 48040
L29251 48022
L29176 48003
L29138 47984
L29119 47965
L29101 47928
L29101 47890
L29119 47853
L29138 47834
L29176 47815
L29269 47815
L29326 47834
" />
<path d="M29457 47815
L29550 48209
L29625 47928
L29700 48209
L29794 47815
" />
<path d="M29907 47815
L30150 47815
L30019 47965
L30075 47965
L30113 47984
L30132 48003
L30150 48040
L30150 48134
L30132 48172
L30113 48190
L30075 48209
L29963 48209
L29925 48190
L29907 48172
" />
<path d="M32053 48190
L32110 48209
L32203 48209
L32241 48190
L32260 48172
L32278 48134
L32278 48097
L32260 48059
L32241 48040
L32203 48022
L32128 48003
L32091 47984
L32072 47965
L32053 47928
L32053 47890
L32072 47853
L32091 47834
L32128 47815
L32222 47815
L32278 47834
" />
<path d="M32410 47815
L32503 48209
L32578 47928
L32653 48209
L32747 47815
" />
<path d="M33066 47947
L33066 48209
" />
<path d="M32972 47797
L32878 48078
L33122 48078
" />
<path d="M55258 40321
L55277 40340
L55296 40396
L55296 40434
L55277 40490
L55239 40527
L55202 40546
L55127 40565
L55071 40565
L54996 40546
L54958 40527
L54921 40490
L54902 40434
L54902 40396
L54921 40340
L54940 40321
" />
<path d="M55296 39946
L55296 40171
" />
<path d="M55296 40059
L54902 40059
L54958 40096
L54996 40134
L55014 40171
" />
<path d="M55258 39238
L55277 39257
L55296 39313
L55296 39351
L55277 39407
L55239 39445
L55202 39463
L55127 39482
L55071 39482
L54996 39463
L54958 39445
L54921 39407
L54902 39351
L54902 39313
L54921 39257
L54940 39238
" />
<path d="M54940 39088
L54921 39070
L54902 39032
L54902 38938
L54921 38901
L54940 38882
L54977 38863
L55014 38863
L55071 38882
L55296 39107
L55296 38863
" />
<path d="M33103 31144
L33084 31163
L33028 31182
L32991 31182
L32934 31163
L32897 31125
L32878 31088
L32859 31013
L32859 30957
L32878 30882
L32897 30844
L32934 30807
L32991 30788
L33028 30788
L33084 30807
L33103 30825
" />
<path d="M33441 30919
L33441 31182
" />
<path d="M33347 30769
L33253 31050
L33497 31050
" />
<path d="M24442 38821
L24423 38840
L24367 38859
L24329 38859
L24273 38840
L24236 38802
L24217 38765
L24198 38690
L24198 38634
L24217 38559
L24236 38521
L24273 38484
L24329 38465
L24367 38465
L24423 38484
L24442 38502
" />
<path d="M24798 38465
L24610 38465
L24592 38652
L24610 38634
L24648 38615
L24742 38615
L24779 38634
L24798 38652
L24817 38690
L24817 38784
L24798 38821
L24779 38840
L24742 38859
L24648 38859
L24610 38840
L24592 38821
" />
<path d="M25538 37874
L25538 38156
L25519 38212
L25481 38249
L25425 38268
L25388 38268
" />
<path d="M25688 37874
L25931 37874
L25800 38024
L25856 38024
L25894 38043
L25913 38062
L25931 38099
L25931 38193
L25913 38231
L25894 38249
L25856 38268
L25744 38268
L25706 38249
L25688 38231
" />
<path d="M29199 30788
L29199 31069
L29180 31125
L29143 31163
L29086 31182
L29049 31182
" />
<path d="M29386 31182
L29386 30788
L29536 30788
L29574 30807
L29593 30825
L29611 30863
L29611 30919
L29593 30957
L29574 30975
L29536 30994
L29386 30994
" />
<path d="M29949 30919
L29949 31182
" />
<path d="M29855 30769
L29761 31050
L30005 31050
" />
<path d="M27441 46095
L27723 46095
L27779 46114
L27816 46152
L27835 46208
L27835 46245
" />
<path d="M27835 45908
L27441 45908
L27441 45758
L27460 45720
L27479 45702
L27516 45683
L27573 45683
L27610 45702
L27629 45720
L27648 45758
L27648 45908
" />
<path d="M27835 45308
L27835 45533
" />
<path d="M27835 45420
L27441 45420
L27498 45458
L27535 45495
L27554 45533
" />
<path d="M52919 43189
L52919 43471
L52901 43527
L52863 43564
L52807 43583
L52769 43583
" />
<path d="M53107 43583
L53107 43189
L53257 43189
L53294 43208
L53313 43227
L53332 43264
L53332 43321
L53313 43358
L53294 43377
L53257 43396
L53107 43396
" />
<path d="M53482 43227
L53501 43208
L53538 43189
L53632 43189
L53669 43208
L53688 43227
L53707 43264
L53707 43302
L53688 43358
L53463 43583
L53707 43583
" />
<path d="M23982 33142
L23982 33423
L23964 33480
L23926 33517
L23870 33536
L23832 33536
" />
<path d="M24170 33536
L24170 33142
L24320 33142
L24357 33161
L24376 33180
L24395 33217
L24395 33273
L24376 33311
L24357 33330
L24320 33348
L24170 33348
" />
<path d="M24751 33142
L24564 33142
L24545 33330
L24564 33311
L24601 33292
L24695 33292
L24732 33311
L24751 33330
L24770 33367
L24770 33461
L24751 33498
L24732 33517
L24695 33536
L24601 33536
L24564 33517
L24545 33498
" />
<path d="M52919 35119
L52919 35400
L52901 35456
L52863 35494
L52807 35512
L52769 35512
" />
<path d="M53107 35512
L53107 35119
L53257 35119
L53294 35137
L53313 35156
L53332 35194
L53332 35250
L53313 35287
L53294 35306
L53257 35325
L53107 35325
" />
<path d="M53463 35119
L53707 35119
L53576 35269
L53632 35269
L53669 35287
L53688 35306
L53707 35344
L53707 35437
L53688 35475
L53669 35494
L53632 35512
L53519 35512
L53482 35494
L53463 35475
" />
<path d="M24981 48950
L25262 48950
L25318 48968
L25356 49006
L25374 49062
L25374 49100
" />
<path d="M25018 48781
L25000 48762
L24981 48725
L24981 48631
L25000 48593
L25018 48575
L25056 48556
L25093 48556
L25149 48575
L25374 48800
L25374 48556
" />
<path d="M31266 27924
L31135 27924
" />
<path d="M31135 28130
L31135 27737
L31322 27737
" />
<path d="M31678 28130
L31453 28130
" />
<path d="M31566 28130
L31566 27737
L31528 27793
L31491 27830
L31453 27849
" />
<path d="M44886 38662
L44886 38268
L44980 38268
L45036 38287
L45074 38324
L45092 38362
L45111 38437
L45111 38493
L45092 38568
L45074 38606
L45036 38643
L44980 38662
L44886 38662
" />
<path d="M45486 38662
L45261 38662
" />
<path d="M45374 38662
L45374 38268
L45336 38324
L45299 38362
L45261 38381
" />
<path d="M44886 39252
L44886 38859
L44980 38859
L45036 38877
L45074 38915
L45092 38952
L45111 39027
L45111 39084
L45092 39159
L45074 39196
L45036 39234
L44980 39252
L44886 39252
" />
<path d="M45261 38896
L45280 38877
L45317 38859
L45411 38859
L45449 38877
L45467 38896
L45486 38934
L45486 38971
L45467 39027
L45242 39252
L45486 39252
" />
<path d="M44886 39843
L44886 39449
L44980 39449
L45036 39468
L45074 39505
L45092 39543
L45111 39618
L45111 39674
L45092 39749
L45074 39787
L45036 39824
L44980 39843
L44886 39843
" />
<path d="M45242 39449
L45486 39449
L45355 39599
L45411 39599
L45449 39618
L45467 39637
L45486 39674
L45486 39768
L45467 39805
L45449 39824
L45411 39843
L45299 39843
L45261 39824
L45242 39805
" />
<path d="M44886 40434
L44886 40040
L44980 40040
L45036 40059
L45074 40096
L45092 40134
L45111 40209
L45111 40265
L45092 40340
L45074 40377
L45036 40415
L44980 40434
L44886 40434
" />
<path d="M45449 40171
L45449 40434
" />
<path d="M45355 40021
L45261 40302
L45505 40302
" />
<path d="M49798 36201
L49798 36520
L49817 36557
L49835 36576
L49873 36595
L49948 36595
L49985 36576
L50004 36557
L50023 36520
L50023 36201
" />
<path d="M50192 36239
L50210 36220
L50248 36201
L50342 36201
L50379 36220
L50398 36239
L50417 36276
L50417 36314
L50398 36370
L50173 36595
L50417 36595
" />
<path d="M33012 30221
L33331 30221
L33368 30202
L33387 30183
L33406 30146
L33406 30071
L33387 30033
L33368 30014
L33331 29996
L33012 29996
" />
<path d="M33406 29602
L33406 29827
" />
<path d="M33406 29715
L33012 29715
L33068 29752
L33106 29790
L33125 29827
" />
<path d="M52296 37579
L52165 37392
" />
<path d="M52071 37579
L52071 37185
L52221 37185
L52259 37204
L52277 37223
L52296 37260
L52296 37317
L52277 37354
L52259 37373
L52221 37392
L52071 37392
" />
<path d="M52446 37223
L52465 37204
L52502 37185
L52596 37185
L52634 37204
L52652 37223
L52671 37260
L52671 37298
L52652 37354
L52427 37579
L52671 37579
" />
<path d="M50721 43654
L50590 43467
" />
<path d="M50496 43654
L50496 43260
L50646 43260
L50684 43279
L50703 43298
L50721 43335
L50721 43392
L50703 43429
L50684 43448
L50646 43467
L50496 43467
" />
<path d="M51096 43654
L50871 43654
" />
<path d="M50984 43654
L50984 43260
L50946 43317
L50909 43354
L50871 43373
" />
<path d="M42060 38662
L41929 38474
" />
<path d="M41835 38662
L41835 38268
L41985 38268
L42022 38287
L42041 38306
L42060 38343
L42060 38399
L42041 38437
L42022 38456
L41985 38474
L41835 38474
" />
<path d="M42397 38268
L42322 38268
L42285 38287
L42266 38306
L42229 38362
L42210 38437
L42210 38587
L42229 38624
L42247 38643
L42285 38662
L42360 38662
L42397 38643
L42416 38624
L42435 38587
L42435 38493
L42416 38456
L42397 38437
L42360 38418
L42285 38418
L42247 38437
L42229 38456
L42210 38493
" />
<path d="M42060 39252
L41929 39065
" />
<path d="M41835 39252
L41835 38859
L41985 38859
L42022 38877
L42041 38896
L42060 38934
L42060 38990
L42041 39027
L42022 39046
L41985 39065
L41835 39065
" />
<path d="M42191 38859
L42454 38859
L42285 39252
" />
<path d="M42060 40434
L41929 40246
" />
<path d="M41835 40434
L41835 40040
L41985 40040
L42022 40059
L42041 40077
L42060 40115
L42060 40171
L42041 40209
L42022 40227
L41985 40246
L41835 40246
" />
<path d="M42247 40434
L42322 40434
L42360 40415
L42379 40396
L42416 40340
L42435 40265
L42435 40115
L42416 40077
L42397 40059
L42360 40040
L42285 40040
L42247 40059
L42229 40077
L42210 40115
L42210 40209
L42229 40246
L42247 40265
L42285 40284
L42360 40284
L42397 40265
L42416 40246
L42435 40209
" />
<path d="M42060 39843
L41929 39655
" />
<path d="M41835 39843
L41835 39449
L41985 39449
L42022 39468
L42041 39487
L42060 39524
L42060 39580
L42041 39618
L42022 39637
L41985 39655
L41835 39655
" />
<path d="M42285 39618
L42247 39599
L42229 39580
L42210 39543
L42210 39524
L42229 39487
L42247 39468
L42285 39449
L42360 39449
L42397 39468
L42416 39487
L42435 39524
L42435 39543
L42416 39580
L42397 39599
L42360 39618
L42285 39618
L42247 39637
L42229 39655
L42210 39693
L42210 39768
L42229 39805
L42247 39824
L42285 39843
L42360 39843
L42397 39824
L42416 39805
L42435 39768
L42435 39693
L42416 39655
L42397 39637
L42360 39618
" />
<path d="M49207 44567
L49432 44567
" />
<path d="M49320 44961
L49320 44567
" />
<path d="M49564 44961
L49564 44567
L49714 44567
L49751 44586
L49770 44605
L49789 44642
L49789 44699
L49770 44736
L49751 44755
L49714 44774
L49564 44774
" />
<path d="M49920 44567
L50164 44567
L50032 44717
L50089 44717
L50126 44736
L50145 44755
L50164 44792
L50164 44886
L50145 44924
L50126 44942
L50089 44961
L49976 44961
L49939 44942
L49920 44924
" />
<path d="M47239 35119
L47464 35119
" />
<path d="M47351 35512
L47351 35119
" />
<path d="M47595 35512
L47595 35119
L47745 35119
L47783 35137
L47801 35156
L47820 35194
L47820 35250
L47801 35287
L47783 35306
L47745 35325
L47595 35325
" />
<path d="M48176 35119
L47989 35119
L47970 35306
L47989 35287
L48026 35269
L48120 35269
L48158 35287
L48176 35306
L48195 35344
L48195 35437
L48176 35475
L48158 35494
L48120 35512
L48026 35512
L47989 35494
L47970 35475
" />
<path d="M49207 43189
L49432 43189
" />
<path d="M49320 43583
L49320 43189
" />
<path d="M49564 43583
L49564 43189
L49714 43189
L49751 43208
L49770 43227
L49789 43264
L49789 43321
L49770 43358
L49751 43377
L49714 43396
L49564 43396
" />
<path d="M50126 43321
L50126 43583
" />
<path d="M50032 43171
L49939 43452
L50182 43452
" />
<path d="M27160 30788
L27385 30788
" />
<path d="M27273 31182
L27273 30788
" />
<path d="M27516 31182
L27516 30788
L27666 30788
L27704 30807
L27723 30825
L27741 30863
L27741 30919
L27723 30957
L27704 30975
L27666 30994
L27516 30994
" />
<path d="M27891 30825
L27910 30807
L27948 30788
L28041 30788
L28079 30807
L28098 30825
L28116 30863
L28116 30900
L28098 30957
L27873 31182
L28116 31182
" />
<path d="M47239 33839
L47464 33839
" />
<path d="M47351 34233
L47351 33839
" />
<path d="M47595 34233
L47595 33839
L47745 33839
L47783 33858
L47801 33877
L47820 33914
L47820 33970
L47801 34008
L47783 34026
L47745 34045
L47595 34045
" />
<path d="M47951 33839
L48214 33839
L48045 34233
" />
<path d="M43499 41910
L43724 41910
" />
<path d="M43611 42304
L43611 41910
" />
<path d="M43855 42304
L43855 41910
L44005 41910
L44042 41929
L44061 41947
L44080 41985
L44080 42041
L44061 42079
L44042 42097
L44005 42116
L43855 42116
" />
<path d="M44417 41910
L44342 41910
L44305 41929
L44286 41947
L44249 42004
L44230 42079
L44230 42229
L44249 42266
L44267 42285
L44305 42304
L44380 42304
L44417 42285
L44436 42266
L44455 42229
L44455 42135
L44436 42097
L44417 42079
L44380 42060
L44305 42060
L44267 42079
L44249 42097
L44230 42135
" />
<g >
</g>
</g> 
</svg>
