<?xml version="1.0" standalone="no"?>
 <!DOCTYPE svg PUBLIC "-//W3C//DTD SVG 1.1//EN" 
 "http://www.w3.org/Graphics/SVG/1.1/DTD/svg11.dtd"> 
<svg xmlns="http://www.w3.org/2000/svg" version="1.1" 
    width="29.7002cm" height="21.0007cm" viewBox="0 0 116930 82680 ">
<title>SVG Picture created as board2-B_SilkS.svg date 2019/04/10 12:09:58 </title>
  <desc>Picture generated by PCBNEW </desc>
<g style="fill:#000000; fill-opacity:1;stroke:#000000; stroke-opacity:1;
stroke-linecap:round; stroke-linejoin:round; "
 transform="translate(0 0) scale(1 1)">
</g>
<g style="fill:#000000; fill-opacity:0.0; 
stroke:#000000; stroke-width:-0.000393701; stroke-opacity:1; 
stroke-linecap:round; stroke-linejoin:round;">
</g>
<g style="fill:#000000; fill-opacity:0.0; 
stroke:#000000; stroke-width:118.11; stroke-opacity:1; 
stroke-linecap:round; stroke-linejoin:round;">
<path d="M46302 47483
L46386 47455
L46414 47426
L46442 47370
L46442 47286
L46414 47230
L46386 47201
L46330 47173
L46105 47173
L46105 47764
L46302 47764
L46358 47736
L46386 47708
L46414 47651
L46414 47595
L46386 47539
L46358 47511
L46302 47483
L46105 47483
" />
<path d="M46948 47173
L46948 47483
L46920 47539
L46864 47567
L46751 47567
L46695 47539
" />
<path d="M46948 47201
L46892 47173
L46751 47173
L46695 47201
L46667 47258
L46667 47314
L46695 47370
L46751 47398
L46892 47398
L46948 47426
" />
<path d="M47145 47567
L47370 47567
" />
<path d="M47230 47764
L47230 47258
L47258 47201
L47314 47173
L47370 47173
" />
<path d="M47483 47567
L47708 47567
" />
<path d="M47567 47764
L47567 47258
L47595 47201
L47651 47173
L47708 47173
" />
<path d="M48129 47201
L48073 47173
L47961 47173
L47904 47201
L47876 47258
L47876 47483
L47904 47539
L47961 47567
L48073 47567
L48129 47539
L48158 47483
L48158 47426
L47876 47370
" />
<path d="M48411 47173
L48411 47567
" />
<path d="M48411 47455
L48439 47511
L48467 47539
L48523 47567
L48579 47567
" />
<path d="M48720 47567
L48861 47173
" />
<path d="M49001 47567
L48861 47173
L48804 47033
L48776 47005
L48720 46976
" />
<path d="M49648 47708
L49676 47736
L49732 47764
L49873 47764
L49929 47736
L49957 47708
L49985 47651
L49985 47595
L49957 47511
L49620 47173
L49985 47173
" />
<path d="M29077 47483
L29161 47455
L29190 47426
L29218 47370
L29218 47286
L29190 47230
L29161 47201
L29105 47173
L28880 47173
L28880 47764
L29077 47764
L29133 47736
L29161 47708
L29190 47651
L29190 47595
L29161 47539
L29133 47511
L29077 47483
L28880 47483
" />
<path d="M29724 47173
L29724 47483
L29696 47539
L29640 47567
L29527 47567
L29471 47539
" />
<path d="M29724 47201
L29668 47173
L29527 47173
L29471 47201
L29443 47258
L29443 47314
L29471 47370
L29527 47398
L29668 47398
L29724 47426
" />
<path d="M29921 47567
L30146 47567
" />
<path d="M30005 47764
L30005 47258
L30033 47201
L30089 47173
L30146 47173
" />
<path d="M30258 47567
L30483 47567
" />
<path d="M30343 47764
L30343 47258
L30371 47201
L30427 47173
L30483 47173
" />
<path d="M30905 47201
L30849 47173
L30736 47173
L30680 47201
L30652 47258
L30652 47483
L30680 47539
L30736 47567
L30849 47567
L30905 47539
L30933 47483
L30933 47426
L30652 47370
" />
<path d="M31186 47173
L31186 47567
" />
<path d="M31186 47455
L31214 47511
L31242 47539
L31299 47567
L31355 47567
" />
<path d="M31496 47567
L31636 47173
" />
<path d="M31777 47567
L31636 47173
L31580 47033
L31552 47005
L31496 46976
" />
<path d="M32761 47173
L32424 47173
" />
<path d="M32592 47173
L32592 47764
L32536 47679
L32480 47623
L32424 47595
" />
<path d="M44221 30455
L43771 30455
" />
<path d="M43236 30455
L42786 30455
" />
<path d="M43011 30680
L43011 30230
" />
<path d="M26898 30455
L26448 30455
" />
<path d="M25913 30455
L25464 30455
" />
<path d="M25688 30680
L25688 30230
" />
</g>
<g style="fill:#000000; fill-opacity:0.0; 
stroke:#000000; stroke-width:59.0551; stroke-opacity:1; 
stroke-linecap:round; stroke-linejoin:round;">
<path d="M34055 30708
L34055 48031
" />
<path d="M27362 48031
L27362 30708
" />
<path d="M27362 30708
L34055 30708
" />
<path d="M34055 48031
L27362 48031
" />
<path d="M51377 48031
L44685 48031
" />
<path d="M51377 30708
L51377 48031
" />
<path d="M44685 30708
L51377 30708
" />
<path d="M44685 48031
L44685 30708
" />
<path d="M42322 48622
L42913 48622
" />
<path d="M42322 47440
L42322 48622
" />
<path d="M41732 47440
L42322 47440
" />
<path d="M36417 47440
L37007 47440
" />
<path d="M36417 48622
L36417 47440
" />
<path d="M35826 48622
L36417 48622
" />
<path d="M35826.8 48622 A1673.23 1673.23 0.0 0 0 35826.8 51968.5 " />
<path d="M42913.4 51968.5 A1673.23 1673.23 0.0 0 0 42913.4 48622 " />
<path d="M42322 31299
L41732 31299
" />
<path d="M42322 30118
L42322 31299
" />
<path d="M42913 30118
L42322 30118
" />
<path d="M36417 31299
L37007 31299
" />
<path d="M36417 30118
L36417 31299
" />
<path d="M35826 30118
L36417 30118
" />
<path d="M35826.8 26771.7 A1673.23 1673.23 0.0 0 0 35826.8 30118.1 " />
<path d="M42913.4 30118.1 A1673.23 1673.23 0.0 0 0 42913.4 26771.7 " />
<path d="M41732 37007
L41732 26771
" />
<path d="M37007 26771
L37007 37007
" />
<path d="M42913 26771
L35826 26771
" />
<path d="M41732 51968
L41732 41732
" />
<path d="M35826 51968
L42913 51968
" />
<path d="M37007 41732
L37007 51968
" />
</g>
<g style="fill:#000000; fill-opacity:0.0; 
stroke:#000000; stroke-width:47.2441; stroke-opacity:1; 
stroke-linecap:round; stroke-linejoin:round;">
<path d="M25173 30897
L25173 31397
" />
<path d="M25673 30897
L25173 30897
" />
<path d="M26822 31808
L26822 31964
" />
<path d="M26523 31808
L26523 31964
" />
<path d="M26822 35374
L26822 33011
" />
<path d="M26523 35374
L26822 35374
" />
<path d="M26523 33011
L26523 35374
" />
<path d="M26173 31964
L26173 33011
" />
<path d="M25822 31834
L25822 31964
" />
<path d="M25523 31834
L25523 31964
" />
<path d="M25783 33011
L25783 35374
" />
<path d="M25736 33011
L25736 35374
" />
<path d="M25688 33011
L25688 35374
" />
<path d="M25641 33011
L25641 35374
" />
<path d="M25594 33011
L25594 35374
" />
<path d="M25547 33011
L25547 35374
" />
<path d="M25822 35374
L25822 33011
" />
<path d="M25523 35374
L25822 35374
" />
<path d="M25523 33011
L25523 35374
" />
<path d="M25149 33011
L25149 31964
" />
<path d="M27196 33011
L25149 33011
" />
<path d="M27196 31964
L27196 33011
" />
<path d="M25149 31964
L27196 31964
" />
<path d="M42472 31964
L44519 31964
" />
<path d="M44519 31964
L44519 33011
" />
<path d="M44519 33011
L42472 33011
" />
<path d="M42472 33011
L42472 31964
" />
<path d="M42846 33011
L42846 35374
" />
<path d="M42846 35374
L43145 35374
" />
<path d="M43145 35374
L43145 33011
" />
<path d="M42870 33011
L42870 35374
" />
<path d="M42917 33011
L42917 35374
" />
<path d="M42964 33011
L42964 35374
" />
<path d="M43011 33011
L43011 35374
" />
<path d="M43059 33011
L43059 35374
" />
<path d="M43106 33011
L43106 35374
" />
<path d="M42846 31834
L42846 31964
" />
<path d="M43145 31834
L43145 31964
" />
<path d="M43496 31964
L43496 33011
" />
<path d="M43846 33011
L43846 35374
" />
<path d="M43846 35374
L44145 35374
" />
<path d="M44145 35374
L44145 33011
" />
<path d="M43846 31808
L43846 31964
" />
<path d="M44145 31808
L44145 31964
" />
<path d="M42996 30897
L42496 30897
" />
<path d="M42496 30897
L42496 31397
" />
<path d="M53681 27984
L53681 26937
" />
<path d="M53681 27984
L47657 27984
" />
<path d="M47657 27984
L47657 26937
" />
<path d="M53681 26937
L47657 26937
" />
<path d="M54704 26937
L54181 26937
" />
<path d="M54704 27460
L54704 26937
" />
<path d="M57578 42893
L58102 42893
" />
<path d="M58102 42893
L58102 42370
" />
<path d="M58102 41870
L58102 35846
" />
<path d="M57055 35846
L58102 35846
" />
<path d="M57055 41870
L57055 35846
" />
<path d="M57055 41870
L58102 41870
" />
<path d="M48681 50755
L48681 51803
" />
<path d="M48681 50755
L54704 50755
" />
<path d="M54704 50755
L54704 51803
" />
<path d="M48681 51803
L54704 51803
" />
<path d="M47657 51803
L48181 51803
" />
<path d="M47657 51279
L47657 51803
" />
</g>
<g style="fill:#000000; fill-opacity:0.0; 
stroke:#000000; stroke-width:59.0551; stroke-opacity:1; 
stroke-linecap:round; stroke-linejoin:round;">
<path d="M24563 32992
L24845 32992
L24901 32974
L24938 32936
L24957 32880
L24957 32842
" />
<path d="M24957 33386
L24957 33161
" />
<path d="M24957 33273
L24563 33273
L24620 33236
L24657 33199
L24676 33161
" />
<path d="M41886 32992
L42167 32992
L42224 32974
L42261 32936
L42280 32880
L42280 32842
" />
<path d="M41886 33142
L41886 33405
L42280 33236
" />
<path d="M47276 27245
L47276 27526
L47295 27582
L47333 27619
L47389 27638
L47426 27638
" />
<path d="M46901 27245
L47089 27245
L47108 27432
L47089 27413
L47051 27395
L46958 27395
L46920 27413
L46901 27432
L46883 27470
L46883 27563
L46901 27601
L46920 27619
L46958 27638
L47051 27638
L47089 27619
L47108 27601
" />
<path d="M57709 43245
L57709 43526
L57728 43582
L57766 43619
L57822 43638
L57859 43638
" />
<path d="M57353 43376
L57353 43638
" />
<path d="M57447 43226
L57541 43507
L57297 43507
" />
<path d="M47221 51063
L47221 51345
L47240 51401
L47278 51438
L47334 51457
L47371 51457
" />
<path d="M46865 51063
L46940 51063
L46978 51082
L46996 51101
L47034 51157
L47053 51232
L47053 51382
L47034 51420
L47015 51438
L46978 51457
L46903 51457
L46865 51438
L46846 51420
L46828 51382
L46828 51288
L46846 51251
L46865 51232
L46903 51213
L46978 51213
L47015 51232
L47034 51251
L47053 51288
" />
<g >
</g>
</g> 
</svg>
