M48
;DRILL file {KiCad 5.0.1} date Sun 10 Feb 2019 09:42:12 PM EST
;FORMAT={-:-/ absolute / metric / decimal}
FMAT,2
METRIC,TZ
T1C0.500
T2C0.800
T3C1.000
T4C1.100
T5C1.200
T6C2.200
%
G90
G05
M71
T1
X-30.75Y10.
X-30.75Y8.75
X-30.5Y-14.
X-29.75Y-10.25
X-28.95Y-14.027
X-28.25Y-16.275
X-27.851Y-13.981
X-22.5Y20.
X-21.25Y21.25
X-18.75Y10.75
X-16.Y27.75
X-15.5Y10.75
X-13.5Y8.75
X-4.25Y7.75
X-3.25Y-8.075
X-2.25Y1.25
X-2.25Y-1.25
X-0.5Y11.5
X0.5Y8.25
X0.5Y-8.25
X2.Y-8.25
X7.Y2.275
X7.105Y-7.759
X8.25Y-7.725
X8.75Y-10.5
X9.5Y4.75
X9.5Y3.5
X12.247Y-10.497
X12.25Y-3.521
X13.5Y6.
X13.621Y-9.124
X14.Y9.
X14.497Y-8.247
X14.75Y6.
X15.25Y9.
X15.753Y-0.253
X16.198Y0.952
X16.25Y-5.25
X16.5Y9.
X17.725Y-12.
X17.75Y8.5
X17.75Y-13.15
X17.75Y-14.5
X19.564Y-2.089
X20.Y7.5
X20.175Y-7.25
X20.233Y-8.567
X20.25Y-9.75
X20.25Y-10.85
X20.25Y-12.
X20.25Y-13.25
X20.25Y-14.5
X21.077Y-0.577
X21.175Y3.75
X21.35Y7.517
X21.5Y-3.75
X22.725Y3.75
X23.904Y16.25
X23.963Y-3.062
X24.452Y-1.875
X24.75Y4.
X25.25Y-14.525
X25.728Y15.213
X26.033Y3.985
X26.614Y15.863
X26.65Y-1.5
X26.95Y-2.896
X27.392Y16.642
X27.748Y2.103
X27.774Y-1.476
X27.775Y8.075
X27.798Y3.202
X27.965Y-4.124
X28.07Y28.595
X28.17Y17.42
X28.55Y6.5
X28.947Y18.197
X29.725Y18.975
X30.503Y19.753
X33.375Y-0.375
X38.5Y-1.5
X40.225Y6.305
X40.225Y4.305
X41.Y-2.275
X42.125Y-2.275
X43.225Y-2.275
X44.Y-3.75
T2
X15.Y25.75
X15.Y23.75
X17.Y25.75
X17.Y23.75
X19.Y25.75
X19.Y23.75
X21.Y25.75
X21.Y23.75
X23.Y25.75
X23.Y23.75
X25.Y25.75
X25.Y23.75
X-4.25Y1.25
X-4.25Y-1.25
T3
X-38.25Y20.14
X-38.25Y17.6
X9.21Y20.25
X11.75Y20.25
X32.25Y11.54
X32.25Y9.
X2.75Y1.25
X5.29Y1.25
X-34.79Y20.25
X-32.25Y20.25
X-29.Y29.
X-17.6Y29.
X22.38Y-30.25
X24.92Y-30.25
X27.46Y-30.25
X30.Y-30.25
X32.54Y-30.25
X35.08Y-30.25
X37.62Y-30.25
X-38.25Y-11.3
X-38.25Y-13.84
X-38.25Y-16.38
X-38.25Y-18.92
X-38.25Y-21.46
X-38.25Y-24.
X32.25Y-9.
X32.25Y-11.54
X46.25Y7.62
X46.25Y5.08
X46.25Y2.54
X46.25Y0.
X46.25Y-2.54
X46.25Y-5.08
X46.25Y-7.62
X-26.29Y23.75
X-23.75Y23.75
X22.38Y30.25
X24.92Y30.25
X27.46Y30.25
X30.Y30.25
X32.54Y30.25
X35.08Y30.25
X37.62Y30.25
X-34.75Y-16.25
X-32.21Y-16.25
T4
X-17.25Y-24.
X-17.25Y-30.5
X-12.75Y-24.
X-12.75Y-30.5
X-32.25Y-24.
X-32.25Y-30.5
X-27.75Y-24.
X-27.75Y-30.5
X-24.75Y-24.
X-24.75Y-30.5
X-20.25Y-24.
X-20.25Y-30.5
X-38.5Y-1.5
X-38.5Y-8.
X-34.Y-1.5
X-34.Y-8.
T5
X23.75Y-8.5
X10.5Y-4.75
X23.75Y8.5
X23.75Y-12.
X-29.75Y23.75
X23.75Y12.
T6
X-9.Y27.75
X9.Y27.75
X-9.Y-27.75
X9.Y-27.75
X43.75Y27.75
X-35.75Y27.75
X-35.75Y-27.75
X43.75Y-27.75
T0
M30
