%TF.GenerationSoftware,KiCad,Pcbnew,5.0.1*%
%TF.CreationDate,2019-02-10T21:41:56-05:00*%
%TF.ProjectId,board2,626F617264322E6B696361645F706362,rev?*%
%TF.SameCoordinates,PX5f5e100PY5f5e100*%
%TF.FileFunction,Copper,L2,Bot,Signal*%
%TF.FilePolarity,Positive*%
%FSLAX46Y46*%
G04 Gerber Fmt 4.6, Leading zero omitted, Abs format (unit mm)*
G04 Created by KiCad (PCBNEW 5.0.1) date Sun 10 Feb 2019 09:41:56 PM EST*
%MOMM*%
%LPD*%
G01*
G04 APERTURE LIST*
%ADD10R,1.350000X1.350000*%
%ADD11O,1.350000X1.350000*%
%ADD12R,2.000000X2.000000*%
%ADD13O,2.000000X2.000000*%
%ADD14O,1.700000X1.700000*%
%ADD15R,1.700000X1.700000*%
%ADD16R,1.600000X1.600000*%
%ADD17C,1.600000*%
%ADD18C,2.000000*%
%ADD19C,2.500000*%
%ADD20C,0.900000*%
%ADD21C,0.500000*%
%ADD22C,0.250000*%
%ADD23C,0.254000*%
G04 APERTURE END LIST*
D10*
X15000000Y23750000D03*
D11*
X15000000Y25750000D03*
X17000000Y23750000D03*
X17000000Y25750000D03*
X19000000Y23750000D03*
X19000000Y25750000D03*
X21000000Y23750000D03*
X21000000Y25750000D03*
X23000000Y23750000D03*
X23000000Y25750000D03*
X25000000Y23750000D03*
X25000000Y25750000D03*
D12*
X2750000Y1250000D03*
D13*
X5290000Y1250000D03*
D14*
X-32250000Y20250000D03*
D15*
X-34790000Y20250000D03*
X9210000Y20250000D03*
D14*
X11750000Y20250000D03*
D15*
X37620000Y30250000D03*
D14*
X35080000Y30250000D03*
X32540000Y30250000D03*
X30000000Y30250000D03*
X27460000Y30250000D03*
X24920000Y30250000D03*
X22380000Y30250000D03*
X46250000Y7620000D03*
X46250000Y5080000D03*
X46250000Y2540000D03*
X46250000Y0D03*
X46250000Y-2540000D03*
X46250000Y-5080000D03*
D15*
X46250000Y-7620000D03*
X22380000Y-30250000D03*
D14*
X24920000Y-30250000D03*
X27460000Y-30250000D03*
X30000000Y-30250000D03*
X32540000Y-30250000D03*
X35080000Y-30250000D03*
X37620000Y-30250000D03*
D16*
X-4250000Y-1250000D03*
D17*
X-4250000Y1250000D03*
D18*
X-38500000Y-1500000D03*
X-34000000Y-1500000D03*
X-38500000Y-8000000D03*
X-34000000Y-8000000D03*
X-27750000Y-30500000D03*
X-32250000Y-30500000D03*
X-27750000Y-24000000D03*
X-32250000Y-24000000D03*
X-24750000Y-24000000D03*
X-20250000Y-24000000D03*
X-24750000Y-30500000D03*
X-20250000Y-30500000D03*
X-12750000Y-30500000D03*
X-17250000Y-30500000D03*
X-12750000Y-24000000D03*
X-17250000Y-24000000D03*
D15*
X-23750000Y23750000D03*
D14*
X-26290000Y23750000D03*
X-32210000Y-16250000D03*
D15*
X-34750000Y-16250000D03*
X32250000Y-9000000D03*
D14*
X32250000Y-11540000D03*
X-38250000Y20140000D03*
D15*
X-38250000Y17600000D03*
X32250000Y9000000D03*
D14*
X32250000Y11540000D03*
D15*
X-38250000Y-11300000D03*
D14*
X-38250000Y-13840000D03*
X-38250000Y-16380000D03*
X-38250000Y-18920000D03*
X-38250000Y-21460000D03*
X-38250000Y-24000000D03*
D18*
X-29000000Y29000000D03*
X-17600000Y29000000D03*
D19*
X23750000Y-12000000D03*
X23750000Y8500000D03*
X23750000Y-8500000D03*
X-29750000Y23750000D03*
X23750000Y12000000D03*
X10500000Y-4750000D03*
D20*
X-29750000Y-10250000D03*
X-18750000Y10750000D03*
X-15499990Y10750000D03*
X-13499997Y8749997D03*
X-500000Y11500000D03*
X-3250000Y-8075031D03*
X-30500004Y-14000000D03*
X19564485Y-2089485D03*
X21076984Y-576986D03*
X21500000Y-3750000D03*
X17750000Y8500000D03*
X27965151Y-4123914D03*
X23903983Y16250000D03*
X30502983Y19752983D03*
X25250000Y-14525000D03*
X44000010Y-3750000D03*
X7105254Y-7759223D03*
X17724974Y-12000000D03*
X20250000Y-12000000D03*
X13620665Y-9124071D03*
X20250000Y-13250000D03*
X8250000Y-7724990D03*
X17750000Y-13149987D03*
X14497373Y-8247363D03*
X38500000Y-1500000D03*
X20250000Y-14500000D03*
X-21250000Y21250000D03*
X-22500000Y20000000D03*
X-4250000Y7750000D03*
X17750000Y-14500000D03*
X12249927Y-3521076D03*
X16250000Y-5250000D03*
X8750000Y-10500000D03*
X12247368Y-10497368D03*
X9500000Y4750000D03*
X27773768Y-1476223D03*
X40225000Y4305000D03*
X40225000Y6305010D03*
X28069748Y28594748D03*
X33374628Y-374628D03*
X24451985Y-1875043D03*
X23962963Y-3061903D03*
X27775000Y8075010D03*
X21174978Y3750009D03*
X21349875Y7517306D03*
X20000004Y7500000D03*
X-28949995Y-14026907D03*
X-27850954Y-13980713D03*
X-30750000Y10000000D03*
X-28250000Y-16275000D03*
X20175031Y-7250009D03*
X-30750000Y8750000D03*
X20233208Y-8567168D03*
X20250000Y-9750000D03*
X20250000Y-10850003D03*
X26649997Y-1500000D03*
X26950272Y-2895759D03*
X-16000000Y27750000D03*
X2000000Y-8250000D03*
X27747861Y2103117D03*
X500000Y-8250000D03*
X27798015Y3201985D03*
X500000Y8250000D03*
X22724990Y3750000D03*
X7000000Y2274926D03*
X9500000Y3499980D03*
X-2250000Y1250000D03*
X-2250000Y-1250006D03*
X43225000Y-2275000D03*
X29725158Y18975156D03*
X42124997Y-2275000D03*
X28947331Y18197331D03*
X41000000Y-2275000D03*
X28169506Y17419505D03*
X28550010Y6500000D03*
X27391673Y16641686D03*
X16500000Y9000000D03*
X14750000Y6000000D03*
X16198034Y951985D03*
X15250000Y9000000D03*
X13500000Y6000000D03*
X15752631Y-252631D03*
X13999994Y9000000D03*
X24750000Y3999996D03*
X25727555Y15212525D03*
X26033214Y3985239D03*
X26614429Y15863279D03*
D21*
X-10500000Y-1250000D02*
X-4250000Y-1250000D01*
X-17600000Y29000000D02*
X-17600000Y5850000D01*
X-17600000Y5850000D02*
X-10500000Y-1250000D01*
D22*
X-26290000Y23750000D02*
X-29750000Y23750000D01*
X-35860000Y17750000D02*
X-29750000Y17750000D01*
X-38250000Y20140000D02*
X-35860000Y17750000D01*
X-29750000Y23750000D02*
X-29750000Y17750000D01*
X-29750000Y17750000D02*
X-29750000Y8000000D01*
X-29750000Y-9000000D02*
X-29750000Y-10250000D01*
X-15499990Y10750000D02*
X-13499997Y8750007D01*
X-13499997Y8750007D02*
X-13499997Y8749997D01*
X-13499997Y8749997D02*
X-10749994Y11500000D01*
X-10749994Y11500000D02*
X-500000Y11500000D01*
X-29674969Y-8075031D02*
X-29750000Y-8000000D01*
X-3250000Y-8075031D02*
X-29674969Y-8075031D01*
X-29750000Y8000000D02*
X-29750000Y-8000000D01*
X-29750000Y-8000000D02*
X-29750000Y-9000000D01*
X-32210000Y-16250000D02*
X-30500004Y-14540004D01*
X-30500004Y-14540004D02*
X-30500004Y-14000000D01*
X19564485Y-2089485D02*
X21076984Y-576986D01*
X-19649998Y10750000D02*
X-18750000Y10750000D01*
X-29750000Y8000000D02*
X-29750000Y10750000D01*
X-29750000Y10750000D02*
X-19649998Y10750000D01*
X-500000Y11500000D02*
X3699969Y7300031D01*
X16550031Y7300031D02*
X15250000Y7300031D01*
X3699969Y7300031D02*
X15250000Y7300031D01*
X17750000Y8500000D02*
X16550031Y7300031D01*
X26025002Y-3172014D02*
X26976902Y-4123914D01*
X21949999Y-2709232D02*
X23559198Y-1100033D01*
X27328755Y-4123914D02*
X27965151Y-4123914D01*
X26976902Y-4123914D02*
X27328755Y-4123914D01*
X23559198Y-1100033D02*
X24997037Y-1100033D01*
X21949999Y-3300001D02*
X21949999Y-2709232D01*
X21500000Y-3750000D02*
X21949999Y-3300001D01*
X26025002Y-2127998D02*
X26025002Y-3172014D01*
X24997037Y-1100033D02*
X26025002Y-2127998D01*
X20750000Y11500000D02*
X17750000Y8500000D01*
X15000000Y23750000D02*
X15000000Y24675000D01*
X24000000Y24250000D02*
X24000000Y16346017D01*
X20750000Y12250000D02*
X20750000Y11500000D01*
X20750000Y13096017D02*
X20750000Y12250000D01*
X15000000Y24675000D02*
X15075000Y24750000D01*
X15075000Y24750000D02*
X23500000Y24750000D01*
X23903983Y16250000D02*
X20750000Y13096017D01*
X23500000Y24750000D02*
X24000000Y24250000D01*
X24000000Y16346017D02*
X23903983Y16250000D01*
X30952982Y20202982D02*
X30502983Y19752983D01*
X35080000Y30250000D02*
X35080000Y24330000D01*
X35080000Y24330000D02*
X30952982Y20202982D01*
X25500000Y-15250000D02*
X25250000Y-15000000D01*
X25500000Y-28500000D02*
X25500000Y-15250000D01*
X24920000Y-30250000D02*
X24920000Y-29080000D01*
X25250000Y-15000000D02*
X25250000Y-14525000D01*
X24920000Y-29080000D02*
X25500000Y-28500000D01*
X44000010Y-3113604D02*
X44000010Y-3750000D01*
X30502983Y19752983D02*
X44000010Y6255956D01*
X44000010Y6255956D02*
X44000010Y-3113604D01*
X20250000Y-12000000D02*
X17724974Y-12000000D01*
X12984269Y-9124071D02*
X13620665Y-9124071D01*
X8470102Y-9124071D02*
X12984269Y-9124071D01*
X7105254Y-7759223D02*
X8470102Y-9124071D01*
X20250000Y-13250000D02*
X17850013Y-13250000D01*
X17850013Y-13250000D02*
X17750000Y-13149987D01*
X14047374Y-7797364D02*
X14497373Y-8247363D01*
X8250000Y-7724990D02*
X13975000Y-7724990D01*
X13975000Y-7724990D02*
X14047374Y-7797364D01*
X-21250000Y21250000D02*
X-22500000Y20000000D01*
X20250000Y-14500000D02*
X17750000Y-14500000D01*
X14521076Y-3521076D02*
X16120838Y-5120838D01*
X12249927Y-3521076D02*
X14521076Y-3521076D01*
X9250005Y-10500005D02*
X8750005Y-10500005D01*
X8750005Y-10500005D02*
X8750000Y-10500000D01*
X8750000Y-10500000D02*
X12244736Y-10500000D01*
X12244736Y-10500000D02*
X12247368Y-10497368D01*
X-4250000Y7750000D02*
X-2900010Y6400010D01*
X-2900010Y6400010D02*
X8486386Y6400010D01*
X8486386Y6400010D02*
X9500000Y5386396D01*
X9500000Y5386396D02*
X9500000Y4750000D01*
X38500000Y-1500000D02*
X27797545Y-1500000D01*
X27797545Y-1500000D02*
X27773768Y-1476223D01*
X17750000Y28500000D02*
X15000000Y25750000D01*
X28250000Y28500000D02*
X17750000Y28500000D01*
X40225000Y4305000D02*
X40225000Y6305010D01*
X-34000000Y-6585787D02*
X-34000000Y-1500000D01*
X-34000000Y-8000000D02*
X-34000000Y-6585787D01*
X25398194Y-374628D02*
X25122800Y-650022D01*
X12272821Y-11749999D02*
X-30250001Y-11749999D01*
X-33000001Y-8999999D02*
X-34000000Y-8000000D01*
X23372799Y-650022D02*
X12272821Y-11749999D01*
X-30250001Y-11749999D02*
X-33000001Y-8999999D01*
X33374628Y-374628D02*
X25398194Y-374628D01*
X25122800Y-650022D02*
X23372799Y-650022D01*
X26049989Y-6295933D02*
X23187961Y-3433905D01*
X35080000Y-30250000D02*
X26049989Y-21219989D01*
X23187961Y-3433905D02*
X23187961Y-2502671D01*
X26049989Y-21219989D02*
X26049989Y-6295933D01*
X23815589Y-1875043D02*
X24451985Y-1875043D01*
X23187961Y-2502671D02*
X23815589Y-1875043D01*
X37620000Y-30250000D02*
X36153590Y-28783590D01*
X34250000Y-28783590D02*
X26500000Y-21033590D01*
X36153590Y-28783590D02*
X34250000Y-28783590D01*
X26500000Y-21033590D02*
X26500000Y-5598940D01*
X26500000Y-5598940D02*
X24412962Y-3511902D01*
X24412962Y-3511902D02*
X23962963Y-3061903D01*
X26338586Y2838586D02*
X27775000Y4275000D01*
X27775000Y4275000D02*
X27775000Y7438614D01*
X21174978Y3750009D02*
X22086401Y2838586D01*
X27775000Y7438614D02*
X27775000Y8075010D01*
X22086401Y2838586D02*
X26338586Y2838586D01*
X28411497Y29400001D02*
X28844749Y28966749D01*
X21349875Y12567287D02*
X21349875Y8153702D01*
X21349875Y8153702D02*
X21349875Y7517306D01*
X28844749Y20062161D02*
X21349875Y12567287D01*
X28844749Y28966749D02*
X28844749Y20062161D01*
X28309999Y29400001D02*
X28411497Y29400001D01*
X27460000Y30250000D02*
X28309999Y29400001D01*
X30000000Y20581001D02*
X22174999Y12756000D01*
X22174999Y12756000D02*
X22174999Y7027981D01*
X20450003Y7050001D02*
X20000004Y7500000D01*
X20775006Y6724998D02*
X20450003Y7050001D01*
X21872016Y6724998D02*
X20775006Y6724998D01*
X30000000Y30250000D02*
X30000000Y20581001D01*
X22174999Y7027981D02*
X21872016Y6724998D01*
X-35073590Y-21460000D02*
X-28949995Y-15336405D01*
X-28949995Y-14663303D02*
X-28949995Y-14026907D01*
X-28949995Y-15336405D02*
X-28949995Y-14663303D01*
X-38250000Y-21460000D02*
X-35073590Y-21460000D01*
X-38250000Y-18920000D02*
X-33170000Y-18920000D01*
X-28300953Y-13530714D02*
X-27850954Y-13980713D01*
X-29724998Y-15474998D02*
X-29724998Y-13577996D01*
X-29724998Y-13577996D02*
X-29372001Y-13224999D01*
X-33170000Y-18920000D02*
X-29724998Y-15474998D01*
X-29372001Y-13224999D02*
X-28606668Y-13224999D01*
X-28606668Y-13224999D02*
X-28300953Y-13530714D01*
X-28250000Y-15750000D02*
X-28250000Y-16275000D01*
X-28250000Y-15526761D02*
X-28250000Y-15750000D01*
X-27075953Y-14352714D02*
X-28250000Y-15526761D01*
X-36000000Y4750000D02*
X-36000000Y-8772822D01*
X-30750000Y10000000D02*
X-36000000Y4750000D01*
X-35950010Y-8822811D02*
X-35950010Y4696992D01*
X-32122802Y-12650019D02*
X-35950010Y-8822811D01*
X-28034645Y-12650020D02*
X-32122802Y-12650019D01*
X-27075953Y-14352714D02*
X-27075953Y-13608712D01*
X-27075953Y-13608712D02*
X-28034645Y-12650020D01*
X-31199999Y8300001D02*
X-30750000Y8750000D01*
X-35500000Y4000000D02*
X-31199999Y8300001D01*
X-31936401Y-12200010D02*
X-35500000Y-8636411D01*
X12459221Y-12200010D02*
X-31936401Y-12200010D01*
X17409221Y-7250009D02*
X12459221Y-12200010D01*
X-35500000Y-8636411D02*
X-35500000Y4000000D01*
X20175031Y-7250009D02*
X17409221Y-7250009D01*
X16728473Y-8567168D02*
X19596812Y-8567168D01*
X-20950011Y-12700011D02*
X12595630Y-12700011D01*
X19596812Y-8567168D02*
X20233208Y-8567168D01*
X12595630Y-12700011D02*
X16728473Y-8567168D01*
X-32250000Y-24000000D02*
X-20950011Y-12700011D01*
X20250000Y-9750000D02*
X16182052Y-9750000D01*
X16182052Y-9750000D02*
X12782030Y-13150022D01*
X-13900022Y-13150022D02*
X-23750001Y-23000001D01*
X-23750001Y-23000001D02*
X-24750000Y-24000000D01*
X12782030Y-13150022D02*
X-13900022Y-13150022D01*
X-6850033Y-13600033D02*
X-16250001Y-23000001D01*
X20250000Y-10850003D02*
X15718460Y-10850003D01*
X15718460Y-10850003D02*
X12968430Y-13600033D01*
X-16250001Y-23000001D02*
X-17250000Y-24000000D01*
X12968430Y-13600033D02*
X-6850033Y-13600033D01*
X46250000Y2540000D02*
X44550012Y840012D01*
X27099996Y-1949999D02*
X26649997Y-1500000D01*
X42147014Y-6750000D02*
X32500000Y-6750000D01*
X27424998Y-2275001D02*
X27099996Y-1949999D01*
X28025001Y-2275001D02*
X27424998Y-2275001D01*
X44775012Y-4122002D02*
X42147014Y-6750000D01*
X44775012Y-3377998D02*
X44775012Y-4122002D01*
X32500000Y-6750000D02*
X28025001Y-2275001D01*
X44550012Y-3152998D02*
X44775012Y-3377998D01*
X44550012Y840012D02*
X44550012Y-3152998D01*
X45225023Y-3191598D02*
X45225023Y-4308402D01*
X27586668Y-2895759D02*
X26950272Y-2895759D01*
X46250000Y0D02*
X45000023Y-1249977D01*
X27895759Y-2895759D02*
X27586668Y-2895759D01*
X32200011Y-7200011D02*
X27895759Y-2895759D01*
X45000023Y-1249977D02*
X45000023Y-2966598D01*
X45000023Y-2966598D02*
X45225023Y-3191598D01*
X42333414Y-7200011D02*
X32200011Y-7200011D01*
X45225023Y-4308402D02*
X42333414Y-7200011D01*
D21*
X-4250000Y1250000D02*
X-11462500Y1250000D01*
X-11462500Y1250000D02*
X-16650013Y6437513D01*
X-16449999Y27300001D02*
X-16000000Y27750000D01*
X-16650013Y6437513D02*
X-16650013Y27099987D01*
X-16650013Y27099987D02*
X-16449999Y27300001D01*
D22*
X2000000Y-8250000D02*
X3399979Y-6850021D01*
X3399979Y-6850021D02*
X7500000Y-6850021D01*
X7500000Y-6850021D02*
X8600021Y-6850021D01*
X23186400Y-200011D02*
X24936400Y-200011D01*
X27297862Y1653118D02*
X27747861Y2103117D01*
X24936400Y-200011D02*
X26789529Y1653118D01*
X26789529Y1653118D02*
X27297862Y1653118D01*
X16536390Y-6850021D02*
X23186400Y-200011D01*
X7500000Y-6850021D02*
X16536390Y-6850021D01*
X4769990Y-6400010D02*
X5000000Y-6400010D01*
X2599990Y-6400010D02*
X5000000Y-6400010D01*
X500000Y-8250000D02*
X750000Y-8250000D01*
X750000Y-8250000D02*
X2599990Y-6400010D01*
X5000000Y-6400010D02*
X16349990Y-6400010D01*
X23000000Y250000D02*
X24750000Y250000D01*
X27701985Y3201985D02*
X27798015Y3201985D01*
X24750000Y250000D02*
X27701985Y3201985D01*
X16349990Y-6400010D02*
X23000000Y250000D01*
X19263583Y6850021D02*
X21913605Y4199999D01*
X500000Y8250000D02*
X1899979Y6850021D01*
X22274991Y4199999D02*
X22724990Y3750000D01*
X1899979Y6850021D02*
X19263583Y6850021D01*
X21913605Y4199999D02*
X22274991Y4199999D01*
X7000000Y2274926D02*
X8274946Y2274926D01*
X8274946Y2274926D02*
X9050001Y3049981D01*
X9050001Y3049981D02*
X9500000Y3499980D01*
X-2250000Y1250000D02*
X-2250000Y-1250006D01*
X43225000Y6111710D02*
X30361554Y18975156D01*
X43225000Y-2275000D02*
X43225000Y6111710D01*
X30361554Y18975156D02*
X29725158Y18975156D01*
X30166259Y18197331D02*
X29583727Y18197331D01*
X29583727Y18197331D02*
X28947331Y18197331D01*
X42124997Y-2275000D02*
X42124997Y6238593D01*
X42124997Y6238593D02*
X30166259Y18197331D01*
X41000000Y-2275000D02*
X41000000Y6636396D01*
X30216891Y17419505D02*
X28805902Y17419505D01*
X41000000Y6636396D02*
X30216891Y17419505D01*
X28805902Y17419505D02*
X28169506Y17419505D01*
X28550010Y6500000D02*
X28550010Y15483349D01*
X27841672Y16191687D02*
X27391673Y16641686D01*
X28550010Y15483349D02*
X27841672Y16191687D01*
X21000000Y23750000D02*
X16500000Y19250000D01*
X16500000Y19250000D02*
X16500000Y9636396D01*
X16500000Y9636396D02*
X16500000Y9000000D01*
X14750000Y2400019D02*
X14750000Y4750000D01*
X16198034Y951985D02*
X14750000Y2400019D01*
X14750000Y4750000D02*
X14750000Y6000000D01*
X15250000Y20000000D02*
X15250000Y9636396D01*
X15250000Y9636396D02*
X15250000Y9000000D01*
X19000000Y23750000D02*
X15250000Y20000000D01*
X13500000Y6000000D02*
X13500000Y2000000D01*
X15302632Y197368D02*
X15752631Y-252631D01*
X13500000Y2000000D02*
X15302632Y197368D01*
X13999994Y20749994D02*
X13999994Y9636396D01*
X13999994Y9636396D02*
X13999994Y9000000D01*
X17000000Y23750000D02*
X13999994Y20749994D01*
X25727555Y14576129D02*
X25727555Y15212525D01*
X25727555Y4977551D02*
X25727555Y14576129D01*
X24750000Y3999996D02*
X25727555Y4977551D01*
X26033214Y3985239D02*
X26614429Y4566454D01*
X26614429Y4566454D02*
X26614429Y15226883D01*
X26614429Y15226883D02*
X26614429Y15863279D01*
D23*
G36*
X34313076Y31521645D02*
X33884817Y31131358D01*
X33659977Y30652594D01*
X33648709Y30709242D01*
X33388569Y31098569D01*
X32999242Y31358709D01*
X32655920Y31427000D01*
X32424080Y31427000D01*
X32080758Y31358709D01*
X31691431Y31098569D01*
X31431291Y30709242D01*
X31339942Y30250000D01*
X31431291Y29790758D01*
X31691431Y29401431D01*
X32080758Y29141291D01*
X32424080Y29073000D01*
X32655920Y29073000D01*
X32999242Y29141291D01*
X33388569Y29401431D01*
X33648709Y29790758D01*
X33659977Y29847406D01*
X33884817Y29368642D01*
X34313076Y28978355D01*
X34723110Y28808524D01*
X34953000Y28929845D01*
X34953000Y30123000D01*
X34933000Y30123000D01*
X34933000Y30377000D01*
X34953000Y30377000D01*
X34953000Y30397000D01*
X35207000Y30397000D01*
X35207000Y30377000D01*
X35227000Y30377000D01*
X35227000Y30123000D01*
X35207000Y30123000D01*
X35207000Y28929845D01*
X35436890Y28808524D01*
X35846924Y28978355D01*
X36275183Y29368642D01*
X36436594Y29712343D01*
X36436594Y29400000D01*
X36461973Y29272411D01*
X36534246Y29164246D01*
X36642411Y29091973D01*
X36770000Y29066594D01*
X38470000Y29066594D01*
X38597589Y29091973D01*
X38705754Y29164246D01*
X38778027Y29272411D01*
X38803406Y29400000D01*
X38803406Y31100000D01*
X38778027Y31227589D01*
X38705754Y31335754D01*
X38597589Y31408027D01*
X38470000Y31433406D01*
X36770000Y31433406D01*
X36642411Y31408027D01*
X36534246Y31335754D01*
X36461973Y31227589D01*
X36436594Y31100000D01*
X36436594Y30787657D01*
X36275183Y31131358D01*
X35846924Y31521645D01*
X35662575Y31598000D01*
X43730342Y31598000D01*
X44497036Y31522825D01*
X45215621Y31305872D01*
X45878383Y30953475D01*
X46460075Y30479059D01*
X46938536Y29900700D01*
X47295552Y29240412D01*
X47517517Y28523360D01*
X47597969Y27757903D01*
X47598001Y27748876D01*
X47598000Y-4497426D01*
X47521645Y-4313076D01*
X47131358Y-3884817D01*
X46652594Y-3659977D01*
X46709242Y-3648709D01*
X47098569Y-3388569D01*
X47358709Y-2999242D01*
X47450058Y-2540000D01*
X47358709Y-2080758D01*
X47098569Y-1691431D01*
X46709242Y-1431291D01*
X46365920Y-1363000D01*
X46134080Y-1363000D01*
X45790758Y-1431291D01*
X45452023Y-1657627D01*
X45452023Y-1437201D01*
X45784618Y-1104606D01*
X45790758Y-1108709D01*
X46134080Y-1177000D01*
X46365920Y-1177000D01*
X46709242Y-1108709D01*
X47098569Y-848569D01*
X47358709Y-459242D01*
X47450058Y0D01*
X47358709Y459242D01*
X47098569Y848569D01*
X46709242Y1108709D01*
X46365920Y1177000D01*
X46134080Y1177000D01*
X45790758Y1108709D01*
X45401431Y848569D01*
X45141291Y459242D01*
X45049942Y0D01*
X45141291Y-459242D01*
X45145394Y-465382D01*
X45002012Y-608764D01*
X45002012Y652788D01*
X45784618Y1435394D01*
X45790758Y1431291D01*
X46134080Y1363000D01*
X46365920Y1363000D01*
X46709242Y1431291D01*
X47098569Y1691431D01*
X47358709Y2080758D01*
X47450058Y2540000D01*
X47358709Y2999242D01*
X47098569Y3388569D01*
X46709242Y3648709D01*
X46365920Y3717000D01*
X46134080Y3717000D01*
X45790758Y3648709D01*
X45401431Y3388569D01*
X45141291Y2999242D01*
X45049942Y2540000D01*
X45141291Y2080758D01*
X45145394Y2074618D01*
X44261881Y1191105D01*
X44224138Y1165886D01*
X44177071Y1095445D01*
X44124237Y1016373D01*
X44089157Y840012D01*
X44098012Y795494D01*
X44098013Y-3108476D01*
X44089157Y-3152998D01*
X44124237Y-3329359D01*
X44180181Y-3413084D01*
X44224139Y-3478872D01*
X44261879Y-3504089D01*
X44323012Y-3565222D01*
X44323013Y-3934777D01*
X41959790Y-6298000D01*
X32687225Y-6298000D01*
X28376094Y-1986870D01*
X28370435Y-1978400D01*
X28396835Y-1952000D01*
X37853156Y-1952000D01*
X38059865Y-2158709D01*
X38345445Y-2277000D01*
X38654555Y-2277000D01*
X38940135Y-2158709D01*
X39158709Y-1940135D01*
X39277000Y-1654555D01*
X39277000Y-1345445D01*
X39158709Y-1059865D01*
X38940135Y-841291D01*
X38654555Y-723000D01*
X38345445Y-723000D01*
X38059865Y-841291D01*
X37853156Y-1048000D01*
X33779363Y-1048000D01*
X33814763Y-1033337D01*
X34033337Y-814763D01*
X34151628Y-529183D01*
X34151628Y-220073D01*
X34033337Y65507D01*
X33814763Y284081D01*
X33529183Y402372D01*
X33220073Y402372D01*
X32934493Y284081D01*
X32727784Y77372D01*
X25853007Y77372D01*
X26976754Y1201118D01*
X27253344Y1201118D01*
X27297862Y1192263D01*
X27342380Y1201118D01*
X27474224Y1227343D01*
X27622049Y1326117D01*
X27902416Y1326117D01*
X28187996Y1444408D01*
X28406570Y1662982D01*
X28524861Y1948562D01*
X28524861Y2257672D01*
X28406570Y2543252D01*
X28322348Y2627474D01*
X28456724Y2761850D01*
X28575015Y3047430D01*
X28575015Y3356540D01*
X28456724Y3642120D01*
X28238150Y3860694D01*
X28071707Y3929637D01*
X28100874Y3949126D01*
X28200775Y4098638D01*
X28206742Y4128638D01*
X28235855Y4274999D01*
X28227000Y4319517D01*
X28227000Y5792776D01*
X28395455Y5723000D01*
X28704565Y5723000D01*
X28990145Y5841291D01*
X29208719Y6059865D01*
X29327010Y6345445D01*
X29327010Y6654555D01*
X29208719Y6940135D01*
X29002010Y7146844D01*
X29002010Y9850000D01*
X31066594Y9850000D01*
X31066594Y8150000D01*
X31091973Y8022411D01*
X31164246Y7914246D01*
X31272411Y7841973D01*
X31400000Y7816594D01*
X33100000Y7816594D01*
X33227589Y7841973D01*
X33335754Y7914246D01*
X33408027Y8022411D01*
X33433406Y8150000D01*
X33433406Y9850000D01*
X33408027Y9977589D01*
X33335754Y10085754D01*
X33227589Y10158027D01*
X33100000Y10183406D01*
X31400000Y10183406D01*
X31272411Y10158027D01*
X31164246Y10085754D01*
X31091973Y9977589D01*
X31066594Y9850000D01*
X29002010Y9850000D01*
X29002010Y11540000D01*
X31049942Y11540000D01*
X31141291Y11080758D01*
X31401431Y10691431D01*
X31790758Y10431291D01*
X32134080Y10363000D01*
X32365920Y10363000D01*
X32709242Y10431291D01*
X33098569Y10691431D01*
X33358709Y11080758D01*
X33450058Y11540000D01*
X33358709Y11999242D01*
X33098569Y12388569D01*
X32709242Y12648709D01*
X32365920Y12717000D01*
X32134080Y12717000D01*
X31790758Y12648709D01*
X31401431Y12388569D01*
X31141291Y11999242D01*
X31049942Y11540000D01*
X29002010Y11540000D01*
X29002010Y15438832D01*
X29010865Y15483350D01*
X28975785Y15659711D01*
X28928263Y15730832D01*
X28875884Y15809223D01*
X28838143Y15834441D01*
X28192765Y16479818D01*
X28192763Y16479821D01*
X28168673Y16503911D01*
X28168673Y16642505D01*
X28324061Y16642505D01*
X28609641Y16760796D01*
X28816350Y16967505D01*
X30029667Y16967505D01*
X39960643Y7036528D01*
X39784865Y6963719D01*
X39566291Y6745145D01*
X39448000Y6459565D01*
X39448000Y6150455D01*
X39566291Y5864875D01*
X39773001Y5658165D01*
X39773000Y4951844D01*
X39566291Y4745135D01*
X39448000Y4459555D01*
X39448000Y4150445D01*
X39566291Y3864865D01*
X39784865Y3646291D01*
X40070445Y3528000D01*
X40379555Y3528000D01*
X40548001Y3597772D01*
X40548000Y-1628156D01*
X40341291Y-1834865D01*
X40223000Y-2120445D01*
X40223000Y-2429555D01*
X40341291Y-2715135D01*
X40559865Y-2933709D01*
X40845445Y-3052000D01*
X41154555Y-3052000D01*
X41440135Y-2933709D01*
X41562499Y-2811346D01*
X41684862Y-2933709D01*
X41970442Y-3052000D01*
X42279552Y-3052000D01*
X42565132Y-2933709D01*
X42674999Y-2823843D01*
X42784865Y-2933709D01*
X43070445Y-3052000D01*
X43379555Y-3052000D01*
X43665135Y-2933709D01*
X43883709Y-2715135D01*
X44002000Y-2429555D01*
X44002000Y-2120445D01*
X43883709Y-1834865D01*
X43677000Y-1628156D01*
X43677000Y5080000D01*
X45049942Y5080000D01*
X45141291Y4620758D01*
X45401431Y4231431D01*
X45790758Y3971291D01*
X46134080Y3903000D01*
X46365920Y3903000D01*
X46709242Y3971291D01*
X47098569Y4231431D01*
X47358709Y4620758D01*
X47450058Y5080000D01*
X47358709Y5539242D01*
X47098569Y5928569D01*
X46709242Y6188709D01*
X46365920Y6257000D01*
X46134080Y6257000D01*
X45790758Y6188709D01*
X45401431Y5928569D01*
X45141291Y5539242D01*
X45049942Y5080000D01*
X43677000Y5080000D01*
X43677000Y6067192D01*
X43685855Y6111710D01*
X43650775Y6288072D01*
X43576572Y6399124D01*
X43550874Y6437584D01*
X43513134Y6462801D01*
X42355935Y7620000D01*
X45049942Y7620000D01*
X45141291Y7160758D01*
X45401431Y6771431D01*
X45790758Y6511291D01*
X46134080Y6443000D01*
X46365920Y6443000D01*
X46709242Y6511291D01*
X47098569Y6771431D01*
X47358709Y7160758D01*
X47450058Y7620000D01*
X47358709Y8079242D01*
X47098569Y8468569D01*
X46709242Y8728709D01*
X46365920Y8797000D01*
X46134080Y8797000D01*
X45790758Y8728709D01*
X45401431Y8468569D01*
X45141291Y8079242D01*
X45049942Y7620000D01*
X42355935Y7620000D01*
X30712647Y19263287D01*
X30687428Y19301030D01*
X30537916Y19400931D01*
X30406072Y19427156D01*
X30363543Y19435615D01*
X30165293Y19633865D01*
X29879713Y19752156D01*
X29810379Y19752156D01*
X30288131Y20229908D01*
X30325874Y20255127D01*
X30425775Y20404639D01*
X30452000Y20536483D01*
X30460855Y20581001D01*
X30452000Y20625519D01*
X30452000Y28033848D01*
X42323000Y28033848D01*
X42323000Y27466152D01*
X42540247Y26941669D01*
X42941669Y26540247D01*
X43466152Y26323000D01*
X44033848Y26323000D01*
X44558331Y26540247D01*
X44959753Y26941669D01*
X45177000Y27466152D01*
X45177000Y28033848D01*
X44959753Y28558331D01*
X44558331Y28959753D01*
X44033848Y29177000D01*
X43466152Y29177000D01*
X42941669Y28959753D01*
X42540247Y28558331D01*
X42323000Y28033848D01*
X30452000Y28033848D01*
X30452000Y29139850D01*
X30459242Y29141291D01*
X30848569Y29401431D01*
X31108709Y29790758D01*
X31200058Y30250000D01*
X31108709Y30709242D01*
X30848569Y31098569D01*
X30459242Y31358709D01*
X30115920Y31427000D01*
X29884080Y31427000D01*
X29540758Y31358709D01*
X29151431Y31098569D01*
X28891291Y30709242D01*
X28799942Y30250000D01*
X28891291Y29790758D01*
X29151431Y29401431D01*
X29540758Y29141291D01*
X29548000Y29139850D01*
X29548001Y20768226D01*
X29296749Y20516974D01*
X29296749Y28922231D01*
X29305604Y28966749D01*
X29296584Y29012099D01*
X29270524Y29143111D01*
X29170623Y29292623D01*
X29132883Y29317840D01*
X28762590Y29688132D01*
X28737371Y29725875D01*
X28587859Y29825776D01*
X28576138Y29828107D01*
X28660058Y30250000D01*
X28568709Y30709242D01*
X28308569Y31098569D01*
X27919242Y31358709D01*
X27575920Y31427000D01*
X27344080Y31427000D01*
X27000758Y31358709D01*
X26611431Y31098569D01*
X26351291Y30709242D01*
X26259942Y30250000D01*
X26351291Y29790758D01*
X26611431Y29401431D01*
X27000758Y29141291D01*
X27344080Y29073000D01*
X27449156Y29073000D01*
X27411039Y29034883D01*
X27376708Y28952000D01*
X17794516Y28952000D01*
X17749999Y28960855D01*
X17705483Y28952000D01*
X17705482Y28952000D01*
X17573638Y28925775D01*
X17424126Y28825874D01*
X17398909Y28788134D01*
X15318961Y26708185D01*
X15098687Y26752000D01*
X14901313Y26752000D01*
X14609039Y26693863D01*
X14277598Y26472402D01*
X14056137Y26140961D01*
X13978370Y25750000D01*
X14056137Y25359039D01*
X14255948Y25060000D01*
X14198690Y25060000D01*
X13965301Y24963327D01*
X13786673Y24784698D01*
X13690000Y24551309D01*
X13690000Y24035750D01*
X13848750Y23877000D01*
X14873000Y23877000D01*
X14873000Y23897000D01*
X15127000Y23897000D01*
X15127000Y23877000D01*
X15147000Y23877000D01*
X15147000Y23623000D01*
X15127000Y23623000D01*
X15127000Y22598750D01*
X15168263Y22557487D01*
X13711863Y21101087D01*
X13674120Y21075868D01*
X13597947Y20961866D01*
X13574219Y20926355D01*
X13539139Y20749994D01*
X13547994Y20705476D01*
X13547995Y9680918D01*
X13547994Y9680913D01*
X13547994Y9646844D01*
X13341285Y9440135D01*
X13222994Y9154555D01*
X13222994Y8845445D01*
X13341285Y8559865D01*
X13559859Y8341291D01*
X13845439Y8223000D01*
X14154549Y8223000D01*
X14440129Y8341291D01*
X14624997Y8526159D01*
X14809865Y8341291D01*
X15095445Y8223000D01*
X15404555Y8223000D01*
X15690135Y8341291D01*
X15875000Y8526156D01*
X16059865Y8341291D01*
X16345445Y8223000D01*
X16654555Y8223000D01*
X16940135Y8341291D01*
X17158709Y8559865D01*
X17277000Y8845445D01*
X17277000Y9154555D01*
X17158709Y9440135D01*
X16952000Y9646844D01*
X16952000Y19062776D01*
X20681040Y22791815D01*
X20901313Y22748000D01*
X21098687Y22748000D01*
X21390961Y22806137D01*
X21722402Y23027598D01*
X21943863Y23359039D01*
X22000000Y23641259D01*
X22056137Y23359039D01*
X22277598Y23027598D01*
X22609039Y22806137D01*
X22901313Y22748000D01*
X23098687Y22748000D01*
X23390961Y22806137D01*
X23722402Y23027598D01*
X23943863Y23359039D01*
X24000000Y23641259D01*
X24056137Y23359039D01*
X24277598Y23027598D01*
X24609039Y22806137D01*
X24901313Y22748000D01*
X25098687Y22748000D01*
X25390961Y22806137D01*
X25722402Y23027598D01*
X25943863Y23359039D01*
X26021630Y23750000D01*
X25943863Y24140961D01*
X25722402Y24472402D01*
X25390961Y24693863D01*
X25108742Y24750000D01*
X25390961Y24806137D01*
X25722402Y25027598D01*
X25943863Y25359039D01*
X26021630Y25750000D01*
X25943863Y26140961D01*
X25722402Y26472402D01*
X25390961Y26693863D01*
X25098687Y26752000D01*
X24901313Y26752000D01*
X24609039Y26693863D01*
X24277598Y26472402D01*
X24056137Y26140961D01*
X24000000Y25858741D01*
X23943863Y26140961D01*
X23722402Y26472402D01*
X23390961Y26693863D01*
X23098687Y26752000D01*
X22901313Y26752000D01*
X22609039Y26693863D01*
X22277598Y26472402D01*
X22056137Y26140961D01*
X22000000Y25858741D01*
X21943863Y26140961D01*
X21722402Y26472402D01*
X21390961Y26693863D01*
X21098687Y26752000D01*
X20901313Y26752000D01*
X20609039Y26693863D01*
X20277598Y26472402D01*
X20056137Y26140961D01*
X20000000Y25858741D01*
X19943863Y26140961D01*
X19722402Y26472402D01*
X19390961Y26693863D01*
X19098687Y26752000D01*
X18901313Y26752000D01*
X18609039Y26693863D01*
X18277598Y26472402D01*
X18056137Y26140961D01*
X18000000Y25858741D01*
X17943863Y26140961D01*
X17722402Y26472402D01*
X17390961Y26693863D01*
X17098687Y26752000D01*
X16901313Y26752000D01*
X16609039Y26693863D01*
X16530830Y26641606D01*
X17937225Y28048000D01*
X27517652Y28048000D01*
X27629613Y27936039D01*
X27915193Y27817748D01*
X28224303Y27817748D01*
X28392749Y27887521D01*
X28392750Y20249386D01*
X21061744Y12918380D01*
X21024001Y12893161D01*
X20962099Y12800518D01*
X20924100Y12743648D01*
X20889020Y12567287D01*
X20897875Y12522769D01*
X20897876Y8198224D01*
X20897875Y8198219D01*
X20897875Y8164150D01*
X20691166Y7957441D01*
X20671355Y7909614D01*
X20658713Y7940135D01*
X20440139Y8158709D01*
X20154559Y8277000D01*
X19845449Y8277000D01*
X19559869Y8158709D01*
X19341295Y7940135D01*
X19223004Y7654555D01*
X19223004Y7345445D01*
X19239322Y7306050D01*
X19219065Y7302021D01*
X2087204Y7302021D01*
X1277000Y8112224D01*
X1277000Y8404555D01*
X1158709Y8690135D01*
X940135Y8908709D01*
X654555Y9027000D01*
X345445Y9027000D01*
X59865Y8908709D01*
X-158709Y8690135D01*
X-277000Y8404555D01*
X-277000Y8095445D01*
X-158709Y7809865D01*
X59865Y7591291D01*
X345445Y7473000D01*
X637776Y7473000D01*
X1258765Y6852010D01*
X-2712785Y6852010D01*
X-3473000Y7612224D01*
X-3473000Y7904555D01*
X-3591291Y8190135D01*
X-3809865Y8408709D01*
X-4095445Y8527000D01*
X-4404555Y8527000D01*
X-4690135Y8408709D01*
X-4908709Y8190135D01*
X-5027000Y7904555D01*
X-5027000Y7595445D01*
X-4908709Y7309865D01*
X-4690135Y7091291D01*
X-4404555Y6973000D01*
X-4112224Y6973000D01*
X-3541225Y6402000D01*
X-8210410Y6402000D01*
X-8250000Y6409875D01*
X-8289590Y6402000D01*
X-8406852Y6378675D01*
X-8539825Y6289825D01*
X-8628675Y6156852D01*
X-8659875Y6000000D01*
X-8651999Y5960405D01*
X-8652000Y3039590D01*
X-8659875Y3000000D01*
X-8628675Y2843148D01*
X-8617079Y2825794D01*
X-8539825Y2710175D01*
X-8406852Y2621325D01*
X-8250000Y2590125D01*
X-8210410Y2598000D01*
X6292803Y2598000D01*
X6223000Y2429481D01*
X6223000Y2222558D01*
X5807770Y2500006D01*
X5420696Y2577000D01*
X5159304Y2577000D01*
X4772230Y2500006D01*
X4333287Y2206713D01*
X4083406Y1832741D01*
X4083406Y2250000D01*
X4058027Y2377589D01*
X3985754Y2485754D01*
X3877589Y2558027D01*
X3750000Y2583406D01*
X1750000Y2583406D01*
X1622411Y2558027D01*
X1514246Y2485754D01*
X1441973Y2377589D01*
X1416594Y2250000D01*
X1416594Y250000D01*
X1441973Y122411D01*
X1514246Y14246D01*
X1622411Y-58027D01*
X1750000Y-83406D01*
X3750000Y-83406D01*
X3877589Y-58027D01*
X3985754Y14246D01*
X4058027Y122411D01*
X4083406Y250000D01*
X4083406Y667259D01*
X4333287Y293287D01*
X4772230Y-6D01*
X5159304Y-77000D01*
X5420696Y-77000D01*
X5807770Y-6D01*
X6246713Y293287D01*
X6540006Y732230D01*
X6642997Y1250000D01*
X6571075Y1611573D01*
X6845445Y1497926D01*
X7154555Y1497926D01*
X7440135Y1616217D01*
X7646844Y1822926D01*
X8230428Y1822926D01*
X8274946Y1814071D01*
X8319464Y1822926D01*
X8451308Y1849151D01*
X8600820Y1949052D01*
X8626039Y1986795D01*
X9362225Y2722980D01*
X9654555Y2722980D01*
X9940135Y2841271D01*
X10158709Y3059845D01*
X10277000Y3345425D01*
X10277000Y3654535D01*
X10158709Y3940115D01*
X9973834Y4124990D01*
X10158709Y4309865D01*
X10277000Y4595445D01*
X10277000Y4904555D01*
X10158709Y5190135D01*
X9960459Y5388385D01*
X9925775Y5562758D01*
X9851091Y5674530D01*
X9825874Y5712270D01*
X9788134Y5737487D01*
X9127599Y6398021D01*
X12823847Y6398021D01*
X12723000Y6154555D01*
X12723000Y5845445D01*
X12841291Y5559865D01*
X13048000Y5353156D01*
X13048001Y2044522D01*
X13039145Y2000000D01*
X13074225Y1823639D01*
X13080009Y1814983D01*
X13174127Y1674126D01*
X13211867Y1648909D01*
X14975631Y-114856D01*
X14975631Y-407186D01*
X15093922Y-692766D01*
X15312496Y-911340D01*
X15598076Y-1029631D01*
X15907186Y-1029631D01*
X16192766Y-911340D01*
X16411340Y-692766D01*
X16529631Y-407186D01*
X16529631Y-98076D01*
X16411340Y187504D01*
X16402985Y195859D01*
X16638169Y293276D01*
X16856743Y511850D01*
X16975034Y797430D01*
X16975034Y1106540D01*
X16856743Y1392120D01*
X16638169Y1610694D01*
X16352589Y1728985D01*
X16060259Y1728985D01*
X15202000Y2587243D01*
X15202000Y5353156D01*
X15408709Y5559865D01*
X15527000Y5845445D01*
X15527000Y6154555D01*
X15426153Y6398021D01*
X19076359Y6398021D01*
X20968767Y4505612D01*
X20734843Y4408718D01*
X20516269Y4190144D01*
X20397978Y3904564D01*
X20397978Y3595454D01*
X20516269Y3309874D01*
X20734843Y3091300D01*
X21020423Y2973009D01*
X21312753Y2973009D01*
X21735309Y2550453D01*
X21760527Y2512712D01*
X21890637Y2425775D01*
X21910039Y2412811D01*
X22086401Y2377731D01*
X22130919Y2386586D01*
X26247361Y2386586D01*
X24562776Y702000D01*
X23044516Y702000D01*
X22999999Y710855D01*
X22955483Y702000D01*
X22955482Y702000D01*
X22823638Y675775D01*
X22674126Y575874D01*
X22648909Y538134D01*
X17023582Y-5087194D01*
X16908709Y-4809865D01*
X16690135Y-4591291D01*
X16404555Y-4473000D01*
X16112225Y-4473000D01*
X14872169Y-3232945D01*
X14846950Y-3195202D01*
X14697438Y-3095301D01*
X14565594Y-3069076D01*
X14521076Y-3060221D01*
X14476558Y-3069076D01*
X12896771Y-3069076D01*
X12690062Y-2862367D01*
X12404482Y-2744076D01*
X12095372Y-2744076D01*
X11809792Y-2862367D01*
X11591218Y-3080941D01*
X11472927Y-3366521D01*
X11472927Y-3492712D01*
X11393299Y-3413084D01*
X10813685Y-3173000D01*
X10186315Y-3173000D01*
X9606701Y-3413084D01*
X9163084Y-3856701D01*
X8923000Y-4436315D01*
X8923000Y-5063685D01*
X9163084Y-5643299D01*
X9467795Y-5948010D01*
X8652000Y-5948010D01*
X8652000Y-3039590D01*
X8659875Y-3000000D01*
X8628675Y-2843148D01*
X8539825Y-2710175D01*
X8406852Y-2621325D01*
X8289590Y-2598000D01*
X8250000Y-2590125D01*
X8210410Y-2598000D01*
X-8210410Y-2598000D01*
X-8250000Y-2590125D01*
X-8289590Y-2598000D01*
X-8406852Y-2621325D01*
X-8539825Y-2710175D01*
X-8628675Y-2843148D01*
X-8659875Y-3000000D01*
X-8651999Y-3039595D01*
X-8652000Y-5960410D01*
X-8659875Y-6000000D01*
X-8628675Y-6156852D01*
X-8539825Y-6289825D01*
X-8406852Y-6378675D01*
X-8250000Y-6409875D01*
X-8210410Y-6402000D01*
X1958775Y-6402000D01*
X819467Y-7541309D01*
X654555Y-7473000D01*
X345445Y-7473000D01*
X59865Y-7591291D01*
X-158709Y-7809865D01*
X-277000Y-8095445D01*
X-277000Y-8404555D01*
X-158709Y-8690135D01*
X59865Y-8908709D01*
X345445Y-9027000D01*
X654555Y-9027000D01*
X940135Y-8908709D01*
X1158709Y-8690135D01*
X1250000Y-8469739D01*
X1341291Y-8690135D01*
X1559865Y-8908709D01*
X1845445Y-9027000D01*
X2154555Y-9027000D01*
X2440135Y-8908709D01*
X2658709Y-8690135D01*
X2777000Y-8404555D01*
X2777000Y-8112224D01*
X3587204Y-7302021D01*
X6463612Y-7302021D01*
X6446545Y-7319088D01*
X6328254Y-7604668D01*
X6328254Y-7913778D01*
X6446545Y-8199358D01*
X6665119Y-8417932D01*
X6950699Y-8536223D01*
X7243030Y-8536223D01*
X8119009Y-9412202D01*
X8144228Y-9449945D01*
X8293740Y-9549846D01*
X8470102Y-9584926D01*
X8514620Y-9576071D01*
X12973821Y-9576071D01*
X13180530Y-9782780D01*
X13466110Y-9901071D01*
X13482525Y-9901071D01*
X13024368Y-10359228D01*
X13024368Y-10342813D01*
X12906077Y-10057233D01*
X12687503Y-9838659D01*
X12401923Y-9720368D01*
X12092813Y-9720368D01*
X11807233Y-9838659D01*
X11597892Y-10048000D01*
X9396844Y-10048000D01*
X9190135Y-9841291D01*
X8904555Y-9723000D01*
X8595445Y-9723000D01*
X8309865Y-9841291D01*
X8091291Y-10059865D01*
X7973000Y-10345445D01*
X7973000Y-10654555D01*
X8091291Y-10940135D01*
X8309865Y-11158709D01*
X8595445Y-11277000D01*
X8904555Y-11277000D01*
X9190135Y-11158709D01*
X9396844Y-10952000D01*
X11603156Y-10952000D01*
X11807233Y-11156077D01*
X12092813Y-11274368D01*
X12109228Y-11274368D01*
X12085597Y-11297999D01*
X-30062776Y-11297999D01*
X-32648908Y-8711868D01*
X-32648910Y-8711865D01*
X-32797134Y-8563641D01*
X-32673000Y-8263957D01*
X-32673000Y-7736043D01*
X-32875024Y-7248315D01*
X-33248315Y-6875024D01*
X-33548000Y-6750890D01*
X-33548000Y-2749110D01*
X-33248315Y-2624976D01*
X-32875024Y-2251685D01*
X-32673000Y-1763957D01*
X-32673000Y-1236043D01*
X-32875024Y-748315D01*
X-33248315Y-375024D01*
X-33736043Y-173000D01*
X-34263957Y-173000D01*
X-34751685Y-375024D01*
X-35048000Y-671339D01*
X-35048000Y3812776D01*
X-30887775Y7973000D01*
X-30595445Y7973000D01*
X-30309865Y8091291D01*
X-30091291Y8309865D01*
X-29973000Y8595445D01*
X-29973000Y8904555D01*
X-30091291Y9190135D01*
X-30276156Y9375000D01*
X-30091291Y9559865D01*
X-29973000Y9845445D01*
X-29973000Y10154555D01*
X-30091291Y10440135D01*
X-30309865Y10658709D01*
X-30595445Y10777000D01*
X-30904555Y10777000D01*
X-31190135Y10658709D01*
X-31408709Y10440135D01*
X-31527000Y10154555D01*
X-31527000Y9862225D01*
X-36288131Y5101093D01*
X-36325874Y5075874D01*
X-36391571Y4977551D01*
X-36425775Y4926361D01*
X-36460855Y4750000D01*
X-36452000Y4705483D01*
X-36451999Y-8817340D01*
X-36425774Y-8949184D01*
X-36325873Y-9098696D01*
X-36295907Y-9118719D01*
X-36275884Y-9148685D01*
X-36238141Y-9173904D01*
X-32473893Y-12938152D01*
X-32448676Y-12975892D01*
X-32410936Y-13001109D01*
X-32299164Y-13075793D01*
X-32122803Y-13110874D01*
X-32078282Y-13102018D01*
X-29888246Y-13102019D01*
X-30013131Y-13226905D01*
X-30050871Y-13252122D01*
X-30076088Y-13289862D01*
X-30076089Y-13289863D01*
X-30150773Y-13401635D01*
X-30185853Y-13577996D01*
X-30176997Y-13622518D01*
X-30176998Y-15287774D01*
X-30772930Y-15883706D01*
X-31014817Y-15368642D01*
X-31443076Y-14978355D01*
X-31853110Y-14808524D01*
X-32083000Y-14929845D01*
X-32083000Y-16123000D01*
X-32063000Y-16123000D01*
X-32063000Y-16377000D01*
X-32083000Y-16377000D01*
X-32083000Y-16397000D01*
X-32337000Y-16397000D01*
X-32337000Y-16377000D01*
X-32357000Y-16377000D01*
X-32357000Y-16123000D01*
X-32337000Y-16123000D01*
X-32337000Y-14929845D01*
X-32566890Y-14808524D01*
X-32976924Y-14978355D01*
X-33405183Y-15368642D01*
X-33566594Y-15712343D01*
X-33566594Y-15400000D01*
X-33591973Y-15272411D01*
X-33664246Y-15164246D01*
X-33772411Y-15091973D01*
X-33900000Y-15066594D01*
X-35600000Y-15066594D01*
X-35727589Y-15091973D01*
X-35835754Y-15164246D01*
X-35908027Y-15272411D01*
X-35933406Y-15400000D01*
X-35933406Y-17100000D01*
X-35908027Y-17227589D01*
X-35835754Y-17335754D01*
X-35727589Y-17408027D01*
X-35600000Y-17433406D01*
X-33900000Y-17433406D01*
X-33772411Y-17408027D01*
X-33664246Y-17335754D01*
X-33591973Y-17227589D01*
X-33566594Y-17100000D01*
X-33566594Y-16787657D01*
X-33405183Y-17131358D01*
X-32976924Y-17521645D01*
X-32576655Y-17687431D01*
X-33357224Y-18468000D01*
X-37139850Y-18468000D01*
X-37141291Y-18460758D01*
X-37401431Y-18071431D01*
X-37790758Y-17811291D01*
X-38134080Y-17743000D01*
X-38365920Y-17743000D01*
X-38709242Y-17811291D01*
X-39098569Y-18071431D01*
X-39358709Y-18460758D01*
X-39450058Y-18920000D01*
X-39358709Y-19379242D01*
X-39098569Y-19768569D01*
X-38709242Y-20028709D01*
X-38365920Y-20097000D01*
X-38134080Y-20097000D01*
X-37790758Y-20028709D01*
X-37401431Y-19768569D01*
X-37141291Y-19379242D01*
X-37139850Y-19372000D01*
X-33624814Y-19372000D01*
X-35260814Y-21008000D01*
X-37139850Y-21008000D01*
X-37141291Y-21000758D01*
X-37401431Y-20611431D01*
X-37790758Y-20351291D01*
X-38134080Y-20283000D01*
X-38365920Y-20283000D01*
X-38709242Y-20351291D01*
X-39098569Y-20611431D01*
X-39358709Y-21000758D01*
X-39450058Y-21460000D01*
X-39358709Y-21919242D01*
X-39098569Y-22308569D01*
X-38709242Y-22568709D01*
X-38365920Y-22637000D01*
X-38134080Y-22637000D01*
X-37790758Y-22568709D01*
X-37401431Y-22308569D01*
X-37141291Y-21919242D01*
X-37139850Y-21912000D01*
X-35118108Y-21912000D01*
X-35073590Y-21920855D01*
X-35029072Y-21912000D01*
X-34897228Y-21885775D01*
X-34747716Y-21785874D01*
X-34722497Y-21748131D01*
X-28979051Y-16004686D01*
X-29027000Y-16120445D01*
X-29027000Y-16429555D01*
X-28908709Y-16715135D01*
X-28690135Y-16933709D01*
X-28404555Y-17052000D01*
X-28095445Y-17052000D01*
X-27809865Y-16933709D01*
X-27591291Y-16715135D01*
X-27473000Y-16429555D01*
X-27473000Y-16120445D01*
X-27591291Y-15834865D01*
X-27755085Y-15671071D01*
X-26787819Y-14703805D01*
X-26750079Y-14678588D01*
X-26650178Y-14529076D01*
X-26650178Y-14529075D01*
X-26615098Y-14352715D01*
X-26623953Y-14308197D01*
X-26623953Y-13653228D01*
X-26615098Y-13608711D01*
X-26626603Y-13550873D01*
X-26650178Y-13432350D01*
X-26750079Y-13282838D01*
X-26787820Y-13257620D01*
X-27393431Y-12652010D01*
X-21541235Y-12652010D01*
X-31686358Y-22797134D01*
X-31986043Y-22673000D01*
X-32513957Y-22673000D01*
X-33001685Y-22875024D01*
X-33374976Y-23248315D01*
X-33577000Y-23736043D01*
X-33577000Y-24263957D01*
X-33374976Y-24751685D01*
X-33001685Y-25124976D01*
X-32513957Y-25327000D01*
X-31986043Y-25327000D01*
X-31498315Y-25124976D01*
X-31125024Y-24751685D01*
X-30923000Y-24263957D01*
X-30923000Y-23736043D01*
X-29077000Y-23736043D01*
X-29077000Y-24263957D01*
X-28874976Y-24751685D01*
X-28501685Y-25124976D01*
X-28013957Y-25327000D01*
X-27486043Y-25327000D01*
X-26998315Y-25124976D01*
X-26625024Y-24751685D01*
X-26423000Y-24263957D01*
X-26423000Y-23736043D01*
X-26625024Y-23248315D01*
X-26998315Y-22875024D01*
X-27486043Y-22673000D01*
X-28013957Y-22673000D01*
X-28501685Y-22875024D01*
X-28874976Y-23248315D01*
X-29077000Y-23736043D01*
X-30923000Y-23736043D01*
X-31047134Y-23436358D01*
X-20762786Y-13152011D01*
X-14541236Y-13152011D01*
X-24038132Y-22648908D01*
X-24038135Y-22648910D01*
X-24186359Y-22797134D01*
X-24486043Y-22673000D01*
X-25013957Y-22673000D01*
X-25501685Y-22875024D01*
X-25874976Y-23248315D01*
X-26077000Y-23736043D01*
X-26077000Y-24263957D01*
X-25874976Y-24751685D01*
X-25501685Y-25124976D01*
X-25013957Y-25327000D01*
X-24486043Y-25327000D01*
X-23998315Y-25124976D01*
X-23625024Y-24751685D01*
X-23423000Y-24263957D01*
X-23423000Y-23736043D01*
X-21577000Y-23736043D01*
X-21577000Y-24263957D01*
X-21374976Y-24751685D01*
X-21001685Y-25124976D01*
X-20513957Y-25327000D01*
X-19986043Y-25327000D01*
X-19498315Y-25124976D01*
X-19125024Y-24751685D01*
X-18923000Y-24263957D01*
X-18923000Y-23736043D01*
X-19125024Y-23248315D01*
X-19498315Y-22875024D01*
X-19986043Y-22673000D01*
X-20513957Y-22673000D01*
X-21001685Y-22875024D01*
X-21374976Y-23248315D01*
X-21577000Y-23736043D01*
X-23423000Y-23736043D01*
X-23547134Y-23436359D01*
X-23398910Y-23288135D01*
X-23398908Y-23288132D01*
X-13712797Y-13602022D01*
X-7491247Y-13602022D01*
X-16538132Y-22648908D01*
X-16538135Y-22648910D01*
X-16686359Y-22797134D01*
X-16986043Y-22673000D01*
X-17513957Y-22673000D01*
X-18001685Y-22875024D01*
X-18374976Y-23248315D01*
X-18577000Y-23736043D01*
X-18577000Y-24263957D01*
X-18374976Y-24751685D01*
X-18001685Y-25124976D01*
X-17513957Y-25327000D01*
X-16986043Y-25327000D01*
X-16498315Y-25124976D01*
X-16125024Y-24751685D01*
X-15923000Y-24263957D01*
X-15923000Y-23736043D01*
X-14077000Y-23736043D01*
X-14077000Y-24263957D01*
X-13874976Y-24751685D01*
X-13501685Y-25124976D01*
X-13013957Y-25327000D01*
X-12486043Y-25327000D01*
X-11998315Y-25124976D01*
X-11625024Y-24751685D01*
X-11423000Y-24263957D01*
X-11423000Y-23736043D01*
X-11625024Y-23248315D01*
X-11998315Y-22875024D01*
X-12486043Y-22673000D01*
X-13013957Y-22673000D01*
X-13501685Y-22875024D01*
X-13874976Y-23248315D01*
X-14077000Y-23736043D01*
X-15923000Y-23736043D01*
X-16047134Y-23436359D01*
X-15898910Y-23288135D01*
X-15898908Y-23288132D01*
X-6662808Y-14052033D01*
X12923912Y-14052033D01*
X12968430Y-14060888D01*
X13012948Y-14052033D01*
X13144792Y-14025808D01*
X13294304Y-13925907D01*
X13319523Y-13888164D01*
X15905685Y-11302003D01*
X17379689Y-11302003D01*
X17284839Y-11341291D01*
X17066265Y-11559865D01*
X16947974Y-11845445D01*
X16947974Y-12154555D01*
X17066265Y-12440135D01*
X17213637Y-12587507D01*
X17091291Y-12709852D01*
X16973000Y-12995432D01*
X16973000Y-13304542D01*
X17091291Y-13590122D01*
X17309865Y-13808696D01*
X17349211Y-13824994D01*
X17309865Y-13841291D01*
X17091291Y-14059865D01*
X16973000Y-14345445D01*
X16973000Y-14654555D01*
X17091291Y-14940135D01*
X17309865Y-15158709D01*
X17595445Y-15277000D01*
X17904555Y-15277000D01*
X18190135Y-15158709D01*
X18396844Y-14952000D01*
X19603156Y-14952000D01*
X19809865Y-15158709D01*
X20095445Y-15277000D01*
X20404555Y-15277000D01*
X20690135Y-15158709D01*
X20908709Y-14940135D01*
X21027000Y-14654555D01*
X21027000Y-14345445D01*
X20908709Y-14059865D01*
X20723844Y-13875000D01*
X20908709Y-13690135D01*
X21027000Y-13404555D01*
X21027000Y-13095445D01*
X20908709Y-12809865D01*
X20723844Y-12625000D01*
X20908709Y-12440135D01*
X21027000Y-12154555D01*
X21027000Y-11845445D01*
X20961087Y-11686315D01*
X22173000Y-11686315D01*
X22173000Y-12313685D01*
X22413084Y-12893299D01*
X22856701Y-13336916D01*
X23436315Y-13577000D01*
X24063685Y-13577000D01*
X24643299Y-13336916D01*
X25086916Y-12893299D01*
X25327000Y-12313685D01*
X25327000Y-11686315D01*
X25086916Y-11106701D01*
X24643299Y-10663084D01*
X24063685Y-10423000D01*
X23436315Y-10423000D01*
X22856701Y-10663084D01*
X22413084Y-11106701D01*
X22173000Y-11686315D01*
X20961087Y-11686315D01*
X20908709Y-11559865D01*
X20773846Y-11425002D01*
X20908709Y-11290138D01*
X21027000Y-11004558D01*
X21027000Y-10695448D01*
X20908709Y-10409868D01*
X20798843Y-10300002D01*
X20908709Y-10190135D01*
X21027000Y-9904555D01*
X21027000Y-9595445D01*
X20908709Y-9309865D01*
X20749032Y-9150188D01*
X20891917Y-9007303D01*
X21010208Y-8721723D01*
X21010208Y-8412613D01*
X20916473Y-8186315D01*
X22173000Y-8186315D01*
X22173000Y-8813685D01*
X22413084Y-9393299D01*
X22856701Y-9836916D01*
X23436315Y-10077000D01*
X24063685Y-10077000D01*
X24643299Y-9836916D01*
X25086916Y-9393299D01*
X25327000Y-8813685D01*
X25327000Y-8186315D01*
X25086916Y-7606701D01*
X24643299Y-7163084D01*
X24063685Y-6923000D01*
X23436315Y-6923000D01*
X22856701Y-7163084D01*
X22413084Y-7606701D01*
X22173000Y-8186315D01*
X20916473Y-8186315D01*
X20891917Y-8127033D01*
X20673343Y-7908459D01*
X20632389Y-7891495D01*
X20833740Y-7690144D01*
X20952031Y-7404564D01*
X20952031Y-7095454D01*
X20833740Y-6809874D01*
X20615166Y-6591300D01*
X20329586Y-6473009D01*
X20020476Y-6473009D01*
X19734896Y-6591300D01*
X19528187Y-6798009D01*
X17864036Y-6798009D01*
X23560024Y-1102022D01*
X24287824Y-1102022D01*
X24011850Y-1216334D01*
X23813601Y-1414583D01*
X23639227Y-1449268D01*
X23489715Y-1549169D01*
X23464497Y-1586910D01*
X22899828Y-2151580D01*
X22862088Y-2176797D01*
X22836871Y-2214537D01*
X22836870Y-2214538D01*
X22762186Y-2326310D01*
X22727106Y-2502671D01*
X22735962Y-2547193D01*
X22735961Y-3389387D01*
X22727106Y-3433905D01*
X22740658Y-3502038D01*
X22762186Y-3610266D01*
X22862087Y-3759779D01*
X22899830Y-3784998D01*
X25597990Y-6483159D01*
X25597989Y-21175471D01*
X25589134Y-21219989D01*
X25601795Y-21283639D01*
X25624214Y-21396350D01*
X25724115Y-21545863D01*
X25761858Y-21571082D01*
X33975393Y-29784618D01*
X33971291Y-29790758D01*
X33879942Y-30250000D01*
X33971291Y-30709242D01*
X34231431Y-31098569D01*
X34620758Y-31358709D01*
X34964080Y-31427000D01*
X35195920Y-31427000D01*
X35539242Y-31358709D01*
X35928569Y-31098569D01*
X36188709Y-30709242D01*
X36280058Y-30250000D01*
X36188709Y-29790758D01*
X35928569Y-29401431D01*
X35680370Y-29235590D01*
X35966366Y-29235590D01*
X36515394Y-29784618D01*
X36511291Y-29790758D01*
X36419942Y-30250000D01*
X36511291Y-30709242D01*
X36771431Y-31098569D01*
X37160758Y-31358709D01*
X37504080Y-31427000D01*
X37735920Y-31427000D01*
X38079242Y-31358709D01*
X38468569Y-31098569D01*
X38728709Y-30709242D01*
X38820058Y-30250000D01*
X38728709Y-29790758D01*
X38468569Y-29401431D01*
X38079242Y-29141291D01*
X37735920Y-29073000D01*
X37504080Y-29073000D01*
X37160758Y-29141291D01*
X37154618Y-29145394D01*
X36504683Y-28495459D01*
X36479464Y-28457716D01*
X36329952Y-28357815D01*
X36198108Y-28331590D01*
X36153590Y-28322735D01*
X36109072Y-28331590D01*
X34437225Y-28331590D01*
X33571787Y-27466152D01*
X42323000Y-27466152D01*
X42323000Y-28033848D01*
X42540247Y-28558331D01*
X42941669Y-28959753D01*
X43466152Y-29177000D01*
X44033848Y-29177000D01*
X44558331Y-28959753D01*
X44959753Y-28558331D01*
X45177000Y-28033848D01*
X45177000Y-27466152D01*
X44959753Y-26941669D01*
X44558331Y-26540247D01*
X44033848Y-26323000D01*
X43466152Y-26323000D01*
X42941669Y-26540247D01*
X42540247Y-26941669D01*
X42323000Y-27466152D01*
X33571787Y-27466152D01*
X26952000Y-20846366D01*
X26952000Y-11540000D01*
X31049942Y-11540000D01*
X31141291Y-11999242D01*
X31401431Y-12388569D01*
X31790758Y-12648709D01*
X32134080Y-12717000D01*
X32365920Y-12717000D01*
X32709242Y-12648709D01*
X33098569Y-12388569D01*
X33358709Y-11999242D01*
X33450058Y-11540000D01*
X33358709Y-11080758D01*
X33098569Y-10691431D01*
X32709242Y-10431291D01*
X32365920Y-10363000D01*
X32134080Y-10363000D01*
X31790758Y-10431291D01*
X31401431Y-10691431D01*
X31141291Y-11080758D01*
X31049942Y-11540000D01*
X26952000Y-11540000D01*
X26952000Y-8150000D01*
X31066594Y-8150000D01*
X31066594Y-9850000D01*
X31091973Y-9977589D01*
X31164246Y-10085754D01*
X31272411Y-10158027D01*
X31400000Y-10183406D01*
X33100000Y-10183406D01*
X33227589Y-10158027D01*
X33335754Y-10085754D01*
X33408027Y-9977589D01*
X33433406Y-9850000D01*
X33433406Y-8150000D01*
X33408027Y-8022411D01*
X33335754Y-7914246D01*
X33227589Y-7841973D01*
X33100000Y-7816594D01*
X31400000Y-7816594D01*
X31272411Y-7841973D01*
X31164246Y-7914246D01*
X31091973Y-8022411D01*
X31066594Y-8150000D01*
X26952000Y-8150000D01*
X26952000Y-5643456D01*
X26960855Y-5598939D01*
X26935591Y-5471929D01*
X26925775Y-5422578D01*
X26825874Y-5273066D01*
X26788131Y-5247847D01*
X24764055Y-3223771D01*
X24764053Y-3223768D01*
X24739963Y-3199678D01*
X24739963Y-2907348D01*
X24630160Y-2642259D01*
X24892120Y-2533752D01*
X25110694Y-2315178D01*
X25228985Y-2029598D01*
X25228985Y-1720488D01*
X25110694Y-1434908D01*
X24892120Y-1216334D01*
X24616146Y-1102022D01*
X25078282Y-1102022D01*
X25122800Y-1110877D01*
X25167318Y-1102022D01*
X25299162Y-1075797D01*
X25448674Y-975896D01*
X25473893Y-938153D01*
X25585418Y-826628D01*
X26245262Y-826628D01*
X26209862Y-841291D01*
X25991288Y-1059865D01*
X25872997Y-1345445D01*
X25872997Y-1654555D01*
X25991288Y-1940135D01*
X26209862Y-2158709D01*
X26477584Y-2269603D01*
X26291563Y-2455624D01*
X26173272Y-2741204D01*
X26173272Y-3050314D01*
X26291563Y-3335894D01*
X26510137Y-3554468D01*
X26795717Y-3672759D01*
X27104827Y-3672759D01*
X27390407Y-3554468D01*
X27597116Y-3347759D01*
X27708535Y-3347759D01*
X31848918Y-7488142D01*
X31874137Y-7525885D01*
X32016491Y-7621003D01*
X32023649Y-7625786D01*
X32200011Y-7660866D01*
X32244529Y-7652011D01*
X42288896Y-7652011D01*
X42333414Y-7660866D01*
X42377932Y-7652011D01*
X42509776Y-7625786D01*
X42659288Y-7525885D01*
X42684507Y-7488142D01*
X44889835Y-5282815D01*
X44808524Y-5436890D01*
X44978355Y-5846924D01*
X45368642Y-6275183D01*
X45712343Y-6436594D01*
X45400000Y-6436594D01*
X45272411Y-6461973D01*
X45164246Y-6534246D01*
X45091973Y-6642411D01*
X45066594Y-6770000D01*
X45066594Y-8470000D01*
X45091973Y-8597589D01*
X45164246Y-8705754D01*
X45272411Y-8778027D01*
X45400000Y-8803406D01*
X47100000Y-8803406D01*
X47227589Y-8778027D01*
X47335754Y-8705754D01*
X47408027Y-8597589D01*
X47433406Y-8470000D01*
X47433406Y-6770000D01*
X47408027Y-6642411D01*
X47335754Y-6534246D01*
X47227589Y-6461973D01*
X47100000Y-6436594D01*
X46787657Y-6436594D01*
X47131358Y-6275183D01*
X47521645Y-5846924D01*
X47598000Y-5662574D01*
X47598000Y-27730342D01*
X47522825Y-28497036D01*
X47305871Y-29215624D01*
X46953475Y-29878383D01*
X46479059Y-30460075D01*
X45900695Y-30938539D01*
X45240412Y-31295552D01*
X44523360Y-31517517D01*
X43757903Y-31597969D01*
X43749162Y-31598000D01*
X25502575Y-31598000D01*
X25686924Y-31521645D01*
X26115183Y-31131358D01*
X26340023Y-30652594D01*
X26351291Y-30709242D01*
X26611431Y-31098569D01*
X27000758Y-31358709D01*
X27344080Y-31427000D01*
X27575920Y-31427000D01*
X27919242Y-31358709D01*
X28308569Y-31098569D01*
X28568709Y-30709242D01*
X28660058Y-30250000D01*
X28799942Y-30250000D01*
X28891291Y-30709242D01*
X29151431Y-31098569D01*
X29540758Y-31358709D01*
X29884080Y-31427000D01*
X30115920Y-31427000D01*
X30459242Y-31358709D01*
X30848569Y-31098569D01*
X31108709Y-30709242D01*
X31200058Y-30250000D01*
X31339942Y-30250000D01*
X31431291Y-30709242D01*
X31691431Y-31098569D01*
X32080758Y-31358709D01*
X32424080Y-31427000D01*
X32655920Y-31427000D01*
X32999242Y-31358709D01*
X33388569Y-31098569D01*
X33648709Y-30709242D01*
X33740058Y-30250000D01*
X33648709Y-29790758D01*
X33388569Y-29401431D01*
X32999242Y-29141291D01*
X32655920Y-29073000D01*
X32424080Y-29073000D01*
X32080758Y-29141291D01*
X31691431Y-29401431D01*
X31431291Y-29790758D01*
X31339942Y-30250000D01*
X31200058Y-30250000D01*
X31108709Y-29790758D01*
X30848569Y-29401431D01*
X30459242Y-29141291D01*
X30115920Y-29073000D01*
X29884080Y-29073000D01*
X29540758Y-29141291D01*
X29151431Y-29401431D01*
X28891291Y-29790758D01*
X28799942Y-30250000D01*
X28660058Y-30250000D01*
X28568709Y-29790758D01*
X28308569Y-29401431D01*
X27919242Y-29141291D01*
X27575920Y-29073000D01*
X27344080Y-29073000D01*
X27000758Y-29141291D01*
X26611431Y-29401431D01*
X26351291Y-29790758D01*
X26340023Y-29847406D01*
X26115183Y-29368642D01*
X25686924Y-28978355D01*
X25276890Y-28808524D01*
X25047000Y-28929845D01*
X25047000Y-30123000D01*
X25067000Y-30123000D01*
X25067000Y-30377000D01*
X25047000Y-30377000D01*
X25047000Y-30397000D01*
X24793000Y-30397000D01*
X24793000Y-30377000D01*
X24773000Y-30377000D01*
X24773000Y-30123000D01*
X24793000Y-30123000D01*
X24793000Y-28929845D01*
X24563110Y-28808524D01*
X24153076Y-28978355D01*
X23724817Y-29368642D01*
X23563406Y-29712343D01*
X23563406Y-29400000D01*
X23538027Y-29272411D01*
X23465754Y-29164246D01*
X23357589Y-29091973D01*
X23230000Y-29066594D01*
X21530000Y-29066594D01*
X21402411Y-29091973D01*
X21294246Y-29164246D01*
X21221973Y-29272411D01*
X21196594Y-29400000D01*
X21196594Y-31100000D01*
X21221973Y-31227589D01*
X21294246Y-31335754D01*
X21402411Y-31408027D01*
X21530000Y-31433406D01*
X23230000Y-31433406D01*
X23357589Y-31408027D01*
X23465754Y-31335754D01*
X23538027Y-31227589D01*
X23563406Y-31100000D01*
X23563406Y-30787657D01*
X23724817Y-31131358D01*
X24153076Y-31521645D01*
X24337425Y-31598000D01*
X-11971339Y-31598000D01*
X-11625024Y-31251685D01*
X-11423000Y-30763957D01*
X-11423000Y-30236043D01*
X-11625024Y-29748315D01*
X-11998315Y-29375024D01*
X-12486043Y-29173000D01*
X-13013957Y-29173000D01*
X-13501685Y-29375024D01*
X-13874976Y-29748315D01*
X-14077000Y-30236043D01*
X-14077000Y-30763957D01*
X-13874976Y-31251685D01*
X-13528661Y-31598000D01*
X-16471339Y-31598000D01*
X-16125024Y-31251685D01*
X-15923000Y-30763957D01*
X-15923000Y-30236043D01*
X-16125024Y-29748315D01*
X-16498315Y-29375024D01*
X-16986043Y-29173000D01*
X-17513957Y-29173000D01*
X-18001685Y-29375024D01*
X-18374976Y-29748315D01*
X-18577000Y-30236043D01*
X-18577000Y-30763957D01*
X-18374976Y-31251685D01*
X-18028661Y-31598000D01*
X-19471339Y-31598000D01*
X-19125024Y-31251685D01*
X-18923000Y-30763957D01*
X-18923000Y-30236043D01*
X-19125024Y-29748315D01*
X-19498315Y-29375024D01*
X-19986043Y-29173000D01*
X-20513957Y-29173000D01*
X-21001685Y-29375024D01*
X-21374976Y-29748315D01*
X-21577000Y-30236043D01*
X-21577000Y-30763957D01*
X-21374976Y-31251685D01*
X-21028661Y-31598000D01*
X-23971339Y-31598000D01*
X-23625024Y-31251685D01*
X-23423000Y-30763957D01*
X-23423000Y-30236043D01*
X-23625024Y-29748315D01*
X-23998315Y-29375024D01*
X-24486043Y-29173000D01*
X-25013957Y-29173000D01*
X-25501685Y-29375024D01*
X-25874976Y-29748315D01*
X-26077000Y-30236043D01*
X-26077000Y-30763957D01*
X-25874976Y-31251685D01*
X-25528661Y-31598000D01*
X-26971339Y-31598000D01*
X-26625024Y-31251685D01*
X-26423000Y-30763957D01*
X-26423000Y-30236043D01*
X-26625024Y-29748315D01*
X-26998315Y-29375024D01*
X-27486043Y-29173000D01*
X-28013957Y-29173000D01*
X-28501685Y-29375024D01*
X-28874976Y-29748315D01*
X-29077000Y-30236043D01*
X-29077000Y-30763957D01*
X-28874976Y-31251685D01*
X-28528661Y-31598000D01*
X-31471339Y-31598000D01*
X-31125024Y-31251685D01*
X-30923000Y-30763957D01*
X-30923000Y-30236043D01*
X-31125024Y-29748315D01*
X-31498315Y-29375024D01*
X-31986043Y-29173000D01*
X-32513957Y-29173000D01*
X-33001685Y-29375024D01*
X-33374976Y-29748315D01*
X-33577000Y-30236043D01*
X-33577000Y-30763957D01*
X-33374976Y-31251685D01*
X-33028661Y-31598000D01*
X-35730342Y-31598000D01*
X-36497036Y-31522825D01*
X-37215624Y-31305871D01*
X-37878383Y-30953475D01*
X-38460075Y-30479059D01*
X-38938539Y-29900695D01*
X-39295552Y-29240412D01*
X-39517517Y-28523360D01*
X-39597969Y-27757903D01*
X-39598000Y-27749162D01*
X-39598000Y-27466152D01*
X-37177000Y-27466152D01*
X-37177000Y-28033848D01*
X-36959753Y-28558331D01*
X-36558331Y-28959753D01*
X-36033848Y-29177000D01*
X-35466152Y-29177000D01*
X-34941669Y-28959753D01*
X-34540247Y-28558331D01*
X-34323000Y-28033848D01*
X-34323000Y-27466152D01*
X-10427000Y-27466152D01*
X-10427000Y-28033848D01*
X-10209753Y-28558331D01*
X-9808331Y-28959753D01*
X-9283848Y-29177000D01*
X-8716152Y-29177000D01*
X-8191669Y-28959753D01*
X-7790247Y-28558331D01*
X-7573000Y-28033848D01*
X-7573000Y-27466152D01*
X7573000Y-27466152D01*
X7573000Y-28033848D01*
X7790247Y-28558331D01*
X8191669Y-28959753D01*
X8716152Y-29177000D01*
X9283848Y-29177000D01*
X9808331Y-28959753D01*
X10209753Y-28558331D01*
X10427000Y-28033848D01*
X10427000Y-27466152D01*
X10209753Y-26941669D01*
X9808331Y-26540247D01*
X9283848Y-26323000D01*
X8716152Y-26323000D01*
X8191669Y-26540247D01*
X7790247Y-26941669D01*
X7573000Y-27466152D01*
X-7573000Y-27466152D01*
X-7790247Y-26941669D01*
X-8191669Y-26540247D01*
X-8716152Y-26323000D01*
X-9283848Y-26323000D01*
X-9808331Y-26540247D01*
X-10209753Y-26941669D01*
X-10427000Y-27466152D01*
X-34323000Y-27466152D01*
X-34540247Y-26941669D01*
X-34941669Y-26540247D01*
X-35466152Y-26323000D01*
X-36033848Y-26323000D01*
X-36558331Y-26540247D01*
X-36959753Y-26941669D01*
X-37177000Y-27466152D01*
X-39598000Y-27466152D01*
X-39598000Y-24000000D01*
X-39450058Y-24000000D01*
X-39358709Y-24459242D01*
X-39098569Y-24848569D01*
X-38709242Y-25108709D01*
X-38365920Y-25177000D01*
X-38134080Y-25177000D01*
X-37790758Y-25108709D01*
X-37401431Y-24848569D01*
X-37141291Y-24459242D01*
X-37049942Y-24000000D01*
X-37141291Y-23540758D01*
X-37401431Y-23151431D01*
X-37790758Y-22891291D01*
X-38134080Y-22823000D01*
X-38365920Y-22823000D01*
X-38709242Y-22891291D01*
X-39098569Y-23151431D01*
X-39358709Y-23540758D01*
X-39450058Y-24000000D01*
X-39598000Y-24000000D01*
X-39598000Y-16380000D01*
X-39450058Y-16380000D01*
X-39358709Y-16839242D01*
X-39098569Y-17228569D01*
X-38709242Y-17488709D01*
X-38365920Y-17557000D01*
X-38134080Y-17557000D01*
X-37790758Y-17488709D01*
X-37401431Y-17228569D01*
X-37141291Y-16839242D01*
X-37049942Y-16380000D01*
X-37141291Y-15920758D01*
X-37401431Y-15531431D01*
X-37790758Y-15271291D01*
X-38134080Y-15203000D01*
X-38365920Y-15203000D01*
X-38709242Y-15271291D01*
X-39098569Y-15531431D01*
X-39358709Y-15920758D01*
X-39450058Y-16380000D01*
X-39598000Y-16380000D01*
X-39598000Y-13840000D01*
X-39450058Y-13840000D01*
X-39358709Y-14299242D01*
X-39098569Y-14688569D01*
X-38709242Y-14948709D01*
X-38365920Y-15017000D01*
X-38134080Y-15017000D01*
X-37790758Y-14948709D01*
X-37401431Y-14688569D01*
X-37141291Y-14299242D01*
X-37049942Y-13840000D01*
X-37141291Y-13380758D01*
X-37401431Y-12991431D01*
X-37790758Y-12731291D01*
X-38134080Y-12663000D01*
X-38365920Y-12663000D01*
X-38709242Y-12731291D01*
X-39098569Y-12991431D01*
X-39358709Y-13380758D01*
X-39450058Y-13840000D01*
X-39598000Y-13840000D01*
X-39598000Y-10450000D01*
X-39433406Y-10450000D01*
X-39433406Y-12150000D01*
X-39408027Y-12277589D01*
X-39335754Y-12385754D01*
X-39227589Y-12458027D01*
X-39100000Y-12483406D01*
X-37400000Y-12483406D01*
X-37272411Y-12458027D01*
X-37164246Y-12385754D01*
X-37091973Y-12277589D01*
X-37066594Y-12150000D01*
X-37066594Y-10450000D01*
X-37091973Y-10322411D01*
X-37164246Y-10214246D01*
X-37272411Y-10141973D01*
X-37400000Y-10116594D01*
X-39100000Y-10116594D01*
X-39227589Y-10141973D01*
X-39335754Y-10214246D01*
X-39408027Y-10322411D01*
X-39433406Y-10450000D01*
X-39598000Y-10450000D01*
X-39598000Y-8778661D01*
X-39251685Y-9124976D01*
X-38763957Y-9327000D01*
X-38236043Y-9327000D01*
X-37748315Y-9124976D01*
X-37375024Y-8751685D01*
X-37173000Y-8263957D01*
X-37173000Y-7736043D01*
X-37375024Y-7248315D01*
X-37748315Y-6875024D01*
X-38236043Y-6673000D01*
X-38763957Y-6673000D01*
X-39251685Y-6875024D01*
X-39598000Y-7221339D01*
X-39598000Y-2278661D01*
X-39251685Y-2624976D01*
X-38763957Y-2827000D01*
X-38236043Y-2827000D01*
X-37748315Y-2624976D01*
X-37375024Y-2251685D01*
X-37173000Y-1763957D01*
X-37173000Y-1236043D01*
X-37375024Y-748315D01*
X-37748315Y-375024D01*
X-38236043Y-173000D01*
X-38763957Y-173000D01*
X-39251685Y-375024D01*
X-39598000Y-721339D01*
X-39598000Y19557425D01*
X-39521645Y19373076D01*
X-39131358Y18944817D01*
X-38787657Y18783406D01*
X-39100000Y18783406D01*
X-39227589Y18758027D01*
X-39335754Y18685754D01*
X-39408027Y18577589D01*
X-39433406Y18450000D01*
X-39433406Y16750000D01*
X-39408027Y16622411D01*
X-39335754Y16514246D01*
X-39227589Y16441973D01*
X-39100000Y16416594D01*
X-37400000Y16416594D01*
X-37272411Y16441973D01*
X-37164246Y16514246D01*
X-37091973Y16622411D01*
X-37066594Y16750000D01*
X-37066594Y18450000D01*
X-37091973Y18577589D01*
X-37164246Y18685754D01*
X-37272411Y18758027D01*
X-37400000Y18783406D01*
X-37712343Y18783406D01*
X-37368642Y18944817D01*
X-36978355Y19373076D01*
X-36808524Y19783110D01*
X-36929845Y20013000D01*
X-38123000Y20013000D01*
X-38123000Y19993000D01*
X-38377000Y19993000D01*
X-38377000Y20013000D01*
X-38397000Y20013000D01*
X-38397000Y20267000D01*
X-38377000Y20267000D01*
X-38377000Y21460819D01*
X-38123000Y21460819D01*
X-38123000Y20267000D01*
X-36929845Y20267000D01*
X-36808524Y20496890D01*
X-36978355Y20906924D01*
X-37154311Y21100000D01*
X-35973406Y21100000D01*
X-35973406Y19400000D01*
X-35948027Y19272411D01*
X-35875754Y19164246D01*
X-35767589Y19091973D01*
X-35640000Y19066594D01*
X-33940000Y19066594D01*
X-33812411Y19091973D01*
X-33704246Y19164246D01*
X-33631973Y19272411D01*
X-33606594Y19400000D01*
X-33606594Y20250000D01*
X-33450058Y20250000D01*
X-33358709Y19790758D01*
X-33098569Y19401431D01*
X-32709242Y19141291D01*
X-32365920Y19073000D01*
X-32134080Y19073000D01*
X-31790758Y19141291D01*
X-31401431Y19401431D01*
X-31141291Y19790758D01*
X-31068928Y20154555D01*
X-23277000Y20154555D01*
X-23277000Y19845445D01*
X-23158709Y19559865D01*
X-22940135Y19341291D01*
X-22654555Y19223000D01*
X-22345445Y19223000D01*
X-22059865Y19341291D01*
X-21841291Y19559865D01*
X-21723000Y19845445D01*
X-21723000Y20137776D01*
X-21387775Y20473000D01*
X-21095445Y20473000D01*
X-20809865Y20591291D01*
X-20591291Y20809865D01*
X-20473000Y21095445D01*
X-20473000Y21404555D01*
X-20591291Y21690135D01*
X-20809865Y21908709D01*
X-21095445Y22027000D01*
X-21404555Y22027000D01*
X-21690135Y21908709D01*
X-21908709Y21690135D01*
X-22027000Y21404555D01*
X-22027000Y21112225D01*
X-22362224Y20777000D01*
X-22654555Y20777000D01*
X-22940135Y20658709D01*
X-23158709Y20440135D01*
X-23277000Y20154555D01*
X-31068928Y20154555D01*
X-31049942Y20250000D01*
X-31141291Y20709242D01*
X-31401431Y21098569D01*
X-31790758Y21358709D01*
X-32134080Y21427000D01*
X-32365920Y21427000D01*
X-32709242Y21358709D01*
X-33098569Y21098569D01*
X-33358709Y20709242D01*
X-33450058Y20250000D01*
X-33606594Y20250000D01*
X-33606594Y21100000D01*
X-33631973Y21227589D01*
X-33704246Y21335754D01*
X-33812411Y21408027D01*
X-33940000Y21433406D01*
X-35640000Y21433406D01*
X-35767589Y21408027D01*
X-35875754Y21335754D01*
X-35948027Y21227589D01*
X-35973406Y21100000D01*
X-37154311Y21100000D01*
X-37368642Y21335183D01*
X-37893108Y21581486D01*
X-38123000Y21460819D01*
X-38377000Y21460819D01*
X-38606892Y21581486D01*
X-39131358Y21335183D01*
X-39521645Y20906924D01*
X-39598000Y20722575D01*
X-39598000Y22416680D01*
X-30903715Y22416680D01*
X-30774467Y22123877D01*
X-30074194Y21855612D01*
X-29324565Y21875750D01*
X-28725533Y22123877D01*
X-28596285Y22416680D01*
X-29750000Y23570395D01*
X-30903715Y22416680D01*
X-39598000Y22416680D01*
X-39598000Y24074194D01*
X-31644388Y24074194D01*
X-31624250Y23324565D01*
X-31376123Y22725533D01*
X-31083320Y22596285D01*
X-29929605Y23750000D01*
X-29570395Y23750000D01*
X-28416680Y22596285D01*
X-28123877Y22725533D01*
X-27868139Y23393108D01*
X-27731486Y23393108D01*
X-27485183Y22868642D01*
X-27056924Y22478355D01*
X-26646890Y22308524D01*
X-26417000Y22429845D01*
X-26417000Y23623000D01*
X-27610819Y23623000D01*
X-27731486Y23393108D01*
X-27868139Y23393108D01*
X-27855612Y23425806D01*
X-27873908Y24106892D01*
X-27731486Y24106892D01*
X-27610819Y23877000D01*
X-26417000Y23877000D01*
X-26417000Y25070155D01*
X-26163000Y25070155D01*
X-26163000Y23877000D01*
X-26143000Y23877000D01*
X-26143000Y23623000D01*
X-26163000Y23623000D01*
X-26163000Y22429845D01*
X-25933110Y22308524D01*
X-25523076Y22478355D01*
X-25094817Y22868642D01*
X-24933406Y23212343D01*
X-24933406Y22900000D01*
X-24908027Y22772411D01*
X-24835754Y22664246D01*
X-24727589Y22591973D01*
X-24600000Y22566594D01*
X-22900000Y22566594D01*
X-22772411Y22591973D01*
X-22664246Y22664246D01*
X-22591973Y22772411D01*
X-22566594Y22900000D01*
X-22566594Y24600000D01*
X-22591973Y24727589D01*
X-22664246Y24835754D01*
X-22772411Y24908027D01*
X-22900000Y24933406D01*
X-24600000Y24933406D01*
X-24727589Y24908027D01*
X-24835754Y24835754D01*
X-24908027Y24727589D01*
X-24933406Y24600000D01*
X-24933406Y24287657D01*
X-25094817Y24631358D01*
X-25523076Y25021645D01*
X-25933110Y25191476D01*
X-26163000Y25070155D01*
X-26417000Y25070155D01*
X-26646890Y25191476D01*
X-27056924Y25021645D01*
X-27485183Y24631358D01*
X-27731486Y24106892D01*
X-27873908Y24106892D01*
X-27875750Y24175435D01*
X-28123877Y24774467D01*
X-28416680Y24903715D01*
X-29570395Y23750000D01*
X-29929605Y23750000D01*
X-31083320Y24903715D01*
X-31376123Y24774467D01*
X-31644388Y24074194D01*
X-39598000Y24074194D01*
X-39598000Y25083320D01*
X-30903715Y25083320D01*
X-29750000Y23929605D01*
X-28596285Y25083320D01*
X-28725533Y25376123D01*
X-29425806Y25644388D01*
X-30175435Y25624250D01*
X-30774467Y25376123D01*
X-30903715Y25083320D01*
X-39598000Y25083320D01*
X-39598000Y27730342D01*
X-39568241Y28033848D01*
X-37177000Y28033848D01*
X-37177000Y27466152D01*
X-36959753Y26941669D01*
X-36558331Y26540247D01*
X-36033848Y26323000D01*
X-35466152Y26323000D01*
X-34941669Y26540247D01*
X-34540247Y26941669D01*
X-34323000Y27466152D01*
X-34323000Y28033848D01*
X-34540247Y28558331D01*
X-34941669Y28959753D01*
X-35466152Y29177000D01*
X-36033848Y29177000D01*
X-36558331Y28959753D01*
X-36959753Y28558331D01*
X-37177000Y28033848D01*
X-39568241Y28033848D01*
X-39522825Y28497036D01*
X-39305872Y29215621D01*
X-39280172Y29263957D01*
X-30327000Y29263957D01*
X-30327000Y28736043D01*
X-30124976Y28248315D01*
X-29751685Y27875024D01*
X-29263957Y27673000D01*
X-28736043Y27673000D01*
X-28248315Y27875024D01*
X-27875024Y28248315D01*
X-27673000Y28736043D01*
X-27673000Y29263957D01*
X-18927000Y29263957D01*
X-18927000Y28736043D01*
X-18724976Y28248315D01*
X-18351685Y27875024D01*
X-18177000Y27802667D01*
X-18176999Y5906833D01*
X-18188304Y5850000D01*
X-18153400Y5674530D01*
X-18143521Y5624866D01*
X-18015993Y5434006D01*
X-17967814Y5401814D01*
X-10948186Y-1617815D01*
X-10915994Y-1665994D01*
X-10725134Y-1793522D01*
X-10556829Y-1827000D01*
X-10500001Y-1838304D01*
X-10443173Y-1827000D01*
X-5383406Y-1827000D01*
X-5383406Y-2050000D01*
X-5358027Y-2177589D01*
X-5285754Y-2285754D01*
X-5177589Y-2358027D01*
X-5050000Y-2383406D01*
X-3450000Y-2383406D01*
X-3322411Y-2358027D01*
X-3214246Y-2285754D01*
X-3141973Y-2177589D01*
X-3116594Y-2050000D01*
X-3116594Y-450000D01*
X-3141973Y-322411D01*
X-3214246Y-214246D01*
X-3322411Y-141973D01*
X-3450000Y-116594D01*
X-5050000Y-116594D01*
X-5177589Y-141973D01*
X-5285754Y-214246D01*
X-5358027Y-322411D01*
X-5383406Y-450000D01*
X-5383406Y-673000D01*
X-10260999Y-673000D01*
X-11628768Y694769D01*
X-11519329Y673000D01*
X-11462501Y661696D01*
X-11405673Y673000D01*
X-5230854Y673000D01*
X-5205424Y611606D01*
X-4888394Y294576D01*
X-4474174Y123000D01*
X-4025826Y123000D01*
X-3611606Y294576D01*
X-3294576Y611606D01*
X-3123000Y1025826D01*
X-3123000Y1404555D01*
X-3027000Y1404555D01*
X-3027000Y1095445D01*
X-2908709Y809865D01*
X-2702000Y603156D01*
X-2701999Y-603161D01*
X-2908709Y-809871D01*
X-3027000Y-1095451D01*
X-3027000Y-1404561D01*
X-2908709Y-1690141D01*
X-2690135Y-1908715D01*
X-2404555Y-2027006D01*
X-2095445Y-2027006D01*
X-1809865Y-1908715D01*
X-1591291Y-1690141D01*
X-1473000Y-1404561D01*
X-1473000Y-1095451D01*
X-1591291Y-809871D01*
X-1798000Y-603162D01*
X-1798000Y603156D01*
X-1591291Y809865D01*
X-1473000Y1095445D01*
X-1473000Y1404555D01*
X-1591291Y1690135D01*
X-1809865Y1908709D01*
X-2095445Y2027000D01*
X-2404555Y2027000D01*
X-2690135Y1908709D01*
X-2908709Y1690135D01*
X-3027000Y1404555D01*
X-3123000Y1404555D01*
X-3123000Y1474174D01*
X-3294576Y1888394D01*
X-3611606Y2205424D01*
X-4025826Y2377000D01*
X-4474174Y2377000D01*
X-4888394Y2205424D01*
X-5205424Y1888394D01*
X-5230854Y1827000D01*
X-11223499Y1827000D01*
X-16073013Y6676513D01*
X-16073013Y21100000D01*
X8026594Y21100000D01*
X8026594Y19400000D01*
X8051973Y19272411D01*
X8124246Y19164246D01*
X8232411Y19091973D01*
X8360000Y19066594D01*
X10060000Y19066594D01*
X10187589Y19091973D01*
X10295754Y19164246D01*
X10368027Y19272411D01*
X10393406Y19400000D01*
X10393406Y20250000D01*
X10549942Y20250000D01*
X10641291Y19790758D01*
X10901431Y19401431D01*
X11290758Y19141291D01*
X11634080Y19073000D01*
X11865920Y19073000D01*
X12209242Y19141291D01*
X12598569Y19401431D01*
X12858709Y19790758D01*
X12950058Y20250000D01*
X12858709Y20709242D01*
X12598569Y21098569D01*
X12209242Y21358709D01*
X11865920Y21427000D01*
X11634080Y21427000D01*
X11290758Y21358709D01*
X10901431Y21098569D01*
X10641291Y20709242D01*
X10549942Y20250000D01*
X10393406Y20250000D01*
X10393406Y21100000D01*
X10368027Y21227589D01*
X10295754Y21335754D01*
X10187589Y21408027D01*
X10060000Y21433406D01*
X8360000Y21433406D01*
X8232411Y21408027D01*
X8124246Y21335754D01*
X8051973Y21227589D01*
X8026594Y21100000D01*
X-16073013Y21100000D01*
X-16073013Y23464250D01*
X13690000Y23464250D01*
X13690000Y22948691D01*
X13786673Y22715302D01*
X13965301Y22536673D01*
X14198690Y22440000D01*
X14714250Y22440000D01*
X14873000Y22598750D01*
X14873000Y23623000D01*
X13848750Y23623000D01*
X13690000Y23464250D01*
X-16073013Y23464250D01*
X-16073013Y26860986D01*
X-16001814Y26932185D01*
X-16001813Y26932187D01*
X-15961000Y26973000D01*
X-15845445Y26973000D01*
X-15559865Y27091291D01*
X-15341291Y27309865D01*
X-15223000Y27595445D01*
X-15223000Y27904555D01*
X-15276554Y28033848D01*
X-10427000Y28033848D01*
X-10427000Y27466152D01*
X-10209753Y26941669D01*
X-9808331Y26540247D01*
X-9283848Y26323000D01*
X-8716152Y26323000D01*
X-8191669Y26540247D01*
X-7790247Y26941669D01*
X-7573000Y27466152D01*
X-7573000Y28033848D01*
X7573000Y28033848D01*
X7573000Y27466152D01*
X7790247Y26941669D01*
X8191669Y26540247D01*
X8716152Y26323000D01*
X9283848Y26323000D01*
X9808331Y26540247D01*
X10209753Y26941669D01*
X10427000Y27466152D01*
X10427000Y28033848D01*
X10209753Y28558331D01*
X9808331Y28959753D01*
X9283848Y29177000D01*
X8716152Y29177000D01*
X8191669Y28959753D01*
X7790247Y28558331D01*
X7573000Y28033848D01*
X-7573000Y28033848D01*
X-7790247Y28558331D01*
X-8191669Y28959753D01*
X-8716152Y29177000D01*
X-9283848Y29177000D01*
X-9808331Y28959753D01*
X-10209753Y28558331D01*
X-10427000Y28033848D01*
X-15276554Y28033848D01*
X-15341291Y28190135D01*
X-15559865Y28408709D01*
X-15845445Y28527000D01*
X-16154555Y28527000D01*
X-16402053Y28424483D01*
X-16273000Y28736043D01*
X-16273000Y29263957D01*
X-16475024Y29751685D01*
X-16848315Y30124976D01*
X-17150148Y30250000D01*
X21179942Y30250000D01*
X21271291Y29790758D01*
X21531431Y29401431D01*
X21920758Y29141291D01*
X22264080Y29073000D01*
X22495920Y29073000D01*
X22839242Y29141291D01*
X23228569Y29401431D01*
X23488709Y29790758D01*
X23580058Y30250000D01*
X23719942Y30250000D01*
X23811291Y29790758D01*
X24071431Y29401431D01*
X24460758Y29141291D01*
X24804080Y29073000D01*
X25035920Y29073000D01*
X25379242Y29141291D01*
X25768569Y29401431D01*
X26028709Y29790758D01*
X26120058Y30250000D01*
X26028709Y30709242D01*
X25768569Y31098569D01*
X25379242Y31358709D01*
X25035920Y31427000D01*
X24804080Y31427000D01*
X24460758Y31358709D01*
X24071431Y31098569D01*
X23811291Y30709242D01*
X23719942Y30250000D01*
X23580058Y30250000D01*
X23488709Y30709242D01*
X23228569Y31098569D01*
X22839242Y31358709D01*
X22495920Y31427000D01*
X22264080Y31427000D01*
X21920758Y31358709D01*
X21531431Y31098569D01*
X21271291Y30709242D01*
X21179942Y30250000D01*
X-17150148Y30250000D01*
X-17336043Y30327000D01*
X-17863957Y30327000D01*
X-18351685Y30124976D01*
X-18724976Y29751685D01*
X-18927000Y29263957D01*
X-27673000Y29263957D01*
X-27875024Y29751685D01*
X-28248315Y30124976D01*
X-28736043Y30327000D01*
X-29263957Y30327000D01*
X-29751685Y30124976D01*
X-30124976Y29751685D01*
X-30327000Y29263957D01*
X-39280172Y29263957D01*
X-38953475Y29878383D01*
X-38479059Y30460075D01*
X-37900700Y30938536D01*
X-37240412Y31295552D01*
X-36523360Y31517517D01*
X-35757903Y31597969D01*
X-35749162Y31598000D01*
X34497425Y31598000D01*
X34313076Y31521645D01*
X34313076Y31521645D01*
G37*
X34313076Y31521645D02*
X33884817Y31131358D01*
X33659977Y30652594D01*
X33648709Y30709242D01*
X33388569Y31098569D01*
X32999242Y31358709D01*
X32655920Y31427000D01*
X32424080Y31427000D01*
X32080758Y31358709D01*
X31691431Y31098569D01*
X31431291Y30709242D01*
X31339942Y30250000D01*
X31431291Y29790758D01*
X31691431Y29401431D01*
X32080758Y29141291D01*
X32424080Y29073000D01*
X32655920Y29073000D01*
X32999242Y29141291D01*
X33388569Y29401431D01*
X33648709Y29790758D01*
X33659977Y29847406D01*
X33884817Y29368642D01*
X34313076Y28978355D01*
X34723110Y28808524D01*
X34953000Y28929845D01*
X34953000Y30123000D01*
X34933000Y30123000D01*
X34933000Y30377000D01*
X34953000Y30377000D01*
X34953000Y30397000D01*
X35207000Y30397000D01*
X35207000Y30377000D01*
X35227000Y30377000D01*
X35227000Y30123000D01*
X35207000Y30123000D01*
X35207000Y28929845D01*
X35436890Y28808524D01*
X35846924Y28978355D01*
X36275183Y29368642D01*
X36436594Y29712343D01*
X36436594Y29400000D01*
X36461973Y29272411D01*
X36534246Y29164246D01*
X36642411Y29091973D01*
X36770000Y29066594D01*
X38470000Y29066594D01*
X38597589Y29091973D01*
X38705754Y29164246D01*
X38778027Y29272411D01*
X38803406Y29400000D01*
X38803406Y31100000D01*
X38778027Y31227589D01*
X38705754Y31335754D01*
X38597589Y31408027D01*
X38470000Y31433406D01*
X36770000Y31433406D01*
X36642411Y31408027D01*
X36534246Y31335754D01*
X36461973Y31227589D01*
X36436594Y31100000D01*
X36436594Y30787657D01*
X36275183Y31131358D01*
X35846924Y31521645D01*
X35662575Y31598000D01*
X43730342Y31598000D01*
X44497036Y31522825D01*
X45215621Y31305872D01*
X45878383Y30953475D01*
X46460075Y30479059D01*
X46938536Y29900700D01*
X47295552Y29240412D01*
X47517517Y28523360D01*
X47597969Y27757903D01*
X47598001Y27748876D01*
X47598000Y-4497426D01*
X47521645Y-4313076D01*
X47131358Y-3884817D01*
X46652594Y-3659977D01*
X46709242Y-3648709D01*
X47098569Y-3388569D01*
X47358709Y-2999242D01*
X47450058Y-2540000D01*
X47358709Y-2080758D01*
X47098569Y-1691431D01*
X46709242Y-1431291D01*
X46365920Y-1363000D01*
X46134080Y-1363000D01*
X45790758Y-1431291D01*
X45452023Y-1657627D01*
X45452023Y-1437201D01*
X45784618Y-1104606D01*
X45790758Y-1108709D01*
X46134080Y-1177000D01*
X46365920Y-1177000D01*
X46709242Y-1108709D01*
X47098569Y-848569D01*
X47358709Y-459242D01*
X47450058Y0D01*
X47358709Y459242D01*
X47098569Y848569D01*
X46709242Y1108709D01*
X46365920Y1177000D01*
X46134080Y1177000D01*
X45790758Y1108709D01*
X45401431Y848569D01*
X45141291Y459242D01*
X45049942Y0D01*
X45141291Y-459242D01*
X45145394Y-465382D01*
X45002012Y-608764D01*
X45002012Y652788D01*
X45784618Y1435394D01*
X45790758Y1431291D01*
X46134080Y1363000D01*
X46365920Y1363000D01*
X46709242Y1431291D01*
X47098569Y1691431D01*
X47358709Y2080758D01*
X47450058Y2540000D01*
X47358709Y2999242D01*
X47098569Y3388569D01*
X46709242Y3648709D01*
X46365920Y3717000D01*
X46134080Y3717000D01*
X45790758Y3648709D01*
X45401431Y3388569D01*
X45141291Y2999242D01*
X45049942Y2540000D01*
X45141291Y2080758D01*
X45145394Y2074618D01*
X44261881Y1191105D01*
X44224138Y1165886D01*
X44177071Y1095445D01*
X44124237Y1016373D01*
X44089157Y840012D01*
X44098012Y795494D01*
X44098013Y-3108476D01*
X44089157Y-3152998D01*
X44124237Y-3329359D01*
X44180181Y-3413084D01*
X44224139Y-3478872D01*
X44261879Y-3504089D01*
X44323012Y-3565222D01*
X44323013Y-3934777D01*
X41959790Y-6298000D01*
X32687225Y-6298000D01*
X28376094Y-1986870D01*
X28370435Y-1978400D01*
X28396835Y-1952000D01*
X37853156Y-1952000D01*
X38059865Y-2158709D01*
X38345445Y-2277000D01*
X38654555Y-2277000D01*
X38940135Y-2158709D01*
X39158709Y-1940135D01*
X39277000Y-1654555D01*
X39277000Y-1345445D01*
X39158709Y-1059865D01*
X38940135Y-841291D01*
X38654555Y-723000D01*
X38345445Y-723000D01*
X38059865Y-841291D01*
X37853156Y-1048000D01*
X33779363Y-1048000D01*
X33814763Y-1033337D01*
X34033337Y-814763D01*
X34151628Y-529183D01*
X34151628Y-220073D01*
X34033337Y65507D01*
X33814763Y284081D01*
X33529183Y402372D01*
X33220073Y402372D01*
X32934493Y284081D01*
X32727784Y77372D01*
X25853007Y77372D01*
X26976754Y1201118D01*
X27253344Y1201118D01*
X27297862Y1192263D01*
X27342380Y1201118D01*
X27474224Y1227343D01*
X27622049Y1326117D01*
X27902416Y1326117D01*
X28187996Y1444408D01*
X28406570Y1662982D01*
X28524861Y1948562D01*
X28524861Y2257672D01*
X28406570Y2543252D01*
X28322348Y2627474D01*
X28456724Y2761850D01*
X28575015Y3047430D01*
X28575015Y3356540D01*
X28456724Y3642120D01*
X28238150Y3860694D01*
X28071707Y3929637D01*
X28100874Y3949126D01*
X28200775Y4098638D01*
X28206742Y4128638D01*
X28235855Y4274999D01*
X28227000Y4319517D01*
X28227000Y5792776D01*
X28395455Y5723000D01*
X28704565Y5723000D01*
X28990145Y5841291D01*
X29208719Y6059865D01*
X29327010Y6345445D01*
X29327010Y6654555D01*
X29208719Y6940135D01*
X29002010Y7146844D01*
X29002010Y9850000D01*
X31066594Y9850000D01*
X31066594Y8150000D01*
X31091973Y8022411D01*
X31164246Y7914246D01*
X31272411Y7841973D01*
X31400000Y7816594D01*
X33100000Y7816594D01*
X33227589Y7841973D01*
X33335754Y7914246D01*
X33408027Y8022411D01*
X33433406Y8150000D01*
X33433406Y9850000D01*
X33408027Y9977589D01*
X33335754Y10085754D01*
X33227589Y10158027D01*
X33100000Y10183406D01*
X31400000Y10183406D01*
X31272411Y10158027D01*
X31164246Y10085754D01*
X31091973Y9977589D01*
X31066594Y9850000D01*
X29002010Y9850000D01*
X29002010Y11540000D01*
X31049942Y11540000D01*
X31141291Y11080758D01*
X31401431Y10691431D01*
X31790758Y10431291D01*
X32134080Y10363000D01*
X32365920Y10363000D01*
X32709242Y10431291D01*
X33098569Y10691431D01*
X33358709Y11080758D01*
X33450058Y11540000D01*
X33358709Y11999242D01*
X33098569Y12388569D01*
X32709242Y12648709D01*
X32365920Y12717000D01*
X32134080Y12717000D01*
X31790758Y12648709D01*
X31401431Y12388569D01*
X31141291Y11999242D01*
X31049942Y11540000D01*
X29002010Y11540000D01*
X29002010Y15438832D01*
X29010865Y15483350D01*
X28975785Y15659711D01*
X28928263Y15730832D01*
X28875884Y15809223D01*
X28838143Y15834441D01*
X28192765Y16479818D01*
X28192763Y16479821D01*
X28168673Y16503911D01*
X28168673Y16642505D01*
X28324061Y16642505D01*
X28609641Y16760796D01*
X28816350Y16967505D01*
X30029667Y16967505D01*
X39960643Y7036528D01*
X39784865Y6963719D01*
X39566291Y6745145D01*
X39448000Y6459565D01*
X39448000Y6150455D01*
X39566291Y5864875D01*
X39773001Y5658165D01*
X39773000Y4951844D01*
X39566291Y4745135D01*
X39448000Y4459555D01*
X39448000Y4150445D01*
X39566291Y3864865D01*
X39784865Y3646291D01*
X40070445Y3528000D01*
X40379555Y3528000D01*
X40548001Y3597772D01*
X40548000Y-1628156D01*
X40341291Y-1834865D01*
X40223000Y-2120445D01*
X40223000Y-2429555D01*
X40341291Y-2715135D01*
X40559865Y-2933709D01*
X40845445Y-3052000D01*
X41154555Y-3052000D01*
X41440135Y-2933709D01*
X41562499Y-2811346D01*
X41684862Y-2933709D01*
X41970442Y-3052000D01*
X42279552Y-3052000D01*
X42565132Y-2933709D01*
X42674999Y-2823843D01*
X42784865Y-2933709D01*
X43070445Y-3052000D01*
X43379555Y-3052000D01*
X43665135Y-2933709D01*
X43883709Y-2715135D01*
X44002000Y-2429555D01*
X44002000Y-2120445D01*
X43883709Y-1834865D01*
X43677000Y-1628156D01*
X43677000Y5080000D01*
X45049942Y5080000D01*
X45141291Y4620758D01*
X45401431Y4231431D01*
X45790758Y3971291D01*
X46134080Y3903000D01*
X46365920Y3903000D01*
X46709242Y3971291D01*
X47098569Y4231431D01*
X47358709Y4620758D01*
X47450058Y5080000D01*
X47358709Y5539242D01*
X47098569Y5928569D01*
X46709242Y6188709D01*
X46365920Y6257000D01*
X46134080Y6257000D01*
X45790758Y6188709D01*
X45401431Y5928569D01*
X45141291Y5539242D01*
X45049942Y5080000D01*
X43677000Y5080000D01*
X43677000Y6067192D01*
X43685855Y6111710D01*
X43650775Y6288072D01*
X43576572Y6399124D01*
X43550874Y6437584D01*
X43513134Y6462801D01*
X42355935Y7620000D01*
X45049942Y7620000D01*
X45141291Y7160758D01*
X45401431Y6771431D01*
X45790758Y6511291D01*
X46134080Y6443000D01*
X46365920Y6443000D01*
X46709242Y6511291D01*
X47098569Y6771431D01*
X47358709Y7160758D01*
X47450058Y7620000D01*
X47358709Y8079242D01*
X47098569Y8468569D01*
X46709242Y8728709D01*
X46365920Y8797000D01*
X46134080Y8797000D01*
X45790758Y8728709D01*
X45401431Y8468569D01*
X45141291Y8079242D01*
X45049942Y7620000D01*
X42355935Y7620000D01*
X30712647Y19263287D01*
X30687428Y19301030D01*
X30537916Y19400931D01*
X30406072Y19427156D01*
X30363543Y19435615D01*
X30165293Y19633865D01*
X29879713Y19752156D01*
X29810379Y19752156D01*
X30288131Y20229908D01*
X30325874Y20255127D01*
X30425775Y20404639D01*
X30452000Y20536483D01*
X30460855Y20581001D01*
X30452000Y20625519D01*
X30452000Y28033848D01*
X42323000Y28033848D01*
X42323000Y27466152D01*
X42540247Y26941669D01*
X42941669Y26540247D01*
X43466152Y26323000D01*
X44033848Y26323000D01*
X44558331Y26540247D01*
X44959753Y26941669D01*
X45177000Y27466152D01*
X45177000Y28033848D01*
X44959753Y28558331D01*
X44558331Y28959753D01*
X44033848Y29177000D01*
X43466152Y29177000D01*
X42941669Y28959753D01*
X42540247Y28558331D01*
X42323000Y28033848D01*
X30452000Y28033848D01*
X30452000Y29139850D01*
X30459242Y29141291D01*
X30848569Y29401431D01*
X31108709Y29790758D01*
X31200058Y30250000D01*
X31108709Y30709242D01*
X30848569Y31098569D01*
X30459242Y31358709D01*
X30115920Y31427000D01*
X29884080Y31427000D01*
X29540758Y31358709D01*
X29151431Y31098569D01*
X28891291Y30709242D01*
X28799942Y30250000D01*
X28891291Y29790758D01*
X29151431Y29401431D01*
X29540758Y29141291D01*
X29548000Y29139850D01*
X29548001Y20768226D01*
X29296749Y20516974D01*
X29296749Y28922231D01*
X29305604Y28966749D01*
X29296584Y29012099D01*
X29270524Y29143111D01*
X29170623Y29292623D01*
X29132883Y29317840D01*
X28762590Y29688132D01*
X28737371Y29725875D01*
X28587859Y29825776D01*
X28576138Y29828107D01*
X28660058Y30250000D01*
X28568709Y30709242D01*
X28308569Y31098569D01*
X27919242Y31358709D01*
X27575920Y31427000D01*
X27344080Y31427000D01*
X27000758Y31358709D01*
X26611431Y31098569D01*
X26351291Y30709242D01*
X26259942Y30250000D01*
X26351291Y29790758D01*
X26611431Y29401431D01*
X27000758Y29141291D01*
X27344080Y29073000D01*
X27449156Y29073000D01*
X27411039Y29034883D01*
X27376708Y28952000D01*
X17794516Y28952000D01*
X17749999Y28960855D01*
X17705483Y28952000D01*
X17705482Y28952000D01*
X17573638Y28925775D01*
X17424126Y28825874D01*
X17398909Y28788134D01*
X15318961Y26708185D01*
X15098687Y26752000D01*
X14901313Y26752000D01*
X14609039Y26693863D01*
X14277598Y26472402D01*
X14056137Y26140961D01*
X13978370Y25750000D01*
X14056137Y25359039D01*
X14255948Y25060000D01*
X14198690Y25060000D01*
X13965301Y24963327D01*
X13786673Y24784698D01*
X13690000Y24551309D01*
X13690000Y24035750D01*
X13848750Y23877000D01*
X14873000Y23877000D01*
X14873000Y23897000D01*
X15127000Y23897000D01*
X15127000Y23877000D01*
X15147000Y23877000D01*
X15147000Y23623000D01*
X15127000Y23623000D01*
X15127000Y22598750D01*
X15168263Y22557487D01*
X13711863Y21101087D01*
X13674120Y21075868D01*
X13597947Y20961866D01*
X13574219Y20926355D01*
X13539139Y20749994D01*
X13547994Y20705476D01*
X13547995Y9680918D01*
X13547994Y9680913D01*
X13547994Y9646844D01*
X13341285Y9440135D01*
X13222994Y9154555D01*
X13222994Y8845445D01*
X13341285Y8559865D01*
X13559859Y8341291D01*
X13845439Y8223000D01*
X14154549Y8223000D01*
X14440129Y8341291D01*
X14624997Y8526159D01*
X14809865Y8341291D01*
X15095445Y8223000D01*
X15404555Y8223000D01*
X15690135Y8341291D01*
X15875000Y8526156D01*
X16059865Y8341291D01*
X16345445Y8223000D01*
X16654555Y8223000D01*
X16940135Y8341291D01*
X17158709Y8559865D01*
X17277000Y8845445D01*
X17277000Y9154555D01*
X17158709Y9440135D01*
X16952000Y9646844D01*
X16952000Y19062776D01*
X20681040Y22791815D01*
X20901313Y22748000D01*
X21098687Y22748000D01*
X21390961Y22806137D01*
X21722402Y23027598D01*
X21943863Y23359039D01*
X22000000Y23641259D01*
X22056137Y23359039D01*
X22277598Y23027598D01*
X22609039Y22806137D01*
X22901313Y22748000D01*
X23098687Y22748000D01*
X23390961Y22806137D01*
X23722402Y23027598D01*
X23943863Y23359039D01*
X24000000Y23641259D01*
X24056137Y23359039D01*
X24277598Y23027598D01*
X24609039Y22806137D01*
X24901313Y22748000D01*
X25098687Y22748000D01*
X25390961Y22806137D01*
X25722402Y23027598D01*
X25943863Y23359039D01*
X26021630Y23750000D01*
X25943863Y24140961D01*
X25722402Y24472402D01*
X25390961Y24693863D01*
X25108742Y24750000D01*
X25390961Y24806137D01*
X25722402Y25027598D01*
X25943863Y25359039D01*
X26021630Y25750000D01*
X25943863Y26140961D01*
X25722402Y26472402D01*
X25390961Y26693863D01*
X25098687Y26752000D01*
X24901313Y26752000D01*
X24609039Y26693863D01*
X24277598Y26472402D01*
X24056137Y26140961D01*
X24000000Y25858741D01*
X23943863Y26140961D01*
X23722402Y26472402D01*
X23390961Y26693863D01*
X23098687Y26752000D01*
X22901313Y26752000D01*
X22609039Y26693863D01*
X22277598Y26472402D01*
X22056137Y26140961D01*
X22000000Y25858741D01*
X21943863Y26140961D01*
X21722402Y26472402D01*
X21390961Y26693863D01*
X21098687Y26752000D01*
X20901313Y26752000D01*
X20609039Y26693863D01*
X20277598Y26472402D01*
X20056137Y26140961D01*
X20000000Y25858741D01*
X19943863Y26140961D01*
X19722402Y26472402D01*
X19390961Y26693863D01*
X19098687Y26752000D01*
X18901313Y26752000D01*
X18609039Y26693863D01*
X18277598Y26472402D01*
X18056137Y26140961D01*
X18000000Y25858741D01*
X17943863Y26140961D01*
X17722402Y26472402D01*
X17390961Y26693863D01*
X17098687Y26752000D01*
X16901313Y26752000D01*
X16609039Y26693863D01*
X16530830Y26641606D01*
X17937225Y28048000D01*
X27517652Y28048000D01*
X27629613Y27936039D01*
X27915193Y27817748D01*
X28224303Y27817748D01*
X28392749Y27887521D01*
X28392750Y20249386D01*
X21061744Y12918380D01*
X21024001Y12893161D01*
X20962099Y12800518D01*
X20924100Y12743648D01*
X20889020Y12567287D01*
X20897875Y12522769D01*
X20897876Y8198224D01*
X20897875Y8198219D01*
X20897875Y8164150D01*
X20691166Y7957441D01*
X20671355Y7909614D01*
X20658713Y7940135D01*
X20440139Y8158709D01*
X20154559Y8277000D01*
X19845449Y8277000D01*
X19559869Y8158709D01*
X19341295Y7940135D01*
X19223004Y7654555D01*
X19223004Y7345445D01*
X19239322Y7306050D01*
X19219065Y7302021D01*
X2087204Y7302021D01*
X1277000Y8112224D01*
X1277000Y8404555D01*
X1158709Y8690135D01*
X940135Y8908709D01*
X654555Y9027000D01*
X345445Y9027000D01*
X59865Y8908709D01*
X-158709Y8690135D01*
X-277000Y8404555D01*
X-277000Y8095445D01*
X-158709Y7809865D01*
X59865Y7591291D01*
X345445Y7473000D01*
X637776Y7473000D01*
X1258765Y6852010D01*
X-2712785Y6852010D01*
X-3473000Y7612224D01*
X-3473000Y7904555D01*
X-3591291Y8190135D01*
X-3809865Y8408709D01*
X-4095445Y8527000D01*
X-4404555Y8527000D01*
X-4690135Y8408709D01*
X-4908709Y8190135D01*
X-5027000Y7904555D01*
X-5027000Y7595445D01*
X-4908709Y7309865D01*
X-4690135Y7091291D01*
X-4404555Y6973000D01*
X-4112224Y6973000D01*
X-3541225Y6402000D01*
X-8210410Y6402000D01*
X-8250000Y6409875D01*
X-8289590Y6402000D01*
X-8406852Y6378675D01*
X-8539825Y6289825D01*
X-8628675Y6156852D01*
X-8659875Y6000000D01*
X-8651999Y5960405D01*
X-8652000Y3039590D01*
X-8659875Y3000000D01*
X-8628675Y2843148D01*
X-8617079Y2825794D01*
X-8539825Y2710175D01*
X-8406852Y2621325D01*
X-8250000Y2590125D01*
X-8210410Y2598000D01*
X6292803Y2598000D01*
X6223000Y2429481D01*
X6223000Y2222558D01*
X5807770Y2500006D01*
X5420696Y2577000D01*
X5159304Y2577000D01*
X4772230Y2500006D01*
X4333287Y2206713D01*
X4083406Y1832741D01*
X4083406Y2250000D01*
X4058027Y2377589D01*
X3985754Y2485754D01*
X3877589Y2558027D01*
X3750000Y2583406D01*
X1750000Y2583406D01*
X1622411Y2558027D01*
X1514246Y2485754D01*
X1441973Y2377589D01*
X1416594Y2250000D01*
X1416594Y250000D01*
X1441973Y122411D01*
X1514246Y14246D01*
X1622411Y-58027D01*
X1750000Y-83406D01*
X3750000Y-83406D01*
X3877589Y-58027D01*
X3985754Y14246D01*
X4058027Y122411D01*
X4083406Y250000D01*
X4083406Y667259D01*
X4333287Y293287D01*
X4772230Y-6D01*
X5159304Y-77000D01*
X5420696Y-77000D01*
X5807770Y-6D01*
X6246713Y293287D01*
X6540006Y732230D01*
X6642997Y1250000D01*
X6571075Y1611573D01*
X6845445Y1497926D01*
X7154555Y1497926D01*
X7440135Y1616217D01*
X7646844Y1822926D01*
X8230428Y1822926D01*
X8274946Y1814071D01*
X8319464Y1822926D01*
X8451308Y1849151D01*
X8600820Y1949052D01*
X8626039Y1986795D01*
X9362225Y2722980D01*
X9654555Y2722980D01*
X9940135Y2841271D01*
X10158709Y3059845D01*
X10277000Y3345425D01*
X10277000Y3654535D01*
X10158709Y3940115D01*
X9973834Y4124990D01*
X10158709Y4309865D01*
X10277000Y4595445D01*
X10277000Y4904555D01*
X10158709Y5190135D01*
X9960459Y5388385D01*
X9925775Y5562758D01*
X9851091Y5674530D01*
X9825874Y5712270D01*
X9788134Y5737487D01*
X9127599Y6398021D01*
X12823847Y6398021D01*
X12723000Y6154555D01*
X12723000Y5845445D01*
X12841291Y5559865D01*
X13048000Y5353156D01*
X13048001Y2044522D01*
X13039145Y2000000D01*
X13074225Y1823639D01*
X13080009Y1814983D01*
X13174127Y1674126D01*
X13211867Y1648909D01*
X14975631Y-114856D01*
X14975631Y-407186D01*
X15093922Y-692766D01*
X15312496Y-911340D01*
X15598076Y-1029631D01*
X15907186Y-1029631D01*
X16192766Y-911340D01*
X16411340Y-692766D01*
X16529631Y-407186D01*
X16529631Y-98076D01*
X16411340Y187504D01*
X16402985Y195859D01*
X16638169Y293276D01*
X16856743Y511850D01*
X16975034Y797430D01*
X16975034Y1106540D01*
X16856743Y1392120D01*
X16638169Y1610694D01*
X16352589Y1728985D01*
X16060259Y1728985D01*
X15202000Y2587243D01*
X15202000Y5353156D01*
X15408709Y5559865D01*
X15527000Y5845445D01*
X15527000Y6154555D01*
X15426153Y6398021D01*
X19076359Y6398021D01*
X20968767Y4505612D01*
X20734843Y4408718D01*
X20516269Y4190144D01*
X20397978Y3904564D01*
X20397978Y3595454D01*
X20516269Y3309874D01*
X20734843Y3091300D01*
X21020423Y2973009D01*
X21312753Y2973009D01*
X21735309Y2550453D01*
X21760527Y2512712D01*
X21890637Y2425775D01*
X21910039Y2412811D01*
X22086401Y2377731D01*
X22130919Y2386586D01*
X26247361Y2386586D01*
X24562776Y702000D01*
X23044516Y702000D01*
X22999999Y710855D01*
X22955483Y702000D01*
X22955482Y702000D01*
X22823638Y675775D01*
X22674126Y575874D01*
X22648909Y538134D01*
X17023582Y-5087194D01*
X16908709Y-4809865D01*
X16690135Y-4591291D01*
X16404555Y-4473000D01*
X16112225Y-4473000D01*
X14872169Y-3232945D01*
X14846950Y-3195202D01*
X14697438Y-3095301D01*
X14565594Y-3069076D01*
X14521076Y-3060221D01*
X14476558Y-3069076D01*
X12896771Y-3069076D01*
X12690062Y-2862367D01*
X12404482Y-2744076D01*
X12095372Y-2744076D01*
X11809792Y-2862367D01*
X11591218Y-3080941D01*
X11472927Y-3366521D01*
X11472927Y-3492712D01*
X11393299Y-3413084D01*
X10813685Y-3173000D01*
X10186315Y-3173000D01*
X9606701Y-3413084D01*
X9163084Y-3856701D01*
X8923000Y-4436315D01*
X8923000Y-5063685D01*
X9163084Y-5643299D01*
X9467795Y-5948010D01*
X8652000Y-5948010D01*
X8652000Y-3039590D01*
X8659875Y-3000000D01*
X8628675Y-2843148D01*
X8539825Y-2710175D01*
X8406852Y-2621325D01*
X8289590Y-2598000D01*
X8250000Y-2590125D01*
X8210410Y-2598000D01*
X-8210410Y-2598000D01*
X-8250000Y-2590125D01*
X-8289590Y-2598000D01*
X-8406852Y-2621325D01*
X-8539825Y-2710175D01*
X-8628675Y-2843148D01*
X-8659875Y-3000000D01*
X-8651999Y-3039595D01*
X-8652000Y-5960410D01*
X-8659875Y-6000000D01*
X-8628675Y-6156852D01*
X-8539825Y-6289825D01*
X-8406852Y-6378675D01*
X-8250000Y-6409875D01*
X-8210410Y-6402000D01*
X1958775Y-6402000D01*
X819467Y-7541309D01*
X654555Y-7473000D01*
X345445Y-7473000D01*
X59865Y-7591291D01*
X-158709Y-7809865D01*
X-277000Y-8095445D01*
X-277000Y-8404555D01*
X-158709Y-8690135D01*
X59865Y-8908709D01*
X345445Y-9027000D01*
X654555Y-9027000D01*
X940135Y-8908709D01*
X1158709Y-8690135D01*
X1250000Y-8469739D01*
X1341291Y-8690135D01*
X1559865Y-8908709D01*
X1845445Y-9027000D01*
X2154555Y-9027000D01*
X2440135Y-8908709D01*
X2658709Y-8690135D01*
X2777000Y-8404555D01*
X2777000Y-8112224D01*
X3587204Y-7302021D01*
X6463612Y-7302021D01*
X6446545Y-7319088D01*
X6328254Y-7604668D01*
X6328254Y-7913778D01*
X6446545Y-8199358D01*
X6665119Y-8417932D01*
X6950699Y-8536223D01*
X7243030Y-8536223D01*
X8119009Y-9412202D01*
X8144228Y-9449945D01*
X8293740Y-9549846D01*
X8470102Y-9584926D01*
X8514620Y-9576071D01*
X12973821Y-9576071D01*
X13180530Y-9782780D01*
X13466110Y-9901071D01*
X13482525Y-9901071D01*
X13024368Y-10359228D01*
X13024368Y-10342813D01*
X12906077Y-10057233D01*
X12687503Y-9838659D01*
X12401923Y-9720368D01*
X12092813Y-9720368D01*
X11807233Y-9838659D01*
X11597892Y-10048000D01*
X9396844Y-10048000D01*
X9190135Y-9841291D01*
X8904555Y-9723000D01*
X8595445Y-9723000D01*
X8309865Y-9841291D01*
X8091291Y-10059865D01*
X7973000Y-10345445D01*
X7973000Y-10654555D01*
X8091291Y-10940135D01*
X8309865Y-11158709D01*
X8595445Y-11277000D01*
X8904555Y-11277000D01*
X9190135Y-11158709D01*
X9396844Y-10952000D01*
X11603156Y-10952000D01*
X11807233Y-11156077D01*
X12092813Y-11274368D01*
X12109228Y-11274368D01*
X12085597Y-11297999D01*
X-30062776Y-11297999D01*
X-32648908Y-8711868D01*
X-32648910Y-8711865D01*
X-32797134Y-8563641D01*
X-32673000Y-8263957D01*
X-32673000Y-7736043D01*
X-32875024Y-7248315D01*
X-33248315Y-6875024D01*
X-33548000Y-6750890D01*
X-33548000Y-2749110D01*
X-33248315Y-2624976D01*
X-32875024Y-2251685D01*
X-32673000Y-1763957D01*
X-32673000Y-1236043D01*
X-32875024Y-748315D01*
X-33248315Y-375024D01*
X-33736043Y-173000D01*
X-34263957Y-173000D01*
X-34751685Y-375024D01*
X-35048000Y-671339D01*
X-35048000Y3812776D01*
X-30887775Y7973000D01*
X-30595445Y7973000D01*
X-30309865Y8091291D01*
X-30091291Y8309865D01*
X-29973000Y8595445D01*
X-29973000Y8904555D01*
X-30091291Y9190135D01*
X-30276156Y9375000D01*
X-30091291Y9559865D01*
X-29973000Y9845445D01*
X-29973000Y10154555D01*
X-30091291Y10440135D01*
X-30309865Y10658709D01*
X-30595445Y10777000D01*
X-30904555Y10777000D01*
X-31190135Y10658709D01*
X-31408709Y10440135D01*
X-31527000Y10154555D01*
X-31527000Y9862225D01*
X-36288131Y5101093D01*
X-36325874Y5075874D01*
X-36391571Y4977551D01*
X-36425775Y4926361D01*
X-36460855Y4750000D01*
X-36452000Y4705483D01*
X-36451999Y-8817340D01*
X-36425774Y-8949184D01*
X-36325873Y-9098696D01*
X-36295907Y-9118719D01*
X-36275884Y-9148685D01*
X-36238141Y-9173904D01*
X-32473893Y-12938152D01*
X-32448676Y-12975892D01*
X-32410936Y-13001109D01*
X-32299164Y-13075793D01*
X-32122803Y-13110874D01*
X-32078282Y-13102018D01*
X-29888246Y-13102019D01*
X-30013131Y-13226905D01*
X-30050871Y-13252122D01*
X-30076088Y-13289862D01*
X-30076089Y-13289863D01*
X-30150773Y-13401635D01*
X-30185853Y-13577996D01*
X-30176997Y-13622518D01*
X-30176998Y-15287774D01*
X-30772930Y-15883706D01*
X-31014817Y-15368642D01*
X-31443076Y-14978355D01*
X-31853110Y-14808524D01*
X-32083000Y-14929845D01*
X-32083000Y-16123000D01*
X-32063000Y-16123000D01*
X-32063000Y-16377000D01*
X-32083000Y-16377000D01*
X-32083000Y-16397000D01*
X-32337000Y-16397000D01*
X-32337000Y-16377000D01*
X-32357000Y-16377000D01*
X-32357000Y-16123000D01*
X-32337000Y-16123000D01*
X-32337000Y-14929845D01*
X-32566890Y-14808524D01*
X-32976924Y-14978355D01*
X-33405183Y-15368642D01*
X-33566594Y-15712343D01*
X-33566594Y-15400000D01*
X-33591973Y-15272411D01*
X-33664246Y-15164246D01*
X-33772411Y-15091973D01*
X-33900000Y-15066594D01*
X-35600000Y-15066594D01*
X-35727589Y-15091973D01*
X-35835754Y-15164246D01*
X-35908027Y-15272411D01*
X-35933406Y-15400000D01*
X-35933406Y-17100000D01*
X-35908027Y-17227589D01*
X-35835754Y-17335754D01*
X-35727589Y-17408027D01*
X-35600000Y-17433406D01*
X-33900000Y-17433406D01*
X-33772411Y-17408027D01*
X-33664246Y-17335754D01*
X-33591973Y-17227589D01*
X-33566594Y-17100000D01*
X-33566594Y-16787657D01*
X-33405183Y-17131358D01*
X-32976924Y-17521645D01*
X-32576655Y-17687431D01*
X-33357224Y-18468000D01*
X-37139850Y-18468000D01*
X-37141291Y-18460758D01*
X-37401431Y-18071431D01*
X-37790758Y-17811291D01*
X-38134080Y-17743000D01*
X-38365920Y-17743000D01*
X-38709242Y-17811291D01*
X-39098569Y-18071431D01*
X-39358709Y-18460758D01*
X-39450058Y-18920000D01*
X-39358709Y-19379242D01*
X-39098569Y-19768569D01*
X-38709242Y-20028709D01*
X-38365920Y-20097000D01*
X-38134080Y-20097000D01*
X-37790758Y-20028709D01*
X-37401431Y-19768569D01*
X-37141291Y-19379242D01*
X-37139850Y-19372000D01*
X-33624814Y-19372000D01*
X-35260814Y-21008000D01*
X-37139850Y-21008000D01*
X-37141291Y-21000758D01*
X-37401431Y-20611431D01*
X-37790758Y-20351291D01*
X-38134080Y-20283000D01*
X-38365920Y-20283000D01*
X-38709242Y-20351291D01*
X-39098569Y-20611431D01*
X-39358709Y-21000758D01*
X-39450058Y-21460000D01*
X-39358709Y-21919242D01*
X-39098569Y-22308569D01*
X-38709242Y-22568709D01*
X-38365920Y-22637000D01*
X-38134080Y-22637000D01*
X-37790758Y-22568709D01*
X-37401431Y-22308569D01*
X-37141291Y-21919242D01*
X-37139850Y-21912000D01*
X-35118108Y-21912000D01*
X-35073590Y-21920855D01*
X-35029072Y-21912000D01*
X-34897228Y-21885775D01*
X-34747716Y-21785874D01*
X-34722497Y-21748131D01*
X-28979051Y-16004686D01*
X-29027000Y-16120445D01*
X-29027000Y-16429555D01*
X-28908709Y-16715135D01*
X-28690135Y-16933709D01*
X-28404555Y-17052000D01*
X-28095445Y-17052000D01*
X-27809865Y-16933709D01*
X-27591291Y-16715135D01*
X-27473000Y-16429555D01*
X-27473000Y-16120445D01*
X-27591291Y-15834865D01*
X-27755085Y-15671071D01*
X-26787819Y-14703805D01*
X-26750079Y-14678588D01*
X-26650178Y-14529076D01*
X-26650178Y-14529075D01*
X-26615098Y-14352715D01*
X-26623953Y-14308197D01*
X-26623953Y-13653228D01*
X-26615098Y-13608711D01*
X-26626603Y-13550873D01*
X-26650178Y-13432350D01*
X-26750079Y-13282838D01*
X-26787820Y-13257620D01*
X-27393431Y-12652010D01*
X-21541235Y-12652010D01*
X-31686358Y-22797134D01*
X-31986043Y-22673000D01*
X-32513957Y-22673000D01*
X-33001685Y-22875024D01*
X-33374976Y-23248315D01*
X-33577000Y-23736043D01*
X-33577000Y-24263957D01*
X-33374976Y-24751685D01*
X-33001685Y-25124976D01*
X-32513957Y-25327000D01*
X-31986043Y-25327000D01*
X-31498315Y-25124976D01*
X-31125024Y-24751685D01*
X-30923000Y-24263957D01*
X-30923000Y-23736043D01*
X-29077000Y-23736043D01*
X-29077000Y-24263957D01*
X-28874976Y-24751685D01*
X-28501685Y-25124976D01*
X-28013957Y-25327000D01*
X-27486043Y-25327000D01*
X-26998315Y-25124976D01*
X-26625024Y-24751685D01*
X-26423000Y-24263957D01*
X-26423000Y-23736043D01*
X-26625024Y-23248315D01*
X-26998315Y-22875024D01*
X-27486043Y-22673000D01*
X-28013957Y-22673000D01*
X-28501685Y-22875024D01*
X-28874976Y-23248315D01*
X-29077000Y-23736043D01*
X-30923000Y-23736043D01*
X-31047134Y-23436358D01*
X-20762786Y-13152011D01*
X-14541236Y-13152011D01*
X-24038132Y-22648908D01*
X-24038135Y-22648910D01*
X-24186359Y-22797134D01*
X-24486043Y-22673000D01*
X-25013957Y-22673000D01*
X-25501685Y-22875024D01*
X-25874976Y-23248315D01*
X-26077000Y-23736043D01*
X-26077000Y-24263957D01*
X-25874976Y-24751685D01*
X-25501685Y-25124976D01*
X-25013957Y-25327000D01*
X-24486043Y-25327000D01*
X-23998315Y-25124976D01*
X-23625024Y-24751685D01*
X-23423000Y-24263957D01*
X-23423000Y-23736043D01*
X-21577000Y-23736043D01*
X-21577000Y-24263957D01*
X-21374976Y-24751685D01*
X-21001685Y-25124976D01*
X-20513957Y-25327000D01*
X-19986043Y-25327000D01*
X-19498315Y-25124976D01*
X-19125024Y-24751685D01*
X-18923000Y-24263957D01*
X-18923000Y-23736043D01*
X-19125024Y-23248315D01*
X-19498315Y-22875024D01*
X-19986043Y-22673000D01*
X-20513957Y-22673000D01*
X-21001685Y-22875024D01*
X-21374976Y-23248315D01*
X-21577000Y-23736043D01*
X-23423000Y-23736043D01*
X-23547134Y-23436359D01*
X-23398910Y-23288135D01*
X-23398908Y-23288132D01*
X-13712797Y-13602022D01*
X-7491247Y-13602022D01*
X-16538132Y-22648908D01*
X-16538135Y-22648910D01*
X-16686359Y-22797134D01*
X-16986043Y-22673000D01*
X-17513957Y-22673000D01*
X-18001685Y-22875024D01*
X-18374976Y-23248315D01*
X-18577000Y-23736043D01*
X-18577000Y-24263957D01*
X-18374976Y-24751685D01*
X-18001685Y-25124976D01*
X-17513957Y-25327000D01*
X-16986043Y-25327000D01*
X-16498315Y-25124976D01*
X-16125024Y-24751685D01*
X-15923000Y-24263957D01*
X-15923000Y-23736043D01*
X-14077000Y-23736043D01*
X-14077000Y-24263957D01*
X-13874976Y-24751685D01*
X-13501685Y-25124976D01*
X-13013957Y-25327000D01*
X-12486043Y-25327000D01*
X-11998315Y-25124976D01*
X-11625024Y-24751685D01*
X-11423000Y-24263957D01*
X-11423000Y-23736043D01*
X-11625024Y-23248315D01*
X-11998315Y-22875024D01*
X-12486043Y-22673000D01*
X-13013957Y-22673000D01*
X-13501685Y-22875024D01*
X-13874976Y-23248315D01*
X-14077000Y-23736043D01*
X-15923000Y-23736043D01*
X-16047134Y-23436359D01*
X-15898910Y-23288135D01*
X-15898908Y-23288132D01*
X-6662808Y-14052033D01*
X12923912Y-14052033D01*
X12968430Y-14060888D01*
X13012948Y-14052033D01*
X13144792Y-14025808D01*
X13294304Y-13925907D01*
X13319523Y-13888164D01*
X15905685Y-11302003D01*
X17379689Y-11302003D01*
X17284839Y-11341291D01*
X17066265Y-11559865D01*
X16947974Y-11845445D01*
X16947974Y-12154555D01*
X17066265Y-12440135D01*
X17213637Y-12587507D01*
X17091291Y-12709852D01*
X16973000Y-12995432D01*
X16973000Y-13304542D01*
X17091291Y-13590122D01*
X17309865Y-13808696D01*
X17349211Y-13824994D01*
X17309865Y-13841291D01*
X17091291Y-14059865D01*
X16973000Y-14345445D01*
X16973000Y-14654555D01*
X17091291Y-14940135D01*
X17309865Y-15158709D01*
X17595445Y-15277000D01*
X17904555Y-15277000D01*
X18190135Y-15158709D01*
X18396844Y-14952000D01*
X19603156Y-14952000D01*
X19809865Y-15158709D01*
X20095445Y-15277000D01*
X20404555Y-15277000D01*
X20690135Y-15158709D01*
X20908709Y-14940135D01*
X21027000Y-14654555D01*
X21027000Y-14345445D01*
X20908709Y-14059865D01*
X20723844Y-13875000D01*
X20908709Y-13690135D01*
X21027000Y-13404555D01*
X21027000Y-13095445D01*
X20908709Y-12809865D01*
X20723844Y-12625000D01*
X20908709Y-12440135D01*
X21027000Y-12154555D01*
X21027000Y-11845445D01*
X20961087Y-11686315D01*
X22173000Y-11686315D01*
X22173000Y-12313685D01*
X22413084Y-12893299D01*
X22856701Y-13336916D01*
X23436315Y-13577000D01*
X24063685Y-13577000D01*
X24643299Y-13336916D01*
X25086916Y-12893299D01*
X25327000Y-12313685D01*
X25327000Y-11686315D01*
X25086916Y-11106701D01*
X24643299Y-10663084D01*
X24063685Y-10423000D01*
X23436315Y-10423000D01*
X22856701Y-10663084D01*
X22413084Y-11106701D01*
X22173000Y-11686315D01*
X20961087Y-11686315D01*
X20908709Y-11559865D01*
X20773846Y-11425002D01*
X20908709Y-11290138D01*
X21027000Y-11004558D01*
X21027000Y-10695448D01*
X20908709Y-10409868D01*
X20798843Y-10300002D01*
X20908709Y-10190135D01*
X21027000Y-9904555D01*
X21027000Y-9595445D01*
X20908709Y-9309865D01*
X20749032Y-9150188D01*
X20891917Y-9007303D01*
X21010208Y-8721723D01*
X21010208Y-8412613D01*
X20916473Y-8186315D01*
X22173000Y-8186315D01*
X22173000Y-8813685D01*
X22413084Y-9393299D01*
X22856701Y-9836916D01*
X23436315Y-10077000D01*
X24063685Y-10077000D01*
X24643299Y-9836916D01*
X25086916Y-9393299D01*
X25327000Y-8813685D01*
X25327000Y-8186315D01*
X25086916Y-7606701D01*
X24643299Y-7163084D01*
X24063685Y-6923000D01*
X23436315Y-6923000D01*
X22856701Y-7163084D01*
X22413084Y-7606701D01*
X22173000Y-8186315D01*
X20916473Y-8186315D01*
X20891917Y-8127033D01*
X20673343Y-7908459D01*
X20632389Y-7891495D01*
X20833740Y-7690144D01*
X20952031Y-7404564D01*
X20952031Y-7095454D01*
X20833740Y-6809874D01*
X20615166Y-6591300D01*
X20329586Y-6473009D01*
X20020476Y-6473009D01*
X19734896Y-6591300D01*
X19528187Y-6798009D01*
X17864036Y-6798009D01*
X23560024Y-1102022D01*
X24287824Y-1102022D01*
X24011850Y-1216334D01*
X23813601Y-1414583D01*
X23639227Y-1449268D01*
X23489715Y-1549169D01*
X23464497Y-1586910D01*
X22899828Y-2151580D01*
X22862088Y-2176797D01*
X22836871Y-2214537D01*
X22836870Y-2214538D01*
X22762186Y-2326310D01*
X22727106Y-2502671D01*
X22735962Y-2547193D01*
X22735961Y-3389387D01*
X22727106Y-3433905D01*
X22740658Y-3502038D01*
X22762186Y-3610266D01*
X22862087Y-3759779D01*
X22899830Y-3784998D01*
X25597990Y-6483159D01*
X25597989Y-21175471D01*
X25589134Y-21219989D01*
X25601795Y-21283639D01*
X25624214Y-21396350D01*
X25724115Y-21545863D01*
X25761858Y-21571082D01*
X33975393Y-29784618D01*
X33971291Y-29790758D01*
X33879942Y-30250000D01*
X33971291Y-30709242D01*
X34231431Y-31098569D01*
X34620758Y-31358709D01*
X34964080Y-31427000D01*
X35195920Y-31427000D01*
X35539242Y-31358709D01*
X35928569Y-31098569D01*
X36188709Y-30709242D01*
X36280058Y-30250000D01*
X36188709Y-29790758D01*
X35928569Y-29401431D01*
X35680370Y-29235590D01*
X35966366Y-29235590D01*
X36515394Y-29784618D01*
X36511291Y-29790758D01*
X36419942Y-30250000D01*
X36511291Y-30709242D01*
X36771431Y-31098569D01*
X37160758Y-31358709D01*
X37504080Y-31427000D01*
X37735920Y-31427000D01*
X38079242Y-31358709D01*
X38468569Y-31098569D01*
X38728709Y-30709242D01*
X38820058Y-30250000D01*
X38728709Y-29790758D01*
X38468569Y-29401431D01*
X38079242Y-29141291D01*
X37735920Y-29073000D01*
X37504080Y-29073000D01*
X37160758Y-29141291D01*
X37154618Y-29145394D01*
X36504683Y-28495459D01*
X36479464Y-28457716D01*
X36329952Y-28357815D01*
X36198108Y-28331590D01*
X36153590Y-28322735D01*
X36109072Y-28331590D01*
X34437225Y-28331590D01*
X33571787Y-27466152D01*
X42323000Y-27466152D01*
X42323000Y-28033848D01*
X42540247Y-28558331D01*
X42941669Y-28959753D01*
X43466152Y-29177000D01*
X44033848Y-29177000D01*
X44558331Y-28959753D01*
X44959753Y-28558331D01*
X45177000Y-28033848D01*
X45177000Y-27466152D01*
X44959753Y-26941669D01*
X44558331Y-26540247D01*
X44033848Y-26323000D01*
X43466152Y-26323000D01*
X42941669Y-26540247D01*
X42540247Y-26941669D01*
X42323000Y-27466152D01*
X33571787Y-27466152D01*
X26952000Y-20846366D01*
X26952000Y-11540000D01*
X31049942Y-11540000D01*
X31141291Y-11999242D01*
X31401431Y-12388569D01*
X31790758Y-12648709D01*
X32134080Y-12717000D01*
X32365920Y-12717000D01*
X32709242Y-12648709D01*
X33098569Y-12388569D01*
X33358709Y-11999242D01*
X33450058Y-11540000D01*
X33358709Y-11080758D01*
X33098569Y-10691431D01*
X32709242Y-10431291D01*
X32365920Y-10363000D01*
X32134080Y-10363000D01*
X31790758Y-10431291D01*
X31401431Y-10691431D01*
X31141291Y-11080758D01*
X31049942Y-11540000D01*
X26952000Y-11540000D01*
X26952000Y-8150000D01*
X31066594Y-8150000D01*
X31066594Y-9850000D01*
X31091973Y-9977589D01*
X31164246Y-10085754D01*
X31272411Y-10158027D01*
X31400000Y-10183406D01*
X33100000Y-10183406D01*
X33227589Y-10158027D01*
X33335754Y-10085754D01*
X33408027Y-9977589D01*
X33433406Y-9850000D01*
X33433406Y-8150000D01*
X33408027Y-8022411D01*
X33335754Y-7914246D01*
X33227589Y-7841973D01*
X33100000Y-7816594D01*
X31400000Y-7816594D01*
X31272411Y-7841973D01*
X31164246Y-7914246D01*
X31091973Y-8022411D01*
X31066594Y-8150000D01*
X26952000Y-8150000D01*
X26952000Y-5643456D01*
X26960855Y-5598939D01*
X26935591Y-5471929D01*
X26925775Y-5422578D01*
X26825874Y-5273066D01*
X26788131Y-5247847D01*
X24764055Y-3223771D01*
X24764053Y-3223768D01*
X24739963Y-3199678D01*
X24739963Y-2907348D01*
X24630160Y-2642259D01*
X24892120Y-2533752D01*
X25110694Y-2315178D01*
X25228985Y-2029598D01*
X25228985Y-1720488D01*
X25110694Y-1434908D01*
X24892120Y-1216334D01*
X24616146Y-1102022D01*
X25078282Y-1102022D01*
X25122800Y-1110877D01*
X25167318Y-1102022D01*
X25299162Y-1075797D01*
X25448674Y-975896D01*
X25473893Y-938153D01*
X25585418Y-826628D01*
X26245262Y-826628D01*
X26209862Y-841291D01*
X25991288Y-1059865D01*
X25872997Y-1345445D01*
X25872997Y-1654555D01*
X25991288Y-1940135D01*
X26209862Y-2158709D01*
X26477584Y-2269603D01*
X26291563Y-2455624D01*
X26173272Y-2741204D01*
X26173272Y-3050314D01*
X26291563Y-3335894D01*
X26510137Y-3554468D01*
X26795717Y-3672759D01*
X27104827Y-3672759D01*
X27390407Y-3554468D01*
X27597116Y-3347759D01*
X27708535Y-3347759D01*
X31848918Y-7488142D01*
X31874137Y-7525885D01*
X32016491Y-7621003D01*
X32023649Y-7625786D01*
X32200011Y-7660866D01*
X32244529Y-7652011D01*
X42288896Y-7652011D01*
X42333414Y-7660866D01*
X42377932Y-7652011D01*
X42509776Y-7625786D01*
X42659288Y-7525885D01*
X42684507Y-7488142D01*
X44889835Y-5282815D01*
X44808524Y-5436890D01*
X44978355Y-5846924D01*
X45368642Y-6275183D01*
X45712343Y-6436594D01*
X45400000Y-6436594D01*
X45272411Y-6461973D01*
X45164246Y-6534246D01*
X45091973Y-6642411D01*
X45066594Y-6770000D01*
X45066594Y-8470000D01*
X45091973Y-8597589D01*
X45164246Y-8705754D01*
X45272411Y-8778027D01*
X45400000Y-8803406D01*
X47100000Y-8803406D01*
X47227589Y-8778027D01*
X47335754Y-8705754D01*
X47408027Y-8597589D01*
X47433406Y-8470000D01*
X47433406Y-6770000D01*
X47408027Y-6642411D01*
X47335754Y-6534246D01*
X47227589Y-6461973D01*
X47100000Y-6436594D01*
X46787657Y-6436594D01*
X47131358Y-6275183D01*
X47521645Y-5846924D01*
X47598000Y-5662574D01*
X47598000Y-27730342D01*
X47522825Y-28497036D01*
X47305871Y-29215624D01*
X46953475Y-29878383D01*
X46479059Y-30460075D01*
X45900695Y-30938539D01*
X45240412Y-31295552D01*
X44523360Y-31517517D01*
X43757903Y-31597969D01*
X43749162Y-31598000D01*
X25502575Y-31598000D01*
X25686924Y-31521645D01*
X26115183Y-31131358D01*
X26340023Y-30652594D01*
X26351291Y-30709242D01*
X26611431Y-31098569D01*
X27000758Y-31358709D01*
X27344080Y-31427000D01*
X27575920Y-31427000D01*
X27919242Y-31358709D01*
X28308569Y-31098569D01*
X28568709Y-30709242D01*
X28660058Y-30250000D01*
X28799942Y-30250000D01*
X28891291Y-30709242D01*
X29151431Y-31098569D01*
X29540758Y-31358709D01*
X29884080Y-31427000D01*
X30115920Y-31427000D01*
X30459242Y-31358709D01*
X30848569Y-31098569D01*
X31108709Y-30709242D01*
X31200058Y-30250000D01*
X31339942Y-30250000D01*
X31431291Y-30709242D01*
X31691431Y-31098569D01*
X32080758Y-31358709D01*
X32424080Y-31427000D01*
X32655920Y-31427000D01*
X32999242Y-31358709D01*
X33388569Y-31098569D01*
X33648709Y-30709242D01*
X33740058Y-30250000D01*
X33648709Y-29790758D01*
X33388569Y-29401431D01*
X32999242Y-29141291D01*
X32655920Y-29073000D01*
X32424080Y-29073000D01*
X32080758Y-29141291D01*
X31691431Y-29401431D01*
X31431291Y-29790758D01*
X31339942Y-30250000D01*
X31200058Y-30250000D01*
X31108709Y-29790758D01*
X30848569Y-29401431D01*
X30459242Y-29141291D01*
X30115920Y-29073000D01*
X29884080Y-29073000D01*
X29540758Y-29141291D01*
X29151431Y-29401431D01*
X28891291Y-29790758D01*
X28799942Y-30250000D01*
X28660058Y-30250000D01*
X28568709Y-29790758D01*
X28308569Y-29401431D01*
X27919242Y-29141291D01*
X27575920Y-29073000D01*
X27344080Y-29073000D01*
X27000758Y-29141291D01*
X26611431Y-29401431D01*
X26351291Y-29790758D01*
X26340023Y-29847406D01*
X26115183Y-29368642D01*
X25686924Y-28978355D01*
X25276890Y-28808524D01*
X25047000Y-28929845D01*
X25047000Y-30123000D01*
X25067000Y-30123000D01*
X25067000Y-30377000D01*
X25047000Y-30377000D01*
X25047000Y-30397000D01*
X24793000Y-30397000D01*
X24793000Y-30377000D01*
X24773000Y-30377000D01*
X24773000Y-30123000D01*
X24793000Y-30123000D01*
X24793000Y-28929845D01*
X24563110Y-28808524D01*
X24153076Y-28978355D01*
X23724817Y-29368642D01*
X23563406Y-29712343D01*
X23563406Y-29400000D01*
X23538027Y-29272411D01*
X23465754Y-29164246D01*
X23357589Y-29091973D01*
X23230000Y-29066594D01*
X21530000Y-29066594D01*
X21402411Y-29091973D01*
X21294246Y-29164246D01*
X21221973Y-29272411D01*
X21196594Y-29400000D01*
X21196594Y-31100000D01*
X21221973Y-31227589D01*
X21294246Y-31335754D01*
X21402411Y-31408027D01*
X21530000Y-31433406D01*
X23230000Y-31433406D01*
X23357589Y-31408027D01*
X23465754Y-31335754D01*
X23538027Y-31227589D01*
X23563406Y-31100000D01*
X23563406Y-30787657D01*
X23724817Y-31131358D01*
X24153076Y-31521645D01*
X24337425Y-31598000D01*
X-11971339Y-31598000D01*
X-11625024Y-31251685D01*
X-11423000Y-30763957D01*
X-11423000Y-30236043D01*
X-11625024Y-29748315D01*
X-11998315Y-29375024D01*
X-12486043Y-29173000D01*
X-13013957Y-29173000D01*
X-13501685Y-29375024D01*
X-13874976Y-29748315D01*
X-14077000Y-30236043D01*
X-14077000Y-30763957D01*
X-13874976Y-31251685D01*
X-13528661Y-31598000D01*
X-16471339Y-31598000D01*
X-16125024Y-31251685D01*
X-15923000Y-30763957D01*
X-15923000Y-30236043D01*
X-16125024Y-29748315D01*
X-16498315Y-29375024D01*
X-16986043Y-29173000D01*
X-17513957Y-29173000D01*
X-18001685Y-29375024D01*
X-18374976Y-29748315D01*
X-18577000Y-30236043D01*
X-18577000Y-30763957D01*
X-18374976Y-31251685D01*
X-18028661Y-31598000D01*
X-19471339Y-31598000D01*
X-19125024Y-31251685D01*
X-18923000Y-30763957D01*
X-18923000Y-30236043D01*
X-19125024Y-29748315D01*
X-19498315Y-29375024D01*
X-19986043Y-29173000D01*
X-20513957Y-29173000D01*
X-21001685Y-29375024D01*
X-21374976Y-29748315D01*
X-21577000Y-30236043D01*
X-21577000Y-30763957D01*
X-21374976Y-31251685D01*
X-21028661Y-31598000D01*
X-23971339Y-31598000D01*
X-23625024Y-31251685D01*
X-23423000Y-30763957D01*
X-23423000Y-30236043D01*
X-23625024Y-29748315D01*
X-23998315Y-29375024D01*
X-24486043Y-29173000D01*
X-25013957Y-29173000D01*
X-25501685Y-29375024D01*
X-25874976Y-29748315D01*
X-26077000Y-30236043D01*
X-26077000Y-30763957D01*
X-25874976Y-31251685D01*
X-25528661Y-31598000D01*
X-26971339Y-31598000D01*
X-26625024Y-31251685D01*
X-26423000Y-30763957D01*
X-26423000Y-30236043D01*
X-26625024Y-29748315D01*
X-26998315Y-29375024D01*
X-27486043Y-29173000D01*
X-28013957Y-29173000D01*
X-28501685Y-29375024D01*
X-28874976Y-29748315D01*
X-29077000Y-30236043D01*
X-29077000Y-30763957D01*
X-28874976Y-31251685D01*
X-28528661Y-31598000D01*
X-31471339Y-31598000D01*
X-31125024Y-31251685D01*
X-30923000Y-30763957D01*
X-30923000Y-30236043D01*
X-31125024Y-29748315D01*
X-31498315Y-29375024D01*
X-31986043Y-29173000D01*
X-32513957Y-29173000D01*
X-33001685Y-29375024D01*
X-33374976Y-29748315D01*
X-33577000Y-30236043D01*
X-33577000Y-30763957D01*
X-33374976Y-31251685D01*
X-33028661Y-31598000D01*
X-35730342Y-31598000D01*
X-36497036Y-31522825D01*
X-37215624Y-31305871D01*
X-37878383Y-30953475D01*
X-38460075Y-30479059D01*
X-38938539Y-29900695D01*
X-39295552Y-29240412D01*
X-39517517Y-28523360D01*
X-39597969Y-27757903D01*
X-39598000Y-27749162D01*
X-39598000Y-27466152D01*
X-37177000Y-27466152D01*
X-37177000Y-28033848D01*
X-36959753Y-28558331D01*
X-36558331Y-28959753D01*
X-36033848Y-29177000D01*
X-35466152Y-29177000D01*
X-34941669Y-28959753D01*
X-34540247Y-28558331D01*
X-34323000Y-28033848D01*
X-34323000Y-27466152D01*
X-10427000Y-27466152D01*
X-10427000Y-28033848D01*
X-10209753Y-28558331D01*
X-9808331Y-28959753D01*
X-9283848Y-29177000D01*
X-8716152Y-29177000D01*
X-8191669Y-28959753D01*
X-7790247Y-28558331D01*
X-7573000Y-28033848D01*
X-7573000Y-27466152D01*
X7573000Y-27466152D01*
X7573000Y-28033848D01*
X7790247Y-28558331D01*
X8191669Y-28959753D01*
X8716152Y-29177000D01*
X9283848Y-29177000D01*
X9808331Y-28959753D01*
X10209753Y-28558331D01*
X10427000Y-28033848D01*
X10427000Y-27466152D01*
X10209753Y-26941669D01*
X9808331Y-26540247D01*
X9283848Y-26323000D01*
X8716152Y-26323000D01*
X8191669Y-26540247D01*
X7790247Y-26941669D01*
X7573000Y-27466152D01*
X-7573000Y-27466152D01*
X-7790247Y-26941669D01*
X-8191669Y-26540247D01*
X-8716152Y-26323000D01*
X-9283848Y-26323000D01*
X-9808331Y-26540247D01*
X-10209753Y-26941669D01*
X-10427000Y-27466152D01*
X-34323000Y-27466152D01*
X-34540247Y-26941669D01*
X-34941669Y-26540247D01*
X-35466152Y-26323000D01*
X-36033848Y-26323000D01*
X-36558331Y-26540247D01*
X-36959753Y-26941669D01*
X-37177000Y-27466152D01*
X-39598000Y-27466152D01*
X-39598000Y-24000000D01*
X-39450058Y-24000000D01*
X-39358709Y-24459242D01*
X-39098569Y-24848569D01*
X-38709242Y-25108709D01*
X-38365920Y-25177000D01*
X-38134080Y-25177000D01*
X-37790758Y-25108709D01*
X-37401431Y-24848569D01*
X-37141291Y-24459242D01*
X-37049942Y-24000000D01*
X-37141291Y-23540758D01*
X-37401431Y-23151431D01*
X-37790758Y-22891291D01*
X-38134080Y-22823000D01*
X-38365920Y-22823000D01*
X-38709242Y-22891291D01*
X-39098569Y-23151431D01*
X-39358709Y-23540758D01*
X-39450058Y-24000000D01*
X-39598000Y-24000000D01*
X-39598000Y-16380000D01*
X-39450058Y-16380000D01*
X-39358709Y-16839242D01*
X-39098569Y-17228569D01*
X-38709242Y-17488709D01*
X-38365920Y-17557000D01*
X-38134080Y-17557000D01*
X-37790758Y-17488709D01*
X-37401431Y-17228569D01*
X-37141291Y-16839242D01*
X-37049942Y-16380000D01*
X-37141291Y-15920758D01*
X-37401431Y-15531431D01*
X-37790758Y-15271291D01*
X-38134080Y-15203000D01*
X-38365920Y-15203000D01*
X-38709242Y-15271291D01*
X-39098569Y-15531431D01*
X-39358709Y-15920758D01*
X-39450058Y-16380000D01*
X-39598000Y-16380000D01*
X-39598000Y-13840000D01*
X-39450058Y-13840000D01*
X-39358709Y-14299242D01*
X-39098569Y-14688569D01*
X-38709242Y-14948709D01*
X-38365920Y-15017000D01*
X-38134080Y-15017000D01*
X-37790758Y-14948709D01*
X-37401431Y-14688569D01*
X-37141291Y-14299242D01*
X-37049942Y-13840000D01*
X-37141291Y-13380758D01*
X-37401431Y-12991431D01*
X-37790758Y-12731291D01*
X-38134080Y-12663000D01*
X-38365920Y-12663000D01*
X-38709242Y-12731291D01*
X-39098569Y-12991431D01*
X-39358709Y-13380758D01*
X-39450058Y-13840000D01*
X-39598000Y-13840000D01*
X-39598000Y-10450000D01*
X-39433406Y-10450000D01*
X-39433406Y-12150000D01*
X-39408027Y-12277589D01*
X-39335754Y-12385754D01*
X-39227589Y-12458027D01*
X-39100000Y-12483406D01*
X-37400000Y-12483406D01*
X-37272411Y-12458027D01*
X-37164246Y-12385754D01*
X-37091973Y-12277589D01*
X-37066594Y-12150000D01*
X-37066594Y-10450000D01*
X-37091973Y-10322411D01*
X-37164246Y-10214246D01*
X-37272411Y-10141973D01*
X-37400000Y-10116594D01*
X-39100000Y-10116594D01*
X-39227589Y-10141973D01*
X-39335754Y-10214246D01*
X-39408027Y-10322411D01*
X-39433406Y-10450000D01*
X-39598000Y-10450000D01*
X-39598000Y-8778661D01*
X-39251685Y-9124976D01*
X-38763957Y-9327000D01*
X-38236043Y-9327000D01*
X-37748315Y-9124976D01*
X-37375024Y-8751685D01*
X-37173000Y-8263957D01*
X-37173000Y-7736043D01*
X-37375024Y-7248315D01*
X-37748315Y-6875024D01*
X-38236043Y-6673000D01*
X-38763957Y-6673000D01*
X-39251685Y-6875024D01*
X-39598000Y-7221339D01*
X-39598000Y-2278661D01*
X-39251685Y-2624976D01*
X-38763957Y-2827000D01*
X-38236043Y-2827000D01*
X-37748315Y-2624976D01*
X-37375024Y-2251685D01*
X-37173000Y-1763957D01*
X-37173000Y-1236043D01*
X-37375024Y-748315D01*
X-37748315Y-375024D01*
X-38236043Y-173000D01*
X-38763957Y-173000D01*
X-39251685Y-375024D01*
X-39598000Y-721339D01*
X-39598000Y19557425D01*
X-39521645Y19373076D01*
X-39131358Y18944817D01*
X-38787657Y18783406D01*
X-39100000Y18783406D01*
X-39227589Y18758027D01*
X-39335754Y18685754D01*
X-39408027Y18577589D01*
X-39433406Y18450000D01*
X-39433406Y16750000D01*
X-39408027Y16622411D01*
X-39335754Y16514246D01*
X-39227589Y16441973D01*
X-39100000Y16416594D01*
X-37400000Y16416594D01*
X-37272411Y16441973D01*
X-37164246Y16514246D01*
X-37091973Y16622411D01*
X-37066594Y16750000D01*
X-37066594Y18450000D01*
X-37091973Y18577589D01*
X-37164246Y18685754D01*
X-37272411Y18758027D01*
X-37400000Y18783406D01*
X-37712343Y18783406D01*
X-37368642Y18944817D01*
X-36978355Y19373076D01*
X-36808524Y19783110D01*
X-36929845Y20013000D01*
X-38123000Y20013000D01*
X-38123000Y19993000D01*
X-38377000Y19993000D01*
X-38377000Y20013000D01*
X-38397000Y20013000D01*
X-38397000Y20267000D01*
X-38377000Y20267000D01*
X-38377000Y21460819D01*
X-38123000Y21460819D01*
X-38123000Y20267000D01*
X-36929845Y20267000D01*
X-36808524Y20496890D01*
X-36978355Y20906924D01*
X-37154311Y21100000D01*
X-35973406Y21100000D01*
X-35973406Y19400000D01*
X-35948027Y19272411D01*
X-35875754Y19164246D01*
X-35767589Y19091973D01*
X-35640000Y19066594D01*
X-33940000Y19066594D01*
X-33812411Y19091973D01*
X-33704246Y19164246D01*
X-33631973Y19272411D01*
X-33606594Y19400000D01*
X-33606594Y20250000D01*
X-33450058Y20250000D01*
X-33358709Y19790758D01*
X-33098569Y19401431D01*
X-32709242Y19141291D01*
X-32365920Y19073000D01*
X-32134080Y19073000D01*
X-31790758Y19141291D01*
X-31401431Y19401431D01*
X-31141291Y19790758D01*
X-31068928Y20154555D01*
X-23277000Y20154555D01*
X-23277000Y19845445D01*
X-23158709Y19559865D01*
X-22940135Y19341291D01*
X-22654555Y19223000D01*
X-22345445Y19223000D01*
X-22059865Y19341291D01*
X-21841291Y19559865D01*
X-21723000Y19845445D01*
X-21723000Y20137776D01*
X-21387775Y20473000D01*
X-21095445Y20473000D01*
X-20809865Y20591291D01*
X-20591291Y20809865D01*
X-20473000Y21095445D01*
X-20473000Y21404555D01*
X-20591291Y21690135D01*
X-20809865Y21908709D01*
X-21095445Y22027000D01*
X-21404555Y22027000D01*
X-21690135Y21908709D01*
X-21908709Y21690135D01*
X-22027000Y21404555D01*
X-22027000Y21112225D01*
X-22362224Y20777000D01*
X-22654555Y20777000D01*
X-22940135Y20658709D01*
X-23158709Y20440135D01*
X-23277000Y20154555D01*
X-31068928Y20154555D01*
X-31049942Y20250000D01*
X-31141291Y20709242D01*
X-31401431Y21098569D01*
X-31790758Y21358709D01*
X-32134080Y21427000D01*
X-32365920Y21427000D01*
X-32709242Y21358709D01*
X-33098569Y21098569D01*
X-33358709Y20709242D01*
X-33450058Y20250000D01*
X-33606594Y20250000D01*
X-33606594Y21100000D01*
X-33631973Y21227589D01*
X-33704246Y21335754D01*
X-33812411Y21408027D01*
X-33940000Y21433406D01*
X-35640000Y21433406D01*
X-35767589Y21408027D01*
X-35875754Y21335754D01*
X-35948027Y21227589D01*
X-35973406Y21100000D01*
X-37154311Y21100000D01*
X-37368642Y21335183D01*
X-37893108Y21581486D01*
X-38123000Y21460819D01*
X-38377000Y21460819D01*
X-38606892Y21581486D01*
X-39131358Y21335183D01*
X-39521645Y20906924D01*
X-39598000Y20722575D01*
X-39598000Y22416680D01*
X-30903715Y22416680D01*
X-30774467Y22123877D01*
X-30074194Y21855612D01*
X-29324565Y21875750D01*
X-28725533Y22123877D01*
X-28596285Y22416680D01*
X-29750000Y23570395D01*
X-30903715Y22416680D01*
X-39598000Y22416680D01*
X-39598000Y24074194D01*
X-31644388Y24074194D01*
X-31624250Y23324565D01*
X-31376123Y22725533D01*
X-31083320Y22596285D01*
X-29929605Y23750000D01*
X-29570395Y23750000D01*
X-28416680Y22596285D01*
X-28123877Y22725533D01*
X-27868139Y23393108D01*
X-27731486Y23393108D01*
X-27485183Y22868642D01*
X-27056924Y22478355D01*
X-26646890Y22308524D01*
X-26417000Y22429845D01*
X-26417000Y23623000D01*
X-27610819Y23623000D01*
X-27731486Y23393108D01*
X-27868139Y23393108D01*
X-27855612Y23425806D01*
X-27873908Y24106892D01*
X-27731486Y24106892D01*
X-27610819Y23877000D01*
X-26417000Y23877000D01*
X-26417000Y25070155D01*
X-26163000Y25070155D01*
X-26163000Y23877000D01*
X-26143000Y23877000D01*
X-26143000Y23623000D01*
X-26163000Y23623000D01*
X-26163000Y22429845D01*
X-25933110Y22308524D01*
X-25523076Y22478355D01*
X-25094817Y22868642D01*
X-24933406Y23212343D01*
X-24933406Y22900000D01*
X-24908027Y22772411D01*
X-24835754Y22664246D01*
X-24727589Y22591973D01*
X-24600000Y22566594D01*
X-22900000Y22566594D01*
X-22772411Y22591973D01*
X-22664246Y22664246D01*
X-22591973Y22772411D01*
X-22566594Y22900000D01*
X-22566594Y24600000D01*
X-22591973Y24727589D01*
X-22664246Y24835754D01*
X-22772411Y24908027D01*
X-22900000Y24933406D01*
X-24600000Y24933406D01*
X-24727589Y24908027D01*
X-24835754Y24835754D01*
X-24908027Y24727589D01*
X-24933406Y24600000D01*
X-24933406Y24287657D01*
X-25094817Y24631358D01*
X-25523076Y25021645D01*
X-25933110Y25191476D01*
X-26163000Y25070155D01*
X-26417000Y25070155D01*
X-26646890Y25191476D01*
X-27056924Y25021645D01*
X-27485183Y24631358D01*
X-27731486Y24106892D01*
X-27873908Y24106892D01*
X-27875750Y24175435D01*
X-28123877Y24774467D01*
X-28416680Y24903715D01*
X-29570395Y23750000D01*
X-29929605Y23750000D01*
X-31083320Y24903715D01*
X-31376123Y24774467D01*
X-31644388Y24074194D01*
X-39598000Y24074194D01*
X-39598000Y25083320D01*
X-30903715Y25083320D01*
X-29750000Y23929605D01*
X-28596285Y25083320D01*
X-28725533Y25376123D01*
X-29425806Y25644388D01*
X-30175435Y25624250D01*
X-30774467Y25376123D01*
X-30903715Y25083320D01*
X-39598000Y25083320D01*
X-39598000Y27730342D01*
X-39568241Y28033848D01*
X-37177000Y28033848D01*
X-37177000Y27466152D01*
X-36959753Y26941669D01*
X-36558331Y26540247D01*
X-36033848Y26323000D01*
X-35466152Y26323000D01*
X-34941669Y26540247D01*
X-34540247Y26941669D01*
X-34323000Y27466152D01*
X-34323000Y28033848D01*
X-34540247Y28558331D01*
X-34941669Y28959753D01*
X-35466152Y29177000D01*
X-36033848Y29177000D01*
X-36558331Y28959753D01*
X-36959753Y28558331D01*
X-37177000Y28033848D01*
X-39568241Y28033848D01*
X-39522825Y28497036D01*
X-39305872Y29215621D01*
X-39280172Y29263957D01*
X-30327000Y29263957D01*
X-30327000Y28736043D01*
X-30124976Y28248315D01*
X-29751685Y27875024D01*
X-29263957Y27673000D01*
X-28736043Y27673000D01*
X-28248315Y27875024D01*
X-27875024Y28248315D01*
X-27673000Y28736043D01*
X-27673000Y29263957D01*
X-18927000Y29263957D01*
X-18927000Y28736043D01*
X-18724976Y28248315D01*
X-18351685Y27875024D01*
X-18177000Y27802667D01*
X-18176999Y5906833D01*
X-18188304Y5850000D01*
X-18153400Y5674530D01*
X-18143521Y5624866D01*
X-18015993Y5434006D01*
X-17967814Y5401814D01*
X-10948186Y-1617815D01*
X-10915994Y-1665994D01*
X-10725134Y-1793522D01*
X-10556829Y-1827000D01*
X-10500001Y-1838304D01*
X-10443173Y-1827000D01*
X-5383406Y-1827000D01*
X-5383406Y-2050000D01*
X-5358027Y-2177589D01*
X-5285754Y-2285754D01*
X-5177589Y-2358027D01*
X-5050000Y-2383406D01*
X-3450000Y-2383406D01*
X-3322411Y-2358027D01*
X-3214246Y-2285754D01*
X-3141973Y-2177589D01*
X-3116594Y-2050000D01*
X-3116594Y-450000D01*
X-3141973Y-322411D01*
X-3214246Y-214246D01*
X-3322411Y-141973D01*
X-3450000Y-116594D01*
X-5050000Y-116594D01*
X-5177589Y-141973D01*
X-5285754Y-214246D01*
X-5358027Y-322411D01*
X-5383406Y-450000D01*
X-5383406Y-673000D01*
X-10260999Y-673000D01*
X-11628768Y694769D01*
X-11519329Y673000D01*
X-11462501Y661696D01*
X-11405673Y673000D01*
X-5230854Y673000D01*
X-5205424Y611606D01*
X-4888394Y294576D01*
X-4474174Y123000D01*
X-4025826Y123000D01*
X-3611606Y294576D01*
X-3294576Y611606D01*
X-3123000Y1025826D01*
X-3123000Y1404555D01*
X-3027000Y1404555D01*
X-3027000Y1095445D01*
X-2908709Y809865D01*
X-2702000Y603156D01*
X-2701999Y-603161D01*
X-2908709Y-809871D01*
X-3027000Y-1095451D01*
X-3027000Y-1404561D01*
X-2908709Y-1690141D01*
X-2690135Y-1908715D01*
X-2404555Y-2027006D01*
X-2095445Y-2027006D01*
X-1809865Y-1908715D01*
X-1591291Y-1690141D01*
X-1473000Y-1404561D01*
X-1473000Y-1095451D01*
X-1591291Y-809871D01*
X-1798000Y-603162D01*
X-1798000Y603156D01*
X-1591291Y809865D01*
X-1473000Y1095445D01*
X-1473000Y1404555D01*
X-1591291Y1690135D01*
X-1809865Y1908709D01*
X-2095445Y2027000D01*
X-2404555Y2027000D01*
X-2690135Y1908709D01*
X-2908709Y1690135D01*
X-3027000Y1404555D01*
X-3123000Y1404555D01*
X-3123000Y1474174D01*
X-3294576Y1888394D01*
X-3611606Y2205424D01*
X-4025826Y2377000D01*
X-4474174Y2377000D01*
X-4888394Y2205424D01*
X-5205424Y1888394D01*
X-5230854Y1827000D01*
X-11223499Y1827000D01*
X-16073013Y6676513D01*
X-16073013Y21100000D01*
X8026594Y21100000D01*
X8026594Y19400000D01*
X8051973Y19272411D01*
X8124246Y19164246D01*
X8232411Y19091973D01*
X8360000Y19066594D01*
X10060000Y19066594D01*
X10187589Y19091973D01*
X10295754Y19164246D01*
X10368027Y19272411D01*
X10393406Y19400000D01*
X10393406Y20250000D01*
X10549942Y20250000D01*
X10641291Y19790758D01*
X10901431Y19401431D01*
X11290758Y19141291D01*
X11634080Y19073000D01*
X11865920Y19073000D01*
X12209242Y19141291D01*
X12598569Y19401431D01*
X12858709Y19790758D01*
X12950058Y20250000D01*
X12858709Y20709242D01*
X12598569Y21098569D01*
X12209242Y21358709D01*
X11865920Y21427000D01*
X11634080Y21427000D01*
X11290758Y21358709D01*
X10901431Y21098569D01*
X10641291Y20709242D01*
X10549942Y20250000D01*
X10393406Y20250000D01*
X10393406Y21100000D01*
X10368027Y21227589D01*
X10295754Y21335754D01*
X10187589Y21408027D01*
X10060000Y21433406D01*
X8360000Y21433406D01*
X8232411Y21408027D01*
X8124246Y21335754D01*
X8051973Y21227589D01*
X8026594Y21100000D01*
X-16073013Y21100000D01*
X-16073013Y23464250D01*
X13690000Y23464250D01*
X13690000Y22948691D01*
X13786673Y22715302D01*
X13965301Y22536673D01*
X14198690Y22440000D01*
X14714250Y22440000D01*
X14873000Y22598750D01*
X14873000Y23623000D01*
X13848750Y23623000D01*
X13690000Y23464250D01*
X-16073013Y23464250D01*
X-16073013Y26860986D01*
X-16001814Y26932185D01*
X-16001813Y26932187D01*
X-15961000Y26973000D01*
X-15845445Y26973000D01*
X-15559865Y27091291D01*
X-15341291Y27309865D01*
X-15223000Y27595445D01*
X-15223000Y27904555D01*
X-15276554Y28033848D01*
X-10427000Y28033848D01*
X-10427000Y27466152D01*
X-10209753Y26941669D01*
X-9808331Y26540247D01*
X-9283848Y26323000D01*
X-8716152Y26323000D01*
X-8191669Y26540247D01*
X-7790247Y26941669D01*
X-7573000Y27466152D01*
X-7573000Y28033848D01*
X7573000Y28033848D01*
X7573000Y27466152D01*
X7790247Y26941669D01*
X8191669Y26540247D01*
X8716152Y26323000D01*
X9283848Y26323000D01*
X9808331Y26540247D01*
X10209753Y26941669D01*
X10427000Y27466152D01*
X10427000Y28033848D01*
X10209753Y28558331D01*
X9808331Y28959753D01*
X9283848Y29177000D01*
X8716152Y29177000D01*
X8191669Y28959753D01*
X7790247Y28558331D01*
X7573000Y28033848D01*
X-7573000Y28033848D01*
X-7790247Y28558331D01*
X-8191669Y28959753D01*
X-8716152Y29177000D01*
X-9283848Y29177000D01*
X-9808331Y28959753D01*
X-10209753Y28558331D01*
X-10427000Y28033848D01*
X-15276554Y28033848D01*
X-15341291Y28190135D01*
X-15559865Y28408709D01*
X-15845445Y28527000D01*
X-16154555Y28527000D01*
X-16402053Y28424483D01*
X-16273000Y28736043D01*
X-16273000Y29263957D01*
X-16475024Y29751685D01*
X-16848315Y30124976D01*
X-17150148Y30250000D01*
X21179942Y30250000D01*
X21271291Y29790758D01*
X21531431Y29401431D01*
X21920758Y29141291D01*
X22264080Y29073000D01*
X22495920Y29073000D01*
X22839242Y29141291D01*
X23228569Y29401431D01*
X23488709Y29790758D01*
X23580058Y30250000D01*
X23719942Y30250000D01*
X23811291Y29790758D01*
X24071431Y29401431D01*
X24460758Y29141291D01*
X24804080Y29073000D01*
X25035920Y29073000D01*
X25379242Y29141291D01*
X25768569Y29401431D01*
X26028709Y29790758D01*
X26120058Y30250000D01*
X26028709Y30709242D01*
X25768569Y31098569D01*
X25379242Y31358709D01*
X25035920Y31427000D01*
X24804080Y31427000D01*
X24460758Y31358709D01*
X24071431Y31098569D01*
X23811291Y30709242D01*
X23719942Y30250000D01*
X23580058Y30250000D01*
X23488709Y30709242D01*
X23228569Y31098569D01*
X22839242Y31358709D01*
X22495920Y31427000D01*
X22264080Y31427000D01*
X21920758Y31358709D01*
X21531431Y31098569D01*
X21271291Y30709242D01*
X21179942Y30250000D01*
X-17150148Y30250000D01*
X-17336043Y30327000D01*
X-17863957Y30327000D01*
X-18351685Y30124976D01*
X-18724976Y29751685D01*
X-18927000Y29263957D01*
X-27673000Y29263957D01*
X-27875024Y29751685D01*
X-28248315Y30124976D01*
X-28736043Y30327000D01*
X-29263957Y30327000D01*
X-29751685Y30124976D01*
X-30124976Y29751685D01*
X-30327000Y29263957D01*
X-39280172Y29263957D01*
X-38953475Y29878383D01*
X-38479059Y30460075D01*
X-37900700Y30938536D01*
X-37240412Y31295552D01*
X-36523360Y31517517D01*
X-35757903Y31597969D01*
X-35749162Y31598000D01*
X34497425Y31598000D01*
X34313076Y31521645D01*
G36*
X46377000Y-4953000D02*
X46397000Y-4953000D01*
X46397000Y-5207000D01*
X46377000Y-5207000D01*
X46377000Y-5227000D01*
X46123000Y-5227000D01*
X46123000Y-5207000D01*
X46103000Y-5207000D01*
X46103000Y-4953000D01*
X46123000Y-4953000D01*
X46123000Y-4933000D01*
X46377000Y-4933000D01*
X46377000Y-4953000D01*
X46377000Y-4953000D01*
G37*
X46377000Y-4953000D02*
X46397000Y-4953000D01*
X46397000Y-5207000D01*
X46377000Y-5207000D01*
X46377000Y-5227000D01*
X46123000Y-5227000D01*
X46123000Y-5207000D01*
X46103000Y-5207000D01*
X46103000Y-4953000D01*
X46123000Y-4953000D01*
X46123000Y-4933000D01*
X46377000Y-4933000D01*
X46377000Y-4953000D01*
G36*
X24056137Y25359039D02*
X24277598Y25027598D01*
X24609039Y24806137D01*
X24891258Y24750000D01*
X24609039Y24693863D01*
X24277598Y24472402D01*
X24056137Y24140961D01*
X24000000Y23858741D01*
X23943863Y24140961D01*
X23722402Y24472402D01*
X23390961Y24693863D01*
X23108742Y24750000D01*
X23390961Y24806137D01*
X23722402Y25027598D01*
X23943863Y25359039D01*
X24000000Y25641259D01*
X24056137Y25359039D01*
X24056137Y25359039D01*
G37*
X24056137Y25359039D02*
X24277598Y25027598D01*
X24609039Y24806137D01*
X24891258Y24750000D01*
X24609039Y24693863D01*
X24277598Y24472402D01*
X24056137Y24140961D01*
X24000000Y23858741D01*
X23943863Y24140961D01*
X23722402Y24472402D01*
X23390961Y24693863D01*
X23108742Y24750000D01*
X23390961Y24806137D01*
X23722402Y25027598D01*
X23943863Y25359039D01*
X24000000Y25641259D01*
X24056137Y25359039D01*
M02*
