%TF.GenerationSoftware,KiCad,Pcbnew,5.0.1*%
%TF.CreationDate,2019-02-10T21:41:56-05:00*%
%TF.ProjectId,board2,626F617264322E6B696361645F706362,rev?*%
%TF.SameCoordinates,PX5f5e100PY5f5e100*%
%TF.FileFunction,Legend,Bot*%
%TF.FilePolarity,Positive*%
%FSLAX46Y46*%
G04 Gerber Fmt 4.6, Leading zero omitted, Abs format (unit mm)*
G04 Created by KiCad (PCBNEW 5.0.1) date Sun 10 Feb 2019 09:41:56 PM EST*
%MOMM*%
%LPD*%
G01*
G04 APERTURE LIST*
%ADD10C,0.300000*%
%ADD11C,0.150000*%
%ADD12C,0.120000*%
G04 APERTURE END LIST*
D10*
X17607142Y-20607142D02*
X17821428Y-20535714D01*
X17892857Y-20464285D01*
X17964285Y-20321428D01*
X17964285Y-20107142D01*
X17892857Y-19964285D01*
X17821428Y-19892857D01*
X17678571Y-19821428D01*
X17107142Y-19821428D01*
X17107142Y-21321428D01*
X17607142Y-21321428D01*
X17750000Y-21250000D01*
X17821428Y-21178571D01*
X17892857Y-21035714D01*
X17892857Y-20892857D01*
X17821428Y-20750000D01*
X17750000Y-20678571D01*
X17607142Y-20607142D01*
X17107142Y-20607142D01*
X19250000Y-19821428D02*
X19250000Y-20607142D01*
X19178571Y-20750000D01*
X19035714Y-20821428D01*
X18750000Y-20821428D01*
X18607142Y-20750000D01*
X19250000Y-19892857D02*
X19107142Y-19821428D01*
X18750000Y-19821428D01*
X18607142Y-19892857D01*
X18535714Y-20035714D01*
X18535714Y-20178571D01*
X18607142Y-20321428D01*
X18750000Y-20392857D01*
X19107142Y-20392857D01*
X19250000Y-20464285D01*
X19750000Y-20821428D02*
X20321428Y-20821428D01*
X19964285Y-21321428D02*
X19964285Y-20035714D01*
X20035714Y-19892857D01*
X20178571Y-19821428D01*
X20321428Y-19821428D01*
X20607142Y-20821428D02*
X21178571Y-20821428D01*
X20821428Y-21321428D02*
X20821428Y-20035714D01*
X20892857Y-19892857D01*
X21035714Y-19821428D01*
X21178571Y-19821428D01*
X22250000Y-19892857D02*
X22107142Y-19821428D01*
X21821428Y-19821428D01*
X21678571Y-19892857D01*
X21607142Y-20035714D01*
X21607142Y-20607142D01*
X21678571Y-20750000D01*
X21821428Y-20821428D01*
X22107142Y-20821428D01*
X22250000Y-20750000D01*
X22321428Y-20607142D01*
X22321428Y-20464285D01*
X21607142Y-20321428D01*
X22964285Y-19821428D02*
X22964285Y-20821428D01*
X22964285Y-20535714D02*
X23035714Y-20678571D01*
X23107142Y-20750000D01*
X23250000Y-20821428D01*
X23392857Y-20821428D01*
X23750000Y-20821428D02*
X24107142Y-19821428D01*
X24464285Y-20821428D02*
X24107142Y-19821428D01*
X23964285Y-19464285D01*
X23892857Y-19392857D01*
X23750000Y-19321428D01*
X26107142Y-21178571D02*
X26178571Y-21250000D01*
X26321428Y-21321428D01*
X26678571Y-21321428D01*
X26821428Y-21250000D01*
X26892857Y-21178571D01*
X26964285Y-21035714D01*
X26964285Y-20892857D01*
X26892857Y-20678571D01*
X26035714Y-19821428D01*
X26964285Y-19821428D01*
X-26142858Y-20607142D02*
X-25928572Y-20535714D01*
X-25857143Y-20464285D01*
X-25785715Y-20321428D01*
X-25785715Y-20107142D01*
X-25857143Y-19964285D01*
X-25928572Y-19892857D01*
X-26071429Y-19821428D01*
X-26642858Y-19821428D01*
X-26642858Y-21321428D01*
X-26142858Y-21321428D01*
X-26000000Y-21250000D01*
X-25928572Y-21178571D01*
X-25857143Y-21035714D01*
X-25857143Y-20892857D01*
X-25928572Y-20750000D01*
X-26000000Y-20678571D01*
X-26142858Y-20607142D01*
X-26642858Y-20607142D01*
X-24500000Y-19821428D02*
X-24500000Y-20607142D01*
X-24571429Y-20750000D01*
X-24714286Y-20821428D01*
X-25000000Y-20821428D01*
X-25142858Y-20750000D01*
X-24500000Y-19892857D02*
X-24642858Y-19821428D01*
X-25000000Y-19821428D01*
X-25142858Y-19892857D01*
X-25214286Y-20035714D01*
X-25214286Y-20178571D01*
X-25142858Y-20321428D01*
X-25000000Y-20392857D01*
X-24642858Y-20392857D01*
X-24500000Y-20464285D01*
X-24000000Y-20821428D02*
X-23428572Y-20821428D01*
X-23785715Y-21321428D02*
X-23785715Y-20035714D01*
X-23714286Y-19892857D01*
X-23571429Y-19821428D01*
X-23428572Y-19821428D01*
X-23142858Y-20821428D02*
X-22571429Y-20821428D01*
X-22928572Y-21321428D02*
X-22928572Y-20035714D01*
X-22857143Y-19892857D01*
X-22714286Y-19821428D01*
X-22571429Y-19821428D01*
X-21500000Y-19892857D02*
X-21642858Y-19821428D01*
X-21928572Y-19821428D01*
X-22071429Y-19892857D01*
X-22142858Y-20035714D01*
X-22142858Y-20607142D01*
X-22071429Y-20750000D01*
X-21928572Y-20821428D01*
X-21642858Y-20821428D01*
X-21500000Y-20750000D01*
X-21428572Y-20607142D01*
X-21428572Y-20464285D01*
X-22142858Y-20321428D01*
X-20785715Y-19821428D02*
X-20785715Y-20821428D01*
X-20785715Y-20535714D02*
X-20714286Y-20678571D01*
X-20642858Y-20750000D01*
X-20500000Y-20821428D01*
X-20357143Y-20821428D01*
X-20000000Y-20821428D02*
X-19642858Y-19821428D01*
X-19285715Y-20821428D02*
X-19642858Y-19821428D01*
X-19785715Y-19464285D01*
X-19857143Y-19392857D01*
X-20000000Y-19321428D01*
X-16785715Y-19821428D02*
X-17642858Y-19821428D01*
X-17214286Y-19821428D02*
X-17214286Y-21321428D01*
X-17357143Y-21107142D01*
X-17500000Y-20964285D01*
X-17642858Y-20892857D01*
X12321428Y22642858D02*
X11178571Y22642858D01*
X9821428Y22642858D02*
X8678571Y22642858D01*
X9250000Y22071429D02*
X9250000Y23214286D01*
X-31678572Y22642858D02*
X-32821429Y22642858D01*
X-34178572Y22642858D02*
X-35321429Y22642858D01*
X-34750000Y22071429D02*
X-34750000Y23214286D01*
D11*
X-13500000Y22000000D02*
X-13500000Y-22000000D01*
X-30500000Y-22000000D02*
X-30500000Y22000000D01*
X-30500000Y22000000D02*
X-13500000Y22000000D01*
X-13500000Y-22000000D02*
X-30500000Y-22000000D01*
X30500000Y-22000000D02*
X13500000Y-22000000D01*
X30500000Y22000000D02*
X30500000Y-22000000D01*
X13500000Y22000000D02*
X30500000Y22000000D01*
X13500000Y-22000000D02*
X13500000Y22000000D01*
X7500000Y-23500000D02*
X9000000Y-23500000D01*
X7500000Y-20500000D02*
X7500000Y-23500000D01*
X6000000Y-20500000D02*
X7500000Y-20500000D01*
X-7500000Y-20500000D02*
X-6000000Y-20500000D01*
X-7500000Y-23500000D02*
X-7500000Y-20500000D01*
X-9000000Y-23500000D02*
X-7500000Y-23500000D01*
X-9000000Y-32000000D02*
G75*
G02X-9000000Y-23500000I0J4250000D01*
G01*
X9000000Y-23500000D02*
G75*
G02X9000000Y-32000000I0J-4250000D01*
G01*
X7500000Y20500000D02*
X6000000Y20500000D01*
X7500000Y23500000D02*
X7500000Y20500000D01*
X9000000Y23500000D02*
X7500000Y23500000D01*
X-7500000Y20500000D02*
X-6000000Y20500000D01*
X-7500000Y23500000D02*
X-7500000Y20500000D01*
X-9000000Y23500000D02*
X-7500000Y23500000D01*
X-9000000Y23500000D02*
G75*
G02X-9000000Y32000000I0J4250000D01*
G01*
X9000000Y32000000D02*
G75*
G02X9000000Y23500000I0J-4250000D01*
G01*
X6000000Y6000000D02*
X6000000Y32000000D01*
X-6000000Y32000000D02*
X-6000000Y6000000D01*
X9000000Y32000000D02*
X-9000000Y32000000D01*
X6000000Y-32000000D02*
X6000000Y-6000000D01*
X-9000000Y-32000000D02*
X9000000Y-32000000D01*
X-6000000Y-6000000D02*
X-6000000Y-32000000D01*
D12*
X-36060000Y21520000D02*
X-36060000Y20250000D01*
X-34790000Y21520000D02*
X-36060000Y21520000D01*
X-31870000Y19207071D02*
X-31870000Y18810000D01*
X-32630000Y19207071D02*
X-32630000Y18810000D01*
X-31870000Y10150000D02*
X-31870000Y16150000D01*
X-32630000Y10150000D02*
X-31870000Y10150000D01*
X-32630000Y16150000D02*
X-32630000Y10150000D01*
X-33520000Y18810000D02*
X-33520000Y16150000D01*
X-34410000Y19140000D02*
X-34410000Y18810000D01*
X-35170000Y19140000D02*
X-35170000Y18810000D01*
X-34510000Y16150000D02*
X-34510000Y10150000D01*
X-34630000Y16150000D02*
X-34630000Y10150000D01*
X-34750000Y16150000D02*
X-34750000Y10150000D01*
X-34870000Y16150000D02*
X-34870000Y10150000D01*
X-34990000Y16150000D02*
X-34990000Y10150000D01*
X-35110000Y16150000D02*
X-35110000Y10150000D01*
X-34410000Y10150000D02*
X-34410000Y16150000D01*
X-35170000Y10150000D02*
X-34410000Y10150000D01*
X-35170000Y16150000D02*
X-35170000Y10150000D01*
X-36120000Y16150000D02*
X-36120000Y18810000D01*
X-30920000Y16150000D02*
X-36120000Y16150000D01*
X-30920000Y18810000D02*
X-30920000Y16150000D01*
X-36120000Y18810000D02*
X-30920000Y18810000D01*
X7880000Y18810000D02*
X13080000Y18810000D01*
X13080000Y18810000D02*
X13080000Y16150000D01*
X13080000Y16150000D02*
X7880000Y16150000D01*
X7880000Y16150000D02*
X7880000Y18810000D01*
X8830000Y16150000D02*
X8830000Y10150000D01*
X8830000Y10150000D02*
X9590000Y10150000D01*
X9590000Y10150000D02*
X9590000Y16150000D01*
X8890000Y16150000D02*
X8890000Y10150000D01*
X9010000Y16150000D02*
X9010000Y10150000D01*
X9130000Y16150000D02*
X9130000Y10150000D01*
X9250000Y16150000D02*
X9250000Y10150000D01*
X9370000Y16150000D02*
X9370000Y10150000D01*
X9490000Y16150000D02*
X9490000Y10150000D01*
X8830000Y19140000D02*
X8830000Y18810000D01*
X9590000Y19140000D02*
X9590000Y18810000D01*
X10480000Y18810000D02*
X10480000Y16150000D01*
X11370000Y16150000D02*
X11370000Y10150000D01*
X11370000Y10150000D02*
X12130000Y10150000D01*
X12130000Y10150000D02*
X12130000Y16150000D01*
X11370000Y19207071D02*
X11370000Y18810000D01*
X12130000Y19207071D02*
X12130000Y18810000D01*
X9210000Y21520000D02*
X7940000Y21520000D01*
X7940000Y21520000D02*
X7940000Y20250000D01*
X36350000Y28920000D02*
X36350000Y31580000D01*
X36350000Y28920000D02*
X21050000Y28920000D01*
X21050000Y28920000D02*
X21050000Y31580000D01*
X36350000Y31580000D02*
X21050000Y31580000D01*
X38950000Y31580000D02*
X37620000Y31580000D01*
X38950000Y30250000D02*
X38950000Y31580000D01*
X46250000Y-8950000D02*
X47580000Y-8950000D01*
X47580000Y-8950000D02*
X47580000Y-7620000D01*
X47580000Y-6350000D02*
X47580000Y8950000D01*
X44920000Y8950000D02*
X47580000Y8950000D01*
X44920000Y-6350000D02*
X44920000Y8950000D01*
X44920000Y-6350000D02*
X47580000Y-6350000D01*
X23650000Y-28920000D02*
X23650000Y-31580000D01*
X23650000Y-28920000D02*
X38950000Y-28920000D01*
X38950000Y-28920000D02*
X38950000Y-31580000D01*
X23650000Y-31580000D02*
X38950000Y-31580000D01*
X21050000Y-31580000D02*
X22380000Y-31580000D01*
X21050000Y-30250000D02*
X21050000Y-31580000D01*
D11*
X-37607620Y16198334D02*
X-36893334Y16198334D01*
X-36750477Y16245953D01*
X-36655239Y16341191D01*
X-36607620Y16484048D01*
X-36607620Y16579286D01*
X-36607620Y15198334D02*
X-36607620Y15769762D01*
X-36607620Y15484048D02*
X-37607620Y15484048D01*
X-37464762Y15579286D01*
X-37369524Y15674524D01*
X-37321905Y15769762D01*
X6392380Y16198334D02*
X7106666Y16198334D01*
X7249523Y16245953D01*
X7344761Y16341191D01*
X7392380Y16484048D01*
X7392380Y16579286D01*
X6392380Y15817381D02*
X6392380Y15150715D01*
X7392380Y15579286D01*
X20083333Y30797620D02*
X20083333Y30083334D01*
X20130952Y29940477D01*
X20226190Y29845239D01*
X20369047Y29797620D01*
X20464285Y29797620D01*
X19130952Y30797620D02*
X19607142Y30797620D01*
X19654761Y30321429D01*
X19607142Y30369048D01*
X19511904Y30416667D01*
X19273809Y30416667D01*
X19178571Y30369048D01*
X19130952Y30321429D01*
X19083333Y30226191D01*
X19083333Y29988096D01*
X19130952Y29892858D01*
X19178571Y29845239D01*
X19273809Y29797620D01*
X19511904Y29797620D01*
X19607142Y29845239D01*
X19654761Y29892858D01*
X46583333Y-9842380D02*
X46583333Y-10556666D01*
X46630952Y-10699523D01*
X46726190Y-10794761D01*
X46869047Y-10842380D01*
X46964285Y-10842380D01*
X45678571Y-10175714D02*
X45678571Y-10842380D01*
X45916666Y-9794761D02*
X46154761Y-10509047D01*
X45535714Y-10509047D01*
X19943333Y-29702380D02*
X19943333Y-30416666D01*
X19990952Y-30559523D01*
X20086190Y-30654761D01*
X20229047Y-30702380D01*
X20324285Y-30702380D01*
X19038571Y-29702380D02*
X19229047Y-29702380D01*
X19324285Y-29750000D01*
X19371904Y-29797619D01*
X19467142Y-29940476D01*
X19514761Y-30130952D01*
X19514761Y-30511904D01*
X19467142Y-30607142D01*
X19419523Y-30654761D01*
X19324285Y-30702380D01*
X19133809Y-30702380D01*
X19038571Y-30654761D01*
X18990952Y-30607142D01*
X18943333Y-30511904D01*
X18943333Y-30273809D01*
X18990952Y-30178571D01*
X19038571Y-30130952D01*
X19133809Y-30083333D01*
X19324285Y-30083333D01*
X19419523Y-30130952D01*
X19467142Y-30178571D01*
X19514761Y-30273809D01*
M02*
