M48
;DRILL file {KiCad 5.0.0} date Wed Oct  3 20:53:26 2018
;FORMAT={-:-/ absolute / metric / decimal}
FMAT,2
METRIC,TZ
T1C0.800
T2C0.900
T3C1.000
T4C1.100
%
G90
G05
M71
T1
X-4.441Y-42.054
X2.059Y-42.054
X26.559Y-25.304
X26.559Y-32.804
X29.559Y9.946
X29.559Y7.446
X30.059Y-25.554
X30.059Y-30.304
X32.059Y-30.304
X32.059Y-25.554
X34.059Y9.946
X34.059Y7.446
X17.559Y32.446
X17.559Y19.746
X20.099Y32.446
X20.099Y19.746
X22.639Y32.446
X22.639Y19.746
X25.179Y32.446
X25.179Y19.746
X27.719Y32.446
X27.719Y19.746
X30.259Y32.446
X30.259Y19.746
X32.799Y32.446
X32.799Y19.746
X35.339Y32.446
X35.339Y19.746
X-4.441Y-44.434
X-4.441Y-52.054
X-1.901Y-44.434
X-1.901Y-52.054
X0.639Y-44.434
X0.639Y-52.054
X3.179Y-44.434
X3.179Y-52.054
X5.719Y-44.434
X5.719Y-52.054
X8.259Y-44.434
X8.259Y-52.054
X10.799Y-44.434
X10.799Y-52.054
X13.339Y-44.434
X13.339Y-52.054
X34.199Y4.956
X34.199Y2.416
X34.199Y-0.124
X34.199Y-2.664
X34.199Y-5.204
X34.199Y-7.744
X34.199Y-10.284
X34.199Y-12.824
X34.199Y-15.364
X34.199Y-17.904
X34.199Y-20.444
X34.199Y-22.984
X34.199Y-25.524
X34.199Y-28.064
X41.819Y4.956
X41.819Y2.416
X41.819Y-0.124
X41.819Y-2.664
X41.819Y-5.204
X41.819Y-7.744
X41.819Y-10.284
X41.819Y-12.824
X41.819Y-15.364
X41.819Y-17.904
X41.819Y-20.444
X41.819Y-22.984
X41.819Y-25.524
X41.819Y-28.064
X44.559Y20.946
X44.559Y18.406
X44.559Y15.866
X44.559Y13.326
X52.179Y20.946
X52.179Y18.406
X52.179Y15.866
X52.179Y13.326
X17.559Y-42.854
X17.559Y-55.554
X20.099Y-42.854
X20.099Y-55.554
X22.639Y-42.854
X22.639Y-55.554
X25.179Y-42.854
X25.179Y-55.554
X27.719Y-42.854
X27.719Y-55.554
X30.259Y-42.854
X30.259Y-55.554
X32.799Y-42.854
X32.799Y-55.554
X35.339Y-42.854
X35.339Y-55.554
X-36.691Y35.946
X-29.071Y35.946
X-31.691Y26.696
X-31.691Y24.196
T2
X41.559Y-47.514
X41.559Y-50.054
X41.559Y-39.554
X41.559Y-42.094
X34.309Y15.236
X34.309Y12.696
T3
X39.059Y20.946
X39.059Y18.406
X39.059Y15.866
X30.059Y36.446
X32.599Y36.446
X35.139Y36.446
X37.679Y36.446
X40.219Y36.446
X42.759Y36.446
X-39.041Y-7.734
X-39.041Y-10.274
X-39.041Y-12.814
X-39.041Y-15.354
X31.059Y-14.054
X31.059Y-16.554
X31.059Y-19.054
X17.559Y36.446
X20.099Y36.446
X22.639Y36.446
X25.179Y36.446
X26.159Y-7.754
X26.159Y-10.294
X26.159Y-12.834
X26.159Y-15.374
X-10.251Y15.946
X-7.711Y15.946
X-5.171Y15.946
X-2.631Y15.946
X-10.251Y-39.054
X-7.711Y-39.054
X-5.171Y-39.054
X-2.631Y-39.054
X-34.231Y16.696
X-31.691Y16.696
X17.559Y-59.304
X20.099Y-59.304
X22.639Y-59.304
X25.179Y-59.304
T4
X38.309Y32.696
X38.309Y26.196
X42.809Y32.696
X42.809Y26.196
X45.559Y-46.554
X45.559Y-51.054
X52.059Y-46.554
X52.059Y-51.054
X45.559Y-38.554
X45.559Y-43.054
X52.059Y-38.554
X52.059Y-43.054
X-26.941Y26.696
X-26.941Y24.156
X-26.941Y21.616
T0
M30
