M48
;DRILL file {KiCad 5.0.0} date Wed Sep 19 15:22:42 2018
;FORMAT={-:-/ absolute / metric / decimal}
FMAT,2
METRIC,TZ
T1C0.800
T2C0.900
T3C1.000
T4C1.100
%
G90
G05
M71
T1
X-30.5Y-2.
X-30.5Y-8.5
X-22.25Y-31.25
X-18.25Y-36.5
X-18.25Y-38.5
X-15.75Y-31.25
X-14.Y-36.5
X-14.Y-38.5
X19.Y-36.
X19.Y-40.5
X21.5Y-36.
X21.5Y-40.5
X31.3Y-24.
X31.3Y-26.54
X31.3Y-29.08
X31.3Y-31.62
X31.3Y-34.16
X31.3Y-36.7
X31.3Y-39.24
X31.3Y-41.78
X44.Y-24.
X44.Y-26.54
X44.Y-29.08
X44.Y-31.62
X44.Y-34.16
X44.Y-36.7
X44.Y-39.24
X44.Y-41.78
X-40.5Y-2.
X-40.5Y-4.54
X-40.5Y-7.08
X-40.5Y-9.62
X-40.5Y-12.16
X-40.5Y-14.7
X-40.5Y-17.24
X-40.5Y-19.78
X-32.88Y-2.
X-32.88Y-4.54
X-32.88Y-7.08
X-32.88Y-9.62
X-32.88Y-12.16
X-32.88Y-14.7
X-32.88Y-17.24
X-32.88Y-19.78
X-44.Y-24.
X-44.Y-26.54
X-44.Y-29.08
X-44.Y-31.62
X-44.Y-34.16
X-44.Y-36.7
X-44.Y-39.24
X-44.Y-41.78
X-31.3Y-24.
X-31.3Y-26.54
X-31.3Y-29.08
X-31.3Y-31.62
X-31.3Y-34.16
X-31.3Y-36.7
X-31.3Y-39.24
X-31.3Y-41.78
X-16.51Y-40.64
X-16.51Y-48.26
X-13.97Y-40.64
X-13.97Y-48.26
X-11.43Y-40.64
X-11.43Y-48.26
X-8.89Y-40.64
X-8.89Y-48.26
X-6.35Y-40.64
X-6.35Y-48.26
X-3.81Y-40.64
X-3.81Y-48.26
X-1.27Y-40.64
X-1.27Y-48.26
X1.27Y-40.64
X1.27Y-48.26
X3.81Y-40.64
X3.81Y-48.26
X6.35Y-40.64
X6.35Y-48.26
X8.89Y-40.64
X8.89Y-48.26
X11.43Y-40.64
X11.43Y-48.26
X13.97Y-40.64
X13.97Y-48.26
X16.51Y-40.64
X16.51Y-48.26
X47.5Y30.25
X47.5Y22.63
X24.88Y-51.
X24.88Y-58.62
X27.42Y-51.
X27.42Y-58.62
X29.96Y-51.
X29.96Y-58.62
X32.5Y-51.
X32.5Y-58.62
X35.75Y25.25
X38.25Y25.25
T2
X24.25Y-40.75
X26.79Y-40.75
X-30.54Y-48.
X-28.Y-48.
X-38.5Y-48.
X-35.96Y-48.
T3
X27.42Y-45.5
X29.96Y-45.5
X32.5Y-45.5
X48.Y-36.5
X48.Y-39.04
X48.Y-41.58
X48.Y-44.12
X48.Y-46.66
X48.Y-49.2
X-27.5Y3.81
X-27.5Y1.27
X-27.5Y-1.27
X-27.5Y-3.81
X-3.8Y32.6
X-1.26Y32.6
X1.28Y32.6
X3.82Y32.6
X-47.75Y-24.
X-47.75Y-26.54
X-47.75Y-29.08
X-47.75Y-31.62
X48.Y-24.
X48.Y-26.54
X48.Y-29.08
X48.Y-31.62
X-7.5Y-37.5
X-5.Y-37.5
X-2.5Y-37.5
X-3.82Y-32.6
X-1.28Y-32.6
X1.26Y-32.6
X3.8Y-32.6
X27.5Y27.79
X27.5Y25.25
X27.5Y3.81
X27.5Y1.27
X27.5Y-1.27
X27.5Y-3.81
T4
X37.75Y-44.75
X37.75Y-49.25
X44.25Y-44.75
X44.25Y-49.25
X-31.5Y-52.
X-31.5Y-58.5
X-27.Y-52.
X-27.Y-58.5
X-39.5Y-52.
X-39.5Y-58.5
X-35.Y-52.
X-35.Y-58.5
X33.17Y20.5
X35.71Y20.5
X38.25Y20.5
T0
M30
