G04 #@! TF.GenerationSoftware,KiCad,Pcbnew,5.0.1*
G04 #@! TF.CreationDate,2018-11-08T11:53:45-05:00*
G04 #@! TF.ProjectId,micromouse,6D6963726F6D6F7573652E6B69636164,rev?*
G04 #@! TF.SameCoordinates,PX8f0d180PY5f5e100*
G04 #@! TF.FileFunction,Copper,L1,Top,Mixed*
G04 #@! TF.FilePolarity,Positive*
%FSLAX46Y46*%
G04 Gerber Fmt 4.6, Leading zero omitted, Abs format (unit mm)*
G04 Created by KiCad (PCBNEW 5.0.1) date Thu 08 Nov 2018 11:53:45 AM EST*
%MOMM*%
%LPD*%
G01*
G04 APERTURE LIST*
G04 #@! TA.AperFunction,NonConductor*
%ADD10C,0.300000*%
G04 #@! TD*
G04 #@! TA.AperFunction,ComponentPad*
%ADD11R,1.700000X1.700000*%
G04 #@! TD*
G04 #@! TA.AperFunction,ComponentPad*
%ADD12O,1.700000X1.700000*%
G04 #@! TD*
G04 #@! TA.AperFunction,ComponentPad*
%ADD13C,1.800000*%
G04 #@! TD*
G04 #@! TA.AperFunction,ComponentPad*
%ADD14R,1.800000X1.800000*%
G04 #@! TD*
G04 #@! TA.AperFunction,ComponentPad*
%ADD15R,1.600000X1.600000*%
G04 #@! TD*
G04 #@! TA.AperFunction,ComponentPad*
%ADD16C,1.600000*%
G04 #@! TD*
G04 #@! TA.AperFunction,ComponentPad*
%ADD17R,1.905000X2.000000*%
G04 #@! TD*
G04 #@! TA.AperFunction,ComponentPad*
%ADD18O,1.905000X2.000000*%
G04 #@! TD*
G04 #@! TA.AperFunction,ComponentPad*
%ADD19C,1.700000*%
G04 #@! TD*
G04 #@! TA.AperFunction,ComponentPad*
%ADD20O,1.600000X1.600000*%
G04 #@! TD*
G04 #@! TA.AperFunction,ComponentPad*
%ADD21C,2.000000*%
G04 #@! TD*
G04 #@! TA.AperFunction,ComponentPad*
%ADD22R,1.600000X2.400000*%
G04 #@! TD*
G04 #@! TA.AperFunction,ComponentPad*
%ADD23O,1.600000X2.400000*%
G04 #@! TD*
G04 #@! TA.AperFunction,ComponentPad*
%ADD24O,1.200000X2.000000*%
G04 #@! TD*
G04 #@! TA.AperFunction,ViaPad*
%ADD25C,1.600000*%
G04 #@! TD*
G04 #@! TA.AperFunction,Conductor*
%ADD26C,0.300000*%
G04 #@! TD*
G04 APERTURE END LIST*
D10*
X-3333334Y-35079761D02*
X-4476191Y-35079761D01*
X-3904762Y-35079761D02*
X-3904762Y-33079761D01*
X-4095239Y-33365476D01*
X-4285715Y-33555952D01*
X-4476191Y-33651190D01*
X-2095239Y-33079761D02*
X-1904762Y-33079761D01*
X-1714286Y-33175000D01*
X-1619048Y-33270238D01*
X-1523810Y-33460714D01*
X-1428572Y-33841666D01*
X-1428572Y-34317857D01*
X-1523810Y-34698809D01*
X-1619048Y-34889285D01*
X-1714286Y-34984523D01*
X-1904762Y-35079761D01*
X-2095239Y-35079761D01*
X-2285715Y-34984523D01*
X-2380953Y-34889285D01*
X-2476191Y-34698809D01*
X-2571429Y-34317857D01*
X-2571429Y-33841666D01*
X-2476191Y-33460714D01*
X-2380953Y-33270238D01*
X-2285715Y-33175000D01*
X-2095239Y-33079761D01*
X857142Y-32984523D02*
X-857143Y-35555952D01*
X2571428Y-35079761D02*
X1428571Y-35079761D01*
X2000000Y-35079761D02*
X2000000Y-33079761D01*
X1809523Y-33365476D01*
X1619047Y-33555952D01*
X1428571Y-33651190D01*
X3714285Y-33936904D02*
X3523809Y-33841666D01*
X3428571Y-33746428D01*
X3333333Y-33555952D01*
X3333333Y-33460714D01*
X3428571Y-33270238D01*
X3523809Y-33175000D01*
X3714285Y-33079761D01*
X4095238Y-33079761D01*
X4285714Y-33175000D01*
X4380952Y-33270238D01*
X4476190Y-33460714D01*
X4476190Y-33555952D01*
X4380952Y-33746428D01*
X4285714Y-33841666D01*
X4095238Y-33936904D01*
X3714285Y-33936904D01*
X3523809Y-34032142D01*
X3428571Y-34127380D01*
X3333333Y-34317857D01*
X3333333Y-34698809D01*
X3428571Y-34889285D01*
X3523809Y-34984523D01*
X3714285Y-35079761D01*
X4095238Y-35079761D01*
X4285714Y-34984523D01*
X4380952Y-34889285D01*
X4476190Y-34698809D01*
X4476190Y-34317857D01*
X4380952Y-34127380D01*
X4285714Y-34032142D01*
X4095238Y-33936904D01*
X-4215477Y-30479761D02*
X-3072620Y-30479761D01*
X-3644048Y-32479761D02*
X-3644048Y-30479761D01*
X-2405953Y-32479761D02*
X-2405953Y-31146428D01*
X-2405953Y-30479761D02*
X-2501191Y-30575000D01*
X-2405953Y-30670238D01*
X-2310715Y-30575000D01*
X-2405953Y-30479761D01*
X-2405953Y-30670238D01*
X-1453572Y-32479761D02*
X-1453572Y-31146428D01*
X-1453572Y-31336904D02*
X-1358334Y-31241666D01*
X-1167858Y-31146428D01*
X-882143Y-31146428D01*
X-691667Y-31241666D01*
X-596429Y-31432142D01*
X-596429Y-32479761D01*
X-596429Y-31432142D02*
X-501191Y-31241666D01*
X-310715Y-31146428D01*
X-25000Y-31146428D01*
X165476Y-31241666D01*
X260714Y-31432142D01*
X260714Y-32479761D01*
X2736904Y-32479761D02*
X2736904Y-30479761D01*
X2736904Y-31432142D02*
X3879761Y-31432142D01*
X3879761Y-32479761D02*
X3879761Y-30479761D01*
D11*
G04 #@! TO.P,J2,1*
G04 #@! TO.N,GNDD*
X10604200Y-34696200D03*
D12*
G04 #@! TO.P,J2,2*
X10604200Y-32156200D03*
G04 #@! TO.P,J2,3*
G04 #@! TO.N,/USB_5V*
X13144200Y-34696200D03*
G04 #@! TO.P,J2,4*
G04 #@! TO.N,/RX*
X13144200Y-32156200D03*
G04 #@! TO.P,J2,5*
G04 #@! TO.N,/TX*
X15684200Y-34696200D03*
G04 #@! TO.P,J2,6*
G04 #@! TO.N,Net-(C9-Pad2)*
X15684200Y-32156200D03*
G04 #@! TD*
D13*
G04 #@! TO.P,D2,2*
G04 #@! TO.N,/LED1*
X-10800000Y-31785000D03*
D14*
G04 #@! TO.P,D2,1*
G04 #@! TO.N,Net-(D2-Pad1)*
X-10800000Y-34325000D03*
G04 #@! TD*
G04 #@! TO.P,D3,1*
G04 #@! TO.N,Net-(D3-Pad1)*
X-15300000Y-34325000D03*
D13*
G04 #@! TO.P,D3,2*
G04 #@! TO.N,/LED2*
X-15300000Y-31785000D03*
G04 #@! TD*
D15*
G04 #@! TO.P,C10,1*
G04 #@! TO.N,+BATT*
X5100000Y17600000D03*
D16*
G04 #@! TO.P,C10,2*
G04 #@! TO.N,GND*
X5100000Y15100000D03*
G04 #@! TD*
D17*
G04 #@! TO.P,U2,1*
G04 #@! TO.N,+BATT*
X-8128000Y28956000D03*
D18*
G04 #@! TO.P,U2,2*
G04 #@! TO.N,GND*
X-5588000Y28956000D03*
G04 #@! TO.P,U2,3*
G04 #@! TO.N,Net-(C8-Pad1)*
X-3048000Y28956000D03*
G04 #@! TD*
D19*
G04 #@! TO.P,Y1,1*
G04 #@! TO.N,/XTAL1*
X10628000Y-15748000D03*
G04 #@! TO.P,Y1,2*
G04 #@! TO.N,GNDD*
X8128000Y-15748000D03*
G04 #@! TO.P,Y1,3*
G04 #@! TO.N,/XTAL2*
X5628000Y-15748000D03*
G04 #@! TD*
D12*
G04 #@! TO.P,J1,5*
G04 #@! TO.N,+5VD*
X23000000Y-13420000D03*
G04 #@! TO.P,J1,4*
G04 #@! TO.N,/USB_5V*
X23000000Y-15960000D03*
G04 #@! TO.P,J1,3*
G04 #@! TO.N,GNDD*
X23000000Y-18500000D03*
G04 #@! TO.P,J1,2*
G04 #@! TO.N,/BTN2*
X23000000Y-21040000D03*
D11*
G04 #@! TO.P,J1,1*
G04 #@! TO.N,/BTN1*
X23000000Y-23580000D03*
G04 #@! TD*
G04 #@! TO.P,J8,1*
G04 #@! TO.N,/BTN1_T*
X23000000Y13420000D03*
D12*
G04 #@! TO.P,J8,2*
G04 #@! TO.N,/BTN2_T*
X23000000Y15960000D03*
G04 #@! TO.P,J8,3*
G04 #@! TO.N,GND*
X23000000Y18500000D03*
G04 #@! TO.P,J8,4*
G04 #@! TO.N,/USB_5V_T*
X23000000Y21040000D03*
G04 #@! TO.P,J8,5*
G04 #@! TO.N,+5V*
X23000000Y23580000D03*
G04 #@! TD*
D11*
G04 #@! TO.P,J9,1*
G04 #@! TO.N,/RIGHT_DIR*
X-23000000Y-23580000D03*
D12*
G04 #@! TO.P,J9,2*
G04 #@! TO.N,/RIGHT_STEP*
X-23000000Y-21040000D03*
G04 #@! TO.P,J9,3*
G04 #@! TO.N,/LEFT_DIR*
X-23000000Y-18500000D03*
G04 #@! TO.P,J9,4*
G04 #@! TO.N,/LEFT_STEP*
X-23000000Y-15960000D03*
G04 #@! TO.P,J9,5*
G04 #@! TO.N,/M_ENABLE*
X-23000000Y-13420000D03*
G04 #@! TD*
D11*
G04 #@! TO.P,J12,1*
G04 #@! TO.N,/RIGHT_DIR_T*
X-23000000Y13420000D03*
D12*
G04 #@! TO.P,J12,2*
G04 #@! TO.N,/RIGHT_STEP_T*
X-23000000Y15960000D03*
G04 #@! TO.P,J12,3*
G04 #@! TO.N,/LEFT_DIR_T*
X-23000000Y18500000D03*
G04 #@! TO.P,J12,4*
G04 #@! TO.N,/LEFT_STEP_T*
X-23000000Y21040000D03*
G04 #@! TO.P,J12,5*
G04 #@! TO.N,/M_ENABLE_T*
X-23000000Y23580000D03*
G04 #@! TD*
G04 #@! TO.P,BT1,2*
G04 #@! TO.N,Net-(BT1-Pad2)*
X-10160000Y34290000D03*
D11*
G04 #@! TO.P,BT1,1*
G04 #@! TO.N,Net-(BT1-Pad1)*
X-7620000Y34290000D03*
G04 #@! TD*
G04 #@! TO.P,BT2,1*
G04 #@! TO.N,Net-(BT1-Pad2)*
X-2540000Y34290000D03*
D12*
G04 #@! TO.P,BT2,2*
G04 #@! TO.N,GND*
X-5080000Y34290000D03*
G04 #@! TD*
D11*
G04 #@! TO.P,SW1,1*
G04 #@! TO.N,Net-(BT1-Pad1)*
X-12700000Y34290000D03*
D12*
G04 #@! TO.P,SW1,2*
G04 #@! TO.N,+BATT*
X-15240000Y34290000D03*
G04 #@! TD*
D15*
G04 #@! TO.P,U1,1*
G04 #@! TO.N,/RST*
X16510000Y-20955000D03*
D20*
G04 #@! TO.P,U1,15*
G04 #@! TO.N,/SENSE_TRIG*
X-16510000Y-28575000D03*
G04 #@! TO.P,U1,2*
G04 #@! TO.N,/RX*
X13970000Y-20955000D03*
G04 #@! TO.P,U1,16*
G04 #@! TO.N,/RIGHT_DIR*
X-13970000Y-28575000D03*
G04 #@! TO.P,U1,3*
G04 #@! TO.N,/TX*
X11430000Y-20955000D03*
G04 #@! TO.P,U1,17*
G04 #@! TO.N,/RIGHT_STEP*
X-11430000Y-28575000D03*
G04 #@! TO.P,U1,4*
G04 #@! TO.N,Net-(U1-Pad4)*
X8890000Y-20955000D03*
G04 #@! TO.P,U1,18*
G04 #@! TO.N,/LED2*
X-8890000Y-28575000D03*
G04 #@! TO.P,U1,5*
G04 #@! TO.N,/M_ENABLE*
X6350000Y-20955000D03*
G04 #@! TO.P,U1,19*
G04 #@! TO.N,/LED1*
X-6350000Y-28575000D03*
G04 #@! TO.P,U1,6*
G04 #@! TO.N,/SENSE_SEL_0*
X3810000Y-20955000D03*
G04 #@! TO.P,U1,20*
G04 #@! TO.N,+5VD*
X-3810000Y-28575000D03*
G04 #@! TO.P,U1,7*
X1270000Y-20955000D03*
G04 #@! TO.P,U1,21*
X-1270000Y-28575000D03*
G04 #@! TO.P,U1,8*
G04 #@! TO.N,GNDD*
X-1270000Y-20955000D03*
G04 #@! TO.P,U1,22*
X1270000Y-28575000D03*
G04 #@! TO.P,U1,9*
G04 #@! TO.N,/XTAL1*
X-3810000Y-20955000D03*
G04 #@! TO.P,U1,23*
G04 #@! TO.N,Net-(SW3-Pad4)*
X3810000Y-28575000D03*
G04 #@! TO.P,U1,10*
G04 #@! TO.N,/XTAL2*
X-6350000Y-20955000D03*
G04 #@! TO.P,U1,24*
G04 #@! TO.N,Net-(SW3-Pad3)*
X6350000Y-28575000D03*
G04 #@! TO.P,U1,11*
G04 #@! TO.N,/SENSE_SEL_1*
X-8890000Y-20955000D03*
G04 #@! TO.P,U1,25*
G04 #@! TO.N,Net-(SW3-Pad2)*
X8890000Y-28575000D03*
G04 #@! TO.P,U1,12*
G04 #@! TO.N,/LEFT_STEP*
X-11430000Y-20955000D03*
G04 #@! TO.P,U1,26*
G04 #@! TO.N,Net-(SW3-Pad1)*
X11430000Y-28575000D03*
G04 #@! TO.P,U1,13*
G04 #@! TO.N,/LEFT_DIR*
X-13970000Y-20955000D03*
G04 #@! TO.P,U1,27*
G04 #@! TO.N,/BTN2*
X13970000Y-28575000D03*
G04 #@! TO.P,U1,14*
G04 #@! TO.N,/SENSE_ECHO*
X-16510000Y-20955000D03*
G04 #@! TO.P,U1,28*
G04 #@! TO.N,/BTN1*
X16510000Y-28575000D03*
G04 #@! TD*
D21*
G04 #@! TO.P,SW5,2*
G04 #@! TO.N,GND*
X1850000Y8890000D03*
G04 #@! TO.P,SW5,1*
G04 #@! TO.N,/BTN2_T*
X6350000Y8890000D03*
G04 #@! TO.P,SW5,2*
G04 #@! TO.N,GND*
X1850000Y2390000D03*
G04 #@! TO.P,SW5,1*
G04 #@! TO.N,/BTN2_T*
X6350000Y2390000D03*
G04 #@! TD*
D16*
G04 #@! TO.P,C11,2*
G04 #@! TO.N,GND*
X-15200000Y29845000D03*
D15*
G04 #@! TO.P,C11,1*
G04 #@! TO.N,+BATT*
X-12700000Y29845000D03*
G04 #@! TD*
D11*
G04 #@! TO.P,J7,1*
G04 #@! TO.N,GNDD*
X-5220000Y-5410000D03*
D12*
G04 #@! TO.P,J7,2*
G04 #@! TO.N,/BACK_ECHO*
X-2680000Y-5410000D03*
G04 #@! TO.P,J7,3*
G04 #@! TO.N,/BACK_TRIG*
X-140000Y-5410000D03*
G04 #@! TO.P,J7,4*
G04 #@! TO.N,+5VD*
X2400000Y-5410000D03*
G04 #@! TD*
D22*
G04 #@! TO.P,U5,1*
G04 #@! TO.N,/RIGHT_ECHO*
X-16510000Y-16459000D03*
D23*
G04 #@! TO.P,U5,9*
G04 #@! TO.N,/SENSE_SEL_1*
X1270000Y-8839000D03*
G04 #@! TO.P,U5,2*
G04 #@! TO.N,/LEFT_ECHO*
X-13970000Y-16459000D03*
G04 #@! TO.P,U5,10*
G04 #@! TO.N,/SENSE_SEL_0*
X-1270000Y-8839000D03*
G04 #@! TO.P,U5,3*
G04 #@! TO.N,/SENSE_ECHO*
X-11430000Y-16459000D03*
G04 #@! TO.P,U5,11*
G04 #@! TO.N,/BACK_TRIG*
X-3810000Y-8839000D03*
G04 #@! TO.P,U5,4*
G04 #@! TO.N,/BACK_ECHO*
X-8890000Y-16459000D03*
G04 #@! TO.P,U5,12*
G04 #@! TO.N,/RIGHT_TRIG*
X-6350000Y-8839000D03*
G04 #@! TO.P,U5,5*
G04 #@! TO.N,/FRONT_ECHO*
X-6350000Y-16459000D03*
G04 #@! TO.P,U5,13*
G04 #@! TO.N,/SENSE_TRIG*
X-8890000Y-8839000D03*
G04 #@! TO.P,U5,6*
G04 #@! TO.N,GNDD*
X-3810000Y-16459000D03*
G04 #@! TO.P,U5,14*
G04 #@! TO.N,/FRONT_TRIG*
X-11430000Y-8839000D03*
G04 #@! TO.P,U5,7*
G04 #@! TO.N,GNDD*
X-1270000Y-16459000D03*
G04 #@! TO.P,U5,15*
G04 #@! TO.N,/LEFT_TRIG*
X-13970000Y-8839000D03*
G04 #@! TO.P,U5,8*
G04 #@! TO.N,GNDD*
X1270000Y-16459000D03*
G04 #@! TO.P,U5,16*
G04 #@! TO.N,+5VD*
X-16510000Y-8839000D03*
G04 #@! TD*
D15*
G04 #@! TO.P,C5,1*
G04 #@! TO.N,+BATT*
X-15400000Y17600000D03*
D16*
G04 #@! TO.P,C5,2*
G04 #@! TO.N,GND*
X-15400000Y15100000D03*
G04 #@! TD*
D11*
G04 #@! TO.P,J3,1*
G04 #@! TO.N,Net-(C8-Pad1)*
X1651000Y34290000D03*
D12*
G04 #@! TO.P,J3,2*
G04 #@! TO.N,+5V*
X1651000Y31750000D03*
G04 #@! TO.P,J3,3*
G04 #@! TO.N,/USB_5V_T*
X1651000Y29210000D03*
G04 #@! TD*
G04 #@! TO.P,J4,4*
G04 #@! TO.N,+5VD*
X-15380000Y-5410000D03*
G04 #@! TO.P,J4,3*
G04 #@! TO.N,/FRONT_TRIG*
X-12840000Y-5410000D03*
G04 #@! TO.P,J4,2*
G04 #@! TO.N,/FRONT_ECHO*
X-10300000Y-5410000D03*
D11*
G04 #@! TO.P,J4,1*
G04 #@! TO.N,GNDD*
X-7760000Y-5410000D03*
G04 #@! TD*
G04 #@! TO.P,J5,1*
G04 #@! TO.N,GNDD*
X-7760000Y-2870000D03*
D12*
G04 #@! TO.P,J5,2*
G04 #@! TO.N,/LEFT_ECHO*
X-10300000Y-2870000D03*
G04 #@! TO.P,J5,3*
G04 #@! TO.N,/LEFT_TRIG*
X-12840000Y-2870000D03*
G04 #@! TO.P,J5,4*
G04 #@! TO.N,+5VD*
X-15380000Y-2870000D03*
G04 #@! TD*
G04 #@! TO.P,J6,4*
G04 #@! TO.N,+5VD*
X2400000Y-2870000D03*
G04 #@! TO.P,J6,3*
G04 #@! TO.N,/RIGHT_TRIG*
X-140000Y-2870000D03*
G04 #@! TO.P,J6,2*
G04 #@! TO.N,/RIGHT_ECHO*
X-2680000Y-2870000D03*
D11*
G04 #@! TO.P,J6,1*
G04 #@! TO.N,GNDD*
X-5220000Y-2870000D03*
G04 #@! TD*
G04 #@! TO.P,M1,1*
G04 #@! TO.N,Net-(M1-Pad1)*
X17145000Y8890000D03*
D12*
G04 #@! TO.P,M1,2*
G04 #@! TO.N,Net-(M1-Pad2)*
X14605000Y8890000D03*
G04 #@! TO.P,M1,3*
G04 #@! TO.N,Net-(M1-Pad3)*
X12065000Y8890000D03*
G04 #@! TO.P,M1,4*
G04 #@! TO.N,Net-(M1-Pad4)*
X9525000Y8890000D03*
G04 #@! TD*
D11*
G04 #@! TO.P,M2,1*
G04 #@! TO.N,Net-(M2-Pad1)*
X-9525000Y8890000D03*
D12*
G04 #@! TO.P,M2,2*
G04 #@! TO.N,Net-(M2-Pad2)*
X-12065000Y8890000D03*
G04 #@! TO.P,M2,3*
G04 #@! TO.N,Net-(M2-Pad3)*
X-14605000Y8890000D03*
G04 #@! TO.P,M2,4*
G04 #@! TO.N,Net-(M2-Pad4)*
X-17145000Y8890000D03*
G04 #@! TD*
D15*
G04 #@! TO.P,SW3,1*
G04 #@! TO.N,Net-(SW3-Pad1)*
X6985000Y-10160000D03*
D20*
G04 #@! TO.P,SW3,5*
G04 #@! TO.N,GNDD*
X14605000Y-2540000D03*
G04 #@! TO.P,SW3,2*
G04 #@! TO.N,Net-(SW3-Pad2)*
X9525000Y-10160000D03*
G04 #@! TO.P,SW3,6*
G04 #@! TO.N,GNDD*
X12065000Y-2540000D03*
G04 #@! TO.P,SW3,3*
G04 #@! TO.N,Net-(SW3-Pad3)*
X12065000Y-10160000D03*
G04 #@! TO.P,SW3,7*
G04 #@! TO.N,GNDD*
X9525000Y-2540000D03*
G04 #@! TO.P,SW3,4*
G04 #@! TO.N,Net-(SW3-Pad4)*
X14605000Y-10160000D03*
G04 #@! TO.P,SW3,8*
G04 #@! TO.N,GNDD*
X6985000Y-2540000D03*
G04 #@! TD*
D21*
G04 #@! TO.P,SW4,2*
G04 #@! TO.N,GND*
X-1850000Y2390000D03*
G04 #@! TO.P,SW4,1*
G04 #@! TO.N,/BTN1_T*
X-6350000Y2390000D03*
G04 #@! TO.P,SW4,2*
G04 #@! TO.N,GND*
X-1850000Y8890000D03*
G04 #@! TO.P,SW4,1*
G04 #@! TO.N,/BTN1_T*
X-6350000Y8890000D03*
G04 #@! TD*
D24*
G04 #@! TO.P,U3,16*
G04 #@! TO.N,+BATT*
X19177000Y12065000D03*
G04 #@! TO.P,U3,1*
G04 #@! TO.N,/M_ENABLE_T*
X19177000Y24765000D03*
G04 #@! TO.P,U3,15*
G04 #@! TO.N,GND*
X16637000Y12065000D03*
G04 #@! TO.P,U3,2*
G04 #@! TO.N,Net-(JP1-Pad2)*
X16637000Y24765000D03*
G04 #@! TO.P,U3,14*
G04 #@! TO.N,Net-(M1-Pad1)*
X14097000Y12065000D03*
G04 #@! TO.P,U3,3*
G04 #@! TO.N,Net-(JP2-Pad2)*
X14097000Y24765000D03*
G04 #@! TO.P,U3,13*
G04 #@! TO.N,Net-(M1-Pad2)*
X11557000Y12065000D03*
G04 #@! TO.P,U3,4*
G04 #@! TO.N,Net-(JP3-Pad2)*
X11557000Y24765000D03*
G04 #@! TO.P,U3,12*
G04 #@! TO.N,Net-(M1-Pad3)*
X9017000Y12065000D03*
G04 #@! TO.P,U3,5*
G04 #@! TO.N,Net-(R5-Pad1)*
X9017000Y24765000D03*
G04 #@! TO.P,U3,11*
G04 #@! TO.N,Net-(M1-Pad4)*
X6477000Y12065000D03*
G04 #@! TO.P,U3,6*
G04 #@! TO.N,Net-(R6-Pad1)*
X6477000Y24765000D03*
G04 #@! TO.P,U3,10*
G04 #@! TO.N,+5V*
X3937000Y12065000D03*
G04 #@! TO.P,U3,7*
G04 #@! TO.N,/LEFT_STEP_T*
X3937000Y24765000D03*
G04 #@! TO.P,U3,9*
G04 #@! TO.N,GND*
X1397000Y12065000D03*
G04 #@! TO.P,U3,8*
G04 #@! TO.N,/LEFT_DIR_T*
X1397000Y24765000D03*
G04 #@! TD*
G04 #@! TO.P,U4,8*
G04 #@! TO.N,/RIGHT_DIR_T*
X-19177000Y24765000D03*
G04 #@! TO.P,U4,9*
G04 #@! TO.N,GND*
X-19177000Y12065000D03*
G04 #@! TO.P,U4,7*
G04 #@! TO.N,/RIGHT_STEP_T*
X-16637000Y24765000D03*
G04 #@! TO.P,U4,10*
G04 #@! TO.N,+5V*
X-16637000Y12065000D03*
G04 #@! TO.P,U4,6*
G04 #@! TO.N,Net-(R11-Pad1)*
X-14097000Y24765000D03*
G04 #@! TO.P,U4,11*
G04 #@! TO.N,Net-(M2-Pad4)*
X-14097000Y12065000D03*
G04 #@! TO.P,U4,5*
G04 #@! TO.N,Net-(R10-Pad1)*
X-11557000Y24765000D03*
G04 #@! TO.P,U4,12*
G04 #@! TO.N,Net-(M2-Pad3)*
X-11557000Y12065000D03*
G04 #@! TO.P,U4,4*
G04 #@! TO.N,Net-(JP6-Pad2)*
X-9017000Y24765000D03*
G04 #@! TO.P,U4,13*
G04 #@! TO.N,Net-(M2-Pad2)*
X-9017000Y12065000D03*
G04 #@! TO.P,U4,3*
G04 #@! TO.N,Net-(JP5-Pad2)*
X-6477000Y24765000D03*
G04 #@! TO.P,U4,14*
G04 #@! TO.N,Net-(M2-Pad1)*
X-6477000Y12065000D03*
G04 #@! TO.P,U4,2*
G04 #@! TO.N,Net-(JP4-Pad2)*
X-3937000Y24765000D03*
G04 #@! TO.P,U4,15*
G04 #@! TO.N,GND*
X-3937000Y12065000D03*
G04 #@! TO.P,U4,1*
G04 #@! TO.N,/M_ENABLE_T*
X-1397000Y24765000D03*
G04 #@! TO.P,U4,16*
G04 #@! TO.N,+BATT*
X-1397000Y12065000D03*
G04 #@! TD*
D25*
G04 #@! TO.N,GND*
X19177000Y16256000D03*
X-17907000Y27432000D03*
X-12827000Y27426000D03*
G04 #@! TO.N,+5V*
X19177000Y20434999D03*
G04 #@! TO.N,Net-(C9-Pad2)*
X16497000Y-18872000D03*
X19140090Y-27226442D03*
G04 #@! TO.N,/RX*
X12814000Y-17072997D03*
X20789600Y-24739400D03*
G04 #@! TO.N,/TX*
X12814000Y-18872000D03*
X20942000Y-27228600D03*
G04 #@! TO.N,/RIGHT_ECHO*
X3543000Y-7696000D03*
X-19050000Y-10668000D03*
G04 #@! TO.N,/XTAL1*
X9398000Y-18034000D03*
X-2540000Y-19304000D03*
G04 #@! TO.N,/XTAL2*
X6858000Y-18034000D03*
X-5080000Y-19304000D03*
G04 #@! TO.N,/SENSE_TRIG*
X-19063000Y-25984000D03*
X-19063000Y-20015000D03*
G04 #@! TO.N,/M_ENABLE_T*
X-1397000Y21844000D03*
X19177000Y22733000D03*
G04 #@! TO.N,/LEFT_STEP_T*
X3937000Y21844000D03*
G04 #@! TO.N,/LEFT_DIR_T*
X1397000Y21767980D03*
G04 #@! TO.N,/RIGHT_DIR_T*
X-19177000Y20701000D03*
G04 #@! TO.N,/RIGHT_STEP_T*
X-16637000Y20701000D03*
G04 #@! TO.N,GNDD*
X-20576181Y-18593181D03*
X-20587000Y-24841000D03*
X20434000Y-18491000D03*
X3556000Y-12700000D03*
X8128000Y-12700000D03*
X6362400Y-30606800D03*
G04 #@! TO.N,+5VD*
X-19050000Y-12573000D03*
X3556000Y-10668000D03*
X16510000Y-13462000D03*
X20320000Y-13462000D03*
X-6363000Y-30632200D03*
G04 #@! TO.N,/USB_5V_T*
X19177000Y18635996D03*
G04 #@! TO.N,/BTN2_T*
X19176991Y9566980D03*
G04 #@! TO.N,/BTN1_T*
X7425000Y6375000D03*
G04 #@! TD*
D26*
G04 #@! TO.N,GND*
X23000000Y18500000D02*
X23000000Y18428000D01*
X20828000Y16256000D02*
X22479000Y17907000D01*
X19177000Y16256000D02*
X20828000Y16256000D01*
X23000000Y18428000D02*
X22479000Y17907000D01*
X22479000Y17907000D02*
X21082000Y16510000D01*
X-17907000Y27432000D02*
X-12833000Y27432000D01*
X-12833000Y27432000D02*
X-12827000Y27426000D01*
G04 #@! TO.N,+5V*
X19854999Y20434999D02*
X19177000Y20434999D01*
X23000000Y23580000D02*
X19854999Y20434999D01*
G04 #@! TO.N,Net-(C9-Pad2)*
X17628370Y-18872000D02*
X16497000Y-18872000D01*
X18524073Y-19767703D02*
X18122600Y-19366230D01*
X18524073Y-26242462D02*
X18524073Y-19767703D01*
X18441170Y-19684800D02*
X18122600Y-19366230D01*
X18122600Y-19366230D02*
X17628370Y-18872000D01*
X18524073Y-26242462D02*
X18524073Y-26610425D01*
X18524073Y-26610425D02*
X19140090Y-27226442D01*
G04 #@! TO.N,/RX*
X17380780Y-17072997D02*
X13945370Y-17072997D01*
X13945370Y-17072997D02*
X12814000Y-17072997D01*
X19522093Y-19214310D02*
X17380780Y-17072997D01*
X19522093Y-23471893D02*
X19522093Y-19214310D01*
X20789600Y-24739400D02*
X19522093Y-23471893D01*
G04 #@! TO.N,/TX*
X13613999Y-18072001D02*
X12814000Y-18872000D01*
X14090001Y-17595999D02*
X13613999Y-18072001D01*
X17132769Y-17595999D02*
X14090001Y-17595999D01*
X19023083Y-19486313D02*
X18351200Y-18814430D01*
X19023083Y-24937418D02*
X19023083Y-19486313D01*
X18351200Y-18814430D02*
X17132769Y-17595999D01*
X19023083Y-24937418D02*
X19023083Y-25309683D01*
X19023083Y-25309683D02*
X20942000Y-27228600D01*
G04 #@! TO.N,/RIGHT_ECHO*
X3543000Y-8712000D02*
X3543000Y-7696000D01*
X1587000Y-10668000D02*
X3543000Y-8712000D01*
X3543000Y-7696000D02*
X3480000Y-7696000D01*
X-19050000Y-10668000D02*
X1587000Y-10668000D01*
G04 #@! TO.N,/XTAL1*
X8128000Y-19304000D02*
X9398000Y-18034000D01*
X-2540000Y-19304000D02*
X8128000Y-19304000D01*
G04 #@! TO.N,/XTAL2*
X-3810000Y-18034000D02*
X-5080000Y-19304000D01*
X6858000Y-18034000D02*
X-3810000Y-18034000D01*
G04 #@! TO.N,/SENSE_TRIG*
X-19063000Y-25984000D02*
X-19063000Y-20015000D01*
G04 #@! TO.N,/M_ENABLE_T*
X174990Y23415990D02*
X17605010Y23415990D01*
X-1397000Y22975370D02*
X-1397000Y23415990D01*
X-1397000Y21844000D02*
X-1397000Y22975370D01*
X174990Y23415990D02*
X-1397000Y23415990D01*
X-23000000Y23580000D02*
X-21294000Y23580000D01*
X-21129990Y23415990D02*
X-18923000Y23415990D01*
X-21294000Y23580000D02*
X-21129990Y23415990D01*
X-1397000Y23415990D02*
X-18923000Y23415990D01*
X18494010Y23415990D02*
X19177000Y22733000D01*
X17605010Y23415990D02*
X18494010Y23415990D01*
G04 #@! TO.N,/LEFT_STEP_T*
X3937000Y21844000D02*
X2864020Y22916980D01*
X1524000Y22916980D02*
X818980Y22916980D01*
X2864020Y22916980D02*
X1524000Y22916980D01*
X-21123020Y22916980D02*
X-23000000Y21040000D01*
X-4120980Y22916980D02*
X-21123020Y22916980D01*
X437980Y22916980D02*
X0Y22479000D01*
X0Y22479000D02*
X0Y21540478D01*
X1524000Y22916980D02*
X437980Y22916980D01*
X0Y21540478D02*
X-845479Y20694999D01*
X-845479Y20694999D02*
X-1898999Y20694999D01*
X-1898999Y20694999D02*
X-4120980Y22916980D01*
G04 #@! TO.N,/LEFT_DIR_T*
X-21717000Y21590000D02*
X-21717000Y19783000D01*
X-20889030Y22417970D02*
X-21717000Y21590000D01*
X838020Y21209000D02*
X374228Y21209000D01*
X1397000Y21767980D02*
X838020Y21209000D01*
X-2161989Y20195989D02*
X-4383970Y22417970D01*
X374228Y21209000D02*
X-638783Y20195989D01*
X-21717000Y19783000D02*
X-23000000Y18500000D01*
X-638783Y20195989D02*
X-2161989Y20195989D01*
X-4383970Y22417970D02*
X-20889030Y22417970D01*
G04 #@! TO.N,/RIGHT_DIR_T*
X-20308370Y20701000D02*
X-20718980Y20290390D01*
X-19177000Y20701000D02*
X-20308370Y20701000D01*
X-20718980Y14551020D02*
X-21850000Y13420000D01*
X-21850000Y13420000D02*
X-23000000Y13420000D01*
X-20718980Y20290390D02*
X-20718980Y14551020D01*
G04 #@! TO.N,/RIGHT_STEP_T*
X-16637000Y20701000D02*
X-17854960Y21918960D01*
X-17854960Y21918960D02*
X-20682334Y21918960D01*
X-20682334Y21918960D02*
X-21217990Y21383304D01*
X-21217990Y17742010D02*
X-23000000Y15960000D01*
X-21217990Y21383304D02*
X-21217990Y17742010D01*
G04 #@! TO.N,GNDD*
X-20576181Y-18593181D02*
X-20576181Y-24830181D01*
X-20576181Y-24830181D02*
X-20587000Y-24841000D01*
X13957000Y-16459000D02*
X13703000Y-16205000D01*
X13703000Y-16205000D02*
X13322000Y-15824000D01*
X16624000Y-16459000D02*
X13957000Y-16459000D01*
X16624000Y-16459000D02*
X16878000Y-16459000D01*
X17132000Y-16459000D02*
X17513000Y-16459000D01*
X16878000Y-16459000D02*
X17132000Y-16459000D01*
X17513000Y-16459000D02*
X16624000Y-16459000D01*
X19545000Y-18491000D02*
X17513000Y-16459000D01*
X20434000Y-18491000D02*
X19545000Y-18491000D01*
X3429000Y-12700000D02*
X8128000Y-12700000D01*
X11087000Y-13589000D02*
X13703000Y-16205000D01*
X8128000Y-12700000D02*
X10160000Y-12700000D01*
X10160000Y-12700000D02*
X11087000Y-13589000D01*
X24244000Y-25552200D02*
X24244000Y-20523000D01*
X24244000Y-20523000D02*
X23482000Y-19761000D01*
X21399200Y-28397000D02*
X24244000Y-25552200D01*
X6362400Y-30606800D02*
X16903400Y-30606800D01*
X16903400Y-30606800D02*
X19113200Y-28397000D01*
X19113200Y-28397000D02*
X21399200Y-28397000D01*
X23482000Y-19761000D02*
X21704000Y-19761000D01*
X21704000Y-19761000D02*
X20434000Y-18491000D01*
G04 #@! TO.N,+5VD*
X1651000Y-12573000D02*
X3556000Y-10668000D01*
X-127000Y-12573000D02*
X1651000Y-12573000D01*
X3556000Y-10668000D02*
X3683000Y-10668000D01*
X4318000Y-11430000D02*
X3556000Y-10668000D01*
X14224000Y-11430000D02*
X4318000Y-11430000D01*
X14224000Y-11430000D02*
X14478000Y-11430000D01*
X14478000Y-11430000D02*
X16510000Y-13462000D01*
X16510000Y-13462000D02*
X20320000Y-13462000D01*
X-127000Y-12573000D02*
X-17907000Y-12573000D01*
X-17907000Y-12573000D02*
X-19050000Y-12573000D01*
X-19050000Y-18288000D02*
X-19050000Y-12573000D01*
X-6363000Y-30632200D02*
X-7455200Y-30632200D01*
X-7455200Y-30632200D02*
X-7937800Y-30149600D01*
X-7937800Y-30149600D02*
X-16586400Y-30149600D01*
X-17907000Y-28829000D02*
X-17907000Y-19431000D01*
X-16586400Y-30149600D02*
X-17907000Y-28829000D01*
X-17907000Y-19431000D02*
X-19050000Y-18288000D01*
G04 #@! TO.N,/USB_5V_T*
X20595996Y18635996D02*
X23000000Y21040000D01*
X19177000Y18635996D02*
X20595996Y18635996D01*
G04 #@! TO.N,/BTN2_T*
X20320000Y13280000D02*
X20320000Y10709989D01*
X19976990Y10366979D02*
X19176991Y9566980D01*
X23000000Y15960000D02*
X20320000Y13280000D01*
X20320000Y10709989D02*
X19976990Y10366979D01*
G04 #@! TO.N,/BTN1_T*
X20819010Y10503293D02*
X20325992Y10010275D01*
X20819010Y12389010D02*
X20819010Y10503293D01*
X20325992Y10010275D02*
X20325992Y9015459D01*
X20325992Y9015459D02*
X19692533Y8382000D01*
X23000000Y13420000D02*
X21850000Y13420000D01*
X21850000Y13420000D02*
X20819010Y12389010D01*
X19692533Y8382000D02*
X19177000Y8382000D01*
X19177000Y8382000D02*
X18270000Y7475000D01*
X8525000Y7475000D02*
X7425000Y6375000D01*
X18270000Y7475000D02*
X8525000Y7475000D01*
G04 #@! TD*
M02*
