  0
SECTION
  2
HEADER
  9
$ANGBASE
  50
0.0
  9
$ANGDIR
  70
  1
  9
$MEASUREMENT
  70
0
  0
ENDSEC
  0
SECTION
  2
TABLES
  0
TABLE
  2
LTYPE
  70
4
  0
LTYPE
  5
40F
  2
CONTINUOUS
  70
0
  3
Solid line
  72
65
  73
0
  40
0.0
  0
LTYPE
  5
410
  2
DASHDOT
 70
0
  3
Dash Dot ____ _ ____ _
 72
65
 73
4
 40
2.0
 49
1.25
 49
-0.25
 49
0.25
 49
-0.25
  0
LTYPE
  5
411
  2
DASHED
 70
0
  3
Dashed __ __ __ __ __
 72
65
 73
2
 40
0.75
 49
0.5
 49
-0.25
  0
LTYPE
  5
43B
  2
DOTTED
 70
0
  3
Dotted .  .  .  .
 72
65
 73
2
 40
0.2
 49
0.0
 49
-0.2
  0
ENDTAB
  0
TABLE
  2
STYLE
  70
4
  0
STYLE
  2
KICAD
  70
0
  40
0
  41
1
  42
1
  50
0
  71
0
  3
isocp.shx
  0
STYLE
  2
KICADB
  70
0
  40
0
  41
1
  42
1
  50
0
  71
0
  3
isocp.shx
  0
STYLE
  2
KICADI
  70
0
  40
0
  41
1
  42
1
  50
15
  71
0
  3
isocp.shx
  0
STYLE
  2
KICADBI
  70
0
  40
0
  41
1
  42
1
  50
15
  71
0
  3
isocp.shx
  0
ENDTAB
  0
TABLE
  2
LAYER
  70
30
  0
LAYER
  2
BLACK
  70
0
  62
7
  6
CONTINUOUS
  0
LAYER
  2
GRAY1
  70
0
  62
251
  6
CONTINUOUS
  0
LAYER
  2
GRAY2
  70
0
  62
8
  6
CONTINUOUS
  0
LAYER
  2
GRAY3
  70
0
  62
9
  6
CONTINUOUS
  0
LAYER
  2
WHITE
  70
0
  62
7
  6
CONTINUOUS
  0
LAYER
  2
LYELLOW
  70
0
  62
51
  6
CONTINUOUS
  0
LAYER
  2
BLUE1
  70
0
  62
178
  6
CONTINUOUS
  0
LAYER
  2
GREEN1
  70
0
  62
98
  6
CONTINUOUS
  0
LAYER
  2
CYAN1
  70
0
  62
138
  6
CONTINUOUS
  0
LAYER
  2
RED1
  70
0
  62
18
  6
CONTINUOUS
  0
LAYER
  2
MAGENTA1
  70
0
  62
228
  6
CONTINUOUS
  0
LAYER
  2
BROWN1
  70
0
  62
58
  6
CONTINUOUS
  0
LAYER
  2
BLUE2
  70
0
  62
5
  6
CONTINUOUS
  0
LAYER
  2
GREEN2
  70
0
  62
3
  6
CONTINUOUS
  0
LAYER
  2
CYAN2
  70
0
  62
4
  6
CONTINUOUS
  0
LAYER
  2
RED2
  70
0
  62
1
  6
CONTINUOUS
  0
LAYER
  2
MAGENTA2
  70
0
  62
6
  6
CONTINUOUS
  0
LAYER
  2
BROWN2
  70
0
  62
54
  6
CONTINUOUS
  0
LAYER
  2
BLUE3
  70
0
  62
171
  6
CONTINUOUS
  0
LAYER
  2
GREEN3
  70
0
  62
91
  6
CONTINUOUS
  0
LAYER
  2
CYAN3
  70
0
  62
131
  6
CONTINUOUS
  0
LAYER
  2
RED3
  70
0
  62
11
  6
CONTINUOUS
  0
LAYER
  2
MAGENTA3
  70
0
  62
221
  6
CONTINUOUS
  0
LAYER
  2
YELLOW3
  70
0
  62
2
  6
CONTINUOUS
  0
LAYER
  2
BLUE4
  70
0
  62
5
  6
CONTINUOUS
  0
LAYER
  2
GREEN4
  70
0
  62
3
  6
CONTINUOUS
  0
LAYER
  2
CYAN4
  70
0
  62
4
  6
CONTINUOUS
  0
LAYER
  2
RED4
  70
0
  62
1
  6
CONTINUOUS
  0
LAYER
  2
MAGENTA4
  70
0
  62
6
  6
CONTINUOUS
  0
LAYER
  2
YELLOW4
  70
0
  62
2
  6
CONTINUOUS
  0
ENDTAB
  0
ENDSEC
  0
SECTION
  2
ENTITIES
0
LINE
8
BLACK
6
CONTINUOUS
10
21.0103
20
-0.925661
11
21.8119
21
-1.00708
0
LINE
8
BLACK
6
CONTINUOUS
10
21.8119
20
-1.00708
11
21.8196
21
-1.00828
0
LINE
8
BLACK
6
CONTINUOUS
10
21.8196
20
-1.00828
11
21.8231
21
-1.00939
0
LINE
8
BLACK
6
CONTINUOUS
10
21.8231
20
-1.00939
11
21.8267
21
-1.01013
0
LINE
8
BLACK
6
CONTINUOUS
10
21.8267
20
-1.01013
11
22.5982
21
-1.25189
0
LINE
8
BLACK
6
CONTINUOUS
10
22.5982
20
-1.25189
11
22.6056
21
-1.25463
0
LINE
8
BLACK
6
CONTINUOUS
10
22.6056
20
-1.25463
11
22.6088
21
-1.25642
0
LINE
8
BLACK
6
CONTINUOUS
10
22.6088
20
-1.25642
11
22.6121
21
-1.25786
0
LINE
8
BLACK
6
CONTINUOUS
10
22.6121
20
-1.25786
11
23.3192
21
-1.64981
0
LINE
8
BLACK
6
CONTINUOUS
10
23.3192
20
-1.64981
11
23.3259
21
-1.65397
0
LINE
8
BLACK
6
CONTINUOUS
10
23.3259
20
-1.65397
11
23.3287
21
-1.65637
0
LINE
8
BLACK
6
CONTINUOUS
10
23.3287
20
-1.65637
11
23.3317
21
-1.65846
0
LINE
8
BLACK
6
CONTINUOUS
10
23.3317
20
-1.65846
11
23.9455
21
-2.18458
0
LINE
8
BLACK
6
CONTINUOUS
10
23.9455
20
-2.18458
11
23.9512
21
-2.18999
0
LINE
8
BLACK
6
CONTINUOUS
10
23.9512
20
-2.18999
11
23.9534
21
-2.19289
0
LINE
8
BLACK
6
CONTINUOUS
10
23.9534
20
-2.19289
11
23.9559
21
-2.19555
0
LINE
8
BLACK
6
CONTINUOUS
10
23.9559
20
-2.19555
11
24.4515
21
-2.83435
0
LINE
8
BLACK
6
CONTINUOUS
10
24.4515
20
-2.83435
11
24.4559
21
-2.8408
0
LINE
8
BLACK
6
CONTINUOUS
10
24.4559
20
-2.8408
11
24.4575
21
-2.8441
0
LINE
8
BLACK
6
CONTINUOUS
10
24.4575
20
-2.8441
11
24.4595
21
-2.84721
0
LINE
8
BLACK
6
CONTINUOUS
10
24.4595
20
-2.84721
11
24.8164
21
-3.5726
0
LINE
8
BLACK
6
CONTINUOUS
10
24.8164
20
-3.5726
11
24.8195
21
-3.57981
0
LINE
8
BLACK
6
CONTINUOUS
10
24.8195
20
-3.57981
11
24.8204
21
-3.58337
0
LINE
8
BLACK
6
CONTINUOUS
10
24.8204
20
-3.58337
11
24.8217
21
-3.58681
0
LINE
8
BLACK
6
CONTINUOUS
10
24.8217
20
-3.58681
11
25.0255
21
-4.36915
0
LINE
8
BLACK
6
CONTINUOUS
10
25.0255
20
-4.36915
11
25.0271
21
-4.37684
0
LINE
8
BLACK
6
CONTINUOUS
10
25.0271
20
-4.37684
11
25.0272
21
-4.37959
0
LINE
8
BLACK
6
CONTINUOUS
10
25.0272
20
-4.37959
11
25.0277
21
-4.3823
0
LINE
8
BLACK
6
CONTINUOUS
10
25.0277
20
-4.3823
11
25.0745
21
-4.9906
0
LINE
8
BLACK
6
CONTINUOUS
10
25.0745
20
-4.9906
11
25.075
21
-4.99344
0
LINE
8
BLACK
6
CONTINUOUS
10
25.075
20
-4.99344
11
25.075
21
-32.0066
0
LINE
8
BLACK
6
CONTINUOUS
10
25.075
20
-32.0066
11
25.0743
21
-32.0103
0
LINE
8
BLACK
6
CONTINUOUS
10
25.0743
20
-32.0103
11
24.9929
21
-32.8119
0
LINE
8
BLACK
6
CONTINUOUS
10
24.9929
20
-32.8119
11
24.9917
21
-32.8196
0
LINE
8
BLACK
6
CONTINUOUS
10
24.9917
20
-32.8196
11
24.9906
21
-32.8231
0
LINE
8
BLACK
6
CONTINUOUS
10
24.9906
20
-32.8231
11
24.9899
21
-32.8267
0
LINE
8
BLACK
6
CONTINUOUS
10
24.9899
20
-32.8267
11
24.7481
21
-33.5982
0
LINE
8
BLACK
6
CONTINUOUS
10
24.7481
20
-33.5982
11
24.7454
21
-33.6056
0
LINE
8
BLACK
6
CONTINUOUS
10
24.7454
20
-33.6056
11
24.7436
21
-33.6088
0
LINE
8
BLACK
6
CONTINUOUS
10
24.7436
20
-33.6088
11
24.7421
21
-33.6121
0
LINE
8
BLACK
6
CONTINUOUS
10
24.7421
20
-33.6121
11
24.3502
21
-34.3192
0
LINE
8
BLACK
6
CONTINUOUS
10
24.3502
20
-34.3192
11
24.346
21
-34.3259
0
LINE
8
BLACK
6
CONTINUOUS
10
24.346
20
-34.3259
11
24.3436
21
-34.3286
0
LINE
8
BLACK
6
CONTINUOUS
10
24.3436
20
-34.3286
11
24.3415
21
-34.3317
0
LINE
8
BLACK
6
CONTINUOUS
10
24.3415
20
-34.3317
11
23.8154
21
-34.9455
0
LINE
8
BLACK
6
CONTINUOUS
10
23.8154
20
-34.9455
11
23.81
21
-34.9512
0
LINE
8
BLACK
6
CONTINUOUS
10
23.81
20
-34.9512
11
23.8071
21
-34.9534
0
LINE
8
BLACK
6
CONTINUOUS
10
23.8071
20
-34.9534
11
23.8044
21
-34.9559
0
LINE
8
BLACK
6
CONTINUOUS
10
23.8044
20
-34.9559
11
23.1656
21
-35.4515
0
LINE
8
BLACK
6
CONTINUOUS
10
23.1656
20
-35.4515
11
23.1592
21
-35.4559
0
LINE
8
BLACK
6
CONTINUOUS
10
23.1592
20
-35.4559
11
23.1559
21
-35.4575
0
LINE
8
BLACK
6
CONTINUOUS
10
23.1559
20
-35.4575
11
23.1528
21
-35.4595
0
LINE
8
BLACK
6
CONTINUOUS
10
23.1528
20
-35.4595
11
22.4274
21
-35.8164
0
LINE
8
BLACK
6
CONTINUOUS
10
22.4274
20
-35.8164
11
22.4202
21
-35.8195
0
LINE
8
BLACK
6
CONTINUOUS
10
22.4202
20
-35.8195
11
22.4166
21
-35.8204
0
LINE
8
BLACK
6
CONTINUOUS
10
22.4166
20
-35.8204
11
22.4132
21
-35.8217
0
LINE
8
BLACK
6
CONTINUOUS
10
22.4132
20
-35.8217
11
21.6308
21
-36.0255
0
LINE
8
BLACK
6
CONTINUOUS
10
21.6308
20
-36.0255
11
21.6232
21
-36.0271
0
LINE
8
BLACK
6
CONTINUOUS
10
21.6232
20
-36.0271
11
21.6204
21
-36.0272
0
LINE
8
BLACK
6
CONTINUOUS
10
21.6204
20
-36.0272
11
21.6177
21
-36.0277
0
LINE
8
BLACK
6
CONTINUOUS
10
21.6177
20
-36.0277
11
21.0094
21
-36.0745
0
LINE
8
BLACK
6
CONTINUOUS
10
21.0094
20
-36.0745
11
21.0066
21
-36.075
0
LINE
8
BLACK
6
CONTINUOUS
10
21.0066
20
-36.075
11
-21.0066
21
-36.075
0
LINE
8
BLACK
6
CONTINUOUS
10
-21.0066
20
-36.075
11
-21.0103
21
-36.0743
0
LINE
8
BLACK
6
CONTINUOUS
10
-21.0103
20
-36.0743
11
-21.8119
21
-35.9929
0
LINE
8
BLACK
6
CONTINUOUS
10
-21.8119
20
-35.9929
11
-21.8196
21
-35.9917
0
LINE
8
BLACK
6
CONTINUOUS
10
-21.8196
20
-35.9917
11
-21.8231
21
-35.9906
0
LINE
8
BLACK
6
CONTINUOUS
10
-21.8231
20
-35.9906
11
-21.8267
21
-35.9899
0
LINE
8
BLACK
6
CONTINUOUS
10
-21.8267
20
-35.9899
11
-22.5982
21
-35.7481
0
LINE
8
BLACK
6
CONTINUOUS
10
-22.5982
20
-35.7481
11
-22.6056
21
-35.7454
0
LINE
8
BLACK
6
CONTINUOUS
10
-22.6056
20
-35.7454
11
-22.6088
21
-35.7436
0
LINE
8
BLACK
6
CONTINUOUS
10
-22.6088
20
-35.7436
11
-22.6121
21
-35.7421
0
LINE
8
BLACK
6
CONTINUOUS
10
-22.6121
20
-35.7421
11
-23.3192
21
-35.3502
0
LINE
8
BLACK
6
CONTINUOUS
10
-23.3192
20
-35.3502
11
-23.3259
21
-35.346
0
LINE
8
BLACK
6
CONTINUOUS
10
-23.3259
20
-35.346
11
-23.3286
21
-35.3436
0
LINE
8
BLACK
6
CONTINUOUS
10
-23.3286
20
-35.3436
11
-23.3317
21
-35.3415
0
LINE
8
BLACK
6
CONTINUOUS
10
-23.3317
20
-35.3415
11
-23.9455
21
-34.8154
0
LINE
8
BLACK
6
CONTINUOUS
10
-23.9455
20
-34.8154
11
-23.9512
21
-34.81
0
LINE
8
BLACK
6
CONTINUOUS
10
-23.9512
20
-34.81
11
-23.9534
21
-34.8071
0
LINE
8
BLACK
6
CONTINUOUS
10
-23.9534
20
-34.8071
11
-23.9559
21
-34.8044
0
LINE
8
BLACK
6
CONTINUOUS
10
-23.9559
20
-34.8044
11
-24.4515
21
-34.1656
0
LINE
8
BLACK
6
CONTINUOUS
10
-24.4515
20
-34.1656
11
-24.4559
21
-34.1592
0
LINE
8
BLACK
6
CONTINUOUS
10
-24.4559
20
-34.1592
11
-24.4575
21
-34.1559
0
LINE
8
BLACK
6
CONTINUOUS
10
-24.4575
20
-34.1559
11
-24.4595
21
-34.1528
0
LINE
8
BLACK
6
CONTINUOUS
10
-24.4595
20
-34.1528
11
-24.8164
21
-33.4274
0
LINE
8
BLACK
6
CONTINUOUS
10
-24.8164
20
-33.4274
11
-24.8195
21
-33.4202
0
LINE
8
BLACK
6
CONTINUOUS
10
-24.8195
20
-33.4202
11
-24.8204
21
-33.4166
0
LINE
8
BLACK
6
CONTINUOUS
10
-24.8204
20
-33.4166
11
-24.8217
21
-33.4132
0
LINE
8
BLACK
6
CONTINUOUS
10
-24.8217
20
-33.4132
11
-25.0255
21
-32.6308
0
LINE
8
BLACK
6
CONTINUOUS
10
-25.0255
20
-32.6308
11
-25.0271
21
-32.6232
0
LINE
8
BLACK
6
CONTINUOUS
10
-25.0271
20
-32.6232
11
-25.0272
21
-32.6204
0
LINE
8
BLACK
6
CONTINUOUS
10
-25.0272
20
-32.6204
11
-25.0277
21
-32.6177
0
LINE
8
BLACK
6
CONTINUOUS
10
-25.0277
20
-32.6177
11
-25.0745
21
-32.0094
0
LINE
8
BLACK
6
CONTINUOUS
10
-25.0745
20
-32.0094
11
-25.075
21
-32.0066
0
LINE
8
BLACK
6
CONTINUOUS
10
-25.075
20
-32.0066
11
-25.075
21
-4.99344
0
LINE
8
BLACK
6
CONTINUOUS
10
-25.075
20
-4.99344
11
-25.0743
21
-4.9897
0
LINE
8
BLACK
6
CONTINUOUS
10
-25.0743
20
-4.9897
11
-24.9929
21
-4.18811
0
LINE
8
BLACK
6
CONTINUOUS
10
-24.9929
20
-4.18811
11
-24.9917
21
-4.18035
0
LINE
8
BLACK
6
CONTINUOUS
10
-24.9917
20
-4.18035
11
-24.9906
21
-4.17685
0
LINE
8
BLACK
6
CONTINUOUS
10
-24.9906
20
-4.17685
11
-24.9899
21
-4.17326
0
LINE
8
BLACK
6
CONTINUOUS
10
-24.9899
20
-4.17326
11
-24.7481
21
-3.4018
0
LINE
8
BLACK
6
CONTINUOUS
10
-24.7481
20
-3.4018
11
-24.7454
21
-3.39444
0
LINE
8
BLACK
6
CONTINUOUS
10
-24.7454
20
-3.39444
11
-24.7436
21
-3.39124
0
LINE
8
BLACK
6
CONTINUOUS
10
-24.7436
20
-3.39124
11
-24.7421
21
-3.38787
0
LINE
8
BLACK
6
CONTINUOUS
10
-24.7421
20
-3.38787
11
-24.3502
21
-2.68078
0
LINE
8
BLACK
6
CONTINUOUS
10
-24.3502
20
-2.68078
11
-24.346
21
-2.67413
0
LINE
8
BLACK
6
CONTINUOUS
10
-24.346
20
-2.67413
11
-24.3436
21
-2.67135
0
LINE
8
BLACK
6
CONTINUOUS
10
-24.3436
20
-2.67135
11
-24.3415
21
-2.66834
0
LINE
8
BLACK
6
CONTINUOUS
10
-24.3415
20
-2.66834
11
-23.8154
21
-2.0545
0
LINE
8
BLACK
6
CONTINUOUS
10
-23.8154
20
-2.0545
11
-23.81
21
-2.04882
0
LINE
8
BLACK
6
CONTINUOUS
10
-23.81
20
-2.04882
11
-23.8071
21
-2.04658
0
LINE
8
BLACK
6
CONTINUOUS
10
-23.8071
20
-2.04658
11
-23.8044
21
-2.04405
0
LINE
8
BLACK
6
CONTINUOUS
10
-23.8044
20
-2.04405
11
-23.1656
21
-1.54855
0
LINE
8
BLACK
6
CONTINUOUS
10
-23.1656
20
-1.54855
11
-23.1592
21
-1.54407
0
LINE
8
BLACK
6
CONTINUOUS
10
-23.1592
20
-1.54407
11
-23.1559
21
-1.54246
0
LINE
8
BLACK
6
CONTINUOUS
10
-23.1559
20
-1.54246
11
-23.1528
21
-1.54051
0
LINE
8
BLACK
6
CONTINUOUS
10
-23.1528
20
-1.54051
11
-22.4274
21
-1.18358
0
LINE
8
BLACK
6
CONTINUOUS
10
-22.4274
20
-1.18358
11
-22.4202
21
-1.18049
0
LINE
8
BLACK
6
CONTINUOUS
10
-22.4202
20
-1.18049
11
-22.4166
21
-1.17957
0
LINE
8
BLACK
6
CONTINUOUS
10
-22.4166
20
-1.17957
11
-22.4132
21
-1.17829
0
LINE
8
BLACK
6
CONTINUOUS
10
-22.4132
20
-1.17829
11
-21.6308
21
-0.974508
0
LINE
8
BLACK
6
CONTINUOUS
10
-21.6308
20
-0.974508
11
-21.6232
21
-0.972929
0
LINE
8
BLACK
6
CONTINUOUS
10
-21.6232
20
-0.972929
11
-21.6204
21
-0.972795
0
LINE
8
BLACK
6
CONTINUOUS
10
-21.6204
20
-0.972795
11
-21.6177
21
-0.972307
0
LINE
8
BLACK
6
CONTINUOUS
10
-21.6177
20
-0.972307
11
-21.0094
21
-0.925502
0
LINE
8
BLACK
6
CONTINUOUS
10
-21.0094
20
-0.925502
11
-21.0066
21
-0.925
0
LINE
8
BLACK
6
CONTINUOUS
10
-21.0066
20
-0.925
11
21.0066
21
-0.925
0
LINE
8
BLACK
6
CONTINUOUS
10
21.0066
20
-0.925
11
21.0103
21
-0.925661
0
LINE
8
BLACK
6
CONTINUOUS
10
-20.9971
20
-1.075
11
-21.5995
21
-1.12135
0
LINE
8
BLACK
6
CONTINUOUS
10
-21.5995
20
-1.12135
11
-22.368
21
-1.32153
0
LINE
8
BLACK
6
CONTINUOUS
10
-22.368
20
-1.32153
11
-23.0797
21
-1.67174
0
LINE
8
BLACK
6
CONTINUOUS
10
-23.0797
20
-1.67174
11
-23.7065
21
-2.15791
0
LINE
8
BLACK
6
CONTINUOUS
10
-23.7065
20
-2.15791
11
-24.2227
21
-2.76017
0
LINE
8
BLACK
6
CONTINUOUS
10
-24.2227
20
-2.76017
11
-24.6073
21
-3.45393
0
LINE
8
BLACK
6
CONTINUOUS
10
-24.6073
20
-3.45393
11
-24.8445
21
-4.21085
0
LINE
8
BLACK
6
CONTINUOUS
10
-24.8445
20
-4.21085
11
-24.925
21
-5.0038
0
LINE
8
BLACK
6
CONTINUOUS
10
-24.925
20
-5.0038
11
-24.925
21
-31.9971
0
LINE
8
BLACK
6
CONTINUOUS
10
-24.925
20
-31.9971
11
-24.8786
21
-32.5995
0
LINE
8
BLACK
6
CONTINUOUS
10
-24.8786
20
-32.5995
11
-24.6785
21
-33.368
0
LINE
8
BLACK
6
CONTINUOUS
10
-24.6785
20
-33.368
11
-24.3283
21
-34.0797
0
LINE
8
BLACK
6
CONTINUOUS
10
-24.3283
20
-34.0797
11
-23.8421
21
-34.7065
0
LINE
8
BLACK
6
CONTINUOUS
10
-23.8421
20
-34.7065
11
-23.2398
21
-35.2227
0
LINE
8
BLACK
6
CONTINUOUS
10
-23.2398
20
-35.2227
11
-22.5461
21
-35.6073
0
LINE
8
BLACK
6
CONTINUOUS
10
-22.5461
20
-35.6073
11
-21.7892
21
-35.8445
0
LINE
8
BLACK
6
CONTINUOUS
10
-21.7892
20
-35.8445
11
-20.9962
21
-35.925
0
LINE
8
BLACK
6
CONTINUOUS
10
-20.9962
20
-35.925
11
20.9971
21
-35.925
0
LINE
8
BLACK
6
CONTINUOUS
10
20.9971
20
-35.925
11
21.5995
21
-35.8786
0
LINE
8
BLACK
6
CONTINUOUS
10
21.5995
20
-35.8786
11
22.368
21
-35.6785
0
LINE
8
BLACK
6
CONTINUOUS
10
22.368
20
-35.6785
11
23.0797
21
-35.3283
0
LINE
8
BLACK
6
CONTINUOUS
10
23.0797
20
-35.3283
11
23.7065
21
-34.8421
0
LINE
8
BLACK
6
CONTINUOUS
10
23.7065
20
-34.8421
11
24.2227
21
-34.2398
0
LINE
8
BLACK
6
CONTINUOUS
10
24.2227
20
-34.2398
11
24.6073
21
-33.5461
0
LINE
8
BLACK
6
CONTINUOUS
10
24.6073
20
-33.5461
11
24.8445
21
-32.7892
0
LINE
8
BLACK
6
CONTINUOUS
10
24.8445
20
-32.7892
11
24.925
21
-31.9962
0
LINE
8
BLACK
6
CONTINUOUS
10
24.925
20
-31.9962
11
24.925
21
-5.00288
0
LINE
8
BLACK
6
CONTINUOUS
10
24.925
20
-5.00288
11
24.8786
21
-4.40048
0
LINE
8
BLACK
6
CONTINUOUS
10
24.8786
20
-4.40048
11
24.6785
21
-3.63199
0
LINE
8
BLACK
6
CONTINUOUS
10
24.6785
20
-3.63199
11
24.3283
21
-2.92027
0
LINE
8
BLACK
6
CONTINUOUS
10
24.3283
20
-2.92027
11
23.8421
21
-2.29351
0
LINE
8
BLACK
6
CONTINUOUS
10
23.8421
20
-2.29351
11
23.2398
21
-1.77731
0
LINE
8
BLACK
6
CONTINUOUS
10
23.2398
20
-1.77731
11
22.5461
21
-1.39275
0
LINE
8
BLACK
6
CONTINUOUS
10
22.5461
20
-1.39275
11
21.7892
21
-1.15555
0
LINE
8
BLACK
6
CONTINUOUS
10
21.7892
20
-1.15555
11
20.9962
21
-1.075
0
LINE
8
BLACK
6
CONTINUOUS
10
20.9962
20
-1.075
11
-20.9971
21
-1.075
0
LINE
8
BLACK
6
CONTINUOUS
10
4.00656
20
36.075
11
4.01322
21
36.075
0
LINE
8
BLACK
6
CONTINUOUS
10
4.01322
20
36.075
11
4.01948
21
36.0727
0
LINE
8
BLACK
6
CONTINUOUS
10
4.01948
20
36.0727
11
4.02605
21
36.0716
0
LINE
8
BLACK
6
CONTINUOUS
10
4.02605
20
36.0716
11
4.03182
21
36.0682
0
LINE
8
BLACK
6
CONTINUOUS
10
4.03182
20
36.0682
11
4.03808
21
36.066
0
LINE
8
BLACK
6
CONTINUOUS
10
4.03808
20
36.066
11
4.04318
21
36.0617
0
LINE
8
BLACK
6
CONTINUOUS
10
4.04318
20
36.0617
11
4.04895
21
36.0583
0
LINE
8
BLACK
6
CONTINUOUS
10
4.04895
20
36.0583
11
4.05323
21
36.0532
0
LINE
8
BLACK
6
CONTINUOUS
10
4.05323
20
36.0532
11
4.05834
21
36.049
0
LINE
8
BLACK
6
CONTINUOUS
10
4.05834
20
36.049
11
4.06167
21
36.0432
0
LINE
8
BLACK
6
CONTINUOUS
10
4.06167
20
36.0432
11
4.06595
21
36.0381
0
LINE
8
BLACK
6
CONTINUOUS
10
4.06595
20
36.0381
11
4.06823
21
36.0318
0
LINE
8
BLACK
6
CONTINUOUS
10
4.06823
20
36.0318
11
4.07156
21
36.026
0
LINE
8
BLACK
6
CONTINUOUS
10
4.07156
20
36.026
11
4.07272
21
36.0195
0
LINE
8
BLACK
6
CONTINUOUS
10
4.07272
20
36.0195
11
4.075
21
36.0132
0
LINE
8
BLACK
6
CONTINUOUS
10
4.075
20
36.0132
11
4.075
21
36.0066
0
LINE
8
BLACK
6
CONTINUOUS
10
4.075
20
36.0066
11
4.075
21
36.0066
0
LINE
8
BLACK
6
CONTINUOUS
10
4.075
20
36.0066
11
4.075
21
27.075
0
LINE
8
BLACK
6
CONTINUOUS
10
4.075
20
27.075
11
16.925
21
27.075
0
LINE
8
BLACK
6
CONTINUOUS
10
16.925
20
27.075
11
16.925
21
32.0066
0
LINE
8
BLACK
6
CONTINUOUS
10
16.925
20
32.0066
11
16.9257
21
32.0103
0
LINE
8
BLACK
6
CONTINUOUS
10
16.9257
20
32.0103
11
17.0071
21
32.8119
0
LINE
8
BLACK
6
CONTINUOUS
10
17.0071
20
32.8119
11
17.0083
21
32.8196
0
LINE
8
BLACK
6
CONTINUOUS
10
17.0083
20
32.8196
11
17.0094
21
32.8231
0
LINE
8
BLACK
6
CONTINUOUS
10
17.0094
20
32.8231
11
17.0101
21
32.8267
0
LINE
8
BLACK
6
CONTINUOUS
10
17.0101
20
32.8267
11
17.2519
21
33.5982
0
LINE
8
BLACK
6
CONTINUOUS
10
17.2519
20
33.5982
11
17.2546
21
33.6056
0
LINE
8
BLACK
6
CONTINUOUS
10
17.2546
20
33.6056
11
17.2564
21
33.6088
0
LINE
8
BLACK
6
CONTINUOUS
10
17.2564
20
33.6088
11
17.2579
21
33.6121
0
LINE
8
BLACK
6
CONTINUOUS
10
17.2579
20
33.6121
11
17.6498
21
34.3192
0
LINE
8
BLACK
6
CONTINUOUS
10
17.6498
20
34.3192
11
17.654
21
34.3259
0
LINE
8
BLACK
6
CONTINUOUS
10
17.654
20
34.3259
11
17.6564
21
34.3287
0
LINE
8
BLACK
6
CONTINUOUS
10
17.6564
20
34.3287
11
17.6585
21
34.3317
0
LINE
8
BLACK
6
CONTINUOUS
10
17.6585
20
34.3317
11
18.1846
21
34.9455
0
LINE
8
BLACK
6
CONTINUOUS
10
18.1846
20
34.9455
11
18.19
21
34.9512
0
LINE
8
BLACK
6
CONTINUOUS
10
18.19
20
34.9512
11
18.1929
21
34.9534
0
LINE
8
BLACK
6
CONTINUOUS
10
18.1929
20
34.9534
11
18.1956
21
34.9559
0
LINE
8
BLACK
6
CONTINUOUS
10
18.1956
20
34.9559
11
18.8344
21
35.4515
0
LINE
8
BLACK
6
CONTINUOUS
10
18.8344
20
35.4515
11
18.8408
21
35.4559
0
LINE
8
BLACK
6
CONTINUOUS
10
18.8408
20
35.4559
11
18.8441
21
35.4575
0
LINE
8
BLACK
6
CONTINUOUS
10
18.8441
20
35.4575
11
18.8472
21
35.4595
0
LINE
8
BLACK
6
CONTINUOUS
10
18.8472
20
35.4595
11
19.5726
21
35.8164
0
LINE
8
BLACK
6
CONTINUOUS
10
19.5726
20
35.8164
11
19.5798
21
35.8195
0
LINE
8
BLACK
6
CONTINUOUS
10
19.5798
20
35.8195
11
19.5834
21
35.8204
0
LINE
8
BLACK
6
CONTINUOUS
10
19.5834
20
35.8204
11
19.5868
21
35.8217
0
LINE
8
BLACK
6
CONTINUOUS
10
19.5868
20
35.8217
11
20.3692
21
36.0255
0
LINE
8
BLACK
6
CONTINUOUS
10
20.3692
20
36.0255
11
20.3768
21
36.0271
0
LINE
8
BLACK
6
CONTINUOUS
10
20.3768
20
36.0271
11
20.3796
21
36.0272
0
LINE
8
BLACK
6
CONTINUOUS
10
20.3796
20
36.0272
11
20.3823
21
36.0277
0
LINE
8
BLACK
6
CONTINUOUS
10
20.3823
20
36.0277
11
20.9942
21
36.0748
0
LINE
8
BLACK
6
CONTINUOUS
10
20.9942
20
36.0748
11
21.0021
21
36.075
0
LINE
8
BLACK
6
CONTINUOUS
10
21.0021
20
36.075
11
21.0048
21
36.0746
0
LINE
8
BLACK
6
CONTINUOUS
10
21.0048
20
36.0746
11
21.0076
21
36.0746
0
LINE
8
BLACK
6
CONTINUOUS
10
21.0076
20
36.0746
11
21.8119
21
35.9929
0
LINE
8
BLACK
6
CONTINUOUS
10
21.8119
20
35.9929
11
21.8196
21
35.9917
0
LINE
8
BLACK
6
CONTINUOUS
10
21.8196
20
35.9917
11
21.8231
21
35.9906
0
LINE
8
BLACK
6
CONTINUOUS
10
21.8231
20
35.9906
11
21.8267
21
35.9899
0
LINE
8
BLACK
6
CONTINUOUS
10
21.8267
20
35.9899
11
22.5982
21
35.7481
0
LINE
8
BLACK
6
CONTINUOUS
10
22.5982
20
35.7481
11
22.6056
21
35.7454
0
LINE
8
BLACK
6
CONTINUOUS
10
22.6056
20
35.7454
11
22.6088
21
35.7436
0
LINE
8
BLACK
6
CONTINUOUS
10
22.6088
20
35.7436
11
22.6121
21
35.7421
0
LINE
8
BLACK
6
CONTINUOUS
10
22.6121
20
35.7421
11
23.3192
21
35.3502
0
LINE
8
BLACK
6
CONTINUOUS
10
23.3192
20
35.3502
11
23.3259
21
35.346
0
LINE
8
BLACK
6
CONTINUOUS
10
23.3259
20
35.346
11
23.3287
21
35.3436
0
LINE
8
BLACK
6
CONTINUOUS
10
23.3287
20
35.3436
11
23.3317
21
35.3415
0
LINE
8
BLACK
6
CONTINUOUS
10
23.3317
20
35.3415
11
23.9455
21
34.8154
0
LINE
8
BLACK
6
CONTINUOUS
10
23.9455
20
34.8154
11
23.9512
21
34.81
0
LINE
8
BLACK
6
CONTINUOUS
10
23.9512
20
34.81
11
23.9534
21
34.8071
0
LINE
8
BLACK
6
CONTINUOUS
10
23.9534
20
34.8071
11
23.9559
21
34.8044
0
LINE
8
BLACK
6
CONTINUOUS
10
23.9559
20
34.8044
11
24.4515
21
34.1656
0
LINE
8
BLACK
6
CONTINUOUS
10
24.4515
20
34.1656
11
24.4559
21
34.1592
0
LINE
8
BLACK
6
CONTINUOUS
10
24.4559
20
34.1592
11
24.4575
21
34.1559
0
LINE
8
BLACK
6
CONTINUOUS
10
24.4575
20
34.1559
11
24.4595
21
34.1528
0
LINE
8
BLACK
6
CONTINUOUS
10
24.4595
20
34.1528
11
24.8164
21
33.4274
0
LINE
8
BLACK
6
CONTINUOUS
10
24.8164
20
33.4274
11
24.8195
21
33.4202
0
LINE
8
BLACK
6
CONTINUOUS
10
24.8195
20
33.4202
11
24.8204
21
33.4166
0
LINE
8
BLACK
6
CONTINUOUS
10
24.8204
20
33.4166
11
24.8217
21
33.4132
0
LINE
8
BLACK
6
CONTINUOUS
10
24.8217
20
33.4132
11
25.0255
21
32.6308
0
LINE
8
BLACK
6
CONTINUOUS
10
25.0255
20
32.6308
11
25.0271
21
32.6232
0
LINE
8
BLACK
6
CONTINUOUS
10
25.0271
20
32.6232
11
25.0272
21
32.6204
0
LINE
8
BLACK
6
CONTINUOUS
10
25.0272
20
32.6204
11
25.0277
21
32.6177
0
LINE
8
BLACK
6
CONTINUOUS
10
25.0277
20
32.6177
11
25.0745
21
32.0094
0
LINE
8
BLACK
6
CONTINUOUS
10
25.0745
20
32.0094
11
25.075
21
32.0066
0
LINE
8
BLACK
6
CONTINUOUS
10
25.075
20
32.0066
11
25.075
21
4.99344
0
LINE
8
BLACK
6
CONTINUOUS
10
25.075
20
4.99344
11
25.0743
21
4.9897
0
LINE
8
BLACK
6
CONTINUOUS
10
25.0743
20
4.9897
11
24.9929
21
4.18811
0
LINE
8
BLACK
6
CONTINUOUS
10
24.9929
20
4.18811
11
24.9917
21
4.18035
0
LINE
8
BLACK
6
CONTINUOUS
10
24.9917
20
4.18035
11
24.9906
21
4.17685
0
LINE
8
BLACK
6
CONTINUOUS
10
24.9906
20
4.17685
11
24.9899
21
4.17326
0
LINE
8
BLACK
6
CONTINUOUS
10
24.9899
20
4.17326
11
24.7481
21
3.4018
0
LINE
8
BLACK
6
CONTINUOUS
10
24.7481
20
3.4018
11
24.7454
21
3.39445
0
LINE
8
BLACK
6
CONTINUOUS
10
24.7454
20
3.39445
11
24.7436
21
3.39125
0
LINE
8
BLACK
6
CONTINUOUS
10
24.7436
20
3.39125
11
24.7421
21
3.38787
0
LINE
8
BLACK
6
CONTINUOUS
10
24.7421
20
3.38787
11
24.3502
21
2.68078
0
LINE
8
BLACK
6
CONTINUOUS
10
24.3502
20
2.68078
11
24.346
21
2.67413
0
LINE
8
BLACK
6
CONTINUOUS
10
24.346
20
2.67413
11
24.3436
21
2.67135
0
LINE
8
BLACK
6
CONTINUOUS
10
24.3436
20
2.67135
11
24.3415
21
2.66834
0
LINE
8
BLACK
6
CONTINUOUS
10
24.3415
20
2.66834
11
23.8154
21
2.0545
0
LINE
8
BLACK
6
CONTINUOUS
10
23.8154
20
2.0545
11
23.81
21
2.04882
0
LINE
8
BLACK
6
CONTINUOUS
10
23.81
20
2.04882
11
23.8071
21
2.04658
0
LINE
8
BLACK
6
CONTINUOUS
10
23.8071
20
2.04658
11
23.8044
21
2.04405
0
LINE
8
BLACK
6
CONTINUOUS
10
23.8044
20
2.04405
11
23.1656
21
1.54855
0
LINE
8
BLACK
6
CONTINUOUS
10
23.1656
20
1.54855
11
23.1592
21
1.54407
0
LINE
8
BLACK
6
CONTINUOUS
10
23.1592
20
1.54407
11
23.1559
21
1.54246
0
LINE
8
BLACK
6
CONTINUOUS
10
23.1559
20
1.54246
11
23.1528
21
1.54051
0
LINE
8
BLACK
6
CONTINUOUS
10
23.1528
20
1.54051
11
22.4274
21
1.18358
0
LINE
8
BLACK
6
CONTINUOUS
10
22.4274
20
1.18358
11
22.4202
21
1.18049
0
LINE
8
BLACK
6
CONTINUOUS
10
22.4202
20
1.18049
11
22.4166
21
1.17957
0
LINE
8
BLACK
6
CONTINUOUS
10
22.4166
20
1.17957
11
22.4132
21
1.17829
0
LINE
8
BLACK
6
CONTINUOUS
10
22.4132
20
1.17829
11
21.6308
21
0.974508
0
LINE
8
BLACK
6
CONTINUOUS
10
21.6308
20
0.974508
11
21.6232
21
0.972929
0
LINE
8
BLACK
6
CONTINUOUS
10
21.6232
20
0.972929
11
21.6204
21
0.972794
0
LINE
8
BLACK
6
CONTINUOUS
10
21.6204
20
0.972794
11
21.6177
21
0.972307
0
LINE
8
BLACK
6
CONTINUOUS
10
21.6177
20
0.972307
11
21.0094
21
0.925502
0
LINE
8
BLACK
6
CONTINUOUS
10
21.0094
20
0.925502
11
21.0066
21
0.925
0
LINE
8
BLACK
6
CONTINUOUS
10
21.0066
20
0.925
11
-21.0066
21
0.925
0
LINE
8
BLACK
6
CONTINUOUS
10
-21.0066
20
0.925
11
-21.0103
21
0.925661
0
LINE
8
BLACK
6
CONTINUOUS
10
-21.0103
20
0.925661
11
-21.8119
21
1.00708
0
LINE
8
BLACK
6
CONTINUOUS
10
-21.8119
20
1.00708
11
-21.8196
21
1.00828
0
LINE
8
BLACK
6
CONTINUOUS
10
-21.8196
20
1.00828
11
-21.8231
21
1.00939
0
LINE
8
BLACK
6
CONTINUOUS
10
-21.8231
20
1.00939
11
-21.8267
21
1.01013
0
LINE
8
BLACK
6
CONTINUOUS
10
-21.8267
20
1.01013
11
-22.5982
21
1.25189
0
LINE
8
BLACK
6
CONTINUOUS
10
-22.5982
20
1.25189
11
-22.6056
21
1.25463
0
LINE
8
BLACK
6
CONTINUOUS
10
-22.6056
20
1.25463
11
-22.6088
21
1.25641
0
LINE
8
BLACK
6
CONTINUOUS
10
-22.6088
20
1.25641
11
-22.6121
21
1.25786
0
LINE
8
BLACK
6
CONTINUOUS
10
-22.6121
20
1.25786
11
-23.3192
21
1.64981
0
LINE
8
BLACK
6
CONTINUOUS
10
-23.3192
20
1.64981
11
-23.3259
21
1.65397
0
LINE
8
BLACK
6
CONTINUOUS
10
-23.3259
20
1.65397
11
-23.3286
21
1.65636
0
LINE
8
BLACK
6
CONTINUOUS
10
-23.3286
20
1.65636
11
-23.3317
21
1.65846
0
LINE
8
BLACK
6
CONTINUOUS
10
-23.3317
20
1.65846
11
-23.9455
21
2.18458
0
LINE
8
BLACK
6
CONTINUOUS
10
-23.9455
20
2.18458
11
-23.9512
21
2.18999
0
LINE
8
BLACK
6
CONTINUOUS
10
-23.9512
20
2.18999
11
-23.9534
21
2.19289
0
LINE
8
BLACK
6
CONTINUOUS
10
-23.9534
20
2.19289
11
-23.9559
21
2.19555
0
LINE
8
BLACK
6
CONTINUOUS
10
-23.9559
20
2.19555
11
-24.4515
21
2.83435
0
LINE
8
BLACK
6
CONTINUOUS
10
-24.4515
20
2.83435
11
-24.4559
21
2.8408
0
LINE
8
BLACK
6
CONTINUOUS
10
-24.4559
20
2.8408
11
-24.4575
21
2.8441
0
LINE
8
BLACK
6
CONTINUOUS
10
-24.4575
20
2.8441
11
-24.4595
21
2.84721
0
LINE
8
BLACK
6
CONTINUOUS
10
-24.4595
20
2.84721
11
-24.8164
21
3.5726
0
LINE
8
BLACK
6
CONTINUOUS
10
-24.8164
20
3.5726
11
-24.8195
21
3.57981
0
LINE
8
BLACK
6
CONTINUOUS
10
-24.8195
20
3.57981
11
-24.8204
21
3.58337
0
LINE
8
BLACK
6
CONTINUOUS
10
-24.8204
20
3.58337
11
-24.8217
21
3.58681
0
LINE
8
BLACK
6
CONTINUOUS
10
-24.8217
20
3.58681
11
-25.0255
21
4.36915
0
LINE
8
BLACK
6
CONTINUOUS
10
-25.0255
20
4.36915
11
-25.0271
21
4.37684
0
LINE
8
BLACK
6
CONTINUOUS
10
-25.0271
20
4.37684
11
-25.0272
21
4.37959
0
LINE
8
BLACK
6
CONTINUOUS
10
-25.0272
20
4.37959
11
-25.0277
21
4.3823
0
LINE
8
BLACK
6
CONTINUOUS
10
-25.0277
20
4.3823
11
-25.0745
21
4.99061
0
LINE
8
BLACK
6
CONTINUOUS
10
-25.0745
20
4.99061
11
-25.075
21
4.99344
0
LINE
8
BLACK
6
CONTINUOUS
10
-25.075
20
4.99344
11
-25.075
21
32.0066
0
LINE
8
BLACK
6
CONTINUOUS
10
-25.075
20
32.0066
11
-25.0743
21
32.0103
0
LINE
8
BLACK
6
CONTINUOUS
10
-25.0743
20
32.0103
11
-24.9929
21
32.8119
0
LINE
8
BLACK
6
CONTINUOUS
10
-24.9929
20
32.8119
11
-24.9917
21
32.8196
0
LINE
8
BLACK
6
CONTINUOUS
10
-24.9917
20
32.8196
11
-24.9906
21
32.8231
0
LINE
8
BLACK
6
CONTINUOUS
10
-24.9906
20
32.8231
11
-24.9899
21
32.8267
0
LINE
8
BLACK
6
CONTINUOUS
10
-24.9899
20
32.8267
11
-24.7481
21
33.5982
0
LINE
8
BLACK
6
CONTINUOUS
10
-24.7481
20
33.5982
11
-24.7454
21
33.6056
0
LINE
8
BLACK
6
CONTINUOUS
10
-24.7454
20
33.6056
11
-24.7436
21
33.6088
0
LINE
8
BLACK
6
CONTINUOUS
10
-24.7436
20
33.6088
11
-24.7421
21
33.6121
0
LINE
8
BLACK
6
CONTINUOUS
10
-24.7421
20
33.6121
11
-24.3502
21
34.3192
0
LINE
8
BLACK
6
CONTINUOUS
10
-24.3502
20
34.3192
11
-24.346
21
34.3259
0
LINE
8
BLACK
6
CONTINUOUS
10
-24.346
20
34.3259
11
-24.3436
21
34.3287
0
LINE
8
BLACK
6
CONTINUOUS
10
-24.3436
20
34.3287
11
-24.3415
21
34.3317
0
LINE
8
BLACK
6
CONTINUOUS
10
-24.3415
20
34.3317
11
-23.8154
21
34.9455
0
LINE
8
BLACK
6
CONTINUOUS
10
-23.8154
20
34.9455
11
-23.81
21
34.9512
0
LINE
8
BLACK
6
CONTINUOUS
10
-23.81
20
34.9512
11
-23.8071
21
34.9534
0
LINE
8
BLACK
6
CONTINUOUS
10
-23.8071
20
34.9534
11
-23.8044
21
34.9559
0
LINE
8
BLACK
6
CONTINUOUS
10
-23.8044
20
34.9559
11
-23.1656
21
35.4515
0
LINE
8
BLACK
6
CONTINUOUS
10
-23.1656
20
35.4515
11
-23.1592
21
35.4559
0
LINE
8
BLACK
6
CONTINUOUS
10
-23.1592
20
35.4559
11
-23.1559
21
35.4575
0
LINE
8
BLACK
6
CONTINUOUS
10
-23.1559
20
35.4575
11
-23.1528
21
35.4595
0
LINE
8
BLACK
6
CONTINUOUS
10
-23.1528
20
35.4595
11
-22.4274
21
35.8164
0
LINE
8
BLACK
6
CONTINUOUS
10
-22.4274
20
35.8164
11
-22.4202
21
35.8195
0
LINE
8
BLACK
6
CONTINUOUS
10
-22.4202
20
35.8195
11
-22.4166
21
35.8204
0
LINE
8
BLACK
6
CONTINUOUS
10
-22.4166
20
35.8204
11
-22.4132
21
35.8217
0
LINE
8
BLACK
6
CONTINUOUS
10
-22.4132
20
35.8217
11
-21.6308
21
36.0255
0
LINE
8
BLACK
6
CONTINUOUS
10
-21.6308
20
36.0255
11
-21.6232
21
36.0271
0
LINE
8
BLACK
6
CONTINUOUS
10
-21.6232
20
36.0271
11
-21.6204
21
36.0272
0
LINE
8
BLACK
6
CONTINUOUS
10
-21.6204
20
36.0272
11
-21.6177
21
36.0277
0
LINE
8
BLACK
6
CONTINUOUS
10
-21.6177
20
36.0277
11
-21.0094
21
36.0745
0
LINE
8
BLACK
6
CONTINUOUS
10
-21.0094
20
36.0745
11
-21.0066
21
36.075
0
LINE
8
BLACK
6
CONTINUOUS
10
-21.0066
20
36.075
11
4.00656
21
36.075
0
LINE
8
BLACK
6
CONTINUOUS
10
4.00656
20
36.075
11
4.00656
21
36.075
0
LINE
8
BLACK
6
CONTINUOUS
10
-20.9971
20
35.925
11
-21.5995
21
35.8786
0
LINE
8
BLACK
6
CONTINUOUS
10
-21.5995
20
35.8786
11
-22.368
21
35.6785
0
LINE
8
BLACK
6
CONTINUOUS
10
-22.368
20
35.6785
11
-23.0797
21
35.3283
0
LINE
8
BLACK
6
CONTINUOUS
10
-23.0797
20
35.3283
11
-23.7065
21
34.8421
0
LINE
8
BLACK
6
CONTINUOUS
10
-23.7065
20
34.8421
11
-24.2227
21
34.2398
0
LINE
8
BLACK
6
CONTINUOUS
10
-24.2227
20
34.2398
11
-24.6073
21
33.5461
0
LINE
8
BLACK
6
CONTINUOUS
10
-24.6073
20
33.5461
11
-24.8445
21
32.7892
0
LINE
8
BLACK
6
CONTINUOUS
10
-24.8445
20
32.7892
11
-24.925
21
31.9962
0
LINE
8
BLACK
6
CONTINUOUS
10
-24.925
20
31.9962
11
-24.925
21
5.00288
0
LINE
8
BLACK
6
CONTINUOUS
10
-24.925
20
5.00288
11
-24.8786
21
4.40048
0
LINE
8
BLACK
6
CONTINUOUS
10
-24.8786
20
4.40048
11
-24.6785
21
3.63199
0
LINE
8
BLACK
6
CONTINUOUS
10
-24.6785
20
3.63199
11
-24.3283
21
2.92027
0
LINE
8
BLACK
6
CONTINUOUS
10
-24.3283
20
2.92027
11
-23.8421
21
2.29351
0
LINE
8
BLACK
6
CONTINUOUS
10
-23.8421
20
2.29351
11
-23.2398
21
1.7773
0
LINE
8
BLACK
6
CONTINUOUS
10
-23.2398
20
1.7773
11
-22.5461
21
1.39275
0
LINE
8
BLACK
6
CONTINUOUS
10
-22.5461
20
1.39275
11
-21.7892
21
1.15555
0
LINE
8
BLACK
6
CONTINUOUS
10
-21.7892
20
1.15555
11
-20.9962
21
1.075
0
LINE
8
BLACK
6
CONTINUOUS
10
-20.9962
20
1.075
11
20.9971
21
1.075
0
LINE
8
BLACK
6
CONTINUOUS
10
20.9971
20
1.075
11
21.5995
21
1.12135
0
LINE
8
BLACK
6
CONTINUOUS
10
21.5995
20
1.12135
11
22.368
21
1.32153
0
LINE
8
BLACK
6
CONTINUOUS
10
22.368
20
1.32153
11
23.0797
21
1.67174
0
LINE
8
BLACK
6
CONTINUOUS
10
23.0797
20
1.67174
11
23.7065
21
2.1579
0
LINE
8
BLACK
6
CONTINUOUS
10
23.7065
20
2.1579
11
24.2227
21
2.76017
0
LINE
8
BLACK
6
CONTINUOUS
10
24.2227
20
2.76017
11
24.6073
21
3.45393
0
LINE
8
BLACK
6
CONTINUOUS
10
24.6073
20
3.45393
11
24.8445
21
4.21085
0
LINE
8
BLACK
6
CONTINUOUS
10
24.8445
20
4.21085
11
24.925
21
5.00381
0
LINE
8
BLACK
6
CONTINUOUS
10
24.925
20
5.00381
11
24.925
21
31.9971
0
LINE
8
BLACK
6
CONTINUOUS
10
24.925
20
31.9971
11
24.8786
21
32.5995
0
LINE
8
BLACK
6
CONTINUOUS
10
24.8786
20
32.5995
11
24.6785
21
33.368
0
LINE
8
BLACK
6
CONTINUOUS
10
24.6785
20
33.368
11
24.3283
21
34.0797
0
LINE
8
BLACK
6
CONTINUOUS
10
24.3283
20
34.0797
11
23.8421
21
34.7065
0
LINE
8
BLACK
6
CONTINUOUS
10
23.8421
20
34.7065
11
23.2398
21
35.2227
0
LINE
8
BLACK
6
CONTINUOUS
10
23.2398
20
35.2227
11
22.5461
21
35.6073
0
LINE
8
BLACK
6
CONTINUOUS
10
22.5461
20
35.6073
11
21.7892
21
35.8445
0
LINE
8
BLACK
6
CONTINUOUS
10
21.7892
20
35.8445
11
20.9991
21
35.9247
0
LINE
8
BLACK
6
CONTINUOUS
10
20.9991
20
35.9247
11
20.4005
21
35.8786
0
LINE
8
BLACK
6
CONTINUOUS
10
20.4005
20
35.8786
11
19.632
21
35.6785
0
LINE
8
BLACK
6
CONTINUOUS
10
19.632
20
35.6785
11
18.9203
21
35.3283
0
LINE
8
BLACK
6
CONTINUOUS
10
18.9203
20
35.3283
11
18.2935
21
34.8421
0
LINE
8
BLACK
6
CONTINUOUS
10
18.2935
20
34.8421
11
17.7773
21
34.2398
0
LINE
8
BLACK
6
CONTINUOUS
10
17.7773
20
34.2398
11
17.3927
21
33.5461
0
LINE
8
BLACK
6
CONTINUOUS
10
17.3927
20
33.5461
11
17.1555
21
32.7892
0
LINE
8
BLACK
6
CONTINUOUS
10
17.1555
20
32.7892
11
17.075
21
31.9962
0
LINE
8
BLACK
6
CONTINUOUS
10
17.075
20
31.9962
11
17.075
21
26.9934
0
LINE
8
BLACK
6
CONTINUOUS
10
17.075
20
26.9934
11
17.075
21
26.9934
0
LINE
8
BLACK
6
CONTINUOUS
10
17.075
20
26.9934
11
17.075
21
26.9868
0
LINE
8
BLACK
6
CONTINUOUS
10
17.075
20
26.9868
11
17.0727
21
26.9805
0
LINE
8
BLACK
6
CONTINUOUS
10
17.0727
20
26.9805
11
17.0716
21
26.974
0
LINE
8
BLACK
6
CONTINUOUS
10
17.0716
20
26.974
11
17.0682
21
26.9682
0
LINE
8
BLACK
6
CONTINUOUS
10
17.0682
20
26.9682
11
17.066
21
26.9619
0
LINE
8
BLACK
6
CONTINUOUS
10
17.066
20
26.9619
11
17.0617
21
26.9568
0
LINE
8
BLACK
6
CONTINUOUS
10
17.0617
20
26.9568
11
17.0583
21
26.951
0
LINE
8
BLACK
6
CONTINUOUS
10
17.0583
20
26.951
11
17.0532
21
26.9468
0
LINE
8
BLACK
6
CONTINUOUS
10
17.0532
20
26.9468
11
17.049
21
26.9417
0
LINE
8
BLACK
6
CONTINUOUS
10
17.049
20
26.9417
11
17.0432
21
26.9383
0
LINE
8
BLACK
6
CONTINUOUS
10
17.0432
20
26.9383
11
17.0381
21
26.934
0
LINE
8
BLACK
6
CONTINUOUS
10
17.0381
20
26.934
11
17.0318
21
26.9318
0
LINE
8
BLACK
6
CONTINUOUS
10
17.0318
20
26.9318
11
17.026
21
26.9284
0
LINE
8
BLACK
6
CONTINUOUS
10
17.026
20
26.9284
11
17.0195
21
26.9273
0
LINE
8
BLACK
6
CONTINUOUS
10
17.0195
20
26.9273
11
17.0132
21
26.925
0
LINE
8
BLACK
6
CONTINUOUS
10
17.0132
20
26.925
11
17.0066
21
26.925
0
LINE
8
BLACK
6
CONTINUOUS
10
17.0066
20
26.925
11
17.0066
21
26.925
0
LINE
8
BLACK
6
CONTINUOUS
10
17.0066
20
26.925
11
3.99344
21
26.925
0
LINE
8
BLACK
6
CONTINUOUS
10
3.99344
20
26.925
11
3.99344
21
26.925
0
LINE
8
BLACK
6
CONTINUOUS
10
3.99344
20
26.925
11
3.98678
21
26.925
0
LINE
8
BLACK
6
CONTINUOUS
10
3.98678
20
26.925
11
3.98052
21
26.9273
0
LINE
8
BLACK
6
CONTINUOUS
10
3.98052
20
26.9273
11
3.97395
21
26.9284
0
LINE
8
BLACK
6
CONTINUOUS
10
3.97395
20
26.9284
11
3.96818
21
26.9318
0
LINE
8
BLACK
6
CONTINUOUS
10
3.96818
20
26.9318
11
3.96192
21
26.934
0
LINE
8
BLACK
6
CONTINUOUS
10
3.96192
20
26.934
11
3.95682
21
26.9383
0
LINE
8
BLACK
6
CONTINUOUS
10
3.95682
20
26.9383
11
3.95105
21
26.9417
0
LINE
8
BLACK
6
CONTINUOUS
10
3.95105
20
26.9417
11
3.94676
21
26.9468
0
LINE
8
BLACK
6
CONTINUOUS
10
3.94676
20
26.9468
11
3.94166
21
26.951
0
LINE
8
BLACK
6
CONTINUOUS
10
3.94166
20
26.951
11
3.93833
21
26.9568
0
LINE
8
BLACK
6
CONTINUOUS
10
3.93833
20
26.9568
11
3.93405
21
26.9619
0
LINE
8
BLACK
6
CONTINUOUS
10
3.93405
20
26.9619
11
3.93177
21
26.9682
0
LINE
8
BLACK
6
CONTINUOUS
10
3.93177
20
26.9682
11
3.92844
21
26.974
0
LINE
8
BLACK
6
CONTINUOUS
10
3.92844
20
26.974
11
3.92728
21
26.9805
0
LINE
8
BLACK
6
CONTINUOUS
10
3.92728
20
26.9805
11
3.925
21
26.9868
0
LINE
8
BLACK
6
CONTINUOUS
10
3.925
20
26.9868
11
3.925
21
26.9934
0
LINE
8
BLACK
6
CONTINUOUS
10
3.925
20
26.9934
11
3.925
21
26.9934
0
LINE
8
BLACK
6
CONTINUOUS
10
3.925
20
26.9934
11
3.925
21
35.925
0
LINE
8
BLACK
6
CONTINUOUS
10
3.925
20
35.925
11
-20.9971
21
35.925
  0
ENDSEC
  0
EOF
