G04 #@! TF.GenerationSoftware,KiCad,Pcbnew,5.0.0*
G04 #@! TF.CreationDate,2018-09-19T15:22:13-04:00*
G04 #@! TF.ProjectId,micromouse,6D6963726F6D6F7573652E6B69636164,rev?*
G04 #@! TF.SameCoordinates,PX8f0d180PY5f5e100*
G04 #@! TF.FileFunction,Legend,Top*
G04 #@! TF.FilePolarity,Positive*
%FSLAX46Y46*%
G04 Gerber Fmt 4.6, Leading zero omitted, Abs format (unit mm)*
G04 Created by KiCad (PCBNEW 5.0.0) date Wed Sep 19 15:22:13 2018*
%MOMM*%
%LPD*%
G01*
G04 APERTURE LIST*
%ADD10C,0.300000*%
%ADD11C,0.500000*%
%ADD12C,0.150000*%
%ADD13C,0.200000*%
%ADD14C,0.120000*%
%ADD15C,0.010000*%
G04 APERTURE END LIST*
D10*
X-35964286Y-14892857D02*
X-35892858Y-14964285D01*
X-35821429Y-15178571D01*
X-35821429Y-15321428D01*
X-35892858Y-15535714D01*
X-36035715Y-15678571D01*
X-36178572Y-15750000D01*
X-36464286Y-15821428D01*
X-36678572Y-15821428D01*
X-36964286Y-15750000D01*
X-37107143Y-15678571D01*
X-37250000Y-15535714D01*
X-37321429Y-15321428D01*
X-37321429Y-15178571D01*
X-37250000Y-14964285D01*
X-37178572Y-14892857D01*
X-35821429Y-14250000D02*
X-37321429Y-14250000D01*
X-37321429Y-13892857D01*
X-37250000Y-13678571D01*
X-37107143Y-13535714D01*
X-36964286Y-13464285D01*
X-36678572Y-13392857D01*
X-36464286Y-13392857D01*
X-36178572Y-13464285D01*
X-36035715Y-13535714D01*
X-35892858Y-13678571D01*
X-35821429Y-13892857D01*
X-35821429Y-14250000D01*
X-36821429Y-12107142D02*
X-35821429Y-12107142D01*
X-37392858Y-12464285D02*
X-36321429Y-12821428D01*
X-36321429Y-11892857D01*
X-37321429Y-11035714D02*
X-37321429Y-10892857D01*
X-37250000Y-10750000D01*
X-37178572Y-10678571D01*
X-37035715Y-10607142D01*
X-36750000Y-10535714D01*
X-36392858Y-10535714D01*
X-36107143Y-10607142D01*
X-35964286Y-10678571D01*
X-35892858Y-10750000D01*
X-35821429Y-10892857D01*
X-35821429Y-11035714D01*
X-35892858Y-11178571D01*
X-35964286Y-11250000D01*
X-36107143Y-11321428D01*
X-36392858Y-11392857D01*
X-36750000Y-11392857D01*
X-37035715Y-11321428D01*
X-37178572Y-11250000D01*
X-37250000Y-11178571D01*
X-37321429Y-11035714D01*
X-37321429Y-9178571D02*
X-37321429Y-9892857D01*
X-36607143Y-9964285D01*
X-36678572Y-9892857D01*
X-36750000Y-9750000D01*
X-36750000Y-9392857D01*
X-36678572Y-9250000D01*
X-36607143Y-9178571D01*
X-36464286Y-9107142D01*
X-36107143Y-9107142D01*
X-35964286Y-9178571D01*
X-35892858Y-9250000D01*
X-35821429Y-9392857D01*
X-35821429Y-9750000D01*
X-35892858Y-9892857D01*
X-35964286Y-9964285D01*
X-37178572Y-8535714D02*
X-37250000Y-8464285D01*
X-37321429Y-8321428D01*
X-37321429Y-7964285D01*
X-37250000Y-7821428D01*
X-37178572Y-7750000D01*
X-37035715Y-7678571D01*
X-36892858Y-7678571D01*
X-36678572Y-7750000D01*
X-35821429Y-8607142D01*
X-35821429Y-7678571D01*
X-36607143Y-6535714D02*
X-36535715Y-6321428D01*
X-36464286Y-6250000D01*
X-36321429Y-6178571D01*
X-36107143Y-6178571D01*
X-35964286Y-6250000D01*
X-35892858Y-6321428D01*
X-35821429Y-6464285D01*
X-35821429Y-7035714D01*
X-37321429Y-7035714D01*
X-37321429Y-6535714D01*
X-37250000Y-6392857D01*
X-37178572Y-6321428D01*
X-37035715Y-6250000D01*
X-36892858Y-6250000D01*
X-36750000Y-6321428D01*
X-36678572Y-6392857D01*
X-36607143Y-6535714D01*
X-36607143Y-7035714D01*
X6250000Y-43821428D02*
X6250000Y-44607142D01*
X6321428Y-44750000D01*
X6464285Y-44821428D01*
X6750000Y-44821428D01*
X6892857Y-44750000D01*
X6250000Y-43892857D02*
X6392857Y-43821428D01*
X6750000Y-43821428D01*
X6892857Y-43892857D01*
X6964285Y-44035714D01*
X6964285Y-44178571D01*
X6892857Y-44321428D01*
X6750000Y-44392857D01*
X6392857Y-44392857D01*
X6250000Y-44464285D01*
X5750000Y-44821428D02*
X5178571Y-44821428D01*
X5535714Y-45321428D02*
X5535714Y-44035714D01*
X5464285Y-43892857D01*
X5321428Y-43821428D01*
X5178571Y-43821428D01*
X4678571Y-43821428D02*
X4678571Y-44821428D01*
X4678571Y-44678571D02*
X4607142Y-44750000D01*
X4464285Y-44821428D01*
X4250000Y-44821428D01*
X4107142Y-44750000D01*
X4035714Y-44607142D01*
X4035714Y-43821428D01*
X4035714Y-44607142D02*
X3964285Y-44750000D01*
X3821428Y-44821428D01*
X3607142Y-44821428D01*
X3464285Y-44750000D01*
X3392857Y-44607142D01*
X3392857Y-43821428D01*
X2107142Y-43892857D02*
X2250000Y-43821428D01*
X2535714Y-43821428D01*
X2678571Y-43892857D01*
X2750000Y-44035714D01*
X2750000Y-44607142D01*
X2678571Y-44750000D01*
X2535714Y-44821428D01*
X2250000Y-44821428D01*
X2107142Y-44750000D01*
X2035714Y-44607142D01*
X2035714Y-44464285D01*
X2750000Y-44321428D01*
X750000Y-44821428D02*
X750000Y-43607142D01*
X821428Y-43464285D01*
X892857Y-43392857D01*
X1035714Y-43321428D01*
X1250000Y-43321428D01*
X1392857Y-43392857D01*
X750000Y-43892857D02*
X892857Y-43821428D01*
X1178571Y-43821428D01*
X1321428Y-43892857D01*
X1392857Y-43964285D01*
X1464285Y-44107142D01*
X1464285Y-44535714D01*
X1392857Y-44678571D01*
X1321428Y-44750000D01*
X1178571Y-44821428D01*
X892857Y-44821428D01*
X750000Y-44750000D01*
X-607143Y-43821428D02*
X-607143Y-44607142D01*
X-535715Y-44750000D01*
X-392858Y-44821428D01*
X-107143Y-44821428D01*
X35714Y-44750000D01*
X-607143Y-43892857D02*
X-464286Y-43821428D01*
X-107143Y-43821428D01*
X35714Y-43892857D01*
X107142Y-44035714D01*
X107142Y-44178571D01*
X35714Y-44321428D01*
X-107143Y-44392857D01*
X-464286Y-44392857D01*
X-607143Y-44464285D01*
X-1178572Y-45321428D02*
X-2107143Y-45321428D01*
X-1607143Y-44750000D01*
X-1821429Y-44750000D01*
X-1964286Y-44678571D01*
X-2035715Y-44607142D01*
X-2107143Y-44464285D01*
X-2107143Y-44107142D01*
X-2035715Y-43964285D01*
X-1964286Y-43892857D01*
X-1821429Y-43821428D01*
X-1392858Y-43821428D01*
X-1250000Y-43892857D01*
X-1178572Y-43964285D01*
X-2678572Y-45178571D02*
X-2750000Y-45250000D01*
X-2892858Y-45321428D01*
X-3250000Y-45321428D01*
X-3392858Y-45250000D01*
X-3464286Y-45178571D01*
X-3535715Y-45035714D01*
X-3535715Y-44892857D01*
X-3464286Y-44678571D01*
X-2607143Y-43821428D01*
X-3535715Y-43821428D01*
X-4392858Y-44678571D02*
X-4250000Y-44750000D01*
X-4178572Y-44821428D01*
X-4107143Y-44964285D01*
X-4107143Y-45035714D01*
X-4178572Y-45178571D01*
X-4250000Y-45250000D01*
X-4392858Y-45321428D01*
X-4678572Y-45321428D01*
X-4821429Y-45250000D01*
X-4892858Y-45178571D01*
X-4964286Y-45035714D01*
X-4964286Y-44964285D01*
X-4892858Y-44821428D01*
X-4821429Y-44750000D01*
X-4678572Y-44678571D01*
X-4392858Y-44678571D01*
X-4250000Y-44607142D01*
X-4178572Y-44535714D01*
X-4107143Y-44392857D01*
X-4107143Y-44107142D01*
X-4178572Y-43964285D01*
X-4250000Y-43892857D01*
X-4392858Y-43821428D01*
X-4678572Y-43821428D01*
X-4821429Y-43892857D01*
X-4892858Y-43964285D01*
X-4964286Y-44107142D01*
X-4964286Y-44392857D01*
X-4892858Y-44535714D01*
X-4821429Y-44607142D01*
X-4678572Y-44678571D01*
X4464285Y-34892857D02*
X3321428Y-34892857D01*
X1464285Y-35107142D02*
X964285Y-35107142D01*
X750000Y-34321428D02*
X1464285Y-34321428D01*
X1464285Y-35821428D01*
X750000Y-35821428D01*
X-821429Y-35821428D02*
X-1678572Y-35821428D01*
X-1250000Y-34321428D02*
X-1250000Y-35821428D01*
X-3321429Y-34892857D02*
X-4464286Y-34892857D01*
X-3892858Y-34321428D02*
X-3892858Y-35464285D01*
X-3964286Y34892858D02*
X-2821429Y34892858D01*
X-964286Y35107143D02*
X-464286Y35107143D01*
X-250000Y34321429D02*
X-964286Y34321429D01*
X-964286Y35821429D01*
X-250000Y35821429D01*
X1321428Y35821429D02*
X2178571Y35821429D01*
X1750000Y34321429D02*
X1750000Y35821429D01*
X3821428Y34892858D02*
X4964285Y34892858D01*
X4392857Y34321429D02*
X4392857Y35464286D01*
X-29892858Y-4464285D02*
X-29892858Y-3321428D01*
X-30107143Y-1464285D02*
X-30107143Y-964285D01*
X-29321429Y-750000D02*
X-29321429Y-1464285D01*
X-30821429Y-1464285D01*
X-30821429Y-750000D01*
X-30821429Y821429D02*
X-30821429Y1678572D01*
X-29321429Y1250000D02*
X-30821429Y1250000D01*
X-29892858Y3321429D02*
X-29892858Y4464286D01*
X-29321429Y3892858D02*
X-30464286Y3892858D01*
X29892857Y4464286D02*
X29892857Y3321429D01*
X30107142Y1464286D02*
X30107142Y964286D01*
X29321428Y750000D02*
X29321428Y1464286D01*
X30821428Y1464286D01*
X30821428Y750000D01*
X30821428Y-821428D02*
X30821428Y-1678571D01*
X29321428Y-1250000D02*
X30821428Y-1250000D01*
X29892857Y-3321428D02*
X29892857Y-4464285D01*
X29321428Y-3892857D02*
X30464285Y-3892857D01*
D11*
X-6214286Y23714286D02*
X-5785715Y23571429D01*
X-5642858Y23428572D01*
X-5500000Y23142858D01*
X-5500000Y22714286D01*
X-5642858Y22428572D01*
X-5785715Y22285715D01*
X-6071429Y22142858D01*
X-7214286Y22142858D01*
X-7214286Y25142858D01*
X-6214286Y25142858D01*
X-5928572Y25000000D01*
X-5785715Y24857143D01*
X-5642858Y24571429D01*
X-5642858Y24285715D01*
X-5785715Y24000000D01*
X-5928572Y23857143D01*
X-6214286Y23714286D01*
X-7214286Y23714286D01*
X-2928572Y22142858D02*
X-2928572Y23714286D01*
X-3071429Y24000000D01*
X-3357143Y24142858D01*
X-3928572Y24142858D01*
X-4214286Y24000000D01*
X-2928572Y22285715D02*
X-3214286Y22142858D01*
X-3928572Y22142858D01*
X-4214286Y22285715D01*
X-4357143Y22571429D01*
X-4357143Y22857143D01*
X-4214286Y23142858D01*
X-3928572Y23285715D01*
X-3214286Y23285715D01*
X-2928572Y23428572D01*
X-1928572Y24142858D02*
X-785715Y24142858D01*
X-1500000Y25142858D02*
X-1500000Y22571429D01*
X-1357143Y22285715D01*
X-1071429Y22142858D01*
X-785715Y22142858D01*
X-214286Y24142858D02*
X928571Y24142858D01*
X214285Y25142858D02*
X214285Y22571429D01*
X357142Y22285715D01*
X642857Y22142858D01*
X928571Y22142858D01*
X3071428Y22285715D02*
X2785714Y22142858D01*
X2214285Y22142858D01*
X1928571Y22285715D01*
X1785714Y22571429D01*
X1785714Y23714286D01*
X1928571Y24000000D01*
X2214285Y24142858D01*
X2785714Y24142858D01*
X3071428Y24000000D01*
X3214285Y23714286D01*
X3214285Y23428572D01*
X1785714Y23142858D01*
X4500000Y22142858D02*
X4500000Y24142858D01*
X4500000Y23571429D02*
X4642857Y23857143D01*
X4785714Y24000000D01*
X5071428Y24142858D01*
X5357142Y24142858D01*
X6071428Y24142858D02*
X6785714Y22142858D01*
X7500000Y24142858D02*
X6785714Y22142858D01*
X6500000Y21428572D01*
X6357142Y21285715D01*
X6071428Y21142858D01*
D10*
X29607142Y24928572D02*
X29607142Y26071429D01*
X28928571Y27892858D02*
X30071428Y27892858D01*
X29500000Y27321429D02*
X29500000Y28464286D01*
X30821428Y29464286D02*
X32321428Y29464286D01*
X32321428Y28892858D01*
X32250000Y28750000D01*
X32178571Y28678572D01*
X32035714Y28607143D01*
X31821428Y28607143D01*
X31678571Y28678572D01*
X31607142Y28750000D01*
X31535714Y28892858D01*
X31535714Y29464286D01*
X30821428Y27750000D02*
X30892857Y27892858D01*
X30964285Y27964286D01*
X31107142Y28035715D01*
X31535714Y28035715D01*
X31678571Y27964286D01*
X31750000Y27892858D01*
X31821428Y27750000D01*
X31821428Y27535715D01*
X31750000Y27392858D01*
X31678571Y27321429D01*
X31535714Y27250000D01*
X31107142Y27250000D01*
X30964285Y27321429D01*
X30892857Y27392858D01*
X30821428Y27535715D01*
X30821428Y27750000D01*
X31821428Y26750000D02*
X30821428Y26464286D01*
X31535714Y26178572D01*
X30821428Y25892858D01*
X31821428Y25607143D01*
X30892857Y24464286D02*
X30821428Y24607143D01*
X30821428Y24892858D01*
X30892857Y25035715D01*
X31035714Y25107143D01*
X31607142Y25107143D01*
X31750000Y25035715D01*
X31821428Y24892858D01*
X31821428Y24607143D01*
X31750000Y24464286D01*
X31607142Y24392858D01*
X31464285Y24392858D01*
X31321428Y25107143D01*
X30821428Y23750000D02*
X31821428Y23750000D01*
X31535714Y23750000D02*
X31678571Y23678572D01*
X31750000Y23607143D01*
X31821428Y23464286D01*
X31821428Y23321429D01*
D11*
X35000000Y56357143D02*
X35000000Y53357143D01*
X34000000Y55500000D01*
X33000000Y53357143D01*
X33000000Y56357143D01*
X31571428Y56357143D02*
X31571428Y54357143D01*
X31571428Y53357143D02*
X31714285Y53500000D01*
X31571428Y53642858D01*
X31428571Y53500000D01*
X31571428Y53357143D01*
X31571428Y53642858D01*
X28857142Y56214286D02*
X29142857Y56357143D01*
X29714285Y56357143D01*
X30000000Y56214286D01*
X30142857Y56071429D01*
X30285714Y55785715D01*
X30285714Y54928572D01*
X30142857Y54642858D01*
X30000000Y54500000D01*
X29714285Y54357143D01*
X29142857Y54357143D01*
X28857142Y54500000D01*
X27571428Y56357143D02*
X27571428Y54357143D01*
X27571428Y54928572D02*
X27428571Y54642858D01*
X27285714Y54500000D01*
X27000000Y54357143D01*
X26714285Y54357143D01*
X25285714Y56357143D02*
X25571428Y56214286D01*
X25714285Y56071429D01*
X25857142Y55785715D01*
X25857142Y54928572D01*
X25714285Y54642858D01*
X25571428Y54500000D01*
X25285714Y54357143D01*
X24857142Y54357143D01*
X24571428Y54500000D01*
X24428571Y54642858D01*
X24285714Y54928572D01*
X24285714Y55785715D01*
X24428571Y56071429D01*
X24571428Y56214286D01*
X24857142Y56357143D01*
X25285714Y56357143D01*
X23000000Y56357143D02*
X23000000Y54357143D01*
X23000000Y54642858D02*
X22857142Y54500000D01*
X22571428Y54357143D01*
X22142857Y54357143D01*
X21857142Y54500000D01*
X21714285Y54785715D01*
X21714285Y56357143D01*
X21714285Y54785715D02*
X21571428Y54500000D01*
X21285714Y54357143D01*
X20857142Y54357143D01*
X20571428Y54500000D01*
X20428571Y54785715D01*
X20428571Y56357143D01*
X18571428Y56357143D02*
X18857142Y56214286D01*
X19000000Y56071429D01*
X19142857Y55785715D01*
X19142857Y54928572D01*
X19000000Y54642858D01*
X18857142Y54500000D01*
X18571428Y54357143D01*
X18142857Y54357143D01*
X17857142Y54500000D01*
X17714285Y54642858D01*
X17571428Y54928572D01*
X17571428Y55785715D01*
X17714285Y56071429D01*
X17857142Y56214286D01*
X18142857Y56357143D01*
X18571428Y56357143D01*
X15000000Y54357143D02*
X15000000Y56357143D01*
X16285714Y54357143D02*
X16285714Y55928572D01*
X16142857Y56214286D01*
X15857142Y56357143D01*
X15428571Y56357143D01*
X15142857Y56214286D01*
X15000000Y56071429D01*
X13714285Y56214286D02*
X13428571Y56357143D01*
X12857142Y56357143D01*
X12571428Y56214286D01*
X12428571Y55928572D01*
X12428571Y55785715D01*
X12571428Y55500000D01*
X12857142Y55357143D01*
X13285714Y55357143D01*
X13571428Y55214286D01*
X13714285Y54928572D01*
X13714285Y54785715D01*
X13571428Y54500000D01*
X13285714Y54357143D01*
X12857142Y54357143D01*
X12571428Y54500000D01*
X10000000Y56214286D02*
X10285714Y56357143D01*
X10857142Y56357143D01*
X11142857Y56214286D01*
X11285714Y55928572D01*
X11285714Y54785715D01*
X11142857Y54500000D01*
X10857142Y54357143D01*
X10285714Y54357143D01*
X10000000Y54500000D01*
X9857142Y54785715D01*
X9857142Y55071429D01*
X11285714Y55357143D01*
X34785714Y61357143D02*
X36500000Y61357143D01*
X35642857Y61357143D02*
X35642857Y58357143D01*
X35928571Y58785715D01*
X36214285Y59071429D01*
X36500000Y59214286D01*
X31928571Y61357143D02*
X33642857Y61357143D01*
X32785714Y61357143D02*
X32785714Y58357143D01*
X33071428Y58785715D01*
X33357142Y59071429D01*
X33642857Y59214286D01*
X28500000Y58214286D02*
X31071428Y62071429D01*
X25928571Y61357143D02*
X27642857Y61357143D01*
X26785714Y61357143D02*
X26785714Y58357143D01*
X27071428Y58785715D01*
X27357142Y59071429D01*
X27642857Y59214286D01*
X24214285Y59642858D02*
X24500000Y59500000D01*
X24642857Y59357143D01*
X24785714Y59071429D01*
X24785714Y58928572D01*
X24642857Y58642858D01*
X24500000Y58500000D01*
X24214285Y58357143D01*
X23642857Y58357143D01*
X23357142Y58500000D01*
X23214285Y58642858D01*
X23071428Y58928572D01*
X23071428Y59071429D01*
X23214285Y59357143D01*
X23357142Y59500000D01*
X23642857Y59642858D01*
X24214285Y59642858D01*
X24500000Y59785715D01*
X24642857Y59928572D01*
X24785714Y60214286D01*
X24785714Y60785715D01*
X24642857Y61071429D01*
X24500000Y61214286D01*
X24214285Y61357143D01*
X23642857Y61357143D01*
X23357142Y61214286D01*
X23214285Y61071429D01*
X23071428Y60785715D01*
X23071428Y60214286D01*
X23214285Y59928572D01*
X23357142Y59785715D01*
X23642857Y59642858D01*
X19642857Y58214286D02*
X22214285Y62071429D01*
X18785714Y58642858D02*
X18642857Y58500000D01*
X18357142Y58357143D01*
X17642857Y58357143D01*
X17357142Y58500000D01*
X17214285Y58642858D01*
X17071428Y58928572D01*
X17071428Y59214286D01*
X17214285Y59642858D01*
X18928571Y61357143D01*
X17071428Y61357143D01*
X15214285Y58357143D02*
X14928571Y58357143D01*
X14642857Y58500000D01*
X14500000Y58642858D01*
X14357142Y58928572D01*
X14214285Y59500000D01*
X14214285Y60214286D01*
X14357142Y60785715D01*
X14500000Y61071429D01*
X14642857Y61214286D01*
X14928571Y61357143D01*
X15214285Y61357143D01*
X15500000Y61214286D01*
X15642857Y61071429D01*
X15785714Y60785715D01*
X15928571Y60214286D01*
X15928571Y59500000D01*
X15785714Y58928572D01*
X15642857Y58642858D01*
X15500000Y58500000D01*
X15214285Y58357143D01*
X11357142Y61357143D02*
X13071428Y61357143D01*
X12214285Y61357143D02*
X12214285Y58357143D01*
X12500000Y58785715D01*
X12785714Y59071429D01*
X13071428Y59214286D01*
X9642857Y59642858D02*
X9928571Y59500000D01*
X10071428Y59357143D01*
X10214285Y59071429D01*
X10214285Y58928572D01*
X10071428Y58642858D01*
X9928571Y58500000D01*
X9642857Y58357143D01*
X9071428Y58357143D01*
X8785714Y58500000D01*
X8642857Y58642858D01*
X8500000Y58928572D01*
X8500000Y59071429D01*
X8642857Y59357143D01*
X8785714Y59500000D01*
X9071428Y59642858D01*
X9642857Y59642858D01*
X9928571Y59785715D01*
X10071428Y59928572D01*
X10214285Y60214286D01*
X10214285Y60785715D01*
X10071428Y61071429D01*
X9928571Y61214286D01*
X9642857Y61357143D01*
X9071428Y61357143D01*
X8785714Y61214286D01*
X8642857Y61071429D01*
X8500000Y60785715D01*
X8500000Y60214286D01*
X8642857Y59928572D01*
X8785714Y59785715D01*
X9071428Y59642858D01*
X-2642858Y53357143D02*
X-4357143Y53357143D01*
X-3500000Y56357143D02*
X-3500000Y53357143D01*
X-5357143Y56357143D02*
X-5357143Y54357143D01*
X-5357143Y53357143D02*
X-5214286Y53500000D01*
X-5357143Y53642858D01*
X-5500000Y53500000D01*
X-5357143Y53357143D01*
X-5357143Y53642858D01*
X-6785715Y56357143D02*
X-6785715Y54357143D01*
X-6785715Y54642858D02*
X-6928572Y54500000D01*
X-7214286Y54357143D01*
X-7642858Y54357143D01*
X-7928572Y54500000D01*
X-8071429Y54785715D01*
X-8071429Y56357143D01*
X-8071429Y54785715D02*
X-8214286Y54500000D01*
X-8500000Y54357143D01*
X-8928572Y54357143D01*
X-9214286Y54500000D01*
X-9357143Y54785715D01*
X-9357143Y56357143D01*
X-13071429Y56357143D02*
X-13071429Y53357143D01*
X-13071429Y54785715D02*
X-14785715Y54785715D01*
X-14785715Y56357143D02*
X-14785715Y53357143D01*
X-16642858Y56357143D02*
X-16357143Y56214286D01*
X-16214286Y56071429D01*
X-16071429Y55785715D01*
X-16071429Y54928572D01*
X-16214286Y54642858D01*
X-16357143Y54500000D01*
X-16642858Y54357143D01*
X-17071429Y54357143D01*
X-17357143Y54500000D01*
X-17500000Y54642858D01*
X-17642858Y54928572D01*
X-17642858Y55785715D01*
X-17500000Y56071429D01*
X-17357143Y56214286D01*
X-17071429Y56357143D01*
X-16642858Y56357143D01*
X-19357143Y56357143D02*
X-19071429Y56214286D01*
X-18928572Y55928572D01*
X-18928572Y53357143D01*
X-20928572Y56357143D02*
X-20642858Y56214286D01*
X-20500000Y55928572D01*
X-20500000Y53357143D01*
X-23357143Y56357143D02*
X-23357143Y54785715D01*
X-23214286Y54500000D01*
X-22928572Y54357143D01*
X-22357143Y54357143D01*
X-22071429Y54500000D01*
X-23357143Y56214286D02*
X-23071429Y56357143D01*
X-22357143Y56357143D01*
X-22071429Y56214286D01*
X-21928572Y55928572D01*
X-21928572Y55642858D01*
X-22071429Y55357143D01*
X-22357143Y55214286D01*
X-23071429Y55214286D01*
X-23357143Y55071429D01*
X-24785715Y56357143D02*
X-24785715Y53357143D01*
X-24785715Y54500000D02*
X-25071429Y54357143D01*
X-25642858Y54357143D01*
X-25928572Y54500000D01*
X-26071429Y54642858D01*
X-26214286Y54928572D01*
X-26214286Y55785715D01*
X-26071429Y56071429D01*
X-25928572Y56214286D01*
X-25642858Y56357143D01*
X-25071429Y56357143D01*
X-24785715Y56214286D01*
X-28785715Y56357143D02*
X-28785715Y54785715D01*
X-28642858Y54500000D01*
X-28357143Y54357143D01*
X-27785715Y54357143D01*
X-27500000Y54500000D01*
X-28785715Y56214286D02*
X-28500000Y56357143D01*
X-27785715Y56357143D01*
X-27500000Y56214286D01*
X-27357143Y55928572D01*
X-27357143Y55642858D01*
X-27500000Y55357143D01*
X-27785715Y55214286D01*
X-28500000Y55214286D01*
X-28785715Y55071429D01*
X-31500000Y54357143D02*
X-31500000Y56357143D01*
X-30214286Y54357143D02*
X-30214286Y55928572D01*
X-30357143Y56214286D01*
X-30642858Y56357143D01*
X-31071429Y56357143D01*
X-31357143Y56214286D01*
X-31500000Y56071429D01*
X-34214286Y54357143D02*
X-34214286Y56785715D01*
X-34071429Y57071429D01*
X-33928572Y57214286D01*
X-33642858Y57357143D01*
X-33214286Y57357143D01*
X-32928572Y57214286D01*
X-34214286Y56214286D02*
X-33928572Y56357143D01*
X-33357143Y56357143D01*
X-33071429Y56214286D01*
X-32928572Y56071429D01*
X-32785715Y55785715D01*
X-32785715Y54928572D01*
X-32928572Y54642858D01*
X-33071429Y54500000D01*
X-33357143Y54357143D01*
X-33928572Y54357143D01*
X-34214286Y54500000D01*
X-35642858Y56357143D02*
X-35642858Y53357143D01*
X-36928572Y56357143D02*
X-36928572Y54785715D01*
X-36785715Y54500000D01*
X-36500000Y54357143D01*
X-36071429Y54357143D01*
X-35785715Y54500000D01*
X-35642858Y54642858D01*
X-7285715Y58357143D02*
X-7285715Y60500000D01*
X-7142858Y60928572D01*
X-6857143Y61214286D01*
X-6428572Y61357143D01*
X-6142858Y61357143D01*
X-9142858Y61357143D02*
X-8857143Y61214286D01*
X-8714286Y61071429D01*
X-8571429Y60785715D01*
X-8571429Y59928572D01*
X-8714286Y59642858D01*
X-8857143Y59500000D01*
X-9142858Y59357143D01*
X-9571429Y59357143D01*
X-9857143Y59500000D01*
X-10000000Y59642858D01*
X-10142858Y59928572D01*
X-10142858Y60785715D01*
X-10000000Y61071429D01*
X-9857143Y61214286D01*
X-9571429Y61357143D01*
X-9142858Y61357143D01*
X-11428572Y61357143D02*
X-11428572Y58357143D01*
X-12714286Y61357143D02*
X-12714286Y59785715D01*
X-12571429Y59500000D01*
X-12285715Y59357143D01*
X-11857143Y59357143D01*
X-11571429Y59500000D01*
X-11428572Y59642858D01*
X-14142858Y59357143D02*
X-14142858Y61357143D01*
X-14142858Y59642858D02*
X-14285715Y59500000D01*
X-14571429Y59357143D01*
X-15000000Y59357143D01*
X-15285715Y59500000D01*
X-15428572Y59785715D01*
X-15428572Y61357143D01*
X-19142858Y61357143D02*
X-19142858Y58357143D01*
X-20142858Y60500000D01*
X-21142858Y58357143D01*
X-21142858Y61357143D01*
X-23857143Y61214286D02*
X-23571429Y61357143D01*
X-23000000Y61357143D01*
X-22714286Y61214286D01*
X-22571429Y61071429D01*
X-22428572Y60785715D01*
X-22428572Y59928572D01*
X-22571429Y59642858D01*
X-22714286Y59500000D01*
X-23000000Y59357143D01*
X-23571429Y59357143D01*
X-23857143Y59500000D01*
X-25000000Y60500000D02*
X-26428572Y60500000D01*
X-24714286Y61357143D02*
X-25714286Y58357143D01*
X-26714286Y61357143D01*
X-27428572Y59357143D02*
X-28142858Y61357143D01*
X-28857143Y59357143D01*
X-30428572Y61357143D02*
X-30142858Y61214286D01*
X-30000000Y61071429D01*
X-29857143Y60785715D01*
X-29857143Y59928572D01*
X-30000000Y59642858D01*
X-30142858Y59500000D01*
X-30428572Y59357143D01*
X-30857143Y59357143D01*
X-31142858Y59500000D01*
X-31285715Y59642858D01*
X-31428572Y59928572D01*
X-31428572Y60785715D01*
X-31285715Y61071429D01*
X-31142858Y61214286D01*
X-30857143Y61357143D01*
X-30428572Y61357143D01*
X-32428572Y59357143D02*
X-33142858Y61357143D01*
X-33857143Y59357143D02*
X-33142858Y61357143D01*
X-32857143Y62071429D01*
X-32714286Y62214286D01*
X-32428572Y62357143D01*
D12*
X22500000Y-50000000D02*
X22500000Y-30000000D01*
X-22500000Y-50000000D02*
X22500000Y-50000000D01*
X-22500000Y-30000000D02*
X-22500000Y-50000000D01*
D13*
X22500000Y50000000D02*
X22500000Y30000000D01*
X-22500000Y50000000D02*
X22500000Y50000000D01*
X-22500000Y30000000D02*
X-22500000Y50000000D01*
X-45000000Y-22500000D02*
X-25000000Y-22500000D01*
X-45000000Y22500000D02*
X-45000000Y-22500000D01*
X-25000000Y22500000D02*
X-45000000Y22500000D01*
X45000000Y-22500000D02*
X25000000Y-22500000D01*
X45000000Y22500000D02*
X45000000Y-22500000D01*
X25000000Y22500000D02*
X45000000Y22500000D01*
X-25000000Y-30000000D02*
X-25000000Y30000000D01*
X25000000Y-30000000D02*
X-25000000Y-30000000D01*
X25000000Y30000000D02*
X25000000Y-30000000D01*
X-25000000Y30000000D02*
X25000000Y30000000D01*
D14*
G04 #@! TO.C,M1*
X-46420000Y-32950000D02*
X-47750000Y-32950000D01*
X-46420000Y-31620000D02*
X-46420000Y-32950000D01*
X-46420000Y-30350000D02*
X-49080000Y-30350000D01*
X-49080000Y-30350000D02*
X-49080000Y-22670000D01*
X-46420000Y-30350000D02*
X-46420000Y-22670000D01*
X-46420000Y-22670000D02*
X-49080000Y-22670000D01*
G04 #@! TO.C,D3*
X-26710000Y-49545000D02*
X-26710000Y-46455000D01*
X-26770000Y-48000000D02*
G75*
G03X-26770000Y-48000000I-2500000J0D01*
G01*
X-32260000Y-48000462D02*
G75*
G02X-26710000Y-46455170I2990000J462D01*
G01*
X-32260000Y-47999538D02*
G75*
G03X-26710000Y-49544830I2990000J-462D01*
G01*
G04 #@! TO.C,U5*
X-35690000Y-670000D02*
G75*
G02X-37690000Y-670000I-1000000J0D01*
G01*
X-37690000Y-670000D02*
X-38940000Y-670000D01*
X-38940000Y-670000D02*
X-38940000Y-21110000D01*
X-38940000Y-21110000D02*
X-34440000Y-21110000D01*
X-34440000Y-21110000D02*
X-34440000Y-670000D01*
X-34440000Y-670000D02*
X-35690000Y-670000D01*
X-41940000Y-610000D02*
X-41940000Y-21170000D01*
X-41940000Y-21170000D02*
X-31440000Y-21170000D01*
X-31440000Y-21170000D02*
X-31440000Y-610000D01*
X-31440000Y-610000D02*
X-41940000Y-610000D01*
D12*
G04 #@! TO.C,U3*
X-29800001Y-42880000D02*
X-29800000Y-22900000D01*
X-29800000Y-22900000D02*
X-45499999Y-22900000D01*
X-45499999Y-22900000D02*
X-45500000Y-42880000D01*
X-45500000Y-42880000D02*
X-40266666Y-42880000D01*
X-40266666Y-42880000D02*
X-40266666Y-42430000D01*
X-40266666Y-42430000D02*
X-35033334Y-42430000D01*
X-35033334Y-42430000D02*
X-35033334Y-42880000D01*
X-35033334Y-42880000D02*
X-29800001Y-42880000D01*
G04 #@! TO.C,U4*
X35033334Y-22900000D02*
X29800001Y-22900000D01*
X35033334Y-23350000D02*
X35033334Y-22900000D01*
X40266666Y-23350000D02*
X35033334Y-23350000D01*
X40266666Y-22900000D02*
X40266666Y-23350000D01*
X45500000Y-22900000D02*
X40266666Y-22900000D01*
X45499999Y-42880000D02*
X45500000Y-22900000D01*
X29800000Y-42880000D02*
X45499999Y-42880000D01*
X29800001Y-22900000D02*
X29800000Y-42880000D01*
D14*
G04 #@! TO.C,J2*
X49330000Y-35170000D02*
X46670000Y-35170000D01*
X49330000Y-47930000D02*
X49330000Y-35170000D01*
X46670000Y-47930000D02*
X46670000Y-35170000D01*
X49330000Y-47930000D02*
X46670000Y-47930000D01*
X49330000Y-49200000D02*
X49330000Y-50530000D01*
X49330000Y-50530000D02*
X48000000Y-50530000D01*
G04 #@! TO.C,SW5*
X-32500000Y-53000000D02*
X-32500000Y-57500000D01*
X-28500000Y-51750000D02*
X-30000000Y-51750000D01*
X-26000000Y-57500000D02*
X-26000000Y-53000000D01*
X-30000000Y-58750000D02*
X-28500000Y-58750000D01*
G04 #@! TO.C,SW4*
X-34000000Y-57500002D02*
X-34000000Y-53000002D01*
X-38000000Y-58750002D02*
X-36500000Y-58750002D01*
X-40500000Y-53000002D02*
X-40500000Y-57500002D01*
X-36500000Y-51750002D02*
X-38000000Y-51750002D01*
G04 #@! TO.C,J7*
X-5150000Y-31270000D02*
X-5150000Y-33930000D01*
X2530000Y-31270000D02*
X-5150000Y-31270000D01*
X2530000Y-33930000D02*
X-5150000Y-33930000D01*
X2530000Y-31270000D02*
X2530000Y-33930000D01*
X3800000Y-31270000D02*
X5130000Y-31270000D01*
X5130000Y-31270000D02*
X5130000Y-32600000D01*
G04 #@! TO.C,SW3*
X25515000Y-54133333D02*
X24245000Y-54133333D01*
X24315000Y-52780000D02*
X24315000Y-54133333D01*
X24435000Y-52780000D02*
X24435000Y-54133333D01*
X24555000Y-52780000D02*
X24555000Y-54133333D01*
X24675000Y-52780000D02*
X24675000Y-54133333D01*
X24795000Y-52780000D02*
X24795000Y-54133333D01*
X24915000Y-52780000D02*
X24915000Y-54133333D01*
X25035000Y-52780000D02*
X25035000Y-54133333D01*
X25155000Y-52780000D02*
X25155000Y-54133333D01*
X25275000Y-52780000D02*
X25275000Y-54133333D01*
X25395000Y-52780000D02*
X25395000Y-54133333D01*
X25515000Y-56840000D02*
X25515000Y-52780000D01*
X24245000Y-56840000D02*
X25515000Y-56840000D01*
X24245000Y-52780000D02*
X24245000Y-56840000D01*
X25515000Y-52780000D02*
X24245000Y-52780000D01*
X28055000Y-54133333D02*
X26785000Y-54133333D01*
X26855000Y-52780000D02*
X26855000Y-54133333D01*
X26975000Y-52780000D02*
X26975000Y-54133333D01*
X27095000Y-52780000D02*
X27095000Y-54133333D01*
X27215000Y-52780000D02*
X27215000Y-54133333D01*
X27335000Y-52780000D02*
X27335000Y-54133333D01*
X27455000Y-52780000D02*
X27455000Y-54133333D01*
X27575000Y-52780000D02*
X27575000Y-54133333D01*
X27695000Y-52780000D02*
X27695000Y-54133333D01*
X27815000Y-52780000D02*
X27815000Y-54133333D01*
X27935000Y-52780000D02*
X27935000Y-54133333D01*
X28055000Y-56840000D02*
X28055000Y-52780000D01*
X26785000Y-56840000D02*
X28055000Y-56840000D01*
X26785000Y-52780000D02*
X26785000Y-56840000D01*
X28055000Y-52780000D02*
X26785000Y-52780000D01*
X30595000Y-54133333D02*
X29325000Y-54133333D01*
X29395000Y-52780000D02*
X29395000Y-54133333D01*
X29515000Y-52780000D02*
X29515000Y-54133333D01*
X29635000Y-52780000D02*
X29635000Y-54133333D01*
X29755000Y-52780000D02*
X29755000Y-54133333D01*
X29875000Y-52780000D02*
X29875000Y-54133333D01*
X29995000Y-52780000D02*
X29995000Y-54133333D01*
X30115000Y-52780000D02*
X30115000Y-54133333D01*
X30235000Y-52780000D02*
X30235000Y-54133333D01*
X30355000Y-52780000D02*
X30355000Y-54133333D01*
X30475000Y-52780000D02*
X30475000Y-54133333D01*
X30595000Y-56840000D02*
X30595000Y-52780000D01*
X29325000Y-56840000D02*
X30595000Y-56840000D01*
X29325000Y-52780000D02*
X29325000Y-56840000D01*
X30595000Y-52780000D02*
X29325000Y-52780000D01*
X33135000Y-54133333D02*
X31865000Y-54133333D01*
X31935000Y-52780000D02*
X31935000Y-54133333D01*
X32055000Y-52780000D02*
X32055000Y-54133333D01*
X32175000Y-52780000D02*
X32175000Y-54133333D01*
X32295000Y-52780000D02*
X32295000Y-54133333D01*
X32415000Y-52780000D02*
X32415000Y-54133333D01*
X32535000Y-52780000D02*
X32535000Y-54133333D01*
X32655000Y-52780000D02*
X32655000Y-54133333D01*
X32775000Y-52780000D02*
X32775000Y-54133333D01*
X32895000Y-52780000D02*
X32895000Y-54133333D01*
X33015000Y-52780000D02*
X33015000Y-54133333D01*
X33135000Y-56840000D02*
X33135000Y-52780000D01*
X31865000Y-56840000D02*
X33135000Y-56840000D01*
X31865000Y-52780000D02*
X31865000Y-56840000D01*
X33135000Y-52780000D02*
X31865000Y-52780000D01*
X35160000Y-49620000D02*
X33777000Y-49620000D01*
X35160000Y-49620000D02*
X35160000Y-51004000D01*
X34920000Y-59760000D02*
X22460000Y-59760000D01*
X34920000Y-49860000D02*
X22460000Y-49860000D01*
X22460000Y-49860000D02*
X22460000Y-59760000D01*
X34920000Y-49860000D02*
X34920000Y-59760000D01*
G04 #@! TO.C,Y1*
X-2750000Y-39450000D02*
X-7250000Y-39450000D01*
X-2750000Y-35550000D02*
X-7250000Y-35550000D01*
X-2750000Y-35550000D02*
G75*
G02X-2750000Y-39450000I0J-1950000D01*
G01*
X-7250000Y-35550000D02*
G75*
G03X-7250000Y-39450000I0J-1950000D01*
G01*
G04 #@! TO.C,C5*
X39620000Y25250000D02*
G75*
G03X39620000Y25250000I-2620000J0D01*
G01*
X37000000Y22670000D02*
X37000000Y27830000D01*
X36960000Y22670000D02*
X36960000Y27830000D01*
X36920000Y22671000D02*
X36920000Y27829000D01*
X36880000Y22672000D02*
X36880000Y27828000D01*
X36840000Y22674000D02*
X36840000Y27826000D01*
X36800000Y22677000D02*
X36800000Y27823000D01*
X36760000Y22681000D02*
X36760000Y24210000D01*
X36760000Y26290000D02*
X36760000Y27819000D01*
X36720000Y22685000D02*
X36720000Y24210000D01*
X36720000Y26290000D02*
X36720000Y27815000D01*
X36680000Y22689000D02*
X36680000Y24210000D01*
X36680000Y26290000D02*
X36680000Y27811000D01*
X36640000Y22694000D02*
X36640000Y24210000D01*
X36640000Y26290000D02*
X36640000Y27806000D01*
X36600000Y22700000D02*
X36600000Y24210000D01*
X36600000Y26290000D02*
X36600000Y27800000D01*
X36560000Y22707000D02*
X36560000Y24210000D01*
X36560000Y26290000D02*
X36560000Y27793000D01*
X36520000Y22714000D02*
X36520000Y24210000D01*
X36520000Y26290000D02*
X36520000Y27786000D01*
X36480000Y22722000D02*
X36480000Y24210000D01*
X36480000Y26290000D02*
X36480000Y27778000D01*
X36440000Y22730000D02*
X36440000Y24210000D01*
X36440000Y26290000D02*
X36440000Y27770000D01*
X36400000Y22739000D02*
X36400000Y24210000D01*
X36400000Y26290000D02*
X36400000Y27761000D01*
X36360000Y22749000D02*
X36360000Y24210000D01*
X36360000Y26290000D02*
X36360000Y27751000D01*
X36320000Y22759000D02*
X36320000Y24210000D01*
X36320000Y26290000D02*
X36320000Y27741000D01*
X36279000Y22770000D02*
X36279000Y24210000D01*
X36279000Y26290000D02*
X36279000Y27730000D01*
X36239000Y22782000D02*
X36239000Y24210000D01*
X36239000Y26290000D02*
X36239000Y27718000D01*
X36199000Y22795000D02*
X36199000Y24210000D01*
X36199000Y26290000D02*
X36199000Y27705000D01*
X36159000Y22808000D02*
X36159000Y24210000D01*
X36159000Y26290000D02*
X36159000Y27692000D01*
X36119000Y22822000D02*
X36119000Y24210000D01*
X36119000Y26290000D02*
X36119000Y27678000D01*
X36079000Y22836000D02*
X36079000Y24210000D01*
X36079000Y26290000D02*
X36079000Y27664000D01*
X36039000Y22852000D02*
X36039000Y24210000D01*
X36039000Y26290000D02*
X36039000Y27648000D01*
X35999000Y22868000D02*
X35999000Y24210000D01*
X35999000Y26290000D02*
X35999000Y27632000D01*
X35959000Y22885000D02*
X35959000Y24210000D01*
X35959000Y26290000D02*
X35959000Y27615000D01*
X35919000Y22902000D02*
X35919000Y24210000D01*
X35919000Y26290000D02*
X35919000Y27598000D01*
X35879000Y22921000D02*
X35879000Y24210000D01*
X35879000Y26290000D02*
X35879000Y27579000D01*
X35839000Y22940000D02*
X35839000Y24210000D01*
X35839000Y26290000D02*
X35839000Y27560000D01*
X35799000Y22960000D02*
X35799000Y24210000D01*
X35799000Y26290000D02*
X35799000Y27540000D01*
X35759000Y22982000D02*
X35759000Y24210000D01*
X35759000Y26290000D02*
X35759000Y27518000D01*
X35719000Y23003000D02*
X35719000Y24210000D01*
X35719000Y26290000D02*
X35719000Y27497000D01*
X35679000Y23026000D02*
X35679000Y24210000D01*
X35679000Y26290000D02*
X35679000Y27474000D01*
X35639000Y23050000D02*
X35639000Y24210000D01*
X35639000Y26290000D02*
X35639000Y27450000D01*
X35599000Y23075000D02*
X35599000Y24210000D01*
X35599000Y26290000D02*
X35599000Y27425000D01*
X35559000Y23101000D02*
X35559000Y24210000D01*
X35559000Y26290000D02*
X35559000Y27399000D01*
X35519000Y23128000D02*
X35519000Y24210000D01*
X35519000Y26290000D02*
X35519000Y27372000D01*
X35479000Y23155000D02*
X35479000Y24210000D01*
X35479000Y26290000D02*
X35479000Y27345000D01*
X35439000Y23185000D02*
X35439000Y24210000D01*
X35439000Y26290000D02*
X35439000Y27315000D01*
X35399000Y23215000D02*
X35399000Y24210000D01*
X35399000Y26290000D02*
X35399000Y27285000D01*
X35359000Y23246000D02*
X35359000Y24210000D01*
X35359000Y26290000D02*
X35359000Y27254000D01*
X35319000Y23279000D02*
X35319000Y24210000D01*
X35319000Y26290000D02*
X35319000Y27221000D01*
X35279000Y23313000D02*
X35279000Y24210000D01*
X35279000Y26290000D02*
X35279000Y27187000D01*
X35239000Y23349000D02*
X35239000Y24210000D01*
X35239000Y26290000D02*
X35239000Y27151000D01*
X35199000Y23386000D02*
X35199000Y24210000D01*
X35199000Y26290000D02*
X35199000Y27114000D01*
X35159000Y23424000D02*
X35159000Y24210000D01*
X35159000Y26290000D02*
X35159000Y27076000D01*
X35119000Y23465000D02*
X35119000Y24210000D01*
X35119000Y26290000D02*
X35119000Y27035000D01*
X35079000Y23507000D02*
X35079000Y24210000D01*
X35079000Y26290000D02*
X35079000Y26993000D01*
X35039000Y23551000D02*
X35039000Y24210000D01*
X35039000Y26290000D02*
X35039000Y26949000D01*
X34999000Y23597000D02*
X34999000Y24210000D01*
X34999000Y26290000D02*
X34999000Y26903000D01*
X34959000Y23645000D02*
X34959000Y24210000D01*
X34959000Y26290000D02*
X34959000Y26855000D01*
X34919000Y23696000D02*
X34919000Y24210000D01*
X34919000Y26290000D02*
X34919000Y26804000D01*
X34879000Y23750000D02*
X34879000Y24210000D01*
X34879000Y26290000D02*
X34879000Y26750000D01*
X34839000Y23807000D02*
X34839000Y24210000D01*
X34839000Y26290000D02*
X34839000Y26693000D01*
X34799000Y23867000D02*
X34799000Y24210000D01*
X34799000Y26290000D02*
X34799000Y26633000D01*
X34759000Y23931000D02*
X34759000Y24210000D01*
X34759000Y26290000D02*
X34759000Y26569000D01*
X34719000Y23999000D02*
X34719000Y24210000D01*
X34719000Y26290000D02*
X34719000Y26501000D01*
X34679000Y24072000D02*
X34679000Y26428000D01*
X34639000Y24152000D02*
X34639000Y26348000D01*
X34599000Y24239000D02*
X34599000Y26261000D01*
X34559000Y24335000D02*
X34559000Y26165000D01*
X34519000Y24445000D02*
X34519000Y26055000D01*
X34479000Y24573000D02*
X34479000Y25927000D01*
X34439000Y24732000D02*
X34439000Y25768000D01*
X34399000Y24966000D02*
X34399000Y25534000D01*
X39804775Y23775000D02*
X39304775Y23775000D01*
X39554775Y23525000D02*
X39554775Y24025000D01*
G04 #@! TO.C,D1*
X28510000Y-40750462D02*
G75*
G03X22960000Y-39205170I-2990000J462D01*
G01*
X28510000Y-40749538D02*
G75*
G02X22960000Y-42294830I-2990000J-462D01*
G01*
X28020000Y-40750000D02*
G75*
G03X28020000Y-40750000I-2500000J0D01*
G01*
X22960000Y-39205000D02*
X22960000Y-42295000D01*
G04 #@! TO.C,D2*
X-34240000Y-48000462D02*
G75*
G03X-39790000Y-46455170I-2990000J462D01*
G01*
X-34240000Y-47999538D02*
G75*
G02X-39790000Y-49544830I-2990000J-462D01*
G01*
X-34730000Y-48000000D02*
G75*
G03X-34730000Y-48000000I-2500000J0D01*
G01*
X-39790000Y-46455000D02*
X-39790000Y-49545000D01*
G04 #@! TO.C,J1*
X26170000Y23920000D02*
X28830000Y23920000D01*
X26170000Y26520000D02*
X26170000Y23920000D01*
X28830000Y26520000D02*
X28830000Y23920000D01*
X26170000Y26520000D02*
X28830000Y26520000D01*
X26170000Y27790000D02*
X26170000Y29120000D01*
X26170000Y29120000D02*
X27500000Y29120000D01*
G04 #@! TO.C,J3*
X33830000Y-46830000D02*
X33830000Y-44170000D01*
X28690000Y-46830000D02*
X33830000Y-46830000D01*
X28690000Y-44170000D02*
X33830000Y-44170000D01*
X28690000Y-46830000D02*
X28690000Y-44170000D01*
X27420000Y-46830000D02*
X26090000Y-46830000D01*
X26090000Y-46830000D02*
X26090000Y-45500000D01*
G04 #@! TO.C,J4*
X-5130000Y31270000D02*
X-5130000Y32600000D01*
X-3800000Y31270000D02*
X-5130000Y31270000D01*
X-2530000Y31270000D02*
X-2530000Y33930000D01*
X-2530000Y33930000D02*
X5150000Y33930000D01*
X-2530000Y31270000D02*
X5150000Y31270000D01*
X5150000Y31270000D02*
X5150000Y33930000D01*
G04 #@! TO.C,J5*
X-26170000Y5140000D02*
X-28830000Y5140000D01*
X-26170000Y-2540000D02*
X-26170000Y5140000D01*
X-28830000Y-2540000D02*
X-28830000Y5140000D01*
X-26170000Y-2540000D02*
X-28830000Y-2540000D01*
X-26170000Y-3810000D02*
X-26170000Y-5140000D01*
X-26170000Y-5140000D02*
X-27500000Y-5140000D01*
G04 #@! TO.C,J6*
X26170000Y5140000D02*
X27500000Y5140000D01*
X26170000Y3810000D02*
X26170000Y5140000D01*
X26170000Y2540000D02*
X28830000Y2540000D01*
X28830000Y2540000D02*
X28830000Y-5140000D01*
X26170000Y2540000D02*
X26170000Y-5140000D01*
X26170000Y-5140000D02*
X28830000Y-5140000D01*
G04 #@! TO.C,M2*
X46670000Y-32950000D02*
X49330000Y-32950000D01*
X46670000Y-25270000D02*
X46670000Y-32950000D01*
X49330000Y-25270000D02*
X49330000Y-32950000D01*
X46670000Y-25270000D02*
X49330000Y-25270000D01*
X46670000Y-24000000D02*
X46670000Y-22670000D01*
X46670000Y-22670000D02*
X48000000Y-22670000D01*
G04 #@! TO.C,SW1*
X49610000Y29850000D02*
X49610000Y23029000D01*
X45390000Y29850000D02*
X45390000Y23029000D01*
X49610000Y29850000D02*
X48540000Y29850000D01*
X46460000Y29850000D02*
X45390000Y29850000D01*
X49610000Y23029000D02*
X48490000Y23029000D01*
X46510000Y23029000D02*
X45390000Y23029000D01*
X49850000Y30090000D02*
X49850000Y28707000D01*
X49850000Y30090000D02*
X48540000Y30090000D01*
X48135000Y28250000D02*
X46865000Y28250000D01*
X46865000Y28250000D02*
X46865000Y24630000D01*
X46865000Y24630000D02*
X48135000Y24630000D01*
X48135000Y24630000D02*
X48135000Y28250000D01*
X48015000Y28250000D02*
X48015000Y27043333D01*
X47895000Y28250000D02*
X47895000Y27043333D01*
X47775000Y28250000D02*
X47775000Y27043333D01*
X47655000Y28250000D02*
X47655000Y27043333D01*
X47535000Y28250000D02*
X47535000Y27043333D01*
X47415000Y28250000D02*
X47415000Y27043333D01*
X47295000Y28250000D02*
X47295000Y27043333D01*
X47175000Y28250000D02*
X47175000Y27043333D01*
X47055000Y28250000D02*
X47055000Y27043333D01*
X46935000Y28250000D02*
X46935000Y27043333D01*
X48135000Y27043333D02*
X46865000Y27043333D01*
G04 #@! TO.C,SW2*
X44500000Y-47750000D02*
X44500000Y-46250000D01*
X43250000Y-43750000D02*
X38750000Y-43750000D01*
X37500000Y-46250000D02*
X37500000Y-47750000D01*
X38750000Y-50250000D02*
X43250000Y-50250000D01*
G04 #@! TO.C,U1*
X17840000Y-45450000D02*
G75*
G02X17840000Y-43450000I0J1000000D01*
G01*
X17840000Y-43450000D02*
X17840000Y-41800000D01*
X17840000Y-41800000D02*
X-17840000Y-41800000D01*
X-17840000Y-41800000D02*
X-17840000Y-47100000D01*
X-17840000Y-47100000D02*
X17840000Y-47100000D01*
X17840000Y-47100000D02*
X17840000Y-45450000D01*
G04 #@! TO.C,U2*
X40830000Y16810000D02*
X30590000Y16810000D01*
X40830000Y920000D02*
X30590000Y920000D01*
X40830000Y920000D02*
X40830000Y16810000D01*
X30590000Y920000D02*
X30590000Y16810000D01*
X38250000Y16810000D02*
X38250000Y19350000D01*
X35710000Y16810000D02*
X35710000Y19350000D01*
X33170000Y16810000D02*
X33170000Y19350000D01*
D15*
G04 #@! TO.C,REF\002A\002A*
G36*
X41102318Y41083933D02*
X40966071Y41131172D01*
X40839221Y41205527D01*
X40725933Y41306987D01*
X40630372Y41435543D01*
X40587446Y41516572D01*
X40550295Y41629908D01*
X40532288Y41760751D01*
X40534283Y41895265D01*
X40556423Y42017158D01*
X40616936Y42166107D01*
X40704686Y42295309D01*
X40815212Y42402223D01*
X40944054Y42484306D01*
X41086753Y42539016D01*
X41238849Y42563810D01*
X41395881Y42556147D01*
X41473286Y42539772D01*
X41624141Y42481089D01*
X41758125Y42391543D01*
X41872006Y42273893D01*
X41962552Y42130902D01*
X41970212Y42115286D01*
X41996694Y42056686D01*
X42013322Y42007334D01*
X42022350Y41955270D01*
X42026032Y41888539D01*
X42026643Y41815929D01*
X42025633Y41728691D01*
X42021072Y41665624D01*
X42010666Y41614636D01*
X41992121Y41563633D01*
X41969230Y41513313D01*
X41883846Y41370470D01*
X41778699Y41254810D01*
X41657955Y41166325D01*
X41525779Y41105005D01*
X41386337Y41070839D01*
X41243795Y41063818D01*
X41102318Y41083933D01*
X41102318Y41083933D01*
G37*
X41102318Y41083933D02*
X40966071Y41131172D01*
X40839221Y41205527D01*
X40725933Y41306987D01*
X40630372Y41435543D01*
X40587446Y41516572D01*
X40550295Y41629908D01*
X40532288Y41760751D01*
X40534283Y41895265D01*
X40556423Y42017158D01*
X40616936Y42166107D01*
X40704686Y42295309D01*
X40815212Y42402223D01*
X40944054Y42484306D01*
X41086753Y42539016D01*
X41238849Y42563810D01*
X41395881Y42556147D01*
X41473286Y42539772D01*
X41624141Y42481089D01*
X41758125Y42391543D01*
X41872006Y42273893D01*
X41962552Y42130902D01*
X41970212Y42115286D01*
X41996694Y42056686D01*
X42013322Y42007334D01*
X42022350Y41955270D01*
X42026032Y41888539D01*
X42026643Y41815929D01*
X42025633Y41728691D01*
X42021072Y41665624D01*
X42010666Y41614636D01*
X41992121Y41563633D01*
X41969230Y41513313D01*
X41883846Y41370470D01*
X41778699Y41254810D01*
X41657955Y41166325D01*
X41525779Y41105005D01*
X41386337Y41070839D01*
X41243795Y41063818D01*
X41102318Y41083933D01*
G36*
X28458429Y42300089D02*
X28304124Y42300723D01*
X28251679Y42301042D01*
X27530500Y42305786D01*
X27521429Y45072572D01*
X27520231Y45447756D01*
X27519168Y45788417D01*
X27518173Y46096318D01*
X27517177Y46373221D01*
X27516112Y46620888D01*
X27514909Y46841081D01*
X27513501Y47035562D01*
X27511818Y47206094D01*
X27509794Y47354440D01*
X27507359Y47482361D01*
X27504446Y47591620D01*
X27500985Y47683979D01*
X27496910Y47761200D01*
X27492151Y47825046D01*
X27486640Y47877278D01*
X27480309Y47919660D01*
X27473090Y47953953D01*
X27464915Y47981920D01*
X27455715Y48005324D01*
X27445423Y48025925D01*
X27433969Y48045487D01*
X27421285Y48065772D01*
X27407305Y48088543D01*
X27404439Y48093393D01*
X27356360Y48175433D01*
X28746072Y48165929D01*
X28755143Y48013295D01*
X28760082Y47940045D01*
X28765229Y47897696D01*
X28772214Y47880892D01*
X28782663Y47884277D01*
X28791429Y47893960D01*
X28829612Y47929229D01*
X28891845Y47974563D01*
X28969359Y48024546D01*
X29053387Y48073761D01*
X29135161Y48116791D01*
X29197948Y48145101D01*
X29345046Y48191624D01*
X29513820Y48224579D01*
X29691809Y48242707D01*
X29866553Y48244750D01*
X30025593Y48229447D01*
X30028212Y48229009D01*
X30245832Y48174402D01*
X30449545Y48087401D01*
X30637387Y47969876D01*
X30807393Y47823697D01*
X30957598Y47650734D01*
X31086036Y47452857D01*
X31190743Y47231936D01*
X31247754Y47068286D01*
X31285349Y46931375D01*
X31313229Y46798798D01*
X31332247Y46662502D01*
X31343255Y46514433D01*
X31347105Y46346537D01*
X31345400Y46209440D01*
X30006641Y46209440D01*
X30000306Y46439329D01*
X29980321Y46637111D01*
X29946073Y46804539D01*
X29896945Y46943369D01*
X29832324Y47055358D01*
X29751595Y47142259D01*
X29658409Y47203692D01*
X29609920Y47226626D01*
X29567866Y47240375D01*
X29520980Y47246666D01*
X29457996Y47247222D01*
X29390143Y47244773D01*
X29256705Y47233004D01*
X29151168Y47209955D01*
X29118000Y47198410D01*
X29042265Y47164311D01*
X28962386Y47121491D01*
X28927500Y47100057D01*
X28836786Y47040556D01*
X28836786Y45154584D01*
X28936572Y45094771D01*
X29075733Y45027185D01*
X29217913Y44987214D01*
X29357910Y44974622D01*
X29490526Y44989173D01*
X29610560Y45030632D01*
X29712812Y45098763D01*
X29745805Y45131466D01*
X29825333Y45238619D01*
X29889701Y45368327D01*
X29939447Y45522814D01*
X29975109Y45704302D01*
X29997225Y45915015D01*
X30006333Y46157175D01*
X30006641Y46209440D01*
X31345400Y46209440D01*
X31344690Y46152374D01*
X31329395Y45853713D01*
X31298642Y45584325D01*
X31251619Y45340285D01*
X31187518Y45117670D01*
X31105528Y44912556D01*
X31076270Y44851746D01*
X30958419Y44653440D01*
X30816004Y44477212D01*
X30652371Y44325908D01*
X30470869Y44202371D01*
X30274847Y44109447D01*
X30157345Y44071115D01*
X30041946Y44048359D01*
X29903093Y44034820D01*
X29752426Y44030492D01*
X29601587Y44035368D01*
X29462215Y44049444D01*
X29350309Y44071525D01*
X29217116Y44114828D01*
X29088021Y44170511D01*
X28975072Y44232936D01*
X28914957Y44275303D01*
X28873490Y44306807D01*
X28844455Y44325990D01*
X28837850Y44328714D01*
X28835802Y44311163D01*
X28833893Y44260875D01*
X28832164Y44181400D01*
X28830659Y44076286D01*
X28829419Y43949083D01*
X28828487Y43803339D01*
X28827905Y43642603D01*
X28827714Y43478884D01*
X28827821Y43269188D01*
X28828342Y43092396D01*
X28829584Y42945126D01*
X28831852Y42823997D01*
X28835450Y42725627D01*
X28840683Y42646634D01*
X28847856Y42583638D01*
X28857274Y42533255D01*
X28869242Y42492105D01*
X28884065Y42456806D01*
X28902048Y42423977D01*
X28923495Y42390235D01*
X28926255Y42386057D01*
X28953917Y42342356D01*
X28970618Y42312305D01*
X28972857Y42305967D01*
X28955357Y42303967D01*
X28905426Y42302340D01*
X28826915Y42301112D01*
X28723677Y42300311D01*
X28599564Y42299961D01*
X28458429Y42300089D01*
X28458429Y42300089D01*
G37*
X28458429Y42300089D02*
X28304124Y42300723D01*
X28251679Y42301042D01*
X27530500Y42305786D01*
X27521429Y45072572D01*
X27520231Y45447756D01*
X27519168Y45788417D01*
X27518173Y46096318D01*
X27517177Y46373221D01*
X27516112Y46620888D01*
X27514909Y46841081D01*
X27513501Y47035562D01*
X27511818Y47206094D01*
X27509794Y47354440D01*
X27507359Y47482361D01*
X27504446Y47591620D01*
X27500985Y47683979D01*
X27496910Y47761200D01*
X27492151Y47825046D01*
X27486640Y47877278D01*
X27480309Y47919660D01*
X27473090Y47953953D01*
X27464915Y47981920D01*
X27455715Y48005324D01*
X27445423Y48025925D01*
X27433969Y48045487D01*
X27421285Y48065772D01*
X27407305Y48088543D01*
X27404439Y48093393D01*
X27356360Y48175433D01*
X28746072Y48165929D01*
X28755143Y48013295D01*
X28760082Y47940045D01*
X28765229Y47897696D01*
X28772214Y47880892D01*
X28782663Y47884277D01*
X28791429Y47893960D01*
X28829612Y47929229D01*
X28891845Y47974563D01*
X28969359Y48024546D01*
X29053387Y48073761D01*
X29135161Y48116791D01*
X29197948Y48145101D01*
X29345046Y48191624D01*
X29513820Y48224579D01*
X29691809Y48242707D01*
X29866553Y48244750D01*
X30025593Y48229447D01*
X30028212Y48229009D01*
X30245832Y48174402D01*
X30449545Y48087401D01*
X30637387Y47969876D01*
X30807393Y47823697D01*
X30957598Y47650734D01*
X31086036Y47452857D01*
X31190743Y47231936D01*
X31247754Y47068286D01*
X31285349Y46931375D01*
X31313229Y46798798D01*
X31332247Y46662502D01*
X31343255Y46514433D01*
X31347105Y46346537D01*
X31345400Y46209440D01*
X30006641Y46209440D01*
X30000306Y46439329D01*
X29980321Y46637111D01*
X29946073Y46804539D01*
X29896945Y46943369D01*
X29832324Y47055358D01*
X29751595Y47142259D01*
X29658409Y47203692D01*
X29609920Y47226626D01*
X29567866Y47240375D01*
X29520980Y47246666D01*
X29457996Y47247222D01*
X29390143Y47244773D01*
X29256705Y47233004D01*
X29151168Y47209955D01*
X29118000Y47198410D01*
X29042265Y47164311D01*
X28962386Y47121491D01*
X28927500Y47100057D01*
X28836786Y47040556D01*
X28836786Y45154584D01*
X28936572Y45094771D01*
X29075733Y45027185D01*
X29217913Y44987214D01*
X29357910Y44974622D01*
X29490526Y44989173D01*
X29610560Y45030632D01*
X29712812Y45098763D01*
X29745805Y45131466D01*
X29825333Y45238619D01*
X29889701Y45368327D01*
X29939447Y45522814D01*
X29975109Y45704302D01*
X29997225Y45915015D01*
X30006333Y46157175D01*
X30006641Y46209440D01*
X31345400Y46209440D01*
X31344690Y46152374D01*
X31329395Y45853713D01*
X31298642Y45584325D01*
X31251619Y45340285D01*
X31187518Y45117670D01*
X31105528Y44912556D01*
X31076270Y44851746D01*
X30958419Y44653440D01*
X30816004Y44477212D01*
X30652371Y44325908D01*
X30470869Y44202371D01*
X30274847Y44109447D01*
X30157345Y44071115D01*
X30041946Y44048359D01*
X29903093Y44034820D01*
X29752426Y44030492D01*
X29601587Y44035368D01*
X29462215Y44049444D01*
X29350309Y44071525D01*
X29217116Y44114828D01*
X29088021Y44170511D01*
X28975072Y44232936D01*
X28914957Y44275303D01*
X28873490Y44306807D01*
X28844455Y44325990D01*
X28837850Y44328714D01*
X28835802Y44311163D01*
X28833893Y44260875D01*
X28832164Y44181400D01*
X28830659Y44076286D01*
X28829419Y43949083D01*
X28828487Y43803339D01*
X28827905Y43642603D01*
X28827714Y43478884D01*
X28827821Y43269188D01*
X28828342Y43092396D01*
X28829584Y42945126D01*
X28831852Y42823997D01*
X28835450Y42725627D01*
X28840683Y42646634D01*
X28847856Y42583638D01*
X28857274Y42533255D01*
X28869242Y42492105D01*
X28884065Y42456806D01*
X28902048Y42423977D01*
X28923495Y42390235D01*
X28926255Y42386057D01*
X28953917Y42342356D01*
X28970618Y42312305D01*
X28972857Y42305967D01*
X28955357Y42303967D01*
X28905426Y42302340D01*
X28826915Y42301112D01*
X28723677Y42300311D01*
X28599564Y42299961D01*
X28458429Y42300089D01*
G36*
X33314368Y44027730D02*
X33224477Y44034535D01*
X32967285Y44068753D01*
X32739515Y44123331D01*
X32540057Y44199020D01*
X32367803Y44296570D01*
X32221641Y44416732D01*
X32100464Y44560258D01*
X32003161Y44727898D01*
X31932109Y44909286D01*
X31914073Y44967146D01*
X31898368Y45021329D01*
X31884808Y45074752D01*
X31873208Y45130333D01*
X31863383Y45190988D01*
X31855147Y45259635D01*
X31848316Y45339190D01*
X31842705Y45432572D01*
X31838128Y45542696D01*
X31834400Y45672481D01*
X31831335Y45824842D01*
X31828750Y46002698D01*
X31826458Y46208965D01*
X31824275Y46446561D01*
X31822714Y46632857D01*
X31812215Y47911929D01*
X31744179Y48035018D01*
X31711962Y48094317D01*
X31687988Y48140377D01*
X31676550Y48164893D01*
X31676143Y48166553D01*
X31693625Y48168454D01*
X31743426Y48170205D01*
X31821579Y48171758D01*
X31924118Y48173062D01*
X32047078Y48174070D01*
X32186490Y48174731D01*
X32338389Y48174997D01*
X32356500Y48175000D01*
X33036857Y48175000D01*
X33036857Y48020786D01*
X33038018Y47951094D01*
X33041113Y47897794D01*
X33045568Y47869217D01*
X33047537Y47866572D01*
X33065545Y47877653D01*
X33102607Y47906736D01*
X33150778Y47947579D01*
X33151859Y47948524D01*
X33239765Y48013971D01*
X33350783Y48079688D01*
X33472369Y48139219D01*
X33591979Y48186109D01*
X33644643Y48202133D01*
X33749449Y48222485D01*
X33878050Y48235472D01*
X34018675Y48240909D01*
X34159552Y48238611D01*
X34288907Y48228392D01*
X34379429Y48213689D01*
X34601420Y48148499D01*
X34801271Y48055594D01*
X34977681Y47936126D01*
X35129350Y47791247D01*
X35254976Y47622110D01*
X35353259Y47429867D01*
X35395659Y47313214D01*
X35422232Y47199833D01*
X35439842Y47063722D01*
X35447990Y46917437D01*
X35447722Y46896151D01*
X34220679Y46896151D01*
X34210504Y47004850D01*
X34176622Y47095185D01*
X34114000Y47178995D01*
X34089948Y47203571D01*
X34004449Y47270011D01*
X33905627Y47312574D01*
X33787232Y47333177D01*
X33662555Y47334694D01*
X33544302Y47324677D01*
X33453761Y47305085D01*
X33414440Y47290370D01*
X33343568Y47250265D01*
X33268475Y47193863D01*
X33199962Y47130561D01*
X33148828Y47069755D01*
X33135250Y47047449D01*
X33124695Y47016212D01*
X33117190Y46966507D01*
X33112387Y46893587D01*
X33109935Y46792703D01*
X33109429Y46696689D01*
X33109772Y46584750D01*
X33111157Y46503809D01*
X33114119Y46448585D01*
X33119192Y46413794D01*
X33126910Y46394154D01*
X33137808Y46384380D01*
X33141179Y46382824D01*
X33170471Y46378029D01*
X33228244Y46374108D01*
X33306696Y46371414D01*
X33398026Y46370299D01*
X33417857Y46370298D01*
X33539937Y46372246D01*
X33634251Y46378041D01*
X33709193Y46388475D01*
X33771097Y46403714D01*
X33924651Y46461784D01*
X34045068Y46533179D01*
X34133390Y46619039D01*
X34190661Y46720507D01*
X34217922Y46838725D01*
X34220679Y46896151D01*
X35447722Y46896151D01*
X35446177Y46773533D01*
X35433904Y46644565D01*
X35424330Y46592460D01*
X35363199Y46398997D01*
X35270243Y46220993D01*
X35147217Y46060155D01*
X34995876Y45918190D01*
X34817975Y45796806D01*
X34615268Y45697709D01*
X34442929Y45637533D01*
X34327747Y45605919D01*
X34217577Y45581354D01*
X34105281Y45563039D01*
X33983725Y45550178D01*
X33845771Y45541972D01*
X33684285Y45537624D01*
X33538285Y45536400D01*
X33105355Y45535215D01*
X33113649Y45405080D01*
X33137199Y45263883D01*
X33187297Y45142518D01*
X33261809Y45044017D01*
X33358601Y44971409D01*
X33443829Y44935979D01*
X33565944Y44913650D01*
X33711317Y44910443D01*
X33873133Y44925177D01*
X34044578Y44956670D01*
X34218837Y45003740D01*
X34389096Y45065203D01*
X34512824Y45121417D01*
X34572353Y45150283D01*
X34617758Y45170443D01*
X34640850Y45178310D01*
X34642103Y45178058D01*
X34650071Y45160437D01*
X34669969Y45113733D01*
X34699923Y45042418D01*
X34738061Y44950969D01*
X34782512Y44843859D01*
X34827695Y44734549D01*
X35008333Y44296740D01*
X34879845Y44275636D01*
X34824154Y44265047D01*
X34740436Y44247263D01*
X34635861Y44223898D01*
X34517601Y44196565D01*
X34392828Y44166881D01*
X34343143Y44154818D01*
X34128193Y44104962D01*
X33940005Y44067584D01*
X33771554Y44041927D01*
X33615814Y44027235D01*
X33465760Y44022755D01*
X33314368Y44027730D01*
X33314368Y44027730D01*
G37*
X33314368Y44027730D02*
X33224477Y44034535D01*
X32967285Y44068753D01*
X32739515Y44123331D01*
X32540057Y44199020D01*
X32367803Y44296570D01*
X32221641Y44416732D01*
X32100464Y44560258D01*
X32003161Y44727898D01*
X31932109Y44909286D01*
X31914073Y44967146D01*
X31898368Y45021329D01*
X31884808Y45074752D01*
X31873208Y45130333D01*
X31863383Y45190988D01*
X31855147Y45259635D01*
X31848316Y45339190D01*
X31842705Y45432572D01*
X31838128Y45542696D01*
X31834400Y45672481D01*
X31831335Y45824842D01*
X31828750Y46002698D01*
X31826458Y46208965D01*
X31824275Y46446561D01*
X31822714Y46632857D01*
X31812215Y47911929D01*
X31744179Y48035018D01*
X31711962Y48094317D01*
X31687988Y48140377D01*
X31676550Y48164893D01*
X31676143Y48166553D01*
X31693625Y48168454D01*
X31743426Y48170205D01*
X31821579Y48171758D01*
X31924118Y48173062D01*
X32047078Y48174070D01*
X32186490Y48174731D01*
X32338389Y48174997D01*
X32356500Y48175000D01*
X33036857Y48175000D01*
X33036857Y48020786D01*
X33038018Y47951094D01*
X33041113Y47897794D01*
X33045568Y47869217D01*
X33047537Y47866572D01*
X33065545Y47877653D01*
X33102607Y47906736D01*
X33150778Y47947579D01*
X33151859Y47948524D01*
X33239765Y48013971D01*
X33350783Y48079688D01*
X33472369Y48139219D01*
X33591979Y48186109D01*
X33644643Y48202133D01*
X33749449Y48222485D01*
X33878050Y48235472D01*
X34018675Y48240909D01*
X34159552Y48238611D01*
X34288907Y48228392D01*
X34379429Y48213689D01*
X34601420Y48148499D01*
X34801271Y48055594D01*
X34977681Y47936126D01*
X35129350Y47791247D01*
X35254976Y47622110D01*
X35353259Y47429867D01*
X35395659Y47313214D01*
X35422232Y47199833D01*
X35439842Y47063722D01*
X35447990Y46917437D01*
X35447722Y46896151D01*
X34220679Y46896151D01*
X34210504Y47004850D01*
X34176622Y47095185D01*
X34114000Y47178995D01*
X34089948Y47203571D01*
X34004449Y47270011D01*
X33905627Y47312574D01*
X33787232Y47333177D01*
X33662555Y47334694D01*
X33544302Y47324677D01*
X33453761Y47305085D01*
X33414440Y47290370D01*
X33343568Y47250265D01*
X33268475Y47193863D01*
X33199962Y47130561D01*
X33148828Y47069755D01*
X33135250Y47047449D01*
X33124695Y47016212D01*
X33117190Y46966507D01*
X33112387Y46893587D01*
X33109935Y46792703D01*
X33109429Y46696689D01*
X33109772Y46584750D01*
X33111157Y46503809D01*
X33114119Y46448585D01*
X33119192Y46413794D01*
X33126910Y46394154D01*
X33137808Y46384380D01*
X33141179Y46382824D01*
X33170471Y46378029D01*
X33228244Y46374108D01*
X33306696Y46371414D01*
X33398026Y46370299D01*
X33417857Y46370298D01*
X33539937Y46372246D01*
X33634251Y46378041D01*
X33709193Y46388475D01*
X33771097Y46403714D01*
X33924651Y46461784D01*
X34045068Y46533179D01*
X34133390Y46619039D01*
X34190661Y46720507D01*
X34217922Y46838725D01*
X34220679Y46896151D01*
X35447722Y46896151D01*
X35446177Y46773533D01*
X35433904Y46644565D01*
X35424330Y46592460D01*
X35363199Y46398997D01*
X35270243Y46220993D01*
X35147217Y46060155D01*
X34995876Y45918190D01*
X34817975Y45796806D01*
X34615268Y45697709D01*
X34442929Y45637533D01*
X34327747Y45605919D01*
X34217577Y45581354D01*
X34105281Y45563039D01*
X33983725Y45550178D01*
X33845771Y45541972D01*
X33684285Y45537624D01*
X33538285Y45536400D01*
X33105355Y45535215D01*
X33113649Y45405080D01*
X33137199Y45263883D01*
X33187297Y45142518D01*
X33261809Y45044017D01*
X33358601Y44971409D01*
X33443829Y44935979D01*
X33565944Y44913650D01*
X33711317Y44910443D01*
X33873133Y44925177D01*
X34044578Y44956670D01*
X34218837Y45003740D01*
X34389096Y45065203D01*
X34512824Y45121417D01*
X34572353Y45150283D01*
X34617758Y45170443D01*
X34640850Y45178310D01*
X34642103Y45178058D01*
X34650071Y45160437D01*
X34669969Y45113733D01*
X34699923Y45042418D01*
X34738061Y44950969D01*
X34782512Y44843859D01*
X34827695Y44734549D01*
X35008333Y44296740D01*
X34879845Y44275636D01*
X34824154Y44265047D01*
X34740436Y44247263D01*
X34635861Y44223898D01*
X34517601Y44196565D01*
X34392828Y44166881D01*
X34343143Y44154818D01*
X34128193Y44104962D01*
X33940005Y44067584D01*
X33771554Y44041927D01*
X33615814Y44027235D01*
X33465760Y44022755D01*
X33314368Y44027730D01*
G36*
X36918622Y42569231D02*
X36722981Y42590649D01*
X36533438Y42628985D01*
X36342283Y42686238D01*
X36141804Y42764409D01*
X35924292Y42865496D01*
X35885120Y42885076D01*
X35795228Y42929362D01*
X35710447Y42969239D01*
X35639145Y43000898D01*
X35589690Y43020532D01*
X35582092Y43023004D01*
X35509286Y43044817D01*
X35835197Y43518944D01*
X35914877Y43634823D01*
X35987728Y43740694D01*
X36051270Y43832962D01*
X36103028Y43908033D01*
X36140523Y43962313D01*
X36161277Y43992207D01*
X36164649Y43996941D01*
X36178345Y43987042D01*
X36212057Y43957285D01*
X36259756Y43913073D01*
X36286080Y43888084D01*
X36435228Y43769456D01*
X36602732Y43679313D01*
X36747072Y43629936D01*
X36833717Y43614429D01*
X36942204Y43604979D01*
X37059773Y43601761D01*
X37173666Y43604951D01*
X37271121Y43614724D01*
X37310010Y43622209D01*
X37485288Y43682512D01*
X37643235Y43774590D01*
X37783732Y43898273D01*
X37906665Y44053393D01*
X38011915Y44239781D01*
X38099365Y44457270D01*
X38168900Y44705692D01*
X38210225Y44918357D01*
X38221006Y45012241D01*
X38228352Y45133524D01*
X38232333Y45273493D01*
X38233021Y45423431D01*
X38230486Y45574622D01*
X38224800Y45718351D01*
X38216033Y45845903D01*
X38204256Y45948562D01*
X38201707Y45964401D01*
X38145519Y46219536D01*
X38068964Y46445342D01*
X37971574Y46642831D01*
X37852886Y46813014D01*
X37768637Y46905022D01*
X37617230Y47029943D01*
X37451183Y47122540D01*
X37273299Y47182309D01*
X37086378Y47208746D01*
X36893222Y47201348D01*
X36696631Y47159611D01*
X36580403Y47118771D01*
X36419562Y47036990D01*
X36253787Y46919678D01*
X36160927Y46840345D01*
X36108786Y46794429D01*
X36067820Y46760742D01*
X36044502Y46744510D01*
X36041607Y46744015D01*
X36031200Y46760601D01*
X36004233Y46804432D01*
X35963004Y46871748D01*
X35909811Y46958794D01*
X35846950Y47061810D01*
X35776719Y47177041D01*
X35737628Y47241231D01*
X35439036Y47731677D01*
X35811839Y47915915D01*
X35946631Y47982093D01*
X36055825Y48034278D01*
X36146093Y48075060D01*
X36224112Y48107033D01*
X36296556Y48132787D01*
X36370099Y48154914D01*
X36451416Y48176007D01*
X36529357Y48194530D01*
X36598634Y48208863D01*
X36671083Y48219694D01*
X36753958Y48227626D01*
X36854512Y48233258D01*
X36979997Y48237192D01*
X37064572Y48238891D01*
X37185246Y48240050D01*
X37300958Y48239465D01*
X37404049Y48237304D01*
X37486862Y48233732D01*
X37541740Y48228917D01*
X37544992Y48228437D01*
X37829957Y48166786D01*
X38097558Y48073285D01*
X38347703Y47947993D01*
X38580296Y47790974D01*
X38795243Y47602289D01*
X38992450Y47382000D01*
X39135273Y47186214D01*
X39287320Y46929949D01*
X39410227Y46659317D01*
X39504590Y46372149D01*
X39571001Y46066276D01*
X39610056Y45739528D01*
X39622360Y45407739D01*
X39612241Y45086779D01*
X39580439Y44790646D01*
X39525946Y44514345D01*
X39447750Y44252881D01*
X39344841Y44001258D01*
X39332553Y43975190D01*
X39197180Y43731507D01*
X39030911Y43499618D01*
X38838459Y43284323D01*
X38624534Y43090422D01*
X38393845Y42922715D01*
X38178891Y42799696D01*
X37961742Y42703345D01*
X37744132Y42633551D01*
X37517638Y42588413D01*
X37273834Y42566031D01*
X37128072Y42562731D01*
X36918622Y42569231D01*
X36918622Y42569231D01*
G37*
X36918622Y42569231D02*
X36722981Y42590649D01*
X36533438Y42628985D01*
X36342283Y42686238D01*
X36141804Y42764409D01*
X35924292Y42865496D01*
X35885120Y42885076D01*
X35795228Y42929362D01*
X35710447Y42969239D01*
X35639145Y43000898D01*
X35589690Y43020532D01*
X35582092Y43023004D01*
X35509286Y43044817D01*
X35835197Y43518944D01*
X35914877Y43634823D01*
X35987728Y43740694D01*
X36051270Y43832962D01*
X36103028Y43908033D01*
X36140523Y43962313D01*
X36161277Y43992207D01*
X36164649Y43996941D01*
X36178345Y43987042D01*
X36212057Y43957285D01*
X36259756Y43913073D01*
X36286080Y43888084D01*
X36435228Y43769456D01*
X36602732Y43679313D01*
X36747072Y43629936D01*
X36833717Y43614429D01*
X36942204Y43604979D01*
X37059773Y43601761D01*
X37173666Y43604951D01*
X37271121Y43614724D01*
X37310010Y43622209D01*
X37485288Y43682512D01*
X37643235Y43774590D01*
X37783732Y43898273D01*
X37906665Y44053393D01*
X38011915Y44239781D01*
X38099365Y44457270D01*
X38168900Y44705692D01*
X38210225Y44918357D01*
X38221006Y45012241D01*
X38228352Y45133524D01*
X38232333Y45273493D01*
X38233021Y45423431D01*
X38230486Y45574622D01*
X38224800Y45718351D01*
X38216033Y45845903D01*
X38204256Y45948562D01*
X38201707Y45964401D01*
X38145519Y46219536D01*
X38068964Y46445342D01*
X37971574Y46642831D01*
X37852886Y46813014D01*
X37768637Y46905022D01*
X37617230Y47029943D01*
X37451183Y47122540D01*
X37273299Y47182309D01*
X37086378Y47208746D01*
X36893222Y47201348D01*
X36696631Y47159611D01*
X36580403Y47118771D01*
X36419562Y47036990D01*
X36253787Y46919678D01*
X36160927Y46840345D01*
X36108786Y46794429D01*
X36067820Y46760742D01*
X36044502Y46744510D01*
X36041607Y46744015D01*
X36031200Y46760601D01*
X36004233Y46804432D01*
X35963004Y46871748D01*
X35909811Y46958794D01*
X35846950Y47061810D01*
X35776719Y47177041D01*
X35737628Y47241231D01*
X35439036Y47731677D01*
X35811839Y47915915D01*
X35946631Y47982093D01*
X36055825Y48034278D01*
X36146093Y48075060D01*
X36224112Y48107033D01*
X36296556Y48132787D01*
X36370099Y48154914D01*
X36451416Y48176007D01*
X36529357Y48194530D01*
X36598634Y48208863D01*
X36671083Y48219694D01*
X36753958Y48227626D01*
X36854512Y48233258D01*
X36979997Y48237192D01*
X37064572Y48238891D01*
X37185246Y48240050D01*
X37300958Y48239465D01*
X37404049Y48237304D01*
X37486862Y48233732D01*
X37541740Y48228917D01*
X37544992Y48228437D01*
X37829957Y48166786D01*
X38097558Y48073285D01*
X38347703Y47947993D01*
X38580296Y47790974D01*
X38795243Y47602289D01*
X38992450Y47382000D01*
X39135273Y47186214D01*
X39287320Y46929949D01*
X39410227Y46659317D01*
X39504590Y46372149D01*
X39571001Y46066276D01*
X39610056Y45739528D01*
X39622360Y45407739D01*
X39612241Y45086779D01*
X39580439Y44790646D01*
X39525946Y44514345D01*
X39447750Y44252881D01*
X39344841Y44001258D01*
X39332553Y43975190D01*
X39197180Y43731507D01*
X39030911Y43499618D01*
X38838459Y43284323D01*
X38624534Y43090422D01*
X38393845Y42922715D01*
X38178891Y42799696D01*
X37961742Y42703345D01*
X37744132Y42633551D01*
X37517638Y42588413D01*
X37273834Y42566031D01*
X37128072Y42562731D01*
X36918622Y42569231D01*
G36*
X45370089Y41661660D02*
X45020540Y41661707D01*
X44857830Y41661714D01*
X42253429Y41661715D01*
X42253429Y41815238D01*
X42237043Y42002063D01*
X42187588Y42174367D01*
X42104620Y42333175D01*
X41987695Y42479510D01*
X41948136Y42519032D01*
X41805830Y42631138D01*
X41648922Y42712899D01*
X41482072Y42764353D01*
X41309939Y42785537D01*
X41137185Y42776487D01*
X40968470Y42737242D01*
X40808454Y42667838D01*
X40661798Y42568311D01*
X40595932Y42508265D01*
X40473192Y42361043D01*
X40383188Y42199147D01*
X40326706Y42024427D01*
X40304529Y41838735D01*
X40304234Y41820467D01*
X40303072Y41661720D01*
X40233300Y41661717D01*
X40171405Y41670118D01*
X40114865Y41690556D01*
X40111128Y41692667D01*
X40098358Y41699293D01*
X40086632Y41704454D01*
X40075906Y41709651D01*
X40066139Y41716390D01*
X40057288Y41726171D01*
X40049311Y41740500D01*
X40042165Y41760878D01*
X40035808Y41788808D01*
X40030198Y41825795D01*
X40025293Y41873340D01*
X40021049Y41932947D01*
X40017424Y42006119D01*
X40014377Y42094359D01*
X40011864Y42199170D01*
X40009844Y42322055D01*
X40008274Y42464517D01*
X40007112Y42628060D01*
X40006314Y42814186D01*
X40005840Y43024398D01*
X40005646Y43260200D01*
X40005690Y43523094D01*
X40005930Y43814584D01*
X40006323Y44136172D01*
X40006827Y44489362D01*
X40007400Y44875657D01*
X40007999Y45296560D01*
X40008068Y45347840D01*
X40008605Y45771426D01*
X40009061Y46160230D01*
X40009484Y46515753D01*
X40009921Y46839498D01*
X40010422Y47132966D01*
X40011035Y47397661D01*
X40011808Y47635085D01*
X40012789Y47846740D01*
X40014026Y48034129D01*
X40015568Y48198754D01*
X40017463Y48342117D01*
X40019759Y48465720D01*
X40022504Y48571067D01*
X40025747Y48659659D01*
X40029536Y48733000D01*
X40033919Y48792590D01*
X40038945Y48839933D01*
X40044661Y48876531D01*
X40051116Y48903886D01*
X40058359Y48923502D01*
X40066437Y48936879D01*
X40075398Y48945521D01*
X40085292Y48950930D01*
X40096165Y48954608D01*
X40108067Y48958058D01*
X40121046Y48962782D01*
X40124217Y48964220D01*
X40134181Y48967451D01*
X40150859Y48970420D01*
X40175707Y48973137D01*
X40210180Y48975613D01*
X40255736Y48977858D01*
X40313830Y48979883D01*
X40385919Y48981698D01*
X40473458Y48983315D01*
X40577905Y48984743D01*
X40700715Y48985993D01*
X40843345Y48987076D01*
X41007251Y48988002D01*
X41193890Y48988782D01*
X41404716Y48989426D01*
X41641188Y48989946D01*
X41904761Y48990351D01*
X42196890Y48990652D01*
X42519034Y48990860D01*
X42872647Y48990985D01*
X43259186Y48991038D01*
X43680108Y48991029D01*
X43816456Y48991016D01*
X44246716Y48990947D01*
X44642164Y48990834D01*
X45004273Y48990665D01*
X45334517Y48990430D01*
X45634371Y48990116D01*
X45905308Y48989713D01*
X46148800Y48989207D01*
X46366323Y48988589D01*
X46559350Y48987846D01*
X46729354Y48986968D01*
X46877810Y48985941D01*
X47006190Y48984756D01*
X47115969Y48983400D01*
X47208620Y48981862D01*
X47285617Y48980130D01*
X47348434Y48978194D01*
X47398544Y48976040D01*
X47437421Y48973659D01*
X47466538Y48971037D01*
X47487371Y48968165D01*
X47501391Y48965030D01*
X47509034Y48962159D01*
X47522618Y48956430D01*
X47535090Y48952206D01*
X47546498Y48947985D01*
X47556889Y48942268D01*
X47566309Y48933555D01*
X47574808Y48920345D01*
X47582430Y48901137D01*
X47589225Y48874433D01*
X47595238Y48838730D01*
X47600517Y48792530D01*
X47605110Y48734332D01*
X47609064Y48662635D01*
X47612425Y48575940D01*
X47615241Y48472746D01*
X47617560Y48351553D01*
X47619428Y48210860D01*
X47619916Y48156857D01*
X47135704Y48156857D01*
X45424256Y48156857D01*
X45457187Y48106964D01*
X45489947Y48055693D01*
X45517689Y48006869D01*
X45540807Y47957076D01*
X45559697Y47902898D01*
X45574751Y47840916D01*
X45586367Y47767715D01*
X45594936Y47679878D01*
X45600856Y47573988D01*
X45604519Y47446628D01*
X45606321Y47294381D01*
X45606656Y47113832D01*
X45605919Y46901562D01*
X45605501Y46822755D01*
X45600786Y45977911D01*
X45065572Y46706557D01*
X44913946Y46913265D01*
X44782581Y47093260D01*
X44670057Y47248925D01*
X44574957Y47382647D01*
X44495862Y47496809D01*
X44431353Y47593797D01*
X44380012Y47675994D01*
X44340420Y47745786D01*
X44311160Y47805558D01*
X44290812Y47857693D01*
X44277958Y47904576D01*
X44271181Y47948593D01*
X44269060Y47992127D01*
X44270179Y48037564D01*
X44270464Y48043275D01*
X44276357Y48156933D01*
X42400771Y48156857D01*
X42540278Y48016189D01*
X42578135Y47977715D01*
X42614047Y47940279D01*
X42649593Y47901814D01*
X42686347Y47860258D01*
X42725886Y47813545D01*
X42769786Y47759610D01*
X42819623Y47696390D01*
X42876972Y47621818D01*
X42943411Y47533832D01*
X43020515Y47430365D01*
X43109861Y47309354D01*
X43213024Y47168734D01*
X43331580Y47006440D01*
X43467105Y46820407D01*
X43621177Y46608571D01*
X43747462Y46434804D01*
X43905954Y46216501D01*
X44044216Y46025629D01*
X44163499Y45860374D01*
X44265057Y45718926D01*
X44350141Y45599471D01*
X44420005Y45500198D01*
X44475900Y45419295D01*
X44519080Y45354949D01*
X44550797Y45305347D01*
X44572302Y45268679D01*
X44584850Y45243132D01*
X44589692Y45226893D01*
X44588237Y45218355D01*
X44570599Y45195635D01*
X44532466Y45147543D01*
X44476138Y45076938D01*
X44403916Y44986678D01*
X44318101Y44879621D01*
X44220994Y44758627D01*
X44114896Y44626554D01*
X44002109Y44486260D01*
X43884932Y44340603D01*
X43765667Y44192444D01*
X43700067Y44111000D01*
X42071314Y44111000D01*
X42003621Y44233465D01*
X41935929Y44355929D01*
X41935929Y47911929D01*
X42003621Y48034393D01*
X42071314Y48156857D01*
X41270559Y48156857D01*
X41079398Y48156802D01*
X40921501Y48156551D01*
X40793848Y48155979D01*
X40693419Y48154959D01*
X40617193Y48153365D01*
X40562148Y48151070D01*
X40525264Y48147950D01*
X40503521Y48143877D01*
X40493898Y48138725D01*
X40493373Y48132367D01*
X40498926Y48124679D01*
X40498984Y48124615D01*
X40521860Y48091524D01*
X40552151Y48037719D01*
X40578903Y47984008D01*
X40629643Y47875643D01*
X40634818Y45993322D01*
X40639993Y44111000D01*
X42071314Y44111000D01*
X43700067Y44111000D01*
X43646615Y44044639D01*
X43530077Y43900047D01*
X43418354Y43761528D01*
X43313746Y43631939D01*
X43218556Y43514140D01*
X43135083Y43410988D01*
X43065629Y43325343D01*
X43012494Y43260062D01*
X42981285Y43222000D01*
X42860097Y43079670D01*
X42743507Y42951230D01*
X42635603Y42840886D01*
X42540470Y42752841D01*
X42472957Y42698862D01*
X42393127Y42641429D01*
X44229108Y42641429D01*
X44228592Y42749165D01*
X44233724Y42828372D01*
X44253015Y42901805D01*
X44282877Y42971415D01*
X44302288Y43010741D01*
X44323159Y43049707D01*
X44347396Y43090901D01*
X44376906Y43136908D01*
X44413594Y43190317D01*
X44459368Y43253714D01*
X44516135Y43329685D01*
X44585800Y43420817D01*
X44670270Y43529698D01*
X44771453Y43658914D01*
X44891253Y43811052D01*
X45031579Y43988698D01*
X45047429Y44008742D01*
X45600786Y44708508D01*
X45606143Y43933504D01*
X45607221Y43701368D01*
X45606992Y43504846D01*
X45605443Y43343292D01*
X45602563Y43216056D01*
X45598341Y43122492D01*
X45592766Y43061952D01*
X45590893Y43050468D01*
X45561495Y42929499D01*
X45522978Y42820446D01*
X45479026Y42732763D01*
X45452621Y42695574D01*
X45407060Y42641429D01*
X46271530Y42641429D01*
X46477745Y42641605D01*
X46650188Y42642179D01*
X46791373Y42643217D01*
X46903812Y42644787D01*
X46990017Y42646954D01*
X47052502Y42649788D01*
X47093779Y42653353D01*
X47116360Y42657718D01*
X47122759Y42662949D01*
X47122317Y42664107D01*
X47103991Y42691769D01*
X47073396Y42735615D01*
X47057567Y42757791D01*
X47041202Y42779920D01*
X47026492Y42799709D01*
X47013344Y42819106D01*
X47001667Y42840058D01*
X46991368Y42864512D01*
X46982354Y42894416D01*
X46974532Y42931717D01*
X46967809Y42978363D01*
X46962094Y43036301D01*
X46957293Y43107479D01*
X46953315Y43193844D01*
X46950065Y43297344D01*
X46947452Y43419925D01*
X46945383Y43563537D01*
X46943766Y43730125D01*
X46942507Y43921637D01*
X46941515Y44140022D01*
X46940696Y44387226D01*
X46939958Y44665196D01*
X46939209Y44975881D01*
X46938508Y45261300D01*
X46937847Y45579492D01*
X46937503Y45883077D01*
X46937468Y46170115D01*
X46937732Y46438669D01*
X46938285Y46686798D01*
X46939120Y46912563D01*
X46940227Y47114026D01*
X46941596Y47289246D01*
X46943219Y47436286D01*
X46945087Y47553206D01*
X46947189Y47638067D01*
X46949518Y47688929D01*
X46949959Y47694304D01*
X46966008Y47817613D01*
X46991064Y47916644D01*
X47029221Y48003070D01*
X47084572Y48088565D01*
X47091496Y48097893D01*
X47135704Y48156857D01*
X47619916Y48156857D01*
X47620892Y48049168D01*
X47622001Y47864976D01*
X47622801Y47656784D01*
X47623339Y47423091D01*
X47623662Y47162398D01*
X47623817Y46873204D01*
X47623854Y46554009D01*
X47623817Y46203313D01*
X47623755Y45819614D01*
X47623715Y45401414D01*
X47623714Y45318393D01*
X47623691Y44895789D01*
X47623612Y44507981D01*
X47623467Y44153480D01*
X47623244Y43830797D01*
X47622931Y43538442D01*
X47622517Y43274927D01*
X47621991Y43038762D01*
X47621340Y42828458D01*
X47620553Y42642526D01*
X47619619Y42479475D01*
X47618526Y42337818D01*
X47617263Y42216064D01*
X47615817Y42112725D01*
X47614179Y42026311D01*
X47612334Y41955333D01*
X47610274Y41898301D01*
X47607985Y41853727D01*
X47605456Y41820121D01*
X47602676Y41795993D01*
X47599633Y41779856D01*
X47596316Y41770218D01*
X47596193Y41769978D01*
X47589360Y41755255D01*
X47583670Y41741926D01*
X47577374Y41729922D01*
X47568728Y41719173D01*
X47555986Y41709611D01*
X47537400Y41701167D01*
X47511226Y41693771D01*
X47475716Y41687354D01*
X47429125Y41681848D01*
X47369707Y41677183D01*
X47295715Y41673291D01*
X47205403Y41670102D01*
X47097025Y41667547D01*
X46968835Y41665558D01*
X46819087Y41664065D01*
X46646034Y41662998D01*
X46447931Y41662291D01*
X46223031Y41661872D01*
X45969588Y41661673D01*
X45685856Y41661626D01*
X45370089Y41661660D01*
X45370089Y41661660D01*
G37*
X45370089Y41661660D02*
X45020540Y41661707D01*
X44857830Y41661714D01*
X42253429Y41661715D01*
X42253429Y41815238D01*
X42237043Y42002063D01*
X42187588Y42174367D01*
X42104620Y42333175D01*
X41987695Y42479510D01*
X41948136Y42519032D01*
X41805830Y42631138D01*
X41648922Y42712899D01*
X41482072Y42764353D01*
X41309939Y42785537D01*
X41137185Y42776487D01*
X40968470Y42737242D01*
X40808454Y42667838D01*
X40661798Y42568311D01*
X40595932Y42508265D01*
X40473192Y42361043D01*
X40383188Y42199147D01*
X40326706Y42024427D01*
X40304529Y41838735D01*
X40304234Y41820467D01*
X40303072Y41661720D01*
X40233300Y41661717D01*
X40171405Y41670118D01*
X40114865Y41690556D01*
X40111128Y41692667D01*
X40098358Y41699293D01*
X40086632Y41704454D01*
X40075906Y41709651D01*
X40066139Y41716390D01*
X40057288Y41726171D01*
X40049311Y41740500D01*
X40042165Y41760878D01*
X40035808Y41788808D01*
X40030198Y41825795D01*
X40025293Y41873340D01*
X40021049Y41932947D01*
X40017424Y42006119D01*
X40014377Y42094359D01*
X40011864Y42199170D01*
X40009844Y42322055D01*
X40008274Y42464517D01*
X40007112Y42628060D01*
X40006314Y42814186D01*
X40005840Y43024398D01*
X40005646Y43260200D01*
X40005690Y43523094D01*
X40005930Y43814584D01*
X40006323Y44136172D01*
X40006827Y44489362D01*
X40007400Y44875657D01*
X40007999Y45296560D01*
X40008068Y45347840D01*
X40008605Y45771426D01*
X40009061Y46160230D01*
X40009484Y46515753D01*
X40009921Y46839498D01*
X40010422Y47132966D01*
X40011035Y47397661D01*
X40011808Y47635085D01*
X40012789Y47846740D01*
X40014026Y48034129D01*
X40015568Y48198754D01*
X40017463Y48342117D01*
X40019759Y48465720D01*
X40022504Y48571067D01*
X40025747Y48659659D01*
X40029536Y48733000D01*
X40033919Y48792590D01*
X40038945Y48839933D01*
X40044661Y48876531D01*
X40051116Y48903886D01*
X40058359Y48923502D01*
X40066437Y48936879D01*
X40075398Y48945521D01*
X40085292Y48950930D01*
X40096165Y48954608D01*
X40108067Y48958058D01*
X40121046Y48962782D01*
X40124217Y48964220D01*
X40134181Y48967451D01*
X40150859Y48970420D01*
X40175707Y48973137D01*
X40210180Y48975613D01*
X40255736Y48977858D01*
X40313830Y48979883D01*
X40385919Y48981698D01*
X40473458Y48983315D01*
X40577905Y48984743D01*
X40700715Y48985993D01*
X40843345Y48987076D01*
X41007251Y48988002D01*
X41193890Y48988782D01*
X41404716Y48989426D01*
X41641188Y48989946D01*
X41904761Y48990351D01*
X42196890Y48990652D01*
X42519034Y48990860D01*
X42872647Y48990985D01*
X43259186Y48991038D01*
X43680108Y48991029D01*
X43816456Y48991016D01*
X44246716Y48990947D01*
X44642164Y48990834D01*
X45004273Y48990665D01*
X45334517Y48990430D01*
X45634371Y48990116D01*
X45905308Y48989713D01*
X46148800Y48989207D01*
X46366323Y48988589D01*
X46559350Y48987846D01*
X46729354Y48986968D01*
X46877810Y48985941D01*
X47006190Y48984756D01*
X47115969Y48983400D01*
X47208620Y48981862D01*
X47285617Y48980130D01*
X47348434Y48978194D01*
X47398544Y48976040D01*
X47437421Y48973659D01*
X47466538Y48971037D01*
X47487371Y48968165D01*
X47501391Y48965030D01*
X47509034Y48962159D01*
X47522618Y48956430D01*
X47535090Y48952206D01*
X47546498Y48947985D01*
X47556889Y48942268D01*
X47566309Y48933555D01*
X47574808Y48920345D01*
X47582430Y48901137D01*
X47589225Y48874433D01*
X47595238Y48838730D01*
X47600517Y48792530D01*
X47605110Y48734332D01*
X47609064Y48662635D01*
X47612425Y48575940D01*
X47615241Y48472746D01*
X47617560Y48351553D01*
X47619428Y48210860D01*
X47619916Y48156857D01*
X47135704Y48156857D01*
X45424256Y48156857D01*
X45457187Y48106964D01*
X45489947Y48055693D01*
X45517689Y48006869D01*
X45540807Y47957076D01*
X45559697Y47902898D01*
X45574751Y47840916D01*
X45586367Y47767715D01*
X45594936Y47679878D01*
X45600856Y47573988D01*
X45604519Y47446628D01*
X45606321Y47294381D01*
X45606656Y47113832D01*
X45605919Y46901562D01*
X45605501Y46822755D01*
X45600786Y45977911D01*
X45065572Y46706557D01*
X44913946Y46913265D01*
X44782581Y47093260D01*
X44670057Y47248925D01*
X44574957Y47382647D01*
X44495862Y47496809D01*
X44431353Y47593797D01*
X44380012Y47675994D01*
X44340420Y47745786D01*
X44311160Y47805558D01*
X44290812Y47857693D01*
X44277958Y47904576D01*
X44271181Y47948593D01*
X44269060Y47992127D01*
X44270179Y48037564D01*
X44270464Y48043275D01*
X44276357Y48156933D01*
X42400771Y48156857D01*
X42540278Y48016189D01*
X42578135Y47977715D01*
X42614047Y47940279D01*
X42649593Y47901814D01*
X42686347Y47860258D01*
X42725886Y47813545D01*
X42769786Y47759610D01*
X42819623Y47696390D01*
X42876972Y47621818D01*
X42943411Y47533832D01*
X43020515Y47430365D01*
X43109861Y47309354D01*
X43213024Y47168734D01*
X43331580Y47006440D01*
X43467105Y46820407D01*
X43621177Y46608571D01*
X43747462Y46434804D01*
X43905954Y46216501D01*
X44044216Y46025629D01*
X44163499Y45860374D01*
X44265057Y45718926D01*
X44350141Y45599471D01*
X44420005Y45500198D01*
X44475900Y45419295D01*
X44519080Y45354949D01*
X44550797Y45305347D01*
X44572302Y45268679D01*
X44584850Y45243132D01*
X44589692Y45226893D01*
X44588237Y45218355D01*
X44570599Y45195635D01*
X44532466Y45147543D01*
X44476138Y45076938D01*
X44403916Y44986678D01*
X44318101Y44879621D01*
X44220994Y44758627D01*
X44114896Y44626554D01*
X44002109Y44486260D01*
X43884932Y44340603D01*
X43765667Y44192444D01*
X43700067Y44111000D01*
X42071314Y44111000D01*
X42003621Y44233465D01*
X41935929Y44355929D01*
X41935929Y47911929D01*
X42003621Y48034393D01*
X42071314Y48156857D01*
X41270559Y48156857D01*
X41079398Y48156802D01*
X40921501Y48156551D01*
X40793848Y48155979D01*
X40693419Y48154959D01*
X40617193Y48153365D01*
X40562148Y48151070D01*
X40525264Y48147950D01*
X40503521Y48143877D01*
X40493898Y48138725D01*
X40493373Y48132367D01*
X40498926Y48124679D01*
X40498984Y48124615D01*
X40521860Y48091524D01*
X40552151Y48037719D01*
X40578903Y47984008D01*
X40629643Y47875643D01*
X40634818Y45993322D01*
X40639993Y44111000D01*
X42071314Y44111000D01*
X43700067Y44111000D01*
X43646615Y44044639D01*
X43530077Y43900047D01*
X43418354Y43761528D01*
X43313746Y43631939D01*
X43218556Y43514140D01*
X43135083Y43410988D01*
X43065629Y43325343D01*
X43012494Y43260062D01*
X42981285Y43222000D01*
X42860097Y43079670D01*
X42743507Y42951230D01*
X42635603Y42840886D01*
X42540470Y42752841D01*
X42472957Y42698862D01*
X42393127Y42641429D01*
X44229108Y42641429D01*
X44228592Y42749165D01*
X44233724Y42828372D01*
X44253015Y42901805D01*
X44282877Y42971415D01*
X44302288Y43010741D01*
X44323159Y43049707D01*
X44347396Y43090901D01*
X44376906Y43136908D01*
X44413594Y43190317D01*
X44459368Y43253714D01*
X44516135Y43329685D01*
X44585800Y43420817D01*
X44670270Y43529698D01*
X44771453Y43658914D01*
X44891253Y43811052D01*
X45031579Y43988698D01*
X45047429Y44008742D01*
X45600786Y44708508D01*
X45606143Y43933504D01*
X45607221Y43701368D01*
X45606992Y43504846D01*
X45605443Y43343292D01*
X45602563Y43216056D01*
X45598341Y43122492D01*
X45592766Y43061952D01*
X45590893Y43050468D01*
X45561495Y42929499D01*
X45522978Y42820446D01*
X45479026Y42732763D01*
X45452621Y42695574D01*
X45407060Y42641429D01*
X46271530Y42641429D01*
X46477745Y42641605D01*
X46650188Y42642179D01*
X46791373Y42643217D01*
X46903812Y42644787D01*
X46990017Y42646954D01*
X47052502Y42649788D01*
X47093779Y42653353D01*
X47116360Y42657718D01*
X47122759Y42662949D01*
X47122317Y42664107D01*
X47103991Y42691769D01*
X47073396Y42735615D01*
X47057567Y42757791D01*
X47041202Y42779920D01*
X47026492Y42799709D01*
X47013344Y42819106D01*
X47001667Y42840058D01*
X46991368Y42864512D01*
X46982354Y42894416D01*
X46974532Y42931717D01*
X46967809Y42978363D01*
X46962094Y43036301D01*
X46957293Y43107479D01*
X46953315Y43193844D01*
X46950065Y43297344D01*
X46947452Y43419925D01*
X46945383Y43563537D01*
X46943766Y43730125D01*
X46942507Y43921637D01*
X46941515Y44140022D01*
X46940696Y44387226D01*
X46939958Y44665196D01*
X46939209Y44975881D01*
X46938508Y45261300D01*
X46937847Y45579492D01*
X46937503Y45883077D01*
X46937468Y46170115D01*
X46937732Y46438669D01*
X46938285Y46686798D01*
X46939120Y46912563D01*
X46940227Y47114026D01*
X46941596Y47289246D01*
X46943219Y47436286D01*
X46945087Y47553206D01*
X46947189Y47638067D01*
X46949518Y47688929D01*
X46949959Y47694304D01*
X46966008Y47817613D01*
X46991064Y47916644D01*
X47029221Y48003070D01*
X47084572Y48088565D01*
X47091496Y48097893D01*
X47135704Y48156857D01*
X47619916Y48156857D01*
X47620892Y48049168D01*
X47622001Y47864976D01*
X47622801Y47656784D01*
X47623339Y47423091D01*
X47623662Y47162398D01*
X47623817Y46873204D01*
X47623854Y46554009D01*
X47623817Y46203313D01*
X47623755Y45819614D01*
X47623715Y45401414D01*
X47623714Y45318393D01*
X47623691Y44895789D01*
X47623612Y44507981D01*
X47623467Y44153480D01*
X47623244Y43830797D01*
X47622931Y43538442D01*
X47622517Y43274927D01*
X47621991Y43038762D01*
X47621340Y42828458D01*
X47620553Y42642526D01*
X47619619Y42479475D01*
X47618526Y42337818D01*
X47617263Y42216064D01*
X47615817Y42112725D01*
X47614179Y42026311D01*
X47612334Y41955333D01*
X47610274Y41898301D01*
X47607985Y41853727D01*
X47605456Y41820121D01*
X47602676Y41795993D01*
X47599633Y41779856D01*
X47596316Y41770218D01*
X47596193Y41769978D01*
X47589360Y41755255D01*
X47583670Y41741926D01*
X47577374Y41729922D01*
X47568728Y41719173D01*
X47555986Y41709611D01*
X47537400Y41701167D01*
X47511226Y41693771D01*
X47475716Y41687354D01*
X47429125Y41681848D01*
X47369707Y41677183D01*
X47295715Y41673291D01*
X47205403Y41670102D01*
X47097025Y41667547D01*
X46968835Y41665558D01*
X46819087Y41664065D01*
X46646034Y41662998D01*
X46447931Y41662291D01*
X46223031Y41661872D01*
X45969588Y41661673D01*
X45685856Y41661626D01*
X45370089Y41661660D01*
G04 #@! TO.C,M1*
D12*
X-48559524Y-34402380D02*
X-48559524Y-33402380D01*
X-48226191Y-34116666D01*
X-47892858Y-33402380D01*
X-47892858Y-34402380D01*
X-46892858Y-34402380D02*
X-47464286Y-34402380D01*
X-47178572Y-34402380D02*
X-47178572Y-33402380D01*
X-47273810Y-33545238D01*
X-47369048Y-33640476D01*
X-47464286Y-33688095D01*
G04 #@! TO.C,D3*
X-30008096Y-44452380D02*
X-30008096Y-43452380D01*
X-29770000Y-43452380D01*
X-29627143Y-43500000D01*
X-29531905Y-43595238D01*
X-29484286Y-43690476D01*
X-29436667Y-43880952D01*
X-29436667Y-44023809D01*
X-29484286Y-44214285D01*
X-29531905Y-44309523D01*
X-29627143Y-44404761D01*
X-29770000Y-44452380D01*
X-30008096Y-44452380D01*
X-29103334Y-43452380D02*
X-28484286Y-43452380D01*
X-28817620Y-43833333D01*
X-28674762Y-43833333D01*
X-28579524Y-43880952D01*
X-28531905Y-43928571D01*
X-28484286Y-44023809D01*
X-28484286Y-44261904D01*
X-28531905Y-44357142D01*
X-28579524Y-44404761D01*
X-28674762Y-44452380D01*
X-28960477Y-44452380D01*
X-29055715Y-44404761D01*
X-29103334Y-44357142D01*
G04 #@! TO.C,U5*
X-37451905Y877620D02*
X-37451905Y68096D01*
X-37404286Y-27142D01*
X-37356667Y-74761D01*
X-37261429Y-122380D01*
X-37070953Y-122380D01*
X-36975715Y-74761D01*
X-36928096Y-27142D01*
X-36880477Y68096D01*
X-36880477Y877620D01*
X-35928096Y877620D02*
X-36404286Y877620D01*
X-36451905Y401429D01*
X-36404286Y449048D01*
X-36309048Y496667D01*
X-36070953Y496667D01*
X-35975715Y449048D01*
X-35928096Y401429D01*
X-35880477Y306191D01*
X-35880477Y68096D01*
X-35928096Y-27142D01*
X-35975715Y-74761D01*
X-36070953Y-122380D01*
X-36309048Y-122380D01*
X-36404286Y-74761D01*
X-36451905Y-27142D01*
G04 #@! TO.C,U3*
X-38261905Y-40952380D02*
X-38261905Y-41761904D01*
X-38214286Y-41857142D01*
X-38166667Y-41904761D01*
X-38071429Y-41952380D01*
X-37880953Y-41952380D01*
X-37785715Y-41904761D01*
X-37738096Y-41857142D01*
X-37690477Y-41761904D01*
X-37690477Y-40952380D01*
X-37309524Y-40952380D02*
X-36690477Y-40952380D01*
X-37023810Y-41333333D01*
X-36880953Y-41333333D01*
X-36785715Y-41380952D01*
X-36738096Y-41428571D01*
X-36690477Y-41523809D01*
X-36690477Y-41761904D01*
X-36738096Y-41857142D01*
X-36785715Y-41904761D01*
X-36880953Y-41952380D01*
X-37166667Y-41952380D01*
X-37261905Y-41904761D01*
X-37309524Y-41857142D01*
G04 #@! TO.C,U4*
X36888095Y-21352380D02*
X36888095Y-22161904D01*
X36935714Y-22257142D01*
X36983333Y-22304761D01*
X37078571Y-22352380D01*
X37269047Y-22352380D01*
X37364285Y-22304761D01*
X37411904Y-22257142D01*
X37459523Y-22161904D01*
X37459523Y-21352380D01*
X38364285Y-21685714D02*
X38364285Y-22352380D01*
X38126190Y-21304761D02*
X37888095Y-22019047D01*
X38507142Y-22019047D01*
G04 #@! TO.C,J2*
X47666666Y-50982380D02*
X47666666Y-51696666D01*
X47619047Y-51839523D01*
X47523809Y-51934761D01*
X47380952Y-51982380D01*
X47285714Y-51982380D01*
X48095238Y-51077619D02*
X48142857Y-51030000D01*
X48238095Y-50982380D01*
X48476190Y-50982380D01*
X48571428Y-51030000D01*
X48619047Y-51077619D01*
X48666666Y-51172857D01*
X48666666Y-51268095D01*
X48619047Y-51410952D01*
X48047619Y-51982380D01*
X48666666Y-51982380D01*
G04 #@! TO.C,SW5*
X-30333334Y-55654761D02*
X-30190477Y-55702380D01*
X-29952381Y-55702380D01*
X-29857143Y-55654761D01*
X-29809524Y-55607142D01*
X-29761905Y-55511904D01*
X-29761905Y-55416666D01*
X-29809524Y-55321428D01*
X-29857143Y-55273809D01*
X-29952381Y-55226190D01*
X-30142858Y-55178571D01*
X-30238096Y-55130952D01*
X-30285715Y-55083333D01*
X-30333334Y-54988095D01*
X-30333334Y-54892857D01*
X-30285715Y-54797619D01*
X-30238096Y-54750000D01*
X-30142858Y-54702380D01*
X-29904762Y-54702380D01*
X-29761905Y-54750000D01*
X-29428572Y-54702380D02*
X-29190477Y-55702380D01*
X-29000000Y-54988095D01*
X-28809524Y-55702380D01*
X-28571429Y-54702380D01*
X-27714286Y-54702380D02*
X-28190477Y-54702380D01*
X-28238096Y-55178571D01*
X-28190477Y-55130952D01*
X-28095239Y-55083333D01*
X-27857143Y-55083333D01*
X-27761905Y-55130952D01*
X-27714286Y-55178571D01*
X-27666667Y-55273809D01*
X-27666667Y-55511904D01*
X-27714286Y-55607142D01*
X-27761905Y-55654761D01*
X-27857143Y-55702380D01*
X-28095239Y-55702380D01*
X-28190477Y-55654761D01*
X-28238096Y-55607142D01*
G04 #@! TO.C,SW4*
X-38333334Y-55404761D02*
X-38190477Y-55452380D01*
X-37952381Y-55452380D01*
X-37857143Y-55404761D01*
X-37809524Y-55357142D01*
X-37761905Y-55261904D01*
X-37761905Y-55166666D01*
X-37809524Y-55071428D01*
X-37857143Y-55023809D01*
X-37952381Y-54976190D01*
X-38142858Y-54928571D01*
X-38238096Y-54880952D01*
X-38285715Y-54833333D01*
X-38333334Y-54738095D01*
X-38333334Y-54642857D01*
X-38285715Y-54547619D01*
X-38238096Y-54500000D01*
X-38142858Y-54452380D01*
X-37904762Y-54452380D01*
X-37761905Y-54500000D01*
X-37428572Y-54452380D02*
X-37190477Y-55452380D01*
X-37000000Y-54738095D01*
X-36809524Y-55452380D01*
X-36571429Y-54452380D01*
X-35761905Y-54785714D02*
X-35761905Y-55452380D01*
X-36000000Y-54404761D02*
X-36238096Y-55119047D01*
X-35619048Y-55119047D01*
G04 #@! TO.C,MH1*
X24666666Y37747620D02*
X24666666Y38747620D01*
X25000000Y38033334D01*
X25333333Y38747620D01*
X25333333Y37747620D01*
X25809523Y37747620D02*
X25809523Y38747620D01*
X25809523Y38271429D02*
X26380952Y38271429D01*
X26380952Y37747620D02*
X26380952Y38747620D01*
X27380952Y37747620D02*
X26809523Y37747620D01*
X27095238Y37747620D02*
X27095238Y38747620D01*
X27000000Y38604762D01*
X26904761Y38509524D01*
X26809523Y38461905D01*
G04 #@! TO.C,MH2*
X42666666Y54047620D02*
X42666666Y55047620D01*
X43000000Y54333334D01*
X43333333Y55047620D01*
X43333333Y54047620D01*
X43809523Y54047620D02*
X43809523Y55047620D01*
X43809523Y54571429D02*
X44380952Y54571429D01*
X44380952Y54047620D02*
X44380952Y55047620D01*
X44809523Y54952381D02*
X44857142Y55000000D01*
X44952380Y55047620D01*
X45190476Y55047620D01*
X45285714Y55000000D01*
X45333333Y54952381D01*
X45380952Y54857143D01*
X45380952Y54761905D01*
X45333333Y54619048D01*
X44761904Y54047620D01*
X45380952Y54047620D01*
G04 #@! TO.C,MH3*
X24666666Y-31952380D02*
X24666666Y-30952380D01*
X25000000Y-31666666D01*
X25333333Y-30952380D01*
X25333333Y-31952380D01*
X25809523Y-31952380D02*
X25809523Y-30952380D01*
X25809523Y-31428571D02*
X26380952Y-31428571D01*
X26380952Y-31952380D02*
X26380952Y-30952380D01*
X26761904Y-30952380D02*
X27380952Y-30952380D01*
X27047619Y-31333333D01*
X27190476Y-31333333D01*
X27285714Y-31380952D01*
X27333333Y-31428571D01*
X27380952Y-31523809D01*
X27380952Y-31761904D01*
X27333333Y-31857142D01*
X27285714Y-31904761D01*
X27190476Y-31952380D01*
X26904761Y-31952380D01*
X26809523Y-31904761D01*
X26761904Y-31857142D01*
G04 #@! TO.C,MH4*
X-45333334Y54047620D02*
X-45333334Y55047620D01*
X-45000000Y54333334D01*
X-44666667Y55047620D01*
X-44666667Y54047620D01*
X-44190477Y54047620D02*
X-44190477Y55047620D01*
X-44190477Y54571429D02*
X-43619048Y54571429D01*
X-43619048Y54047620D02*
X-43619048Y55047620D01*
X-42714286Y54714286D02*
X-42714286Y54047620D01*
X-42952381Y55095239D02*
X-43190477Y54380953D01*
X-42571429Y54380953D01*
G04 #@! TO.C,MH5*
X-27333334Y-31952380D02*
X-27333334Y-30952380D01*
X-27000000Y-31666666D01*
X-26666667Y-30952380D01*
X-26666667Y-31952380D01*
X-26190477Y-31952380D02*
X-26190477Y-30952380D01*
X-26190477Y-31428571D02*
X-25619048Y-31428571D01*
X-25619048Y-31952380D02*
X-25619048Y-30952380D01*
X-24666667Y-30952380D02*
X-25142858Y-30952380D01*
X-25190477Y-31428571D01*
X-25142858Y-31380952D01*
X-25047620Y-31333333D01*
X-24809524Y-31333333D01*
X-24714286Y-31380952D01*
X-24666667Y-31428571D01*
X-24619048Y-31523809D01*
X-24619048Y-31761904D01*
X-24666667Y-31857142D01*
X-24714286Y-31904761D01*
X-24809524Y-31952380D01*
X-25047620Y-31952380D01*
X-25142858Y-31904761D01*
X-25190477Y-31857142D01*
G04 #@! TO.C,MH6*
X-45333334Y-56952380D02*
X-45333334Y-55952380D01*
X-45000000Y-56666666D01*
X-44666667Y-55952380D01*
X-44666667Y-56952380D01*
X-44190477Y-56952380D02*
X-44190477Y-55952380D01*
X-44190477Y-56428571D02*
X-43619048Y-56428571D01*
X-43619048Y-56952380D02*
X-43619048Y-55952380D01*
X-42714286Y-55952380D02*
X-42904762Y-55952380D01*
X-43000000Y-56000000D01*
X-43047620Y-56047619D01*
X-43142858Y-56190476D01*
X-43190477Y-56380952D01*
X-43190477Y-56761904D01*
X-43142858Y-56857142D01*
X-43095239Y-56904761D01*
X-43000000Y-56952380D01*
X-42809524Y-56952380D01*
X-42714286Y-56904761D01*
X-42666667Y-56857142D01*
X-42619048Y-56761904D01*
X-42619048Y-56523809D01*
X-42666667Y-56428571D01*
X-42714286Y-56380952D01*
X-42809524Y-56333333D01*
X-43000000Y-56333333D01*
X-43095239Y-56380952D01*
X-43142858Y-56428571D01*
X-43190477Y-56523809D01*
G04 #@! TO.C,MH7*
X-27333334Y37747620D02*
X-27333334Y38747620D01*
X-27000000Y38033334D01*
X-26666667Y38747620D01*
X-26666667Y37747620D01*
X-26190477Y37747620D02*
X-26190477Y38747620D01*
X-26190477Y38271429D02*
X-25619048Y38271429D01*
X-25619048Y37747620D02*
X-25619048Y38747620D01*
X-25238096Y38747620D02*
X-24571429Y38747620D01*
X-25000000Y37747620D01*
G04 #@! TO.C,MH8*
X42666666Y-56952380D02*
X42666666Y-55952380D01*
X43000000Y-56666666D01*
X43333333Y-55952380D01*
X43333333Y-56952380D01*
X43809523Y-56952380D02*
X43809523Y-55952380D01*
X43809523Y-56428571D02*
X44380952Y-56428571D01*
X44380952Y-56952380D02*
X44380952Y-55952380D01*
X45000000Y-56380952D02*
X44904761Y-56333333D01*
X44857142Y-56285714D01*
X44809523Y-56190476D01*
X44809523Y-56142857D01*
X44857142Y-56047619D01*
X44904761Y-56000000D01*
X45000000Y-55952380D01*
X45190476Y-55952380D01*
X45285714Y-56000000D01*
X45333333Y-56047619D01*
X45380952Y-56142857D01*
X45380952Y-56190476D01*
X45333333Y-56285714D01*
X45285714Y-56333333D01*
X45190476Y-56380952D01*
X45000000Y-56380952D01*
X44904761Y-56428571D01*
X44857142Y-56476190D01*
X44809523Y-56571428D01*
X44809523Y-56761904D01*
X44857142Y-56857142D01*
X44904761Y-56904761D01*
X45000000Y-56952380D01*
X45190476Y-56952380D01*
X45285714Y-56904761D01*
X45333333Y-56857142D01*
X45380952Y-56761904D01*
X45380952Y-56571428D01*
X45333333Y-56476190D01*
X45285714Y-56428571D01*
X45190476Y-56380952D01*
G04 #@! TO.C,J7*
X5582380Y-32933333D02*
X6296666Y-32933333D01*
X6439523Y-32980952D01*
X6534761Y-33076190D01*
X6582380Y-33219047D01*
X6582380Y-33314285D01*
X5582380Y-32552380D02*
X5582380Y-31885714D01*
X6582380Y-32314285D01*
G04 #@! TO.C,SW3*
X36324761Y-56143333D02*
X36372380Y-56000476D01*
X36372380Y-55762380D01*
X36324761Y-55667142D01*
X36277142Y-55619523D01*
X36181904Y-55571904D01*
X36086666Y-55571904D01*
X35991428Y-55619523D01*
X35943809Y-55667142D01*
X35896190Y-55762380D01*
X35848571Y-55952857D01*
X35800952Y-56048095D01*
X35753333Y-56095714D01*
X35658095Y-56143333D01*
X35562857Y-56143333D01*
X35467619Y-56095714D01*
X35420000Y-56048095D01*
X35372380Y-55952857D01*
X35372380Y-55714761D01*
X35420000Y-55571904D01*
X35372380Y-55238571D02*
X36372380Y-55000476D01*
X35658095Y-54810000D01*
X36372380Y-54619523D01*
X35372380Y-54381428D01*
X35372380Y-54095714D02*
X35372380Y-53476666D01*
X35753333Y-53810000D01*
X35753333Y-53667142D01*
X35800952Y-53571904D01*
X35848571Y-53524285D01*
X35943809Y-53476666D01*
X36181904Y-53476666D01*
X36277142Y-53524285D01*
X36324761Y-53571904D01*
X36372380Y-53667142D01*
X36372380Y-53952857D01*
X36324761Y-54048095D01*
X36277142Y-54095714D01*
G04 #@! TO.C,Y1*
X-5476191Y-40426190D02*
X-5476191Y-40902380D01*
X-5809524Y-39902380D02*
X-5476191Y-40426190D01*
X-5142858Y-39902380D01*
X-4285715Y-40902380D02*
X-4857143Y-40902380D01*
X-4571429Y-40902380D02*
X-4571429Y-39902380D01*
X-4666667Y-40045238D01*
X-4761905Y-40140476D01*
X-4857143Y-40188095D01*
G04 #@! TO.C,C5*
X36833333Y21142858D02*
X36785714Y21095239D01*
X36642857Y21047620D01*
X36547619Y21047620D01*
X36404761Y21095239D01*
X36309523Y21190477D01*
X36261904Y21285715D01*
X36214285Y21476191D01*
X36214285Y21619048D01*
X36261904Y21809524D01*
X36309523Y21904762D01*
X36404761Y22000000D01*
X36547619Y22047620D01*
X36642857Y22047620D01*
X36785714Y22000000D01*
X36833333Y21952381D01*
X37738095Y22047620D02*
X37261904Y22047620D01*
X37214285Y21571429D01*
X37261904Y21619048D01*
X37357142Y21666667D01*
X37595238Y21666667D01*
X37690476Y21619048D01*
X37738095Y21571429D01*
X37785714Y21476191D01*
X37785714Y21238096D01*
X37738095Y21142858D01*
X37690476Y21095239D01*
X37595238Y21047620D01*
X37357142Y21047620D01*
X37261904Y21095239D01*
X37214285Y21142858D01*
G04 #@! TO.C,D1*
X24781904Y-37242380D02*
X24781904Y-36242380D01*
X25020000Y-36242380D01*
X25162857Y-36290000D01*
X25258095Y-36385238D01*
X25305714Y-36480476D01*
X25353333Y-36670952D01*
X25353333Y-36813809D01*
X25305714Y-37004285D01*
X25258095Y-37099523D01*
X25162857Y-37194761D01*
X25020000Y-37242380D01*
X24781904Y-37242380D01*
X26305714Y-37242380D02*
X25734285Y-37242380D01*
X26020000Y-37242380D02*
X26020000Y-36242380D01*
X25924761Y-36385238D01*
X25829523Y-36480476D01*
X25734285Y-36528095D01*
G04 #@! TO.C,D2*
X-37968096Y-44492380D02*
X-37968096Y-43492380D01*
X-37730000Y-43492380D01*
X-37587143Y-43540000D01*
X-37491905Y-43635238D01*
X-37444286Y-43730476D01*
X-37396667Y-43920952D01*
X-37396667Y-44063809D01*
X-37444286Y-44254285D01*
X-37491905Y-44349523D01*
X-37587143Y-44444761D01*
X-37730000Y-44492380D01*
X-37968096Y-44492380D01*
X-37015715Y-43587619D02*
X-36968096Y-43540000D01*
X-36872858Y-43492380D01*
X-36634762Y-43492380D01*
X-36539524Y-43540000D01*
X-36491905Y-43587619D01*
X-36444286Y-43682857D01*
X-36444286Y-43778095D01*
X-36491905Y-43920952D01*
X-37063334Y-44492380D01*
X-36444286Y-44492380D01*
G04 #@! TO.C,J1*
X27166666Y30667620D02*
X27166666Y29953334D01*
X27119047Y29810477D01*
X27023809Y29715239D01*
X26880952Y29667620D01*
X26785714Y29667620D01*
X28166666Y29667620D02*
X27595238Y29667620D01*
X27880952Y29667620D02*
X27880952Y30667620D01*
X27785714Y30524762D01*
X27690476Y30429524D01*
X27595238Y30381905D01*
G04 #@! TO.C,J3*
X24542380Y-45833333D02*
X25256666Y-45833333D01*
X25399523Y-45880952D01*
X25494761Y-45976190D01*
X25542380Y-46119047D01*
X25542380Y-46214285D01*
X24542380Y-45452380D02*
X24542380Y-44833333D01*
X24923333Y-45166666D01*
X24923333Y-45023809D01*
X24970952Y-44928571D01*
X25018571Y-44880952D01*
X25113809Y-44833333D01*
X25351904Y-44833333D01*
X25447142Y-44880952D01*
X25494761Y-44928571D01*
X25542380Y-45023809D01*
X25542380Y-45309523D01*
X25494761Y-45404761D01*
X25447142Y-45452380D01*
G04 #@! TO.C,J4*
X-6677620Y32266667D02*
X-5963334Y32266667D01*
X-5820477Y32219048D01*
X-5725239Y32123810D01*
X-5677620Y31980953D01*
X-5677620Y31885715D01*
X-6344286Y33171429D02*
X-5677620Y33171429D01*
X-6725239Y32933334D02*
X-6010953Y32695239D01*
X-6010953Y33314286D01*
G04 #@! TO.C,J5*
X-27833334Y-5592380D02*
X-27833334Y-6306666D01*
X-27880953Y-6449523D01*
X-27976191Y-6544761D01*
X-28119048Y-6592380D01*
X-28214286Y-6592380D01*
X-26880953Y-5592380D02*
X-27357143Y-5592380D01*
X-27404762Y-6068571D01*
X-27357143Y-6020952D01*
X-27261905Y-5973333D01*
X-27023810Y-5973333D01*
X-26928572Y-6020952D01*
X-26880953Y-6068571D01*
X-26833334Y-6163809D01*
X-26833334Y-6401904D01*
X-26880953Y-6497142D01*
X-26928572Y-6544761D01*
X-27023810Y-6592380D01*
X-27261905Y-6592380D01*
X-27357143Y-6544761D01*
X-27404762Y-6497142D01*
G04 #@! TO.C,J6*
X27166666Y6687620D02*
X27166666Y5973334D01*
X27119047Y5830477D01*
X27023809Y5735239D01*
X26880952Y5687620D01*
X26785714Y5687620D01*
X28071428Y6687620D02*
X27880952Y6687620D01*
X27785714Y6640000D01*
X27738095Y6592381D01*
X27642857Y6449524D01*
X27595238Y6259048D01*
X27595238Y5878096D01*
X27642857Y5782858D01*
X27690476Y5735239D01*
X27785714Y5687620D01*
X27976190Y5687620D01*
X28071428Y5735239D01*
X28119047Y5782858D01*
X28166666Y5878096D01*
X28166666Y6116191D01*
X28119047Y6211429D01*
X28071428Y6259048D01*
X27976190Y6306667D01*
X27785714Y6306667D01*
X27690476Y6259048D01*
X27642857Y6211429D01*
X27595238Y6116191D01*
G04 #@! TO.C,M2*
X47190476Y-22122380D02*
X47190476Y-21122380D01*
X47523809Y-21836666D01*
X47857142Y-21122380D01*
X47857142Y-22122380D01*
X48285714Y-21217619D02*
X48333333Y-21170000D01*
X48428571Y-21122380D01*
X48666666Y-21122380D01*
X48761904Y-21170000D01*
X48809523Y-21217619D01*
X48857142Y-21312857D01*
X48857142Y-21408095D01*
X48809523Y-21550952D01*
X48238095Y-22122380D01*
X48857142Y-22122380D01*
G04 #@! TO.C,SW1*
X51014761Y25106667D02*
X51062380Y25249524D01*
X51062380Y25487620D01*
X51014761Y25582858D01*
X50967142Y25630477D01*
X50871904Y25678096D01*
X50776666Y25678096D01*
X50681428Y25630477D01*
X50633809Y25582858D01*
X50586190Y25487620D01*
X50538571Y25297143D01*
X50490952Y25201905D01*
X50443333Y25154286D01*
X50348095Y25106667D01*
X50252857Y25106667D01*
X50157619Y25154286D01*
X50110000Y25201905D01*
X50062380Y25297143D01*
X50062380Y25535239D01*
X50110000Y25678096D01*
X50062380Y26011429D02*
X51062380Y26249524D01*
X50348095Y26440000D01*
X51062380Y26630477D01*
X50062380Y26868572D01*
X51062380Y27773334D02*
X51062380Y27201905D01*
X51062380Y27487620D02*
X50062380Y27487620D01*
X50205238Y27392381D01*
X50300476Y27297143D01*
X50348095Y27201905D01*
G04 #@! TO.C,SW2*
X39666666Y-46904761D02*
X39809523Y-46952380D01*
X40047619Y-46952380D01*
X40142857Y-46904761D01*
X40190476Y-46857142D01*
X40238095Y-46761904D01*
X40238095Y-46666666D01*
X40190476Y-46571428D01*
X40142857Y-46523809D01*
X40047619Y-46476190D01*
X39857142Y-46428571D01*
X39761904Y-46380952D01*
X39714285Y-46333333D01*
X39666666Y-46238095D01*
X39666666Y-46142857D01*
X39714285Y-46047619D01*
X39761904Y-46000000D01*
X39857142Y-45952380D01*
X40095238Y-45952380D01*
X40238095Y-46000000D01*
X40571428Y-45952380D02*
X40809523Y-46952380D01*
X41000000Y-46238095D01*
X41190476Y-46952380D01*
X41428571Y-45952380D01*
X41761904Y-46047619D02*
X41809523Y-46000000D01*
X41904761Y-45952380D01*
X42142857Y-45952380D01*
X42238095Y-46000000D01*
X42285714Y-46047619D01*
X42333333Y-46142857D01*
X42333333Y-46238095D01*
X42285714Y-46380952D01*
X41714285Y-46952380D01*
X42333333Y-46952380D01*
G04 #@! TO.C,U1*
X18292380Y-45211904D02*
X19101904Y-45211904D01*
X19197142Y-45164285D01*
X19244761Y-45116666D01*
X19292380Y-45021428D01*
X19292380Y-44830952D01*
X19244761Y-44735714D01*
X19197142Y-44688095D01*
X19101904Y-44640476D01*
X18292380Y-44640476D01*
X19292380Y-43640476D02*
X19292380Y-44211904D01*
X19292380Y-43926190D02*
X18292380Y-43926190D01*
X18435238Y-44021428D01*
X18530476Y-44116666D01*
X18578095Y-44211904D01*
G04 #@! TO.C,U2*
X34948095Y467620D02*
X34948095Y-341904D01*
X34995714Y-437142D01*
X35043333Y-484761D01*
X35138571Y-532380D01*
X35329047Y-532380D01*
X35424285Y-484761D01*
X35471904Y-437142D01*
X35519523Y-341904D01*
X35519523Y467620D01*
X35948095Y372381D02*
X35995714Y420000D01*
X36090952Y467620D01*
X36329047Y467620D01*
X36424285Y420000D01*
X36471904Y372381D01*
X36519523Y277143D01*
X36519523Y181905D01*
X36471904Y39048D01*
X35900476Y-532380D01*
X36519523Y-532380D01*
G04 #@! TD*
M02*
