  0
SECTION
  2
HEADER
  9
$ANGBASE
  50
0.0
  9
$ANGDIR
  70
  1
  9
$MEASUREMENT
  70
0
  0
ENDSEC
  0
SECTION
  2
TABLES
  0
TABLE
  2
LTYPE
  70
4
  0
LTYPE
  5
40F
  2
CONTINUOUS
  70
0
  3
Solid line
  72
65
  73
0
  40
0.0
  0
LTYPE
  5
410
  2
DASHDOT
 70
0
  3
Dash Dot ____ _ ____ _
 72
65
 73
4
 40
2.0
 49
1.25
 49
-0.25
 49
0.25
 49
-0.25
  0
LTYPE
  5
411
  2
DASHED
 70
0
  3
Dashed __ __ __ __ __
 72
65
 73
2
 40
0.75
 49
0.5
 49
-0.25
  0
LTYPE
  5
43B
  2
DOTTED
 70
0
  3
Dotted .  .  .  .
 72
65
 73
2
 40
0.2
 49
0.0
 49
-0.2
  0
ENDTAB
  0
TABLE
  2
STYLE
  70
4
  0
STYLE
  2
KICAD
  70
0
  40
0
  41
1
  42
1
  50
0
  71
0
  3
isocp.shx
  0
STYLE
  2
KICADB
  70
0
  40
0
  41
1
  42
1
  50
0
  71
0
  3
isocp.shx
  0
STYLE
  2
KICADI
  70
0
  40
0
  41
1
  42
1
  50
15
  71
0
  3
isocp.shx
  0
STYLE
  2
KICADBI
  70
0
  40
0
  41
1
  42
1
  50
15
  71
0
  3
isocp.shx
  0
ENDTAB
  0
TABLE
  2
LAYER
  70
30
  0
LAYER
  2
BLACK
  70
0
  62
7
  6
CONTINUOUS
  0
LAYER
  2
GRAY1
  70
0
  62
251
  6
CONTINUOUS
  0
LAYER
  2
GRAY2
  70
0
  62
8
  6
CONTINUOUS
  0
LAYER
  2
GRAY3
  70
0
  62
9
  6
CONTINUOUS
  0
LAYER
  2
WHITE
  70
0
  62
7
  6
CONTINUOUS
  0
LAYER
  2
LYELLOW
  70
0
  62
51
  6
CONTINUOUS
  0
LAYER
  2
BLUE1
  70
0
  62
178
  6
CONTINUOUS
  0
LAYER
  2
GREEN1
  70
0
  62
98
  6
CONTINUOUS
  0
LAYER
  2
CYAN1
  70
0
  62
138
  6
CONTINUOUS
  0
LAYER
  2
RED1
  70
0
  62
18
  6
CONTINUOUS
  0
LAYER
  2
MAGENTA1
  70
0
  62
228
  6
CONTINUOUS
  0
LAYER
  2
BROWN1
  70
0
  62
58
  6
CONTINUOUS
  0
LAYER
  2
BLUE2
  70
0
  62
5
  6
CONTINUOUS
  0
LAYER
  2
GREEN2
  70
0
  62
3
  6
CONTINUOUS
  0
LAYER
  2
CYAN2
  70
0
  62
4
  6
CONTINUOUS
  0
LAYER
  2
RED2
  70
0
  62
1
  6
CONTINUOUS
  0
LAYER
  2
MAGENTA2
  70
0
  62
6
  6
CONTINUOUS
  0
LAYER
  2
BROWN2
  70
0
  62
54
  6
CONTINUOUS
  0
LAYER
  2
BLUE3
  70
0
  62
171
  6
CONTINUOUS
  0
LAYER
  2
GREEN3
  70
0
  62
91
  6
CONTINUOUS
  0
LAYER
  2
CYAN3
  70
0
  62
131
  6
CONTINUOUS
  0
LAYER
  2
RED3
  70
0
  62
11
  6
CONTINUOUS
  0
LAYER
  2
MAGENTA3
  70
0
  62
221
  6
CONTINUOUS
  0
LAYER
  2
YELLOW3
  70
0
  62
2
  6
CONTINUOUS
  0
LAYER
  2
BLUE4
  70
0
  62
5
  6
CONTINUOUS
  0
LAYER
  2
GREEN4
  70
0
  62
3
  6
CONTINUOUS
  0
LAYER
  2
CYAN4
  70
0
  62
4
  6
CONTINUOUS
  0
LAYER
  2
RED4
  70
0
  62
1
  6
CONTINUOUS
  0
LAYER
  2
MAGENTA4
  70
0
  62
6
  6
CONTINUOUS
  0
LAYER
  2
YELLOW4
  70
0
  62
2
  6
CONTINUOUS
  0
ENDTAB
  0
ENDSEC
  0
SECTION
  2
ENTITIES
0
LINE
8
BLACK
6
CONTINUOUS
10
22.2964
20
-33.0056
11
21.9008
21
-33.3713
0
LINE
8
BLACK
6
CONTINUOUS
10
21.9008
20
-33.3713
11
21.408
21
-33.5891
0
LINE
8
BLACK
6
CONTINUOUS
10
21.408
20
-33.5891
11
20.8713
21
-33.6356
0
LINE
8
BLACK
6
CONTINUOUS
10
20.8713
20
-33.6356
11
20.3484
21
-33.5058
0
LINE
8
BLACK
6
CONTINUOUS
10
20.3484
20
-33.5058
11
19.8958
21
-33.2135
0
LINE
8
BLACK
6
CONTINUOUS
10
19.8958
20
-33.2135
11
19.5623
21
-32.7904
0
LINE
8
BLACK
6
CONTINUOUS
10
19.5623
20
-32.7904
11
19.3837
21
-32.2821
0
LINE
8
BLACK
6
CONTINUOUS
10
19.3837
20
-32.2821
11
19.3795
21
-31.7433
0
LINE
8
BLACK
6
CONTINUOUS
10
19.3795
20
-31.7433
11
19.55
21
-31.2323
0
LINE
8
BLACK
6
CONTINUOUS
10
19.55
20
-31.2323
11
19.8769
21
-30.804
0
LINE
8
BLACK
6
CONTINUOUS
10
19.8769
20
-30.804
11
20.3248
21
-30.5047
0
LINE
8
BLACK
6
CONTINUOUS
10
20.3248
20
-30.5047
11
20.8456
21
-30.3666
0
LINE
8
BLACK
6
CONTINUOUS
10
20.8456
20
-30.3666
11
21.383
21
-30.4046
0
LINE
8
BLACK
6
CONTINUOUS
10
21.383
20
-30.4046
11
21.8791
21
-30.6147
0
LINE
8
BLACK
6
CONTINUOUS
10
21.8791
20
-30.6147
11
22.2804
21
-30.9742
0
LINE
8
BLACK
6
CONTINUOUS
10
22.2804
20
-30.9742
11
22.5437
21
-31.4442
0
LINE
8
BLACK
6
CONTINUOUS
10
22.5437
20
-31.4442
11
22.6405
21
-31.9742
0
LINE
8
BLACK
6
CONTINUOUS
10
22.6405
20
-31.9742
11
22.6407
21
-32
0
LINE
8
BLACK
6
CONTINUOUS
10
22.6407
20
-32
11
22.5522
21
-32.5314
0
LINE
8
BLACK
6
CONTINUOUS
10
22.5522
20
-32.5314
11
22.2964
21
-33.0056
0
LINE
8
BLACK
6
CONTINUOUS
10
22.1226
20
-31.1292
11
21.78
21
-30.8126
0
LINE
8
BLACK
6
CONTINUOUS
10
21.78
20
-30.8126
11
21.3533
21
-30.6239
0
LINE
8
BLACK
6
CONTINUOUS
10
21.3533
20
-30.6239
11
20.8885
21
-30.5837
0
LINE
8
BLACK
6
CONTINUOUS
10
20.8885
20
-30.5837
11
20.4358
21
-30.6962
0
LINE
8
BLACK
6
CONTINUOUS
10
20.4358
20
-30.6962
11
20.0439
21
-30.9492
0
LINE
8
BLACK
6
CONTINUOUS
10
20.0439
20
-30.9492
11
19.755
21
-31.3156
0
LINE
8
BLACK
6
CONTINUOUS
10
19.755
20
-31.3156
11
19.6005
21
-31.7557
0
LINE
8
BLACK
6
CONTINUOUS
10
19.6005
20
-31.7557
11
19.5968
21
-32.2222
0
LINE
8
BLACK
6
CONTINUOUS
10
19.5968
20
-32.2222
11
19.7444
21
-32.6648
0
LINE
8
BLACK
6
CONTINUOUS
10
19.7444
20
-32.6648
11
20.0275
21
-33.0356
0
LINE
8
BLACK
6
CONTINUOUS
10
20.0275
20
-33.0356
11
20.4154
21
-33.2948
0
LINE
8
BLACK
6
CONTINUOUS
10
20.4154
20
-33.2948
11
20.8663
21
-33.4144
0
LINE
8
BLACK
6
CONTINUOUS
10
20.8663
20
-33.4144
11
21.3317
21
-33.3814
0
LINE
8
BLACK
6
CONTINUOUS
10
21.3317
20
-33.3814
11
21.7612
21
-33.1995
0
LINE
8
BLACK
6
CONTINUOUS
10
21.7612
20
-33.1995
11
22.1088
21
-32.8883
0
LINE
8
BLACK
6
CONTINUOUS
10
22.1088
20
-32.8883
11
22.3367
21
-32.4812
0
LINE
8
BLACK
6
CONTINUOUS
10
22.3367
20
-32.4812
11
22.4205
21
-32.0223
0
LINE
8
BLACK
6
CONTINUOUS
10
22.4205
20
-32.0223
11
22.4207
21
-32
0
LINE
8
BLACK
6
CONTINUOUS
10
22.4207
20
-32
11
22.3441
21
-31.5398
0
LINE
8
BLACK
6
CONTINUOUS
10
22.3441
20
-31.5398
11
22.1226
21
-31.1292
0
LINE
8
BLACK
6
CONTINUOUS
10
-19.7199
20
-32.9929
11
-20.1106
21
-33.354
0
LINE
8
BLACK
6
CONTINUOUS
10
-20.1106
20
-33.354
11
-20.5971
21
-33.5691
0
LINE
8
BLACK
6
CONTINUOUS
10
-20.5971
20
-33.5691
11
-21.1271
21
-33.615
0
LINE
8
BLACK
6
CONTINUOUS
10
-21.1271
20
-33.615
11
-21.6434
21
-33.4868
0
LINE
8
BLACK
6
CONTINUOUS
10
-21.6434
20
-33.4868
11
-22.0903
21
-33.1982
0
LINE
8
BLACK
6
CONTINUOUS
10
-22.0903
20
-33.1982
11
-22.4196
21
-32.7804
0
LINE
8
BLACK
6
CONTINUOUS
10
-22.4196
20
-32.7804
11
-22.5959
21
-32.2785
0
LINE
8
BLACK
6
CONTINUOUS
10
-22.5959
20
-32.2785
11
-22.6001
21
-31.7466
0
LINE
8
BLACK
6
CONTINUOUS
10
-22.6001
20
-31.7466
11
-22.4317
21
-31.242
0
LINE
8
BLACK
6
CONTINUOUS
10
-22.4317
20
-31.242
11
-22.109
21
-30.8191
0
LINE
8
BLACK
6
CONTINUOUS
10
-22.109
20
-30.8191
11
-21.6667
21
-30.5235
0
LINE
8
BLACK
6
CONTINUOUS
10
-21.6667
20
-30.5235
11
-21.1525
21
-30.3872
0
LINE
8
BLACK
6
CONTINUOUS
10
-21.1525
20
-30.3872
11
-20.6218
21
-30.4248
0
LINE
8
BLACK
6
CONTINUOUS
10
-20.6218
20
-30.4248
11
-20.132
21
-30.6322
0
LINE
8
BLACK
6
CONTINUOUS
10
-20.132
20
-30.6322
11
-19.7357
21
-30.9871
0
LINE
8
BLACK
6
CONTINUOUS
10
-19.7357
20
-30.9871
11
-19.4758
21
-31.4512
0
LINE
8
BLACK
6
CONTINUOUS
10
-19.4758
20
-31.4512
11
-19.3802
21
-31.9746
0
LINE
8
BLACK
6
CONTINUOUS
10
-19.3802
20
-31.9746
11
-19.38
21
-32
0
LINE
8
BLACK
6
CONTINUOUS
10
-19.38
20
-32
11
-19.4673
21
-32.5247
0
LINE
8
BLACK
6
CONTINUOUS
10
-19.4673
20
-32.5247
11
-19.7199
21
-32.9929
0
LINE
8
BLACK
6
CONTINUOUS
10
-19.8938
20
-31.1419
11
-20.2314
21
-30.8299
0
LINE
8
BLACK
6
CONTINUOUS
10
-20.2314
20
-30.8299
11
-20.6518
21
-30.644
0
LINE
8
BLACK
6
CONTINUOUS
10
-20.6518
20
-30.644
11
-21.1098
21
-30.6043
0
LINE
8
BLACK
6
CONTINUOUS
10
-21.1098
20
-30.6043
11
-21.556
21
-30.7151
0
LINE
8
BLACK
6
CONTINUOUS
10
-21.556
20
-30.7151
11
-21.9422
21
-30.9645
0
LINE
8
BLACK
6
CONTINUOUS
10
-21.9422
20
-30.9645
11
-22.2268
21
-31.3255
0
LINE
8
BLACK
6
CONTINUOUS
10
-22.2268
20
-31.3255
11
-22.3792
21
-31.7593
0
LINE
8
BLACK
6
CONTINUOUS
10
-22.3792
20
-31.7593
11
-22.3828
21
-32.219
0
LINE
8
BLACK
6
CONTINUOUS
10
-22.3828
20
-32.219
11
-22.2373
21
-32.6551
0
LINE
8
BLACK
6
CONTINUOUS
10
-22.2373
20
-32.6551
11
-21.9584
21
-33.0206
0
LINE
8
BLACK
6
CONTINUOUS
10
-21.9584
20
-33.0206
11
-21.5761
21
-33.276
0
LINE
8
BLACK
6
CONTINUOUS
10
-21.5761
20
-33.276
11
-21.1318
21
-33.3938
0
LINE
8
BLACK
6
CONTINUOUS
10
-21.1318
20
-33.3938
11
-20.6732
21
-33.3613
0
LINE
8
BLACK
6
CONTINUOUS
10
-20.6732
20
-33.3613
11
-20.2498
21
-33.1821
0
LINE
8
BLACK
6
CONTINUOUS
10
-20.2498
20
-33.1821
11
-19.9074
21
-32.8753
0
LINE
8
BLACK
6
CONTINUOUS
10
-19.9074
20
-32.8753
11
-19.6828
21
-32.4742
0
LINE
8
BLACK
6
CONTINUOUS
10
-19.6828
20
-32.4742
11
-19.6002
21
-32.022
0
LINE
8
BLACK
6
CONTINUOUS
10
-19.6002
20
-32.022
11
-19.6
21
-32
0
LINE
8
BLACK
6
CONTINUOUS
10
-19.6
20
-32
11
-19.6755
21
-31.5465
0
LINE
8
BLACK
6
CONTINUOUS
10
-19.6755
20
-31.5465
11
-19.8938
21
-31.1419
0
LINE
8
BLACK
6
CONTINUOUS
10
22.2964
20
-6.00559
11
21.9008
21
-6.3713
0
LINE
8
BLACK
6
CONTINUOUS
10
21.9008
20
-6.3713
11
21.408
21
-6.58915
0
LINE
8
BLACK
6
CONTINUOUS
10
21.408
20
-6.58915
11
20.8713
21
-6.63563
0
LINE
8
BLACK
6
CONTINUOUS
10
20.8713
20
-6.63563
11
20.3484
21
-6.50575
0
LINE
8
BLACK
6
CONTINUOUS
10
20.3484
20
-6.50575
11
19.8958
21
-6.21351
0
LINE
8
BLACK
6
CONTINUOUS
10
19.8958
20
-6.21351
11
19.5623
21
-5.79041
0
LINE
8
BLACK
6
CONTINUOUS
10
19.5623
20
-5.79041
11
19.3837
21
-5.28208
0
LINE
8
BLACK
6
CONTINUOUS
10
19.3837
20
-5.28208
11
19.3795
21
-4.74334
0
LINE
8
BLACK
6
CONTINUOUS
10
19.3795
20
-4.74334
11
19.55
21
-4.23227
0
LINE
8
BLACK
6
CONTINUOUS
10
19.55
20
-4.23227
11
19.8769
21
-3.80399
0
LINE
8
BLACK
6
CONTINUOUS
10
19.8769
20
-3.80399
11
20.3248
21
-3.50467
0
LINE
8
BLACK
6
CONTINUOUS
10
20.3248
20
-3.50467
11
20.8456
21
-3.36659
0
LINE
8
BLACK
6
CONTINUOUS
10
20.8456
20
-3.36659
11
21.383
21
-3.40464
0
LINE
8
BLACK
6
CONTINUOUS
10
21.383
20
-3.40464
11
21.8791
21
-3.61472
0
LINE
8
BLACK
6
CONTINUOUS
10
21.8791
20
-3.61472
11
22.2804
21
-3.97417
0
LINE
8
BLACK
6
CONTINUOUS
10
22.2804
20
-3.97417
11
22.5437
21
-4.44424
0
LINE
8
BLACK
6
CONTINUOUS
10
22.5437
20
-4.44424
11
22.6405
21
-4.97423
0
LINE
8
BLACK
6
CONTINUOUS
10
22.6405
20
-4.97423
11
22.6407
21
-5
0
LINE
8
BLACK
6
CONTINUOUS
10
22.6407
20
-5
11
22.5522
21
-5.53145
0
LINE
8
BLACK
6
CONTINUOUS
10
22.5522
20
-5.53145
11
22.2964
21
-6.00559
0
LINE
8
BLACK
6
CONTINUOUS
10
22.1226
20
-4.12925
11
21.78
21
-3.81258
0
LINE
8
BLACK
6
CONTINUOUS
10
21.78
20
-3.81258
11
21.3533
21
-3.62394
0
LINE
8
BLACK
6
CONTINUOUS
10
21.3533
20
-3.62394
11
20.8885
21
-3.58369
0
LINE
8
BLACK
6
CONTINUOUS
10
20.8885
20
-3.58369
11
20.4358
21
-3.69615
0
LINE
8
BLACK
6
CONTINUOUS
10
20.4358
20
-3.69615
11
20.0439
21
-3.94921
0
LINE
8
BLACK
6
CONTINUOUS
10
20.0439
20
-3.94921
11
19.755
21
-4.31558
0
LINE
8
BLACK
6
CONTINUOUS
10
19.755
20
-4.31558
11
19.6005
21
-4.75574
0
LINE
8
BLACK
6
CONTINUOUS
10
19.6005
20
-4.75574
11
19.5968
21
-5.22225
0
LINE
8
BLACK
6
CONTINUOUS
10
19.5968
20
-5.22225
11
19.7444
21
-5.66478
0
LINE
8
BLACK
6
CONTINUOUS
10
19.7444
20
-5.66478
11
20.0275
21
-6.03564
0
LINE
8
BLACK
6
CONTINUOUS
10
20.0275
20
-6.03564
11
20.4154
21
-6.29482
0
LINE
8
BLACK
6
CONTINUOUS
10
20.4154
20
-6.29482
11
20.8663
21
-6.41439
0
LINE
8
BLACK
6
CONTINUOUS
10
20.8663
20
-6.41439
11
21.3317
21
-6.38144
0
LINE
8
BLACK
6
CONTINUOUS
10
21.3317
20
-6.38144
11
21.7612
21
-6.19953
0
LINE
8
BLACK
6
CONTINUOUS
10
21.7612
20
-6.19953
11
22.1088
21
-5.88828
0
LINE
8
BLACK
6
CONTINUOUS
10
22.1088
20
-5.88828
11
22.3367
21
-5.48124
0
LINE
8
BLACK
6
CONTINUOUS
10
22.3367
20
-5.48124
11
22.4205
21
-5.02231
0
LINE
8
BLACK
6
CONTINUOUS
10
22.4205
20
-5.02231
11
22.4207
21
-5
0
LINE
8
BLACK
6
CONTINUOUS
10
22.4207
20
-5
11
22.3441
21
-4.53981
0
LINE
8
BLACK
6
CONTINUOUS
10
22.3441
20
-4.53981
11
22.1226
21
-4.12925
0
LINE
8
BLACK
6
CONTINUOUS
10
-19.7199
20
-5.99291
11
-20.1106
21
-6.35401
0
LINE
8
BLACK
6
CONTINUOUS
10
-20.1106
20
-6.35401
11
-20.5971
21
-6.5691
0
LINE
8
BLACK
6
CONTINUOUS
10
-20.5971
20
-6.5691
11
-21.1271
21
-6.61501
0
LINE
8
BLACK
6
CONTINUOUS
10
-21.1271
20
-6.61501
11
-21.6434
21
-6.48676
0
LINE
8
BLACK
6
CONTINUOUS
10
-21.6434
20
-6.48676
11
-22.0903
21
-6.1982
0
LINE
8
BLACK
6
CONTINUOUS
10
-22.0903
20
-6.1982
11
-22.4196
21
-5.78044
0
LINE
8
BLACK
6
CONTINUOUS
10
-22.4196
20
-5.78044
11
-22.5959
21
-5.27853
0
LINE
8
BLACK
6
CONTINUOUS
10
-22.5959
20
-5.27853
11
-22.6001
21
-4.74658
0
LINE
8
BLACK
6
CONTINUOUS
10
-22.6001
20
-4.74658
11
-22.4317
21
-4.24195
0
LINE
8
BLACK
6
CONTINUOUS
10
-22.4317
20
-4.24195
11
-22.109
21
-3.81907
0
LINE
8
BLACK
6
CONTINUOUS
10
-22.109
20
-3.81907
11
-21.6667
21
-3.52353
0
LINE
8
BLACK
6
CONTINUOUS
10
-21.6667
20
-3.52353
11
-21.1525
21
-3.38719
0
LINE
8
BLACK
6
CONTINUOUS
10
-21.1525
20
-3.38719
11
-20.6218
21
-3.42476
0
LINE
8
BLACK
6
CONTINUOUS
10
-20.6218
20
-3.42476
11
-20.132
21
-3.63219
0
LINE
8
BLACK
6
CONTINUOUS
10
-20.132
20
-3.63219
11
-19.7357
21
-3.98711
0
LINE
8
BLACK
6
CONTINUOUS
10
-19.7357
20
-3.98711
11
-19.4758
21
-4.45125
0
LINE
8
BLACK
6
CONTINUOUS
10
-19.4758
20
-4.45125
11
-19.3802
21
-4.97455
0
LINE
8
BLACK
6
CONTINUOUS
10
-19.3802
20
-4.97455
11
-19.38
21
-5
0
LINE
8
BLACK
6
CONTINUOUS
10
-19.38
20
-5
11
-19.4673
21
-5.52475
0
LINE
8
BLACK
6
CONTINUOUS
10
-19.4673
20
-5.52475
11
-19.7199
21
-5.99291
0
LINE
8
BLACK
6
CONTINUOUS
10
-19.8938
20
-4.14193
11
-20.2314
21
-3.82987
0
LINE
8
BLACK
6
CONTINUOUS
10
-20.2314
20
-3.82987
11
-20.6518
21
-3.64398
0
LINE
8
BLACK
6
CONTINUOUS
10
-20.6518
20
-3.64398
11
-21.1098
21
-3.60432
0
LINE
8
BLACK
6
CONTINUOUS
10
-21.1098
20
-3.60432
11
-21.556
21
-3.71514
0
LINE
8
BLACK
6
CONTINUOUS
10
-21.556
20
-3.71514
11
-21.9422
21
-3.96452
0
LINE
8
BLACK
6
CONTINUOUS
10
-21.9422
20
-3.96452
11
-22.2268
21
-4.32554
0
LINE
8
BLACK
6
CONTINUOUS
10
-22.2268
20
-4.32554
11
-22.3792
21
-4.7593
0
LINE
8
BLACK
6
CONTINUOUS
10
-22.3792
20
-4.7593
11
-22.3828
21
-5.21901
0
LINE
8
BLACK
6
CONTINUOUS
10
-22.3828
20
-5.21901
11
-22.2373
21
-5.6551
0
LINE
8
BLACK
6
CONTINUOUS
10
-22.2373
20
-5.6551
11
-21.9584
21
-6.02056
0
LINE
8
BLACK
6
CONTINUOUS
10
-21.9584
20
-6.02056
11
-21.5761
21
-6.27596
0
LINE
8
BLACK
6
CONTINUOUS
10
-21.5761
20
-6.27596
11
-21.1318
21
-6.39379
0
LINE
8
BLACK
6
CONTINUOUS
10
-21.1318
20
-6.39379
11
-20.6732
21
-6.36132
0
LINE
8
BLACK
6
CONTINUOUS
10
-20.6732
20
-6.36132
11
-20.2498
21
-6.18206
0
LINE
8
BLACK
6
CONTINUOUS
10
-20.2498
20
-6.18206
11
-19.9074
21
-5.87534
0
LINE
8
BLACK
6
CONTINUOUS
10
-19.9074
20
-5.87534
11
-19.6828
21
-5.47423
0
LINE
8
BLACK
6
CONTINUOUS
10
-19.6828
20
-5.47423
11
-19.6002
21
-5.02199
0
LINE
8
BLACK
6
CONTINUOUS
10
-19.6002
20
-5.02199
11
-19.6
21
-5
0
LINE
8
BLACK
6
CONTINUOUS
10
-19.6
20
-5
11
-19.6755
21
-4.54652
0
LINE
8
BLACK
6
CONTINUOUS
10
-19.6755
20
-4.54652
11
-19.8938
21
-4.14193
0
LINE
8
BLACK
6
CONTINUOUS
10
22.2964
20
3.99441
11
21.9008
21
3.6287
0
LINE
8
BLACK
6
CONTINUOUS
10
21.9008
20
3.6287
11
21.408
21
3.41085
0
LINE
8
BLACK
6
CONTINUOUS
10
21.408
20
3.41085
11
20.8713
21
3.36437
0
LINE
8
BLACK
6
CONTINUOUS
10
20.8713
20
3.36437
11
20.3484
21
3.49425
0
LINE
8
BLACK
6
CONTINUOUS
10
20.3484
20
3.49425
11
19.8958
21
3.78649
0
LINE
8
BLACK
6
CONTINUOUS
10
19.8958
20
3.78649
11
19.5623
21
4.20959
0
LINE
8
BLACK
6
CONTINUOUS
10
19.5623
20
4.20959
11
19.3837
21
4.71792
0
LINE
8
BLACK
6
CONTINUOUS
10
19.3837
20
4.71792
11
19.3795
21
5.25666
0
LINE
8
BLACK
6
CONTINUOUS
10
19.3795
20
5.25666
11
19.55
21
5.76773
0
LINE
8
BLACK
6
CONTINUOUS
10
19.55
20
5.76773
11
19.8769
21
6.19601
0
LINE
8
BLACK
6
CONTINUOUS
10
19.8769
20
6.19601
11
20.3248
21
6.49533
0
LINE
8
BLACK
6
CONTINUOUS
10
20.3248
20
6.49533
11
20.8456
21
6.63341
0
LINE
8
BLACK
6
CONTINUOUS
10
20.8456
20
6.63341
11
21.383
21
6.59536
0
LINE
8
BLACK
6
CONTINUOUS
10
21.383
20
6.59536
11
21.8791
21
6.38528
0
LINE
8
BLACK
6
CONTINUOUS
10
21.8791
20
6.38528
11
22.2804
21
6.02583
0
LINE
8
BLACK
6
CONTINUOUS
10
22.2804
20
6.02583
11
22.5437
21
5.55576
0
LINE
8
BLACK
6
CONTINUOUS
10
22.5437
20
5.55576
11
22.6405
21
5.02577
0
LINE
8
BLACK
6
CONTINUOUS
10
22.6405
20
5.02577
11
22.6407
21
5
0
LINE
8
BLACK
6
CONTINUOUS
10
22.6407
20
5
11
22.5522
21
4.46855
0
LINE
8
BLACK
6
CONTINUOUS
10
22.5522
20
4.46855
11
22.2964
21
3.99441
0
LINE
8
BLACK
6
CONTINUOUS
10
22.1226
20
5.87075
11
21.78
21
6.18742
0
LINE
8
BLACK
6
CONTINUOUS
10
21.78
20
6.18742
11
21.3533
21
6.37606
0
LINE
8
BLACK
6
CONTINUOUS
10
21.3533
20
6.37606
11
20.8885
21
6.41631
0
LINE
8
BLACK
6
CONTINUOUS
10
20.8885
20
6.41631
11
20.4358
21
6.30385
0
LINE
8
BLACK
6
CONTINUOUS
10
20.4358
20
6.30385
11
20.0439
21
6.05079
0
LINE
8
BLACK
6
CONTINUOUS
10
20.0439
20
6.05079
11
19.755
21
5.68442
0
LINE
8
BLACK
6
CONTINUOUS
10
19.755
20
5.68442
11
19.6005
21
5.24426
0
LINE
8
BLACK
6
CONTINUOUS
10
19.6005
20
5.24426
11
19.5968
21
4.77775
0
LINE
8
BLACK
6
CONTINUOUS
10
19.5968
20
4.77775
11
19.7444
21
4.33522
0
LINE
8
BLACK
6
CONTINUOUS
10
19.7444
20
4.33522
11
20.0275
21
3.96436
0
LINE
8
BLACK
6
CONTINUOUS
10
20.0275
20
3.96436
11
20.4154
21
3.70518
0
LINE
8
BLACK
6
CONTINUOUS
10
20.4154
20
3.70518
11
20.8663
21
3.58561
0
LINE
8
BLACK
6
CONTINUOUS
10
20.8663
20
3.58561
11
21.3317
21
3.61856
0
LINE
8
BLACK
6
CONTINUOUS
10
21.3317
20
3.61856
11
21.7612
21
3.80047
0
LINE
8
BLACK
6
CONTINUOUS
10
21.7612
20
3.80047
11
22.1088
21
4.11172
0
LINE
8
BLACK
6
CONTINUOUS
10
22.1088
20
4.11172
11
22.3367
21
4.51876
0
LINE
8
BLACK
6
CONTINUOUS
10
22.3367
20
4.51876
11
22.4205
21
4.97769
0
LINE
8
BLACK
6
CONTINUOUS
10
22.4205
20
4.97769
11
22.4207
21
5
0
LINE
8
BLACK
6
CONTINUOUS
10
22.4207
20
5
11
22.3441
21
5.46019
0
LINE
8
BLACK
6
CONTINUOUS
10
22.3441
20
5.46019
11
22.1226
21
5.87075
0
LINE
8
BLACK
6
CONTINUOUS
10
-19.7036
20
3.99441
11
-20.0992
21
3.6287
0
LINE
8
BLACK
6
CONTINUOUS
10
-20.0992
20
3.6287
11
-20.592
21
3.41085
0
LINE
8
BLACK
6
CONTINUOUS
10
-20.592
20
3.41085
11
-21.1287
21
3.36437
0
LINE
8
BLACK
6
CONTINUOUS
10
-21.1287
20
3.36437
11
-21.6516
21
3.49425
0
LINE
8
BLACK
6
CONTINUOUS
10
-21.6516
20
3.49425
11
-22.1042
21
3.78649
0
LINE
8
BLACK
6
CONTINUOUS
10
-22.1042
20
3.78649
11
-22.4377
21
4.20959
0
LINE
8
BLACK
6
CONTINUOUS
10
-22.4377
20
4.20959
11
-22.6163
21
4.71792
0
LINE
8
BLACK
6
CONTINUOUS
10
-22.6163
20
4.71792
11
-22.6205
21
5.25666
0
LINE
8
BLACK
6
CONTINUOUS
10
-22.6205
20
5.25666
11
-22.45
21
5.76773
0
LINE
8
BLACK
6
CONTINUOUS
10
-22.45
20
5.76773
11
-22.1231
21
6.19601
0
LINE
8
BLACK
6
CONTINUOUS
10
-22.1231
20
6.19601
11
-21.6752
21
6.49533
0
LINE
8
BLACK
6
CONTINUOUS
10
-21.6752
20
6.49533
11
-21.1544
21
6.63341
0
LINE
8
BLACK
6
CONTINUOUS
10
-21.1544
20
6.63341
11
-20.617
21
6.59536
0
LINE
8
BLACK
6
CONTINUOUS
10
-20.617
20
6.59536
11
-20.1209
21
6.38528
0
LINE
8
BLACK
6
CONTINUOUS
10
-20.1209
20
6.38528
11
-19.7196
21
6.02583
0
LINE
8
BLACK
6
CONTINUOUS
10
-19.7196
20
6.02583
11
-19.4563
21
5.55576
0
LINE
8
BLACK
6
CONTINUOUS
10
-19.4563
20
5.55576
11
-19.3595
21
5.02577
0
LINE
8
BLACK
6
CONTINUOUS
10
-19.3595
20
5.02577
11
-19.3593
21
5
0
LINE
8
BLACK
6
CONTINUOUS
10
-19.3593
20
5
11
-19.4478
21
4.46855
0
LINE
8
BLACK
6
CONTINUOUS
10
-19.4478
20
4.46855
11
-19.7036
21
3.99441
0
LINE
8
BLACK
6
CONTINUOUS
10
-19.8774
20
5.87075
11
-20.22
21
6.18742
0
LINE
8
BLACK
6
CONTINUOUS
10
-20.22
20
6.18742
11
-20.6467
21
6.37606
0
LINE
8
BLACK
6
CONTINUOUS
10
-20.6467
20
6.37606
11
-21.1115
21
6.41631
0
LINE
8
BLACK
6
CONTINUOUS
10
-21.1115
20
6.41631
11
-21.5642
21
6.30385
0
LINE
8
BLACK
6
CONTINUOUS
10
-21.5642
20
6.30385
11
-21.9561
21
6.05079
0
LINE
8
BLACK
6
CONTINUOUS
10
-21.9561
20
6.05079
11
-22.245
21
5.68442
0
LINE
8
BLACK
6
CONTINUOUS
10
-22.245
20
5.68442
11
-22.3995
21
5.24426
0
LINE
8
BLACK
6
CONTINUOUS
10
-22.3995
20
5.24426
11
-22.4032
21
4.77775
0
LINE
8
BLACK
6
CONTINUOUS
10
-22.4032
20
4.77775
11
-22.2556
21
4.33522
0
LINE
8
BLACK
6
CONTINUOUS
10
-22.2556
20
4.33522
11
-21.9725
21
3.96436
0
LINE
8
BLACK
6
CONTINUOUS
10
-21.9725
20
3.96436
11
-21.5846
21
3.70518
0
LINE
8
BLACK
6
CONTINUOUS
10
-21.5846
20
3.70518
11
-21.1337
21
3.58561
0
LINE
8
BLACK
6
CONTINUOUS
10
-21.1337
20
3.58561
11
-20.6683
21
3.61856
0
LINE
8
BLACK
6
CONTINUOUS
10
-20.6683
20
3.61856
11
-20.2388
21
3.80047
0
LINE
8
BLACK
6
CONTINUOUS
10
-20.2388
20
3.80047
11
-19.8912
21
4.11172
0
LINE
8
BLACK
6
CONTINUOUS
10
-19.8912
20
4.11172
11
-19.6633
21
4.51876
0
LINE
8
BLACK
6
CONTINUOUS
10
-19.6633
20
4.51876
11
-19.5795
21
4.97769
0
LINE
8
BLACK
6
CONTINUOUS
10
-19.5795
20
4.97769
11
-19.5793
21
5
0
LINE
8
BLACK
6
CONTINUOUS
10
-19.5793
20
5
11
-19.6559
21
5.46019
0
LINE
8
BLACK
6
CONTINUOUS
10
-19.6559
20
5.46019
11
-19.8774
21
5.87075
0
LINE
8
BLACK
6
CONTINUOUS
10
-19.7036
20
30.9944
11
-20.0992
21
30.6287
0
LINE
8
BLACK
6
CONTINUOUS
10
-20.0992
20
30.6287
11
-20.592
21
30.4109
0
LINE
8
BLACK
6
CONTINUOUS
10
-20.592
20
30.4109
11
-21.1287
21
30.3644
0
LINE
8
BLACK
6
CONTINUOUS
10
-21.1287
20
30.3644
11
-21.6516
21
30.4942
0
LINE
8
BLACK
6
CONTINUOUS
10
-21.6516
20
30.4942
11
-22.1042
21
30.7865
0
LINE
8
BLACK
6
CONTINUOUS
10
-22.1042
20
30.7865
11
-22.4377
21
31.2096
0
LINE
8
BLACK
6
CONTINUOUS
10
-22.4377
20
31.2096
11
-22.6163
21
31.7179
0
LINE
8
BLACK
6
CONTINUOUS
10
-22.6163
20
31.7179
11
-22.6205
21
32.2567
0
LINE
8
BLACK
6
CONTINUOUS
10
-22.6205
20
32.2567
11
-22.45
21
32.7677
0
LINE
8
BLACK
6
CONTINUOUS
10
-22.45
20
32.7677
11
-22.1231
21
33.196
0
LINE
8
BLACK
6
CONTINUOUS
10
-22.1231
20
33.196
11
-21.6752
21
33.4953
0
LINE
8
BLACK
6
CONTINUOUS
10
-21.6752
20
33.4953
11
-21.1544
21
33.6334
0
LINE
8
BLACK
6
CONTINUOUS
10
-21.1544
20
33.6334
11
-20.617
21
33.5954
0
LINE
8
BLACK
6
CONTINUOUS
10
-20.617
20
33.5954
11
-20.1209
21
33.3853
0
LINE
8
BLACK
6
CONTINUOUS
10
-20.1209
20
33.3853
11
-19.7196
21
33.0258
0
LINE
8
BLACK
6
CONTINUOUS
10
-19.7196
20
33.0258
11
-19.4563
21
32.5558
0
LINE
8
BLACK
6
CONTINUOUS
10
-19.4563
20
32.5558
11
-19.3595
21
32.0258
0
LINE
8
BLACK
6
CONTINUOUS
10
-19.3595
20
32.0258
11
-19.3593
21
32
0
LINE
8
BLACK
6
CONTINUOUS
10
-19.3593
20
32
11
-19.4478
21
31.4686
0
LINE
8
BLACK
6
CONTINUOUS
10
-19.4478
20
31.4686
11
-19.7036
21
30.9944
0
LINE
8
BLACK
6
CONTINUOUS
10
-19.8774
20
32.8708
11
-20.22
21
33.1874
0
LINE
8
BLACK
6
CONTINUOUS
10
-20.22
20
33.1874
11
-20.6467
21
33.3761
0
LINE
8
BLACK
6
CONTINUOUS
10
-20.6467
20
33.3761
11
-21.1115
21
33.4163
0
LINE
8
BLACK
6
CONTINUOUS
10
-21.1115
20
33.4163
11
-21.5642
21
33.3038
0
LINE
8
BLACK
6
CONTINUOUS
10
-21.5642
20
33.3038
11
-21.9561
21
33.0508
0
LINE
8
BLACK
6
CONTINUOUS
10
-21.9561
20
33.0508
11
-22.245
21
32.6844
0
LINE
8
BLACK
6
CONTINUOUS
10
-22.245
20
32.6844
11
-22.3995
21
32.2443
0
LINE
8
BLACK
6
CONTINUOUS
10
-22.3995
20
32.2443
11
-22.4032
21
31.7778
0
LINE
8
BLACK
6
CONTINUOUS
10
-22.4032
20
31.7778
11
-22.2556
21
31.3352
0
LINE
8
BLACK
6
CONTINUOUS
10
-22.2556
20
31.3352
11
-21.9725
21
30.9644
0
LINE
8
BLACK
6
CONTINUOUS
10
-21.9725
20
30.9644
11
-21.5846
21
30.7052
0
LINE
8
BLACK
6
CONTINUOUS
10
-21.5846
20
30.7052
11
-21.1337
21
30.5856
0
LINE
8
BLACK
6
CONTINUOUS
10
-21.1337
20
30.5856
11
-20.6683
21
30.6186
0
LINE
8
BLACK
6
CONTINUOUS
10
-20.6683
20
30.6186
11
-20.2388
21
30.8005
0
LINE
8
BLACK
6
CONTINUOUS
10
-20.2388
20
30.8005
11
-19.8912
21
31.1117
0
LINE
8
BLACK
6
CONTINUOUS
10
-19.8912
20
31.1117
11
-19.6633
21
31.5188
0
LINE
8
BLACK
6
CONTINUOUS
10
-19.6633
20
31.5188
11
-19.5795
21
31.9777
0
LINE
8
BLACK
6
CONTINUOUS
10
-19.5795
20
31.9777
11
-19.5793
21
32
0
LINE
8
BLACK
6
CONTINUOUS
10
-19.5793
20
32
11
-19.6559
21
32.4602
0
LINE
8
BLACK
6
CONTINUOUS
10
-19.6559
20
32.4602
11
-19.8774
21
32.8708
0
LINE
8
BLACK
6
CONTINUOUS
10
22.2801
20
31.0071
11
21.8894
21
30.646
0
LINE
8
BLACK
6
CONTINUOUS
10
21.8894
20
30.646
11
21.4029
21
30.4309
0
LINE
8
BLACK
6
CONTINUOUS
10
21.4029
20
30.4309
11
20.8729
21
30.385
0
LINE
8
BLACK
6
CONTINUOUS
10
20.8729
20
30.385
11
20.3566
21
30.5132
0
LINE
8
BLACK
6
CONTINUOUS
10
20.3566
20
30.5132
11
19.9097
21
30.8018
0
LINE
8
BLACK
6
CONTINUOUS
10
19.9097
20
30.8018
11
19.5804
21
31.2196
0
LINE
8
BLACK
6
CONTINUOUS
10
19.5804
20
31.2196
11
19.4041
21
31.7215
0
LINE
8
BLACK
6
CONTINUOUS
10
19.4041
20
31.7215
11
19.3999
21
32.2534
0
LINE
8
BLACK
6
CONTINUOUS
10
19.3999
20
32.2534
11
19.5683
21
32.758
0
LINE
8
BLACK
6
CONTINUOUS
10
19.5683
20
32.758
11
19.891
21
33.1809
0
LINE
8
BLACK
6
CONTINUOUS
10
19.891
20
33.1809
11
20.3333
21
33.4765
0
LINE
8
BLACK
6
CONTINUOUS
10
20.3333
20
33.4765
11
20.8475
21
33.6128
0
LINE
8
BLACK
6
CONTINUOUS
10
20.8475
20
33.6128
11
21.3782
21
33.5752
0
LINE
8
BLACK
6
CONTINUOUS
10
21.3782
20
33.5752
11
21.868
21
33.3678
0
LINE
8
BLACK
6
CONTINUOUS
10
21.868
20
33.3678
11
22.2643
21
33.0129
0
LINE
8
BLACK
6
CONTINUOUS
10
22.2643
20
33.0129
11
22.5242
21
32.5488
0
LINE
8
BLACK
6
CONTINUOUS
10
22.5242
20
32.5488
11
22.6198
21
32.0254
0
LINE
8
BLACK
6
CONTINUOUS
10
22.6198
20
32.0254
11
22.62
21
32
0
LINE
8
BLACK
6
CONTINUOUS
10
22.62
20
32
11
22.5327
21
31.4753
0
LINE
8
BLACK
6
CONTINUOUS
10
22.5327
20
31.4753
11
22.2801
21
31.0071
0
LINE
8
BLACK
6
CONTINUOUS
10
22.1062
20
32.8581
11
21.7686
21
33.1701
0
LINE
8
BLACK
6
CONTINUOUS
10
21.7686
20
33.1701
11
21.3482
21
33.356
0
LINE
8
BLACK
6
CONTINUOUS
10
21.3482
20
33.356
11
20.8902
21
33.3957
0
LINE
8
BLACK
6
CONTINUOUS
10
20.8902
20
33.3957
11
20.444
21
33.2849
0
LINE
8
BLACK
6
CONTINUOUS
10
20.444
20
33.2849
11
20.0578
21
33.0355
0
LINE
8
BLACK
6
CONTINUOUS
10
20.0578
20
33.0355
11
19.7732
21
32.6745
0
LINE
8
BLACK
6
CONTINUOUS
10
19.7732
20
32.6745
11
19.6208
21
32.2407
0
LINE
8
BLACK
6
CONTINUOUS
10
19.6208
20
32.2407
11
19.6172
21
31.781
0
LINE
8
BLACK
6
CONTINUOUS
10
19.6172
20
31.781
11
19.7627
21
31.3449
0
LINE
8
BLACK
6
CONTINUOUS
10
19.7627
20
31.3449
11
20.0416
21
30.9794
0
LINE
8
BLACK
6
CONTINUOUS
10
20.0416
20
30.9794
11
20.4239
21
30.724
0
LINE
8
BLACK
6
CONTINUOUS
10
20.4239
20
30.724
11
20.8682
21
30.6062
0
LINE
8
BLACK
6
CONTINUOUS
10
20.8682
20
30.6062
11
21.3268
21
30.6387
0
LINE
8
BLACK
6
CONTINUOUS
10
21.3268
20
30.6387
11
21.7502
21
30.8179
0
LINE
8
BLACK
6
CONTINUOUS
10
21.7502
20
30.8179
11
22.0926
21
31.1247
0
LINE
8
BLACK
6
CONTINUOUS
10
22.0926
20
31.1247
11
22.3172
21
31.5258
0
LINE
8
BLACK
6
CONTINUOUS
10
22.3172
20
31.5258
11
22.3998
21
31.978
0
LINE
8
BLACK
6
CONTINUOUS
10
22.3998
20
31.978
11
22.4
21
32
0
LINE
8
BLACK
6
CONTINUOUS
10
22.4
20
32
11
22.3245
21
32.4535
0
LINE
8
BLACK
6
CONTINUOUS
10
22.3245
20
32.4535
11
22.1062
21
32.8581
  0
ENDSEC
  0
EOF
