M48
;DRILL file {KiCad 5.0.1} date Thu 08 Nov 2018 11:53:51 AM EST
;FORMAT={-:-/ absolute / metric / decimal}
FMAT,2
METRIC,TZ
T1C0.800
T2C0.900
T3C1.000
T4C1.100
T5C3.200
%
G90
G05
M71
T1
X-20.587Y-24.841
X-20.576Y-18.593
X-19.177Y20.701
X-19.063Y-20.015
X-19.063Y-25.984
X-19.05Y-10.668
X-19.05Y-12.573
X-17.907Y27.432
X-16.637Y20.701
X-12.827Y27.426
X-6.363Y-30.632
X-5.08Y-19.304
X-2.54Y-19.304
X-1.397Y21.844
X1.397Y21.768
X3.543Y-7.696
X3.556Y-10.668
X3.556Y-12.7
X3.937Y21.844
X6.362Y-30.607
X6.858Y-18.034
X7.425Y6.375
X8.128Y-12.7
X9.398Y-18.034
X12.814Y-17.073
X12.814Y-18.872
X16.497Y-18.872
X16.51Y-13.462
X19.14Y-27.226
X19.177Y9.567
X19.177Y22.733
X19.177Y20.435
X19.177Y18.636
X19.177Y16.256
X20.32Y-13.462
X20.434Y-18.491
X20.79Y-24.739
X20.942Y-27.229
X5.1Y17.6
X5.1Y15.1
X1.397Y24.765
X1.397Y12.065
X3.937Y24.765
X3.937Y12.065
X6.477Y24.765
X6.477Y12.065
X9.017Y24.765
X9.017Y12.065
X11.557Y24.765
X11.557Y12.065
X14.097Y24.765
X14.097Y12.065
X16.637Y24.765
X16.637Y12.065
X19.177Y24.765
X19.177Y12.065
X6.985Y-2.54
X6.985Y-10.16
X9.525Y-2.54
X9.525Y-10.16
X12.065Y-2.54
X12.065Y-10.16
X14.605Y-2.54
X14.605Y-10.16
X-19.177Y24.765
X-19.177Y12.065
X-16.637Y24.765
X-16.637Y12.065
X-14.097Y24.765
X-14.097Y12.065
X-11.557Y24.765
X-11.557Y12.065
X-9.017Y24.765
X-9.017Y12.065
X-6.477Y24.765
X-6.477Y12.065
X-3.937Y24.765
X-3.937Y12.065
X-1.397Y24.765
X-1.397Y12.065
X-15.2Y29.845
X-12.7Y29.845
X-15.4Y17.6
X-15.4Y15.1
X-16.51Y-8.839
X-16.51Y-16.459
X-13.97Y-8.839
X-13.97Y-16.459
X-11.43Y-8.839
X-11.43Y-16.459
X-8.89Y-8.839
X-8.89Y-16.459
X-6.35Y-8.839
X-6.35Y-16.459
X-3.81Y-8.839
X-3.81Y-16.459
X-1.27Y-8.839
X-1.27Y-16.459
X1.27Y-8.839
X1.27Y-16.459
X-16.51Y-20.955
X-16.51Y-28.575
X-13.97Y-20.955
X-13.97Y-28.575
X-11.43Y-20.955
X-11.43Y-28.575
X-8.89Y-20.955
X-8.89Y-28.575
X-6.35Y-20.955
X-6.35Y-28.575
X-3.81Y-20.955
X-3.81Y-28.575
X-1.27Y-20.955
X-1.27Y-28.575
X1.27Y-20.955
X1.27Y-28.575
X3.81Y-20.955
X3.81Y-28.575
X6.35Y-20.955
X6.35Y-28.575
X8.89Y-20.955
X8.89Y-28.575
X11.43Y-20.955
X11.43Y-28.575
X13.97Y-20.955
X13.97Y-28.575
X16.51Y-20.955
X16.51Y-28.575
T2
X-15.3Y-31.785
X-15.3Y-34.325
X-10.8Y-31.785
X-10.8Y-34.325
T3
X-5.22Y-5.41
X-2.68Y-5.41
X-0.14Y-5.41
X2.4Y-5.41
X-10.16Y34.29
X-7.62Y34.29
X9.525Y8.89
X12.065Y8.89
X14.605Y8.89
X17.145Y8.89
X-5.22Y-2.87
X-2.68Y-2.87
X-0.14Y-2.87
X2.4Y-2.87
X-23.Y-13.42
X-23.Y-15.96
X-23.Y-18.5
X-23.Y-21.04
X-23.Y-23.58
X-5.08Y34.29
X-2.54Y34.29
X-23.Y23.58
X-23.Y21.04
X-23.Y18.5
X-23.Y15.96
X-23.Y13.42
X5.628Y-15.748
X8.128Y-15.748
X10.628Y-15.748
X-15.38Y-5.41
X-12.84Y-5.41
X-10.3Y-5.41
X-7.76Y-5.41
X1.651Y34.29
X1.651Y31.75
X1.651Y29.21
X-15.24Y34.29
X-12.7Y34.29
X23.Y-13.42
X23.Y-15.96
X23.Y-18.5
X23.Y-21.04
X23.Y-23.58
X10.604Y-32.156
X10.604Y-34.696
X13.144Y-32.156
X13.144Y-34.696
X15.684Y-32.156
X15.684Y-34.696
X-17.145Y8.89
X-14.605Y8.89
X-12.065Y8.89
X-9.525Y8.89
X23.Y23.58
X23.Y21.04
X23.Y18.5
X23.Y15.96
X23.Y13.42
X-15.38Y-2.87
X-12.84Y-2.87
X-10.3Y-2.87
X-7.76Y-2.87
T4
X1.85Y8.89
X1.85Y2.39
X6.35Y8.89
X6.35Y2.39
X-6.35Y8.89
X-6.35Y2.39
X-1.85Y8.89
X-1.85Y2.39
X-8.128Y28.956
X-5.588Y28.956
X-3.048Y28.956
T5
X-21.Y-32.
X-21.Y5.
X21.Y32.
X21.Y5.
X-21.Y32.
X21.Y-32.
X-21.Y-5.
X21.Y-5.
T0
M30
