G04 #@! TF.GenerationSoftware,KiCad,Pcbnew,5.0.1*
G04 #@! TF.CreationDate,2018-11-08T11:53:45-05:00*
G04 #@! TF.ProjectId,micromouse,6D6963726F6D6F7573652E6B69636164,rev?*
G04 #@! TF.SameCoordinates,PX8f0d180PY5f5e100*
G04 #@! TF.FileFunction,Copper,L2,Bot,Mixed*
G04 #@! TF.FilePolarity,Positive*
%FSLAX46Y46*%
G04 Gerber Fmt 4.6, Leading zero omitted, Abs format (unit mm)*
G04 Created by KiCad (PCBNEW 5.0.1) date Thu 08 Nov 2018 11:53:45 AM EST*
%MOMM*%
%LPD*%
G01*
G04 APERTURE LIST*
G04 #@! TA.AperFunction,NonConductor*
%ADD10C,0.300000*%
G04 #@! TD*
G04 #@! TA.AperFunction,Conductor*
%ADD11C,0.100000*%
G04 #@! TD*
G04 #@! TA.AperFunction,SMDPad,CuDef*
%ADD12C,0.950000*%
G04 #@! TD*
G04 #@! TA.AperFunction,ComponentPad*
%ADD13R,1.700000X1.700000*%
G04 #@! TD*
G04 #@! TA.AperFunction,ComponentPad*
%ADD14O,1.700000X1.700000*%
G04 #@! TD*
G04 #@! TA.AperFunction,ComponentPad*
%ADD15C,1.800000*%
G04 #@! TD*
G04 #@! TA.AperFunction,ComponentPad*
%ADD16R,1.800000X1.800000*%
G04 #@! TD*
G04 #@! TA.AperFunction,ComponentPad*
%ADD17R,1.600000X1.600000*%
G04 #@! TD*
G04 #@! TA.AperFunction,ComponentPad*
%ADD18C,1.600000*%
G04 #@! TD*
G04 #@! TA.AperFunction,ComponentPad*
%ADD19R,1.905000X2.000000*%
G04 #@! TD*
G04 #@! TA.AperFunction,ComponentPad*
%ADD20O,1.905000X2.000000*%
G04 #@! TD*
G04 #@! TA.AperFunction,ComponentPad*
%ADD21C,1.700000*%
G04 #@! TD*
G04 #@! TA.AperFunction,ComponentPad*
%ADD22O,1.600000X1.600000*%
G04 #@! TD*
G04 #@! TA.AperFunction,ComponentPad*
%ADD23C,2.000000*%
G04 #@! TD*
G04 #@! TA.AperFunction,ComponentPad*
%ADD24R,1.600000X2.400000*%
G04 #@! TD*
G04 #@! TA.AperFunction,ComponentPad*
%ADD25O,1.600000X2.400000*%
G04 #@! TD*
G04 #@! TA.AperFunction,SMDPad,CuDef*
%ADD26C,0.500000*%
G04 #@! TD*
G04 #@! TA.AperFunction,ComponentPad*
%ADD27O,1.200000X2.000000*%
G04 #@! TD*
G04 #@! TA.AperFunction,ViaPad*
%ADD28C,1.600000*%
G04 #@! TD*
G04 #@! TA.AperFunction,Conductor*
%ADD29C,0.300000*%
G04 #@! TD*
G04 APERTURE END LIST*
D10*
X4308333Y-35054761D02*
X4308333Y-33721428D01*
X4308333Y-33911904D02*
X4213095Y-33816666D01*
X4022619Y-33721428D01*
X3736904Y-33721428D01*
X3546428Y-33816666D01*
X3451190Y-34007142D01*
X3451190Y-35054761D01*
X3451190Y-34007142D02*
X3355952Y-33816666D01*
X3165476Y-33721428D01*
X2879761Y-33721428D01*
X2689285Y-33816666D01*
X2594047Y-34007142D01*
X2594047Y-35054761D01*
X1355952Y-35054761D02*
X1546428Y-34959523D01*
X1641666Y-34864285D01*
X1736904Y-34673809D01*
X1736904Y-34102380D01*
X1641666Y-33911904D01*
X1546428Y-33816666D01*
X1355952Y-33721428D01*
X1070238Y-33721428D01*
X879761Y-33816666D01*
X784523Y-33911904D01*
X689285Y-34102380D01*
X689285Y-34673809D01*
X784523Y-34864285D01*
X879761Y-34959523D01*
X1070238Y-35054761D01*
X1355952Y-35054761D01*
X-1025000Y-33721428D02*
X-1025000Y-35054761D01*
X-167858Y-33721428D02*
X-167858Y-34769047D01*
X-263096Y-34959523D01*
X-453572Y-35054761D01*
X-739286Y-35054761D01*
X-929762Y-34959523D01*
X-1025000Y-34864285D01*
X-1882143Y-34959523D02*
X-2072620Y-35054761D01*
X-2453572Y-35054761D01*
X-2644048Y-34959523D01*
X-2739286Y-34769047D01*
X-2739286Y-34673809D01*
X-2644048Y-34483333D01*
X-2453572Y-34388095D01*
X-2167858Y-34388095D01*
X-1977381Y-34292857D01*
X-1882143Y-34102380D01*
X-1882143Y-34007142D01*
X-1977381Y-33816666D01*
X-2167858Y-33721428D01*
X-2453572Y-33721428D01*
X-2644048Y-33816666D01*
X-4358334Y-34959523D02*
X-4167858Y-35054761D01*
X-3786905Y-35054761D01*
X-3596429Y-34959523D01*
X-3501191Y-34769047D01*
X-3501191Y-34007142D01*
X-3596429Y-33816666D01*
X-3786905Y-33721428D01*
X-4167858Y-33721428D01*
X-4358334Y-33816666D01*
X-4453572Y-34007142D01*
X-4453572Y-34197619D01*
X-3501191Y-34388095D01*
X3573809Y-32454761D02*
X3573809Y-30454761D01*
X2907142Y-31883333D01*
X2240476Y-30454761D01*
X2240476Y-32454761D01*
X1288095Y-32454761D02*
X1288095Y-31121428D01*
X1288095Y-30454761D02*
X1383333Y-30550000D01*
X1288095Y-30645238D01*
X1192857Y-30550000D01*
X1288095Y-30454761D01*
X1288095Y-30645238D01*
X-521429Y-32359523D02*
X-330953Y-32454761D01*
X50000Y-32454761D01*
X240476Y-32359523D01*
X335714Y-32264285D01*
X430952Y-32073809D01*
X430952Y-31502380D01*
X335714Y-31311904D01*
X240476Y-31216666D01*
X50000Y-31121428D01*
X-330953Y-31121428D01*
X-521429Y-31216666D01*
X-1378572Y-32454761D02*
X-1378572Y-31121428D01*
X-1378572Y-31502380D02*
X-1473810Y-31311904D01*
X-1569048Y-31216666D01*
X-1759524Y-31121428D01*
X-1950000Y-31121428D01*
X-2902381Y-32454761D02*
X-2711905Y-32359523D01*
X-2616667Y-32264285D01*
X-2521429Y-32073809D01*
X-2521429Y-31502380D01*
X-2616667Y-31311904D01*
X-2711905Y-31216666D01*
X-2902381Y-31121428D01*
X-3188096Y-31121428D01*
X-3378572Y-31216666D01*
X-3473810Y-31311904D01*
X-3569048Y-31502380D01*
X-3569048Y-32073809D01*
X-3473810Y-32264285D01*
X-3378572Y-32359523D01*
X-3188096Y-32454761D01*
X-2902381Y-32454761D01*
D11*
G04 #@! TO.N,Net-(C8-Pad1)*
G04 #@! TO.C,C8*
G36*
X-2724821Y31462056D02*
X-2701766Y31458637D01*
X-2679157Y31452973D01*
X-2657213Y31445121D01*
X-2636143Y31435156D01*
X-2616152Y31423174D01*
X-2597432Y31409290D01*
X-2580162Y31393638D01*
X-2564510Y31376368D01*
X-2550626Y31357648D01*
X-2538644Y31337657D01*
X-2528679Y31316587D01*
X-2520827Y31294643D01*
X-2515163Y31272034D01*
X-2511744Y31248979D01*
X-2510600Y31225700D01*
X-2510600Y30750700D01*
X-2511744Y30727421D01*
X-2515163Y30704366D01*
X-2520827Y30681757D01*
X-2528679Y30659813D01*
X-2538644Y30638743D01*
X-2550626Y30618752D01*
X-2564510Y30600032D01*
X-2580162Y30582762D01*
X-2597432Y30567110D01*
X-2616152Y30553226D01*
X-2636143Y30541244D01*
X-2657213Y30531279D01*
X-2679157Y30523427D01*
X-2701766Y30517763D01*
X-2724821Y30514344D01*
X-2748100Y30513200D01*
X-3323100Y30513200D01*
X-3346379Y30514344D01*
X-3369434Y30517763D01*
X-3392043Y30523427D01*
X-3413987Y30531279D01*
X-3435057Y30541244D01*
X-3455048Y30553226D01*
X-3473768Y30567110D01*
X-3491038Y30582762D01*
X-3506690Y30600032D01*
X-3520574Y30618752D01*
X-3532556Y30638743D01*
X-3542521Y30659813D01*
X-3550373Y30681757D01*
X-3556037Y30704366D01*
X-3559456Y30727421D01*
X-3560600Y30750700D01*
X-3560600Y31225700D01*
X-3559456Y31248979D01*
X-3556037Y31272034D01*
X-3550373Y31294643D01*
X-3542521Y31316587D01*
X-3532556Y31337657D01*
X-3520574Y31357648D01*
X-3506690Y31376368D01*
X-3491038Y31393638D01*
X-3473768Y31409290D01*
X-3455048Y31423174D01*
X-3435057Y31435156D01*
X-3413987Y31445121D01*
X-3392043Y31452973D01*
X-3369434Y31458637D01*
X-3346379Y31462056D01*
X-3323100Y31463200D01*
X-2748100Y31463200D01*
X-2724821Y31462056D01*
X-2724821Y31462056D01*
G37*
D12*
G04 #@! TD*
G04 #@! TO.P,C8,1*
G04 #@! TO.N,Net-(C8-Pad1)*
X-3035600Y30988200D03*
D11*
G04 #@! TO.N,GND*
G04 #@! TO.C,C8*
G36*
X-4474821Y31462056D02*
X-4451766Y31458637D01*
X-4429157Y31452973D01*
X-4407213Y31445121D01*
X-4386143Y31435156D01*
X-4366152Y31423174D01*
X-4347432Y31409290D01*
X-4330162Y31393638D01*
X-4314510Y31376368D01*
X-4300626Y31357648D01*
X-4288644Y31337657D01*
X-4278679Y31316587D01*
X-4270827Y31294643D01*
X-4265163Y31272034D01*
X-4261744Y31248979D01*
X-4260600Y31225700D01*
X-4260600Y30750700D01*
X-4261744Y30727421D01*
X-4265163Y30704366D01*
X-4270827Y30681757D01*
X-4278679Y30659813D01*
X-4288644Y30638743D01*
X-4300626Y30618752D01*
X-4314510Y30600032D01*
X-4330162Y30582762D01*
X-4347432Y30567110D01*
X-4366152Y30553226D01*
X-4386143Y30541244D01*
X-4407213Y30531279D01*
X-4429157Y30523427D01*
X-4451766Y30517763D01*
X-4474821Y30514344D01*
X-4498100Y30513200D01*
X-5073100Y30513200D01*
X-5096379Y30514344D01*
X-5119434Y30517763D01*
X-5142043Y30523427D01*
X-5163987Y30531279D01*
X-5185057Y30541244D01*
X-5205048Y30553226D01*
X-5223768Y30567110D01*
X-5241038Y30582762D01*
X-5256690Y30600032D01*
X-5270574Y30618752D01*
X-5282556Y30638743D01*
X-5292521Y30659813D01*
X-5300373Y30681757D01*
X-5306037Y30704366D01*
X-5309456Y30727421D01*
X-5310600Y30750700D01*
X-5310600Y31225700D01*
X-5309456Y31248979D01*
X-5306037Y31272034D01*
X-5300373Y31294643D01*
X-5292521Y31316587D01*
X-5282556Y31337657D01*
X-5270574Y31357648D01*
X-5256690Y31376368D01*
X-5241038Y31393638D01*
X-5223768Y31409290D01*
X-5205048Y31423174D01*
X-5185057Y31435156D01*
X-5163987Y31445121D01*
X-5142043Y31452973D01*
X-5119434Y31458637D01*
X-5096379Y31462056D01*
X-5073100Y31463200D01*
X-4498100Y31463200D01*
X-4474821Y31462056D01*
X-4474821Y31462056D01*
G37*
D12*
G04 #@! TD*
G04 #@! TO.P,C8,2*
G04 #@! TO.N,GND*
X-4785600Y30988200D03*
D13*
G04 #@! TO.P,J2,1*
G04 #@! TO.N,GNDD*
X10604200Y-34696200D03*
D14*
G04 #@! TO.P,J2,2*
X10604200Y-32156200D03*
G04 #@! TO.P,J2,3*
G04 #@! TO.N,/USB_5V*
X13144200Y-34696200D03*
G04 #@! TO.P,J2,4*
G04 #@! TO.N,/RX*
X13144200Y-32156200D03*
G04 #@! TO.P,J2,5*
G04 #@! TO.N,/TX*
X15684200Y-34696200D03*
G04 #@! TO.P,J2,6*
G04 #@! TO.N,Net-(C9-Pad2)*
X15684200Y-32156200D03*
G04 #@! TD*
D11*
G04 #@! TO.N,Net-(D1-Pad1)*
G04 #@! TO.C,D1*
G36*
X19179Y30524056D02*
X42234Y30520637D01*
X64843Y30514973D01*
X86787Y30507121D01*
X107857Y30497156D01*
X127848Y30485174D01*
X146568Y30471290D01*
X163838Y30455638D01*
X179490Y30438368D01*
X193374Y30419648D01*
X205356Y30399657D01*
X215321Y30378587D01*
X223173Y30356643D01*
X228837Y30334034D01*
X232256Y30310979D01*
X233400Y30287700D01*
X233400Y29712700D01*
X232256Y29689421D01*
X228837Y29666366D01*
X223173Y29643757D01*
X215321Y29621813D01*
X205356Y29600743D01*
X193374Y29580752D01*
X179490Y29562032D01*
X163838Y29544762D01*
X146568Y29529110D01*
X127848Y29515226D01*
X107857Y29503244D01*
X86787Y29493279D01*
X64843Y29485427D01*
X42234Y29479763D01*
X19179Y29476344D01*
X-4100Y29475200D01*
X-479100Y29475200D01*
X-502379Y29476344D01*
X-525434Y29479763D01*
X-548043Y29485427D01*
X-569987Y29493279D01*
X-591057Y29503244D01*
X-611048Y29515226D01*
X-629768Y29529110D01*
X-647038Y29544762D01*
X-662690Y29562032D01*
X-676574Y29580752D01*
X-688556Y29600743D01*
X-698521Y29621813D01*
X-706373Y29643757D01*
X-712037Y29666366D01*
X-715456Y29689421D01*
X-716600Y29712700D01*
X-716600Y30287700D01*
X-715456Y30310979D01*
X-712037Y30334034D01*
X-706373Y30356643D01*
X-698521Y30378587D01*
X-688556Y30399657D01*
X-676574Y30419648D01*
X-662690Y30438368D01*
X-647038Y30455638D01*
X-629768Y30471290D01*
X-611048Y30485174D01*
X-591057Y30497156D01*
X-569987Y30507121D01*
X-548043Y30514973D01*
X-525434Y30520637D01*
X-502379Y30524056D01*
X-479100Y30525200D01*
X-4100Y30525200D01*
X19179Y30524056D01*
X19179Y30524056D01*
G37*
D12*
G04 #@! TD*
G04 #@! TO.P,D1,1*
G04 #@! TO.N,Net-(D1-Pad1)*
X-241600Y30000200D03*
D11*
G04 #@! TO.N,+5V*
G04 #@! TO.C,D1*
G36*
X19179Y32274056D02*
X42234Y32270637D01*
X64843Y32264973D01*
X86787Y32257121D01*
X107857Y32247156D01*
X127848Y32235174D01*
X146568Y32221290D01*
X163838Y32205638D01*
X179490Y32188368D01*
X193374Y32169648D01*
X205356Y32149657D01*
X215321Y32128587D01*
X223173Y32106643D01*
X228837Y32084034D01*
X232256Y32060979D01*
X233400Y32037700D01*
X233400Y31462700D01*
X232256Y31439421D01*
X228837Y31416366D01*
X223173Y31393757D01*
X215321Y31371813D01*
X205356Y31350743D01*
X193374Y31330752D01*
X179490Y31312032D01*
X163838Y31294762D01*
X146568Y31279110D01*
X127848Y31265226D01*
X107857Y31253244D01*
X86787Y31243279D01*
X64843Y31235427D01*
X42234Y31229763D01*
X19179Y31226344D01*
X-4100Y31225200D01*
X-479100Y31225200D01*
X-502379Y31226344D01*
X-525434Y31229763D01*
X-548043Y31235427D01*
X-569987Y31243279D01*
X-591057Y31253244D01*
X-611048Y31265226D01*
X-629768Y31279110D01*
X-647038Y31294762D01*
X-662690Y31312032D01*
X-676574Y31330752D01*
X-688556Y31350743D01*
X-698521Y31371813D01*
X-706373Y31393757D01*
X-712037Y31416366D01*
X-715456Y31439421D01*
X-716600Y31462700D01*
X-716600Y32037700D01*
X-715456Y32060979D01*
X-712037Y32084034D01*
X-706373Y32106643D01*
X-698521Y32128587D01*
X-688556Y32149657D01*
X-676574Y32169648D01*
X-662690Y32188368D01*
X-647038Y32205638D01*
X-629768Y32221290D01*
X-611048Y32235174D01*
X-591057Y32247156D01*
X-569987Y32257121D01*
X-548043Y32264973D01*
X-525434Y32270637D01*
X-502379Y32274056D01*
X-479100Y32275200D01*
X-4100Y32275200D01*
X19179Y32274056D01*
X19179Y32274056D01*
G37*
D12*
G04 #@! TD*
G04 #@! TO.P,D1,2*
G04 #@! TO.N,+5V*
X-241600Y31750200D03*
D15*
G04 #@! TO.P,D2,2*
G04 #@! TO.N,/LED1*
X-10800000Y-31785000D03*
D16*
G04 #@! TO.P,D2,1*
G04 #@! TO.N,Net-(D2-Pad1)*
X-10800000Y-34325000D03*
G04 #@! TD*
G04 #@! TO.P,D3,1*
G04 #@! TO.N,Net-(D3-Pad1)*
X-15300000Y-34325000D03*
D15*
G04 #@! TO.P,D3,2*
G04 #@! TO.N,/LED2*
X-15300000Y-31785000D03*
G04 #@! TD*
D17*
G04 #@! TO.P,C10,1*
G04 #@! TO.N,+BATT*
X5100000Y17600000D03*
D18*
G04 #@! TO.P,C10,2*
G04 #@! TO.N,GND*
X5100000Y15100000D03*
G04 #@! TD*
D19*
G04 #@! TO.P,U2,1*
G04 #@! TO.N,+BATT*
X-8128000Y28956000D03*
D20*
G04 #@! TO.P,U2,2*
G04 #@! TO.N,GND*
X-5588000Y28956000D03*
G04 #@! TO.P,U2,3*
G04 #@! TO.N,Net-(C8-Pad1)*
X-3048000Y28956000D03*
G04 #@! TD*
D21*
G04 #@! TO.P,Y1,1*
G04 #@! TO.N,/XTAL1*
X10628000Y-15748000D03*
G04 #@! TO.P,Y1,2*
G04 #@! TO.N,GNDD*
X8128000Y-15748000D03*
G04 #@! TO.P,Y1,3*
G04 #@! TO.N,/XTAL2*
X5628000Y-15748000D03*
G04 #@! TD*
D14*
G04 #@! TO.P,J1,5*
G04 #@! TO.N,+5VD*
X23000000Y-13420000D03*
G04 #@! TO.P,J1,4*
G04 #@! TO.N,/USB_5V*
X23000000Y-15960000D03*
G04 #@! TO.P,J1,3*
G04 #@! TO.N,GNDD*
X23000000Y-18500000D03*
G04 #@! TO.P,J1,2*
G04 #@! TO.N,/BTN2*
X23000000Y-21040000D03*
D13*
G04 #@! TO.P,J1,1*
G04 #@! TO.N,/BTN1*
X23000000Y-23580000D03*
G04 #@! TD*
G04 #@! TO.P,J8,1*
G04 #@! TO.N,/BTN1_T*
X23000000Y13420000D03*
D14*
G04 #@! TO.P,J8,2*
G04 #@! TO.N,/BTN2_T*
X23000000Y15960000D03*
G04 #@! TO.P,J8,3*
G04 #@! TO.N,GND*
X23000000Y18500000D03*
G04 #@! TO.P,J8,4*
G04 #@! TO.N,/USB_5V_T*
X23000000Y21040000D03*
G04 #@! TO.P,J8,5*
G04 #@! TO.N,+5V*
X23000000Y23580000D03*
G04 #@! TD*
D13*
G04 #@! TO.P,J9,1*
G04 #@! TO.N,/RIGHT_DIR*
X-23000000Y-23580000D03*
D14*
G04 #@! TO.P,J9,2*
G04 #@! TO.N,/RIGHT_STEP*
X-23000000Y-21040000D03*
G04 #@! TO.P,J9,3*
G04 #@! TO.N,/LEFT_DIR*
X-23000000Y-18500000D03*
G04 #@! TO.P,J9,4*
G04 #@! TO.N,/LEFT_STEP*
X-23000000Y-15960000D03*
G04 #@! TO.P,J9,5*
G04 #@! TO.N,/M_ENABLE*
X-23000000Y-13420000D03*
G04 #@! TD*
D13*
G04 #@! TO.P,J12,1*
G04 #@! TO.N,/RIGHT_DIR_T*
X-23000000Y13420000D03*
D14*
G04 #@! TO.P,J12,2*
G04 #@! TO.N,/RIGHT_STEP_T*
X-23000000Y15960000D03*
G04 #@! TO.P,J12,3*
G04 #@! TO.N,/LEFT_DIR_T*
X-23000000Y18500000D03*
G04 #@! TO.P,J12,4*
G04 #@! TO.N,/LEFT_STEP_T*
X-23000000Y21040000D03*
G04 #@! TO.P,J12,5*
G04 #@! TO.N,/M_ENABLE_T*
X-23000000Y23580000D03*
G04 #@! TD*
G04 #@! TO.P,BT1,2*
G04 #@! TO.N,Net-(BT1-Pad2)*
X-10160000Y34290000D03*
D13*
G04 #@! TO.P,BT1,1*
G04 #@! TO.N,Net-(BT1-Pad1)*
X-7620000Y34290000D03*
G04 #@! TD*
G04 #@! TO.P,BT2,1*
G04 #@! TO.N,Net-(BT1-Pad2)*
X-2540000Y34290000D03*
D14*
G04 #@! TO.P,BT2,2*
G04 #@! TO.N,GND*
X-5080000Y34290000D03*
G04 #@! TD*
D13*
G04 #@! TO.P,SW1,1*
G04 #@! TO.N,Net-(BT1-Pad1)*
X-12700000Y34290000D03*
D14*
G04 #@! TO.P,SW1,2*
G04 #@! TO.N,+BATT*
X-15240000Y34290000D03*
G04 #@! TD*
D17*
G04 #@! TO.P,U1,1*
G04 #@! TO.N,/RST*
X16510000Y-20955000D03*
D22*
G04 #@! TO.P,U1,15*
G04 #@! TO.N,/SENSE_TRIG*
X-16510000Y-28575000D03*
G04 #@! TO.P,U1,2*
G04 #@! TO.N,/RX*
X13970000Y-20955000D03*
G04 #@! TO.P,U1,16*
G04 #@! TO.N,/RIGHT_DIR*
X-13970000Y-28575000D03*
G04 #@! TO.P,U1,3*
G04 #@! TO.N,/TX*
X11430000Y-20955000D03*
G04 #@! TO.P,U1,17*
G04 #@! TO.N,/RIGHT_STEP*
X-11430000Y-28575000D03*
G04 #@! TO.P,U1,4*
G04 #@! TO.N,Net-(U1-Pad4)*
X8890000Y-20955000D03*
G04 #@! TO.P,U1,18*
G04 #@! TO.N,/LED2*
X-8890000Y-28575000D03*
G04 #@! TO.P,U1,5*
G04 #@! TO.N,/M_ENABLE*
X6350000Y-20955000D03*
G04 #@! TO.P,U1,19*
G04 #@! TO.N,/LED1*
X-6350000Y-28575000D03*
G04 #@! TO.P,U1,6*
G04 #@! TO.N,/SENSE_SEL_0*
X3810000Y-20955000D03*
G04 #@! TO.P,U1,20*
G04 #@! TO.N,+5VD*
X-3810000Y-28575000D03*
G04 #@! TO.P,U1,7*
X1270000Y-20955000D03*
G04 #@! TO.P,U1,21*
X-1270000Y-28575000D03*
G04 #@! TO.P,U1,8*
G04 #@! TO.N,GNDD*
X-1270000Y-20955000D03*
G04 #@! TO.P,U1,22*
X1270000Y-28575000D03*
G04 #@! TO.P,U1,9*
G04 #@! TO.N,/XTAL1*
X-3810000Y-20955000D03*
G04 #@! TO.P,U1,23*
G04 #@! TO.N,Net-(SW3-Pad4)*
X3810000Y-28575000D03*
G04 #@! TO.P,U1,10*
G04 #@! TO.N,/XTAL2*
X-6350000Y-20955000D03*
G04 #@! TO.P,U1,24*
G04 #@! TO.N,Net-(SW3-Pad3)*
X6350000Y-28575000D03*
G04 #@! TO.P,U1,11*
G04 #@! TO.N,/SENSE_SEL_1*
X-8890000Y-20955000D03*
G04 #@! TO.P,U1,25*
G04 #@! TO.N,Net-(SW3-Pad2)*
X8890000Y-28575000D03*
G04 #@! TO.P,U1,12*
G04 #@! TO.N,/LEFT_STEP*
X-11430000Y-20955000D03*
G04 #@! TO.P,U1,26*
G04 #@! TO.N,Net-(SW3-Pad1)*
X11430000Y-28575000D03*
G04 #@! TO.P,U1,13*
G04 #@! TO.N,/LEFT_DIR*
X-13970000Y-20955000D03*
G04 #@! TO.P,U1,27*
G04 #@! TO.N,/BTN2*
X13970000Y-28575000D03*
G04 #@! TO.P,U1,14*
G04 #@! TO.N,/SENSE_ECHO*
X-16510000Y-20955000D03*
G04 #@! TO.P,U1,28*
G04 #@! TO.N,/BTN1*
X16510000Y-28575000D03*
G04 #@! TD*
D23*
G04 #@! TO.P,SW5,2*
G04 #@! TO.N,GND*
X1850000Y8890000D03*
G04 #@! TO.P,SW5,1*
G04 #@! TO.N,/BTN2_T*
X6350000Y8890000D03*
G04 #@! TO.P,SW5,2*
G04 #@! TO.N,GND*
X1850000Y2390000D03*
G04 #@! TO.P,SW5,1*
G04 #@! TO.N,/BTN2_T*
X6350000Y2390000D03*
G04 #@! TD*
D18*
G04 #@! TO.P,C11,2*
G04 #@! TO.N,GND*
X-15200000Y29845000D03*
D17*
G04 #@! TO.P,C11,1*
G04 #@! TO.N,+BATT*
X-12700000Y29845000D03*
G04 #@! TD*
D13*
G04 #@! TO.P,J7,1*
G04 #@! TO.N,GNDD*
X-5220000Y-5410000D03*
D14*
G04 #@! TO.P,J7,2*
G04 #@! TO.N,/BACK_ECHO*
X-2680000Y-5410000D03*
G04 #@! TO.P,J7,3*
G04 #@! TO.N,/BACK_TRIG*
X-140000Y-5410000D03*
G04 #@! TO.P,J7,4*
G04 #@! TO.N,+5VD*
X2400000Y-5410000D03*
G04 #@! TD*
D24*
G04 #@! TO.P,U5,1*
G04 #@! TO.N,/RIGHT_ECHO*
X-16510000Y-16459000D03*
D25*
G04 #@! TO.P,U5,9*
G04 #@! TO.N,/SENSE_SEL_1*
X1270000Y-8839000D03*
G04 #@! TO.P,U5,2*
G04 #@! TO.N,/LEFT_ECHO*
X-13970000Y-16459000D03*
G04 #@! TO.P,U5,10*
G04 #@! TO.N,/SENSE_SEL_0*
X-1270000Y-8839000D03*
G04 #@! TO.P,U5,3*
G04 #@! TO.N,/SENSE_ECHO*
X-11430000Y-16459000D03*
G04 #@! TO.P,U5,11*
G04 #@! TO.N,/BACK_TRIG*
X-3810000Y-8839000D03*
G04 #@! TO.P,U5,4*
G04 #@! TO.N,/BACK_ECHO*
X-8890000Y-16459000D03*
G04 #@! TO.P,U5,12*
G04 #@! TO.N,/RIGHT_TRIG*
X-6350000Y-8839000D03*
G04 #@! TO.P,U5,5*
G04 #@! TO.N,/FRONT_ECHO*
X-6350000Y-16459000D03*
G04 #@! TO.P,U5,13*
G04 #@! TO.N,/SENSE_TRIG*
X-8890000Y-8839000D03*
G04 #@! TO.P,U5,6*
G04 #@! TO.N,GNDD*
X-3810000Y-16459000D03*
G04 #@! TO.P,U5,14*
G04 #@! TO.N,/FRONT_TRIG*
X-11430000Y-8839000D03*
G04 #@! TO.P,U5,7*
G04 #@! TO.N,GNDD*
X-1270000Y-16459000D03*
G04 #@! TO.P,U5,15*
G04 #@! TO.N,/LEFT_TRIG*
X-13970000Y-8839000D03*
G04 #@! TO.P,U5,8*
G04 #@! TO.N,GNDD*
X1270000Y-16459000D03*
G04 #@! TO.P,U5,16*
G04 #@! TO.N,+5VD*
X-16510000Y-8839000D03*
G04 #@! TD*
D11*
G04 #@! TO.N,GNDD*
G04 #@! TO.C,C1*
G36*
X1185779Y-26196144D02*
X1208834Y-26199563D01*
X1231443Y-26205227D01*
X1253387Y-26213079D01*
X1274457Y-26223044D01*
X1294448Y-26235026D01*
X1313168Y-26248910D01*
X1330438Y-26264562D01*
X1346090Y-26281832D01*
X1359974Y-26300552D01*
X1371956Y-26320543D01*
X1381921Y-26341613D01*
X1389773Y-26363557D01*
X1395437Y-26386166D01*
X1398856Y-26409221D01*
X1400000Y-26432500D01*
X1400000Y-26907500D01*
X1398856Y-26930779D01*
X1395437Y-26953834D01*
X1389773Y-26976443D01*
X1381921Y-26998387D01*
X1371956Y-27019457D01*
X1359974Y-27039448D01*
X1346090Y-27058168D01*
X1330438Y-27075438D01*
X1313168Y-27091090D01*
X1294448Y-27104974D01*
X1274457Y-27116956D01*
X1253387Y-27126921D01*
X1231443Y-27134773D01*
X1208834Y-27140437D01*
X1185779Y-27143856D01*
X1162500Y-27145000D01*
X587500Y-27145000D01*
X564221Y-27143856D01*
X541166Y-27140437D01*
X518557Y-27134773D01*
X496613Y-27126921D01*
X475543Y-27116956D01*
X455552Y-27104974D01*
X436832Y-27091090D01*
X419562Y-27075438D01*
X403910Y-27058168D01*
X390026Y-27039448D01*
X378044Y-27019457D01*
X368079Y-26998387D01*
X360227Y-26976443D01*
X354563Y-26953834D01*
X351144Y-26930779D01*
X350000Y-26907500D01*
X350000Y-26432500D01*
X351144Y-26409221D01*
X354563Y-26386166D01*
X360227Y-26363557D01*
X368079Y-26341613D01*
X378044Y-26320543D01*
X390026Y-26300552D01*
X403910Y-26281832D01*
X419562Y-26264562D01*
X436832Y-26248910D01*
X455552Y-26235026D01*
X475543Y-26223044D01*
X496613Y-26213079D01*
X518557Y-26205227D01*
X541166Y-26199563D01*
X564221Y-26196144D01*
X587500Y-26195000D01*
X1162500Y-26195000D01*
X1185779Y-26196144D01*
X1185779Y-26196144D01*
G37*
D12*
G04 #@! TD*
G04 #@! TO.P,C1,2*
G04 #@! TO.N,GNDD*
X875000Y-26670000D03*
D11*
G04 #@! TO.N,+5VD*
G04 #@! TO.C,C1*
G36*
X-564221Y-26196144D02*
X-541166Y-26199563D01*
X-518557Y-26205227D01*
X-496613Y-26213079D01*
X-475543Y-26223044D01*
X-455552Y-26235026D01*
X-436832Y-26248910D01*
X-419562Y-26264562D01*
X-403910Y-26281832D01*
X-390026Y-26300552D01*
X-378044Y-26320543D01*
X-368079Y-26341613D01*
X-360227Y-26363557D01*
X-354563Y-26386166D01*
X-351144Y-26409221D01*
X-350000Y-26432500D01*
X-350000Y-26907500D01*
X-351144Y-26930779D01*
X-354563Y-26953834D01*
X-360227Y-26976443D01*
X-368079Y-26998387D01*
X-378044Y-27019457D01*
X-390026Y-27039448D01*
X-403910Y-27058168D01*
X-419562Y-27075438D01*
X-436832Y-27091090D01*
X-455552Y-27104974D01*
X-475543Y-27116956D01*
X-496613Y-27126921D01*
X-518557Y-27134773D01*
X-541166Y-27140437D01*
X-564221Y-27143856D01*
X-587500Y-27145000D01*
X-1162500Y-27145000D01*
X-1185779Y-27143856D01*
X-1208834Y-27140437D01*
X-1231443Y-27134773D01*
X-1253387Y-27126921D01*
X-1274457Y-27116956D01*
X-1294448Y-27104974D01*
X-1313168Y-27091090D01*
X-1330438Y-27075438D01*
X-1346090Y-27058168D01*
X-1359974Y-27039448D01*
X-1371956Y-27019457D01*
X-1381921Y-26998387D01*
X-1389773Y-26976443D01*
X-1395437Y-26953834D01*
X-1398856Y-26930779D01*
X-1400000Y-26907500D01*
X-1400000Y-26432500D01*
X-1398856Y-26409221D01*
X-1395437Y-26386166D01*
X-1389773Y-26363557D01*
X-1381921Y-26341613D01*
X-1371956Y-26320543D01*
X-1359974Y-26300552D01*
X-1346090Y-26281832D01*
X-1330438Y-26264562D01*
X-1313168Y-26248910D01*
X-1294448Y-26235026D01*
X-1274457Y-26223044D01*
X-1253387Y-26213079D01*
X-1231443Y-26205227D01*
X-1208834Y-26199563D01*
X-1185779Y-26196144D01*
X-1162500Y-26195000D01*
X-587500Y-26195000D01*
X-564221Y-26196144D01*
X-564221Y-26196144D01*
G37*
D12*
G04 #@! TD*
G04 #@! TO.P,C1,1*
G04 #@! TO.N,+5VD*
X-875000Y-26670000D03*
D11*
G04 #@! TO.N,+5VD*
G04 #@! TO.C,C2*
G36*
X1185779Y-22386144D02*
X1208834Y-22389563D01*
X1231443Y-22395227D01*
X1253387Y-22403079D01*
X1274457Y-22413044D01*
X1294448Y-22425026D01*
X1313168Y-22438910D01*
X1330438Y-22454562D01*
X1346090Y-22471832D01*
X1359974Y-22490552D01*
X1371956Y-22510543D01*
X1381921Y-22531613D01*
X1389773Y-22553557D01*
X1395437Y-22576166D01*
X1398856Y-22599221D01*
X1400000Y-22622500D01*
X1400000Y-23097500D01*
X1398856Y-23120779D01*
X1395437Y-23143834D01*
X1389773Y-23166443D01*
X1381921Y-23188387D01*
X1371956Y-23209457D01*
X1359974Y-23229448D01*
X1346090Y-23248168D01*
X1330438Y-23265438D01*
X1313168Y-23281090D01*
X1294448Y-23294974D01*
X1274457Y-23306956D01*
X1253387Y-23316921D01*
X1231443Y-23324773D01*
X1208834Y-23330437D01*
X1185779Y-23333856D01*
X1162500Y-23335000D01*
X587500Y-23335000D01*
X564221Y-23333856D01*
X541166Y-23330437D01*
X518557Y-23324773D01*
X496613Y-23316921D01*
X475543Y-23306956D01*
X455552Y-23294974D01*
X436832Y-23281090D01*
X419562Y-23265438D01*
X403910Y-23248168D01*
X390026Y-23229448D01*
X378044Y-23209457D01*
X368079Y-23188387D01*
X360227Y-23166443D01*
X354563Y-23143834D01*
X351144Y-23120779D01*
X350000Y-23097500D01*
X350000Y-22622500D01*
X351144Y-22599221D01*
X354563Y-22576166D01*
X360227Y-22553557D01*
X368079Y-22531613D01*
X378044Y-22510543D01*
X390026Y-22490552D01*
X403910Y-22471832D01*
X419562Y-22454562D01*
X436832Y-22438910D01*
X455552Y-22425026D01*
X475543Y-22413044D01*
X496613Y-22403079D01*
X518557Y-22395227D01*
X541166Y-22389563D01*
X564221Y-22386144D01*
X587500Y-22385000D01*
X1162500Y-22385000D01*
X1185779Y-22386144D01*
X1185779Y-22386144D01*
G37*
D12*
G04 #@! TD*
G04 #@! TO.P,C2,1*
G04 #@! TO.N,+5VD*
X875000Y-22860000D03*
D11*
G04 #@! TO.N,GNDD*
G04 #@! TO.C,C2*
G36*
X-564221Y-22386144D02*
X-541166Y-22389563D01*
X-518557Y-22395227D01*
X-496613Y-22403079D01*
X-475543Y-22413044D01*
X-455552Y-22425026D01*
X-436832Y-22438910D01*
X-419562Y-22454562D01*
X-403910Y-22471832D01*
X-390026Y-22490552D01*
X-378044Y-22510543D01*
X-368079Y-22531613D01*
X-360227Y-22553557D01*
X-354563Y-22576166D01*
X-351144Y-22599221D01*
X-350000Y-22622500D01*
X-350000Y-23097500D01*
X-351144Y-23120779D01*
X-354563Y-23143834D01*
X-360227Y-23166443D01*
X-368079Y-23188387D01*
X-378044Y-23209457D01*
X-390026Y-23229448D01*
X-403910Y-23248168D01*
X-419562Y-23265438D01*
X-436832Y-23281090D01*
X-455552Y-23294974D01*
X-475543Y-23306956D01*
X-496613Y-23316921D01*
X-518557Y-23324773D01*
X-541166Y-23330437D01*
X-564221Y-23333856D01*
X-587500Y-23335000D01*
X-1162500Y-23335000D01*
X-1185779Y-23333856D01*
X-1208834Y-23330437D01*
X-1231443Y-23324773D01*
X-1253387Y-23316921D01*
X-1274457Y-23306956D01*
X-1294448Y-23294974D01*
X-1313168Y-23281090D01*
X-1330438Y-23265438D01*
X-1346090Y-23248168D01*
X-1359974Y-23229448D01*
X-1371956Y-23209457D01*
X-1381921Y-23188387D01*
X-1389773Y-23166443D01*
X-1395437Y-23143834D01*
X-1398856Y-23120779D01*
X-1400000Y-23097500D01*
X-1400000Y-22622500D01*
X-1398856Y-22599221D01*
X-1395437Y-22576166D01*
X-1389773Y-22553557D01*
X-1381921Y-22531613D01*
X-1371956Y-22510543D01*
X-1359974Y-22490552D01*
X-1346090Y-22471832D01*
X-1330438Y-22454562D01*
X-1313168Y-22438910D01*
X-1294448Y-22425026D01*
X-1274457Y-22413044D01*
X-1253387Y-22403079D01*
X-1231443Y-22395227D01*
X-1208834Y-22389563D01*
X-1185779Y-22386144D01*
X-1162500Y-22385000D01*
X-587500Y-22385000D01*
X-564221Y-22386144D01*
X-564221Y-22386144D01*
G37*
D12*
G04 #@! TD*
G04 #@! TO.P,C2,2*
G04 #@! TO.N,GNDD*
X-875000Y-22860000D03*
D11*
G04 #@! TO.N,+5V*
G04 #@! TO.C,C3*
G36*
X-17039221Y14673856D02*
X-17016166Y14670437D01*
X-16993557Y14664773D01*
X-16971613Y14656921D01*
X-16950543Y14646956D01*
X-16930552Y14634974D01*
X-16911832Y14621090D01*
X-16894562Y14605438D01*
X-16878910Y14588168D01*
X-16865026Y14569448D01*
X-16853044Y14549457D01*
X-16843079Y14528387D01*
X-16835227Y14506443D01*
X-16829563Y14483834D01*
X-16826144Y14460779D01*
X-16825000Y14437500D01*
X-16825000Y13962500D01*
X-16826144Y13939221D01*
X-16829563Y13916166D01*
X-16835227Y13893557D01*
X-16843079Y13871613D01*
X-16853044Y13850543D01*
X-16865026Y13830552D01*
X-16878910Y13811832D01*
X-16894562Y13794562D01*
X-16911832Y13778910D01*
X-16930552Y13765026D01*
X-16950543Y13753044D01*
X-16971613Y13743079D01*
X-16993557Y13735227D01*
X-17016166Y13729563D01*
X-17039221Y13726144D01*
X-17062500Y13725000D01*
X-17637500Y13725000D01*
X-17660779Y13726144D01*
X-17683834Y13729563D01*
X-17706443Y13735227D01*
X-17728387Y13743079D01*
X-17749457Y13753044D01*
X-17769448Y13765026D01*
X-17788168Y13778910D01*
X-17805438Y13794562D01*
X-17821090Y13811832D01*
X-17834974Y13830552D01*
X-17846956Y13850543D01*
X-17856921Y13871613D01*
X-17864773Y13893557D01*
X-17870437Y13916166D01*
X-17873856Y13939221D01*
X-17875000Y13962500D01*
X-17875000Y14437500D01*
X-17873856Y14460779D01*
X-17870437Y14483834D01*
X-17864773Y14506443D01*
X-17856921Y14528387D01*
X-17846956Y14549457D01*
X-17834974Y14569448D01*
X-17821090Y14588168D01*
X-17805438Y14605438D01*
X-17788168Y14621090D01*
X-17769448Y14634974D01*
X-17749457Y14646956D01*
X-17728387Y14656921D01*
X-17706443Y14664773D01*
X-17683834Y14670437D01*
X-17660779Y14673856D01*
X-17637500Y14675000D01*
X-17062500Y14675000D01*
X-17039221Y14673856D01*
X-17039221Y14673856D01*
G37*
D12*
G04 #@! TD*
G04 #@! TO.P,C3,1*
G04 #@! TO.N,+5V*
X-17350000Y14200000D03*
D11*
G04 #@! TO.N,GND*
G04 #@! TO.C,C3*
G36*
X-18789221Y14673856D02*
X-18766166Y14670437D01*
X-18743557Y14664773D01*
X-18721613Y14656921D01*
X-18700543Y14646956D01*
X-18680552Y14634974D01*
X-18661832Y14621090D01*
X-18644562Y14605438D01*
X-18628910Y14588168D01*
X-18615026Y14569448D01*
X-18603044Y14549457D01*
X-18593079Y14528387D01*
X-18585227Y14506443D01*
X-18579563Y14483834D01*
X-18576144Y14460779D01*
X-18575000Y14437500D01*
X-18575000Y13962500D01*
X-18576144Y13939221D01*
X-18579563Y13916166D01*
X-18585227Y13893557D01*
X-18593079Y13871613D01*
X-18603044Y13850543D01*
X-18615026Y13830552D01*
X-18628910Y13811832D01*
X-18644562Y13794562D01*
X-18661832Y13778910D01*
X-18680552Y13765026D01*
X-18700543Y13753044D01*
X-18721613Y13743079D01*
X-18743557Y13735227D01*
X-18766166Y13729563D01*
X-18789221Y13726144D01*
X-18812500Y13725000D01*
X-19387500Y13725000D01*
X-19410779Y13726144D01*
X-19433834Y13729563D01*
X-19456443Y13735227D01*
X-19478387Y13743079D01*
X-19499457Y13753044D01*
X-19519448Y13765026D01*
X-19538168Y13778910D01*
X-19555438Y13794562D01*
X-19571090Y13811832D01*
X-19584974Y13830552D01*
X-19596956Y13850543D01*
X-19606921Y13871613D01*
X-19614773Y13893557D01*
X-19620437Y13916166D01*
X-19623856Y13939221D01*
X-19625000Y13962500D01*
X-19625000Y14437500D01*
X-19623856Y14460779D01*
X-19620437Y14483834D01*
X-19614773Y14506443D01*
X-19606921Y14528387D01*
X-19596956Y14549457D01*
X-19584974Y14569448D01*
X-19571090Y14588168D01*
X-19555438Y14605438D01*
X-19538168Y14621090D01*
X-19519448Y14634974D01*
X-19499457Y14646956D01*
X-19478387Y14656921D01*
X-19456443Y14664773D01*
X-19433834Y14670437D01*
X-19410779Y14673856D01*
X-19387500Y14675000D01*
X-18812500Y14675000D01*
X-18789221Y14673856D01*
X-18789221Y14673856D01*
G37*
D12*
G04 #@! TD*
G04 #@! TO.P,C3,2*
G04 #@! TO.N,GND*
X-19100000Y14200000D03*
D11*
G04 #@! TO.N,GND*
G04 #@! TO.C,C4*
G36*
X1710779Y14673856D02*
X1733834Y14670437D01*
X1756443Y14664773D01*
X1778387Y14656921D01*
X1799457Y14646956D01*
X1819448Y14634974D01*
X1838168Y14621090D01*
X1855438Y14605438D01*
X1871090Y14588168D01*
X1884974Y14569448D01*
X1896956Y14549457D01*
X1906921Y14528387D01*
X1914773Y14506443D01*
X1920437Y14483834D01*
X1923856Y14460779D01*
X1925000Y14437500D01*
X1925000Y13962500D01*
X1923856Y13939221D01*
X1920437Y13916166D01*
X1914773Y13893557D01*
X1906921Y13871613D01*
X1896956Y13850543D01*
X1884974Y13830552D01*
X1871090Y13811832D01*
X1855438Y13794562D01*
X1838168Y13778910D01*
X1819448Y13765026D01*
X1799457Y13753044D01*
X1778387Y13743079D01*
X1756443Y13735227D01*
X1733834Y13729563D01*
X1710779Y13726144D01*
X1687500Y13725000D01*
X1112500Y13725000D01*
X1089221Y13726144D01*
X1066166Y13729563D01*
X1043557Y13735227D01*
X1021613Y13743079D01*
X1000543Y13753044D01*
X980552Y13765026D01*
X961832Y13778910D01*
X944562Y13794562D01*
X928910Y13811832D01*
X915026Y13830552D01*
X903044Y13850543D01*
X893079Y13871613D01*
X885227Y13893557D01*
X879563Y13916166D01*
X876144Y13939221D01*
X875000Y13962500D01*
X875000Y14437500D01*
X876144Y14460779D01*
X879563Y14483834D01*
X885227Y14506443D01*
X893079Y14528387D01*
X903044Y14549457D01*
X915026Y14569448D01*
X928910Y14588168D01*
X944562Y14605438D01*
X961832Y14621090D01*
X980552Y14634974D01*
X1000543Y14646956D01*
X1021613Y14656921D01*
X1043557Y14664773D01*
X1066166Y14670437D01*
X1089221Y14673856D01*
X1112500Y14675000D01*
X1687500Y14675000D01*
X1710779Y14673856D01*
X1710779Y14673856D01*
G37*
D12*
G04 #@! TD*
G04 #@! TO.P,C4,2*
G04 #@! TO.N,GND*
X1400000Y14200000D03*
D11*
G04 #@! TO.N,+5V*
G04 #@! TO.C,C4*
G36*
X3460779Y14673856D02*
X3483834Y14670437D01*
X3506443Y14664773D01*
X3528387Y14656921D01*
X3549457Y14646956D01*
X3569448Y14634974D01*
X3588168Y14621090D01*
X3605438Y14605438D01*
X3621090Y14588168D01*
X3634974Y14569448D01*
X3646956Y14549457D01*
X3656921Y14528387D01*
X3664773Y14506443D01*
X3670437Y14483834D01*
X3673856Y14460779D01*
X3675000Y14437500D01*
X3675000Y13962500D01*
X3673856Y13939221D01*
X3670437Y13916166D01*
X3664773Y13893557D01*
X3656921Y13871613D01*
X3646956Y13850543D01*
X3634974Y13830552D01*
X3621090Y13811832D01*
X3605438Y13794562D01*
X3588168Y13778910D01*
X3569448Y13765026D01*
X3549457Y13753044D01*
X3528387Y13743079D01*
X3506443Y13735227D01*
X3483834Y13729563D01*
X3460779Y13726144D01*
X3437500Y13725000D01*
X2862500Y13725000D01*
X2839221Y13726144D01*
X2816166Y13729563D01*
X2793557Y13735227D01*
X2771613Y13743079D01*
X2750543Y13753044D01*
X2730552Y13765026D01*
X2711832Y13778910D01*
X2694562Y13794562D01*
X2678910Y13811832D01*
X2665026Y13830552D01*
X2653044Y13850543D01*
X2643079Y13871613D01*
X2635227Y13893557D01*
X2629563Y13916166D01*
X2626144Y13939221D01*
X2625000Y13962500D01*
X2625000Y14437500D01*
X2626144Y14460779D01*
X2629563Y14483834D01*
X2635227Y14506443D01*
X2643079Y14528387D01*
X2653044Y14549457D01*
X2665026Y14569448D01*
X2678910Y14588168D01*
X2694562Y14605438D01*
X2711832Y14621090D01*
X2730552Y14634974D01*
X2750543Y14646956D01*
X2771613Y14656921D01*
X2793557Y14664773D01*
X2816166Y14670437D01*
X2839221Y14673856D01*
X2862500Y14675000D01*
X3437500Y14675000D01*
X3460779Y14673856D01*
X3460779Y14673856D01*
G37*
D12*
G04 #@! TD*
G04 #@! TO.P,C4,1*
G04 #@! TO.N,+5V*
X3150000Y14200000D03*
D17*
G04 #@! TO.P,C5,1*
G04 #@! TO.N,+BATT*
X-15400000Y17600000D03*
D18*
G04 #@! TO.P,C5,2*
G04 #@! TO.N,GND*
X-15400000Y15100000D03*
G04 #@! TD*
D11*
G04 #@! TO.N,GND*
G04 #@! TO.C,C6*
G36*
X17010779Y14697856D02*
X17033834Y14694437D01*
X17056443Y14688773D01*
X17078387Y14680921D01*
X17099457Y14670956D01*
X17119448Y14658974D01*
X17138168Y14645090D01*
X17155438Y14629438D01*
X17171090Y14612168D01*
X17184974Y14593448D01*
X17196956Y14573457D01*
X17206921Y14552387D01*
X17214773Y14530443D01*
X17220437Y14507834D01*
X17223856Y14484779D01*
X17225000Y14461500D01*
X17225000Y13986500D01*
X17223856Y13963221D01*
X17220437Y13940166D01*
X17214773Y13917557D01*
X17206921Y13895613D01*
X17196956Y13874543D01*
X17184974Y13854552D01*
X17171090Y13835832D01*
X17155438Y13818562D01*
X17138168Y13802910D01*
X17119448Y13789026D01*
X17099457Y13777044D01*
X17078387Y13767079D01*
X17056443Y13759227D01*
X17033834Y13753563D01*
X17010779Y13750144D01*
X16987500Y13749000D01*
X16412500Y13749000D01*
X16389221Y13750144D01*
X16366166Y13753563D01*
X16343557Y13759227D01*
X16321613Y13767079D01*
X16300543Y13777044D01*
X16280552Y13789026D01*
X16261832Y13802910D01*
X16244562Y13818562D01*
X16228910Y13835832D01*
X16215026Y13854552D01*
X16203044Y13874543D01*
X16193079Y13895613D01*
X16185227Y13917557D01*
X16179563Y13940166D01*
X16176144Y13963221D01*
X16175000Y13986500D01*
X16175000Y14461500D01*
X16176144Y14484779D01*
X16179563Y14507834D01*
X16185227Y14530443D01*
X16193079Y14552387D01*
X16203044Y14573457D01*
X16215026Y14593448D01*
X16228910Y14612168D01*
X16244562Y14629438D01*
X16261832Y14645090D01*
X16280552Y14658974D01*
X16300543Y14670956D01*
X16321613Y14680921D01*
X16343557Y14688773D01*
X16366166Y14694437D01*
X16389221Y14697856D01*
X16412500Y14699000D01*
X16987500Y14699000D01*
X17010779Y14697856D01*
X17010779Y14697856D01*
G37*
D12*
G04 #@! TD*
G04 #@! TO.P,C6,2*
G04 #@! TO.N,GND*
X16700000Y14224000D03*
D11*
G04 #@! TO.N,+BATT*
G04 #@! TO.C,C6*
G36*
X18760779Y14697856D02*
X18783834Y14694437D01*
X18806443Y14688773D01*
X18828387Y14680921D01*
X18849457Y14670956D01*
X18869448Y14658974D01*
X18888168Y14645090D01*
X18905438Y14629438D01*
X18921090Y14612168D01*
X18934974Y14593448D01*
X18946956Y14573457D01*
X18956921Y14552387D01*
X18964773Y14530443D01*
X18970437Y14507834D01*
X18973856Y14484779D01*
X18975000Y14461500D01*
X18975000Y13986500D01*
X18973856Y13963221D01*
X18970437Y13940166D01*
X18964773Y13917557D01*
X18956921Y13895613D01*
X18946956Y13874543D01*
X18934974Y13854552D01*
X18921090Y13835832D01*
X18905438Y13818562D01*
X18888168Y13802910D01*
X18869448Y13789026D01*
X18849457Y13777044D01*
X18828387Y13767079D01*
X18806443Y13759227D01*
X18783834Y13753563D01*
X18760779Y13750144D01*
X18737500Y13749000D01*
X18162500Y13749000D01*
X18139221Y13750144D01*
X18116166Y13753563D01*
X18093557Y13759227D01*
X18071613Y13767079D01*
X18050543Y13777044D01*
X18030552Y13789026D01*
X18011832Y13802910D01*
X17994562Y13818562D01*
X17978910Y13835832D01*
X17965026Y13854552D01*
X17953044Y13874543D01*
X17943079Y13895613D01*
X17935227Y13917557D01*
X17929563Y13940166D01*
X17926144Y13963221D01*
X17925000Y13986500D01*
X17925000Y14461500D01*
X17926144Y14484779D01*
X17929563Y14507834D01*
X17935227Y14530443D01*
X17943079Y14552387D01*
X17953044Y14573457D01*
X17965026Y14593448D01*
X17978910Y14612168D01*
X17994562Y14629438D01*
X18011832Y14645090D01*
X18030552Y14658974D01*
X18050543Y14670956D01*
X18071613Y14680921D01*
X18093557Y14688773D01*
X18116166Y14694437D01*
X18139221Y14697856D01*
X18162500Y14699000D01*
X18737500Y14699000D01*
X18760779Y14697856D01*
X18760779Y14697856D01*
G37*
D12*
G04 #@! TD*
G04 #@! TO.P,C6,1*
G04 #@! TO.N,+BATT*
X18450000Y14224000D03*
D11*
G04 #@! TO.N,+BATT*
G04 #@! TO.C,C7*
G36*
X-1839221Y14697856D02*
X-1816166Y14694437D01*
X-1793557Y14688773D01*
X-1771613Y14680921D01*
X-1750543Y14670956D01*
X-1730552Y14658974D01*
X-1711832Y14645090D01*
X-1694562Y14629438D01*
X-1678910Y14612168D01*
X-1665026Y14593448D01*
X-1653044Y14573457D01*
X-1643079Y14552387D01*
X-1635227Y14530443D01*
X-1629563Y14507834D01*
X-1626144Y14484779D01*
X-1625000Y14461500D01*
X-1625000Y13986500D01*
X-1626144Y13963221D01*
X-1629563Y13940166D01*
X-1635227Y13917557D01*
X-1643079Y13895613D01*
X-1653044Y13874543D01*
X-1665026Y13854552D01*
X-1678910Y13835832D01*
X-1694562Y13818562D01*
X-1711832Y13802910D01*
X-1730552Y13789026D01*
X-1750543Y13777044D01*
X-1771613Y13767079D01*
X-1793557Y13759227D01*
X-1816166Y13753563D01*
X-1839221Y13750144D01*
X-1862500Y13749000D01*
X-2437500Y13749000D01*
X-2460779Y13750144D01*
X-2483834Y13753563D01*
X-2506443Y13759227D01*
X-2528387Y13767079D01*
X-2549457Y13777044D01*
X-2569448Y13789026D01*
X-2588168Y13802910D01*
X-2605438Y13818562D01*
X-2621090Y13835832D01*
X-2634974Y13854552D01*
X-2646956Y13874543D01*
X-2656921Y13895613D01*
X-2664773Y13917557D01*
X-2670437Y13940166D01*
X-2673856Y13963221D01*
X-2675000Y13986500D01*
X-2675000Y14461500D01*
X-2673856Y14484779D01*
X-2670437Y14507834D01*
X-2664773Y14530443D01*
X-2656921Y14552387D01*
X-2646956Y14573457D01*
X-2634974Y14593448D01*
X-2621090Y14612168D01*
X-2605438Y14629438D01*
X-2588168Y14645090D01*
X-2569448Y14658974D01*
X-2549457Y14670956D01*
X-2528387Y14680921D01*
X-2506443Y14688773D01*
X-2483834Y14694437D01*
X-2460779Y14697856D01*
X-2437500Y14699000D01*
X-1862500Y14699000D01*
X-1839221Y14697856D01*
X-1839221Y14697856D01*
G37*
D12*
G04 #@! TD*
G04 #@! TO.P,C7,1*
G04 #@! TO.N,+BATT*
X-2150000Y14224000D03*
D11*
G04 #@! TO.N,GND*
G04 #@! TO.C,C7*
G36*
X-3589221Y14697856D02*
X-3566166Y14694437D01*
X-3543557Y14688773D01*
X-3521613Y14680921D01*
X-3500543Y14670956D01*
X-3480552Y14658974D01*
X-3461832Y14645090D01*
X-3444562Y14629438D01*
X-3428910Y14612168D01*
X-3415026Y14593448D01*
X-3403044Y14573457D01*
X-3393079Y14552387D01*
X-3385227Y14530443D01*
X-3379563Y14507834D01*
X-3376144Y14484779D01*
X-3375000Y14461500D01*
X-3375000Y13986500D01*
X-3376144Y13963221D01*
X-3379563Y13940166D01*
X-3385227Y13917557D01*
X-3393079Y13895613D01*
X-3403044Y13874543D01*
X-3415026Y13854552D01*
X-3428910Y13835832D01*
X-3444562Y13818562D01*
X-3461832Y13802910D01*
X-3480552Y13789026D01*
X-3500543Y13777044D01*
X-3521613Y13767079D01*
X-3543557Y13759227D01*
X-3566166Y13753563D01*
X-3589221Y13750144D01*
X-3612500Y13749000D01*
X-4187500Y13749000D01*
X-4210779Y13750144D01*
X-4233834Y13753563D01*
X-4256443Y13759227D01*
X-4278387Y13767079D01*
X-4299457Y13777044D01*
X-4319448Y13789026D01*
X-4338168Y13802910D01*
X-4355438Y13818562D01*
X-4371090Y13835832D01*
X-4384974Y13854552D01*
X-4396956Y13874543D01*
X-4406921Y13895613D01*
X-4414773Y13917557D01*
X-4420437Y13940166D01*
X-4423856Y13963221D01*
X-4425000Y13986500D01*
X-4425000Y14461500D01*
X-4423856Y14484779D01*
X-4420437Y14507834D01*
X-4414773Y14530443D01*
X-4406921Y14552387D01*
X-4396956Y14573457D01*
X-4384974Y14593448D01*
X-4371090Y14612168D01*
X-4355438Y14629438D01*
X-4338168Y14645090D01*
X-4319448Y14658974D01*
X-4299457Y14670956D01*
X-4278387Y14680921D01*
X-4256443Y14688773D01*
X-4233834Y14694437D01*
X-4210779Y14697856D01*
X-4187500Y14699000D01*
X-3612500Y14699000D01*
X-3589221Y14697856D01*
X-3589221Y14697856D01*
G37*
D12*
G04 #@! TD*
G04 #@! TO.P,C7,2*
G04 #@! TO.N,GND*
X-3900000Y14224000D03*
D11*
G04 #@! TO.N,Net-(C9-Pad2)*
G04 #@! TO.C,C9*
G36*
X16779778Y-16620144D02*
X16802833Y-16623563D01*
X16825442Y-16629227D01*
X16847386Y-16637079D01*
X16868456Y-16647044D01*
X16888447Y-16659026D01*
X16907167Y-16672910D01*
X16924437Y-16688562D01*
X16940089Y-16705832D01*
X16953973Y-16724552D01*
X16965955Y-16744543D01*
X16975920Y-16765613D01*
X16983772Y-16787557D01*
X16989436Y-16810166D01*
X16992855Y-16833221D01*
X16993999Y-16856500D01*
X16993999Y-17331500D01*
X16992855Y-17354779D01*
X16989436Y-17377834D01*
X16983772Y-17400443D01*
X16975920Y-17422387D01*
X16965955Y-17443457D01*
X16953973Y-17463448D01*
X16940089Y-17482168D01*
X16924437Y-17499438D01*
X16907167Y-17515090D01*
X16888447Y-17528974D01*
X16868456Y-17540956D01*
X16847386Y-17550921D01*
X16825442Y-17558773D01*
X16802833Y-17564437D01*
X16779778Y-17567856D01*
X16756499Y-17569000D01*
X16181499Y-17569000D01*
X16158220Y-17567856D01*
X16135165Y-17564437D01*
X16112556Y-17558773D01*
X16090612Y-17550921D01*
X16069542Y-17540956D01*
X16049551Y-17528974D01*
X16030831Y-17515090D01*
X16013561Y-17499438D01*
X15997909Y-17482168D01*
X15984025Y-17463448D01*
X15972043Y-17443457D01*
X15962078Y-17422387D01*
X15954226Y-17400443D01*
X15948562Y-17377834D01*
X15945143Y-17354779D01*
X15943999Y-17331500D01*
X15943999Y-16856500D01*
X15945143Y-16833221D01*
X15948562Y-16810166D01*
X15954226Y-16787557D01*
X15962078Y-16765613D01*
X15972043Y-16744543D01*
X15984025Y-16724552D01*
X15997909Y-16705832D01*
X16013561Y-16688562D01*
X16030831Y-16672910D01*
X16049551Y-16659026D01*
X16069542Y-16647044D01*
X16090612Y-16637079D01*
X16112556Y-16629227D01*
X16135165Y-16623563D01*
X16158220Y-16620144D01*
X16181499Y-16619000D01*
X16756499Y-16619000D01*
X16779778Y-16620144D01*
X16779778Y-16620144D01*
G37*
D12*
G04 #@! TD*
G04 #@! TO.P,C9,2*
G04 #@! TO.N,Net-(C9-Pad2)*
X16468999Y-17094000D03*
D11*
G04 #@! TO.N,/RST*
G04 #@! TO.C,C9*
G36*
X15029778Y-16620144D02*
X15052833Y-16623563D01*
X15075442Y-16629227D01*
X15097386Y-16637079D01*
X15118456Y-16647044D01*
X15138447Y-16659026D01*
X15157167Y-16672910D01*
X15174437Y-16688562D01*
X15190089Y-16705832D01*
X15203973Y-16724552D01*
X15215955Y-16744543D01*
X15225920Y-16765613D01*
X15233772Y-16787557D01*
X15239436Y-16810166D01*
X15242855Y-16833221D01*
X15243999Y-16856500D01*
X15243999Y-17331500D01*
X15242855Y-17354779D01*
X15239436Y-17377834D01*
X15233772Y-17400443D01*
X15225920Y-17422387D01*
X15215955Y-17443457D01*
X15203973Y-17463448D01*
X15190089Y-17482168D01*
X15174437Y-17499438D01*
X15157167Y-17515090D01*
X15138447Y-17528974D01*
X15118456Y-17540956D01*
X15097386Y-17550921D01*
X15075442Y-17558773D01*
X15052833Y-17564437D01*
X15029778Y-17567856D01*
X15006499Y-17569000D01*
X14431499Y-17569000D01*
X14408220Y-17567856D01*
X14385165Y-17564437D01*
X14362556Y-17558773D01*
X14340612Y-17550921D01*
X14319542Y-17540956D01*
X14299551Y-17528974D01*
X14280831Y-17515090D01*
X14263561Y-17499438D01*
X14247909Y-17482168D01*
X14234025Y-17463448D01*
X14222043Y-17443457D01*
X14212078Y-17422387D01*
X14204226Y-17400443D01*
X14198562Y-17377834D01*
X14195143Y-17354779D01*
X14193999Y-17331500D01*
X14193999Y-16856500D01*
X14195143Y-16833221D01*
X14198562Y-16810166D01*
X14204226Y-16787557D01*
X14212078Y-16765613D01*
X14222043Y-16744543D01*
X14234025Y-16724552D01*
X14247909Y-16705832D01*
X14263561Y-16688562D01*
X14280831Y-16672910D01*
X14299551Y-16659026D01*
X14319542Y-16647044D01*
X14340612Y-16637079D01*
X14362556Y-16629227D01*
X14385165Y-16623563D01*
X14408220Y-16620144D01*
X14431499Y-16619000D01*
X15006499Y-16619000D01*
X15029778Y-16620144D01*
X15029778Y-16620144D01*
G37*
D12*
G04 #@! TD*
G04 #@! TO.P,C9,1*
G04 #@! TO.N,/RST*
X14718999Y-17094000D03*
D13*
G04 #@! TO.P,J3,1*
G04 #@! TO.N,Net-(C8-Pad1)*
X1651000Y34290000D03*
D14*
G04 #@! TO.P,J3,2*
G04 #@! TO.N,+5V*
X1651000Y31750000D03*
G04 #@! TO.P,J3,3*
G04 #@! TO.N,/USB_5V_T*
X1651000Y29210000D03*
G04 #@! TD*
G04 #@! TO.P,J4,4*
G04 #@! TO.N,+5VD*
X-15380000Y-5410000D03*
G04 #@! TO.P,J4,3*
G04 #@! TO.N,/FRONT_TRIG*
X-12840000Y-5410000D03*
G04 #@! TO.P,J4,2*
G04 #@! TO.N,/FRONT_ECHO*
X-10300000Y-5410000D03*
D13*
G04 #@! TO.P,J4,1*
G04 #@! TO.N,GNDD*
X-7760000Y-5410000D03*
G04 #@! TD*
G04 #@! TO.P,J5,1*
G04 #@! TO.N,GNDD*
X-7760000Y-2870000D03*
D14*
G04 #@! TO.P,J5,2*
G04 #@! TO.N,/LEFT_ECHO*
X-10300000Y-2870000D03*
G04 #@! TO.P,J5,3*
G04 #@! TO.N,/LEFT_TRIG*
X-12840000Y-2870000D03*
G04 #@! TO.P,J5,4*
G04 #@! TO.N,+5VD*
X-15380000Y-2870000D03*
G04 #@! TD*
G04 #@! TO.P,J6,4*
G04 #@! TO.N,+5VD*
X2400000Y-2870000D03*
G04 #@! TO.P,J6,3*
G04 #@! TO.N,/RIGHT_TRIG*
X-140000Y-2870000D03*
G04 #@! TO.P,J6,2*
G04 #@! TO.N,/RIGHT_ECHO*
X-2680000Y-2870000D03*
D13*
G04 #@! TO.P,J6,1*
G04 #@! TO.N,GNDD*
X-5220000Y-2870000D03*
G04 #@! TD*
D26*
G04 #@! TO.P,JP1,2*
G04 #@! TO.N,Net-(JP1-Pad2)*
X16637000Y22479001D03*
D11*
G04 #@! TD*
G04 #@! TO.N,Net-(JP1-Pad2)*
G04 #@! TO.C,JP1*
G36*
X15887602Y22479001D02*
X15887602Y22503535D01*
X15892412Y22552366D01*
X15901984Y22600491D01*
X15916228Y22647446D01*
X15935005Y22692779D01*
X15958136Y22736052D01*
X15985396Y22776851D01*
X16016524Y22814780D01*
X16051221Y22849477D01*
X16089150Y22880605D01*
X16129949Y22907865D01*
X16173222Y22930996D01*
X16218555Y22949773D01*
X16265510Y22964017D01*
X16313635Y22973589D01*
X16362466Y22978399D01*
X16387000Y22978399D01*
X16387000Y22979001D01*
X16887000Y22979001D01*
X16887000Y22978399D01*
X16911534Y22978399D01*
X16960365Y22973589D01*
X17008490Y22964017D01*
X17055445Y22949773D01*
X17100778Y22930996D01*
X17144051Y22907865D01*
X17184850Y22880605D01*
X17222779Y22849477D01*
X17257476Y22814780D01*
X17288604Y22776851D01*
X17315864Y22736052D01*
X17338995Y22692779D01*
X17357772Y22647446D01*
X17372016Y22600491D01*
X17381588Y22552366D01*
X17386398Y22503535D01*
X17386398Y22479001D01*
X17387000Y22479001D01*
X17387000Y21979001D01*
X15887000Y21979001D01*
X15887000Y22479001D01*
X15887602Y22479001D01*
X15887602Y22479001D01*
G37*
D26*
G04 #@! TO.P,JP1,1*
G04 #@! TO.N,Net-(JP1-Pad1)*
X16637000Y21179001D03*
D11*
G04 #@! TD*
G04 #@! TO.N,Net-(JP1-Pad1)*
G04 #@! TO.C,JP1*
G36*
X16337000Y21679001D02*
X16337000Y22079001D01*
X16937000Y22079001D01*
X16937000Y21679001D01*
X17387000Y21679001D01*
X17387000Y21179001D01*
X17386398Y21179001D01*
X17386398Y21154467D01*
X17381588Y21105636D01*
X17372016Y21057511D01*
X17357772Y21010556D01*
X17338995Y20965223D01*
X17315864Y20921950D01*
X17288604Y20881151D01*
X17257476Y20843222D01*
X17222779Y20808525D01*
X17184850Y20777397D01*
X17144051Y20750137D01*
X17100778Y20727006D01*
X17055445Y20708229D01*
X17008490Y20693985D01*
X16960365Y20684413D01*
X16911534Y20679603D01*
X16887000Y20679603D01*
X16887000Y20679001D01*
X16387000Y20679001D01*
X16387000Y20679603D01*
X16362466Y20679603D01*
X16313635Y20684413D01*
X16265510Y20693985D01*
X16218555Y20708229D01*
X16173222Y20727006D01*
X16129949Y20750137D01*
X16089150Y20777397D01*
X16051221Y20808525D01*
X16016524Y20843222D01*
X15985396Y20881151D01*
X15958136Y20921950D01*
X15935005Y20965223D01*
X15916228Y21010556D01*
X15901984Y21057511D01*
X15892412Y21105636D01*
X15887602Y21154467D01*
X15887602Y21179001D01*
X15887000Y21179001D01*
X15887000Y21679001D01*
X16337000Y21679001D01*
X16337000Y21679001D01*
G37*
D26*
G04 #@! TO.P,JP2,1*
G04 #@! TO.N,Net-(JP2-Pad1)*
X14097000Y21179001D03*
D11*
G04 #@! TD*
G04 #@! TO.N,Net-(JP2-Pad1)*
G04 #@! TO.C,JP2*
G36*
X14847000Y21679001D02*
X14847000Y21179001D01*
X14846398Y21179001D01*
X14846398Y21154467D01*
X14841588Y21105636D01*
X14832016Y21057511D01*
X14817772Y21010556D01*
X14798995Y20965223D01*
X14775864Y20921950D01*
X14748604Y20881151D01*
X14717476Y20843222D01*
X14682779Y20808525D01*
X14644850Y20777397D01*
X14604051Y20750137D01*
X14560778Y20727006D01*
X14515445Y20708229D01*
X14468490Y20693985D01*
X14420365Y20684413D01*
X14371534Y20679603D01*
X14347000Y20679603D01*
X14347000Y20679001D01*
X13847000Y20679001D01*
X13847000Y20679603D01*
X13822466Y20679603D01*
X13773635Y20684413D01*
X13725510Y20693985D01*
X13678555Y20708229D01*
X13633222Y20727006D01*
X13589949Y20750137D01*
X13549150Y20777397D01*
X13511221Y20808525D01*
X13476524Y20843222D01*
X13445396Y20881151D01*
X13418136Y20921950D01*
X13395005Y20965223D01*
X13376228Y21010556D01*
X13361984Y21057511D01*
X13352412Y21105636D01*
X13347602Y21154467D01*
X13347602Y21179001D01*
X13347000Y21179001D01*
X13347000Y21679001D01*
X14847000Y21679001D01*
X14847000Y21679001D01*
G37*
D26*
G04 #@! TO.P,JP2,2*
G04 #@! TO.N,Net-(JP2-Pad2)*
X14097000Y22479001D03*
D11*
G04 #@! TD*
G04 #@! TO.N,Net-(JP2-Pad2)*
G04 #@! TO.C,JP2*
G36*
X13347602Y22479001D02*
X13347602Y22503535D01*
X13352412Y22552366D01*
X13361984Y22600491D01*
X13376228Y22647446D01*
X13395005Y22692779D01*
X13418136Y22736052D01*
X13445396Y22776851D01*
X13476524Y22814780D01*
X13511221Y22849477D01*
X13549150Y22880605D01*
X13589949Y22907865D01*
X13633222Y22930996D01*
X13678555Y22949773D01*
X13725510Y22964017D01*
X13773635Y22973589D01*
X13822466Y22978399D01*
X13847000Y22978399D01*
X13847000Y22979001D01*
X14347000Y22979001D01*
X14347000Y22978399D01*
X14371534Y22978399D01*
X14420365Y22973589D01*
X14468490Y22964017D01*
X14515445Y22949773D01*
X14560778Y22930996D01*
X14604051Y22907865D01*
X14644850Y22880605D01*
X14682779Y22849477D01*
X14717476Y22814780D01*
X14748604Y22776851D01*
X14775864Y22736052D01*
X14798995Y22692779D01*
X14817772Y22647446D01*
X14832016Y22600491D01*
X14841588Y22552366D01*
X14846398Y22503535D01*
X14846398Y22479001D01*
X14847000Y22479001D01*
X14847000Y21979001D01*
X13347000Y21979001D01*
X13347000Y22479001D01*
X13347602Y22479001D01*
X13347602Y22479001D01*
G37*
D26*
G04 #@! TO.P,JP3,1*
G04 #@! TO.N,Net-(JP3-Pad1)*
X11557000Y21179001D03*
D11*
G04 #@! TD*
G04 #@! TO.N,Net-(JP3-Pad1)*
G04 #@! TO.C,JP3*
G36*
X11257000Y21679001D02*
X11257000Y22079001D01*
X11857000Y22079001D01*
X11857000Y21679001D01*
X12307000Y21679001D01*
X12307000Y21179001D01*
X12306398Y21179001D01*
X12306398Y21154467D01*
X12301588Y21105636D01*
X12292016Y21057511D01*
X12277772Y21010556D01*
X12258995Y20965223D01*
X12235864Y20921950D01*
X12208604Y20881151D01*
X12177476Y20843222D01*
X12142779Y20808525D01*
X12104850Y20777397D01*
X12064051Y20750137D01*
X12020778Y20727006D01*
X11975445Y20708229D01*
X11928490Y20693985D01*
X11880365Y20684413D01*
X11831534Y20679603D01*
X11807000Y20679603D01*
X11807000Y20679001D01*
X11307000Y20679001D01*
X11307000Y20679603D01*
X11282466Y20679603D01*
X11233635Y20684413D01*
X11185510Y20693985D01*
X11138555Y20708229D01*
X11093222Y20727006D01*
X11049949Y20750137D01*
X11009150Y20777397D01*
X10971221Y20808525D01*
X10936524Y20843222D01*
X10905396Y20881151D01*
X10878136Y20921950D01*
X10855005Y20965223D01*
X10836228Y21010556D01*
X10821984Y21057511D01*
X10812412Y21105636D01*
X10807602Y21154467D01*
X10807602Y21179001D01*
X10807000Y21179001D01*
X10807000Y21679001D01*
X11257000Y21679001D01*
X11257000Y21679001D01*
G37*
D26*
G04 #@! TO.P,JP3,2*
G04 #@! TO.N,Net-(JP3-Pad2)*
X11557000Y22479001D03*
D11*
G04 #@! TD*
G04 #@! TO.N,Net-(JP3-Pad2)*
G04 #@! TO.C,JP3*
G36*
X10807602Y22479001D02*
X10807602Y22503535D01*
X10812412Y22552366D01*
X10821984Y22600491D01*
X10836228Y22647446D01*
X10855005Y22692779D01*
X10878136Y22736052D01*
X10905396Y22776851D01*
X10936524Y22814780D01*
X10971221Y22849477D01*
X11009150Y22880605D01*
X11049949Y22907865D01*
X11093222Y22930996D01*
X11138555Y22949773D01*
X11185510Y22964017D01*
X11233635Y22973589D01*
X11282466Y22978399D01*
X11307000Y22978399D01*
X11307000Y22979001D01*
X11807000Y22979001D01*
X11807000Y22978399D01*
X11831534Y22978399D01*
X11880365Y22973589D01*
X11928490Y22964017D01*
X11975445Y22949773D01*
X12020778Y22930996D01*
X12064051Y22907865D01*
X12104850Y22880605D01*
X12142779Y22849477D01*
X12177476Y22814780D01*
X12208604Y22776851D01*
X12235864Y22736052D01*
X12258995Y22692779D01*
X12277772Y22647446D01*
X12292016Y22600491D01*
X12301588Y22552366D01*
X12306398Y22503535D01*
X12306398Y22479001D01*
X12307000Y22479001D01*
X12307000Y21979001D01*
X10807000Y21979001D01*
X10807000Y22479001D01*
X10807602Y22479001D01*
X10807602Y22479001D01*
G37*
D26*
G04 #@! TO.P,JP4,2*
G04 #@! TO.N,Net-(JP4-Pad2)*
X-3937000Y22479000D03*
D11*
G04 #@! TD*
G04 #@! TO.N,Net-(JP4-Pad2)*
G04 #@! TO.C,JP4*
G36*
X-4686398Y22479000D02*
X-4686398Y22503534D01*
X-4681588Y22552365D01*
X-4672016Y22600490D01*
X-4657772Y22647445D01*
X-4638995Y22692778D01*
X-4615864Y22736051D01*
X-4588604Y22776850D01*
X-4557476Y22814779D01*
X-4522779Y22849476D01*
X-4484850Y22880604D01*
X-4444051Y22907864D01*
X-4400778Y22930995D01*
X-4355445Y22949772D01*
X-4308490Y22964016D01*
X-4260365Y22973588D01*
X-4211534Y22978398D01*
X-4187000Y22978398D01*
X-4187000Y22979000D01*
X-3687000Y22979000D01*
X-3687000Y22978398D01*
X-3662466Y22978398D01*
X-3613635Y22973588D01*
X-3565510Y22964016D01*
X-3518555Y22949772D01*
X-3473222Y22930995D01*
X-3429949Y22907864D01*
X-3389150Y22880604D01*
X-3351221Y22849476D01*
X-3316524Y22814779D01*
X-3285396Y22776850D01*
X-3258136Y22736051D01*
X-3235005Y22692778D01*
X-3216228Y22647445D01*
X-3201984Y22600490D01*
X-3192412Y22552365D01*
X-3187602Y22503534D01*
X-3187602Y22479000D01*
X-3187000Y22479000D01*
X-3187000Y21979000D01*
X-4687000Y21979000D01*
X-4687000Y22479000D01*
X-4686398Y22479000D01*
X-4686398Y22479000D01*
G37*
D26*
G04 #@! TO.P,JP4,1*
G04 #@! TO.N,Net-(JP4-Pad1)*
X-3937000Y21179000D03*
D11*
G04 #@! TD*
G04 #@! TO.N,Net-(JP4-Pad1)*
G04 #@! TO.C,JP4*
G36*
X-4237000Y21679000D02*
X-4237000Y22079000D01*
X-3637000Y22079000D01*
X-3637000Y21679000D01*
X-3187000Y21679000D01*
X-3187000Y21179000D01*
X-3187602Y21179000D01*
X-3187602Y21154466D01*
X-3192412Y21105635D01*
X-3201984Y21057510D01*
X-3216228Y21010555D01*
X-3235005Y20965222D01*
X-3258136Y20921949D01*
X-3285396Y20881150D01*
X-3316524Y20843221D01*
X-3351221Y20808524D01*
X-3389150Y20777396D01*
X-3429949Y20750136D01*
X-3473222Y20727005D01*
X-3518555Y20708228D01*
X-3565510Y20693984D01*
X-3613635Y20684412D01*
X-3662466Y20679602D01*
X-3687000Y20679602D01*
X-3687000Y20679000D01*
X-4187000Y20679000D01*
X-4187000Y20679602D01*
X-4211534Y20679602D01*
X-4260365Y20684412D01*
X-4308490Y20693984D01*
X-4355445Y20708228D01*
X-4400778Y20727005D01*
X-4444051Y20750136D01*
X-4484850Y20777396D01*
X-4522779Y20808524D01*
X-4557476Y20843221D01*
X-4588604Y20881150D01*
X-4615864Y20921949D01*
X-4638995Y20965222D01*
X-4657772Y21010555D01*
X-4672016Y21057510D01*
X-4681588Y21105635D01*
X-4686398Y21154466D01*
X-4686398Y21179000D01*
X-4687000Y21179000D01*
X-4687000Y21679000D01*
X-4237000Y21679000D01*
X-4237000Y21679000D01*
G37*
D26*
G04 #@! TO.P,JP5,2*
G04 #@! TO.N,Net-(JP5-Pad2)*
X-6477000Y22479000D03*
D11*
G04 #@! TD*
G04 #@! TO.N,Net-(JP5-Pad2)*
G04 #@! TO.C,JP5*
G36*
X-7226398Y22479000D02*
X-7226398Y22503534D01*
X-7221588Y22552365D01*
X-7212016Y22600490D01*
X-7197772Y22647445D01*
X-7178995Y22692778D01*
X-7155864Y22736051D01*
X-7128604Y22776850D01*
X-7097476Y22814779D01*
X-7062779Y22849476D01*
X-7024850Y22880604D01*
X-6984051Y22907864D01*
X-6940778Y22930995D01*
X-6895445Y22949772D01*
X-6848490Y22964016D01*
X-6800365Y22973588D01*
X-6751534Y22978398D01*
X-6727000Y22978398D01*
X-6727000Y22979000D01*
X-6227000Y22979000D01*
X-6227000Y22978398D01*
X-6202466Y22978398D01*
X-6153635Y22973588D01*
X-6105510Y22964016D01*
X-6058555Y22949772D01*
X-6013222Y22930995D01*
X-5969949Y22907864D01*
X-5929150Y22880604D01*
X-5891221Y22849476D01*
X-5856524Y22814779D01*
X-5825396Y22776850D01*
X-5798136Y22736051D01*
X-5775005Y22692778D01*
X-5756228Y22647445D01*
X-5741984Y22600490D01*
X-5732412Y22552365D01*
X-5727602Y22503534D01*
X-5727602Y22479000D01*
X-5727000Y22479000D01*
X-5727000Y21979000D01*
X-7227000Y21979000D01*
X-7227000Y22479000D01*
X-7226398Y22479000D01*
X-7226398Y22479000D01*
G37*
D26*
G04 #@! TO.P,JP5,1*
G04 #@! TO.N,Net-(JP5-Pad1)*
X-6477000Y21179000D03*
D11*
G04 #@! TD*
G04 #@! TO.N,Net-(JP5-Pad1)*
G04 #@! TO.C,JP5*
G36*
X-5727000Y21679000D02*
X-5727000Y21179000D01*
X-5727602Y21179000D01*
X-5727602Y21154466D01*
X-5732412Y21105635D01*
X-5741984Y21057510D01*
X-5756228Y21010555D01*
X-5775005Y20965222D01*
X-5798136Y20921949D01*
X-5825396Y20881150D01*
X-5856524Y20843221D01*
X-5891221Y20808524D01*
X-5929150Y20777396D01*
X-5969949Y20750136D01*
X-6013222Y20727005D01*
X-6058555Y20708228D01*
X-6105510Y20693984D01*
X-6153635Y20684412D01*
X-6202466Y20679602D01*
X-6227000Y20679602D01*
X-6227000Y20679000D01*
X-6727000Y20679000D01*
X-6727000Y20679602D01*
X-6751534Y20679602D01*
X-6800365Y20684412D01*
X-6848490Y20693984D01*
X-6895445Y20708228D01*
X-6940778Y20727005D01*
X-6984051Y20750136D01*
X-7024850Y20777396D01*
X-7062779Y20808524D01*
X-7097476Y20843221D01*
X-7128604Y20881150D01*
X-7155864Y20921949D01*
X-7178995Y20965222D01*
X-7197772Y21010555D01*
X-7212016Y21057510D01*
X-7221588Y21105635D01*
X-7226398Y21154466D01*
X-7226398Y21179000D01*
X-7227000Y21179000D01*
X-7227000Y21679000D01*
X-5727000Y21679000D01*
X-5727000Y21679000D01*
G37*
D26*
G04 #@! TO.P,JP6,1*
G04 #@! TO.N,Net-(JP6-Pad1)*
X-9017000Y21179000D03*
D11*
G04 #@! TD*
G04 #@! TO.N,Net-(JP6-Pad1)*
G04 #@! TO.C,JP6*
G36*
X-9317000Y21679000D02*
X-9317000Y22079000D01*
X-8717000Y22079000D01*
X-8717000Y21679000D01*
X-8267000Y21679000D01*
X-8267000Y21179000D01*
X-8267602Y21179000D01*
X-8267602Y21154466D01*
X-8272412Y21105635D01*
X-8281984Y21057510D01*
X-8296228Y21010555D01*
X-8315005Y20965222D01*
X-8338136Y20921949D01*
X-8365396Y20881150D01*
X-8396524Y20843221D01*
X-8431221Y20808524D01*
X-8469150Y20777396D01*
X-8509949Y20750136D01*
X-8553222Y20727005D01*
X-8598555Y20708228D01*
X-8645510Y20693984D01*
X-8693635Y20684412D01*
X-8742466Y20679602D01*
X-8767000Y20679602D01*
X-8767000Y20679000D01*
X-9267000Y20679000D01*
X-9267000Y20679602D01*
X-9291534Y20679602D01*
X-9340365Y20684412D01*
X-9388490Y20693984D01*
X-9435445Y20708228D01*
X-9480778Y20727005D01*
X-9524051Y20750136D01*
X-9564850Y20777396D01*
X-9602779Y20808524D01*
X-9637476Y20843221D01*
X-9668604Y20881150D01*
X-9695864Y20921949D01*
X-9718995Y20965222D01*
X-9737772Y21010555D01*
X-9752016Y21057510D01*
X-9761588Y21105635D01*
X-9766398Y21154466D01*
X-9766398Y21179000D01*
X-9767000Y21179000D01*
X-9767000Y21679000D01*
X-9317000Y21679000D01*
X-9317000Y21679000D01*
G37*
D26*
G04 #@! TO.P,JP6,2*
G04 #@! TO.N,Net-(JP6-Pad2)*
X-9017000Y22479000D03*
D11*
G04 #@! TD*
G04 #@! TO.N,Net-(JP6-Pad2)*
G04 #@! TO.C,JP6*
G36*
X-9766398Y22479000D02*
X-9766398Y22503534D01*
X-9761588Y22552365D01*
X-9752016Y22600490D01*
X-9737772Y22647445D01*
X-9718995Y22692778D01*
X-9695864Y22736051D01*
X-9668604Y22776850D01*
X-9637476Y22814779D01*
X-9602779Y22849476D01*
X-9564850Y22880604D01*
X-9524051Y22907864D01*
X-9480778Y22930995D01*
X-9435445Y22949772D01*
X-9388490Y22964016D01*
X-9340365Y22973588D01*
X-9291534Y22978398D01*
X-9267000Y22978398D01*
X-9267000Y22979000D01*
X-8767000Y22979000D01*
X-8767000Y22978398D01*
X-8742466Y22978398D01*
X-8693635Y22973588D01*
X-8645510Y22964016D01*
X-8598555Y22949772D01*
X-8553222Y22930995D01*
X-8509949Y22907864D01*
X-8469150Y22880604D01*
X-8431221Y22849476D01*
X-8396524Y22814779D01*
X-8365396Y22776850D01*
X-8338136Y22736051D01*
X-8315005Y22692778D01*
X-8296228Y22647445D01*
X-8281984Y22600490D01*
X-8272412Y22552365D01*
X-8267602Y22503534D01*
X-8267602Y22479000D01*
X-8267000Y22479000D01*
X-8267000Y21979000D01*
X-9767000Y21979000D01*
X-9767000Y22479000D01*
X-9766398Y22479000D01*
X-9766398Y22479000D01*
G37*
D13*
G04 #@! TO.P,M1,1*
G04 #@! TO.N,Net-(M1-Pad1)*
X17145000Y8890000D03*
D14*
G04 #@! TO.P,M1,2*
G04 #@! TO.N,Net-(M1-Pad2)*
X14605000Y8890000D03*
G04 #@! TO.P,M1,3*
G04 #@! TO.N,Net-(M1-Pad3)*
X12065000Y8890000D03*
G04 #@! TO.P,M1,4*
G04 #@! TO.N,Net-(M1-Pad4)*
X9525000Y8890000D03*
G04 #@! TD*
D13*
G04 #@! TO.P,M2,1*
G04 #@! TO.N,Net-(M2-Pad1)*
X-9525000Y8890000D03*
D14*
G04 #@! TO.P,M2,2*
G04 #@! TO.N,Net-(M2-Pad2)*
X-12065000Y8890000D03*
G04 #@! TO.P,M2,3*
G04 #@! TO.N,Net-(M2-Pad3)*
X-14605000Y8890000D03*
G04 #@! TO.P,M2,4*
G04 #@! TO.N,Net-(M2-Pad4)*
X-17145000Y8890000D03*
G04 #@! TD*
D11*
G04 #@! TO.N,/RST*
G04 #@! TO.C,R1*
G36*
X15029778Y-15096144D02*
X15052833Y-15099563D01*
X15075442Y-15105227D01*
X15097386Y-15113079D01*
X15118456Y-15123044D01*
X15138447Y-15135026D01*
X15157167Y-15148910D01*
X15174437Y-15164562D01*
X15190089Y-15181832D01*
X15203973Y-15200552D01*
X15215955Y-15220543D01*
X15225920Y-15241613D01*
X15233772Y-15263557D01*
X15239436Y-15286166D01*
X15242855Y-15309221D01*
X15243999Y-15332500D01*
X15243999Y-15807500D01*
X15242855Y-15830779D01*
X15239436Y-15853834D01*
X15233772Y-15876443D01*
X15225920Y-15898387D01*
X15215955Y-15919457D01*
X15203973Y-15939448D01*
X15190089Y-15958168D01*
X15174437Y-15975438D01*
X15157167Y-15991090D01*
X15138447Y-16004974D01*
X15118456Y-16016956D01*
X15097386Y-16026921D01*
X15075442Y-16034773D01*
X15052833Y-16040437D01*
X15029778Y-16043856D01*
X15006499Y-16045000D01*
X14431499Y-16045000D01*
X14408220Y-16043856D01*
X14385165Y-16040437D01*
X14362556Y-16034773D01*
X14340612Y-16026921D01*
X14319542Y-16016956D01*
X14299551Y-16004974D01*
X14280831Y-15991090D01*
X14263561Y-15975438D01*
X14247909Y-15958168D01*
X14234025Y-15939448D01*
X14222043Y-15919457D01*
X14212078Y-15898387D01*
X14204226Y-15876443D01*
X14198562Y-15853834D01*
X14195143Y-15830779D01*
X14193999Y-15807500D01*
X14193999Y-15332500D01*
X14195143Y-15309221D01*
X14198562Y-15286166D01*
X14204226Y-15263557D01*
X14212078Y-15241613D01*
X14222043Y-15220543D01*
X14234025Y-15200552D01*
X14247909Y-15181832D01*
X14263561Y-15164562D01*
X14280831Y-15148910D01*
X14299551Y-15135026D01*
X14319542Y-15123044D01*
X14340612Y-15113079D01*
X14362556Y-15105227D01*
X14385165Y-15099563D01*
X14408220Y-15096144D01*
X14431499Y-15095000D01*
X15006499Y-15095000D01*
X15029778Y-15096144D01*
X15029778Y-15096144D01*
G37*
D12*
G04 #@! TD*
G04 #@! TO.P,R1,1*
G04 #@! TO.N,/RST*
X14718999Y-15570000D03*
D11*
G04 #@! TO.N,+5VD*
G04 #@! TO.C,R1*
G36*
X16779778Y-15096144D02*
X16802833Y-15099563D01*
X16825442Y-15105227D01*
X16847386Y-15113079D01*
X16868456Y-15123044D01*
X16888447Y-15135026D01*
X16907167Y-15148910D01*
X16924437Y-15164562D01*
X16940089Y-15181832D01*
X16953973Y-15200552D01*
X16965955Y-15220543D01*
X16975920Y-15241613D01*
X16983772Y-15263557D01*
X16989436Y-15286166D01*
X16992855Y-15309221D01*
X16993999Y-15332500D01*
X16993999Y-15807500D01*
X16992855Y-15830779D01*
X16989436Y-15853834D01*
X16983772Y-15876443D01*
X16975920Y-15898387D01*
X16965955Y-15919457D01*
X16953973Y-15939448D01*
X16940089Y-15958168D01*
X16924437Y-15975438D01*
X16907167Y-15991090D01*
X16888447Y-16004974D01*
X16868456Y-16016956D01*
X16847386Y-16026921D01*
X16825442Y-16034773D01*
X16802833Y-16040437D01*
X16779778Y-16043856D01*
X16756499Y-16045000D01*
X16181499Y-16045000D01*
X16158220Y-16043856D01*
X16135165Y-16040437D01*
X16112556Y-16034773D01*
X16090612Y-16026921D01*
X16069542Y-16016956D01*
X16049551Y-16004974D01*
X16030831Y-15991090D01*
X16013561Y-15975438D01*
X15997909Y-15958168D01*
X15984025Y-15939448D01*
X15972043Y-15919457D01*
X15962078Y-15898387D01*
X15954226Y-15876443D01*
X15948562Y-15853834D01*
X15945143Y-15830779D01*
X15943999Y-15807500D01*
X15943999Y-15332500D01*
X15945143Y-15309221D01*
X15948562Y-15286166D01*
X15954226Y-15263557D01*
X15962078Y-15241613D01*
X15972043Y-15220543D01*
X15984025Y-15200552D01*
X15997909Y-15181832D01*
X16013561Y-15164562D01*
X16030831Y-15148910D01*
X16049551Y-15135026D01*
X16069542Y-15123044D01*
X16090612Y-15113079D01*
X16112556Y-15105227D01*
X16135165Y-15099563D01*
X16158220Y-15096144D01*
X16181499Y-15095000D01*
X16756499Y-15095000D01*
X16779778Y-15096144D01*
X16779778Y-15096144D01*
G37*
D12*
G04 #@! TD*
G04 #@! TO.P,R1,2*
G04 #@! TO.N,+5VD*
X16468999Y-15570000D03*
D11*
G04 #@! TO.N,+5V*
G04 #@! TO.C,R2*
G36*
X16897779Y18077857D02*
X16920834Y18074438D01*
X16943443Y18068774D01*
X16965387Y18060922D01*
X16986457Y18050957D01*
X17006448Y18038975D01*
X17025168Y18025091D01*
X17042438Y18009439D01*
X17058090Y17992169D01*
X17071974Y17973449D01*
X17083956Y17953458D01*
X17093921Y17932388D01*
X17101773Y17910444D01*
X17107437Y17887835D01*
X17110856Y17864780D01*
X17112000Y17841501D01*
X17112000Y17266501D01*
X17110856Y17243222D01*
X17107437Y17220167D01*
X17101773Y17197558D01*
X17093921Y17175614D01*
X17083956Y17154544D01*
X17071974Y17134553D01*
X17058090Y17115833D01*
X17042438Y17098563D01*
X17025168Y17082911D01*
X17006448Y17069027D01*
X16986457Y17057045D01*
X16965387Y17047080D01*
X16943443Y17039228D01*
X16920834Y17033564D01*
X16897779Y17030145D01*
X16874500Y17029001D01*
X16399500Y17029001D01*
X16376221Y17030145D01*
X16353166Y17033564D01*
X16330557Y17039228D01*
X16308613Y17047080D01*
X16287543Y17057045D01*
X16267552Y17069027D01*
X16248832Y17082911D01*
X16231562Y17098563D01*
X16215910Y17115833D01*
X16202026Y17134553D01*
X16190044Y17154544D01*
X16180079Y17175614D01*
X16172227Y17197558D01*
X16166563Y17220167D01*
X16163144Y17243222D01*
X16162000Y17266501D01*
X16162000Y17841501D01*
X16163144Y17864780D01*
X16166563Y17887835D01*
X16172227Y17910444D01*
X16180079Y17932388D01*
X16190044Y17953458D01*
X16202026Y17973449D01*
X16215910Y17992169D01*
X16231562Y18009439D01*
X16248832Y18025091D01*
X16267552Y18038975D01*
X16287543Y18050957D01*
X16308613Y18060922D01*
X16330557Y18068774D01*
X16353166Y18074438D01*
X16376221Y18077857D01*
X16399500Y18079001D01*
X16874500Y18079001D01*
X16897779Y18077857D01*
X16897779Y18077857D01*
G37*
D12*
G04 #@! TD*
G04 #@! TO.P,R2,2*
G04 #@! TO.N,+5V*
X16637000Y17554001D03*
D11*
G04 #@! TO.N,Net-(JP1-Pad1)*
G04 #@! TO.C,R2*
G36*
X16897779Y19827857D02*
X16920834Y19824438D01*
X16943443Y19818774D01*
X16965387Y19810922D01*
X16986457Y19800957D01*
X17006448Y19788975D01*
X17025168Y19775091D01*
X17042438Y19759439D01*
X17058090Y19742169D01*
X17071974Y19723449D01*
X17083956Y19703458D01*
X17093921Y19682388D01*
X17101773Y19660444D01*
X17107437Y19637835D01*
X17110856Y19614780D01*
X17112000Y19591501D01*
X17112000Y19016501D01*
X17110856Y18993222D01*
X17107437Y18970167D01*
X17101773Y18947558D01*
X17093921Y18925614D01*
X17083956Y18904544D01*
X17071974Y18884553D01*
X17058090Y18865833D01*
X17042438Y18848563D01*
X17025168Y18832911D01*
X17006448Y18819027D01*
X16986457Y18807045D01*
X16965387Y18797080D01*
X16943443Y18789228D01*
X16920834Y18783564D01*
X16897779Y18780145D01*
X16874500Y18779001D01*
X16399500Y18779001D01*
X16376221Y18780145D01*
X16353166Y18783564D01*
X16330557Y18789228D01*
X16308613Y18797080D01*
X16287543Y18807045D01*
X16267552Y18819027D01*
X16248832Y18832911D01*
X16231562Y18848563D01*
X16215910Y18865833D01*
X16202026Y18884553D01*
X16190044Y18904544D01*
X16180079Y18925614D01*
X16172227Y18947558D01*
X16166563Y18970167D01*
X16163144Y18993222D01*
X16162000Y19016501D01*
X16162000Y19591501D01*
X16163144Y19614780D01*
X16166563Y19637835D01*
X16172227Y19660444D01*
X16180079Y19682388D01*
X16190044Y19703458D01*
X16202026Y19723449D01*
X16215910Y19742169D01*
X16231562Y19759439D01*
X16248832Y19775091D01*
X16267552Y19788975D01*
X16287543Y19800957D01*
X16308613Y19810922D01*
X16330557Y19818774D01*
X16353166Y19824438D01*
X16376221Y19827857D01*
X16399500Y19829001D01*
X16874500Y19829001D01*
X16897779Y19827857D01*
X16897779Y19827857D01*
G37*
D12*
G04 #@! TD*
G04 #@! TO.P,R2,1*
G04 #@! TO.N,Net-(JP1-Pad1)*
X16637000Y19304001D03*
D11*
G04 #@! TO.N,Net-(JP2-Pad1)*
G04 #@! TO.C,R3*
G36*
X14357779Y19827857D02*
X14380834Y19824438D01*
X14403443Y19818774D01*
X14425387Y19810922D01*
X14446457Y19800957D01*
X14466448Y19788975D01*
X14485168Y19775091D01*
X14502438Y19759439D01*
X14518090Y19742169D01*
X14531974Y19723449D01*
X14543956Y19703458D01*
X14553921Y19682388D01*
X14561773Y19660444D01*
X14567437Y19637835D01*
X14570856Y19614780D01*
X14572000Y19591501D01*
X14572000Y19016501D01*
X14570856Y18993222D01*
X14567437Y18970167D01*
X14561773Y18947558D01*
X14553921Y18925614D01*
X14543956Y18904544D01*
X14531974Y18884553D01*
X14518090Y18865833D01*
X14502438Y18848563D01*
X14485168Y18832911D01*
X14466448Y18819027D01*
X14446457Y18807045D01*
X14425387Y18797080D01*
X14403443Y18789228D01*
X14380834Y18783564D01*
X14357779Y18780145D01*
X14334500Y18779001D01*
X13859500Y18779001D01*
X13836221Y18780145D01*
X13813166Y18783564D01*
X13790557Y18789228D01*
X13768613Y18797080D01*
X13747543Y18807045D01*
X13727552Y18819027D01*
X13708832Y18832911D01*
X13691562Y18848563D01*
X13675910Y18865833D01*
X13662026Y18884553D01*
X13650044Y18904544D01*
X13640079Y18925614D01*
X13632227Y18947558D01*
X13626563Y18970167D01*
X13623144Y18993222D01*
X13622000Y19016501D01*
X13622000Y19591501D01*
X13623144Y19614780D01*
X13626563Y19637835D01*
X13632227Y19660444D01*
X13640079Y19682388D01*
X13650044Y19703458D01*
X13662026Y19723449D01*
X13675910Y19742169D01*
X13691562Y19759439D01*
X13708832Y19775091D01*
X13727552Y19788975D01*
X13747543Y19800957D01*
X13768613Y19810922D01*
X13790557Y19818774D01*
X13813166Y19824438D01*
X13836221Y19827857D01*
X13859500Y19829001D01*
X14334500Y19829001D01*
X14357779Y19827857D01*
X14357779Y19827857D01*
G37*
D12*
G04 #@! TD*
G04 #@! TO.P,R3,1*
G04 #@! TO.N,Net-(JP2-Pad1)*
X14097000Y19304001D03*
D11*
G04 #@! TO.N,+5V*
G04 #@! TO.C,R3*
G36*
X14357779Y18077857D02*
X14380834Y18074438D01*
X14403443Y18068774D01*
X14425387Y18060922D01*
X14446457Y18050957D01*
X14466448Y18038975D01*
X14485168Y18025091D01*
X14502438Y18009439D01*
X14518090Y17992169D01*
X14531974Y17973449D01*
X14543956Y17953458D01*
X14553921Y17932388D01*
X14561773Y17910444D01*
X14567437Y17887835D01*
X14570856Y17864780D01*
X14572000Y17841501D01*
X14572000Y17266501D01*
X14570856Y17243222D01*
X14567437Y17220167D01*
X14561773Y17197558D01*
X14553921Y17175614D01*
X14543956Y17154544D01*
X14531974Y17134553D01*
X14518090Y17115833D01*
X14502438Y17098563D01*
X14485168Y17082911D01*
X14466448Y17069027D01*
X14446457Y17057045D01*
X14425387Y17047080D01*
X14403443Y17039228D01*
X14380834Y17033564D01*
X14357779Y17030145D01*
X14334500Y17029001D01*
X13859500Y17029001D01*
X13836221Y17030145D01*
X13813166Y17033564D01*
X13790557Y17039228D01*
X13768613Y17047080D01*
X13747543Y17057045D01*
X13727552Y17069027D01*
X13708832Y17082911D01*
X13691562Y17098563D01*
X13675910Y17115833D01*
X13662026Y17134553D01*
X13650044Y17154544D01*
X13640079Y17175614D01*
X13632227Y17197558D01*
X13626563Y17220167D01*
X13623144Y17243222D01*
X13622000Y17266501D01*
X13622000Y17841501D01*
X13623144Y17864780D01*
X13626563Y17887835D01*
X13632227Y17910444D01*
X13640079Y17932388D01*
X13650044Y17953458D01*
X13662026Y17973449D01*
X13675910Y17992169D01*
X13691562Y18009439D01*
X13708832Y18025091D01*
X13727552Y18038975D01*
X13747543Y18050957D01*
X13768613Y18060922D01*
X13790557Y18068774D01*
X13813166Y18074438D01*
X13836221Y18077857D01*
X13859500Y18079001D01*
X14334500Y18079001D01*
X14357779Y18077857D01*
X14357779Y18077857D01*
G37*
D12*
G04 #@! TD*
G04 #@! TO.P,R3,2*
G04 #@! TO.N,+5V*
X14097000Y17554001D03*
D11*
G04 #@! TO.N,+5V*
G04 #@! TO.C,R4*
G36*
X11817779Y18077856D02*
X11840834Y18074437D01*
X11863443Y18068773D01*
X11885387Y18060921D01*
X11906457Y18050956D01*
X11926448Y18038974D01*
X11945168Y18025090D01*
X11962438Y18009438D01*
X11978090Y17992168D01*
X11991974Y17973448D01*
X12003956Y17953457D01*
X12013921Y17932387D01*
X12021773Y17910443D01*
X12027437Y17887834D01*
X12030856Y17864779D01*
X12032000Y17841500D01*
X12032000Y17266500D01*
X12030856Y17243221D01*
X12027437Y17220166D01*
X12021773Y17197557D01*
X12013921Y17175613D01*
X12003956Y17154543D01*
X11991974Y17134552D01*
X11978090Y17115832D01*
X11962438Y17098562D01*
X11945168Y17082910D01*
X11926448Y17069026D01*
X11906457Y17057044D01*
X11885387Y17047079D01*
X11863443Y17039227D01*
X11840834Y17033563D01*
X11817779Y17030144D01*
X11794500Y17029000D01*
X11319500Y17029000D01*
X11296221Y17030144D01*
X11273166Y17033563D01*
X11250557Y17039227D01*
X11228613Y17047079D01*
X11207543Y17057044D01*
X11187552Y17069026D01*
X11168832Y17082910D01*
X11151562Y17098562D01*
X11135910Y17115832D01*
X11122026Y17134552D01*
X11110044Y17154543D01*
X11100079Y17175613D01*
X11092227Y17197557D01*
X11086563Y17220166D01*
X11083144Y17243221D01*
X11082000Y17266500D01*
X11082000Y17841500D01*
X11083144Y17864779D01*
X11086563Y17887834D01*
X11092227Y17910443D01*
X11100079Y17932387D01*
X11110044Y17953457D01*
X11122026Y17973448D01*
X11135910Y17992168D01*
X11151562Y18009438D01*
X11168832Y18025090D01*
X11187552Y18038974D01*
X11207543Y18050956D01*
X11228613Y18060921D01*
X11250557Y18068773D01*
X11273166Y18074437D01*
X11296221Y18077856D01*
X11319500Y18079000D01*
X11794500Y18079000D01*
X11817779Y18077856D01*
X11817779Y18077856D01*
G37*
D12*
G04 #@! TD*
G04 #@! TO.P,R4,2*
G04 #@! TO.N,+5V*
X11557000Y17554000D03*
D11*
G04 #@! TO.N,Net-(JP3-Pad1)*
G04 #@! TO.C,R4*
G36*
X11817779Y19827856D02*
X11840834Y19824437D01*
X11863443Y19818773D01*
X11885387Y19810921D01*
X11906457Y19800956D01*
X11926448Y19788974D01*
X11945168Y19775090D01*
X11962438Y19759438D01*
X11978090Y19742168D01*
X11991974Y19723448D01*
X12003956Y19703457D01*
X12013921Y19682387D01*
X12021773Y19660443D01*
X12027437Y19637834D01*
X12030856Y19614779D01*
X12032000Y19591500D01*
X12032000Y19016500D01*
X12030856Y18993221D01*
X12027437Y18970166D01*
X12021773Y18947557D01*
X12013921Y18925613D01*
X12003956Y18904543D01*
X11991974Y18884552D01*
X11978090Y18865832D01*
X11962438Y18848562D01*
X11945168Y18832910D01*
X11926448Y18819026D01*
X11906457Y18807044D01*
X11885387Y18797079D01*
X11863443Y18789227D01*
X11840834Y18783563D01*
X11817779Y18780144D01*
X11794500Y18779000D01*
X11319500Y18779000D01*
X11296221Y18780144D01*
X11273166Y18783563D01*
X11250557Y18789227D01*
X11228613Y18797079D01*
X11207543Y18807044D01*
X11187552Y18819026D01*
X11168832Y18832910D01*
X11151562Y18848562D01*
X11135910Y18865832D01*
X11122026Y18884552D01*
X11110044Y18904543D01*
X11100079Y18925613D01*
X11092227Y18947557D01*
X11086563Y18970166D01*
X11083144Y18993221D01*
X11082000Y19016500D01*
X11082000Y19591500D01*
X11083144Y19614779D01*
X11086563Y19637834D01*
X11092227Y19660443D01*
X11100079Y19682387D01*
X11110044Y19703457D01*
X11122026Y19723448D01*
X11135910Y19742168D01*
X11151562Y19759438D01*
X11168832Y19775090D01*
X11187552Y19788974D01*
X11207543Y19800956D01*
X11228613Y19810921D01*
X11250557Y19818773D01*
X11273166Y19824437D01*
X11296221Y19827856D01*
X11319500Y19829000D01*
X11794500Y19829000D01*
X11817779Y19827856D01*
X11817779Y19827856D01*
G37*
D12*
G04 #@! TD*
G04 #@! TO.P,R4,1*
G04 #@! TO.N,Net-(JP3-Pad1)*
X11557000Y19304000D03*
D11*
G04 #@! TO.N,Net-(R5-Pad1)*
G04 #@! TO.C,R5*
G36*
X9277779Y23256857D02*
X9300834Y23253438D01*
X9323443Y23247774D01*
X9345387Y23239922D01*
X9366457Y23229957D01*
X9386448Y23217975D01*
X9405168Y23204091D01*
X9422438Y23188439D01*
X9438090Y23171169D01*
X9451974Y23152449D01*
X9463956Y23132458D01*
X9473921Y23111388D01*
X9481773Y23089444D01*
X9487437Y23066835D01*
X9490856Y23043780D01*
X9492000Y23020501D01*
X9492000Y22445501D01*
X9490856Y22422222D01*
X9487437Y22399167D01*
X9481773Y22376558D01*
X9473921Y22354614D01*
X9463956Y22333544D01*
X9451974Y22313553D01*
X9438090Y22294833D01*
X9422438Y22277563D01*
X9405168Y22261911D01*
X9386448Y22248027D01*
X9366457Y22236045D01*
X9345387Y22226080D01*
X9323443Y22218228D01*
X9300834Y22212564D01*
X9277779Y22209145D01*
X9254500Y22208001D01*
X8779500Y22208001D01*
X8756221Y22209145D01*
X8733166Y22212564D01*
X8710557Y22218228D01*
X8688613Y22226080D01*
X8667543Y22236045D01*
X8647552Y22248027D01*
X8628832Y22261911D01*
X8611562Y22277563D01*
X8595910Y22294833D01*
X8582026Y22313553D01*
X8570044Y22333544D01*
X8560079Y22354614D01*
X8552227Y22376558D01*
X8546563Y22399167D01*
X8543144Y22422222D01*
X8542000Y22445501D01*
X8542000Y23020501D01*
X8543144Y23043780D01*
X8546563Y23066835D01*
X8552227Y23089444D01*
X8560079Y23111388D01*
X8570044Y23132458D01*
X8582026Y23152449D01*
X8595910Y23171169D01*
X8611562Y23188439D01*
X8628832Y23204091D01*
X8647552Y23217975D01*
X8667543Y23229957D01*
X8688613Y23239922D01*
X8710557Y23247774D01*
X8733166Y23253438D01*
X8756221Y23256857D01*
X8779500Y23258001D01*
X9254500Y23258001D01*
X9277779Y23256857D01*
X9277779Y23256857D01*
G37*
D12*
G04 #@! TD*
G04 #@! TO.P,R5,1*
G04 #@! TO.N,Net-(R5-Pad1)*
X9017000Y22733001D03*
D11*
G04 #@! TO.N,+5V*
G04 #@! TO.C,R5*
G36*
X9277779Y21506857D02*
X9300834Y21503438D01*
X9323443Y21497774D01*
X9345387Y21489922D01*
X9366457Y21479957D01*
X9386448Y21467975D01*
X9405168Y21454091D01*
X9422438Y21438439D01*
X9438090Y21421169D01*
X9451974Y21402449D01*
X9463956Y21382458D01*
X9473921Y21361388D01*
X9481773Y21339444D01*
X9487437Y21316835D01*
X9490856Y21293780D01*
X9492000Y21270501D01*
X9492000Y20695501D01*
X9490856Y20672222D01*
X9487437Y20649167D01*
X9481773Y20626558D01*
X9473921Y20604614D01*
X9463956Y20583544D01*
X9451974Y20563553D01*
X9438090Y20544833D01*
X9422438Y20527563D01*
X9405168Y20511911D01*
X9386448Y20498027D01*
X9366457Y20486045D01*
X9345387Y20476080D01*
X9323443Y20468228D01*
X9300834Y20462564D01*
X9277779Y20459145D01*
X9254500Y20458001D01*
X8779500Y20458001D01*
X8756221Y20459145D01*
X8733166Y20462564D01*
X8710557Y20468228D01*
X8688613Y20476080D01*
X8667543Y20486045D01*
X8647552Y20498027D01*
X8628832Y20511911D01*
X8611562Y20527563D01*
X8595910Y20544833D01*
X8582026Y20563553D01*
X8570044Y20583544D01*
X8560079Y20604614D01*
X8552227Y20626558D01*
X8546563Y20649167D01*
X8543144Y20672222D01*
X8542000Y20695501D01*
X8542000Y21270501D01*
X8543144Y21293780D01*
X8546563Y21316835D01*
X8552227Y21339444D01*
X8560079Y21361388D01*
X8570044Y21382458D01*
X8582026Y21402449D01*
X8595910Y21421169D01*
X8611562Y21438439D01*
X8628832Y21454091D01*
X8647552Y21467975D01*
X8667543Y21479957D01*
X8688613Y21489922D01*
X8710557Y21497774D01*
X8733166Y21503438D01*
X8756221Y21506857D01*
X8779500Y21508001D01*
X9254500Y21508001D01*
X9277779Y21506857D01*
X9277779Y21506857D01*
G37*
D12*
G04 #@! TD*
G04 #@! TO.P,R5,2*
G04 #@! TO.N,+5V*
X9017000Y20983001D03*
D11*
G04 #@! TO.N,+5V*
G04 #@! TO.C,R6*
G36*
X6737779Y21506857D02*
X6760834Y21503438D01*
X6783443Y21497774D01*
X6805387Y21489922D01*
X6826457Y21479957D01*
X6846448Y21467975D01*
X6865168Y21454091D01*
X6882438Y21438439D01*
X6898090Y21421169D01*
X6911974Y21402449D01*
X6923956Y21382458D01*
X6933921Y21361388D01*
X6941773Y21339444D01*
X6947437Y21316835D01*
X6950856Y21293780D01*
X6952000Y21270501D01*
X6952000Y20695501D01*
X6950856Y20672222D01*
X6947437Y20649167D01*
X6941773Y20626558D01*
X6933921Y20604614D01*
X6923956Y20583544D01*
X6911974Y20563553D01*
X6898090Y20544833D01*
X6882438Y20527563D01*
X6865168Y20511911D01*
X6846448Y20498027D01*
X6826457Y20486045D01*
X6805387Y20476080D01*
X6783443Y20468228D01*
X6760834Y20462564D01*
X6737779Y20459145D01*
X6714500Y20458001D01*
X6239500Y20458001D01*
X6216221Y20459145D01*
X6193166Y20462564D01*
X6170557Y20468228D01*
X6148613Y20476080D01*
X6127543Y20486045D01*
X6107552Y20498027D01*
X6088832Y20511911D01*
X6071562Y20527563D01*
X6055910Y20544833D01*
X6042026Y20563553D01*
X6030044Y20583544D01*
X6020079Y20604614D01*
X6012227Y20626558D01*
X6006563Y20649167D01*
X6003144Y20672222D01*
X6002000Y20695501D01*
X6002000Y21270501D01*
X6003144Y21293780D01*
X6006563Y21316835D01*
X6012227Y21339444D01*
X6020079Y21361388D01*
X6030044Y21382458D01*
X6042026Y21402449D01*
X6055910Y21421169D01*
X6071562Y21438439D01*
X6088832Y21454091D01*
X6107552Y21467975D01*
X6127543Y21479957D01*
X6148613Y21489922D01*
X6170557Y21497774D01*
X6193166Y21503438D01*
X6216221Y21506857D01*
X6239500Y21508001D01*
X6714500Y21508001D01*
X6737779Y21506857D01*
X6737779Y21506857D01*
G37*
D12*
G04 #@! TD*
G04 #@! TO.P,R6,2*
G04 #@! TO.N,+5V*
X6477000Y20983001D03*
D11*
G04 #@! TO.N,Net-(R6-Pad1)*
G04 #@! TO.C,R6*
G36*
X6737779Y23256857D02*
X6760834Y23253438D01*
X6783443Y23247774D01*
X6805387Y23239922D01*
X6826457Y23229957D01*
X6846448Y23217975D01*
X6865168Y23204091D01*
X6882438Y23188439D01*
X6898090Y23171169D01*
X6911974Y23152449D01*
X6923956Y23132458D01*
X6933921Y23111388D01*
X6941773Y23089444D01*
X6947437Y23066835D01*
X6950856Y23043780D01*
X6952000Y23020501D01*
X6952000Y22445501D01*
X6950856Y22422222D01*
X6947437Y22399167D01*
X6941773Y22376558D01*
X6933921Y22354614D01*
X6923956Y22333544D01*
X6911974Y22313553D01*
X6898090Y22294833D01*
X6882438Y22277563D01*
X6865168Y22261911D01*
X6846448Y22248027D01*
X6826457Y22236045D01*
X6805387Y22226080D01*
X6783443Y22218228D01*
X6760834Y22212564D01*
X6737779Y22209145D01*
X6714500Y22208001D01*
X6239500Y22208001D01*
X6216221Y22209145D01*
X6193166Y22212564D01*
X6170557Y22218228D01*
X6148613Y22226080D01*
X6127543Y22236045D01*
X6107552Y22248027D01*
X6088832Y22261911D01*
X6071562Y22277563D01*
X6055910Y22294833D01*
X6042026Y22313553D01*
X6030044Y22333544D01*
X6020079Y22354614D01*
X6012227Y22376558D01*
X6006563Y22399167D01*
X6003144Y22422222D01*
X6002000Y22445501D01*
X6002000Y23020501D01*
X6003144Y23043780D01*
X6006563Y23066835D01*
X6012227Y23089444D01*
X6020079Y23111388D01*
X6030044Y23132458D01*
X6042026Y23152449D01*
X6055910Y23171169D01*
X6071562Y23188439D01*
X6088832Y23204091D01*
X6107552Y23217975D01*
X6127543Y23229957D01*
X6148613Y23239922D01*
X6170557Y23247774D01*
X6193166Y23253438D01*
X6216221Y23256857D01*
X6239500Y23258001D01*
X6714500Y23258001D01*
X6737779Y23256857D01*
X6737779Y23256857D01*
G37*
D12*
G04 #@! TD*
G04 #@! TO.P,R6,1*
G04 #@! TO.N,Net-(R6-Pad1)*
X6477000Y22733001D03*
D11*
G04 #@! TO.N,Net-(JP4-Pad1)*
G04 #@! TO.C,R7*
G36*
X-3676221Y19827857D02*
X-3653166Y19824438D01*
X-3630557Y19818774D01*
X-3608613Y19810922D01*
X-3587543Y19800957D01*
X-3567552Y19788975D01*
X-3548832Y19775091D01*
X-3531562Y19759439D01*
X-3515910Y19742169D01*
X-3502026Y19723449D01*
X-3490044Y19703458D01*
X-3480079Y19682388D01*
X-3472227Y19660444D01*
X-3466563Y19637835D01*
X-3463144Y19614780D01*
X-3462000Y19591501D01*
X-3462000Y19016501D01*
X-3463144Y18993222D01*
X-3466563Y18970167D01*
X-3472227Y18947558D01*
X-3480079Y18925614D01*
X-3490044Y18904544D01*
X-3502026Y18884553D01*
X-3515910Y18865833D01*
X-3531562Y18848563D01*
X-3548832Y18832911D01*
X-3567552Y18819027D01*
X-3587543Y18807045D01*
X-3608613Y18797080D01*
X-3630557Y18789228D01*
X-3653166Y18783564D01*
X-3676221Y18780145D01*
X-3699500Y18779001D01*
X-4174500Y18779001D01*
X-4197779Y18780145D01*
X-4220834Y18783564D01*
X-4243443Y18789228D01*
X-4265387Y18797080D01*
X-4286457Y18807045D01*
X-4306448Y18819027D01*
X-4325168Y18832911D01*
X-4342438Y18848563D01*
X-4358090Y18865833D01*
X-4371974Y18884553D01*
X-4383956Y18904544D01*
X-4393921Y18925614D01*
X-4401773Y18947558D01*
X-4407437Y18970167D01*
X-4410856Y18993222D01*
X-4412000Y19016501D01*
X-4412000Y19591501D01*
X-4410856Y19614780D01*
X-4407437Y19637835D01*
X-4401773Y19660444D01*
X-4393921Y19682388D01*
X-4383956Y19703458D01*
X-4371974Y19723449D01*
X-4358090Y19742169D01*
X-4342438Y19759439D01*
X-4325168Y19775091D01*
X-4306448Y19788975D01*
X-4286457Y19800957D01*
X-4265387Y19810922D01*
X-4243443Y19818774D01*
X-4220834Y19824438D01*
X-4197779Y19827857D01*
X-4174500Y19829001D01*
X-3699500Y19829001D01*
X-3676221Y19827857D01*
X-3676221Y19827857D01*
G37*
D12*
G04 #@! TD*
G04 #@! TO.P,R7,1*
G04 #@! TO.N,Net-(JP4-Pad1)*
X-3937000Y19304001D03*
D11*
G04 #@! TO.N,+5V*
G04 #@! TO.C,R7*
G36*
X-3676221Y18077857D02*
X-3653166Y18074438D01*
X-3630557Y18068774D01*
X-3608613Y18060922D01*
X-3587543Y18050957D01*
X-3567552Y18038975D01*
X-3548832Y18025091D01*
X-3531562Y18009439D01*
X-3515910Y17992169D01*
X-3502026Y17973449D01*
X-3490044Y17953458D01*
X-3480079Y17932388D01*
X-3472227Y17910444D01*
X-3466563Y17887835D01*
X-3463144Y17864780D01*
X-3462000Y17841501D01*
X-3462000Y17266501D01*
X-3463144Y17243222D01*
X-3466563Y17220167D01*
X-3472227Y17197558D01*
X-3480079Y17175614D01*
X-3490044Y17154544D01*
X-3502026Y17134553D01*
X-3515910Y17115833D01*
X-3531562Y17098563D01*
X-3548832Y17082911D01*
X-3567552Y17069027D01*
X-3587543Y17057045D01*
X-3608613Y17047080D01*
X-3630557Y17039228D01*
X-3653166Y17033564D01*
X-3676221Y17030145D01*
X-3699500Y17029001D01*
X-4174500Y17029001D01*
X-4197779Y17030145D01*
X-4220834Y17033564D01*
X-4243443Y17039228D01*
X-4265387Y17047080D01*
X-4286457Y17057045D01*
X-4306448Y17069027D01*
X-4325168Y17082911D01*
X-4342438Y17098563D01*
X-4358090Y17115833D01*
X-4371974Y17134553D01*
X-4383956Y17154544D01*
X-4393921Y17175614D01*
X-4401773Y17197558D01*
X-4407437Y17220167D01*
X-4410856Y17243222D01*
X-4412000Y17266501D01*
X-4412000Y17841501D01*
X-4410856Y17864780D01*
X-4407437Y17887835D01*
X-4401773Y17910444D01*
X-4393921Y17932388D01*
X-4383956Y17953458D01*
X-4371974Y17973449D01*
X-4358090Y17992169D01*
X-4342438Y18009439D01*
X-4325168Y18025091D01*
X-4306448Y18038975D01*
X-4286457Y18050957D01*
X-4265387Y18060922D01*
X-4243443Y18068774D01*
X-4220834Y18074438D01*
X-4197779Y18077857D01*
X-4174500Y18079001D01*
X-3699500Y18079001D01*
X-3676221Y18077857D01*
X-3676221Y18077857D01*
G37*
D12*
G04 #@! TD*
G04 #@! TO.P,R7,2*
G04 #@! TO.N,+5V*
X-3937000Y17554001D03*
D11*
G04 #@! TO.N,+5V*
G04 #@! TO.C,R8*
G36*
X-6216221Y18077856D02*
X-6193166Y18074437D01*
X-6170557Y18068773D01*
X-6148613Y18060921D01*
X-6127543Y18050956D01*
X-6107552Y18038974D01*
X-6088832Y18025090D01*
X-6071562Y18009438D01*
X-6055910Y17992168D01*
X-6042026Y17973448D01*
X-6030044Y17953457D01*
X-6020079Y17932387D01*
X-6012227Y17910443D01*
X-6006563Y17887834D01*
X-6003144Y17864779D01*
X-6002000Y17841500D01*
X-6002000Y17266500D01*
X-6003144Y17243221D01*
X-6006563Y17220166D01*
X-6012227Y17197557D01*
X-6020079Y17175613D01*
X-6030044Y17154543D01*
X-6042026Y17134552D01*
X-6055910Y17115832D01*
X-6071562Y17098562D01*
X-6088832Y17082910D01*
X-6107552Y17069026D01*
X-6127543Y17057044D01*
X-6148613Y17047079D01*
X-6170557Y17039227D01*
X-6193166Y17033563D01*
X-6216221Y17030144D01*
X-6239500Y17029000D01*
X-6714500Y17029000D01*
X-6737779Y17030144D01*
X-6760834Y17033563D01*
X-6783443Y17039227D01*
X-6805387Y17047079D01*
X-6826457Y17057044D01*
X-6846448Y17069026D01*
X-6865168Y17082910D01*
X-6882438Y17098562D01*
X-6898090Y17115832D01*
X-6911974Y17134552D01*
X-6923956Y17154543D01*
X-6933921Y17175613D01*
X-6941773Y17197557D01*
X-6947437Y17220166D01*
X-6950856Y17243221D01*
X-6952000Y17266500D01*
X-6952000Y17841500D01*
X-6950856Y17864779D01*
X-6947437Y17887834D01*
X-6941773Y17910443D01*
X-6933921Y17932387D01*
X-6923956Y17953457D01*
X-6911974Y17973448D01*
X-6898090Y17992168D01*
X-6882438Y18009438D01*
X-6865168Y18025090D01*
X-6846448Y18038974D01*
X-6826457Y18050956D01*
X-6805387Y18060921D01*
X-6783443Y18068773D01*
X-6760834Y18074437D01*
X-6737779Y18077856D01*
X-6714500Y18079000D01*
X-6239500Y18079000D01*
X-6216221Y18077856D01*
X-6216221Y18077856D01*
G37*
D12*
G04 #@! TD*
G04 #@! TO.P,R8,2*
G04 #@! TO.N,+5V*
X-6477000Y17554000D03*
D11*
G04 #@! TO.N,Net-(JP5-Pad1)*
G04 #@! TO.C,R8*
G36*
X-6216221Y19827856D02*
X-6193166Y19824437D01*
X-6170557Y19818773D01*
X-6148613Y19810921D01*
X-6127543Y19800956D01*
X-6107552Y19788974D01*
X-6088832Y19775090D01*
X-6071562Y19759438D01*
X-6055910Y19742168D01*
X-6042026Y19723448D01*
X-6030044Y19703457D01*
X-6020079Y19682387D01*
X-6012227Y19660443D01*
X-6006563Y19637834D01*
X-6003144Y19614779D01*
X-6002000Y19591500D01*
X-6002000Y19016500D01*
X-6003144Y18993221D01*
X-6006563Y18970166D01*
X-6012227Y18947557D01*
X-6020079Y18925613D01*
X-6030044Y18904543D01*
X-6042026Y18884552D01*
X-6055910Y18865832D01*
X-6071562Y18848562D01*
X-6088832Y18832910D01*
X-6107552Y18819026D01*
X-6127543Y18807044D01*
X-6148613Y18797079D01*
X-6170557Y18789227D01*
X-6193166Y18783563D01*
X-6216221Y18780144D01*
X-6239500Y18779000D01*
X-6714500Y18779000D01*
X-6737779Y18780144D01*
X-6760834Y18783563D01*
X-6783443Y18789227D01*
X-6805387Y18797079D01*
X-6826457Y18807044D01*
X-6846448Y18819026D01*
X-6865168Y18832910D01*
X-6882438Y18848562D01*
X-6898090Y18865832D01*
X-6911974Y18884552D01*
X-6923956Y18904543D01*
X-6933921Y18925613D01*
X-6941773Y18947557D01*
X-6947437Y18970166D01*
X-6950856Y18993221D01*
X-6952000Y19016500D01*
X-6952000Y19591500D01*
X-6950856Y19614779D01*
X-6947437Y19637834D01*
X-6941773Y19660443D01*
X-6933921Y19682387D01*
X-6923956Y19703457D01*
X-6911974Y19723448D01*
X-6898090Y19742168D01*
X-6882438Y19759438D01*
X-6865168Y19775090D01*
X-6846448Y19788974D01*
X-6826457Y19800956D01*
X-6805387Y19810921D01*
X-6783443Y19818773D01*
X-6760834Y19824437D01*
X-6737779Y19827856D01*
X-6714500Y19829000D01*
X-6239500Y19829000D01*
X-6216221Y19827856D01*
X-6216221Y19827856D01*
G37*
D12*
G04 #@! TD*
G04 #@! TO.P,R8,1*
G04 #@! TO.N,Net-(JP5-Pad1)*
X-6477000Y19304000D03*
D11*
G04 #@! TO.N,Net-(JP6-Pad1)*
G04 #@! TO.C,R9*
G36*
X-8756221Y19827856D02*
X-8733166Y19824437D01*
X-8710557Y19818773D01*
X-8688613Y19810921D01*
X-8667543Y19800956D01*
X-8647552Y19788974D01*
X-8628832Y19775090D01*
X-8611562Y19759438D01*
X-8595910Y19742168D01*
X-8582026Y19723448D01*
X-8570044Y19703457D01*
X-8560079Y19682387D01*
X-8552227Y19660443D01*
X-8546563Y19637834D01*
X-8543144Y19614779D01*
X-8542000Y19591500D01*
X-8542000Y19016500D01*
X-8543144Y18993221D01*
X-8546563Y18970166D01*
X-8552227Y18947557D01*
X-8560079Y18925613D01*
X-8570044Y18904543D01*
X-8582026Y18884552D01*
X-8595910Y18865832D01*
X-8611562Y18848562D01*
X-8628832Y18832910D01*
X-8647552Y18819026D01*
X-8667543Y18807044D01*
X-8688613Y18797079D01*
X-8710557Y18789227D01*
X-8733166Y18783563D01*
X-8756221Y18780144D01*
X-8779500Y18779000D01*
X-9254500Y18779000D01*
X-9277779Y18780144D01*
X-9300834Y18783563D01*
X-9323443Y18789227D01*
X-9345387Y18797079D01*
X-9366457Y18807044D01*
X-9386448Y18819026D01*
X-9405168Y18832910D01*
X-9422438Y18848562D01*
X-9438090Y18865832D01*
X-9451974Y18884552D01*
X-9463956Y18904543D01*
X-9473921Y18925613D01*
X-9481773Y18947557D01*
X-9487437Y18970166D01*
X-9490856Y18993221D01*
X-9492000Y19016500D01*
X-9492000Y19591500D01*
X-9490856Y19614779D01*
X-9487437Y19637834D01*
X-9481773Y19660443D01*
X-9473921Y19682387D01*
X-9463956Y19703457D01*
X-9451974Y19723448D01*
X-9438090Y19742168D01*
X-9422438Y19759438D01*
X-9405168Y19775090D01*
X-9386448Y19788974D01*
X-9366457Y19800956D01*
X-9345387Y19810921D01*
X-9323443Y19818773D01*
X-9300834Y19824437D01*
X-9277779Y19827856D01*
X-9254500Y19829000D01*
X-8779500Y19829000D01*
X-8756221Y19827856D01*
X-8756221Y19827856D01*
G37*
D12*
G04 #@! TD*
G04 #@! TO.P,R9,1*
G04 #@! TO.N,Net-(JP6-Pad1)*
X-9017000Y19304000D03*
D11*
G04 #@! TO.N,+5V*
G04 #@! TO.C,R9*
G36*
X-8756221Y18077856D02*
X-8733166Y18074437D01*
X-8710557Y18068773D01*
X-8688613Y18060921D01*
X-8667543Y18050956D01*
X-8647552Y18038974D01*
X-8628832Y18025090D01*
X-8611562Y18009438D01*
X-8595910Y17992168D01*
X-8582026Y17973448D01*
X-8570044Y17953457D01*
X-8560079Y17932387D01*
X-8552227Y17910443D01*
X-8546563Y17887834D01*
X-8543144Y17864779D01*
X-8542000Y17841500D01*
X-8542000Y17266500D01*
X-8543144Y17243221D01*
X-8546563Y17220166D01*
X-8552227Y17197557D01*
X-8560079Y17175613D01*
X-8570044Y17154543D01*
X-8582026Y17134552D01*
X-8595910Y17115832D01*
X-8611562Y17098562D01*
X-8628832Y17082910D01*
X-8647552Y17069026D01*
X-8667543Y17057044D01*
X-8688613Y17047079D01*
X-8710557Y17039227D01*
X-8733166Y17033563D01*
X-8756221Y17030144D01*
X-8779500Y17029000D01*
X-9254500Y17029000D01*
X-9277779Y17030144D01*
X-9300834Y17033563D01*
X-9323443Y17039227D01*
X-9345387Y17047079D01*
X-9366457Y17057044D01*
X-9386448Y17069026D01*
X-9405168Y17082910D01*
X-9422438Y17098562D01*
X-9438090Y17115832D01*
X-9451974Y17134552D01*
X-9463956Y17154543D01*
X-9473921Y17175613D01*
X-9481773Y17197557D01*
X-9487437Y17220166D01*
X-9490856Y17243221D01*
X-9492000Y17266500D01*
X-9492000Y17841500D01*
X-9490856Y17864779D01*
X-9487437Y17887834D01*
X-9481773Y17910443D01*
X-9473921Y17932387D01*
X-9463956Y17953457D01*
X-9451974Y17973448D01*
X-9438090Y17992168D01*
X-9422438Y18009438D01*
X-9405168Y18025090D01*
X-9386448Y18038974D01*
X-9366457Y18050956D01*
X-9345387Y18060921D01*
X-9323443Y18068773D01*
X-9300834Y18074437D01*
X-9277779Y18077856D01*
X-9254500Y18079000D01*
X-8779500Y18079000D01*
X-8756221Y18077856D01*
X-8756221Y18077856D01*
G37*
D12*
G04 #@! TD*
G04 #@! TO.P,R9,2*
G04 #@! TO.N,+5V*
X-9017000Y17554000D03*
D11*
G04 #@! TO.N,Net-(R10-Pad1)*
G04 #@! TO.C,R10*
G36*
X-11296221Y23256856D02*
X-11273166Y23253437D01*
X-11250557Y23247773D01*
X-11228613Y23239921D01*
X-11207543Y23229956D01*
X-11187552Y23217974D01*
X-11168832Y23204090D01*
X-11151562Y23188438D01*
X-11135910Y23171168D01*
X-11122026Y23152448D01*
X-11110044Y23132457D01*
X-11100079Y23111387D01*
X-11092227Y23089443D01*
X-11086563Y23066834D01*
X-11083144Y23043779D01*
X-11082000Y23020500D01*
X-11082000Y22445500D01*
X-11083144Y22422221D01*
X-11086563Y22399166D01*
X-11092227Y22376557D01*
X-11100079Y22354613D01*
X-11110044Y22333543D01*
X-11122026Y22313552D01*
X-11135910Y22294832D01*
X-11151562Y22277562D01*
X-11168832Y22261910D01*
X-11187552Y22248026D01*
X-11207543Y22236044D01*
X-11228613Y22226079D01*
X-11250557Y22218227D01*
X-11273166Y22212563D01*
X-11296221Y22209144D01*
X-11319500Y22208000D01*
X-11794500Y22208000D01*
X-11817779Y22209144D01*
X-11840834Y22212563D01*
X-11863443Y22218227D01*
X-11885387Y22226079D01*
X-11906457Y22236044D01*
X-11926448Y22248026D01*
X-11945168Y22261910D01*
X-11962438Y22277562D01*
X-11978090Y22294832D01*
X-11991974Y22313552D01*
X-12003956Y22333543D01*
X-12013921Y22354613D01*
X-12021773Y22376557D01*
X-12027437Y22399166D01*
X-12030856Y22422221D01*
X-12032000Y22445500D01*
X-12032000Y23020500D01*
X-12030856Y23043779D01*
X-12027437Y23066834D01*
X-12021773Y23089443D01*
X-12013921Y23111387D01*
X-12003956Y23132457D01*
X-11991974Y23152448D01*
X-11978090Y23171168D01*
X-11962438Y23188438D01*
X-11945168Y23204090D01*
X-11926448Y23217974D01*
X-11906457Y23229956D01*
X-11885387Y23239921D01*
X-11863443Y23247773D01*
X-11840834Y23253437D01*
X-11817779Y23256856D01*
X-11794500Y23258000D01*
X-11319500Y23258000D01*
X-11296221Y23256856D01*
X-11296221Y23256856D01*
G37*
D12*
G04 #@! TD*
G04 #@! TO.P,R10,1*
G04 #@! TO.N,Net-(R10-Pad1)*
X-11557000Y22733000D03*
D11*
G04 #@! TO.N,+5V*
G04 #@! TO.C,R10*
G36*
X-11296221Y21506856D02*
X-11273166Y21503437D01*
X-11250557Y21497773D01*
X-11228613Y21489921D01*
X-11207543Y21479956D01*
X-11187552Y21467974D01*
X-11168832Y21454090D01*
X-11151562Y21438438D01*
X-11135910Y21421168D01*
X-11122026Y21402448D01*
X-11110044Y21382457D01*
X-11100079Y21361387D01*
X-11092227Y21339443D01*
X-11086563Y21316834D01*
X-11083144Y21293779D01*
X-11082000Y21270500D01*
X-11082000Y20695500D01*
X-11083144Y20672221D01*
X-11086563Y20649166D01*
X-11092227Y20626557D01*
X-11100079Y20604613D01*
X-11110044Y20583543D01*
X-11122026Y20563552D01*
X-11135910Y20544832D01*
X-11151562Y20527562D01*
X-11168832Y20511910D01*
X-11187552Y20498026D01*
X-11207543Y20486044D01*
X-11228613Y20476079D01*
X-11250557Y20468227D01*
X-11273166Y20462563D01*
X-11296221Y20459144D01*
X-11319500Y20458000D01*
X-11794500Y20458000D01*
X-11817779Y20459144D01*
X-11840834Y20462563D01*
X-11863443Y20468227D01*
X-11885387Y20476079D01*
X-11906457Y20486044D01*
X-11926448Y20498026D01*
X-11945168Y20511910D01*
X-11962438Y20527562D01*
X-11978090Y20544832D01*
X-11991974Y20563552D01*
X-12003956Y20583543D01*
X-12013921Y20604613D01*
X-12021773Y20626557D01*
X-12027437Y20649166D01*
X-12030856Y20672221D01*
X-12032000Y20695500D01*
X-12032000Y21270500D01*
X-12030856Y21293779D01*
X-12027437Y21316834D01*
X-12021773Y21339443D01*
X-12013921Y21361387D01*
X-12003956Y21382457D01*
X-11991974Y21402448D01*
X-11978090Y21421168D01*
X-11962438Y21438438D01*
X-11945168Y21454090D01*
X-11926448Y21467974D01*
X-11906457Y21479956D01*
X-11885387Y21489921D01*
X-11863443Y21497773D01*
X-11840834Y21503437D01*
X-11817779Y21506856D01*
X-11794500Y21508000D01*
X-11319500Y21508000D01*
X-11296221Y21506856D01*
X-11296221Y21506856D01*
G37*
D12*
G04 #@! TD*
G04 #@! TO.P,R10,2*
G04 #@! TO.N,+5V*
X-11557000Y20983000D03*
D11*
G04 #@! TO.N,+5V*
G04 #@! TO.C,R11*
G36*
X-13836221Y21506856D02*
X-13813166Y21503437D01*
X-13790557Y21497773D01*
X-13768613Y21489921D01*
X-13747543Y21479956D01*
X-13727552Y21467974D01*
X-13708832Y21454090D01*
X-13691562Y21438438D01*
X-13675910Y21421168D01*
X-13662026Y21402448D01*
X-13650044Y21382457D01*
X-13640079Y21361387D01*
X-13632227Y21339443D01*
X-13626563Y21316834D01*
X-13623144Y21293779D01*
X-13622000Y21270500D01*
X-13622000Y20695500D01*
X-13623144Y20672221D01*
X-13626563Y20649166D01*
X-13632227Y20626557D01*
X-13640079Y20604613D01*
X-13650044Y20583543D01*
X-13662026Y20563552D01*
X-13675910Y20544832D01*
X-13691562Y20527562D01*
X-13708832Y20511910D01*
X-13727552Y20498026D01*
X-13747543Y20486044D01*
X-13768613Y20476079D01*
X-13790557Y20468227D01*
X-13813166Y20462563D01*
X-13836221Y20459144D01*
X-13859500Y20458000D01*
X-14334500Y20458000D01*
X-14357779Y20459144D01*
X-14380834Y20462563D01*
X-14403443Y20468227D01*
X-14425387Y20476079D01*
X-14446457Y20486044D01*
X-14466448Y20498026D01*
X-14485168Y20511910D01*
X-14502438Y20527562D01*
X-14518090Y20544832D01*
X-14531974Y20563552D01*
X-14543956Y20583543D01*
X-14553921Y20604613D01*
X-14561773Y20626557D01*
X-14567437Y20649166D01*
X-14570856Y20672221D01*
X-14572000Y20695500D01*
X-14572000Y21270500D01*
X-14570856Y21293779D01*
X-14567437Y21316834D01*
X-14561773Y21339443D01*
X-14553921Y21361387D01*
X-14543956Y21382457D01*
X-14531974Y21402448D01*
X-14518090Y21421168D01*
X-14502438Y21438438D01*
X-14485168Y21454090D01*
X-14466448Y21467974D01*
X-14446457Y21479956D01*
X-14425387Y21489921D01*
X-14403443Y21497773D01*
X-14380834Y21503437D01*
X-14357779Y21506856D01*
X-14334500Y21508000D01*
X-13859500Y21508000D01*
X-13836221Y21506856D01*
X-13836221Y21506856D01*
G37*
D12*
G04 #@! TD*
G04 #@! TO.P,R11,2*
G04 #@! TO.N,+5V*
X-14097000Y20983000D03*
D11*
G04 #@! TO.N,Net-(R11-Pad1)*
G04 #@! TO.C,R11*
G36*
X-13836221Y23256856D02*
X-13813166Y23253437D01*
X-13790557Y23247773D01*
X-13768613Y23239921D01*
X-13747543Y23229956D01*
X-13727552Y23217974D01*
X-13708832Y23204090D01*
X-13691562Y23188438D01*
X-13675910Y23171168D01*
X-13662026Y23152448D01*
X-13650044Y23132457D01*
X-13640079Y23111387D01*
X-13632227Y23089443D01*
X-13626563Y23066834D01*
X-13623144Y23043779D01*
X-13622000Y23020500D01*
X-13622000Y22445500D01*
X-13623144Y22422221D01*
X-13626563Y22399166D01*
X-13632227Y22376557D01*
X-13640079Y22354613D01*
X-13650044Y22333543D01*
X-13662026Y22313552D01*
X-13675910Y22294832D01*
X-13691562Y22277562D01*
X-13708832Y22261910D01*
X-13727552Y22248026D01*
X-13747543Y22236044D01*
X-13768613Y22226079D01*
X-13790557Y22218227D01*
X-13813166Y22212563D01*
X-13836221Y22209144D01*
X-13859500Y22208000D01*
X-14334500Y22208000D01*
X-14357779Y22209144D01*
X-14380834Y22212563D01*
X-14403443Y22218227D01*
X-14425387Y22226079D01*
X-14446457Y22236044D01*
X-14466448Y22248026D01*
X-14485168Y22261910D01*
X-14502438Y22277562D01*
X-14518090Y22294832D01*
X-14531974Y22313552D01*
X-14543956Y22333543D01*
X-14553921Y22354613D01*
X-14561773Y22376557D01*
X-14567437Y22399166D01*
X-14570856Y22422221D01*
X-14572000Y22445500D01*
X-14572000Y23020500D01*
X-14570856Y23043779D01*
X-14567437Y23066834D01*
X-14561773Y23089443D01*
X-14553921Y23111387D01*
X-14543956Y23132457D01*
X-14531974Y23152448D01*
X-14518090Y23171168D01*
X-14502438Y23188438D01*
X-14485168Y23204090D01*
X-14466448Y23217974D01*
X-14446457Y23229956D01*
X-14425387Y23239921D01*
X-14403443Y23247773D01*
X-14380834Y23253437D01*
X-14357779Y23256856D01*
X-14334500Y23258000D01*
X-13859500Y23258000D01*
X-13836221Y23256856D01*
X-13836221Y23256856D01*
G37*
D12*
G04 #@! TD*
G04 #@! TO.P,R11,1*
G04 #@! TO.N,Net-(R11-Pad1)*
X-14097000Y22733000D03*
D11*
G04 #@! TO.N,GND*
G04 #@! TO.C,R12*
G36*
X-3625221Y27398056D02*
X-3602166Y27394637D01*
X-3579557Y27388973D01*
X-3557613Y27381121D01*
X-3536543Y27371156D01*
X-3516552Y27359174D01*
X-3497832Y27345290D01*
X-3480562Y27329638D01*
X-3464910Y27312368D01*
X-3451026Y27293648D01*
X-3439044Y27273657D01*
X-3429079Y27252587D01*
X-3421227Y27230643D01*
X-3415563Y27208034D01*
X-3412144Y27184979D01*
X-3411000Y27161700D01*
X-3411000Y26686700D01*
X-3412144Y26663421D01*
X-3415563Y26640366D01*
X-3421227Y26617757D01*
X-3429079Y26595813D01*
X-3439044Y26574743D01*
X-3451026Y26554752D01*
X-3464910Y26536032D01*
X-3480562Y26518762D01*
X-3497832Y26503110D01*
X-3516552Y26489226D01*
X-3536543Y26477244D01*
X-3557613Y26467279D01*
X-3579557Y26459427D01*
X-3602166Y26453763D01*
X-3625221Y26450344D01*
X-3648500Y26449200D01*
X-4223500Y26449200D01*
X-4246779Y26450344D01*
X-4269834Y26453763D01*
X-4292443Y26459427D01*
X-4314387Y26467279D01*
X-4335457Y26477244D01*
X-4355448Y26489226D01*
X-4374168Y26503110D01*
X-4391438Y26518762D01*
X-4407090Y26536032D01*
X-4420974Y26554752D01*
X-4432956Y26574743D01*
X-4442921Y26595813D01*
X-4450773Y26617757D01*
X-4456437Y26640366D01*
X-4459856Y26663421D01*
X-4461000Y26686700D01*
X-4461000Y27161700D01*
X-4459856Y27184979D01*
X-4456437Y27208034D01*
X-4450773Y27230643D01*
X-4442921Y27252587D01*
X-4432956Y27273657D01*
X-4420974Y27293648D01*
X-4407090Y27312368D01*
X-4391438Y27329638D01*
X-4374168Y27345290D01*
X-4355448Y27359174D01*
X-4335457Y27371156D01*
X-4314387Y27381121D01*
X-4292443Y27388973D01*
X-4269834Y27394637D01*
X-4246779Y27398056D01*
X-4223500Y27399200D01*
X-3648500Y27399200D01*
X-3625221Y27398056D01*
X-3625221Y27398056D01*
G37*
D12*
G04 #@! TD*
G04 #@! TO.P,R12,2*
G04 #@! TO.N,GND*
X-3936000Y26924200D03*
D11*
G04 #@! TO.N,Net-(D1-Pad1)*
G04 #@! TO.C,R12*
G36*
X-1875221Y27398056D02*
X-1852166Y27394637D01*
X-1829557Y27388973D01*
X-1807613Y27381121D01*
X-1786543Y27371156D01*
X-1766552Y27359174D01*
X-1747832Y27345290D01*
X-1730562Y27329638D01*
X-1714910Y27312368D01*
X-1701026Y27293648D01*
X-1689044Y27273657D01*
X-1679079Y27252587D01*
X-1671227Y27230643D01*
X-1665563Y27208034D01*
X-1662144Y27184979D01*
X-1661000Y27161700D01*
X-1661000Y26686700D01*
X-1662144Y26663421D01*
X-1665563Y26640366D01*
X-1671227Y26617757D01*
X-1679079Y26595813D01*
X-1689044Y26574743D01*
X-1701026Y26554752D01*
X-1714910Y26536032D01*
X-1730562Y26518762D01*
X-1747832Y26503110D01*
X-1766552Y26489226D01*
X-1786543Y26477244D01*
X-1807613Y26467279D01*
X-1829557Y26459427D01*
X-1852166Y26453763D01*
X-1875221Y26450344D01*
X-1898500Y26449200D01*
X-2473500Y26449200D01*
X-2496779Y26450344D01*
X-2519834Y26453763D01*
X-2542443Y26459427D01*
X-2564387Y26467279D01*
X-2585457Y26477244D01*
X-2605448Y26489226D01*
X-2624168Y26503110D01*
X-2641438Y26518762D01*
X-2657090Y26536032D01*
X-2670974Y26554752D01*
X-2682956Y26574743D01*
X-2692921Y26595813D01*
X-2700773Y26617757D01*
X-2706437Y26640366D01*
X-2709856Y26663421D01*
X-2711000Y26686700D01*
X-2711000Y27161700D01*
X-2709856Y27184979D01*
X-2706437Y27208034D01*
X-2700773Y27230643D01*
X-2692921Y27252587D01*
X-2682956Y27273657D01*
X-2670974Y27293648D01*
X-2657090Y27312368D01*
X-2641438Y27329638D01*
X-2624168Y27345290D01*
X-2605448Y27359174D01*
X-2585457Y27371156D01*
X-2564387Y27381121D01*
X-2542443Y27388973D01*
X-2519834Y27394637D01*
X-2496779Y27398056D01*
X-2473500Y27399200D01*
X-1898500Y27399200D01*
X-1875221Y27398056D01*
X-1875221Y27398056D01*
G37*
D12*
G04 #@! TD*
G04 #@! TO.P,R12,1*
G04 #@! TO.N,Net-(D1-Pad1)*
X-2186000Y26924200D03*
D11*
G04 #@! TO.N,Net-(D2-Pad1)*
G04 #@! TO.C,R13*
G36*
X-8289221Y-31651145D02*
X-8266166Y-31654564D01*
X-8243557Y-31660228D01*
X-8221613Y-31668080D01*
X-8200543Y-31678045D01*
X-8180552Y-31690027D01*
X-8161832Y-31703911D01*
X-8144562Y-31719563D01*
X-8128910Y-31736833D01*
X-8115026Y-31755553D01*
X-8103044Y-31775544D01*
X-8093079Y-31796614D01*
X-8085227Y-31818558D01*
X-8079563Y-31841167D01*
X-8076144Y-31864222D01*
X-8075000Y-31887501D01*
X-8075000Y-32462501D01*
X-8076144Y-32485780D01*
X-8079563Y-32508835D01*
X-8085227Y-32531444D01*
X-8093079Y-32553388D01*
X-8103044Y-32574458D01*
X-8115026Y-32594449D01*
X-8128910Y-32613169D01*
X-8144562Y-32630439D01*
X-8161832Y-32646091D01*
X-8180552Y-32659975D01*
X-8200543Y-32671957D01*
X-8221613Y-32681922D01*
X-8243557Y-32689774D01*
X-8266166Y-32695438D01*
X-8289221Y-32698857D01*
X-8312500Y-32700001D01*
X-8787500Y-32700001D01*
X-8810779Y-32698857D01*
X-8833834Y-32695438D01*
X-8856443Y-32689774D01*
X-8878387Y-32681922D01*
X-8899457Y-32671957D01*
X-8919448Y-32659975D01*
X-8938168Y-32646091D01*
X-8955438Y-32630439D01*
X-8971090Y-32613169D01*
X-8984974Y-32594449D01*
X-8996956Y-32574458D01*
X-9006921Y-32553388D01*
X-9014773Y-32531444D01*
X-9020437Y-32508835D01*
X-9023856Y-32485780D01*
X-9025000Y-32462501D01*
X-9025000Y-31887501D01*
X-9023856Y-31864222D01*
X-9020437Y-31841167D01*
X-9014773Y-31818558D01*
X-9006921Y-31796614D01*
X-8996956Y-31775544D01*
X-8984974Y-31755553D01*
X-8971090Y-31736833D01*
X-8955438Y-31719563D01*
X-8938168Y-31703911D01*
X-8919448Y-31690027D01*
X-8899457Y-31678045D01*
X-8878387Y-31668080D01*
X-8856443Y-31660228D01*
X-8833834Y-31654564D01*
X-8810779Y-31651145D01*
X-8787500Y-31650001D01*
X-8312500Y-31650001D01*
X-8289221Y-31651145D01*
X-8289221Y-31651145D01*
G37*
D12*
G04 #@! TD*
G04 #@! TO.P,R13,1*
G04 #@! TO.N,Net-(D2-Pad1)*
X-8550000Y-32175001D03*
D11*
G04 #@! TO.N,GNDD*
G04 #@! TO.C,R13*
G36*
X-8289221Y-33401145D02*
X-8266166Y-33404564D01*
X-8243557Y-33410228D01*
X-8221613Y-33418080D01*
X-8200543Y-33428045D01*
X-8180552Y-33440027D01*
X-8161832Y-33453911D01*
X-8144562Y-33469563D01*
X-8128910Y-33486833D01*
X-8115026Y-33505553D01*
X-8103044Y-33525544D01*
X-8093079Y-33546614D01*
X-8085227Y-33568558D01*
X-8079563Y-33591167D01*
X-8076144Y-33614222D01*
X-8075000Y-33637501D01*
X-8075000Y-34212501D01*
X-8076144Y-34235780D01*
X-8079563Y-34258835D01*
X-8085227Y-34281444D01*
X-8093079Y-34303388D01*
X-8103044Y-34324458D01*
X-8115026Y-34344449D01*
X-8128910Y-34363169D01*
X-8144562Y-34380439D01*
X-8161832Y-34396091D01*
X-8180552Y-34409975D01*
X-8200543Y-34421957D01*
X-8221613Y-34431922D01*
X-8243557Y-34439774D01*
X-8266166Y-34445438D01*
X-8289221Y-34448857D01*
X-8312500Y-34450001D01*
X-8787500Y-34450001D01*
X-8810779Y-34448857D01*
X-8833834Y-34445438D01*
X-8856443Y-34439774D01*
X-8878387Y-34431922D01*
X-8899457Y-34421957D01*
X-8919448Y-34409975D01*
X-8938168Y-34396091D01*
X-8955438Y-34380439D01*
X-8971090Y-34363169D01*
X-8984974Y-34344449D01*
X-8996956Y-34324458D01*
X-9006921Y-34303388D01*
X-9014773Y-34281444D01*
X-9020437Y-34258835D01*
X-9023856Y-34235780D01*
X-9025000Y-34212501D01*
X-9025000Y-33637501D01*
X-9023856Y-33614222D01*
X-9020437Y-33591167D01*
X-9014773Y-33568558D01*
X-9006921Y-33546614D01*
X-8996956Y-33525544D01*
X-8984974Y-33505553D01*
X-8971090Y-33486833D01*
X-8955438Y-33469563D01*
X-8938168Y-33453911D01*
X-8919448Y-33440027D01*
X-8899457Y-33428045D01*
X-8878387Y-33418080D01*
X-8856443Y-33410228D01*
X-8833834Y-33404564D01*
X-8810779Y-33401145D01*
X-8787500Y-33400001D01*
X-8312500Y-33400001D01*
X-8289221Y-33401145D01*
X-8289221Y-33401145D01*
G37*
D12*
G04 #@! TD*
G04 #@! TO.P,R13,2*
G04 #@! TO.N,GNDD*
X-8550000Y-33925001D03*
D11*
G04 #@! TO.N,GNDD*
G04 #@! TO.C,R14*
G36*
X-12789221Y-33401144D02*
X-12766166Y-33404563D01*
X-12743557Y-33410227D01*
X-12721613Y-33418079D01*
X-12700543Y-33428044D01*
X-12680552Y-33440026D01*
X-12661832Y-33453910D01*
X-12644562Y-33469562D01*
X-12628910Y-33486832D01*
X-12615026Y-33505552D01*
X-12603044Y-33525543D01*
X-12593079Y-33546613D01*
X-12585227Y-33568557D01*
X-12579563Y-33591166D01*
X-12576144Y-33614221D01*
X-12575000Y-33637500D01*
X-12575000Y-34212500D01*
X-12576144Y-34235779D01*
X-12579563Y-34258834D01*
X-12585227Y-34281443D01*
X-12593079Y-34303387D01*
X-12603044Y-34324457D01*
X-12615026Y-34344448D01*
X-12628910Y-34363168D01*
X-12644562Y-34380438D01*
X-12661832Y-34396090D01*
X-12680552Y-34409974D01*
X-12700543Y-34421956D01*
X-12721613Y-34431921D01*
X-12743557Y-34439773D01*
X-12766166Y-34445437D01*
X-12789221Y-34448856D01*
X-12812500Y-34450000D01*
X-13287500Y-34450000D01*
X-13310779Y-34448856D01*
X-13333834Y-34445437D01*
X-13356443Y-34439773D01*
X-13378387Y-34431921D01*
X-13399457Y-34421956D01*
X-13419448Y-34409974D01*
X-13438168Y-34396090D01*
X-13455438Y-34380438D01*
X-13471090Y-34363168D01*
X-13484974Y-34344448D01*
X-13496956Y-34324457D01*
X-13506921Y-34303387D01*
X-13514773Y-34281443D01*
X-13520437Y-34258834D01*
X-13523856Y-34235779D01*
X-13525000Y-34212500D01*
X-13525000Y-33637500D01*
X-13523856Y-33614221D01*
X-13520437Y-33591166D01*
X-13514773Y-33568557D01*
X-13506921Y-33546613D01*
X-13496956Y-33525543D01*
X-13484974Y-33505552D01*
X-13471090Y-33486832D01*
X-13455438Y-33469562D01*
X-13438168Y-33453910D01*
X-13419448Y-33440026D01*
X-13399457Y-33428044D01*
X-13378387Y-33418079D01*
X-13356443Y-33410227D01*
X-13333834Y-33404563D01*
X-13310779Y-33401144D01*
X-13287500Y-33400000D01*
X-12812500Y-33400000D01*
X-12789221Y-33401144D01*
X-12789221Y-33401144D01*
G37*
D12*
G04 #@! TD*
G04 #@! TO.P,R14,2*
G04 #@! TO.N,GNDD*
X-13050000Y-33925000D03*
D11*
G04 #@! TO.N,Net-(D3-Pad1)*
G04 #@! TO.C,R14*
G36*
X-12789221Y-31651144D02*
X-12766166Y-31654563D01*
X-12743557Y-31660227D01*
X-12721613Y-31668079D01*
X-12700543Y-31678044D01*
X-12680552Y-31690026D01*
X-12661832Y-31703910D01*
X-12644562Y-31719562D01*
X-12628910Y-31736832D01*
X-12615026Y-31755552D01*
X-12603044Y-31775543D01*
X-12593079Y-31796613D01*
X-12585227Y-31818557D01*
X-12579563Y-31841166D01*
X-12576144Y-31864221D01*
X-12575000Y-31887500D01*
X-12575000Y-32462500D01*
X-12576144Y-32485779D01*
X-12579563Y-32508834D01*
X-12585227Y-32531443D01*
X-12593079Y-32553387D01*
X-12603044Y-32574457D01*
X-12615026Y-32594448D01*
X-12628910Y-32613168D01*
X-12644562Y-32630438D01*
X-12661832Y-32646090D01*
X-12680552Y-32659974D01*
X-12700543Y-32671956D01*
X-12721613Y-32681921D01*
X-12743557Y-32689773D01*
X-12766166Y-32695437D01*
X-12789221Y-32698856D01*
X-12812500Y-32700000D01*
X-13287500Y-32700000D01*
X-13310779Y-32698856D01*
X-13333834Y-32695437D01*
X-13356443Y-32689773D01*
X-13378387Y-32681921D01*
X-13399457Y-32671956D01*
X-13419448Y-32659974D01*
X-13438168Y-32646090D01*
X-13455438Y-32630438D01*
X-13471090Y-32613168D01*
X-13484974Y-32594448D01*
X-13496956Y-32574457D01*
X-13506921Y-32553387D01*
X-13514773Y-32531443D01*
X-13520437Y-32508834D01*
X-13523856Y-32485779D01*
X-13525000Y-32462500D01*
X-13525000Y-31887500D01*
X-13523856Y-31864221D01*
X-13520437Y-31841166D01*
X-13514773Y-31818557D01*
X-13506921Y-31796613D01*
X-13496956Y-31775543D01*
X-13484974Y-31755552D01*
X-13471090Y-31736832D01*
X-13455438Y-31719562D01*
X-13438168Y-31703910D01*
X-13419448Y-31690026D01*
X-13399457Y-31678044D01*
X-13378387Y-31668079D01*
X-13356443Y-31660227D01*
X-13333834Y-31654563D01*
X-13310779Y-31651144D01*
X-13287500Y-31650000D01*
X-12812500Y-31650000D01*
X-12789221Y-31651144D01*
X-12789221Y-31651144D01*
G37*
D12*
G04 #@! TD*
G04 #@! TO.P,R14,1*
G04 #@! TO.N,Net-(D3-Pad1)*
X-13050000Y-32175000D03*
D17*
G04 #@! TO.P,SW3,1*
G04 #@! TO.N,Net-(SW3-Pad1)*
X6985000Y-10160000D03*
D22*
G04 #@! TO.P,SW3,5*
G04 #@! TO.N,GNDD*
X14605000Y-2540000D03*
G04 #@! TO.P,SW3,2*
G04 #@! TO.N,Net-(SW3-Pad2)*
X9525000Y-10160000D03*
G04 #@! TO.P,SW3,6*
G04 #@! TO.N,GNDD*
X12065000Y-2540000D03*
G04 #@! TO.P,SW3,3*
G04 #@! TO.N,Net-(SW3-Pad3)*
X12065000Y-10160000D03*
G04 #@! TO.P,SW3,7*
G04 #@! TO.N,GNDD*
X9525000Y-2540000D03*
G04 #@! TO.P,SW3,4*
G04 #@! TO.N,Net-(SW3-Pad4)*
X14605000Y-10160000D03*
G04 #@! TO.P,SW3,8*
G04 #@! TO.N,GNDD*
X6985000Y-2540000D03*
G04 #@! TD*
D23*
G04 #@! TO.P,SW4,2*
G04 #@! TO.N,GND*
X-1850000Y2390000D03*
G04 #@! TO.P,SW4,1*
G04 #@! TO.N,/BTN1_T*
X-6350000Y2390000D03*
G04 #@! TO.P,SW4,2*
G04 #@! TO.N,GND*
X-1850000Y8890000D03*
G04 #@! TO.P,SW4,1*
G04 #@! TO.N,/BTN1_T*
X-6350000Y8890000D03*
G04 #@! TD*
D27*
G04 #@! TO.P,U3,16*
G04 #@! TO.N,+BATT*
X19177000Y12065000D03*
G04 #@! TO.P,U3,1*
G04 #@! TO.N,/M_ENABLE_T*
X19177000Y24765000D03*
G04 #@! TO.P,U3,15*
G04 #@! TO.N,GND*
X16637000Y12065000D03*
G04 #@! TO.P,U3,2*
G04 #@! TO.N,Net-(JP1-Pad2)*
X16637000Y24765000D03*
G04 #@! TO.P,U3,14*
G04 #@! TO.N,Net-(M1-Pad1)*
X14097000Y12065000D03*
G04 #@! TO.P,U3,3*
G04 #@! TO.N,Net-(JP2-Pad2)*
X14097000Y24765000D03*
G04 #@! TO.P,U3,13*
G04 #@! TO.N,Net-(M1-Pad2)*
X11557000Y12065000D03*
G04 #@! TO.P,U3,4*
G04 #@! TO.N,Net-(JP3-Pad2)*
X11557000Y24765000D03*
G04 #@! TO.P,U3,12*
G04 #@! TO.N,Net-(M1-Pad3)*
X9017000Y12065000D03*
G04 #@! TO.P,U3,5*
G04 #@! TO.N,Net-(R5-Pad1)*
X9017000Y24765000D03*
G04 #@! TO.P,U3,11*
G04 #@! TO.N,Net-(M1-Pad4)*
X6477000Y12065000D03*
G04 #@! TO.P,U3,6*
G04 #@! TO.N,Net-(R6-Pad1)*
X6477000Y24765000D03*
G04 #@! TO.P,U3,10*
G04 #@! TO.N,+5V*
X3937000Y12065000D03*
G04 #@! TO.P,U3,7*
G04 #@! TO.N,/LEFT_STEP_T*
X3937000Y24765000D03*
G04 #@! TO.P,U3,9*
G04 #@! TO.N,GND*
X1397000Y12065000D03*
G04 #@! TO.P,U3,8*
G04 #@! TO.N,/LEFT_DIR_T*
X1397000Y24765000D03*
G04 #@! TD*
G04 #@! TO.P,U4,8*
G04 #@! TO.N,/RIGHT_DIR_T*
X-19177000Y24765000D03*
G04 #@! TO.P,U4,9*
G04 #@! TO.N,GND*
X-19177000Y12065000D03*
G04 #@! TO.P,U4,7*
G04 #@! TO.N,/RIGHT_STEP_T*
X-16637000Y24765000D03*
G04 #@! TO.P,U4,10*
G04 #@! TO.N,+5V*
X-16637000Y12065000D03*
G04 #@! TO.P,U4,6*
G04 #@! TO.N,Net-(R11-Pad1)*
X-14097000Y24765000D03*
G04 #@! TO.P,U4,11*
G04 #@! TO.N,Net-(M2-Pad4)*
X-14097000Y12065000D03*
G04 #@! TO.P,U4,5*
G04 #@! TO.N,Net-(R10-Pad1)*
X-11557000Y24765000D03*
G04 #@! TO.P,U4,12*
G04 #@! TO.N,Net-(M2-Pad3)*
X-11557000Y12065000D03*
G04 #@! TO.P,U4,4*
G04 #@! TO.N,Net-(JP6-Pad2)*
X-9017000Y24765000D03*
G04 #@! TO.P,U4,13*
G04 #@! TO.N,Net-(M2-Pad2)*
X-9017000Y12065000D03*
G04 #@! TO.P,U4,3*
G04 #@! TO.N,Net-(JP5-Pad2)*
X-6477000Y24765000D03*
G04 #@! TO.P,U4,14*
G04 #@! TO.N,Net-(M2-Pad1)*
X-6477000Y12065000D03*
G04 #@! TO.P,U4,2*
G04 #@! TO.N,Net-(JP4-Pad2)*
X-3937000Y24765000D03*
G04 #@! TO.P,U4,15*
G04 #@! TO.N,GND*
X-3937000Y12065000D03*
G04 #@! TO.P,U4,1*
G04 #@! TO.N,/M_ENABLE_T*
X-1397000Y24765000D03*
G04 #@! TO.P,U4,16*
G04 #@! TO.N,+BATT*
X-1397000Y12065000D03*
G04 #@! TD*
D28*
G04 #@! TO.N,GND*
X19177000Y16256000D03*
X-17907000Y27432000D03*
X-12827000Y27426000D03*
G04 #@! TO.N,+5V*
X19177000Y20434999D03*
G04 #@! TO.N,Net-(C9-Pad2)*
X16497000Y-18872000D03*
X19140090Y-27226442D03*
G04 #@! TO.N,/RX*
X12814000Y-17072997D03*
X20789600Y-24739400D03*
G04 #@! TO.N,/TX*
X12814000Y-18872000D03*
X20942000Y-27228600D03*
G04 #@! TO.N,/RIGHT_ECHO*
X3543000Y-7696000D03*
X-19050000Y-10668000D03*
G04 #@! TO.N,/XTAL1*
X9398000Y-18034000D03*
X-2540000Y-19304000D03*
G04 #@! TO.N,/XTAL2*
X6858000Y-18034000D03*
X-5080000Y-19304000D03*
G04 #@! TO.N,/SENSE_TRIG*
X-19063000Y-25984000D03*
X-19063000Y-20015000D03*
G04 #@! TO.N,/M_ENABLE_T*
X-1397000Y21844000D03*
X19177000Y22733000D03*
G04 #@! TO.N,/LEFT_STEP_T*
X3937000Y21844000D03*
G04 #@! TO.N,/LEFT_DIR_T*
X1397000Y21767980D03*
G04 #@! TO.N,/RIGHT_DIR_T*
X-19177000Y20701000D03*
G04 #@! TO.N,/RIGHT_STEP_T*
X-16637000Y20701000D03*
G04 #@! TO.N,GNDD*
X-20576181Y-18593181D03*
X-20587000Y-24841000D03*
X20434000Y-18491000D03*
X3556000Y-12700000D03*
X8128000Y-12700000D03*
X6362400Y-30606800D03*
G04 #@! TO.N,+5VD*
X-19050000Y-12573000D03*
X3556000Y-10668000D03*
X16510000Y-13462000D03*
X20320000Y-13462000D03*
X-6363000Y-30632200D03*
G04 #@! TO.N,/USB_5V_T*
X19177000Y18635996D03*
G04 #@! TO.N,/BTN2_T*
X19176991Y9566980D03*
G04 #@! TO.N,/BTN1_T*
X7425000Y6375000D03*
G04 #@! TD*
D29*
G04 #@! TO.N,GND*
X-5588000Y28956000D02*
X-5588000Y30988000D01*
X-1850000Y8890000D02*
X1850000Y8890000D01*
X1397000Y9343000D02*
X1850000Y8890000D01*
X1397000Y12065000D02*
X1397000Y9343000D01*
X-3937000Y10977000D02*
X-3937000Y12065000D01*
X-1850000Y8890000D02*
X-3937000Y10977000D01*
X16637000Y12065000D02*
X16637000Y12465000D01*
X16637000Y14161000D02*
X16700000Y14224000D01*
X16637000Y12065000D02*
X16637000Y14161000D01*
X1397000Y14221000D02*
X1400000Y14224000D01*
X1397000Y12065000D02*
X1397000Y14221000D01*
X-3937000Y14187000D02*
X-3900000Y14224000D01*
X-3937000Y12065000D02*
X-3937000Y14187000D01*
X-19177000Y14123000D02*
X-19100000Y14200000D01*
X-19177000Y12065000D02*
X-19177000Y14123000D01*
X-18274000Y15026000D02*
X-19100000Y14200000D01*
X-18274000Y15026000D02*
X-18200000Y15100000D01*
X1405708Y14200000D02*
X1400000Y14200000D01*
X2305708Y15100000D02*
X1405708Y14200000D01*
X5100000Y15100000D02*
X2305708Y15100000D01*
X5976000Y14224000D02*
X16700000Y14224000D01*
X5100000Y15100000D02*
X5976000Y14224000D01*
X-13094000Y15100000D02*
X-15400000Y15100000D01*
X-12827000Y15113000D02*
X-13094000Y15100000D01*
X-11938000Y14224000D02*
X-3900000Y14224000D01*
X-12827000Y15113000D02*
X-11938000Y14224000D01*
X-17907000Y15100000D02*
X-15400000Y15100000D01*
X-18200000Y15100000D02*
X-17907000Y15100000D01*
X19177000Y15124630D02*
X19177000Y16256000D01*
X20126010Y12858092D02*
X19826990Y13157112D01*
X16637000Y12065000D02*
X16637000Y11665000D01*
X19826990Y13157112D02*
X19826990Y14474640D01*
X20126010Y11271908D02*
X20126010Y12858092D01*
X17586010Y10715990D02*
X19570092Y10715990D01*
X19570092Y10715990D02*
X20126010Y11271908D01*
X19826990Y14474640D02*
X19177000Y15124630D01*
X16637000Y11665000D02*
X17586010Y10715990D01*
X-17907000Y15100000D02*
X-17907000Y27432000D01*
X-5588000Y28908500D02*
X-5588000Y28956000D01*
X-12827000Y27426000D02*
X-7070500Y27426000D01*
X-5588000Y27489800D02*
X-5651800Y27426000D01*
X-5588000Y28956000D02*
X-5588000Y27489800D01*
X-7070500Y27426000D02*
X-5651800Y27426000D01*
X-5093000Y26924200D02*
X-3936000Y26924200D01*
X-5651800Y27426000D02*
X-5594800Y27426000D01*
X-5594800Y27426000D02*
X-5093000Y26924200D01*
X-5587800Y30988200D02*
X-5588000Y30988000D01*
X-4785600Y30988200D02*
X-5587800Y30988200D01*
X-14050999Y30994001D02*
X-11055001Y30994001D01*
X-15200000Y29845000D02*
X-14050999Y30994001D01*
X-11049000Y30988000D02*
X-6096000Y30988000D01*
X-11055001Y30994001D02*
X-11049000Y30988000D01*
X-6096000Y30988000D02*
X-5588000Y30988000D01*
X-5588000Y30988000D02*
X-5080000Y30988000D01*
X-4785600Y30988200D02*
X-4785600Y32204800D01*
X-5080000Y32499200D02*
X-5080000Y34290000D01*
X-4785600Y32204800D02*
X-5080000Y32499200D01*
G04 #@! TO.N,+5V*
X23000000Y23580000D02*
X22394000Y23580000D01*
X-6476999Y17554001D02*
X-6477000Y17554000D01*
X-3937000Y17554001D02*
X-6476999Y17554001D01*
X-6477000Y17554000D02*
X-9017000Y17554000D01*
X-11557000Y20358000D02*
X-11557000Y20983000D01*
X-11557000Y19519000D02*
X-11557000Y20358000D01*
X-9592000Y17554000D02*
X-11557000Y19519000D01*
X-9017000Y17554000D02*
X-9592000Y17554000D01*
X-11557000Y20983000D02*
X-14097000Y20983000D01*
X16637000Y17554001D02*
X14097000Y17554001D01*
X11557001Y17554001D02*
X11557000Y17554000D01*
X14097000Y17554001D02*
X11557001Y17554001D01*
X9017000Y19519000D02*
X9017000Y20358001D01*
X9017000Y20358001D02*
X9017000Y20983001D01*
X10982000Y17554000D02*
X9017000Y19519000D01*
X11557000Y17554000D02*
X10982000Y17554000D01*
X9017000Y20983001D02*
X6477000Y20983001D01*
X3937000Y8980478D02*
X3937000Y10765000D01*
X3937000Y10765000D02*
X3937000Y12065000D01*
X-2497521Y7540999D02*
X2497521Y7540999D01*
X-5200000Y12530102D02*
X-5200000Y10243478D01*
X-5200000Y10243478D02*
X-2497521Y7540999D01*
X3937000Y13437000D02*
X3150000Y14224000D01*
X3937000Y12065000D02*
X3937000Y13437000D01*
X-16637000Y13487000D02*
X-17350000Y14200000D01*
X-16637000Y12065000D02*
X-16637000Y13487000D01*
X-16637000Y13487000D02*
X-6156898Y13487000D01*
X-6156898Y13487000D02*
X-5400000Y12730102D01*
X-5400000Y12730102D02*
X-5200000Y12530102D01*
X-3362000Y17554001D02*
X-3937000Y17554001D01*
X1347523Y17554001D02*
X-3362000Y17554001D01*
X4776523Y20983001D02*
X1347523Y17554001D01*
X6477000Y20983001D02*
X4776523Y20983001D01*
X19177000Y20434999D02*
X20308370Y20434999D01*
X2850001Y30550999D02*
X1651000Y31750000D01*
X2850001Y27065705D02*
X2850001Y30550999D01*
X19719808Y26670000D02*
X3245706Y26670000D01*
X20825010Y21968010D02*
X20825010Y25564798D01*
X3245706Y26670000D02*
X2850001Y27065705D01*
X20326001Y21469001D02*
X20825010Y21968010D01*
X20825010Y25564798D02*
X19719808Y26670000D01*
X20326001Y18669000D02*
X20326001Y21469001D01*
X20326001Y18084475D02*
X20326001Y18669000D01*
X3937000Y8980478D02*
X3937000Y7540999D01*
X2497521Y7540999D02*
X3937000Y7540999D01*
X3937000Y7540999D02*
X8207001Y7540999D01*
X8207001Y7540999D02*
X8763000Y6985000D01*
X8763000Y6985000D02*
X18499071Y6985001D01*
X20625020Y13064790D02*
X20326001Y13363809D01*
X20625020Y13064790D02*
X20625020Y9314487D01*
X20625020Y9110950D02*
X19431000Y7916930D01*
X20625020Y9314487D02*
X20625020Y9110950D01*
X18499071Y6985001D02*
X19431000Y7916930D01*
X20326001Y13363809D02*
X20326001Y17526000D01*
X20326001Y17526000D02*
X20326001Y18669000D01*
X20286996Y17486995D02*
X20326001Y17526000D01*
X18625479Y17486995D02*
X20286996Y17486995D01*
X18558473Y17554001D02*
X18625479Y17486995D01*
X16637000Y17554001D02*
X18558473Y17554001D01*
X1650800Y31750200D02*
X1651000Y31750000D01*
X-241600Y31750200D02*
X1650800Y31750200D01*
G04 #@! TO.N,+BATT*
X-15240000Y34290000D02*
X-15240000Y31496000D01*
X-15240000Y31496000D02*
X-16383000Y30353000D01*
X-12700000Y29845000D02*
X-12700000Y28745000D01*
X-12700000Y29845000D02*
X-12700000Y28575000D01*
X-12870000Y28575000D02*
X-12700000Y28575000D01*
X-9761500Y28575000D02*
X-12870000Y28575000D01*
X-9380500Y28956000D02*
X-9761500Y28575000D01*
X-8128000Y28956000D02*
X-9380500Y28956000D01*
X19177000Y13497000D02*
X18450000Y14224000D01*
X19177000Y12065000D02*
X19177000Y13497000D01*
X-1397000Y13471000D02*
X-2150000Y14224000D01*
X-1397000Y12065000D02*
X-1397000Y13471000D01*
X-4500000Y15048010D02*
X-2974010Y15048010D01*
X-2150000Y14799000D02*
X-2151990Y14800990D01*
X-2151990Y14800990D02*
X-2151990Y15048010D01*
X-2150000Y14224000D02*
X-2150000Y14799000D01*
X-2974010Y15048010D02*
X-2151990Y15048010D01*
X-2151990Y15048010D02*
X1548010Y15048010D01*
X4000000Y17600000D02*
X5100000Y17600000D01*
X1548010Y15148010D02*
X4000000Y17600000D01*
X1548010Y15048010D02*
X1548010Y15148010D01*
X17625990Y15048010D02*
X17950928Y14723072D01*
X8751990Y15048010D02*
X17625990Y15048010D01*
X6200000Y17600000D02*
X8751990Y15048010D01*
X17950928Y14723072D02*
X18450000Y14224000D01*
X5100000Y17600000D02*
X6200000Y17600000D01*
X-14986000Y28575000D02*
X-15621000Y28575000D01*
X-12870000Y28575000D02*
X-14986000Y28575000D01*
X-15400000Y28481000D02*
X-15494000Y28575000D01*
X-15400000Y17600000D02*
X-15400000Y28481000D01*
X-16383000Y29327478D02*
X-16383000Y30099000D01*
X-15630522Y28575000D02*
X-16383000Y29327478D01*
X-15367000Y28575000D02*
X-15630522Y28575000D01*
X-14986000Y28575000D02*
X-15367000Y28575000D01*
X-15367000Y28575000D02*
X-15494000Y28575000D01*
X-16383000Y30353000D02*
X-16383000Y30099000D01*
X-11748010Y15048010D02*
X-9017000Y15048010D01*
X-14300000Y17600000D02*
X-11748010Y15048010D01*
X-15400000Y17600000D02*
X-14300000Y17600000D01*
X-10519010Y15048010D02*
X-9017000Y15048010D01*
X-9017000Y15048010D02*
X-4500000Y15048010D01*
G04 #@! TO.N,Net-(C8-Pad1)*
X-3048000Y30975800D02*
X-3035600Y30988200D01*
X-3048000Y28956000D02*
X-3048000Y30975800D01*
X266200Y34290000D02*
X1651000Y34290000D01*
X-3035600Y30988200D02*
X266200Y34290000D01*
G04 #@! TO.N,Net-(C9-Pad2)*
X16510001Y-17135002D02*
X16468999Y-17094000D01*
X16497000Y-18872000D02*
X16510001Y-17135002D01*
X19140090Y-28357812D02*
X19140090Y-27226442D01*
X18657020Y-29539914D02*
X18657020Y-28840882D01*
X17463134Y-30733800D02*
X18657020Y-29539914D01*
X18657020Y-28840882D02*
X19140090Y-28357812D01*
X15684200Y-32156200D02*
X17106600Y-30733800D01*
X17106600Y-30733800D02*
X17463134Y-30733800D01*
G04 #@! TO.N,/RST*
X14718999Y-19163999D02*
X14718999Y-17094000D01*
X16510000Y-20955000D02*
X14718999Y-19163999D01*
X14718999Y-15570000D02*
X14718999Y-17094000D01*
G04 #@! TO.N,Net-(D1-Pad1)*
X-241600Y30000200D02*
X-241600Y27711600D01*
X-1029000Y26924200D02*
X-2186000Y26924200D01*
X-241600Y27711600D02*
X-1029000Y26924200D01*
G04 #@! TO.N,Net-(D2-Pad1)*
X-10699999Y-34325000D02*
X-8550000Y-32175001D01*
X-10800000Y-34325000D02*
X-10699999Y-34325000D01*
G04 #@! TO.N,/LED1*
X-7149999Y-29374999D02*
X-6350000Y-28575000D01*
X-7925000Y-30150000D02*
X-7149999Y-29374999D01*
X-10800000Y-31785000D02*
X-9165000Y-30150000D01*
X-9165000Y-30150000D02*
X-7925000Y-30150000D01*
G04 #@! TO.N,/LED2*
X-9689999Y-29374999D02*
X-8890000Y-28575000D01*
X-10464600Y-30149600D02*
X-9689999Y-29374999D01*
X-15300000Y-31785000D02*
X-13664600Y-30149600D01*
X-13664600Y-30149600D02*
X-10464600Y-30149600D01*
G04 #@! TO.N,Net-(D3-Pad1)*
X-15200000Y-34325000D02*
X-13050000Y-32175000D01*
X-15300000Y-34325000D02*
X-15200000Y-34325000D01*
G04 #@! TO.N,/USB_5V*
X23849999Y-16809999D02*
X23000000Y-15960000D01*
X13994199Y-33846201D02*
X13144200Y-34696200D01*
X14343201Y-33497199D02*
X13994199Y-33846201D01*
X14343201Y-31662905D02*
X14343201Y-33497199D01*
X15783095Y-30223011D02*
X14343201Y-31662905D01*
X17268217Y-30223011D02*
X15783095Y-30223011D01*
X18158010Y-29333218D02*
X17268217Y-30223011D01*
X18158010Y-27869293D02*
X18158010Y-29333218D01*
X23000000Y-15960000D02*
X24244000Y-17204000D01*
X24244000Y-17204000D02*
X24244000Y-24661922D01*
X24244000Y-24661922D02*
X23017521Y-25888401D01*
X23017521Y-25888401D02*
X18853199Y-25888401D01*
X18853199Y-25888401D02*
X17970200Y-26771400D01*
X17970200Y-27076200D02*
X17970200Y-27457200D01*
X17970200Y-27076200D02*
X17970200Y-27681483D01*
X17970200Y-26771400D02*
X17970200Y-27076200D01*
X17970200Y-27681483D02*
X18158010Y-27869293D01*
G04 #@! TO.N,/RX*
X13970000Y-18228997D02*
X13970000Y-20955000D01*
X12814000Y-17072997D02*
X13970000Y-18228997D01*
X15576399Y-29724001D02*
X13144200Y-32156200D01*
X20789600Y-24739400D02*
X19296494Y-24739400D01*
X17659001Y-29126521D02*
X17061521Y-29724001D01*
X17061521Y-29724001D02*
X15576399Y-29724001D01*
X17659001Y-28075990D02*
X17659001Y-29126521D01*
X17659001Y-28075990D02*
X17649190Y-28075990D01*
X17649190Y-28075990D02*
X17471191Y-27897991D01*
X17471191Y-26564703D02*
X19296494Y-24739400D01*
X17471191Y-27897991D02*
X17471191Y-26564703D01*
G04 #@! TO.N,/TX*
X11430000Y-19823630D02*
X11430000Y-20955000D01*
X11430000Y-19124630D02*
X11430000Y-19823630D01*
X11682630Y-18872000D02*
X11430000Y-19124630D01*
X12814000Y-18872000D02*
X11682630Y-18872000D01*
X20942000Y-27279400D02*
X20942000Y-27228600D01*
X19167804Y-29053596D02*
X20942000Y-27279400D01*
X19167804Y-29739396D02*
X19167804Y-29053596D01*
X17259000Y-31648200D02*
X19167804Y-29739396D01*
X15684200Y-34696200D02*
X17259000Y-33121400D01*
X17259000Y-33121400D02*
X17259000Y-31648200D01*
G04 #@! TO.N,/FRONT_TRIG*
X-11430000Y-8839000D02*
X-11430000Y-8439000D01*
X-11430000Y-8439000D02*
X-11443000Y-8426000D01*
X-11443000Y-8426000D02*
X-11443000Y-6807000D01*
X-11443000Y-6807000D02*
X-12840000Y-5410000D01*
G04 #@! TO.N,/FRONT_ECHO*
X-10300000Y-5410000D02*
X-10300000Y-5450000D01*
X-7125000Y-16370000D02*
X-6350000Y-17145000D01*
X-7633000Y-13676000D02*
X-7633000Y-12903000D01*
X-6350000Y-14959000D02*
X-7633000Y-13676000D01*
X-6350000Y-16459000D02*
X-6350000Y-14959000D01*
X-10300000Y-5410000D02*
X-8598000Y-7112000D01*
X-8598000Y-7112000D02*
X-8128000Y-7112000D01*
X-7633000Y-7607000D02*
X-7633000Y-8255000D01*
X-8128000Y-7112000D02*
X-7633000Y-7607000D01*
X-7633000Y-8117000D02*
X-7633000Y-8255000D01*
X-7633000Y-8255000D02*
X-7633000Y-12903000D01*
G04 #@! TO.N,/LEFT_ECHO*
X-11149999Y-3719999D02*
X-10300000Y-2870000D01*
X-13970000Y-17145000D02*
X-13970000Y-14820000D01*
X-10173000Y-11023000D02*
X-10173000Y-7371292D01*
X-10173000Y-7371292D02*
X-11570000Y-5974292D01*
X-11570000Y-5974292D02*
X-11570000Y-4140000D01*
X-13970000Y-14820000D02*
X-10173000Y-11023000D01*
X-11570000Y-4140000D02*
X-11149999Y-3719999D01*
G04 #@! TO.N,/LEFT_TRIG*
X-13729000Y-3759000D02*
X-12840000Y-2870000D01*
X-14100000Y-4130000D02*
X-13729000Y-3759000D01*
X-14100000Y-7209000D02*
X-14100000Y-4130000D01*
X-13970000Y-8839000D02*
X-13970000Y-7339000D01*
X-13970000Y-7339000D02*
X-14100000Y-7209000D01*
G04 #@! TO.N,/RIGHT_TRIG*
X-6350000Y-9525000D02*
X-6350000Y-9207000D01*
X-6350000Y-8439000D02*
X-4701979Y-6790979D01*
X-4701979Y-6790979D02*
X-4272777Y-6790979D01*
X-3950000Y-6468202D02*
X-3950000Y-4902000D01*
X-3188000Y-4140000D02*
X-1410000Y-4140000D01*
X-989999Y-3719999D02*
X-140000Y-2870000D01*
X-6350000Y-8839000D02*
X-6350000Y-8439000D01*
X-4272777Y-6790979D02*
X-3950000Y-6468202D01*
X-1410000Y-4140000D02*
X-989999Y-3719999D01*
X-3950000Y-4902000D02*
X-3188000Y-4140000D01*
G04 #@! TO.N,/RIGHT_ECHO*
X-1410000Y-1600000D02*
X-2680000Y-2870000D01*
X1130000Y-5918000D02*
X1130000Y-2108000D01*
X1130000Y-2108000D02*
X471010Y-1449010D01*
X-1259010Y-1449010D02*
X-1410000Y-1600000D01*
X471010Y-1449010D02*
X-1259010Y-1449010D01*
X2527000Y-6680000D02*
X3543000Y-7696000D01*
X1796750Y-6680000D02*
X2527000Y-6680000D01*
X1796750Y-6680000D02*
X1130000Y-5918000D01*
X-16510000Y-13297000D02*
X-16510000Y-16459000D01*
X-19050000Y-10668000D02*
X-16510000Y-13297000D01*
G04 #@! TO.N,Net-(JP1-Pad2)*
X16637000Y24765000D02*
X16637000Y22479001D01*
G04 #@! TO.N,Net-(JP1-Pad1)*
X16637000Y21179001D02*
X16637000Y19304001D01*
G04 #@! TO.N,Net-(JP2-Pad1)*
X14097000Y21179001D02*
X14097000Y19304001D01*
G04 #@! TO.N,Net-(JP2-Pad2)*
X14097000Y24765000D02*
X14097000Y22479001D01*
G04 #@! TO.N,Net-(JP3-Pad1)*
X11557000Y21179001D02*
X11557000Y19304000D01*
G04 #@! TO.N,Net-(JP3-Pad2)*
X11557000Y24765000D02*
X11557000Y22479001D01*
G04 #@! TO.N,Net-(JP4-Pad2)*
X-3937000Y22479000D02*
X-3937000Y24765000D01*
G04 #@! TO.N,Net-(JP4-Pad1)*
X-3937000Y21179000D02*
X-3937000Y19304001D01*
G04 #@! TO.N,Net-(JP5-Pad2)*
X-6477000Y24765000D02*
X-6477000Y22479000D01*
G04 #@! TO.N,Net-(JP5-Pad1)*
X-6477000Y21179000D02*
X-6477000Y19304000D01*
G04 #@! TO.N,Net-(JP6-Pad1)*
X-9017000Y21179000D02*
X-9017000Y19304000D01*
G04 #@! TO.N,Net-(JP6-Pad2)*
X-9017000Y24765000D02*
X-9017000Y22479000D01*
G04 #@! TO.N,Net-(M1-Pad1)*
X16872000Y8890000D02*
X17145000Y8890000D01*
X14097000Y11665000D02*
X16872000Y8890000D01*
X14097000Y12065000D02*
X14097000Y11665000D01*
G04 #@! TO.N,Net-(M1-Pad2)*
X14332000Y8890000D02*
X14605000Y8890000D01*
X11557000Y11665000D02*
X14332000Y8890000D01*
X11557000Y12065000D02*
X11557000Y11665000D01*
G04 #@! TO.N,Net-(M1-Pad3)*
X11792000Y8890000D02*
X12065000Y8890000D01*
X9017000Y11665000D02*
X11792000Y8890000D01*
X9017000Y12065000D02*
X9017000Y11665000D01*
G04 #@! TO.N,Net-(M1-Pad4)*
X9252000Y8890000D02*
X9525000Y8890000D01*
X6477000Y11665000D02*
X9252000Y8890000D01*
X6477000Y12065000D02*
X6477000Y11665000D01*
G04 #@! TO.N,Net-(M2-Pad1)*
X-6477000Y11665000D02*
X-9252000Y8890000D01*
X-9252000Y8890000D02*
X-9525000Y8890000D01*
X-6477000Y12065000D02*
X-6477000Y11665000D01*
G04 #@! TO.N,Net-(M2-Pad2)*
X-9017000Y11665000D02*
X-11792000Y8890000D01*
X-11792000Y8890000D02*
X-12065000Y8890000D01*
X-9017000Y12065000D02*
X-9017000Y11665000D01*
G04 #@! TO.N,Net-(M2-Pad3)*
X-14332000Y8890000D02*
X-14605000Y8890000D01*
X-11557000Y11665000D02*
X-14332000Y8890000D01*
X-11557000Y12065000D02*
X-11557000Y11665000D01*
G04 #@! TO.N,Net-(M2-Pad4)*
X-16872000Y8890000D02*
X-17145000Y8890000D01*
X-14097000Y11665000D02*
X-16872000Y8890000D01*
X-14097000Y12065000D02*
X-14097000Y11665000D01*
G04 #@! TO.N,Net-(R5-Pad1)*
X9017000Y24765000D02*
X9017000Y22733001D01*
G04 #@! TO.N,Net-(R6-Pad1)*
X6477000Y24765000D02*
X6477000Y22733001D01*
G04 #@! TO.N,Net-(R10-Pad1)*
X-11557000Y24765000D02*
X-11557000Y22733000D01*
G04 #@! TO.N,Net-(R11-Pad1)*
X-14097000Y24765000D02*
X-14097000Y22733000D01*
G04 #@! TO.N,Net-(SW3-Pad1)*
X12700000Y-27305000D02*
X11430000Y-28575000D01*
X14555410Y-27305000D02*
X12700000Y-27305000D01*
X6985000Y-9060000D02*
X8032021Y-8012979D01*
X6985000Y-10160000D02*
X6985000Y-9060000D01*
X19156030Y-11483618D02*
X19156029Y-22704381D01*
X8032021Y-8012979D02*
X15685391Y-8012979D01*
X19156029Y-22704381D02*
X14555410Y-27305000D01*
X15685391Y-8012979D02*
X19156030Y-11483618D01*
G04 #@! TO.N,Net-(SW3-Pad2)*
X10324999Y-9360001D02*
X9525000Y-10160000D01*
X18657021Y-11690315D02*
X15478695Y-8511989D01*
X8890000Y-28575000D02*
X10668000Y-26797000D01*
X10668000Y-26797000D02*
X14357706Y-26797000D01*
X14357706Y-26797000D02*
X18657020Y-22497686D01*
X11173011Y-8511989D02*
X10324999Y-9360001D01*
X18657020Y-22497686D02*
X18657021Y-11690315D01*
X15478695Y-8511989D02*
X11173011Y-8511989D01*
G04 #@! TO.N,Net-(SW3-Pad3)*
X13214001Y-9010999D02*
X12065000Y-10160000D01*
X8636000Y-26289000D02*
X14160000Y-26289000D01*
X6350000Y-28575000D02*
X8636000Y-26289000D01*
X18158011Y-22290989D02*
X18158011Y-11897011D01*
X14160000Y-26289000D02*
X18158011Y-22290989D01*
X18158011Y-11897011D02*
X15271999Y-9010999D01*
X15271999Y-9010999D02*
X13214001Y-9010999D01*
G04 #@! TO.N,Net-(SW3-Pad4)*
X6604000Y-25781000D02*
X3810000Y-28575000D01*
X13912202Y-25781000D02*
X6604000Y-25781000D01*
X17659001Y-22034201D02*
X13912202Y-25781000D01*
X14605000Y-10160000D02*
X15715294Y-10160000D01*
X17659001Y-12103707D02*
X17659001Y-22034201D01*
X15715294Y-10160000D02*
X17659001Y-12103707D01*
G04 #@! TO.N,/M_ENABLE*
X-23000000Y-13420000D02*
X-23170000Y-13420000D01*
X-23500000Y-19750000D02*
X-22500000Y-19750000D01*
X-1788000Y-24333000D02*
X-2807000Y-23314000D01*
X-23170000Y-13420000D02*
X-24250000Y-14500000D01*
X6295000Y-20955000D02*
X6350000Y-20955000D01*
X-24250000Y-14500000D02*
X-24250000Y-19000000D01*
X-22500000Y-19750000D02*
X-18936000Y-23314000D01*
X3500000Y-23750000D02*
X6295000Y-20955000D01*
X-18936000Y-23314000D02*
X-2807000Y-23314000D01*
X3500000Y-23750000D02*
X3491000Y-23750000D01*
X3491000Y-23750000D02*
X2908000Y-24333000D01*
X-24250000Y-19000000D02*
X-23500000Y-19750000D01*
X2908000Y-24333000D02*
X-1788000Y-24333000D01*
G04 #@! TO.N,/RIGHT_DIR*
X-23000000Y-23580000D02*
X-22920000Y-23580000D01*
X-18212000Y-24333000D02*
X-17412000Y-25133000D01*
X-19417000Y-24333000D02*
X-18212000Y-24333000D01*
X-20170000Y-23580000D02*
X-19417000Y-24333000D01*
X-17412000Y-25133000D02*
X-13970000Y-28575000D01*
X-23000000Y-23580000D02*
X-20170000Y-23580000D01*
G04 #@! TO.N,/RIGHT_STEP*
X-22150001Y-21889999D02*
X-23000000Y-21040000D01*
X-21065707Y-21889999D02*
X-22150001Y-21889999D01*
X-19130706Y-23825000D02*
X-21065707Y-21889999D01*
X-16180000Y-23825000D02*
X-19130706Y-23825000D01*
X-11430000Y-28575000D02*
X-16180000Y-23825000D01*
G04 #@! TO.N,/XTAL1*
X-3810000Y-20955000D02*
X-3810000Y-20516010D01*
X9398000Y-16978000D02*
X10628000Y-15748000D01*
X9398000Y-18034000D02*
X9398000Y-16978000D01*
X-3810000Y-20955000D02*
X-3810000Y-20574000D01*
X-3810000Y-20574000D02*
X-2540000Y-19304000D01*
G04 #@! TO.N,/XTAL2*
X-6350000Y-20955000D02*
X-6350000Y-20510000D01*
X6858000Y-16978000D02*
X5628000Y-15748000D01*
X6858000Y-18034000D02*
X6858000Y-16978000D01*
X-6350000Y-20955000D02*
X-6350000Y-20574000D01*
X-6350000Y-20574000D02*
X-5080000Y-19304000D01*
G04 #@! TO.N,/LEFT_STEP*
X-23000000Y-15960000D02*
X-23000000Y-16000000D01*
X-23000000Y-16000000D02*
X-21750000Y-17250000D01*
X-21750000Y-17250000D02*
X-21750000Y-19044294D01*
X-21750000Y-19044294D02*
X-18544294Y-22250000D01*
X-18544294Y-22250000D02*
X-16000000Y-22250000D01*
X-16000000Y-22250000D02*
X-15250000Y-21500000D01*
X-15250000Y-21500000D02*
X-15250000Y-20400706D01*
X-15250000Y-20400706D02*
X-14599294Y-19750000D01*
X-12635000Y-19750000D02*
X-11430000Y-20955000D01*
X-14599294Y-19750000D02*
X-12635000Y-19750000D01*
G04 #@! TO.N,/LEFT_DIR*
X-23000000Y-18500000D02*
X-18750000Y-22750000D01*
X-13970000Y-20970000D02*
X-15750000Y-22750000D01*
X-13970000Y-20955000D02*
X-13970000Y-20970000D01*
X-18750000Y-22750000D02*
X-15750000Y-22750000D01*
G04 #@! TO.N,/SENSE_TRIG*
X-16510000Y-28575000D02*
X-16510000Y-28537000D01*
X-16510000Y-28537000D02*
X-19063000Y-25984000D01*
X-12713000Y-14288000D02*
X-8890000Y-10465000D01*
X-12713000Y-17983000D02*
X-12713000Y-14288000D01*
X-8890000Y-10465000D02*
X-8890000Y-8839000D01*
X-13475000Y-18745000D02*
X-12713000Y-17983000D01*
X-19063000Y-20015000D02*
X-17793000Y-18745000D01*
X-17793000Y-18745000D02*
X-13475000Y-18745000D01*
G04 #@! TO.N,/SENSE_ECHO*
X-11430000Y-17145000D02*
X-11430000Y-17430000D01*
X-11430000Y-17430000D02*
X-13250000Y-19250000D01*
X-14805000Y-19250000D02*
X-16510000Y-20955000D01*
X-13250000Y-19250000D02*
X-14805000Y-19250000D01*
G04 #@! TO.N,/SENSE_SEL_0*
X-1270000Y-9525000D02*
X-1270000Y-9125000D01*
X5445011Y-14112989D02*
X5207000Y-14351000D01*
X3810000Y-15748000D02*
X4445000Y-15113000D01*
X3810000Y-20955000D02*
X3810000Y-15748000D01*
X5207000Y-14351000D02*
X4445000Y-15113000D01*
X-19000Y-7188000D02*
X-1270000Y-8439000D01*
X1643945Y-7188000D02*
X-19000Y-7188000D01*
X5715000Y-13843000D02*
X5715000Y-10249000D01*
X3112478Y-8966000D02*
X2419010Y-8272532D01*
X-1270000Y-8439000D02*
X-1270000Y-8839000D01*
X5207000Y-14351000D02*
X5715000Y-13843000D01*
X5715000Y-10249000D02*
X4432000Y-8966000D01*
X4432000Y-8966000D02*
X3112478Y-8966000D01*
X2419010Y-7963065D02*
X1643945Y-7188000D01*
X2419010Y-8272532D02*
X2419010Y-7963065D01*
G04 #@! TO.N,/SENSE_SEL_1*
X2273000Y-8839000D02*
X1270000Y-8839000D01*
X4225304Y-9465010D02*
X2899010Y-9465010D01*
X5207000Y-10446706D02*
X4225304Y-9465010D01*
X5207000Y-13589000D02*
X5207000Y-10446706D01*
X3302000Y-15494000D02*
X5207000Y-13589000D01*
X3302000Y-19640010D02*
X3302000Y-15494000D01*
X2552400Y-22910600D02*
X2552400Y-20389610D01*
X-7036000Y-22809000D02*
X-2606294Y-22809000D01*
X-8890000Y-20955000D02*
X-7036000Y-22809000D01*
X-1590294Y-23825000D02*
X1620020Y-23825000D01*
X2899010Y-9465010D02*
X2273000Y-8839000D01*
X1620020Y-23825000D02*
X1629010Y-23833990D01*
X-2606294Y-22809000D02*
X-1590294Y-23825000D01*
X2552400Y-20389610D02*
X3302000Y-19640010D01*
X1629010Y-23833990D02*
X2552400Y-22910600D01*
G04 #@! TO.N,/BTN2*
X21568000Y-21040000D02*
X23000000Y-21040000D01*
X13970000Y-28575000D02*
X14033000Y-28575000D01*
X14033000Y-28575000D02*
X21568000Y-21040000D01*
G04 #@! TO.N,/BTN1*
X21850000Y-23580000D02*
X23000000Y-23580000D01*
X19733706Y-23580000D02*
X21850000Y-23580000D01*
X16510000Y-26803706D02*
X19733706Y-23580000D01*
X16510000Y-28575000D02*
X16510000Y-26803706D01*
G04 #@! TO.N,/BACK_ECHO*
X-2680000Y-6612081D02*
X-3357909Y-7289990D01*
X-2680000Y-5410000D02*
X-2680000Y-6612081D01*
X-3357909Y-7289990D02*
X-4285935Y-7289990D01*
X-4285935Y-7289990D02*
X-5075000Y-8079055D01*
X-7460522Y-18574478D02*
X-8890000Y-17145000D01*
X-5075000Y-8079055D02*
X-5075000Y-17534476D01*
X-6115002Y-18574478D02*
X-7460522Y-18574478D01*
X-5075000Y-17534476D02*
X-6115002Y-18574478D01*
G04 #@! TO.N,/BACK_TRIG*
X-3810000Y-9080000D02*
X-140000Y-5410000D01*
X-3569000Y-8839000D02*
X-3810000Y-8839000D01*
X-140000Y-5410000D02*
X-3569000Y-8839000D01*
G04 #@! TO.N,Net-(BT1-Pad1)*
X-11430000Y33020000D02*
X-12700000Y34290000D01*
X-7620000Y34290000D02*
X-8890000Y33020000D01*
X-8890000Y33020000D02*
X-11430000Y33020000D01*
G04 #@! TO.N,Net-(BT1-Pad2)*
X-10160000Y34290000D02*
X-8899010Y35550990D01*
X-3800990Y35550990D02*
X-2540000Y34290000D01*
X-8899010Y35550990D02*
X-3800990Y35550990D01*
G04 #@! TO.N,/M_ENABLE_T*
X-1397000Y21844000D02*
X-1397000Y24765000D01*
X19177000Y22733000D02*
X19177000Y24765000D01*
G04 #@! TO.N,/LEFT_STEP_T*
X3937000Y24765000D02*
X3937000Y21844000D01*
G04 #@! TO.N,/LEFT_DIR_T*
X1397000Y21767980D02*
X1397000Y24765000D01*
G04 #@! TO.N,/RIGHT_DIR_T*
X-19177000Y24765000D02*
X-19177000Y20701000D01*
G04 #@! TO.N,/RIGHT_STEP_T*
X-16637000Y21832370D02*
X-16637000Y24765000D01*
X-16637000Y20701000D02*
X-16637000Y21832370D01*
G04 #@! TO.N,GNDD*
X1270000Y-27065000D02*
X875000Y-26670000D01*
X1270000Y-28575000D02*
X1270000Y-27065000D01*
X-1270000Y-22465000D02*
X-875000Y-22860000D01*
X-1270000Y-20955000D02*
X-1270000Y-22465000D01*
X-5080000Y-2540000D02*
X-5040000Y-2540000D01*
X-5220000Y-2870000D02*
X-5220000Y-5410000D01*
X6985000Y-2540000D02*
X9525000Y-2540000D01*
X12065000Y-2540000D02*
X9525000Y-2540000D01*
X14605000Y-2540000D02*
X12065000Y-2540000D01*
X-7760000Y-2870000D02*
X-7760000Y-5410000D01*
X-5220000Y-5410000D02*
X-7760000Y-5410000D01*
X-1270000Y-16459000D02*
X-1270000Y-20955000D01*
X-1270000Y-16459000D02*
X-3810000Y-16459000D01*
X1270000Y-16459000D02*
X-1270000Y-16459000D01*
X20443000Y-18500000D02*
X23000000Y-18500000D01*
X20434000Y-18491000D02*
X20443000Y-18500000D01*
X1270000Y-28575000D02*
X1270000Y-29210000D01*
X-7760000Y-1720000D02*
X-7760000Y-2870000D01*
X-15888000Y-1473000D02*
X-8007000Y-1473000D01*
X-20576181Y-18593181D02*
X-20576181Y-17461811D01*
X-20959010Y-17078982D02*
X-20959010Y-9902302D01*
X-20576181Y-17461811D02*
X-20959010Y-17078982D01*
X-20959010Y-9902302D02*
X-16650000Y-5593292D01*
X-8007000Y-1473000D02*
X-7760000Y-1720000D01*
X-16650000Y-2235000D02*
X-15888000Y-1473000D01*
X-16650000Y-5593292D02*
X-16650000Y-2235000D01*
X8128000Y-12700000D02*
X8128000Y-15748000D01*
X21704000Y-15443000D02*
X21704000Y-17204000D01*
X22466000Y-14681000D02*
X21704000Y-15443000D01*
X21704000Y-17204000D02*
X23000000Y-18500000D01*
X23482000Y-14681000D02*
X22466000Y-14681000D01*
X14605000Y-2540000D02*
X14605000Y-5517294D01*
X14605000Y-5517294D02*
X21228706Y-12141000D01*
X21228706Y-12141000D02*
X23495522Y-12141000D01*
X24244000Y-12889478D02*
X24244000Y-13919000D01*
X23495522Y-12141000D02*
X24244000Y-12889478D01*
X24244000Y-13919000D02*
X23482000Y-14681000D01*
X3556000Y-12700000D02*
X3556000Y-13694000D01*
X1270000Y-15980000D02*
X1270000Y-16459000D01*
X3556000Y-13694000D02*
X1270000Y-15980000D01*
X-13050000Y-35550000D02*
X-13025000Y-35575000D01*
X-13050000Y-33925000D02*
X-13050000Y-35550000D01*
X-13025000Y-35575000D02*
X-12625000Y-35575000D01*
X-8550000Y-33925001D02*
X-8550000Y-34550001D01*
X-8550000Y-35550000D02*
X-8575000Y-35575000D01*
X-8550000Y-33925001D02*
X-8550000Y-35550000D01*
X-13025000Y-35575000D02*
X-8575000Y-35575000D01*
X10604200Y-34696200D02*
X10604200Y-32156200D01*
X-20587000Y-26162000D02*
X-20587000Y-24841000D01*
X-20574000Y-26162000D02*
X-20587000Y-26162000D01*
X-16549001Y-30186999D02*
X-20574000Y-26162000D01*
X-16549001Y-35479201D02*
X-16549001Y-30186999D01*
X-13025000Y-35575000D02*
X-16453202Y-35575000D01*
X-16453202Y-35575000D02*
X-16549001Y-35479201D01*
X9054800Y-30606800D02*
X10604200Y-32156200D01*
X6362400Y-30606800D02*
X9054800Y-30606800D01*
X5479601Y-29724001D02*
X6362400Y-30606800D01*
X1270000Y-29719001D02*
X1275000Y-29724001D01*
X1270000Y-28575000D02*
X1270000Y-29719001D01*
X1275000Y-29724001D02*
X5479601Y-29724001D01*
X-5830278Y-31800000D02*
X-3754279Y-29724001D01*
X-3754279Y-29724001D02*
X1275000Y-29724001D01*
X-8550000Y-33925001D02*
X-6424999Y-31800000D01*
X-6424999Y-31800000D02*
X-5830278Y-31800000D01*
G04 #@! TO.N,+5VD*
X-15380000Y-2870000D02*
X-15380000Y-5410000D01*
X-1270000Y-27065000D02*
X-875000Y-26670000D01*
X-1270000Y-28575000D02*
X-1270000Y-27065000D01*
X1270000Y-22465000D02*
X875000Y-22860000D01*
X1270000Y-20955000D02*
X1270000Y-22465000D01*
X-1270000Y-28575000D02*
X-3810000Y-28575000D01*
X2400000Y-2870000D02*
X2400000Y-5410000D01*
X-16510000Y-6540000D02*
X-16510000Y-8839000D01*
X-15380000Y-5410000D02*
X-16510000Y-6540000D01*
X-19190000Y-8839000D02*
X-16510000Y-8839000D01*
X-20460000Y-10109000D02*
X-19190000Y-8839000D01*
X-20460000Y-11252000D02*
X-20460000Y-10109000D01*
X-19135563Y-12573000D02*
X-20405563Y-11303000D01*
X-19050000Y-12573000D02*
X-19135563Y-12573000D01*
X-20405563Y-11303000D02*
X-20460000Y-11252000D01*
X4707990Y-11819990D02*
X3556000Y-10668000D01*
X4707990Y-13326010D02*
X4707990Y-11819990D01*
X16510000Y-15528999D02*
X16468999Y-15570000D01*
X16510000Y-13462000D02*
X16510000Y-14605000D01*
X16510000Y-13716000D02*
X16510000Y-14605000D01*
X16510000Y-14605000D02*
X16510000Y-15528999D01*
X22958000Y-13462000D02*
X23000000Y-13420000D01*
X20320000Y-13462000D02*
X22958000Y-13462000D01*
X20320000Y-13462000D02*
X20320000Y-11938000D01*
X13792000Y-5410000D02*
X11430000Y-5410000D01*
X20320000Y-11938000D02*
X13792000Y-5410000D01*
X2400000Y-5410000D02*
X11430000Y-5410000D01*
X2794000Y-19431000D02*
X2286000Y-19939000D01*
X2794000Y-15240000D02*
X2794000Y-19431000D01*
X1270000Y-20955000D02*
X2286000Y-19939000D01*
X2794000Y-15240000D02*
X4707990Y-13326010D01*
X-3810000Y-28585000D02*
X-3810000Y-28575000D01*
X-5455800Y-29725000D02*
X-4950000Y-29725000D01*
X-6363000Y-30632200D02*
X-5455800Y-29725000D01*
X-4950000Y-29725000D02*
X-3810000Y-28585000D01*
G04 #@! TO.N,/USB_5V_T*
X18662999Y21583999D02*
X17907000Y20828000D01*
X19728521Y21583999D02*
X18662999Y21583999D01*
X1651000Y29210000D02*
X1651000Y27559000D01*
X1651000Y27559000D02*
X3048000Y26162000D01*
X20326001Y22181479D02*
X19728521Y21583999D01*
X3048000Y26162000D02*
X19522102Y26162000D01*
X20326001Y25358101D02*
X20326001Y22181479D01*
X19522102Y26162000D02*
X20326001Y25358101D01*
X17907000Y19905996D02*
X19177000Y18635996D01*
X17907000Y20193000D02*
X17907000Y19905996D01*
X17907000Y20828000D02*
X17907000Y20193000D01*
G04 #@! TO.N,/BTN2_T*
X19176991Y9566980D02*
X19176991Y8381991D01*
X6350000Y8890000D02*
X7620000Y8890000D01*
X7620000Y8890000D02*
X9025990Y7484010D01*
X9025990Y7484010D02*
X18292375Y7484010D01*
X19176991Y8368626D02*
X19176991Y9566980D01*
X18292375Y7484010D02*
X19176991Y8368626D01*
G04 #@! TO.N,/BTN1_T*
X6758011Y7041989D02*
X7425000Y6375000D01*
X-2716989Y7041989D02*
X6758011Y7041989D01*
X-4565000Y8890000D02*
X-2716989Y7041989D01*
X-6350000Y8890000D02*
X-4565000Y8890000D01*
G04 #@! TD*
M02*
