G04 #@! TF.GenerationSoftware,KiCad,Pcbnew,5.0.1*
G04 #@! TF.CreationDate,2018-11-08T11:53:45-05:00*
G04 #@! TF.ProjectId,micromouse,6D6963726F6D6F7573652E6B69636164,rev?*
G04 #@! TF.SameCoordinates,PX8f0d180PY5f5e100*
G04 #@! TF.FileFunction,Profile,NP*
%FSLAX46Y46*%
G04 Gerber Fmt 4.6, Leading zero omitted, Abs format (unit mm)*
G04 Created by KiCad (PCBNEW 5.0.1) date Thu 08 Nov 2018 11:53:45 AM EST*
%MOMM*%
%LPD*%
G01*
G04 APERTURE LIST*
%ADD10C,0.150000*%
G04 APERTURE END LIST*
D10*
X-17501521Y3060762D02*
G75*
G02X-21000000Y1000000I-3498479J1939238D01*
G01*
X-17500000Y3064000D02*
X-17500000Y6500000D01*
X21000000Y1000238D02*
G75*
G02X17500000Y3064000I0J3999762D01*
G01*
X21000000Y36000000D02*
X17000000Y36000000D01*
X17500000Y6500000D02*
X17500000Y3064000D01*
X8500000Y6500000D02*
X17500000Y6500000D01*
X8500000Y1000000D02*
X8500000Y6500000D01*
X-8500000Y1000000D02*
X8500000Y1000000D01*
X-8500000Y6500000D02*
X-8500000Y1000000D01*
X-17500000Y6500000D02*
X-8500000Y6500000D01*
X4000000Y27000000D02*
X4000000Y36000000D01*
X17000000Y27000000D02*
X4000000Y27000000D01*
X17000000Y36000000D02*
X17000000Y27000000D01*
X21000000Y36000000D02*
G75*
G02X25000000Y32000000I0J-4000000D01*
G01*
X25000000Y5000000D02*
G75*
G02X21000000Y1000000I-4000000J0D01*
G01*
X-21000000Y1000000D02*
G75*
G02X-25000000Y5000000I0J4000000D01*
G01*
X-25000000Y32000000D02*
X-25000000Y5000000D01*
X25000000Y32000000D02*
X25000000Y5000000D01*
X-21000000Y36000000D02*
X4000000Y36000000D01*
X-25000000Y32000000D02*
G75*
G02X-21000000Y36000000I4000000J0D01*
G01*
X25000000Y-32000000D02*
G75*
G02X21000000Y-36000000I-4000000J0D01*
G01*
X-21000000Y-36000000D02*
G75*
G02X-25000000Y-32000000I0J4000000D01*
G01*
X-25000000Y-5000000D02*
G75*
G02X-21000000Y-1000000I4000000J0D01*
G01*
X21000000Y-1000000D02*
G75*
G02X25000000Y-5000000I0J-4000000D01*
G01*
X-25000000Y-5000000D02*
X-25000000Y-32000000D01*
X21000000Y-36000000D02*
X-21000000Y-36000000D01*
X25000000Y-5000000D02*
X25000000Y-32000000D01*
X-21000000Y-1000000D02*
X21000000Y-1000000D01*
M02*
